<svg width="80" height="88" viewBox="0 0 80 88" fill="none" xmlns="http://www.w3.org/2000/svg">
<path fill-rule="evenodd" clip-rule="evenodd" d="M40.099 0.0352434C48.0444 -0.268719 55.9642 1.36897 62.7306 5.90302C69.8862 10.6979 76.542 17.2777 78.9088 26.0411C81.2465 34.6963 78.5074 43.8511 75.2163 52.1324C72.1762 59.7822 67.1531 66.0126 61.0294 71.0303C54.8044 76.1311 47.8797 80.3509 40.099 80.9073C31.9662 81.4889 23.6824 79.3438 17.0656 74.1745C10.4293 68.99 6.41651 60.9616 3.80021 52.5494C1.15765 44.0528 -0.584508 34.8056 2.1949 26.3607C4.93532 18.0342 11.7383 12.3549 18.5968 7.59142C25.1027 3.07289 32.3817 0.330481 40.099 0.0352434Z" fill="#FFFF99"/>
<path d="M40.0024 18.1453C40.0024 18.1453 26.8324 18.3553 26.6224 36.9953C26.6224 36.9953 19.5224 35.7453 25.6224 44.9953C25.6224 44.9953 26.2124 46.5753 28.0824 44.9953C29.9524 43.4153 26.3324 48.7753 34.8324 54.1553C34.8324 54.1553 34.9524 62.7753 32.8324 64.1553C30.7124 65.5353 44.4524 70.2753 46.7024 64.1553C45.2711 62.3919 44.5158 60.1757 44.5724 57.9053C44.5724 57.9053 54.0124 57.4353 54.0724 41.1653C54.0824 24.9953 49.5824 17.2053 40.0024 18.1453Z" fill="#E8C0B6"/>
<path d="M38.3124 16.5653C38.3124 16.5653 35.4724 14.7553 32.2024 17.6853C28.9324 20.6153 27.0324 18.6853 25.6524 23.1953C24.2724 27.7053 23.8924 33.3453 24.5824 34.9953C25.2724 36.6453 31.4524 37.3753 32.9724 34.7453C34.3224 32.4053 34.6624 38.3353 37.7124 34.4853C40.3624 31.1353 41.3224 38.6453 43.9924 35.7153C46.6624 32.7853 46.4024 36.7153 47.3424 35.8053C47.6424 35.5253 51.6124 31.9853 53.1924 34.1353C54.7724 36.2853 55.1924 35.3653 55.3724 31.2053C55.5324 27.5853 56.1224 13.1253 38.3124 16.5653Z" fill="black"/>
<path d="M45.7538 64.484C40.0445 69.0515 34.4934 66.3871 32.4316 64.484C22.3355 64.0627 14.5858 79.6922 11.9729 87.5596H68.5914C63.3578 77.9646 51.4631 59.9165 45.7538 64.484Z" fill="#F8F8C8"/>
</svg>
