<svg width="80" height="88" viewBox="0 0 80 88" fill="none" xmlns="http://www.w3.org/2000/svg">
<path fill-rule="evenodd" clip-rule="evenodd" d="M38.1542 0.0215064C46.5008 -0.157107 55.1013 0.696525 61.9915 5.63606C68.9949 10.6567 73.1671 18.7487 75.9793 27.1381C78.8498 35.701 81.1431 45.1222 78.0728 53.6086C75.0605 61.9344 67.0734 66.5995 59.9475 71.4496C53.2016 76.0411 46.1728 80.1094 38.1542 80.7785C29.632 81.4895 20.5155 80.6967 13.6847 75.3097C6.90272 69.9612 4.1379 60.9309 2.05388 52.3085C0.0895588 44.1815 -0.0854134 35.8093 2.19512 27.7734C4.52255 19.5723 8.43959 11.7152 15.014 6.64136C21.6135 1.54805 29.9597 0.196867 38.1542 0.0215064Z" fill="#E06B65"/>
<path d="M26.7537 45.4504C26.7537 45.4504 30.4637 55.4504 34.7537 53.6904C34.7537 53.6904 28.9837 49.9904 29.0337 44.5504C29.0337 44.2704 28.5337 44.6104 28.3337 44.8104C28.1379 45.0322 27.8932 45.2054 27.619 45.3164C27.3449 45.4275 27.0486 45.4734 26.7537 45.4504Z" fill="black"/>
<path d="M40.3237 18.0004C40.3237 18.0004 27.1537 18.2104 26.9437 36.8104C26.9437 36.8104 19.8337 35.5604 25.8937 44.8104C25.8937 44.8104 26.4937 46.3904 28.3637 44.8104C30.2337 43.2304 26.6137 48.5904 35.1137 53.9704C35.1137 53.9704 35.2337 62.5904 33.1137 63.9704C30.9937 65.3504 44.7237 70.0904 46.9737 63.9704C45.5475 62.2048 44.7961 59.9894 44.8537 57.7204C44.8537 57.7204 54.2937 57.2504 54.3437 40.9804C54.4037 24.8104 49.9037 17.0604 40.3237 18.0004Z" fill="#CD9F94"/>
<path d="M39.2637 16.2404C39.2637 16.2404 35.1837 5.45041 25.8637 9.91041C16.5437 14.3704 25.9237 29.4904 25.4937 26.1604C24.7437 20.3504 17.9937 31.6404 24.6637 37.0204C24.6637 35.9404 37.6037 39.7704 43.2337 24.0204C43.2337 24.0204 52.6637 33.8904 53.9837 32.4204C55.3037 30.9504 53.5437 15.3604 39.2637 16.2404Z" fill="black"/>
<path d="M46.3678 64.484C40.6585 69.0515 35.1074 66.3871 33.0455 64.484C22.9495 64.0627 15.1997 79.6922 12.5869 87.5596H69.2054C63.9717 77.9646 52.0771 59.9165 46.3678 64.484Z" fill="#FFB6B3"/>
</svg>
