<svg width="80" height="88" viewBox="0 0 80 88" fill="none" xmlns="http://www.w3.org/2000/svg">
<path fill-rule="evenodd" clip-rule="evenodd" d="M39.1262 0.121239C47.4435 -0.578627 55.7892 1.76903 62.7681 6.7106C69.9909 11.8249 76.0069 19.1217 78.5559 28.0403C81.0839 36.8854 79.6278 46.3968 76.5837 55.0498C73.6553 63.3739 68.7469 70.8439 61.809 75.6451C55.1289 80.2678 47.057 80.8814 39.1262 80.971C31.112 81.0615 22.5857 81.2468 16.0964 76.1615C9.6041 71.0737 7.17718 62.23 4.69315 53.9873C2.20705 45.7378 -0.702626 37.0229 1.81926 28.786C4.33544 20.5679 11.4883 15.4911 18.015 10.4764C24.4718 5.5153 31.2288 0.785774 39.1262 0.121239Z" fill="#99CC99"/>
<path d="M42.0091 18.4735C42.0091 18.4735 28.8391 18.6835 28.5991 37.3235C28.5991 37.3235 21.4891 36.0635 27.5991 45.2635C27.5991 45.2635 28.1891 46.8535 30.0591 45.2635C31.9291 43.6735 28.3091 49.0535 36.8091 54.4235C36.8091 54.4235 36.9291 63.0435 34.8091 64.4235C32.6891 65.8035 46.4291 70.5435 48.6691 64.4235C47.243 62.6579 46.4915 60.4424 46.5491 58.1735C46.5491 58.1735 55.9891 57.6935 56.0391 41.4335C56.0891 25.1735 51.5991 17.5335 42.0091 18.4735Z" fill="#E8C8B6"/>
<path d="M23.5091 24.5635C23.5091 24.5635 20.0791 28.3135 24.4091 33.7835C24.2214 34.172 24.1196 34.5965 24.1108 35.0279C24.1021 35.4593 24.1865 35.8875 24.3583 36.2834C24.5301 36.6792 24.7853 37.0333 25.1064 37.3215C25.4275 37.6098 25.8071 37.8253 26.2191 37.9535C26.2191 37.9535 28.3391 40.3735 29.1391 38.4535C29.9391 36.5335 31.3591 29.2935 34.5791 29.1935C34.5791 29.1935 33.7691 22.9535 38.7091 23.7635C38.7091 23.7635 39.7091 21.4435 41.8291 22.4535C43.9491 23.4635 45.5191 24.7935 47.4391 23.0835C49.3591 21.3735 50.8891 28.2335 53.6491 27.5535C55.1991 27.1635 55.0091 37.4535 56.0191 36.4435C57.0291 35.4335 59.1391 24.6635 53.7991 18.6335C53.7991 18.6335 49.5791 15.9135 48.0691 17.6335C48.0691 17.6335 46.6591 14.4135 43.3391 14.4135C40.0191 14.4135 38.3391 15.9235 36.6891 15.6235C35.0391 15.3235 32.1591 15.1135 30.7491 16.6235C30.7491 16.6135 22.5191 21.1835 23.5091 24.5635Z" fill="#604637"/>
<path d="M48.5991 17.2435C48.7937 16.5863 49.2074 16.0156 49.7714 15.6263C50.3354 15.2369 51.0157 15.0524 51.6991 15.1035" fill="black"/>
<path d="M47.4391 16.5935C47.4492 16.1012 47.6353 15.6288 47.9637 15.2619C48.292 14.895 48.741 14.6579 49.2291 14.5935" fill="black"/>
<path d="M47.0517 64.484C41.3424 69.0515 35.7913 66.3871 33.7295 64.484C23.6334 64.0627 15.8837 79.6922 13.2708 87.5596H69.8893C64.6557 77.9646 52.7611 59.9165 47.0517 64.484Z" fill="#CBF4CB"/>
</svg>
