<svg width="80" height="82" viewBox="0 0 80 82" fill="none" xmlns="http://www.w3.org/2000/svg">
<path fill-rule="evenodd" clip-rule="evenodd" d="M40.4735 0.901645C48.1729 0.800676 55.5166 4.13486 61.7528 9.17102C67.9962 14.2131 72.5999 21.1705 75.4575 29.1538C78.4786 37.5939 81.1498 47.0159 78.3547 55.5523C75.5932 63.9863 67.8274 68.571 60.9952 73.3228C54.6414 77.7419 47.9619 81.9447 40.4735 81.899C33.0097 81.8535 26.502 77.3783 20.1142 73.0734C13.1065 68.3509 4.74251 64.3595 1.80249 55.8384C-1.18182 47.1889 1.6068 37.451 4.8852 28.9349C7.93497 21.0127 13.2397 14.6988 19.5547 9.72439C25.7964 4.80777 32.8319 1.00186 40.4735 0.901645Z" fill="#99CCFF"/>
<path d="M42.3305 15.0911C42.3305 15.0911 29.1605 15.3011 28.9505 33.9011C28.9505 33.9011 21.8405 32.6511 27.9505 41.9011C27.9505 41.9011 28.5505 43.4811 30.4205 41.9011C32.2905 40.3211 28.6705 45.6911 37.1705 51.0611C37.1705 51.0611 37.2905 59.6811 35.1705 61.0611C33.0505 62.4411 46.7905 67.1811 49.0305 61.0611C47.5814 59.2869 46.8184 57.051 46.8805 54.7611C46.8805 54.7611 56.3205 54.2811 56.3705 38.0211C56.4205 21.7611 51.8805 14.1511 42.3305 15.0911Z" fill="#E8C0B6"/>
<path d="M66.8805 65.5411C66.8805 65.5411 64.2205 49.4311 65.4605 42.4111C66.7005 35.3911 53.2705 15.0511 53.2705 15.0511C53.2705 15.0511 54.5005 6.26109 48.2705 8.90109C48.2705 8.90109 44.0005 12.0011 36.2705 10.2511C28.5405 8.50109 23.8805 18.9811 24.4305 22.4711C24.4305 22.4711 11.6305 27.1311 15.5105 47.4711C19.3905 67.8111 18.38 77.9311 24 80.8411C29.62 83.7511 39.52 79.15 45 71C50.48 62.85 55.5105 80.8411 55.5105 80.8411C55.5105 80.8411 68.4605 85.7111 66.8805 65.5411ZM54.1705 49.0211C51.6905 52.8611 50.0205 54.3411 47.5605 54.3411C45.1005 54.3411 48.6605 60.6111 48.6605 60.6111C42.1305 63.8111 35.8605 60.0811 35.8605 60.0811C38.6905 58.0811 37.8605 51.0811 37.8605 51.0811C34.4105 50.8611 30.9505 41.6111 30.9505 41.6111C28.1205 43.8311 26.8405 40.0511 26.8405 40.0511C24.3905 32.3811 28.9905 33.9211 28.9905 33.9211C28.3705 24.9211 38.4705 22.7511 44.5105 21.5211C50.5505 20.2911 51.0405 17.7011 51.0405 17.7011C58.4705 26.3611 56.6905 45.1211 54.1705 49.0211Z" fill="#69421E"/>
<path d="M48.559 58.6824C42.8497 63.2499 37.2986 60.5855 35.2368 58.6824C25.1407 58.2612 17.391 73.8907 14.7781 81.7581H71.3966C66.163 72.1631 54.2683 54.1149 48.559 58.6824Z" fill="#C3DDF7"/>
</svg>
