<svg width="82" height="84" viewBox="0 0 82 84" fill="none" xmlns="http://www.w3.org/2000/svg">
<path fill-rule="evenodd" clip-rule="evenodd" d="M40.8238 1.96113C48.7432 1.59072 56.8542 2.81337 63.4306 7.65503C70.1528 12.6041 74.4232 20.4399 77.2228 28.7587C80.1161 37.356 82.2543 46.7951 79.5163 55.4531C76.8014 64.0383 69.6769 69.7141 62.7088 74.6546C56.0728 79.3597 48.7279 83.1459 40.8238 82.8869C33.061 82.6325 25.9645 78.5189 19.8708 73.2511C13.9762 68.1554 9.96821 61.2797 7.06153 53.7004C3.91035 45.4836 0.131734 36.6012 2.5525 28.0931C4.98221 19.5536 12.6442 14.4413 19.5791 9.70608C26.0703 5.27382 33.1792 2.31869 40.8238 1.96113Z" fill="white" stroke="#DADADA" stroke-width="2"/>
<path d="M28.2789 43.3981C28.2789 43.3981 31.9889 53.3981 36.2789 51.6381C36.2789 51.6381 30.5089 47.9381 30.5589 42.4981C30.5589 42.2181 30.0589 42.5581 29.8589 42.7581C29.6631 42.9799 29.4185 43.1531 29.1443 43.2642C28.8701 43.3752 28.5739 43.4211 28.2789 43.3981Z" fill="#4D3107"/>
<path d="M41.8489 15.9481C41.8489 15.9481 28.6789 16.1581 28.4689 34.7581C28.4689 34.7581 21.3589 33.5081 27.4189 42.7581C27.4189 42.7581 28.0189 44.3381 29.8889 42.7581C31.7589 41.1781 28.1389 46.5381 36.6389 51.9181C36.6389 51.9181 36.7589 60.5381 34.6389 61.9181C32.5189 63.2981 46.2489 68.0381 48.4989 61.9181C47.0728 60.1525 46.3213 57.9371 46.3789 55.6681C46.3789 55.6681 55.8189 55.1981 55.8689 38.9281C55.9289 22.7581 51.4289 15.0081 41.8489 15.9481Z" fill="#F0CEBB"/>
<path d="M40.7889 14.1881C40.7889 14.1881 36.7089 3.39812 27.3889 7.85812C18.0689 12.3181 27.4489 27.4381 27.0189 24.1081C26.2689 18.2981 19.5189 29.5881 26.1889 34.9681C26.1889 33.8881 39.1289 37.7181 44.7589 21.9681C44.7589 21.9681 54.1889 31.8381 55.5089 30.3681C56.8289 28.8981 55.0689 13.3081 40.7889 14.1881Z" fill="#4D3107"/>
<path d="M47.7809 59.6824C42.0716 64.2499 36.5205 61.5855 34.4587 59.6824C24.3626 59.2612 16.6129 74.8907 14 82.7581H70.6185C65.3849 73.1631 53.4902 55.1149 47.7809 59.6824Z" fill="#DADADA"/>
</svg>
