<svg width="80" height="82" viewBox="0 0 80 82" fill="none" xmlns="http://www.w3.org/2000/svg">
<path fill-rule="evenodd" clip-rule="evenodd" d="M41.7748 0.947337C50.4084 0.47388 59.1317 3.53319 65.6825 9.03308C71.9409 14.2876 74.3057 22.3409 76.4993 30.1015C78.5947 37.5147 80.2792 45.2009 77.9851 52.558C75.6634 60.0033 69.9905 65.722 63.843 70.6892C57.3075 75.9699 50.241 81.1921 41.7748 81.8159C32.9616 82.4653 24.2299 79.2731 17.1406 74.1304C10.1076 69.0286 5.38843 61.5965 2.69437 53.4666C0.00427388 45.3488 -1.20321 36.4402 2.02291 28.5099C5.15041 20.8221 12.8303 16.347 19.7456 11.5522C26.5862 6.80916 33.3922 1.40703 41.7748 0.947337Z" fill="#343434"/>
<path d="M42.4634 13.8802C42.4634 13.8802 29.2934 14.0902 29.0834 32.7002C29.0834 32.7002 21.9834 31.4402 28.0834 40.6402C28.0834 40.6402 28.6734 42.2202 30.5434 40.6402C32.4134 39.0602 28.7734 44.3902 37.2534 49.7602C37.2534 49.7602 37.3734 58.3802 35.2534 59.7602C33.1334 61.1402 46.8734 65.8802 49.1234 59.7602C47.6912 58.0012 46.9357 55.7878 46.9934 53.5202C46.9934 53.5202 56.4334 53.0402 56.4934 36.7802C56.5534 20.5202 52.0434 12.8802 42.4634 13.8802Z" fill="#F0CEBB"/>
<path d="M56.8534 13.4902C56.8534 13.4902 52.1434 10.4902 52.2834 9.06021C52.4234 7.63021 49.0034 5.88021 46.1434 7.21021C46.1434 7.21021 41.1434 3.06021 36.2934 7.35021C36.2934 7.35021 29.8634 6.78021 27.7234 10.9202C27.7234 10.9202 22.7234 10.4902 24.7234 17.4902C24.7234 17.4902 19.7234 19.9202 23.5834 25.3402C23.5834 25.3402 20.7234 29.6302 24.5834 32.2002C28.4434 34.7702 28.7234 31.6302 29.5834 36.2002C30.4434 40.7702 31.8634 31.9102 31.7234 30.2002C31.5834 28.4902 31.7234 24.7702 34.0034 25.7702C36.2834 26.7702 33.1534 20.8802 37.7734 23.2002C42.3934 25.5202 44.6234 18.7002 46.4834 21.4502C48.3434 24.2002 52.3334 25.4502 53.3334 22.6302C54.3334 19.8102 56.1934 23.8402 58.1934 21.4502C60.1934 19.0602 61.4234 17.8802 56.8534 13.4902Z" fill="#715426"/>
<path d="M47.5257 58.8238C41.8164 63.3913 36.2653 60.7269 34.2034 58.8238C24.1073 58.4025 16.3576 74.032 13.7448 81.8994H70.3633C65.1296 72.3044 53.235 54.2563 47.5257 58.8238Z" fill="black"/>
</svg>
