<svg width="38" height="38" viewBox="0 0 38 38" fill="none" xmlns="http://www.w3.org/2000/svg">
<circle cx="19" cy="19" r="18.5" stroke="#202020"/>
<path d="M14.5688 23.6015V22.6015H13.5688V23.6015H14.5688ZM17.8888 23.6015V24.6015H18.8888V23.6015H17.8888ZM17.8888 15.7415H18.8888V14.7415H17.8888V15.7415ZM14.5488 15.7415H13.5488V16.7415H14.5488V15.7415ZM14.5488 13.9615L14.4775 12.964L13.5488 13.0304V13.9615H14.5488ZM17.0888 13.4015L17.409 14.3489L17.4209 14.3447L17.0888 13.4015ZM19.7688 12.2015V11.2015H19.5096L19.2831 11.3273L19.7688 12.2015ZM20.8288 12.2015H21.8288V11.2015H20.8288V12.2015ZM20.8288 23.6015H19.8288V24.6015H20.8288V23.6015ZM24.0888 23.6015H25.0888V22.6015H24.0888V23.6015ZM24.0888 26.0215V27.0215H25.0888V26.0215H24.0888ZM14.5688 26.0215H13.5688V27.0215H14.5688V26.0215ZM14.5688 24.6015H17.8888V22.6015H14.5688V24.6015ZM18.8888 23.6015V15.7415H16.8888V23.6015H18.8888ZM17.8888 14.7415H14.5488V16.7415H17.8888V14.7415ZM15.5488 15.7415V13.9615H13.5488V15.7415H15.5488ZM14.62 14.9589C15.4743 14.8979 16.4068 14.6876 17.409 14.3488L16.7685 12.4541C15.8773 12.7554 15.1165 12.9184 14.4775 12.964L14.62 14.9589ZM17.4209 14.3447C18.4182 13.9935 19.3631 13.5708 20.2544 13.0756L19.2831 11.3273C18.4944 11.7655 17.6526 12.1428 16.7566 12.4582L17.4209 14.3447ZM19.7688 13.2015H20.8288V11.2015H19.7688V13.2015ZM19.8288 12.2015V23.6015H21.8288V12.2015H19.8288ZM20.8288 24.6015H24.0888V22.6015H20.8288V24.6015ZM23.0888 23.6015V26.0215H25.0888V23.6015H23.0888ZM24.0888 25.0215H14.5688V27.0215H24.0888V25.0215ZM15.5688 26.0215V23.6015H13.5688V26.0215H15.5688Z" fill="#202020"/>
</svg>
