<svg width="84" height="49" viewBox="0 0 84 49" fill="none" xmlns="http://www.w3.org/2000/svg">
<circle cx="24.2425" cy="24.2425" r="24.2425" fill="#99CCFF"/>
<circle cx="24.2425" cy="24.2425" r="23.2425" stroke="#99CCFF" stroke-opacity="0.78" stroke-width="2"/>
<path d="M14.1213 18.0406H16.4613V28.6606H23.0493V30.6406H14.1213V18.0406ZM30.5002 30.8206C29.2282 30.8206 28.0762 30.5446 27.0442 29.9926C26.0242 29.4286 25.2202 28.6546 24.6322 27.6706C24.0562 26.6866 23.7682 25.5766 23.7682 24.3406C23.7682 23.1046 24.0622 21.9946 24.6502 21.0106C25.2382 20.0266 26.0422 19.2586 27.0622 18.7066C28.0942 18.1426 29.2462 17.8606 30.5182 17.8606C31.5502 17.8606 32.4922 18.0406 33.3442 18.4006C34.1962 18.7606 34.9162 19.2826 35.5042 19.9666L33.9922 21.3886C33.0802 20.4046 31.9582 19.9126 30.6262 19.9126C29.7622 19.9126 28.9882 20.1046 28.3042 20.4886C27.6202 20.8606 27.0862 21.3826 26.7022 22.0546C26.3182 22.7266 26.1262 23.4886 26.1262 24.3406C26.1262 25.1926 26.3182 25.9546 26.7022 26.6266C27.0862 27.2986 27.6202 27.8266 28.3042 28.2106C28.9882 28.5826 29.7622 28.7686 30.6262 28.7686C31.9582 28.7686 33.0802 28.2706 33.9922 27.2746L35.5042 28.7146C34.9162 29.3986 34.1902 29.9206 33.3262 30.2806C32.4742 30.6406 31.5322 30.8206 30.5002 30.8206Z" fill="#202020"/>
<circle cx="59.2425" cy="24.2425" r="23.2425" fill="white" stroke="#C4C4C4" stroke-width="2"/>
<path d="M53.9274 18.0406C55.0194 18.0406 55.9674 18.2206 56.7714 18.5806C57.5874 18.9406 58.2114 19.4566 58.6434 20.1286C59.0754 20.8006 59.2914 21.5986 59.2914 22.5226C59.2914 23.4346 59.0754 24.2326 58.6434 24.9166C58.2114 25.5886 57.5874 26.1046 56.7714 26.4646C55.9674 26.8246 55.0194 27.0046 53.9274 27.0046H51.0834V30.6406H48.7434V18.0406H53.9274ZM53.8194 25.0246C54.8394 25.0246 55.6134 24.8086 56.1414 24.3766C56.6694 23.9446 56.9334 23.3266 56.9334 22.5226C56.9334 21.7186 56.6694 21.1006 56.1414 20.6686C55.6134 20.2366 54.8394 20.0206 53.8194 20.0206H51.0834V25.0246H53.8194ZM65.7099 30.8206C64.7379 30.8206 63.7959 30.6826 62.8839 30.4066C61.9839 30.1306 61.2699 29.7646 60.7419 29.3086L61.5519 27.4906C62.0679 27.8986 62.6979 28.2346 63.4419 28.4986C64.1979 28.7506 64.9539 28.8766 65.7099 28.8766C66.6459 28.8766 67.3419 28.7266 67.7979 28.4266C68.2659 28.1266 68.4999 27.7306 68.4999 27.2386C68.4999 26.8786 68.3679 26.5846 68.1039 26.3566C67.8519 26.1166 67.5279 25.9306 67.1319 25.7986C66.7359 25.6666 66.1959 25.5166 65.5119 25.3486C64.5519 25.1206 63.7719 24.8926 63.1719 24.6646C62.5839 24.4366 62.0739 24.0826 61.6419 23.6026C61.2219 23.1106 61.0119 22.4506 61.0119 21.6226C61.0119 20.9266 61.1979 20.2966 61.5699 19.7326C61.9539 19.1566 62.5239 18.7006 63.2799 18.3646C64.0479 18.0286 64.9839 17.8606 66.0879 17.8606C66.8559 17.8606 67.6119 17.9566 68.3559 18.1486C69.0999 18.3406 69.7419 18.6166 70.2819 18.9766L69.5439 20.7946C68.9919 20.4706 68.4159 20.2246 67.8159 20.0566C67.2159 19.8886 66.6339 19.8046 66.0699 19.8046C65.1459 19.8046 64.4559 19.9606 63.9999 20.2726C63.5559 20.5846 63.3339 20.9986 63.3339 21.5146C63.3339 21.8746 63.4599 22.1686 63.7119 22.3966C63.9759 22.6246 64.3059 22.8046 64.7019 22.9366C65.0979 23.0686 65.6379 23.2186 66.3219 23.3866C67.2579 23.6026 68.0259 23.8306 68.6259 24.0706C69.2259 24.2986 69.7359 24.6526 70.1559 25.1326C70.5879 25.6126 70.8039 26.2606 70.8039 27.0766C70.8039 27.7726 70.6119 28.4026 70.2279 28.9666C69.8559 29.5306 69.2859 29.9806 68.5179 30.3166C67.7499 30.6526 66.8139 30.8206 65.7099 30.8206Z" fill="#202020"/>
</svg>
