<svg width="79" height="88" viewBox="0 0 79 88" fill="none" xmlns="http://www.w3.org/2000/svg">
<path fill-rule="evenodd" clip-rule="evenodd" d="M37.6216 0.0215064C45.9681 -0.157107 54.5686 0.696525 61.4588 5.63606C68.4622 10.6567 72.6344 18.7487 75.4467 27.1381C78.3171 35.701 80.6105 45.1222 77.5401 53.6086C74.5278 61.9344 66.5407 66.5995 59.4148 71.4496C52.6689 76.0411 45.6402 80.1094 37.6216 80.7785C29.0994 81.4895 19.9829 80.6967 13.152 75.3097C6.37006 69.9612 3.60525 60.9309 1.52122 52.3085C-0.443095 44.1815 -0.618067 35.8093 1.66246 27.7734C3.98989 19.5723 7.90693 11.7152 14.4813 6.64136C21.0809 1.54805 29.427 0.196867 37.6216 0.0215064Z" fill="#E06B65"/>
<path d="M38.8767 18.6928C38.8767 18.6928 25.7067 18.9028 25.4967 37.5428C25.4967 37.5428 18.3967 36.2928 24.4967 45.5428C24.4967 45.5428 25.0867 47.1228 26.9567 45.5428C28.8267 43.9628 25.2067 49.3228 33.7067 54.7029C33.7067 54.7029 33.8267 63.3228 31.7067 64.7029C29.5867 66.0829 43.3267 70.8228 45.5767 64.7029C44.1454 62.9395 43.3901 60.7233 43.4467 58.4529C43.4467 58.4529 52.8867 57.9828 52.9467 41.7128C52.9567 25.5428 48.4567 17.7528 38.8767 18.6928Z" fill="#E8C0B6"/>
<path d="M37.1867 17.1129C37.1867 17.1129 34.3467 15.3029 31.0767 18.2329C27.8067 21.1629 25.9067 19.2329 24.5267 23.7429C23.1467 28.2529 22.7667 33.8929 23.4567 35.5429C24.1467 37.1929 30.3267 37.9229 31.8467 35.2929C33.1967 32.9529 33.5367 38.8829 36.5867 35.0329C39.2367 31.6829 40.1967 39.1929 42.8667 36.2629C45.5367 33.3329 45.2767 37.2629 46.2167 36.3529C46.5167 36.0729 50.4867 32.5329 52.0667 34.6829C53.6467 36.8329 54.0667 35.9129 54.2467 31.7529C54.4067 28.1329 54.9967 13.6729 37.1867 17.1129Z" fill="black"/>
<path d="M44.9717 64.484C39.2623 69.0515 33.7113 66.3871 31.6494 64.484C21.5533 64.0627 13.8036 79.6922 11.1907 87.5596H67.8092C62.5756 77.9646 50.681 59.9165 44.9717 64.484Z" fill="#FFB6B3"/>
</svg>
