<svg width="80" height="98" viewBox="0 0 80 98" fill="none" xmlns="http://www.w3.org/2000/svg">
<path fill-rule="evenodd" clip-rule="evenodd" d="M40.0036 0.0352434C47.949 -0.268719 55.8688 1.36897 62.6352 5.90302C69.7908 10.6979 76.4466 17.2777 78.8134 26.0411C81.1511 34.6963 78.412 43.8511 75.1209 52.1324C72.0808 59.7822 67.0577 66.0126 60.934 71.0303C54.709 76.1311 47.7843 80.3509 40.0036 80.9073C31.8708 81.4889 23.587 79.3438 16.9702 74.1745C10.3339 68.99 6.32112 60.9616 3.70482 52.5494C1.06226 44.0528 -0.679906 34.8056 2.0995 26.3607C4.83992 18.0342 11.6429 12.3549 18.5014 7.59142C25.0073 3.07289 32.2863 0.330481 40.0036 0.0352434Z" fill="#FFFF99"/>
<path d="M41.6211 20.9193C41.6211 20.9193 28.4511 21.1293 28.2411 39.7293C28.2411 39.7293 21.1311 38.4793 27.2411 47.7293C27.2411 47.7293 27.8411 49.3093 29.7111 47.7293C31.5811 46.1493 27.9611 51.5193 36.4611 56.8893C36.4611 56.8893 36.5811 65.5093 34.4611 66.8893C32.3411 68.2693 46.0811 73.0093 48.3211 66.8893C46.872 65.1152 46.109 62.8792 46.1711 60.5893C46.1711 60.5893 55.6111 60.1093 55.6611 43.8493C55.7111 27.5893 51.1711 19.9793 41.6211 20.9193Z" fill="#E3BAA3"/>
<path d="M66.1711 71.3693C66.1711 71.3693 63.5111 55.2593 64.7511 48.2393C65.9911 41.2193 52.5611 20.8793 52.5611 20.8793C52.5611 20.8793 53.7911 12.0893 47.5611 14.7293C47.5611 14.7293 43.2911 17.8293 35.5611 16.0793C27.8311 14.3293 23.1711 24.8093 23.7211 28.2993C23.7211 28.2993 10.9211 32.9593 14.8011 53.2993C18.6811 73.6393 18.6811 92.0893 24.3011 94.9993C29.9211 97.9093 37.6911 99.2993 43.1711 91.1493C48.6511 82.9993 54.8011 86.6693 54.8011 86.6693C54.8011 86.6693 67.7511 91.5393 66.1711 71.3693ZM53.4611 54.8493C50.9811 58.6893 49.3111 60.1693 46.8511 60.1693C44.3911 60.1693 47.9511 66.4393 47.9511 66.4393C41.4211 69.6393 35.1511 65.9093 35.1511 65.9093C37.9811 63.9093 37.1511 56.9093 37.1511 56.9093C33.7011 56.6893 30.2411 47.4393 30.2411 47.4393C27.4111 49.6593 26.1311 45.8793 26.1311 45.8793C23.6811 38.2093 28.2811 39.7493 28.2811 39.7493C27.6611 30.7493 37.7611 28.5793 43.8011 27.3493C49.8411 26.1193 50.3311 23.5293 50.3311 23.5293C57.7611 32.1893 55.9811 50.9493 53.4611 54.8493Z" fill="black"/>
<path d="M47.8496 64.484C42.1403 69.0515 36.5893 66.3871 34.5274 64.484C24.4313 64.0627 16.6816 79.6922 14.0687 87.5596H70.6872C65.4536 77.9646 53.559 59.9165 47.8496 64.484Z" fill="#F8F8C8"/>
</svg>
