<svg width="79" height="88" viewBox="0 0 79 88" fill="none" xmlns="http://www.w3.org/2000/svg">
<path fill-rule="evenodd" clip-rule="evenodd" d="M38.2771 0.121239C46.5944 -0.578627 54.94 1.76903 61.9189 6.7106C69.1418 11.8249 75.1578 19.1217 77.7068 28.0403C80.2348 36.8854 78.7786 46.3968 75.7346 55.0498C72.8062 63.3739 67.8978 70.8439 60.9598 75.6451C54.2798 80.2678 46.2079 80.8814 38.2771 80.971C30.2629 81.0615 21.7365 81.2468 15.2473 76.1615C8.75497 71.0737 6.32806 62.23 3.84403 53.9873C1.35793 45.7378 -1.55175 37.0229 0.970142 28.786C3.48632 20.5679 10.6392 15.4911 17.1659 10.4764C23.6227 5.5153 30.3797 0.785774 38.2771 0.121239Z" fill="#99CC99"/>
<path d="M28.221 48.0235C28.221 48.0235 31.931 58.0235 36.221 56.2635C36.221 56.2635 30.451 52.5635 30.501 47.1235C30.501 46.8435 30.001 47.1835 29.801 47.3835C29.6052 47.6052 29.3606 47.7785 29.0864 47.8895C28.8122 48.0006 28.5159 48.0465 28.221 48.0235Z" fill="black"/>
<path d="M41.791 20.5735C41.791 20.5735 28.621 20.7835 28.411 39.3835C28.411 39.3835 21.301 38.1335 27.361 47.3835C27.361 47.3835 27.961 48.9635 29.831 47.3835C31.701 45.8035 28.081 51.1635 36.581 56.5435C36.581 56.5435 36.701 65.1635 34.581 66.5435C32.461 67.9235 46.191 72.6635 48.441 66.5435C47.0148 64.7779 46.2633 62.5625 46.321 60.2935C46.321 60.2935 55.761 59.8235 55.811 43.5535C55.871 27.3835 51.371 19.6335 41.791 20.5735Z" fill="#C59E9E"/>
<path d="M40.731 18.8135C40.731 18.8135 36.651 8.0235 27.331 12.4835C18.011 16.9435 27.391 32.0635 26.961 28.7335C26.211 22.9235 19.461 34.2135 26.131 39.5935C26.131 38.5135 39.071 42.3435 44.701 26.5935C44.701 26.5935 54.131 36.4635 55.451 34.9935C56.771 33.5235 55.011 17.9335 40.731 18.8135Z" fill="black"/>
<path d="M48.3453 64.484C42.6359 69.0515 37.0849 66.3871 35.023 64.484C24.9269 64.0627 17.1772 79.6922 14.5643 87.5596H71.1828C65.9492 77.9646 54.0546 59.9165 48.3453 64.484Z" fill="#CBF4CB"/>
</svg>
