<svg width="79" height="82" viewBox="0 0 79 82" fill="none" xmlns="http://www.w3.org/2000/svg">
<path fill-rule="evenodd" clip-rule="evenodd" d="M39.9408 0.901645C47.6403 0.800676 54.984 4.13486 61.2201 9.17102C67.4636 14.2131 72.0672 21.1705 74.9248 29.1538C77.9459 37.5939 80.6172 47.0159 77.8221 55.5523C75.0605 63.9863 67.2948 68.571 60.4626 73.3228C54.1088 77.7419 47.4292 81.9447 39.9408 81.899C32.477 81.8535 25.9694 77.3783 19.5815 73.0734C12.5738 68.3509 4.20986 64.3595 1.26984 55.8384C-1.71448 47.1889 1.07414 37.451 4.35254 28.9349C7.40231 21.0127 12.7071 14.6988 19.0221 9.72439C25.2637 4.80777 32.2992 1.00186 39.9408 0.901645Z" fill="#99CCFF"/>
<path d="M41.5838 12.6647C41.5838 12.6647 28.4138 12.8747 28.2038 31.4747C28.2038 31.4747 21.0938 30.2247 27.2038 39.4747C27.2038 39.4747 27.7938 41.0547 29.6638 39.4747C31.5338 37.8947 27.9138 43.2547 36.4138 48.6347C36.4138 48.6347 36.5338 57.2547 34.4138 58.6347C32.2938 60.0147 46.0338 64.7547 48.2738 58.6347C46.8476 56.8691 46.0961 54.6537 46.1538 52.3847C46.1538 52.3847 55.5938 51.9147 55.6538 35.6447C55.6638 19.4747 51.1638 11.7247 41.5838 12.6647Z" fill="#CD9F94"/>
<path d="M46.3338 12.4147C46.3338 12.4147 36.7438 8.41472 32.8338 11.2847C28.9238 14.1547 29.5538 16.8947 26.0838 16.7747C22.6138 16.6547 13.0138 18.1147 15.8238 34.8847C15.8238 34.8847 24.9738 26.0447 24.0938 18.6647C24.0938 18.6647 24.9138 28.5147 22.5138 31.5347C20.1138 34.5547 15.0038 49.2747 24.3438 53.8147C33.6838 58.3547 36.4638 54.3847 36.4638 54.3847L36.9638 48.7047C36.9638 48.7047 30.7538 43.3247 30.1838 39.2247C29.7338 39.2247 26.8938 41.5147 25.5838 36.5747C24.3238 31.8047 26.0438 30.1947 29.0138 32.3647C29.0138 32.3647 28.8238 36.0247 29.5838 35.6447C30.3438 35.2647 31.7338 24.6447 34.1238 23.9047C36.5138 23.1647 46.8238 22.1147 46.3338 12.4147Z" fill="black"/>
<path d="M46.3038 14.6747C46.3038 14.6747 53.6237 20.1147 55.1537 27.1147C55.1537 27.1147 57.8938 15.7847 49.8838 13.1147C49.8838 13.1147 44.9338 11.1147 46.3038 14.6747Z" fill="black"/>
<path d="M47.6612 58.6824C41.9519 63.2499 36.4008 60.5855 34.339 58.6824C24.2429 58.2612 16.4932 73.8907 13.8803 81.7581H70.4988C65.2652 72.1631 53.3706 54.1149 47.6612 58.6824Z" fill="#C3DDF7"/>
</svg>
