<svg width="79" height="88" viewBox="0 0 79 88" fill="none" xmlns="http://www.w3.org/2000/svg">
<path fill-rule="evenodd" clip-rule="evenodd" d="M39.3169 0.0352434C47.2623 -0.268719 55.182 1.36897 61.9484 5.90302C69.1041 10.6979 75.7599 17.2777 78.1267 26.0411C80.4643 34.6963 77.7253 43.8511 74.4341 52.1324C71.394 59.7822 66.371 66.0126 60.2472 71.0304C54.0222 76.1311 47.0976 80.3509 39.3169 80.9073C31.1841 81.4889 22.9002 79.3438 16.2834 74.1745C9.64715 68.99 5.63435 60.9616 3.01805 52.5494C0.375489 44.0528 -1.36667 34.8056 1.41273 26.3607C4.15315 18.0342 10.9561 12.3549 17.8147 7.59142C24.3206 3.07289 31.5995 0.330481 39.3169 0.0352434Z" fill="#99CC99"/>
<path d="M40.9347 20.9194C40.9347 20.9194 27.7647 21.1293 27.5547 39.7293C27.5547 39.7293 20.4447 38.4793 26.5547 47.7293C26.5547 47.7293 27.1547 49.3093 29.0247 47.7293C30.8947 46.1493 27.2747 51.5194 35.7747 56.8894C35.7747 56.8894 35.8947 65.5094 33.7747 66.8894C31.6547 68.2694 45.3947 73.0094 47.6347 66.8894C46.1856 65.1152 45.4226 62.8792 45.4847 60.5894C45.4847 60.5894 54.9247 60.1093 54.9747 43.8493C55.0247 27.5893 50.4847 19.9794 40.9347 20.9194Z" fill="#E0B9A3"/>
<path d="M65.4852 71.3693C65.4852 71.3693 62.8252 55.2593 64.0652 48.2393C65.3052 41.2193 51.8752 20.8793 51.8752 20.8793C51.8752 20.8793 53.1052 12.0893 46.8752 14.7293C46.8752 14.7293 42.6052 17.8293 34.8752 16.0793C27.1452 14.3293 22.4852 24.8093 23.0352 28.2993C23.0352 28.2993 10.2352 32.9593 14.1152 53.2993C17.9952 73.6393 17.4152 83.7593 23.0352 86.6693C28.6552 89.5793 37.6352 84.15 43.1152 76C48.5952 67.85 54.1152 86.6693 54.1152 86.6693C54.1152 86.6693 67.0652 91.5393 65.4852 71.3693ZM52.7752 54.8493C50.2952 58.6893 48.6252 60.1693 46.1652 60.1693C43.7052 60.1693 47.2652 66.4393 47.2652 66.4393C40.7352 69.6393 34.4652 65.9093 34.4652 65.9093C37.2952 63.9093 36.4652 56.9093 36.4652 56.9093C33.0152 56.6893 29.5552 47.4393 29.5552 47.4393C26.7252 49.6593 25.4452 45.8793 25.4452 45.8793C22.9952 38.2093 27.5952 39.7493 27.5952 39.7493C26.9752 30.7493 37.0752 28.5793 43.1152 27.3493C49.1552 26.1193 49.6452 23.5293 49.6452 23.5293C57.0752 32.1893 55.2952 50.9493 52.7752 54.8493Z" fill="#202020"/>
<path d="M47.1637 64.484C41.4544 69.0515 35.9033 66.3871 33.8415 64.484C23.7454 64.0627 15.9957 79.6922 13.3828 87.5596H70.0013C64.7677 77.9646 52.8731 59.9165 47.1637 64.484Z" fill="#CBF4CB"/>
</svg>
