<svg width="334" height="207" viewBox="0 0 334 207" fill="none" xmlns="http://www.w3.org/2000/svg">
<g filter="url(#filter0_d)">
<rect x="78.5625" y="143.737" width="177.073" height="41.7187" rx="10" fill="#7C8294"/>
<path d="M105.615 162.344L105.345 163.766C104.697 162.74 103.563 162.236 102.069 162.236C98.9912 162.236 96.6512 164.576 96.6512 167.852C96.6512 170.516 98.5232 172.082 100.881 172.082C102.141 172.082 103.203 171.686 104.013 170.966L103.815 171.956H105.957L107.865 162.344H105.615ZM101.457 170.156C99.8372 170.156 98.9192 169.238 98.9192 167.744C98.9192 165.62 100.323 164.144 102.231 164.144C103.851 164.144 104.769 165.062 104.769 166.556C104.769 168.68 103.365 170.156 101.457 170.156ZM108.901 171.956H111.151L113.815 158.6H111.565L108.901 171.956ZM124.166 166.448C124.166 163.82 122.402 162.236 119.738 162.236C116.516 162.236 114.194 164.594 114.194 167.852C114.194 170.408 116.03 172.082 118.928 172.082C120.404 172.082 121.862 171.65 122.87 170.75L121.934 169.184C121.268 169.814 120.26 170.174 119.162 170.174C117.308 170.174 116.426 169.346 116.39 167.816H124.022C124.112 167.402 124.166 166.934 124.166 166.448ZM119.63 164.036C121.124 164.036 122.114 164.846 122.096 166.322H116.588C117.002 164.918 118.1 164.036 119.63 164.036ZM139.037 162.236C137.489 162.236 136.211 162.776 135.239 163.82C134.717 162.776 133.637 162.236 132.251 162.236C131.045 162.236 129.947 162.596 129.101 163.388L129.299 162.344H127.157L125.249 171.956H127.499L128.507 166.97C128.885 165.08 129.911 164.198 131.459 164.198C132.701 164.198 133.295 164.81 133.295 165.926C133.295 166.16 133.277 166.412 133.223 166.682L132.161 171.956H134.411L135.419 166.952C135.797 165.08 136.823 164.198 138.371 164.198C139.613 164.198 140.207 164.81 140.207 165.926C140.207 166.16 140.189 166.412 140.135 166.682L139.073 171.956H141.323L142.385 166.628C142.475 166.196 142.511 165.8 142.511 165.44C142.511 163.352 141.161 162.236 139.037 162.236ZM153.34 162.344L153.07 163.766C152.422 162.74 151.288 162.236 149.794 162.236C146.716 162.236 144.376 164.576 144.376 167.852C144.376 170.516 146.248 172.082 148.606 172.082C149.866 172.082 150.928 171.686 151.738 170.966L151.54 171.956H153.682L155.59 162.344H153.34ZM149.182 170.156C147.562 170.156 146.644 169.238 146.644 167.744C146.644 165.62 148.048 164.144 149.956 164.144C151.576 164.144 152.494 165.062 152.494 166.556C152.494 168.68 151.09 170.156 149.182 170.156ZM163.772 162.236C162.494 162.236 161.342 162.614 160.46 163.406L160.676 162.344H158.534L156.626 171.956H158.876L159.884 166.97C160.262 165.098 161.396 164.198 163.034 164.198C164.348 164.198 164.96 164.828 164.96 165.944C164.96 166.16 164.942 166.412 164.888 166.682L163.844 171.956H166.094L167.156 166.628C167.228 166.214 167.282 165.836 167.282 165.476C167.282 163.37 165.896 162.236 163.772 162.236ZM177.448 162.344L173.002 169.472L171.382 162.344H169.132L171.4 171.92L171.094 172.388C170.482 173.342 169.96 173.702 169.204 173.702C168.538 173.702 168.016 173.45 167.62 173.09L166.504 174.728C167.044 175.25 168.07 175.574 169.024 175.574C170.698 175.574 171.742 174.908 173.074 172.802L179.698 162.344H177.448ZM190.363 160.292C190.849 160.292 191.245 160.436 191.551 160.688L192.469 159.05C191.965 158.672 191.191 158.474 190.363 158.474C188.203 158.474 186.907 159.716 186.493 161.732L186.349 162.416H184.783L184.423 164.216H185.989L184.441 171.956H186.691L188.239 164.216H190.813L191.173 162.416H188.545L188.653 161.894C188.887 160.814 189.409 160.292 190.363 160.292ZM199.711 162.344L199.441 163.766C198.793 162.74 197.659 162.236 196.165 162.236C193.087 162.236 190.747 164.576 190.747 167.852C190.747 170.516 192.619 172.082 194.977 172.082C196.237 172.082 197.299 171.686 198.109 170.966L197.911 171.956H200.053L201.961 162.344H199.711ZM195.553 170.156C193.933 170.156 193.015 169.238 193.015 167.744C193.015 165.62 194.419 164.144 196.327 164.144C197.947 164.144 198.865 165.062 198.865 166.556C198.865 168.68 197.461 170.156 195.553 170.156ZM206.795 163.586L207.047 162.344H204.905L202.997 171.956H205.247L206.201 167.222C206.597 165.224 207.767 164.324 209.531 164.324C209.747 164.324 209.891 164.342 210.089 164.378L210.503 162.236C208.883 162.236 207.677 162.578 206.795 163.586ZM224.255 162.236C222.707 162.236 221.429 162.776 220.457 163.82C219.935 162.776 218.855 162.236 217.469 162.236C216.263 162.236 215.165 162.596 214.319 163.388L214.517 162.344H212.375L210.467 171.956H212.717L213.725 166.97C214.103 165.08 215.129 164.198 216.677 164.198C217.919 164.198 218.513 164.81 218.513 165.926C218.513 166.16 218.495 166.412 218.441 166.682L217.379 171.956H219.629L220.637 166.952C221.015 165.08 222.041 164.198 223.589 164.198C224.831 164.198 225.425 164.81 225.425 165.926C225.425 166.16 225.407 166.412 225.353 166.682L224.291 171.956H226.541L227.603 166.628C227.693 166.196 227.729 165.8 227.729 165.44C227.729 163.352 226.379 162.236 224.255 162.236ZM232.693 172.082C235.393 172.082 237.301 170.948 237.301 168.842C237.301 165.638 232.099 166.88 232.099 165.224C232.099 164.558 232.801 164.054 234.259 164.054C235.195 164.054 236.257 164.252 237.103 164.792L237.931 163.064C237.121 162.542 235.771 162.236 234.475 162.236C231.739 162.236 229.903 163.46 229.903 165.476C229.903 168.734 235.105 167.51 235.105 169.094C235.105 169.814 234.403 170.246 232.927 170.246C231.649 170.246 230.353 169.868 229.579 169.31L228.643 171.038C229.435 171.632 231.019 172.082 232.693 172.082Z" fill="white"/>
</g>
<path d="M170.946 126.333C165.794 125.197 160.847 123.062 156.312 120.018C152.786 117.332 151.984 115.517 149.26 115.035C144.163 114.109 141.502 119.499 135.46 122.259C125.843 126.685 111.418 122.703 105.007 114.665C99.8938 108.238 103.596 103.83 97.1369 95.2911C92.8415 89.6234 90.245 90.2902 86.1578 84.4189C82.5195 79.1772 78.2561 69.6015 81.638 65.5268C85.9495 60.3963 99.6694 68.305 103.724 62.8226C105.664 60.2295 103.147 57.6551 104.798 52.9691C106.674 47.6348 112.428 43.7082 117.508 42.5414C129.097 39.7075 133.809 51.3206 147.112 48.9128C150.141 48.3757 153.523 47.0606 158.235 48.283C161.167 49.132 163.92 50.6566 166.329 52.7653C176.459 59.9147 193.385 54.1174 195.677 53.3395C198.628 52.254 201.466 50.7942 204.139 48.9869C209.974 44.838 208.948 40.6151 212.923 39.2445C216.449 38.0406 220.167 40.3743 223.036 42.1894C224.583 43.1394 226.039 44.2755 227.38 45.5789C230.277 48.4381 232.866 51.6906 235.089 55.2657C241.757 65.4712 249.707 62.5633 251.983 69.2867C254.259 76.01 246.549 80.2515 241.292 97.6063C236.772 112.424 239.689 118.684 235.057 122.11C228.518 127 221.978 114.794 207.088 114.85C190.644 114.868 184.826 129.686 170.946 126.333Z" fill="#EADAC3"/>
<path opacity="0.8" d="M116.499 118.573L116.371 118.721C116.304 118.717 116.241 118.684 116.194 118.63C116.147 118.575 116.119 118.502 116.115 118.425C115.987 117.294 115.987 116.148 116.115 115.017C116.243 113.683 115.73 113.165 116.371 111.905C116.499 111.757 116.499 111.757 116.499 111.609V112.053C116.692 114.221 116.692 116.406 116.499 118.573Z" fill="#5B9635" stroke="#4F7536" stroke-width="0.3" stroke-miterlimit="3.86"/>
<path opacity="0.8" d="M118.806 118.572L118.677 118.72C118.549 118.72 118.549 118.424 118.421 118.424C118.365 116.977 118.494 115.529 118.806 114.127C118.692 112.75 118.914 111.364 119.446 110.126C119.519 110.049 119.565 109.943 119.574 109.83V110.422C119.318 111.515 119.11 117.831 118.806 118.572Z" fill="#5B9635" stroke="#4F7536" stroke-width="0.3" stroke-miterlimit="3.86"/>
<path opacity="0.8" d="M115.727 120.499C115.727 120.499 115.727 120.795 115.598 120.795C115.47 120.795 115.342 120.499 115.342 120.35C114.852 118.413 114.509 116.43 114.316 114.423C113.789 112.638 113.571 110.75 113.675 108.867C113.675 108.719 113.675 108.422 113.803 108.422C113.868 108.714 113.911 109.011 113.931 109.311C114.718 112.997 115.317 116.732 115.727 120.499Z" fill="#5B9635" stroke="#4F7536" stroke-width="0.3" stroke-miterlimit="3.86"/>
<path opacity="0.9" d="M120.603 117.683L120.475 117.831C120.408 117.827 120.345 117.794 120.298 117.739C120.251 117.685 120.223 117.612 120.219 117.535C120.091 116.404 120.091 115.258 120.219 114.127C120.347 112.793 119.834 112.275 120.475 111.015C120.603 110.867 120.603 110.867 120.603 110.719V111.163C120.796 113.331 120.796 115.515 120.603 117.683Z" fill="#5B9635" stroke="#4F7536" stroke-width="0.3" stroke-miterlimit="3.86"/>
<path opacity="0.9" d="M122.777 117.684L122.649 117.832C122.521 117.832 122.521 117.536 122.393 117.536C122.336 116.09 122.466 114.641 122.777 113.239C122.664 111.862 122.885 110.477 123.418 109.238C123.49 109.161 123.536 109.056 123.546 108.942V109.535C123.43 112.266 123.174 114.988 122.777 117.684Z" fill="#5B9635" stroke="#4F7536" stroke-width="0.3" stroke-miterlimit="3.86"/>
<path opacity="0.9" d="M119.833 119.609C119.833 119.609 119.833 119.905 119.705 119.905C119.577 119.905 119.448 119.609 119.448 119.461C118.959 117.523 118.616 115.54 118.423 113.534C117.896 111.748 117.678 109.86 117.781 107.977C117.781 107.829 117.781 107.533 117.91 107.533C117.974 107.824 118.017 108.122 118.038 108.422C118.824 112.107 119.423 115.843 119.833 119.609Z" fill="#5B9635" stroke="#4F7536" stroke-width="0.3" stroke-miterlimit="3.86"/>
<path opacity="0.8" d="M192.534 113.979C192.534 113.979 192.406 114.276 192.278 114.276C192.15 114.276 192.022 113.979 192.022 113.831C191.829 112.11 191.829 110.367 192.022 108.645C192.15 106.793 191.637 105.682 192.406 103.904C192.534 103.755 192.534 103.607 192.662 103.459V104.2C192.662 105.533 192.918 113.09 192.534 113.979Z" fill="#5B9635" stroke="#4F7536" stroke-width="0.3" stroke-miterlimit="3.86"/>
<path opacity="0.8" d="M195.352 113.979C195.352 113.979 195.224 114.275 195.096 114.275C194.968 114.275 194.84 113.831 194.84 113.831C194.784 111.648 194.913 109.465 195.224 107.311C195.481 104.792 194.968 103.459 195.994 101.236C196.122 100.94 196.122 100.792 196.25 100.644V101.681C196.122 103.014 195.865 112.794 195.352 113.979Z" fill="#5B9635" stroke="#4F7536" stroke-width="0.3" stroke-miterlimit="3.86"/>
<path opacity="0.8" d="M191.635 116.943C191.635 117.091 191.635 117.388 191.506 117.388C191.378 117.388 191.122 116.943 191.122 116.795C190.539 113.814 190.111 110.796 189.839 107.757C189.455 104.2 188.685 102.719 188.942 99.3107C188.972 99.061 189.015 98.8137 189.07 98.5698C189.12 99.0224 189.206 99.4688 189.327 99.9034C189.631 101.83 191.763 115.221 191.635 116.943Z" fill="#5B9635" stroke="#4F7536" stroke-width="0.3" stroke-miterlimit="3.86"/>
<path opacity="0.9" d="M197.646 112.645C197.646 112.645 197.518 112.942 197.39 112.942C197.262 112.942 197.133 112.645 197.133 112.497C196.941 110.776 196.941 109.033 197.133 107.311C197.262 105.459 196.749 104.348 197.518 102.57C197.646 102.421 197.646 102.273 197.774 102.125V102.866C197.991 106.123 197.948 109.397 197.646 112.645Z" fill="#5B9635" stroke="#4F7536" stroke-width="0.3" stroke-miterlimit="3.86"/>
<path opacity="0.9" d="M200.611 112.646C200.611 112.646 200.483 112.942 200.354 112.942C200.226 112.942 200.098 112.497 200.098 112.497C200.043 110.315 200.172 108.132 200.483 105.978C200.739 103.459 200.226 102.125 201.252 99.9028C201.38 99.6064 201.38 99.4582 201.508 99.3101V100.403C201.38 101.681 200.995 111.516 200.611 112.646Z" fill="#5B9635" stroke="#4F7536" stroke-width="0.3" stroke-miterlimit="3.86"/>
<path opacity="0.9" d="M196.765 115.609C196.765 115.757 196.765 116.053 196.637 116.053C196.508 116.053 196.252 115.609 196.252 115.461C195.669 112.48 195.241 109.462 194.97 106.422C194.585 102.866 193.816 101.384 194.072 97.9762C194.102 97.7266 194.145 97.4792 194.2 97.2354C194.251 97.6879 194.337 98.1343 194.457 98.5689C194.713 100.495 196.893 113.831 196.765 115.609Z" fill="#5B9635" stroke="#4F7536" stroke-width="0.3" stroke-miterlimit="3.86"/>
<path opacity="0.8" d="M161.505 76.7879C161.633 78.8623 162.018 80.1959 161.377 81.0849C160.479 82.2703 159.325 81.2331 157.787 82.4185C156.248 83.6039 156.889 84.9374 155.094 87.3082C154.524 88.1945 153.776 88.9066 152.914 89.3826C151.311 90.1235 150.221 89.0863 147.657 88.6418C146.247 88.4936 143.426 88.0491 141.631 89.8272C139.835 91.6053 140.476 94.2724 138.681 95.0132C137.271 95.6059 136.245 94.1242 133.873 94.7169C132.591 95.0132 131.95 95.7541 131.693 95.6059C131.309 95.1614 132.719 93.087 134.771 89.2345C137.079 84.7893 136.694 84.7893 137.463 83.9002C140.156 81.0849 142.977 83.1594 145.157 80.4922C147.08 78.2696 145.67 76.0471 147.465 73.9726C149.26 71.8982 151.568 73.0836 156.056 72.3427C158.409 71.8635 160.696 71.0161 162.851 69.8237C161.772 71.92 161.3 74.36 161.505 76.7879Z" fill="#61A03D" stroke="#61A03D" stroke-miterlimit="3.86"/>
<path opacity="0.8" d="M146.757 60.4878C146.119 62.2418 145.855 64.1476 145.988 66.0443C146.244 67.8965 146.757 68.4151 147.014 70.4895C147.142 72.1194 147.398 74.342 146.244 75.8237C144.834 77.6759 142.782 76.4164 141.436 78.3427C140.795 79.2317 141.051 79.8244 140.538 81.4543C139.769 84.1214 138.23 84.8623 136.948 86.7885C134.127 90.9374 135.345 95.8271 134.512 96.0494C133.679 96.2716 131.05 91.1597 131.947 86.4181C132.589 83.1583 134.384 81.8247 134.384 77.8241C134.384 75.7496 133.871 75.6015 134.127 73.9716C134.384 72.3417 135.025 70.4154 138.487 67.0074C141.079 64.5676 143.846 62.3866 146.757 60.4878Z" fill="#729959" stroke="#729959" stroke-width="0.5" stroke-miterlimit="3.86"/>
<path opacity="0.8" d="M133.041 96.6985C134.067 95.9576 133.682 92.2533 132.784 90.0307C132.026 88.6182 131.168 87.2802 130.22 86.03C127.912 82.622 127.656 82.3257 127.656 81.733C127.271 79.0659 129.258 77.5842 128.681 76.1765C127.912 74.5466 124.706 76.3246 122.783 74.102C121.629 72.7685 122.398 71.5831 121.18 70.1014C120.539 69.3605 119.577 68.7678 114.513 68.6196C112.91 68.6196 110.794 68.6197 108.23 68.7678C109.996 70.2819 111.609 72.0216 113.038 73.9539C113.725 74.7066 114.27 75.6145 114.641 76.621C115.282 78.4732 114.769 79.4363 115.282 81.3626C115.702 82.7628 116.458 83.9961 117.462 84.9187C118.828 86.3395 120.388 87.4908 122.078 88.3267C128.729 91.3087 131.374 97.6801 133.041 96.6985Z" fill="#5B9635" stroke="#5B9635" stroke-width="0.5" stroke-miterlimit="3.86"/>
<path opacity="0.8" d="M157.272 87.7524C156.347 88.1453 155.514 88.7791 154.835 89.6045C153.553 91.0863 153.81 92.2716 152.912 94.0497C151.758 96.4205 149.194 98.7913 147.142 98.3468C145.86 98.0504 145.988 96.7168 144.193 95.6796C142.621 94.7106 140.794 94.4467 139.064 94.9387C136.756 95.5314 135.858 96.1241 135.73 95.8278C135.346 95.3833 137.012 92.7161 140.346 90.2713C141.876 89.1384 143.57 88.3352 145.347 87.9005C149.254 86.747 153.344 86.6962 157.272 87.7524Z" fill="#729959" stroke="#729959" stroke-width="0.5" stroke-miterlimit="3.86"/>
<path opacity="0.8" d="M134.068 120.647C134.324 121.684 134.709 121.239 134.837 120.35C135.991 115.757 135.222 93.3828 134.709 93.3828C134.196 93.3828 133.17 116.794 134.068 120.647Z" fill="#5B9635" stroke="#4F7536" stroke-width="0.3" stroke-miterlimit="3.86"/>
<path opacity="0.8" d="M163.169 69.2314C156.63 79.159 151.245 82.8633 147.526 84.345C144.445 85.3253 141.596 87.0983 139.192 89.5311C137.584 91.127 136.199 93.0015 135.088 95.0876C134.892 93.3664 134.892 91.6227 135.088 89.9015C135.482 86.7056 136.258 83.5887 137.397 80.6407C137.651 80.0435 137.866 79.4242 138.038 78.7885C138.551 77.1586 138.807 75.8251 138.935 75.3805V75.2324C139.192 74.1952 141.243 70.0463 146.949 60.415" stroke="#4F7536" stroke-width="0.3" stroke-miterlimit="3.86"/>
<path opacity="0.8" d="M156.885 87.7524C153.233 88.2628 149.628 89.1555 146.115 90.4195C146.115 90.4195 139.575 92.2717 136.241 95.1611C136.124 95.2782 135.995 95.3777 135.857 95.4574L135.729 95.6056" stroke="#4F7536" stroke-width="0.3" stroke-miterlimit="3.86"/>
<path opacity="0.8" d="M135.347 119.757C135.475 120.053 135.86 120.646 136.244 120.498C136.629 120.35 136.629 119.757 136.757 119.609C137.014 117.757 135.86 101.532 135.347 94.4194C134.962 103.013 134.449 118.275 135.347 119.757Z" fill="#5B9635" stroke="#4F7536" stroke-width="0.3" stroke-miterlimit="3.86"/>
<path opacity="0.8" d="M132.913 96.3467C132.565 95.8941 132.264 95.3969 132.015 94.865C131.535 93.983 131.147 93.0379 130.861 92.0496C130.092 89.5307 127.271 86.7154 124.578 83.9001C121.373 80.7885 120.732 80.7885 119.77 78.8622C118.359 76.4914 118.616 75.1579 117.718 73.3057C116.692 71.2313 114.256 69.1569 108.23 68.416" stroke="#4F7536" stroke-width="0.3" stroke-miterlimit="3.86"/>
<path opacity="0.8" d="M133.423 95.9021C133.423 95.6057 133.039 95.6058 132.013 94.8649C129.833 93.0127 129.961 91.7532 128.679 91.0123C126.627 89.9751 124.96 92.8645 122.909 91.7532C121.755 91.1605 122.268 90.1233 120.986 89.0861C119.19 87.6044 117.267 89.0861 115.087 87.6044C114.153 87.0449 113.392 86.165 112.908 85.0854C112.266 89.9752 113.164 92.0496 114.19 93.0868C116.241 95.1612 119.703 93.8276 121.627 96.7911C122.396 97.9765 122.011 98.421 122.781 99.1619C125.345 102.125 133.535 97.6802 133.423 95.9021Z" fill="#6AA842" stroke="#61A03D" stroke-width="0.5" stroke-miterlimit="3.86"/>
<path opacity="0.8" d="M133.424 95.9025C128.808 96.9397 125.731 96.1988 124.064 95.1616C122.699 94.2234 121.286 93.3821 119.832 92.6426C118.489 92.2116 117.197 91.5895 115.986 90.7905C114.521 89.2522 113.493 87.2377 113.037 85.0117" stroke="#4F7536" stroke-width="0.3" stroke-miterlimit="3.86"/>
<path opacity="0.9" d="M204.331 118.276C204.588 119.61 205.101 119.017 205.357 117.832C206.768 112.275 206.383 84.1963 205.742 84.1963C205.101 84.1963 203.306 113.368 204.331 118.276Z" fill="#5B9635" stroke="#4F7536" stroke-width="0.3" stroke-miterlimit="3.86"/>
<path opacity="0.9" d="M240.233 63.4518C240.361 65.9708 241.002 67.6007 240.105 69.0083C239.207 70.416 237.412 69.1565 235.617 70.6382C233.822 72.12 234.463 73.7499 232.155 76.7134C231.411 77.7513 230.496 78.6076 229.462 79.2323C227.411 80.1214 226.128 78.7878 222.923 78.3433C221.128 78.0469 217.666 77.6024 215.358 79.825C213.05 82.0476 213.755 85.3815 211.767 86.3447C209.972 87.0855 208.818 85.1593 205.741 85.9001C204.138 86.3447 203.305 87.2337 203.048 86.9374C202.535 86.3447 204.33 83.8257 206.895 78.936C209.844 73.3795 209.331 73.3795 210.357 72.2682C213.819 68.712 217.153 71.3791 219.974 68.1193C222.41 65.304 220.487 62.5628 222.923 59.9698C225.359 57.3768 228.052 58.9325 233.565 57.8953C236.51 57.3776 239.366 56.3276 242.028 54.7837C240.801 57.4495 240.183 60.433 240.233 63.4518Z" fill="#61A03D" stroke="#61A03D" stroke-miterlimit="3.86"/>
<path opacity="0.9" d="M221.896 43.3003C221.039 45.4788 220.728 47.8917 220.999 50.2644C221.255 52.6352 222.024 53.2279 222.281 55.8209C222.537 57.8953 222.794 60.7106 221.383 62.4887C219.78 64.7113 217.152 63.2296 215.357 65.6004C214.587 66.7857 214.844 67.4525 214.331 69.601C213.305 73.009 211.51 73.7499 209.843 76.2689C206.381 81.4549 207.92 87.6782 206.766 87.8264C205.612 87.9745 202.406 81.7513 203.56 75.6762C204.33 71.5273 206.638 69.8974 206.638 65.0077C206.638 62.4888 205.996 62.1924 206.253 60.2661C206.509 58.3398 207.407 55.8209 211.638 51.5239C214.698 48.2273 218.153 45.4577 221.896 43.3003Z" fill="#729959" stroke="#729959" stroke-width="0.5" stroke-miterlimit="3.86"/>
<path opacity="0.9" d="M204.718 88.3448C206.129 87.4558 205.616 82.7884 204.334 80.0472C203.388 78.2682 202.315 76.5831 201.128 75.0093C198.179 70.7122 198.051 70.4159 197.923 69.4527C197.41 66.0448 199.974 64.2667 199.205 62.4886C198.179 60.4142 194.204 62.785 191.768 59.9697C190.165 58.3397 191.255 56.7098 189.716 54.9318C188.947 54.0427 187.665 53.0796 181.382 53.0796C179.458 53.0796 176.766 53.0796 173.56 53.2277C175.802 55.1487 177.864 57.3336 179.715 59.7474C180.582 60.7205 181.278 61.8777 181.766 63.1554C182.536 65.5262 181.895 66.7115 182.536 68.9341C183.082 70.6621 184.01 72.1946 185.228 73.3793C186.882 75.2102 188.847 76.6231 190.998 77.5282C199.333 81.677 202.795 89.6784 204.718 88.3448Z" fill="#5B9635" stroke="#5B9635" stroke-width="0.5" stroke-miterlimit="3.86"/>
<path opacity="0.9" d="M235.103 77.2322C233.932 77.7344 232.878 78.5463 232.026 79.603C230.423 81.4552 230.744 83.011 229.59 85.1595C227.987 88.123 224.781 91.0865 222.409 90.4938C220.806 90.0493 220.999 88.6416 218.691 87.0858C216.706 85.9444 214.441 85.6303 212.28 86.1967C209.33 86.9376 208.305 87.6785 208.048 87.3821C207.792 87.0858 209.651 83.5296 213.818 80.418C215.747 79.0149 217.873 78.012 220.101 77.4545C225.009 75.9497 230.163 75.8734 235.103 77.2322Z" fill="#729959" stroke="#729959" stroke-width="0.5" stroke-miterlimit="3.86"/>
<path opacity="0.9" d="M205.997 118.276C206.253 119.462 206.766 119.017 207.023 117.832C208.433 112.053 207.535 84.1963 206.894 84.1963C206.253 84.1963 204.843 113.535 205.997 118.276Z" fill="#5B9635" stroke="#4F7536" stroke-width="0.3" stroke-miterlimit="3.86"/>
<path opacity="0.9" d="M242.415 54.0984C234.402 66.545 227.542 71.1383 222.797 72.9164C218.96 74.1722 215.412 76.3992 212.411 79.436C210.384 81.46 208.614 83.8045 207.154 86.4002C206.957 84.2329 206.957 82.0478 207.154 79.8806C207.708 75.9466 208.699 72.1118 210.103 68.4712C210.231 68.1749 210.488 67.2858 210.873 66.2486C211.294 64.8431 211.636 63.4078 211.898 61.9516V61.8034C212.155 60.4699 214.719 55.2838 221.772 43.2817" stroke="#4F7536" stroke-width="0.3" stroke-miterlimit="3.86"/>
<path opacity="0.9" d="M234.512 77.2319C229.942 77.8808 225.435 79.0218 221.049 80.6399C221.049 80.6399 212.843 82.8625 208.739 86.5669C208.577 86.6692 208.443 86.8235 208.355 87.0114L208.227 87.1596" stroke="#4F7536" stroke-width="0.3" stroke-miterlimit="3.86"/>
<path opacity="0.9" d="M207.662 117.387C207.79 117.683 208.303 118.424 208.688 118.276C209.072 118.128 209.201 117.387 209.201 117.09C209.585 114.868 208.047 94.4198 207.406 85.6035C207.149 96.3461 206.508 115.46 207.662 117.387Z" fill="#5B9635" stroke="#4F7536" stroke-width="0.3" stroke-miterlimit="3.86"/>
<path opacity="0.9" d="M204.714 88.0489C204.457 87.6044 203.944 87.0117 203.56 86.1967C202.957 85.0873 202.483 83.8919 202.149 82.6406C201.252 79.5289 197.661 75.8246 194.135 72.5648C190.16 68.5641 189.327 68.5641 187.98 66.1933C186.185 63.0817 186.57 61.6 185.416 59.3774C184.134 56.8584 181.056 54.1913 173.491 53.3022" stroke="#4F7536" stroke-width="0.3" stroke-miterlimit="3.86"/>
<path opacity="0.9" d="M205.229 87.437C205.229 86.9925 204.716 86.9925 203.626 86.1035C200.805 83.8809 201.061 82.1028 199.523 81.3619C196.958 80.0284 194.714 83.7327 192.342 82.3991C190.932 81.6583 191.573 80.3247 189.906 78.9911C187.598 77.139 185.29 78.843 182.597 77.139C181.459 76.4229 180.524 75.3424 179.905 74.0273C179.007 80.1025 180.161 82.7696 181.507 84.1031C184.072 86.7703 188.303 84.9921 190.739 88.6965C191.637 90.1782 191.252 90.7709 192.15 91.66C195.227 95.3087 205.485 89.6781 205.229 87.437Z" fill="#6AA842" stroke="#61A03D" stroke-width="0.5" stroke-miterlimit="3.86"/>
<path opacity="0.9" d="M205.225 87.4372C199.455 88.7708 195.608 87.7335 193.556 86.5481C191.878 85.3527 190.12 84.3123 188.299 83.4365C185.735 82.2511 184.837 82.3993 183.491 81.2139C181.682 79.3089 180.39 76.8382 179.772 74.1016" stroke="#4F7536" stroke-width="0.3" stroke-miterlimit="3.86"/>
<path d="M130.728 118.425C131.497 116.943 132.138 115.165 133.036 115.165C133.933 115.165 134.446 116.647 135.216 116.35C135.985 116.054 135.857 114.869 136.498 113.98C137.652 112.646 138.806 114.869 141.499 114.721C143.101 114.721 143.294 113.832 144.448 114.276C145.612 114.713 146.638 115.538 147.397 116.647C149.192 118.721 149.192 119.758 150.346 120.055C151.5 120.351 151.5 119.462 152.654 119.759C153.695 120.158 154.595 120.938 155.219 121.981C155.731 122.722 156.116 123.463 156.373 123.833C152.141 124.13 147.782 124.278 143.294 124.426C137.395 124.574 131.625 124.426 126.112 124.13C128.008 122.661 129.587 120.709 130.728 118.425Z" fill="#B56F35" stroke="#B56F35" stroke-width="2" stroke-miterlimit="3.86"/>
<path d="M167.66 112.942C167.275 114.572 166.762 113.831 166.377 112.498C164.582 105.385 165.095 70.4165 165.993 70.4165C166.89 70.4165 168.942 106.867 167.66 112.942Z" fill="#5B9635" stroke="#4F7536" stroke-width="0.3" stroke-miterlimit="3.86"/>
<path d="M122.651 44.486C122.523 47.5976 121.753 49.672 122.907 51.3019C124.189 53.1541 126.241 51.5983 128.549 53.3764C130.857 55.1544 129.96 57.2289 132.78 60.9332C133.64 62.2861 134.789 63.3582 136.114 64.0449C138.679 65.2302 140.346 63.4522 144.128 63.0077C146.308 62.7113 150.668 62.1186 153.617 64.8598C156.566 67.601 155.412 71.824 158.105 73.0093C160.284 74.0466 161.823 71.5277 165.542 72.4167C167.593 73.0094 168.619 74.2688 168.875 73.7502C169.516 73.0093 167.273 69.8977 164.067 63.8226C160.348 56.8585 161.118 56.8584 159.836 55.5249C155.604 51.2278 151.245 54.3395 147.911 50.3388C144.962 46.7827 147.141 43.3747 144.321 40.1149C141.5 36.8551 138.038 38.7813 130.985 37.4478C127.3 36.742 123.718 35.4453 120.343 33.5952C121.965 36.9107 122.764 40.6794 122.651 44.486Z" fill="#61A03D" stroke="#61A03D" stroke-miterlimit="3.86"/>
<path d="M145.604 19.1484C146.64 21.8447 147.038 24.8102 146.758 27.7425C146.373 30.7059 145.476 31.4468 145.155 34.8548C144.899 37.3737 144.514 40.9299 146.309 43.1525C148.489 45.9678 151.695 44.0416 153.746 47.0051C154.772 48.4868 154.259 49.3758 155.157 51.8947C156.439 56.1918 158.747 57.229 160.798 60.1925C165.158 66.7121 163.235 74.4171 164.645 74.5653C166.056 74.7134 170.031 67.0085 168.748 59.4516C167.851 54.2656 164.902 52.3393 164.902 46.116C164.902 42.8562 165.671 42.708 165.415 40.0409C165.158 37.3738 164.004 34.4844 158.619 29.076C154.563 25.2977 150.205 21.9736 145.604 19.1484Z" fill="#729959" stroke="#729959" stroke-width="0.5" stroke-miterlimit="3.86"/>
<path d="M167.195 75.454C165.592 74.2687 166.169 68.6381 167.707 64.9337C168.924 62.7319 170.296 60.6503 171.811 58.7104C175.401 53.3762 175.786 52.9317 175.914 51.8945C176.555 47.7456 173.349 45.3749 174.311 43.3004C175.593 40.7815 180.594 43.5967 183.543 40.1888C185.338 38.1143 184.184 36.1881 185.979 33.9655C187.005 32.7801 188.544 31.7429 196.365 31.5947C198.802 31.5947 202.135 31.5947 206.11 31.8911C203.301 34.2816 200.722 37.0137 198.417 40.0406C197.385 41.2328 196.558 42.6407 195.981 44.1894C194.955 47.1529 195.853 48.6347 195.083 51.45C194.429 53.6174 193.276 55.5382 191.749 57.0065C189.66 59.2432 187.224 61.0029 184.569 62.1925C173.942 67.1563 169.583 77.2321 167.195 75.454Z" fill="#5B9635" stroke="#5B9635" stroke-width="0.5" stroke-miterlimit="3.86"/>
<path d="M129.19 61.6734C130.655 62.2999 131.973 63.315 133.037 64.6369C134.96 67.0077 134.639 68.7858 136.114 71.6011C138.037 75.3054 142.012 79.0097 145.09 78.2689C147.141 77.6762 146.885 75.75 149.898 73.9719C152.374 72.5318 155.202 72.1135 157.912 72.7865C161.502 73.6755 162.72 74.6387 163.169 74.2682C163.618 73.8978 161.118 69.5267 155.989 65.526C153.548 63.7081 150.827 62.4504 147.975 61.8216C141.804 60.1208 135.38 60.0701 129.19 61.6734Z" fill="#729959" stroke="#729959" stroke-width="0.5" stroke-miterlimit="3.86"/>
<path d="M165.48 112.942C165.095 114.572 164.582 113.831 164.197 112.349C162.595 105.237 163.556 70.2681 164.454 70.2681C165.351 70.2681 167.018 107.015 165.48 112.942Z" fill="#5B9635" stroke="#4F7536" stroke-width="0.3" stroke-miterlimit="3.86"/>
<path d="M119.958 32.7801C130.087 48.3383 138.55 53.9689 144.448 56.3397C149.234 57.9487 153.685 60.6716 157.527 64.3411C160.062 66.8732 162.265 69.8181 164.066 73.0833C164.328 70.3752 164.328 67.6419 164.066 64.9338C163.39 59.9719 162.139 55.1377 160.348 50.561C160.22 50.1164 159.835 49.2274 159.45 47.7457C158.681 45.0786 158.296 43.0041 158.168 42.4114V42.2632C157.912 40.4111 154.578 34.1137 145.859 19" stroke="#4F7536" stroke-width="0.3" stroke-miterlimit="3.86"/>
<path d="M129.832 61.6743C135.519 62.525 141.137 63.9126 146.629 65.8232C146.629 65.8232 156.887 68.4903 162.016 73.2318L162.528 73.8245L162.657 73.9727" stroke="#4F7536" stroke-width="0.3" stroke-miterlimit="3.86"/>
<path d="M163.171 111.517C163.043 111.813 162.915 112.406 162.658 112.406C162.402 112.406 162.017 111.368 161.889 110.924C160.992 107.664 162.017 95.2175 162.146 91.2168C162.402 83.5118 160.992 79.9556 163.3 72.8433C163.556 72.1024 163.684 71.6579 163.812 71.2134V74.1769C163.812 78.5665 164.197 107.905 163.171 111.517Z" fill="#5B9635" stroke="#4F7536" stroke-width="0.3" stroke-miterlimit="3.86"/>
<path d="M167.193 75.1575C167.744 74.4897 168.218 73.7427 168.604 72.935C169.366 71.549 169.969 70.0548 170.399 68.4897C171.553 64.6372 176.041 60.0438 180.272 55.895C185.273 51.0053 186.17 51.0053 187.966 48.0418C190.145 44.1893 189.761 42.2631 191.171 39.5959C192.774 36.4843 196.557 33.0763 206.045 32.0391" stroke="#4F7536" stroke-width="0.3" stroke-miterlimit="3.86"/>
<path d="M144.963 117.832C146.566 115.461 147.656 112.942 149.579 112.794C151.503 112.646 152.785 115.016 154.388 114.424C155.798 113.979 155.413 112.053 156.952 110.868C159.26 109.015 161.953 112.053 167.723 111.905C171.185 111.757 171.441 110.571 174.262 111.016C176.696 111.578 178.981 112.797 180.93 114.572C185.033 117.535 185.29 119.165 187.726 119.61C190.162 120.054 190.162 118.721 192.855 119.165C195.024 119.669 197.051 120.79 198.753 122.425C200.676 124.055 201.702 124.796 201.574 125.389C201.317 127.759 187.854 126.722 173.365 126.87C151.31 127.167 136.501 130.13 136.052 127.167C135.603 125.24 140.475 124.648 144.963 117.832Z" fill="#D57D28" stroke="#D57D28" stroke-width="2" stroke-miterlimit="3.86"/>
<path d="M166.632 74.4727C166.76 73.88 167.273 73.88 168.812 72.6205C172.274 69.9534 172.017 67.7308 173.941 66.6936C177.146 65.0637 179.839 69.6571 182.916 67.879C184.712 66.8418 183.942 65.3601 185.866 63.7302C188.815 61.3594 191.636 63.582 195.098 61.5075C196.552 60.5728 197.751 59.1872 198.56 57.5068C199.585 65.2119 198.175 68.4717 196.636 70.1016C193.431 73.3614 188.045 71.287 185.096 75.6581C183.942 77.5103 184.455 78.1771 183.493 79.3625C179.07 84.1966 166.247 77.2324 166.632 74.4727Z" fill="#6AA842" stroke="#61A03D" stroke-width="0.5" stroke-miterlimit="3.86"/>
<path d="M166.634 74.4716C173.815 76.3238 178.559 74.9161 181.252 73.2862C183.35 71.7823 185.535 70.4456 187.791 69.2856C190.997 67.8039 192.023 67.952 193.818 66.6185C196.036 64.1642 197.689 61.1082 198.626 57.728" stroke="#4F7536" stroke-width="0.3" stroke-miterlimit="3.86"/>
<path d="M167.659 115.906C168.3 114.721 170.096 111.164 172.468 111.164C174.519 111.164 175.417 113.683 177.276 113.239C178.687 112.794 178.43 111.016 179.969 109.831C182.405 107.979 184.777 111.461 190.74 111.683C194.202 111.831 194.586 110.646 197.279 111.387C199.657 112.123 201.853 113.493 203.69 115.387C207.537 118.647 207.793 120.277 210.101 120.944C212.409 121.611 212.666 120.203 215.23 120.796C217.387 121.465 219.369 122.737 221 124.5C222.154 125.685 223.052 126.871 223.693 127.612C214.589 127.167 205.101 126.871 195.484 126.871C180.225 126.723 165.48 127.167 151.375 128.056C161.248 124.055 165.592 119.61 167.659 115.906Z" fill="#D68A4C" stroke="#D68A4C" stroke-width="2" stroke-miterlimit="3.86"/>
<path d="M109.573 121.387C110.727 119.535 111.625 117.535 113.035 117.387C114.446 117.239 115.343 119.239 116.625 118.72C117.651 118.276 117.523 116.868 118.549 115.905C120.344 114.275 122.267 116.942 126.563 116.794C129.127 116.794 129.384 115.757 131.371 116.201C133.132 116.723 134.773 117.684 136.179 119.017C139.129 121.536 139.385 122.721 141.18 123.165C142.975 123.61 142.975 122.425 145.027 122.869C146.642 123.347 148.137 124.261 149.386 125.536C149.899 126.129 150.669 126.87 151.438 127.907C144.642 128.352 137.59 128.5 130.409 128.648C120.793 128.796 111.561 128.796 102.585 128.5C104.121 127.412 105.542 126.119 106.816 124.647C107.807 123.644 108.728 122.554 109.573 121.387Z" fill="#D68A4C" stroke="#D68A4C" stroke-width="2" stroke-miterlimit="3.86"/>
<path d="M202.79 121.091C203.687 119.61 204.393 117.683 205.611 117.683C206.829 117.683 207.406 119.313 208.432 119.017C209.457 118.72 209.201 117.387 210.034 116.498C211.445 115.164 212.855 117.535 216.317 117.387C218.369 117.387 218.497 116.498 220.164 116.942C221.575 117.463 222.853 118.379 223.883 119.61C226.191 121.832 226.319 123.018 227.601 123.314C228.883 123.61 229.011 122.721 230.55 123.018C231.825 123.45 232.976 124.268 233.884 125.388C234.504 126.04 235.043 126.788 235.487 127.611C230.101 127.759 224.588 127.907 218.946 127.907C211.381 127.907 204.2 127.611 197.148 127.166C199.437 125.717 201.377 123.628 202.79 121.091Z" fill="#D57D28" stroke="#D57D28" stroke-width="2" stroke-miterlimit="3.86"/>
<path d="M176.12 121.536C176.889 120.054 177.53 118.276 178.428 118.276C179.326 118.276 179.838 119.758 180.608 119.462C181.377 119.165 181.249 117.98 181.89 117.091C183.044 115.757 184.198 117.98 186.891 117.832C188.493 117.832 188.686 116.943 189.84 117.387C191.004 117.824 192.03 118.649 192.789 119.758C194.584 121.833 194.584 122.87 195.738 123.166C196.892 123.462 196.892 122.573 198.046 122.87C199.087 123.269 199.987 124.049 200.611 125.092C201.124 125.833 201.508 126.574 201.765 126.945C197.533 127.241 193.174 127.389 188.686 127.537C182.788 127.685 177.018 127.537 171.504 127.241C173.408 125.783 174.989 123.829 176.12 121.536Z" fill="#B56F35" stroke="#B56F35" stroke-width="2" stroke-miterlimit="3.86"/>
<path d="M140.219 130.723C140.36 130.723 140.475 130.656 140.475 130.575C140.475 130.493 140.36 130.427 140.219 130.427C140.077 130.427 139.963 130.493 139.963 130.575C139.963 130.656 140.077 130.723 140.219 130.723Z" fill="#B56F35" stroke="#B56F35" stroke-width="0.5" stroke-miterlimit="3.86" stroke-linecap="round"/>
<path d="M142.651 130.038C142.647 130.115 142.619 130.188 142.572 130.243C142.525 130.297 142.462 130.33 142.395 130.334C142.267 130.334 142.011 130.334 142.011 130.186" fill="#B56F35"/>
<path d="M142.651 130.038C142.647 130.115 142.619 130.188 142.572 130.243C142.525 130.297 142.462 130.33 142.395 130.334C142.267 130.334 142.011 130.334 142.011 130.186" stroke="#B56F35" stroke-width="0.5" stroke-miterlimit="3.86" stroke-linecap="round"/>
<path d="M138.682 128.056C138.965 128.056 139.194 127.857 139.194 127.611C139.194 127.366 138.965 127.167 138.682 127.167C138.399 127.167 138.169 127.366 138.169 127.611C138.169 127.857 138.399 128.056 138.682 128.056Z" fill="#B56F35"/>
<path d="M139.961 128.648C140.244 128.648 140.473 128.449 140.473 128.204C140.473 127.958 140.244 127.759 139.961 127.759C139.678 127.759 139.448 127.958 139.448 128.204C139.448 128.449 139.678 128.648 139.961 128.648Z" fill="#B56F35"/>
<path d="M142.143 126.278C142.426 126.278 142.656 126.079 142.656 125.833C142.656 125.588 142.426 125.389 142.143 125.389C141.86 125.389 141.631 125.588 141.631 125.833C141.631 126.079 141.86 126.278 142.143 126.278Z" fill="#B56F35"/>
<path d="M143.04 128.5C143.323 128.5 143.553 128.301 143.553 128.055C143.553 127.81 143.323 127.611 143.04 127.611C142.757 127.611 142.528 127.81 142.528 128.055C142.528 128.301 142.757 128.5 143.04 128.5Z" fill="#B56F35"/>
<path d="M143.81 129.093C144.093 129.093 144.322 128.894 144.322 128.649C144.322 128.403 144.093 128.204 143.81 128.204C143.527 128.204 143.297 128.403 143.297 128.649C143.297 128.894 143.527 129.093 143.81 129.093Z" fill="#B56F35"/>
<path d="M143.81 129.093C144.093 129.093 144.322 128.894 144.322 128.649C144.322 128.403 144.093 128.204 143.81 128.204C143.527 128.204 143.297 128.403 143.297 128.649C143.297 128.894 143.527 129.093 143.81 129.093Z" fill="#B56F35"/>
<path d="M150.859 130.575C151.072 130.575 151.244 130.442 151.244 130.278C151.244 130.115 151.072 129.982 150.859 129.982C150.647 129.982 150.475 130.115 150.475 130.278C150.475 130.442 150.647 130.575 150.859 130.575Z" fill="#B56F35" stroke="#B56F35" stroke-width="0.5" stroke-miterlimit="3.86" stroke-linecap="round"/>
<path d="M228.435 129.39C228.435 129.538 228.307 129.686 228.05 129.686C227.794 129.686 227.666 129.538 227.666 129.39" fill="#B56F35"/>
<path d="M228.435 129.39C228.435 129.538 228.307 129.686 228.05 129.686C227.794 129.686 227.666 129.538 227.666 129.39" stroke="#B56F35" stroke-width="0.5" stroke-miterlimit="3.86" stroke-linecap="round"/>
<path d="M148.426 124.647C148.709 124.647 148.938 124.448 148.938 124.203C148.938 123.957 148.709 123.758 148.426 123.758C148.142 123.758 147.913 123.957 147.913 124.203C147.913 124.448 148.142 124.647 148.426 124.647Z" fill="#B56F35"/>
<path d="M149.58 125.24C149.863 125.24 150.092 125.041 150.092 124.796C150.092 124.55 149.863 124.351 149.58 124.351C149.297 124.351 149.067 124.55 149.067 124.796C149.067 125.041 149.297 125.24 149.58 125.24Z" fill="#B56F35"/>
<path d="M151.887 122.87C152.17 122.87 152.4 122.671 152.4 122.425C152.4 122.18 152.17 121.981 151.887 121.981C151.604 121.981 151.375 122.18 151.375 122.425C151.375 122.671 151.604 122.87 151.887 122.87Z" fill="#B56F35"/>
<path d="M152.654 125.092C152.937 125.092 153.166 124.893 153.166 124.648C153.166 124.402 152.937 124.203 152.654 124.203C152.371 124.203 152.142 124.402 152.142 124.648C152.142 124.893 152.371 125.092 152.654 125.092Z" fill="#B56F35"/>
<path d="M153.553 125.684C153.836 125.684 154.065 125.485 154.065 125.24C154.065 124.994 153.836 124.795 153.553 124.795C153.27 124.795 153.041 124.994 153.041 125.24C153.041 125.485 153.27 125.684 153.553 125.684Z" fill="#B56F35"/>
<path d="M153.553 125.684C153.836 125.684 154.065 125.485 154.065 125.24C154.065 124.994 153.836 124.795 153.553 124.795C153.27 124.795 153.041 124.994 153.041 125.24C153.041 125.485 153.27 125.684 153.553 125.684Z" fill="#B56F35"/>
<path d="M203.318 128.098C203.523 128.033 203.659 127.853 203.622 127.695C203.584 127.537 203.388 127.461 203.183 127.526C202.979 127.59 202.843 127.771 202.88 127.928C202.917 128.086 203.113 128.162 203.318 128.098Z" fill="#B56F35" stroke="#B56F35" stroke-miterlimit="3.86" stroke-linecap="round"/>
<path d="M205.225 127.908C205.225 128.056 205.097 128.204 204.969 128.352C204.841 128.5 204.585 128.352 204.457 128.204" fill="#B56F35"/>
<path d="M205.225 127.908C205.225 128.056 205.097 128.204 204.969 128.352C204.841 128.5 204.585 128.352 204.457 128.204" stroke="#B56F35" stroke-miterlimit="3.86" stroke-linecap="round"/>
<path d="M202.591 130C202.864 129.914 203.04 129.652 202.985 129.415C202.929 129.178 202.662 129.056 202.389 129.142C202.116 129.228 201.94 129.49 201.996 129.727C202.052 129.964 202.318 130.086 202.591 130Z" fill="#B56F35"/>
<path d="M203.862 130.147C204.135 130.061 204.311 129.799 204.255 129.562C204.199 129.325 203.933 129.203 203.659 129.289C203.386 129.375 203.21 129.637 203.266 129.874C203.322 130.11 203.589 130.233 203.862 130.147Z" fill="#B56F35"/>
<path d="M154.196 129.537C154.479 129.537 154.708 129.338 154.708 129.093C154.708 128.847 154.479 128.648 154.196 128.648C153.913 128.648 153.683 128.847 153.683 129.093C153.683 129.338 153.913 129.537 154.196 129.537Z" fill="#B56F35"/>
<path d="M206.689 129.136C206.963 129.05 207.139 128.788 207.083 128.551C207.027 128.314 206.76 128.192 206.487 128.278C206.214 128.364 206.038 128.626 206.094 128.862C206.15 129.099 206.416 129.222 206.689 129.136Z" fill="#B56F35"/>
<path d="M207.71 129.412C207.983 129.326 208.16 129.064 208.104 128.827C208.048 128.59 207.781 128.468 207.508 128.554C207.235 128.64 207.059 128.902 207.115 129.139C207.171 129.376 207.437 129.498 207.71 129.412Z" fill="#B56F35"/>
<path d="M207.71 129.412C207.983 129.326 208.16 129.064 208.104 128.827C208.048 128.59 207.781 128.468 207.508 128.554C207.235 128.64 207.059 128.902 207.115 129.139C207.171 129.376 207.437 129.498 207.71 129.412Z" fill="#B56F35"/>
<path d="M170.737 123.462C170.737 123.61 170.609 123.758 170.353 123.758C170.096 123.758 169.968 123.61 169.968 123.462" fill="#B56F35"/>
<path d="M170.737 123.462C170.737 123.61 170.609 123.758 170.353 123.758C170.096 123.758 169.968 123.61 169.968 123.462" stroke="#B56F35" stroke-width="0.5" stroke-miterlimit="3.86" stroke-linecap="round"/>
<path d="M148.426 124.647C148.709 124.647 148.938 124.448 148.938 124.203C148.938 123.957 148.709 123.758 148.426 123.758C148.142 123.758 147.913 123.957 147.913 124.203C147.913 124.448 148.142 124.647 148.426 124.647Z" fill="#B56F35"/>
<path d="M149.58 125.24C149.863 125.24 150.092 125.041 150.092 124.796C150.092 124.55 149.863 124.351 149.58 124.351C149.297 124.351 149.067 124.55 149.067 124.796C149.067 125.041 149.297 125.24 149.58 125.24Z" fill="#B56F35"/>
<path d="M151.887 122.87C152.17 122.87 152.4 122.671 152.4 122.425C152.4 122.18 152.17 121.981 151.887 121.981C151.604 121.981 151.375 122.18 151.375 122.425C151.375 122.671 151.604 122.87 151.887 122.87Z" fill="#B56F35"/>
<path d="M152.654 125.092C152.937 125.092 153.166 124.893 153.166 124.648C153.166 124.402 152.937 124.203 152.654 124.203C152.371 124.203 152.142 124.402 152.142 124.648C152.142 124.893 152.371 125.092 152.654 125.092Z" fill="#B56F35"/>
<path d="M153.553 125.684C153.836 125.684 154.065 125.485 154.065 125.24C154.065 124.994 153.836 124.795 153.553 124.795C153.27 124.795 153.041 124.994 153.041 125.24C153.041 125.485 153.27 125.684 153.553 125.684Z" fill="#B56F35"/>
<path d="M153.553 125.684C153.836 125.684 154.065 125.485 154.065 125.24C154.065 124.994 153.836 124.795 153.553 124.795C153.27 124.795 153.041 124.994 153.041 125.24C153.041 125.485 153.27 125.684 153.553 125.684Z" fill="#B56F35"/>
<path d="M149.578 129.093C149.79 129.093 149.962 128.961 149.962 128.797C149.962 128.633 149.79 128.5 149.578 128.5C149.366 128.5 149.194 128.633 149.194 128.797C149.194 128.961 149.366 129.093 149.578 129.093Z" fill="#B56F35" stroke="#B56F35" stroke-width="0.5" stroke-miterlimit="3.86" stroke-linecap="round"/>
<path d="M148.939 129.39C148.939 129.538 148.81 129.686 148.554 129.686C148.298 129.686 148.17 129.538 148.17 129.39" fill="#B56F35"/>
<path d="M148.939 129.39C148.939 129.538 148.81 129.686 148.554 129.686C148.298 129.686 148.17 129.538 148.17 129.39" stroke="#B56F35" stroke-width="0.5" stroke-miterlimit="3.86" stroke-linecap="round"/>
<path d="M233.563 129.24C233.846 129.24 234.076 129.041 234.076 128.796C234.076 128.55 233.846 128.351 233.563 128.351C233.28 128.351 233.051 128.55 233.051 128.796C233.051 129.041 233.28 129.24 233.563 129.24Z" fill="#B56F35"/>
<path d="M234.72 129.834C235.003 129.834 235.233 129.635 235.233 129.39C235.233 129.144 235.003 128.945 234.72 128.945C234.437 128.945 234.208 129.144 234.208 129.39C234.208 129.635 234.437 129.834 234.72 129.834Z" fill="#B56F35"/>
<path d="M236.898 127.463C237.181 127.463 237.41 127.264 237.41 127.019C237.41 126.773 237.181 126.574 236.898 126.574C236.615 126.574 236.385 126.773 236.385 127.019C236.385 127.264 236.615 127.463 236.898 127.463Z" fill="#B56F35"/>
<path d="M237.798 129.686C238.081 129.686 238.31 129.487 238.31 129.241C238.31 128.996 238.081 128.797 237.798 128.797C237.515 128.797 237.285 128.996 237.285 129.241C237.285 129.487 237.515 129.686 237.798 129.686Z" fill="#B56F35"/>
<path d="M153.553 125.684C153.836 125.684 154.065 125.485 154.065 125.24C154.065 124.994 153.836 124.795 153.553 124.795C153.27 124.795 153.041 124.994 153.041 125.24C153.041 125.485 153.27 125.684 153.553 125.684Z" fill="#B56F35"/>
<path d="M238.567 130.279C238.85 130.279 239.079 130.08 239.079 129.834C239.079 129.589 238.85 129.39 238.567 129.39C238.284 129.39 238.054 129.589 238.054 129.834C238.054 130.08 238.284 130.279 238.567 130.279Z" fill="#B56F35"/>
<path d="M97.2663 130.129C97.5493 130.129 97.7788 129.93 97.7788 129.685C97.7788 129.439 97.5493 129.24 97.2663 129.24C96.9833 129.24 96.7539 129.439 96.7539 129.685C96.7539 129.93 96.9833 130.129 97.2663 130.129Z" fill="#B56F35"/>
<path d="M98.4155 130.723C98.6985 130.723 98.9279 130.524 98.9279 130.279C98.9279 130.033 98.6985 129.834 98.4155 129.834C98.1325 129.834 97.9031 130.033 97.9031 130.279C97.9031 130.524 98.1325 130.723 98.4155 130.723Z" fill="#B56F35"/>
<path d="M100.598 128.352C100.881 128.352 101.111 128.153 101.111 127.907C101.111 127.662 100.881 127.463 100.598 127.463C100.315 127.463 100.086 127.662 100.086 127.907C100.086 128.153 100.315 128.352 100.598 128.352Z" fill="#B56F35"/>
<path d="M101.495 130.575C101.778 130.575 102.008 130.376 102.008 130.13C102.008 129.885 101.778 129.686 101.495 129.686C101.212 129.686 100.983 129.885 100.983 130.13C100.983 130.376 101.212 130.575 101.495 130.575Z" fill="#B56F35"/>
<path d="M102.264 131.167C102.547 131.167 102.777 130.968 102.777 130.722C102.777 130.477 102.547 130.278 102.264 130.278C101.981 130.278 101.752 130.477 101.752 130.722C101.752 130.968 101.981 131.167 102.264 131.167Z" fill="#B56F35"/>
<path d="M112.78 131.612C113.063 131.612 113.292 131.413 113.292 131.167C113.292 130.922 113.063 130.723 112.78 130.723C112.497 130.723 112.268 130.922 112.268 131.167C112.268 131.413 112.497 131.612 112.78 131.612Z" fill="#B56F35"/>
<path d="M109.316 130.575C109.599 130.575 109.828 130.376 109.828 130.13C109.828 129.885 109.599 129.686 109.316 129.686C109.033 129.686 108.803 129.885 108.803 130.13C108.803 130.376 109.033 130.575 109.316 130.575Z" fill="#B56F35"/>
<path d="M102.137 127.908C102.42 127.908 102.649 127.709 102.649 127.463C102.649 127.218 102.42 127.019 102.137 127.019C101.854 127.019 101.624 127.218 101.624 127.463C101.624 127.709 101.854 127.908 102.137 127.908Z" fill="#B56F35"/>
<path d="M113.42 130.575C113.703 130.575 113.932 130.376 113.932 130.13C113.932 129.885 113.703 129.686 113.42 129.686C113.137 129.686 112.907 129.885 112.907 130.13C112.907 130.376 113.137 130.575 113.42 130.575Z" fill="#B56F35"/>
<path d="M114.316 130.723C114.599 130.723 114.828 130.524 114.828 130.279C114.828 130.033 114.599 129.834 114.316 129.834C114.033 129.834 113.803 130.033 113.803 130.279C113.803 130.524 114.033 130.723 114.316 130.723Z" fill="#B56F35"/>
<path d="M180.225 117.24C180.225 117.24 180.097 117.536 179.969 117.536C179.841 117.536 179.713 117.24 179.713 117.092C179.52 115.37 179.52 113.627 179.713 111.906C179.841 110.054 179.328 108.942 180.097 107.164C180.225 107.016 180.225 106.868 180.353 106.72V107.461C180.569 110.718 180.526 113.992 180.225 117.24Z" fill="#5B9635" stroke="#4F7536" stroke-width="0.3" stroke-miterlimit="3.86"/>
<path d="M183.222 117.072C183.222 117.072 183.093 117.369 182.965 117.369C182.837 117.369 182.709 116.924 182.709 116.924C182.654 114.742 182.782 112.558 183.093 110.405C183.35 107.886 182.837 106.552 183.863 104.33C183.991 104.033 183.991 103.885 184.119 103.737V104.774C183.943 106.274 183.686 116.054 183.222 117.072Z" fill="#5B9635" stroke="#4F7536" stroke-width="0.3" stroke-miterlimit="3.86"/>
<path d="M179.326 120.202C179.326 120.35 179.326 120.647 179.198 120.647C179.07 120.647 178.813 120.202 178.813 120.054C178.23 117.073 177.802 114.055 177.531 111.015C177.146 107.459 176.377 105.978 176.633 102.57C176.663 102.32 176.706 102.072 176.762 101.829C176.812 102.281 176.898 102.728 177.018 103.162C177.274 104.94 179.582 118.424 179.326 120.202Z" fill="#5B9635" stroke="#4F7536" stroke-width="0.3" stroke-miterlimit="3.86"/>
<path d="M122.527 119.759L122.398 119.907C122.27 119.907 122.27 119.759 122.142 119.61C122.014 118.479 122.014 117.334 122.142 116.202C122.27 114.869 121.758 114.35 122.398 113.091C122.398 112.943 122.527 112.943 122.527 112.794V113.239C122.655 114.276 122.911 119.314 122.527 119.759Z" fill="#5B9635" stroke="#4F7536" stroke-width="0.3" stroke-miterlimit="3.86"/>
<path d="M124.703 120.203L124.575 120.351C124.447 120.351 124.447 120.055 124.319 120.055C124.276 118.665 124.362 117.274 124.575 115.906C124.703 114.276 124.447 113.387 125.087 112.053C125.16 111.976 125.206 111.871 125.215 111.757V112.35C125.299 114.981 125.127 117.615 124.703 120.203Z" fill="#5B9635" stroke="#4F7536" stroke-width="0.3" stroke-miterlimit="3.86"/>
<path d="M121.883 121.536C121.883 121.536 121.883 121.833 121.755 121.833C121.627 121.833 121.499 121.536 121.499 121.388C121.114 120.351 120.729 116.498 120.473 115.313C120.217 112.942 119.575 111.757 119.832 109.757C119.832 109.608 119.832 109.312 119.96 109.312C120.025 109.604 120.068 109.901 120.088 110.201C120.859 113.94 121.458 117.724 121.883 121.536Z" fill="#5B9635" stroke="#4F7536" stroke-width="0.3" stroke-miterlimit="3.86"/>
<path d="M123.678 123.017C123.961 123.017 124.19 122.818 124.19 122.573C124.19 122.327 123.961 122.128 123.678 122.128C123.395 122.128 123.165 122.327 123.165 122.573C123.165 122.818 123.395 123.017 123.678 123.017Z" fill="#B56F35"/>
<path d="M127.521 121.98C127.804 121.98 128.034 121.781 128.034 121.536C128.034 121.29 127.804 121.091 127.521 121.091C127.238 121.091 127.009 121.29 127.009 121.536C127.009 121.781 127.238 121.98 127.521 121.98Z" fill="#B56F35"/>
<path d="M122.908 121.98C123.191 121.98 123.421 121.781 123.421 121.536C123.421 121.29 123.191 121.091 122.908 121.091C122.625 121.091 122.396 121.29 122.396 121.536C122.396 121.781 122.625 121.98 122.908 121.98Z" fill="#B56F35"/>
<path d="M122.011 122.129C122.294 122.129 122.524 121.93 122.524 121.684C122.524 121.439 122.294 121.24 122.011 121.24C121.728 121.24 121.499 121.439 121.499 121.684C121.499 121.93 121.728 122.129 122.011 122.129Z" fill="#B56F35"/>
<path d="M228.436 124.351C228.436 124.351 228.565 124.648 228.693 124.648C228.821 124.648 228.949 124.351 228.949 124.203C229.141 122.482 229.141 120.739 228.949 119.017C228.821 117.165 229.333 116.054 228.565 114.276C228.436 114.127 228.436 113.979 228.308 113.831V114.572C228.308 115.905 228.1 123.462 228.436 124.351Z" fill="#5B9635" stroke="#4F7536" stroke-width="0.3" stroke-miterlimit="3.86"/>
<path d="M225.617 124.351C225.617 124.351 225.745 124.647 225.873 124.647C226.001 124.647 226.13 124.203 226.13 124.203C226.185 122.02 226.056 119.837 225.745 117.683C225.489 115.164 226.001 113.83 224.976 111.608C224.847 111.311 224.847 111.163 224.719 111.015V112.052C224.719 113.367 225.104 123.165 225.617 124.351Z" fill="#5B9635" stroke="#4F7536" stroke-width="0.3" stroke-miterlimit="3.86"/>
<path d="M229.335 127.315C229.335 127.464 229.335 127.76 229.463 127.76C229.591 127.76 229.848 127.315 229.848 127.167C230.431 124.187 230.859 121.168 231.13 118.129C231.515 114.573 232.284 113.091 232.028 109.683C231.998 109.433 231.955 109.186 231.899 108.942C231.849 109.394 231.763 109.841 231.643 110.275C231.387 112.202 229.207 125.537 229.335 127.315Z" fill="#5B9635" stroke="#4F7536" stroke-width="0.3" stroke-miterlimit="3.86"/>
<path d="M224.46 125.537L224.588 125.685C224.716 125.685 224.716 125.389 224.716 125.389C224.69 124.1 224.604 122.814 224.46 121.536C224.332 120.054 224.588 119.314 223.947 117.98C223.875 117.903 223.829 117.797 223.819 117.684V118.276C223.947 119.017 224.204 124.796 224.46 125.537Z" fill="#5B9635" stroke="#4F7536" stroke-width="0.3" stroke-miterlimit="3.86"/>
<path d="M222.541 125.685L222.669 125.833C222.797 125.833 222.797 125.537 222.797 125.389C222.709 123.74 222.495 122.104 222.156 120.499C222.174 118.923 221.912 117.36 221.386 115.905C221.337 115.847 221.3 115.777 221.278 115.7C221.256 115.623 221.249 115.541 221.258 115.461C221.25 115.716 221.294 115.97 221.386 116.202C221.564 119.392 221.95 122.562 222.541 125.685Z" fill="#5B9635" stroke="#4F7536" stroke-width="0.3" stroke-miterlimit="3.86"/>
<path d="M225.232 127.759C225.232 127.907 225.232 128.056 225.36 128.056C225.488 128.056 225.617 127.759 225.617 127.611C225.885 125.303 226.013 122.976 226.001 120.647C226.299 118.491 226.342 116.297 226.129 114.127C226.129 113.831 226.001 113.683 226.001 113.535C226.006 113.886 225.962 114.236 225.873 114.572C225.873 116.054 225.104 126.426 225.232 127.759Z" fill="#5B9635" stroke="#4F7536" stroke-width="0.3" stroke-miterlimit="3.86"/>
<path d="M226.897 127.759C227.18 127.759 227.41 127.627 227.41 127.463C227.41 127.299 227.18 127.167 226.897 127.167C226.614 127.167 226.385 127.299 226.385 127.463C226.385 127.627 226.614 127.759 226.897 127.759Z" fill="#B56F35"/>
<path d="M225.743 128.204C226.026 128.204 226.256 128.071 226.256 127.907C226.256 127.744 226.026 127.611 225.743 127.611C225.46 127.611 225.231 127.744 225.231 127.907C225.231 128.071 225.46 128.204 225.743 128.204Z" fill="#B56F35"/>
<path d="M223.562 126.278C223.845 126.278 224.075 126.145 224.075 125.981C224.075 125.818 223.845 125.685 223.562 125.685C223.279 125.685 223.05 125.818 223.05 125.981C223.05 126.145 223.279 126.278 223.562 126.278Z" fill="#B56F35"/>
<path d="M222.664 128.056C222.947 128.056 223.176 127.923 223.176 127.759C223.176 127.596 222.947 127.463 222.664 127.463C222.381 127.463 222.151 127.596 222.151 127.759C222.151 127.923 222.381 128.056 222.664 128.056Z" fill="#B56F35"/>
<path d="M221.769 128.5C222.052 128.5 222.282 128.368 222.282 128.204C222.282 128.04 222.052 127.908 221.769 127.908C221.486 127.908 221.257 128.04 221.257 128.204C221.257 128.368 221.486 128.5 221.769 128.5Z" fill="#B56F35"/>
<defs>
<filter id="filter0_d" x="74.5625" y="143.737" width="185.073" height="49.7187" filterUnits="userSpaceOnUse" color-interpolation-filters="sRGB">
<feFlood flood-opacity="0" result="BackgroundImageFix"/>
<feColorMatrix in="SourceAlpha" type="matrix" values="0 0 0 0 0 0 0 0 0 0 0 0 0 0 0 0 0 0 127 0"/>
<feOffset dy="4"/>
<feGaussianBlur stdDeviation="2"/>
<feColorMatrix type="matrix" values="0 0 0 0 0 0 0 0 0 0 0 0 0 0 0 0 0 0 0.25 0"/>
<feBlend mode="normal" in2="BackgroundImageFix" result="effect1_dropShadow"/>
<feBlend mode="normal" in="SourceGraphic" in2="effect1_dropShadow" result="shape"/>
</filter>
</defs>
</svg>
