<svg width="334" height="207" viewBox="0 0 334 207" fill="none" xmlns="http://www.w3.org/2000/svg">
<g filter="url(#filter0_d)">
<rect x="78.5625" y="147.737" width="177.073" height="41.7187" rx="10" fill="#7C8294"/>
<path d="M105.615 166.344L105.345 167.766C104.697 166.74 103.563 166.236 102.069 166.236C98.9912 166.236 96.6512 168.576 96.6512 171.852C96.6512 174.516 98.5232 176.082 100.881 176.082C102.141 176.082 103.203 175.686 104.013 174.966L103.815 175.956H105.957L107.865 166.344H105.615ZM101.457 174.156C99.8372 174.156 98.9192 173.238 98.9192 171.744C98.9192 169.62 100.323 168.144 102.231 168.144C103.851 168.144 104.769 169.062 104.769 170.556C104.769 172.68 103.365 174.156 101.457 174.156ZM108.901 175.956H111.151L113.815 162.6H111.565L108.901 175.956ZM124.166 170.448C124.166 167.82 122.402 166.236 119.738 166.236C116.516 166.236 114.194 168.594 114.194 171.852C114.194 174.408 116.03 176.082 118.928 176.082C120.404 176.082 121.862 175.65 122.87 174.75L121.934 173.184C121.268 173.814 120.26 174.174 119.162 174.174C117.308 174.174 116.426 173.346 116.39 171.816H124.022C124.112 171.402 124.166 170.934 124.166 170.448ZM119.63 168.036C121.124 168.036 122.114 168.846 122.096 170.322H116.588C117.002 168.918 118.1 168.036 119.63 168.036ZM139.037 166.236C137.489 166.236 136.211 166.776 135.239 167.82C134.717 166.776 133.637 166.236 132.251 166.236C131.045 166.236 129.947 166.596 129.101 167.388L129.299 166.344H127.157L125.249 175.956H127.499L128.507 170.97C128.885 169.08 129.911 168.198 131.459 168.198C132.701 168.198 133.295 168.81 133.295 169.926C133.295 170.16 133.277 170.412 133.223 170.682L132.161 175.956H134.411L135.419 170.952C135.797 169.08 136.823 168.198 138.371 168.198C139.613 168.198 140.207 168.81 140.207 169.926C140.207 170.16 140.189 170.412 140.135 170.682L139.073 175.956H141.323L142.385 170.628C142.475 170.196 142.511 169.8 142.511 169.44C142.511 167.352 141.161 166.236 139.037 166.236ZM153.34 166.344L153.07 167.766C152.422 166.74 151.288 166.236 149.794 166.236C146.716 166.236 144.376 168.576 144.376 171.852C144.376 174.516 146.248 176.082 148.606 176.082C149.866 176.082 150.928 175.686 151.738 174.966L151.54 175.956H153.682L155.59 166.344H153.34ZM149.182 174.156C147.562 174.156 146.644 173.238 146.644 171.744C146.644 169.62 148.048 168.144 149.956 168.144C151.576 168.144 152.494 169.062 152.494 170.556C152.494 172.68 151.09 174.156 149.182 174.156ZM163.772 166.236C162.494 166.236 161.342 166.614 160.46 167.406L160.676 166.344H158.534L156.626 175.956H158.876L159.884 170.97C160.262 169.098 161.396 168.198 163.034 168.198C164.348 168.198 164.96 168.828 164.96 169.944C164.96 170.16 164.942 170.412 164.888 170.682L163.844 175.956H166.094L167.156 170.628C167.228 170.214 167.282 169.836 167.282 169.476C167.282 167.37 165.896 166.236 163.772 166.236ZM177.448 166.344L173.002 173.472L171.382 166.344H169.132L171.4 175.92L171.094 176.388C170.482 177.342 169.96 177.702 169.204 177.702C168.538 177.702 168.016 177.45 167.62 177.09L166.504 178.728C167.044 179.25 168.07 179.574 169.024 179.574C170.698 179.574 171.742 178.908 173.074 176.802L179.698 166.344H177.448ZM190.363 164.292C190.849 164.292 191.245 164.436 191.551 164.688L192.469 163.05C191.965 162.672 191.191 162.474 190.363 162.474C188.203 162.474 186.907 163.716 186.493 165.732L186.349 166.416H184.783L184.423 168.216H185.989L184.441 175.956H186.691L188.239 168.216H190.813L191.173 166.416H188.545L188.653 165.894C188.887 164.814 189.409 164.292 190.363 164.292ZM199.711 166.344L199.441 167.766C198.793 166.74 197.659 166.236 196.165 166.236C193.087 166.236 190.747 168.576 190.747 171.852C190.747 174.516 192.619 176.082 194.977 176.082C196.237 176.082 197.299 175.686 198.109 174.966L197.911 175.956H200.053L201.961 166.344H199.711ZM195.553 174.156C193.933 174.156 193.015 173.238 193.015 171.744C193.015 169.62 194.419 168.144 196.327 168.144C197.947 168.144 198.865 169.062 198.865 170.556C198.865 172.68 197.461 174.156 195.553 174.156ZM206.795 167.586L207.047 166.344H204.905L202.997 175.956H205.247L206.201 171.222C206.597 169.224 207.767 168.324 209.531 168.324C209.747 168.324 209.891 168.342 210.089 168.378L210.503 166.236C208.883 166.236 207.677 166.578 206.795 167.586ZM224.255 166.236C222.707 166.236 221.429 166.776 220.457 167.82C219.935 166.776 218.855 166.236 217.469 166.236C216.263 166.236 215.165 166.596 214.319 167.388L214.517 166.344H212.375L210.467 175.956H212.717L213.725 170.97C214.103 169.08 215.129 168.198 216.677 168.198C217.919 168.198 218.513 168.81 218.513 169.926C218.513 170.16 218.495 170.412 218.441 170.682L217.379 175.956H219.629L220.637 170.952C221.015 169.08 222.041 168.198 223.589 168.198C224.831 168.198 225.425 168.81 225.425 169.926C225.425 170.16 225.407 170.412 225.353 170.682L224.291 175.956H226.541L227.603 170.628C227.693 170.196 227.729 169.8 227.729 169.44C227.729 167.352 226.379 166.236 224.255 166.236ZM232.693 176.082C235.393 176.082 237.301 174.948 237.301 172.842C237.301 169.638 232.099 170.88 232.099 169.224C232.099 168.558 232.801 168.054 234.259 168.054C235.195 168.054 236.257 168.252 237.103 168.792L237.931 167.064C237.121 166.542 235.771 166.236 234.475 166.236C231.739 166.236 229.903 167.46 229.903 169.476C229.903 172.734 235.105 171.51 235.105 173.094C235.105 173.814 234.403 174.246 232.927 174.246C231.649 174.246 230.353 173.868 229.579 173.31L228.643 175.038C229.435 175.632 231.019 176.082 232.693 176.082Z" fill="white"/>
</g>
<path d="M170.946 130.333C165.794 129.197 160.847 127.062 156.312 124.018C152.786 121.332 151.984 119.517 149.26 119.035C144.163 118.109 141.502 123.499 135.46 126.259C125.843 130.685 111.418 126.703 105.007 118.665C99.8938 112.238 103.596 107.83 97.1369 99.2911C92.8415 93.6234 90.245 94.2902 86.1578 88.4189C82.5195 83.1772 78.2561 73.6015 81.638 69.5268C85.9495 64.3963 99.6694 72.305 103.724 66.8226C105.664 64.2295 103.147 61.6551 104.798 56.9691C106.674 51.6348 112.428 47.7082 117.508 46.5414C129.097 43.7075 133.809 55.3206 147.112 52.9128C150.141 52.3757 153.523 51.0606 158.235 52.283C161.167 53.132 163.92 54.6566 166.329 56.7653C176.459 63.9147 193.385 58.1174 195.677 57.3395C198.628 56.254 201.466 54.7942 204.139 52.9869C209.974 48.838 208.948 44.6151 212.923 43.2445C216.449 42.0406 220.167 44.3743 223.036 46.1894C224.583 47.1394 226.039 48.2755 227.38 49.5789C230.277 52.4381 232.866 55.6906 235.089 59.2657C241.757 69.4712 249.707 66.5633 251.983 73.2867C254.259 80.01 246.549 84.2515 241.292 101.606C236.772 116.424 239.689 122.684 235.057 126.11C228.518 131 221.978 118.794 207.088 118.85C190.644 118.868 184.826 133.686 170.946 130.333Z" fill="#EADAC3"/>
<path opacity="0.8" d="M116.499 122.573L116.371 122.721C116.304 122.717 116.241 122.684 116.194 122.63C116.147 122.575 116.119 122.502 116.115 122.425C115.987 121.294 115.987 120.148 116.115 119.017C116.243 117.683 115.73 117.165 116.371 115.905C116.499 115.757 116.499 115.757 116.499 115.609V116.053C116.692 118.221 116.692 120.406 116.499 122.573Z" fill="#5B9635" stroke="#4F7536" stroke-width="0.3" stroke-miterlimit="3.86"/>
<path opacity="0.8" d="M118.806 122.572L118.677 122.72C118.549 122.72 118.549 122.424 118.421 122.424C118.365 120.977 118.494 119.529 118.806 118.127C118.692 116.75 118.914 115.364 119.446 114.126C119.519 114.049 119.565 113.943 119.574 113.83V114.422C119.318 115.515 119.11 121.831 118.806 122.572Z" fill="#5B9635" stroke="#4F7536" stroke-width="0.3" stroke-miterlimit="3.86"/>
<path opacity="0.8" d="M115.727 124.499C115.727 124.499 115.727 124.795 115.598 124.795C115.47 124.795 115.342 124.499 115.342 124.35C114.852 122.413 114.509 120.43 114.316 118.423C113.789 116.638 113.571 114.75 113.675 112.867C113.675 112.719 113.675 112.422 113.803 112.422C113.868 112.714 113.911 113.011 113.931 113.311C114.718 116.997 115.317 120.732 115.727 124.499Z" fill="#5B9635" stroke="#4F7536" stroke-width="0.3" stroke-miterlimit="3.86"/>
<path opacity="0.9" d="M120.603 121.683L120.475 121.831C120.408 121.827 120.345 121.794 120.298 121.739C120.251 121.685 120.223 121.612 120.219 121.535C120.091 120.404 120.091 119.258 120.219 118.127C120.347 116.793 119.834 116.275 120.475 115.015C120.603 114.867 120.603 114.867 120.603 114.719V115.163C120.796 117.331 120.796 119.515 120.603 121.683Z" fill="#5B9635" stroke="#4F7536" stroke-width="0.3" stroke-miterlimit="3.86"/>
<path opacity="0.9" d="M122.777 121.684L122.649 121.832C122.521 121.832 122.521 121.536 122.393 121.536C122.336 120.09 122.466 118.641 122.777 117.239C122.664 115.862 122.885 114.477 123.418 113.238C123.49 113.161 123.536 113.056 123.546 112.942V113.535C123.43 116.266 123.174 118.988 122.777 121.684Z" fill="#5B9635" stroke="#4F7536" stroke-width="0.3" stroke-miterlimit="3.86"/>
<path opacity="0.9" d="M119.833 123.609C119.833 123.609 119.833 123.905 119.705 123.905C119.577 123.905 119.448 123.609 119.448 123.461C118.959 121.523 118.616 119.54 118.423 117.534C117.896 115.748 117.678 113.86 117.781 111.977C117.781 111.829 117.781 111.533 117.91 111.533C117.974 111.824 118.017 112.122 118.038 112.422C118.824 116.107 119.423 119.843 119.833 123.609Z" fill="#5B9635" stroke="#4F7536" stroke-width="0.3" stroke-miterlimit="3.86"/>
<path opacity="0.8" d="M192.534 117.979C192.534 117.979 192.406 118.276 192.278 118.276C192.15 118.276 192.022 117.979 192.022 117.831C191.829 116.11 191.829 114.367 192.022 112.645C192.15 110.793 191.637 109.682 192.406 107.904C192.534 107.755 192.534 107.607 192.662 107.459V108.2C192.662 109.533 192.918 117.09 192.534 117.979Z" fill="#5B9635" stroke="#4F7536" stroke-width="0.3" stroke-miterlimit="3.86"/>
<path opacity="0.8" d="M195.352 117.979C195.352 117.979 195.224 118.275 195.096 118.275C194.968 118.275 194.84 117.831 194.84 117.831C194.784 115.648 194.913 113.465 195.224 111.311C195.481 108.792 194.968 107.459 195.994 105.236C196.122 104.94 196.122 104.792 196.25 104.644V105.681C196.122 107.014 195.865 116.794 195.352 117.979Z" fill="#5B9635" stroke="#4F7536" stroke-width="0.3" stroke-miterlimit="3.86"/>
<path opacity="0.8" d="M191.635 120.943C191.635 121.091 191.635 121.388 191.506 121.388C191.378 121.388 191.122 120.943 191.122 120.795C190.539 117.814 190.111 114.796 189.839 111.757C189.455 108.2 188.685 106.719 188.942 103.311C188.972 103.061 189.015 102.814 189.07 102.57C189.12 103.022 189.206 103.469 189.327 103.903C189.631 105.83 191.763 119.221 191.635 120.943Z" fill="#5B9635" stroke="#4F7536" stroke-width="0.3" stroke-miterlimit="3.86"/>
<path opacity="0.9" d="M197.646 116.645C197.646 116.645 197.518 116.942 197.39 116.942C197.262 116.942 197.133 116.645 197.133 116.497C196.941 114.776 196.941 113.033 197.133 111.311C197.262 109.459 196.749 108.348 197.518 106.57C197.646 106.421 197.646 106.273 197.774 106.125V106.866C197.991 110.123 197.948 113.397 197.646 116.645Z" fill="#5B9635" stroke="#4F7536" stroke-width="0.3" stroke-miterlimit="3.86"/>
<path opacity="0.9" d="M200.611 116.646C200.611 116.646 200.483 116.942 200.354 116.942C200.226 116.942 200.098 116.497 200.098 116.497C200.043 114.315 200.172 112.132 200.483 109.978C200.739 107.459 200.226 106.125 201.252 103.903C201.38 103.606 201.38 103.458 201.508 103.31V104.403C201.38 105.681 200.995 115.516 200.611 116.646Z" fill="#5B9635" stroke="#4F7536" stroke-width="0.3" stroke-miterlimit="3.86"/>
<path opacity="0.9" d="M196.765 119.609C196.765 119.757 196.765 120.053 196.637 120.053C196.508 120.053 196.252 119.609 196.252 119.461C195.669 116.48 195.241 113.462 194.97 110.422C194.585 106.866 193.816 105.384 194.072 101.976C194.102 101.727 194.145 101.479 194.2 101.235C194.251 101.688 194.337 102.134 194.457 102.569C194.713 104.495 196.893 117.831 196.765 119.609Z" fill="#5B9635" stroke="#4F7536" stroke-width="0.3" stroke-miterlimit="3.86"/>
<path opacity="0.8" d="M161.505 80.7879C161.633 82.8623 162.018 84.1959 161.377 85.0849C160.479 86.2703 159.325 85.2331 157.787 86.4185C156.248 87.6039 156.889 88.9374 155.094 91.3082C154.524 92.1945 153.776 92.9066 152.914 93.3826C151.311 94.1235 150.221 93.0863 147.657 92.6418C146.247 92.4936 143.426 92.0491 141.631 93.8272C139.835 95.6053 140.476 98.2724 138.681 99.0132C137.271 99.6059 136.245 98.1242 133.873 98.7169C132.591 99.0132 131.95 99.7541 131.693 99.6059C131.309 99.1614 132.719 97.087 134.771 93.2345C137.079 88.7893 136.694 88.7893 137.463 87.9002C140.156 85.0849 142.977 87.1594 145.157 84.4922C147.08 82.2696 145.67 80.0471 147.465 77.9726C149.26 75.8982 151.568 77.0836 156.056 76.3427C158.409 75.8635 160.696 75.0161 162.851 73.8237C161.772 75.92 161.3 78.36 161.505 80.7879Z" fill="#61A03D" stroke="#61A03D" stroke-miterlimit="3.86"/>
<path opacity="0.8" d="M146.757 64.4878C146.119 66.2418 145.855 68.1476 145.988 70.0443C146.244 71.8965 146.757 72.4151 147.014 74.4895C147.142 76.1194 147.398 78.342 146.244 79.8237C144.834 81.6759 142.782 80.4164 141.436 82.3427C140.795 83.2317 141.051 83.8244 140.538 85.4543C139.769 88.1214 138.23 88.8623 136.948 90.7885C134.127 94.9374 135.345 99.8271 134.512 100.049C133.679 100.272 131.05 95.1597 131.947 90.4181C132.589 87.1583 134.384 85.8247 134.384 81.8241C134.384 79.7496 133.871 79.6015 134.127 77.9716C134.384 76.3417 135.025 74.4154 138.487 71.0074C141.079 68.5676 143.846 66.3866 146.757 64.4878Z" fill="#729959" stroke="#729959" stroke-width="0.5" stroke-miterlimit="3.86"/>
<path opacity="0.8" d="M133.041 100.698C134.067 99.9576 133.682 96.2533 132.784 94.0307C132.026 92.6182 131.168 91.2802 130.22 90.03C127.912 86.622 127.656 86.3257 127.656 85.733C127.271 83.0659 129.258 81.5842 128.681 80.1765C127.912 78.5466 124.706 80.3246 122.783 78.102C121.629 76.7685 122.398 75.5831 121.18 74.1014C120.539 73.3605 119.577 72.7678 114.513 72.6196C112.91 72.6196 110.794 72.6197 108.23 72.7678C109.996 74.2819 111.609 76.0216 113.038 77.9539C113.725 78.7066 114.27 79.6145 114.641 80.621C115.282 82.4732 114.769 83.4363 115.282 85.3626C115.702 86.7628 116.458 87.9961 117.462 88.9187C118.828 90.3395 120.388 91.4908 122.078 92.3267C128.729 95.3087 131.374 101.68 133.041 100.698Z" fill="#5B9635" stroke="#5B9635" stroke-width="0.5" stroke-miterlimit="3.86"/>
<path opacity="0.8" d="M157.272 91.7524C156.347 92.1453 155.514 92.7791 154.835 93.6045C153.553 95.0863 153.81 96.2716 152.912 98.0497C151.758 100.42 149.194 102.791 147.142 102.347C145.86 102.05 145.988 100.717 144.193 99.6796C142.621 98.7106 140.794 98.4467 139.064 98.9387C136.756 99.5314 135.858 100.124 135.73 99.8278C135.346 99.3833 137.012 96.7161 140.346 94.2713C141.876 93.1384 143.57 92.3352 145.347 91.9005C149.254 90.747 153.344 90.6962 157.272 91.7524Z" fill="#729959" stroke="#729959" stroke-width="0.5" stroke-miterlimit="3.86"/>
<path opacity="0.8" d="M134.068 124.647C134.324 125.684 134.709 125.239 134.837 124.35C135.991 119.757 135.222 97.3828 134.709 97.3828C134.196 97.3828 133.17 120.794 134.068 124.647Z" fill="#5B9635" stroke="#4F7536" stroke-width="0.3" stroke-miterlimit="3.86"/>
<path opacity="0.8" d="M163.169 73.2314C156.63 83.159 151.245 86.8633 147.526 88.345C144.445 89.3253 141.596 91.0983 139.192 93.5311C137.584 95.127 136.199 97.0015 135.088 99.0876C134.892 97.3664 134.892 95.6227 135.088 93.9015C135.482 90.7056 136.258 87.5887 137.397 84.6407C137.651 84.0435 137.866 83.4242 138.038 82.7885C138.551 81.1586 138.807 79.8251 138.935 79.3805V79.2324C139.192 78.1952 141.243 74.0463 146.949 64.415" stroke="#4F7536" stroke-width="0.3" stroke-miterlimit="3.86"/>
<path opacity="0.8" d="M156.885 91.7524C153.233 92.2628 149.628 93.1555 146.115 94.4195C146.115 94.4195 139.575 96.2717 136.241 99.1611C136.124 99.2782 135.995 99.3777 135.857 99.4574L135.729 99.6056" stroke="#4F7536" stroke-width="0.3" stroke-miterlimit="3.86"/>
<path opacity="0.8" d="M135.347 123.757C135.475 124.053 135.86 124.646 136.244 124.498C136.629 124.35 136.629 123.757 136.757 123.609C137.014 121.757 135.86 105.532 135.347 98.4194C134.962 107.013 134.449 122.275 135.347 123.757Z" fill="#5B9635" stroke="#4F7536" stroke-width="0.3" stroke-miterlimit="3.86"/>
<path opacity="0.8" d="M132.913 100.347C132.565 99.8941 132.264 99.3969 132.015 98.865C131.535 97.983 131.147 97.0379 130.861 96.0496C130.092 93.5307 127.271 90.7154 124.578 87.9001C121.373 84.7885 120.732 84.7885 119.77 82.8622C118.359 80.4914 118.616 79.1579 117.718 77.3057C116.692 75.2313 114.256 73.1569 108.23 72.416" stroke="#4F7536" stroke-width="0.3" stroke-miterlimit="3.86"/>
<path opacity="0.8" d="M133.423 99.9021C133.423 99.6057 133.039 99.6058 132.013 98.8649C129.833 97.0127 129.961 95.7532 128.679 95.0123C126.627 93.9751 124.96 96.8645 122.909 95.7532C121.755 95.1605 122.268 94.1233 120.986 93.0861C119.19 91.6044 117.267 93.0861 115.087 91.6044C114.153 91.0449 113.392 90.165 112.908 89.0854C112.266 93.9752 113.164 96.0496 114.19 97.0868C116.241 99.1612 119.703 97.8276 121.627 100.791C122.396 101.976 122.011 102.421 122.781 103.162C125.345 106.125 133.535 101.68 133.423 99.9021Z" fill="#6AA842" stroke="#61A03D" stroke-width="0.5" stroke-miterlimit="3.86"/>
<path opacity="0.8" d="M133.424 99.9025C128.808 100.94 125.731 100.199 124.064 99.1616C122.699 98.2234 121.286 97.3821 119.832 96.6426C118.489 96.2116 117.197 95.5895 115.986 94.7905C114.521 93.2522 113.493 91.2377 113.037 89.0117" stroke="#4F7536" stroke-width="0.3" stroke-miterlimit="3.86"/>
<path opacity="0.9" d="M204.331 122.276C204.588 123.61 205.101 123.017 205.357 121.832C206.768 116.275 206.383 88.1963 205.742 88.1963C205.101 88.1963 203.306 117.368 204.331 122.276Z" fill="#5B9635" stroke="#4F7536" stroke-width="0.3" stroke-miterlimit="3.86"/>
<path opacity="0.9" d="M240.233 67.4518C240.361 69.9708 241.002 71.6007 240.105 73.0083C239.207 74.416 237.412 73.1565 235.617 74.6382C233.822 76.12 234.463 77.7499 232.155 80.7134C231.411 81.7513 230.496 82.6076 229.462 83.2323C227.411 84.1214 226.128 82.7878 222.923 82.3433C221.128 82.0469 217.666 81.6024 215.358 83.825C213.05 86.0476 213.755 89.3815 211.767 90.3447C209.972 91.0855 208.818 89.1593 205.741 89.9001C204.138 90.3447 203.305 91.2337 203.048 90.9374C202.535 90.3447 204.33 87.8257 206.895 82.936C209.844 77.3795 209.331 77.3795 210.357 76.2682C213.819 72.712 217.153 75.3791 219.974 72.1193C222.41 69.304 220.487 66.5628 222.923 63.9698C225.359 61.3768 228.052 62.9325 233.565 61.8953C236.51 61.3776 239.366 60.3276 242.028 58.7837C240.801 61.4495 240.183 64.433 240.233 67.4518Z" fill="#61A03D" stroke="#61A03D" stroke-miterlimit="3.86"/>
<path opacity="0.9" d="M221.896 47.3003C221.039 49.4788 220.728 51.8917 220.999 54.2644C221.255 56.6352 222.024 57.2279 222.281 59.8209C222.537 61.8953 222.794 64.7106 221.383 66.4887C219.78 68.7113 217.152 67.2296 215.357 69.6004C214.587 70.7857 214.844 71.4525 214.331 73.601C213.305 77.009 211.51 77.7499 209.843 80.2689C206.381 85.4549 207.92 91.6782 206.766 91.8264C205.612 91.9745 202.406 85.7513 203.56 79.6762C204.33 75.5273 206.638 73.8974 206.638 69.0077C206.638 66.4888 205.996 66.1924 206.253 64.2661C206.509 62.3398 207.407 59.8209 211.638 55.5239C214.698 52.2273 218.153 49.4577 221.896 47.3003Z" fill="#729959" stroke="#729959" stroke-width="0.5" stroke-miterlimit="3.86"/>
<path opacity="0.9" d="M204.718 92.3448C206.129 91.4558 205.616 86.7884 204.334 84.0472C203.388 82.2682 202.315 80.5831 201.128 79.0093C198.179 74.7122 198.051 74.4159 197.923 73.4527C197.41 70.0448 199.974 68.2667 199.205 66.4886C198.179 64.4142 194.204 66.785 191.768 63.9697C190.165 62.3397 191.255 60.7098 189.716 58.9318C188.947 58.0427 187.665 57.0796 181.382 57.0796C179.458 57.0796 176.766 57.0796 173.56 57.2277C175.802 59.1487 177.864 61.3336 179.715 63.7474C180.582 64.7205 181.278 65.8777 181.766 67.1554C182.536 69.5262 181.895 70.7115 182.536 72.9341C183.082 74.6621 184.01 76.1946 185.228 77.3793C186.882 79.2102 188.847 80.6231 190.998 81.5282C199.333 85.677 202.795 93.6784 204.718 92.3448Z" fill="#5B9635" stroke="#5B9635" stroke-width="0.5" stroke-miterlimit="3.86"/>
<path opacity="0.9" d="M235.103 81.2322C233.932 81.7344 232.878 82.5463 232.026 83.603C230.423 85.4552 230.744 87.011 229.59 89.1595C227.987 92.123 224.781 95.0865 222.409 94.4938C220.806 94.0493 220.999 92.6416 218.691 91.0858C216.706 89.9444 214.441 89.6303 212.28 90.1967C209.33 90.9376 208.305 91.6785 208.048 91.3821C207.792 91.0858 209.651 87.5296 213.818 84.418C215.747 83.0149 217.873 82.012 220.101 81.4545C225.009 79.9497 230.163 79.8734 235.103 81.2322Z" fill="#729959" stroke="#729959" stroke-width="0.5" stroke-miterlimit="3.86"/>
<path opacity="0.9" d="M205.997 122.276C206.253 123.462 206.766 123.017 207.023 121.832C208.433 116.053 207.535 88.1963 206.894 88.1963C206.253 88.1963 204.843 117.535 205.997 122.276Z" fill="#5B9635" stroke="#4F7536" stroke-width="0.3" stroke-miterlimit="3.86"/>
<path opacity="0.9" d="M242.415 58.0984C234.402 70.545 227.542 75.1383 222.797 76.9164C218.96 78.1722 215.412 80.3992 212.411 83.436C210.384 85.46 208.614 87.8045 207.154 90.4002C206.957 88.2329 206.957 86.0478 207.154 83.8806C207.708 79.9466 208.699 76.1118 210.103 72.4712C210.231 72.1749 210.488 71.2858 210.873 70.2486C211.294 68.8431 211.636 67.4078 211.898 65.9516V65.8034C212.155 64.4699 214.719 59.2838 221.772 47.2817" stroke="#4F7536" stroke-width="0.3" stroke-miterlimit="3.86"/>
<path opacity="0.9" d="M234.512 81.2319C229.942 81.8808 225.435 83.0218 221.049 84.6399C221.049 84.6399 212.843 86.8625 208.739 90.5669C208.577 90.6692 208.443 90.8235 208.355 91.0114L208.227 91.1596" stroke="#4F7536" stroke-width="0.3" stroke-miterlimit="3.86"/>
<path opacity="0.9" d="M207.662 121.387C207.79 121.683 208.303 122.424 208.688 122.276C209.072 122.128 209.201 121.387 209.201 121.09C209.585 118.868 208.047 98.4198 207.406 89.6035C207.149 100.346 206.508 119.46 207.662 121.387Z" fill="#5B9635" stroke="#4F7536" stroke-width="0.3" stroke-miterlimit="3.86"/>
<path opacity="0.9" d="M204.714 92.0489C204.457 91.6044 203.944 91.0117 203.56 90.1967C202.957 89.0873 202.483 87.8919 202.149 86.6406C201.252 83.5289 197.661 79.8246 194.135 76.5648C190.16 72.5641 189.327 72.5641 187.98 70.1933C186.185 67.0817 186.57 65.6 185.416 63.3774C184.134 60.8584 181.056 58.1913 173.491 57.3022" stroke="#4F7536" stroke-width="0.3" stroke-miterlimit="3.86"/>
<path opacity="0.9" d="M205.229 91.437C205.229 90.9925 204.716 90.9925 203.626 90.1035C200.805 87.8809 201.061 86.1028 199.523 85.3619C196.958 84.0284 194.714 87.7327 192.342 86.3991C190.932 85.6583 191.573 84.3247 189.906 82.9911C187.598 81.139 185.29 82.843 182.597 81.139C181.459 80.4229 180.524 79.3424 179.905 78.0273C179.007 84.1025 180.161 86.7696 181.507 88.1031C184.072 90.7703 188.303 88.9921 190.739 92.6965C191.637 94.1782 191.252 94.7709 192.15 95.66C195.227 99.3087 205.485 93.6781 205.229 91.437Z" fill="#6AA842" stroke="#61A03D" stroke-width="0.5" stroke-miterlimit="3.86"/>
<path opacity="0.9" d="M205.225 91.4372C199.455 92.7708 195.608 91.7335 193.556 90.5481C191.878 89.3527 190.12 88.3123 188.299 87.4365C185.735 86.2511 184.837 86.3993 183.491 85.2139C181.682 83.3089 180.39 80.8382 179.772 78.1016" stroke="#4F7536" stroke-width="0.3" stroke-miterlimit="3.86"/>
<path d="M130.728 122.425C131.497 120.943 132.138 119.165 133.036 119.165C133.933 119.165 134.446 120.647 135.216 120.35C135.985 120.054 135.857 118.869 136.498 117.98C137.652 116.646 138.806 118.869 141.499 118.721C143.101 118.721 143.294 117.832 144.448 118.276C145.612 118.713 146.638 119.538 147.397 120.647C149.192 122.721 149.192 123.758 150.346 124.055C151.5 124.351 151.5 123.462 152.654 123.759C153.695 124.158 154.595 124.938 155.219 125.981C155.731 126.722 156.116 127.463 156.373 127.833C152.141 128.13 147.782 128.278 143.294 128.426C137.395 128.574 131.625 128.426 126.112 128.13C128.008 126.661 129.587 124.709 130.728 122.425Z" fill="#B56F35" stroke="#B56F35" stroke-width="2" stroke-miterlimit="3.86"/>
<path d="M167.66 116.942C167.275 118.572 166.762 117.831 166.377 116.498C164.582 109.385 165.095 74.4165 165.993 74.4165C166.89 74.4165 168.942 110.867 167.66 116.942Z" fill="#5B9635" stroke="#4F7536" stroke-width="0.3" stroke-miterlimit="3.86"/>
<path d="M122.651 48.486C122.523 51.5976 121.753 53.672 122.907 55.3019C124.189 57.1541 126.241 55.5983 128.549 57.3764C130.857 59.1544 129.96 61.2289 132.78 64.9332C133.64 66.2861 134.789 67.3582 136.114 68.0449C138.679 69.2302 140.346 67.4522 144.128 67.0077C146.308 66.7113 150.668 66.1186 153.617 68.8598C156.566 71.601 155.412 75.824 158.105 77.0093C160.284 78.0466 161.823 75.5277 165.542 76.4167C167.593 77.0094 168.619 78.2688 168.875 77.7502C169.516 77.0093 167.273 73.8977 164.067 67.8226C160.348 60.8585 161.118 60.8584 159.836 59.5249C155.604 55.2278 151.245 58.3395 147.911 54.3388C144.962 50.7827 147.141 47.3747 144.321 44.1149C141.5 40.8551 138.038 42.7813 130.985 41.4478C127.3 40.742 123.718 39.4453 120.343 37.5952C121.965 40.9107 122.764 44.6794 122.651 48.486Z" fill="#61A03D" stroke="#61A03D" stroke-miterlimit="3.86"/>
<path d="M145.604 23.1484C146.64 25.8447 147.038 28.8102 146.758 31.7425C146.373 34.7059 145.476 35.4468 145.155 38.8548C144.899 41.3737 144.514 44.9299 146.309 47.1525C148.489 49.9678 151.695 48.0416 153.746 51.0051C154.772 52.4868 154.259 53.3758 155.157 55.8947C156.439 60.1918 158.747 61.229 160.798 64.1925C165.158 70.7121 163.235 78.4171 164.645 78.5653C166.056 78.7134 170.031 71.0085 168.748 63.4516C167.851 58.2656 164.902 56.3393 164.902 50.116C164.902 46.8562 165.671 46.708 165.415 44.0409C165.158 41.3738 164.004 38.4844 158.619 33.076C154.563 29.2977 150.205 25.9736 145.604 23.1484Z" fill="#729959" stroke="#729959" stroke-width="0.5" stroke-miterlimit="3.86"/>
<path d="M167.195 79.454C165.592 78.2687 166.169 72.6381 167.707 68.9337C168.924 66.7319 170.296 64.6503 171.811 62.7104C175.401 57.3762 175.786 56.9317 175.914 55.8945C176.555 51.7456 173.349 49.3749 174.311 47.3004C175.593 44.7815 180.594 47.5967 183.543 44.1888C185.338 42.1143 184.184 40.1881 185.979 37.9655C187.005 36.7801 188.544 35.7429 196.365 35.5947C198.802 35.5947 202.135 35.5947 206.11 35.8911C203.301 38.2816 200.722 41.0137 198.417 44.0406C197.385 45.2328 196.558 46.6407 195.981 48.1894C194.955 51.1529 195.853 52.6347 195.083 55.45C194.429 57.6174 193.276 59.5382 191.749 61.0065C189.66 63.2432 187.224 65.0029 184.569 66.1925C173.942 71.1563 169.583 81.2321 167.195 79.454Z" fill="#5B9635" stroke="#5B9635" stroke-width="0.5" stroke-miterlimit="3.86"/>
<path d="M129.19 65.6734C130.655 66.2999 131.973 67.315 133.037 68.6369C134.96 71.0077 134.639 72.7858 136.114 75.6011C138.037 79.3054 142.012 83.0097 145.09 82.2689C147.141 81.6762 146.885 79.75 149.898 77.9719C152.374 76.5318 155.202 76.1135 157.912 76.7865C161.502 77.6755 162.72 78.6387 163.169 78.2682C163.618 77.8978 161.118 73.5267 155.989 69.526C153.548 67.7081 150.827 66.4504 147.975 65.8216C141.804 64.1208 135.38 64.0701 129.19 65.6734Z" fill="#729959" stroke="#729959" stroke-width="0.5" stroke-miterlimit="3.86"/>
<path d="M165.48 116.942C165.095 118.572 164.582 117.831 164.197 116.349C162.595 109.237 163.556 74.2681 164.454 74.2681C165.351 74.2681 167.018 111.015 165.48 116.942Z" fill="#5B9635" stroke="#4F7536" stroke-width="0.3" stroke-miterlimit="3.86"/>
<path d="M119.958 36.7801C130.087 52.3383 138.55 57.9689 144.448 60.3397C149.234 61.9487 153.685 64.6716 157.527 68.3411C160.062 70.8732 162.265 73.8181 164.066 77.0833C164.328 74.3752 164.328 71.6419 164.066 68.9338C163.39 63.9719 162.139 59.1377 160.348 54.561C160.22 54.1164 159.835 53.2274 159.45 51.7457C158.681 49.0786 158.296 47.0041 158.168 46.4114V46.2632C157.912 44.4111 154.578 38.1137 145.859 23" stroke="#4F7536" stroke-width="0.3" stroke-miterlimit="3.86"/>
<path d="M129.832 65.6743C135.519 66.525 141.137 67.9126 146.629 69.8232C146.629 69.8232 156.887 72.4903 162.016 77.2318L162.528 77.8245L162.657 77.9727" stroke="#4F7536" stroke-width="0.3" stroke-miterlimit="3.86"/>
<path d="M163.171 115.517C163.043 115.813 162.915 116.406 162.658 116.406C162.402 116.406 162.017 115.368 161.889 114.924C160.992 111.664 162.017 99.2175 162.146 95.2168C162.402 87.5118 160.992 83.9556 163.3 76.8433C163.556 76.1024 163.684 75.6579 163.812 75.2134V78.1769C163.812 82.5665 164.197 111.905 163.171 115.517Z" fill="#5B9635" stroke="#4F7536" stroke-width="0.3" stroke-miterlimit="3.86"/>
<path d="M167.193 79.1575C167.744 78.4897 168.218 77.7427 168.604 76.935C169.366 75.549 169.969 74.0548 170.399 72.4897C171.553 68.6372 176.041 64.0438 180.272 59.895C185.273 55.0053 186.17 55.0053 187.966 52.0418C190.145 48.1893 189.761 46.2631 191.171 43.5959C192.774 40.4843 196.557 37.0763 206.045 36.0391" stroke="#4F7536" stroke-width="0.3" stroke-miterlimit="3.86"/>
<path d="M144.963 121.832C146.566 119.461 147.656 116.942 149.579 116.794C151.503 116.646 152.785 119.016 154.388 118.424C155.798 117.979 155.413 116.053 156.952 114.868C159.26 113.015 161.953 116.053 167.723 115.905C171.185 115.757 171.441 114.571 174.262 115.016C176.696 115.578 178.981 116.797 180.93 118.572C185.033 121.535 185.29 123.165 187.726 123.61C190.162 124.054 190.162 122.721 192.855 123.165C195.024 123.669 197.051 124.79 198.753 126.425C200.676 128.055 201.702 128.796 201.574 129.389C201.317 131.759 187.854 130.722 173.365 130.87C151.31 131.167 136.501 134.13 136.052 131.167C135.603 129.24 140.475 128.648 144.963 121.832Z" fill="#D57D28" stroke="#D57D28" stroke-width="2" stroke-miterlimit="3.86"/>
<path d="M166.632 78.4727C166.76 77.88 167.273 77.88 168.812 76.6205C172.274 73.9534 172.017 71.7308 173.941 70.6936C177.146 69.0637 179.839 73.6571 182.916 71.879C184.712 70.8418 183.942 69.3601 185.866 67.7302C188.815 65.3594 191.636 67.582 195.098 65.5075C196.552 64.5728 197.751 63.1872 198.56 61.5068C199.585 69.2119 198.175 72.4717 196.636 74.1016C193.431 77.3614 188.045 75.287 185.096 79.6581C183.942 81.5103 184.455 82.1771 183.493 83.3625C179.07 88.1966 166.247 81.2324 166.632 78.4727Z" fill="#6AA842" stroke="#61A03D" stroke-width="0.5" stroke-miterlimit="3.86"/>
<path d="M166.634 78.4716C173.815 80.3238 178.559 78.9161 181.252 77.2862C183.35 75.7823 185.535 74.4456 187.791 73.2856C190.997 71.8039 192.023 71.952 193.818 70.6185C196.036 68.1642 197.689 65.1082 198.626 61.728" stroke="#4F7536" stroke-width="0.3" stroke-miterlimit="3.86"/>
<path d="M167.659 119.906C168.3 118.721 170.096 115.164 172.468 115.164C174.519 115.164 175.417 117.683 177.276 117.239C178.687 116.794 178.43 115.016 179.969 113.831C182.405 111.979 184.777 115.461 190.74 115.683C194.202 115.831 194.586 114.646 197.279 115.387C199.657 116.123 201.853 117.493 203.69 119.387C207.537 122.647 207.793 124.277 210.101 124.944C212.409 125.611 212.666 124.203 215.23 124.796C217.387 125.465 219.369 126.737 221 128.5C222.154 129.685 223.052 130.871 223.693 131.612C214.589 131.167 205.101 130.871 195.484 130.871C180.225 130.723 165.48 131.167 151.375 132.056C161.248 128.055 165.592 123.61 167.659 119.906Z" fill="#D68A4C" stroke="#D68A4C" stroke-width="2" stroke-miterlimit="3.86"/>
<path d="M109.573 125.387C110.727 123.535 111.625 121.535 113.035 121.387C114.446 121.239 115.343 123.239 116.625 122.72C117.651 122.276 117.523 120.868 118.549 119.905C120.344 118.275 122.267 120.942 126.563 120.794C129.127 120.794 129.384 119.757 131.371 120.201C133.132 120.723 134.773 121.684 136.179 123.017C139.129 125.536 139.385 126.721 141.18 127.165C142.975 127.61 142.975 126.425 145.027 126.869C146.642 127.347 148.137 128.261 149.386 129.536C149.899 130.129 150.669 130.87 151.438 131.907C144.642 132.352 137.59 132.5 130.409 132.648C120.793 132.796 111.561 132.796 102.585 132.5C104.121 131.412 105.542 130.119 106.816 128.647C107.807 127.644 108.728 126.554 109.573 125.387Z" fill="#D68A4C" stroke="#D68A4C" stroke-width="2" stroke-miterlimit="3.86"/>
<path d="M202.79 125.091C203.687 123.61 204.393 121.683 205.611 121.683C206.829 121.683 207.406 123.313 208.432 123.017C209.457 122.72 209.201 121.387 210.034 120.498C211.445 119.164 212.855 121.535 216.317 121.387C218.369 121.387 218.497 120.498 220.164 120.942C221.575 121.463 222.853 122.379 223.883 123.61C226.191 125.832 226.319 127.018 227.601 127.314C228.883 127.61 229.011 126.721 230.55 127.018C231.825 127.45 232.976 128.268 233.884 129.388C234.504 130.04 235.043 130.788 235.487 131.611C230.101 131.759 224.588 131.907 218.946 131.907C211.381 131.907 204.2 131.611 197.148 131.166C199.437 129.717 201.377 127.628 202.79 125.091Z" fill="#D57D28" stroke="#D57D28" stroke-width="2" stroke-miterlimit="3.86"/>
<path d="M176.12 125.536C176.889 124.054 177.53 122.276 178.428 122.276C179.326 122.276 179.838 123.758 180.608 123.462C181.377 123.165 181.249 121.98 181.89 121.091C183.044 119.757 184.198 121.98 186.891 121.832C188.493 121.832 188.686 120.943 189.84 121.387C191.004 121.824 192.03 122.649 192.789 123.758C194.584 125.833 194.584 126.87 195.738 127.166C196.892 127.462 196.892 126.573 198.046 126.87C199.087 127.269 199.987 128.049 200.611 129.092C201.124 129.833 201.508 130.574 201.765 130.945C197.533 131.241 193.174 131.389 188.686 131.537C182.788 131.685 177.018 131.537 171.504 131.241C173.408 129.783 174.989 127.829 176.12 125.536Z" fill="#B56F35" stroke="#B56F35" stroke-width="2" stroke-miterlimit="3.86"/>
<path d="M140.219 134.723C140.36 134.723 140.475 134.656 140.475 134.575C140.475 134.493 140.36 134.427 140.219 134.427C140.077 134.427 139.963 134.493 139.963 134.575C139.963 134.656 140.077 134.723 140.219 134.723Z" fill="#B56F35" stroke="#B56F35" stroke-width="0.5" stroke-miterlimit="3.86" stroke-linecap="round"/>
<path d="M142.651 134.038C142.647 134.115 142.619 134.188 142.572 134.243C142.525 134.297 142.462 134.33 142.395 134.334C142.267 134.334 142.011 134.334 142.011 134.186" fill="#B56F35"/>
<path d="M142.651 134.038C142.647 134.115 142.619 134.188 142.572 134.243C142.525 134.297 142.462 134.33 142.395 134.334C142.267 134.334 142.011 134.334 142.011 134.186" stroke="#B56F35" stroke-width="0.5" stroke-miterlimit="3.86" stroke-linecap="round"/>
<path d="M138.682 132.056C138.965 132.056 139.194 131.857 139.194 131.611C139.194 131.366 138.965 131.167 138.682 131.167C138.399 131.167 138.169 131.366 138.169 131.611C138.169 131.857 138.399 132.056 138.682 132.056Z" fill="#B56F35"/>
<path d="M139.961 132.648C140.244 132.648 140.473 132.449 140.473 132.204C140.473 131.958 140.244 131.759 139.961 131.759C139.678 131.759 139.448 131.958 139.448 132.204C139.448 132.449 139.678 132.648 139.961 132.648Z" fill="#B56F35"/>
<path d="M142.143 130.278C142.426 130.278 142.656 130.079 142.656 129.833C142.656 129.588 142.426 129.389 142.143 129.389C141.86 129.389 141.631 129.588 141.631 129.833C141.631 130.079 141.86 130.278 142.143 130.278Z" fill="#B56F35"/>
<path d="M143.04 132.5C143.323 132.5 143.553 132.301 143.553 132.055C143.553 131.81 143.323 131.611 143.04 131.611C142.757 131.611 142.528 131.81 142.528 132.055C142.528 132.301 142.757 132.5 143.04 132.5Z" fill="#B56F35"/>
<path d="M143.81 133.093C144.093 133.093 144.322 132.894 144.322 132.649C144.322 132.403 144.093 132.204 143.81 132.204C143.527 132.204 143.297 132.403 143.297 132.649C143.297 132.894 143.527 133.093 143.81 133.093Z" fill="#B56F35"/>
<path d="M143.81 133.093C144.093 133.093 144.322 132.894 144.322 132.649C144.322 132.403 144.093 132.204 143.81 132.204C143.527 132.204 143.297 132.403 143.297 132.649C143.297 132.894 143.527 133.093 143.81 133.093Z" fill="#B56F35"/>
<path d="M150.859 134.575C151.072 134.575 151.244 134.442 151.244 134.278C151.244 134.115 151.072 133.982 150.859 133.982C150.647 133.982 150.475 134.115 150.475 134.278C150.475 134.442 150.647 134.575 150.859 134.575Z" fill="#B56F35" stroke="#B56F35" stroke-width="0.5" stroke-miterlimit="3.86" stroke-linecap="round"/>
<path d="M228.435 133.39C228.435 133.538 228.307 133.686 228.05 133.686C227.794 133.686 227.666 133.538 227.666 133.39" fill="#B56F35"/>
<path d="M228.435 133.39C228.435 133.538 228.307 133.686 228.05 133.686C227.794 133.686 227.666 133.538 227.666 133.39" stroke="#B56F35" stroke-width="0.5" stroke-miterlimit="3.86" stroke-linecap="round"/>
<path d="M148.426 128.647C148.709 128.647 148.938 128.448 148.938 128.203C148.938 127.957 148.709 127.758 148.426 127.758C148.142 127.758 147.913 127.957 147.913 128.203C147.913 128.448 148.142 128.647 148.426 128.647Z" fill="#B56F35"/>
<path d="M149.58 129.24C149.863 129.24 150.092 129.041 150.092 128.796C150.092 128.55 149.863 128.351 149.58 128.351C149.297 128.351 149.067 128.55 149.067 128.796C149.067 129.041 149.297 129.24 149.58 129.24Z" fill="#B56F35"/>
<path d="M151.887 126.87C152.17 126.87 152.4 126.671 152.4 126.425C152.4 126.18 152.17 125.981 151.887 125.981C151.604 125.981 151.375 126.18 151.375 126.425C151.375 126.671 151.604 126.87 151.887 126.87Z" fill="#B56F35"/>
<path d="M152.654 129.092C152.937 129.092 153.166 128.893 153.166 128.648C153.166 128.402 152.937 128.203 152.654 128.203C152.371 128.203 152.142 128.402 152.142 128.648C152.142 128.893 152.371 129.092 152.654 129.092Z" fill="#B56F35"/>
<path d="M153.553 129.684C153.836 129.684 154.065 129.485 154.065 129.24C154.065 128.994 153.836 128.795 153.553 128.795C153.27 128.795 153.041 128.994 153.041 129.24C153.041 129.485 153.27 129.684 153.553 129.684Z" fill="#B56F35"/>
<path d="M153.553 129.684C153.836 129.684 154.065 129.485 154.065 129.24C154.065 128.994 153.836 128.795 153.553 128.795C153.27 128.795 153.041 128.994 153.041 129.24C153.041 129.485 153.27 129.684 153.553 129.684Z" fill="#B56F35"/>
<path d="M203.318 132.098C203.523 132.033 203.659 131.853 203.622 131.695C203.584 131.537 203.388 131.461 203.183 131.526C202.979 131.59 202.843 131.771 202.88 131.928C202.917 132.086 203.113 132.162 203.318 132.098Z" fill="#B56F35" stroke="#B56F35" stroke-miterlimit="3.86" stroke-linecap="round"/>
<path d="M205.225 131.908C205.225 132.056 205.097 132.204 204.969 132.352C204.841 132.5 204.585 132.352 204.457 132.204" fill="#B56F35"/>
<path d="M205.225 131.908C205.225 132.056 205.097 132.204 204.969 132.352C204.841 132.5 204.585 132.352 204.457 132.204" stroke="#B56F35" stroke-miterlimit="3.86" stroke-linecap="round"/>
<path d="M202.591 134C202.864 133.914 203.04 133.652 202.985 133.415C202.929 133.178 202.662 133.056 202.389 133.142C202.116 133.228 201.94 133.49 201.996 133.727C202.052 133.964 202.318 134.086 202.591 134Z" fill="#B56F35"/>
<path d="M203.862 134.147C204.135 134.061 204.311 133.799 204.255 133.562C204.199 133.325 203.933 133.203 203.659 133.289C203.386 133.375 203.21 133.637 203.266 133.874C203.322 134.11 203.589 134.233 203.862 134.147Z" fill="#B56F35"/>
<path d="M154.196 133.537C154.479 133.537 154.708 133.338 154.708 133.093C154.708 132.847 154.479 132.648 154.196 132.648C153.913 132.648 153.683 132.847 153.683 133.093C153.683 133.338 153.913 133.537 154.196 133.537Z" fill="#B56F35"/>
<path d="M206.689 133.136C206.963 133.05 207.139 132.788 207.083 132.551C207.027 132.314 206.76 132.192 206.487 132.278C206.214 132.364 206.038 132.626 206.094 132.862C206.15 133.099 206.416 133.222 206.689 133.136Z" fill="#B56F35"/>
<path d="M207.71 133.412C207.983 133.326 208.16 133.064 208.104 132.827C208.048 132.59 207.781 132.468 207.508 132.554C207.235 132.64 207.059 132.902 207.115 133.139C207.171 133.376 207.437 133.498 207.71 133.412Z" fill="#B56F35"/>
<path d="M207.71 133.412C207.983 133.326 208.16 133.064 208.104 132.827C208.048 132.59 207.781 132.468 207.508 132.554C207.235 132.64 207.059 132.902 207.115 133.139C207.171 133.376 207.437 133.498 207.71 133.412Z" fill="#B56F35"/>
<path d="M170.737 127.462C170.737 127.61 170.609 127.758 170.353 127.758C170.096 127.758 169.968 127.61 169.968 127.462" fill="#B56F35"/>
<path d="M170.737 127.462C170.737 127.61 170.609 127.758 170.353 127.758C170.096 127.758 169.968 127.61 169.968 127.462" stroke="#B56F35" stroke-width="0.5" stroke-miterlimit="3.86" stroke-linecap="round"/>
<path d="M148.426 128.647C148.709 128.647 148.938 128.448 148.938 128.203C148.938 127.957 148.709 127.758 148.426 127.758C148.142 127.758 147.913 127.957 147.913 128.203C147.913 128.448 148.142 128.647 148.426 128.647Z" fill="#B56F35"/>
<path d="M149.58 129.24C149.863 129.24 150.092 129.041 150.092 128.796C150.092 128.55 149.863 128.351 149.58 128.351C149.297 128.351 149.067 128.55 149.067 128.796C149.067 129.041 149.297 129.24 149.58 129.24Z" fill="#B56F35"/>
<path d="M151.887 126.87C152.17 126.87 152.4 126.671 152.4 126.425C152.4 126.18 152.17 125.981 151.887 125.981C151.604 125.981 151.375 126.18 151.375 126.425C151.375 126.671 151.604 126.87 151.887 126.87Z" fill="#B56F35"/>
<path d="M152.654 129.092C152.937 129.092 153.166 128.893 153.166 128.648C153.166 128.402 152.937 128.203 152.654 128.203C152.371 128.203 152.142 128.402 152.142 128.648C152.142 128.893 152.371 129.092 152.654 129.092Z" fill="#B56F35"/>
<path d="M153.553 129.684C153.836 129.684 154.065 129.485 154.065 129.24C154.065 128.994 153.836 128.795 153.553 128.795C153.27 128.795 153.041 128.994 153.041 129.24C153.041 129.485 153.27 129.684 153.553 129.684Z" fill="#B56F35"/>
<path d="M153.553 129.684C153.836 129.684 154.065 129.485 154.065 129.24C154.065 128.994 153.836 128.795 153.553 128.795C153.27 128.795 153.041 128.994 153.041 129.24C153.041 129.485 153.27 129.684 153.553 129.684Z" fill="#B56F35"/>
<path d="M149.578 133.093C149.79 133.093 149.962 132.961 149.962 132.797C149.962 132.633 149.79 132.5 149.578 132.5C149.366 132.5 149.194 132.633 149.194 132.797C149.194 132.961 149.366 133.093 149.578 133.093Z" fill="#B56F35" stroke="#B56F35" stroke-width="0.5" stroke-miterlimit="3.86" stroke-linecap="round"/>
<path d="M148.939 133.39C148.939 133.538 148.81 133.686 148.554 133.686C148.298 133.686 148.17 133.538 148.17 133.39" fill="#B56F35"/>
<path d="M148.939 133.39C148.939 133.538 148.81 133.686 148.554 133.686C148.298 133.686 148.17 133.538 148.17 133.39" stroke="#B56F35" stroke-width="0.5" stroke-miterlimit="3.86" stroke-linecap="round"/>
<path d="M233.563 133.24C233.846 133.24 234.076 133.041 234.076 132.796C234.076 132.55 233.846 132.351 233.563 132.351C233.28 132.351 233.051 132.55 233.051 132.796C233.051 133.041 233.28 133.24 233.563 133.24Z" fill="#B56F35"/>
<path d="M234.72 133.834C235.003 133.834 235.233 133.635 235.233 133.39C235.233 133.144 235.003 132.945 234.72 132.945C234.437 132.945 234.208 133.144 234.208 133.39C234.208 133.635 234.437 133.834 234.72 133.834Z" fill="#B56F35"/>
<path d="M236.898 131.463C237.181 131.463 237.41 131.264 237.41 131.019C237.41 130.773 237.181 130.574 236.898 130.574C236.615 130.574 236.385 130.773 236.385 131.019C236.385 131.264 236.615 131.463 236.898 131.463Z" fill="#B56F35"/>
<path d="M237.798 133.686C238.081 133.686 238.31 133.487 238.31 133.241C238.31 132.996 238.081 132.797 237.798 132.797C237.515 132.797 237.285 132.996 237.285 133.241C237.285 133.487 237.515 133.686 237.798 133.686Z" fill="#B56F35"/>
<path d="M153.553 129.684C153.836 129.684 154.065 129.485 154.065 129.24C154.065 128.994 153.836 128.795 153.553 128.795C153.27 128.795 153.041 128.994 153.041 129.24C153.041 129.485 153.27 129.684 153.553 129.684Z" fill="#B56F35"/>
<path d="M238.567 134.279C238.85 134.279 239.079 134.08 239.079 133.834C239.079 133.589 238.85 133.39 238.567 133.39C238.284 133.39 238.054 133.589 238.054 133.834C238.054 134.08 238.284 134.279 238.567 134.279Z" fill="#B56F35"/>
<path d="M97.2663 134.129C97.5493 134.129 97.7788 133.93 97.7788 133.685C97.7788 133.439 97.5493 133.24 97.2663 133.24C96.9833 133.24 96.7539 133.439 96.7539 133.685C96.7539 133.93 96.9833 134.129 97.2663 134.129Z" fill="#B56F35"/>
<path d="M98.4155 134.723C98.6985 134.723 98.9279 134.524 98.9279 134.279C98.9279 134.033 98.6985 133.834 98.4155 133.834C98.1325 133.834 97.9031 134.033 97.9031 134.279C97.9031 134.524 98.1325 134.723 98.4155 134.723Z" fill="#B56F35"/>
<path d="M100.598 132.352C100.881 132.352 101.111 132.153 101.111 131.907C101.111 131.662 100.881 131.463 100.598 131.463C100.315 131.463 100.086 131.662 100.086 131.907C100.086 132.153 100.315 132.352 100.598 132.352Z" fill="#B56F35"/>
<path d="M101.495 134.575C101.778 134.575 102.008 134.376 102.008 134.13C102.008 133.885 101.778 133.686 101.495 133.686C101.212 133.686 100.983 133.885 100.983 134.13C100.983 134.376 101.212 134.575 101.495 134.575Z" fill="#B56F35"/>
<path d="M102.264 135.167C102.547 135.167 102.777 134.968 102.777 134.722C102.777 134.477 102.547 134.278 102.264 134.278C101.981 134.278 101.752 134.477 101.752 134.722C101.752 134.968 101.981 135.167 102.264 135.167Z" fill="#B56F35"/>
<path d="M112.78 135.612C113.063 135.612 113.292 135.413 113.292 135.167C113.292 134.922 113.063 134.723 112.78 134.723C112.497 134.723 112.268 134.922 112.268 135.167C112.268 135.413 112.497 135.612 112.78 135.612Z" fill="#B56F35"/>
<path d="M109.316 134.575C109.599 134.575 109.828 134.376 109.828 134.13C109.828 133.885 109.599 133.686 109.316 133.686C109.033 133.686 108.803 133.885 108.803 134.13C108.803 134.376 109.033 134.575 109.316 134.575Z" fill="#B56F35"/>
<path d="M102.137 131.908C102.42 131.908 102.649 131.709 102.649 131.463C102.649 131.218 102.42 131.019 102.137 131.019C101.854 131.019 101.624 131.218 101.624 131.463C101.624 131.709 101.854 131.908 102.137 131.908Z" fill="#B56F35"/>
<path d="M113.42 134.575C113.703 134.575 113.932 134.376 113.932 134.13C113.932 133.885 113.703 133.686 113.42 133.686C113.137 133.686 112.907 133.885 112.907 134.13C112.907 134.376 113.137 134.575 113.42 134.575Z" fill="#B56F35"/>
<path d="M114.316 134.723C114.599 134.723 114.828 134.524 114.828 134.279C114.828 134.033 114.599 133.834 114.316 133.834C114.033 133.834 113.803 134.033 113.803 134.279C113.803 134.524 114.033 134.723 114.316 134.723Z" fill="#B56F35"/>
<path d="M180.225 121.24C180.225 121.24 180.097 121.536 179.969 121.536C179.841 121.536 179.713 121.24 179.713 121.092C179.52 119.37 179.52 117.627 179.713 115.906C179.841 114.054 179.328 112.942 180.097 111.164C180.225 111.016 180.225 110.868 180.353 110.72V111.461C180.569 114.718 180.526 117.992 180.225 121.24Z" fill="#5B9635" stroke="#4F7536" stroke-width="0.3" stroke-miterlimit="3.86"/>
<path d="M183.222 121.072C183.222 121.072 183.093 121.369 182.965 121.369C182.837 121.369 182.709 120.924 182.709 120.924C182.654 118.742 182.782 116.558 183.093 114.405C183.35 111.886 182.837 110.552 183.863 108.33C183.991 108.033 183.991 107.885 184.119 107.737V108.774C183.943 110.274 183.686 120.054 183.222 121.072Z" fill="#5B9635" stroke="#4F7536" stroke-width="0.3" stroke-miterlimit="3.86"/>
<path d="M179.326 124.202C179.326 124.35 179.326 124.647 179.198 124.647C179.07 124.647 178.813 124.202 178.813 124.054C178.23 121.073 177.802 118.055 177.531 115.015C177.146 111.459 176.377 109.978 176.633 106.57C176.663 106.32 176.706 106.072 176.762 105.829C176.812 106.281 176.898 106.728 177.018 107.162C177.274 108.94 179.582 122.424 179.326 124.202Z" fill="#5B9635" stroke="#4F7536" stroke-width="0.3" stroke-miterlimit="3.86"/>
<path d="M122.527 123.759L122.398 123.907C122.27 123.907 122.27 123.759 122.142 123.61C122.014 122.479 122.014 121.334 122.142 120.202C122.27 118.869 121.758 118.35 122.398 117.091C122.398 116.943 122.527 116.943 122.527 116.794V117.239C122.655 118.276 122.911 123.314 122.527 123.759Z" fill="#5B9635" stroke="#4F7536" stroke-width="0.3" stroke-miterlimit="3.86"/>
<path d="M124.703 124.203L124.575 124.351C124.447 124.351 124.447 124.055 124.319 124.055C124.276 122.665 124.362 121.274 124.575 119.906C124.703 118.276 124.447 117.387 125.087 116.053C125.16 115.976 125.206 115.871 125.215 115.757V116.35C125.299 118.981 125.127 121.615 124.703 124.203Z" fill="#5B9635" stroke="#4F7536" stroke-width="0.3" stroke-miterlimit="3.86"/>
<path d="M121.883 125.536C121.883 125.536 121.883 125.833 121.755 125.833C121.627 125.833 121.499 125.536 121.499 125.388C121.114 124.351 120.729 120.498 120.473 119.313C120.217 116.942 119.575 115.757 119.832 113.757C119.832 113.608 119.832 113.312 119.96 113.312C120.025 113.604 120.068 113.901 120.088 114.201C120.859 117.94 121.458 121.724 121.883 125.536Z" fill="#5B9635" stroke="#4F7536" stroke-width="0.3" stroke-miterlimit="3.86"/>
<path d="M123.678 127.017C123.961 127.017 124.19 126.818 124.19 126.573C124.19 126.327 123.961 126.128 123.678 126.128C123.395 126.128 123.165 126.327 123.165 126.573C123.165 126.818 123.395 127.017 123.678 127.017Z" fill="#B56F35"/>
<path d="M127.521 125.98C127.804 125.98 128.034 125.781 128.034 125.536C128.034 125.29 127.804 125.091 127.521 125.091C127.238 125.091 127.009 125.29 127.009 125.536C127.009 125.781 127.238 125.98 127.521 125.98Z" fill="#B56F35"/>
<path d="M122.908 125.98C123.191 125.98 123.421 125.781 123.421 125.536C123.421 125.29 123.191 125.091 122.908 125.091C122.625 125.091 122.396 125.29 122.396 125.536C122.396 125.781 122.625 125.98 122.908 125.98Z" fill="#B56F35"/>
<path d="M122.011 126.129C122.294 126.129 122.524 125.93 122.524 125.684C122.524 125.439 122.294 125.24 122.011 125.24C121.728 125.24 121.499 125.439 121.499 125.684C121.499 125.93 121.728 126.129 122.011 126.129Z" fill="#B56F35"/>
<path d="M228.436 128.351C228.436 128.351 228.565 128.648 228.693 128.648C228.821 128.648 228.949 128.351 228.949 128.203C229.141 126.482 229.141 124.739 228.949 123.017C228.821 121.165 229.333 120.054 228.565 118.276C228.436 118.127 228.436 117.979 228.308 117.831V118.572C228.308 119.905 228.1 127.462 228.436 128.351Z" fill="#5B9635" stroke="#4F7536" stroke-width="0.3" stroke-miterlimit="3.86"/>
<path d="M225.617 128.351C225.617 128.351 225.745 128.647 225.873 128.647C226.001 128.647 226.13 128.203 226.13 128.203C226.185 126.02 226.056 123.837 225.745 121.683C225.489 119.164 226.001 117.83 224.976 115.608C224.847 115.311 224.847 115.163 224.719 115.015V116.052C224.719 117.367 225.104 127.165 225.617 128.351Z" fill="#5B9635" stroke="#4F7536" stroke-width="0.3" stroke-miterlimit="3.86"/>
<path d="M229.335 131.315C229.335 131.464 229.335 131.76 229.463 131.76C229.591 131.76 229.848 131.315 229.848 131.167C230.431 128.187 230.859 125.168 231.13 122.129C231.515 118.573 232.284 117.091 232.028 113.683C231.998 113.433 231.955 113.186 231.899 112.942C231.849 113.394 231.763 113.841 231.643 114.275C231.387 116.202 229.207 129.537 229.335 131.315Z" fill="#5B9635" stroke="#4F7536" stroke-width="0.3" stroke-miterlimit="3.86"/>
<path d="M224.46 129.537L224.588 129.685C224.716 129.685 224.716 129.389 224.716 129.389C224.69 128.1 224.604 126.814 224.46 125.536C224.332 124.054 224.588 123.314 223.947 121.98C223.875 121.903 223.829 121.797 223.819 121.684V122.276C223.947 123.017 224.204 128.796 224.46 129.537Z" fill="#5B9635" stroke="#4F7536" stroke-width="0.3" stroke-miterlimit="3.86"/>
<path d="M222.541 129.685L222.669 129.833C222.797 129.833 222.797 129.537 222.797 129.389C222.709 127.74 222.495 126.104 222.156 124.499C222.174 122.923 221.912 121.36 221.386 119.905C221.337 119.847 221.3 119.777 221.278 119.7C221.256 119.623 221.249 119.541 221.258 119.461C221.25 119.716 221.294 119.97 221.386 120.202C221.564 123.392 221.95 126.562 222.541 129.685Z" fill="#5B9635" stroke="#4F7536" stroke-width="0.3" stroke-miterlimit="3.86"/>
<path d="M225.232 131.759C225.232 131.907 225.232 132.056 225.36 132.056C225.488 132.056 225.617 131.759 225.617 131.611C225.885 129.303 226.013 126.976 226.001 124.647C226.299 122.491 226.342 120.297 226.129 118.127C226.129 117.831 226.001 117.683 226.001 117.535C226.006 117.886 225.962 118.236 225.873 118.572C225.873 120.054 225.104 130.426 225.232 131.759Z" fill="#5B9635" stroke="#4F7536" stroke-width="0.3" stroke-miterlimit="3.86"/>
<path d="M226.897 131.759C227.18 131.759 227.41 131.627 227.41 131.463C227.41 131.299 227.18 131.167 226.897 131.167C226.614 131.167 226.385 131.299 226.385 131.463C226.385 131.627 226.614 131.759 226.897 131.759Z" fill="#B56F35"/>
<path d="M225.743 132.204C226.026 132.204 226.256 132.071 226.256 131.907C226.256 131.744 226.026 131.611 225.743 131.611C225.46 131.611 225.231 131.744 225.231 131.907C225.231 132.071 225.46 132.204 225.743 132.204Z" fill="#B56F35"/>
<path d="M223.562 130.278C223.845 130.278 224.075 130.145 224.075 129.981C224.075 129.818 223.845 129.685 223.562 129.685C223.279 129.685 223.05 129.818 223.05 129.981C223.05 130.145 223.279 130.278 223.562 130.278Z" fill="#B56F35"/>
<path d="M222.664 132.056C222.947 132.056 223.176 131.923 223.176 131.759C223.176 131.596 222.947 131.463 222.664 131.463C222.381 131.463 222.151 131.596 222.151 131.759C222.151 131.923 222.381 132.056 222.664 132.056Z" fill="#B56F35"/>
<path d="M221.769 132.5C222.052 132.5 222.282 132.368 222.282 132.204C222.282 132.04 222.052 131.908 221.769 131.908C221.486 131.908 221.257 132.04 221.257 132.204C221.257 132.368 221.486 132.5 221.769 132.5Z" fill="#B56F35"/>
<defs>
<filter id="filter0_d" x="74.5625" y="147.737" width="185.073" height="49.7187" filterUnits="userSpaceOnUse" color-interpolation-filters="sRGB">
<feFlood flood-opacity="0" result="BackgroundImageFix"/>
<feColorMatrix in="SourceAlpha" type="matrix" values="0 0 0 0 0 0 0 0 0 0 0 0 0 0 0 0 0 0 127 0"/>
<feOffset dy="4"/>
<feGaussianBlur stdDeviation="2"/>
<feColorMatrix type="matrix" values="0 0 0 0 0 0 0 0 0 0 0 0 0 0 0 0 0 0 0.25 0"/>
<feBlend mode="normal" in2="BackgroundImageFix" result="effect1_dropShadow"/>
<feBlend mode="normal" in="SourceGraphic" in2="effect1_dropShadow" result="shape"/>
</filter>
</defs>
</svg>
