<svg width="189" height="176" viewBox="0 0 189 176" fill="none" xmlns="http://www.w3.org/2000/svg">
<g filter="url(#filter0_d)">
<rect x="6.05103" y="125.927" width="177.073" height="41.7187" rx="10" fill="#7C8294"/>
<path d="M33.1038 144.534L32.8338 145.956C32.1858 144.93 31.0518 144.426 29.5578 144.426C26.4798 144.426 24.1398 146.766 24.1398 150.042C24.1398 152.706 26.0118 154.272 28.3698 154.272C29.6298 154.272 30.6918 153.876 31.5018 153.156L31.3038 154.146H33.4458L35.3538 144.534H33.1038ZM28.9458 152.346C27.3258 152.346 26.4078 151.428 26.4078 149.934C26.4078 147.81 27.8118 146.334 29.7198 146.334C31.3398 146.334 32.2578 147.252 32.2578 148.746C32.2578 150.87 30.8538 152.346 28.9458 152.346ZM36.3896 154.146H38.6396L41.3036 140.79H39.0536L36.3896 154.146ZM51.6547 148.638C51.6547 146.01 49.8907 144.426 47.2267 144.426C44.0047 144.426 41.6827 146.784 41.6827 150.042C41.6827 152.598 43.5187 154.272 46.4167 154.272C47.8927 154.272 49.3507 153.84 50.3587 152.94L49.4227 151.374C48.7567 152.004 47.7487 152.364 46.6507 152.364C44.7967 152.364 43.9147 151.536 43.8787 150.006H51.5107C51.6007 149.592 51.6547 149.124 51.6547 148.638ZM47.1187 146.226C48.6127 146.226 49.6027 147.036 49.5847 148.512H44.0767C44.4907 147.108 45.5887 146.226 47.1187 146.226ZM66.5253 144.426C64.9773 144.426 63.6993 144.966 62.7273 146.01C62.2053 144.966 61.1253 144.426 59.7393 144.426C58.5333 144.426 57.4353 144.786 56.5893 145.578L56.7873 144.534H54.6453L52.7373 154.146H54.9873L55.9953 149.16C56.3733 147.27 57.3993 146.388 58.9473 146.388C60.1893 146.388 60.7833 147 60.7833 148.116C60.7833 148.35 60.7653 148.602 60.7113 148.872L59.6493 154.146H61.8993L62.9073 149.142C63.2853 147.27 64.3113 146.388 65.8593 146.388C67.1013 146.388 67.6953 147 67.6953 148.116C67.6953 148.35 67.6773 148.602 67.6233 148.872L66.5613 154.146H68.8113L69.8733 148.818C69.9633 148.386 69.9993 147.99 69.9993 147.63C69.9993 145.542 68.6493 144.426 66.5253 144.426ZM80.8284 144.534L80.5584 145.956C79.9104 144.93 78.7764 144.426 77.2824 144.426C74.2044 144.426 71.8644 146.766 71.8644 150.042C71.8644 152.706 73.7364 154.272 76.0944 154.272C77.3544 154.272 78.4164 153.876 79.2264 153.156L79.0284 154.146H81.1704L83.0784 144.534H80.8284ZM76.6704 152.346C75.0504 152.346 74.1324 151.428 74.1324 149.934C74.1324 147.81 75.5364 146.334 77.4444 146.334C79.0644 146.334 79.9824 147.252 79.9824 148.746C79.9824 150.87 78.5784 152.346 76.6704 152.346ZM91.2602 144.426C89.9822 144.426 88.8302 144.804 87.9482 145.596L88.1642 144.534H86.0222L84.1142 154.146H86.3642L87.3722 149.16C87.7502 147.288 88.8842 146.388 90.5222 146.388C91.8362 146.388 92.4482 147.018 92.4482 148.134C92.4482 148.35 92.4302 148.602 92.3762 148.872L91.3322 154.146H93.5822L94.6442 148.818C94.7162 148.404 94.7702 148.026 94.7702 147.666C94.7702 145.56 93.3842 144.426 91.2602 144.426ZM104.937 144.534L100.491 151.662L98.8707 144.534H96.6207L98.8887 154.11L98.5827 154.578C97.9707 155.532 97.4487 155.892 96.6927 155.892C96.0267 155.892 95.5047 155.64 95.1087 155.28L93.9927 156.918C94.5327 157.44 95.5587 157.764 96.5127 157.764C98.1867 157.764 99.2307 157.098 100.563 154.992L107.187 144.534H104.937ZM117.852 142.482C118.338 142.482 118.734 142.626 119.04 142.878L119.958 141.24C119.454 140.862 118.68 140.664 117.852 140.664C115.692 140.664 114.396 141.906 113.982 143.922L113.838 144.606H112.272L111.912 146.406H113.478L111.93 154.146H114.18L115.728 146.406H118.302L118.662 144.606H116.034L116.142 144.084C116.376 143.004 116.898 142.482 117.852 142.482ZM127.199 144.534L126.929 145.956C126.281 144.93 125.147 144.426 123.653 144.426C120.575 144.426 118.235 146.766 118.235 150.042C118.235 152.706 120.107 154.272 122.465 154.272C123.725 154.272 124.787 153.876 125.597 153.156L125.399 154.146H127.541L129.449 144.534H127.199ZM123.041 152.346C121.421 152.346 120.503 151.428 120.503 149.934C120.503 147.81 121.907 146.334 123.815 146.334C125.435 146.334 126.353 147.252 126.353 148.746C126.353 150.87 124.949 152.346 123.041 152.346ZM134.283 145.776L134.535 144.534H132.393L130.485 154.146H132.735L133.689 149.412C134.085 147.414 135.255 146.514 137.019 146.514C137.235 146.514 137.379 146.532 137.577 146.568L137.991 144.426C136.371 144.426 135.165 144.768 134.283 145.776ZM151.744 144.426C150.196 144.426 148.918 144.966 147.946 146.01C147.424 144.966 146.344 144.426 144.958 144.426C143.752 144.426 142.654 144.786 141.808 145.578L142.006 144.534H139.864L137.956 154.146H140.206L141.214 149.16C141.592 147.27 142.618 146.388 144.166 146.388C145.408 146.388 146.002 147 146.002 148.116C146.002 148.35 145.984 148.602 145.93 148.872L144.868 154.146H147.118L148.126 149.142C148.504 147.27 149.53 146.388 151.078 146.388C152.32 146.388 152.914 147 152.914 148.116C152.914 148.35 152.896 148.602 152.842 148.872L151.78 154.146H154.03L155.092 148.818C155.182 148.386 155.218 147.99 155.218 147.63C155.218 145.542 153.868 144.426 151.744 144.426ZM160.181 154.272C162.881 154.272 164.789 153.138 164.789 151.032C164.789 147.828 159.587 149.07 159.587 147.414C159.587 146.748 160.289 146.244 161.747 146.244C162.683 146.244 163.745 146.442 164.591 146.982L165.419 145.254C164.609 144.732 163.259 144.426 161.963 144.426C159.227 144.426 157.391 145.65 157.391 147.666C157.391 150.924 162.593 149.7 162.593 151.284C162.593 152.004 161.891 152.436 160.415 152.436C159.137 152.436 157.841 152.058 157.067 151.5L156.131 153.228C156.923 153.822 158.507 154.272 160.181 154.272Z" fill="white"/>
</g>
<path d="M98.4341 108.523C93.2828 107.387 88.3352 105.252 83.8006 102.207C80.2744 99.5218 79.473 97.7067 76.7483 97.2251C71.6514 96.299 68.9908 101.689 62.9482 104.449C53.3315 108.875 38.9064 104.893 32.4952 96.8547C27.3823 90.4277 31.0847 86.0195 24.6255 77.481C20.33 71.8134 17.7335 72.4802 13.6464 66.6088C10.008 61.3672 5.74459 51.7915 9.12648 47.7167C13.438 42.5862 27.1579 50.4949 31.213 45.0125C33.1523 42.4195 30.636 39.845 32.2868 35.159C34.1621 29.8248 39.9161 25.8982 44.997 24.7313C56.5852 21.8975 61.2974 33.5106 74.6005 31.1028C77.6298 30.5656 81.0117 29.2506 85.7239 30.473C88.6556 31.3219 91.4087 32.8465 93.818 34.9553C103.948 42.1046 120.873 36.3073 123.165 35.5294C126.116 34.4439 128.955 32.9841 131.628 31.1768C137.462 27.028 136.436 22.8051 140.411 21.4344C143.937 20.2305 147.656 22.5643 150.525 24.3794C152.072 25.3293 153.528 26.4654 154.868 27.7688C157.766 30.6281 160.354 33.8805 162.578 37.4557C169.245 47.6611 177.195 44.7532 179.471 51.4766C181.747 58.2 174.038 62.4414 168.781 79.7962C164.261 94.6136 167.178 100.874 162.546 104.3C156.006 109.19 149.467 96.9843 134.577 97.0399C118.132 97.0584 112.314 111.876 98.4341 108.523Z" fill="#EADAC3"/>
<path opacity="0.8" d="M43.9876 100.763L43.8595 100.911C43.7928 100.907 43.7299 100.874 43.6826 100.819C43.6354 100.765 43.6071 100.692 43.6033 100.615C43.4752 99.4837 43.4752 98.338 43.6033 97.2069C43.7314 95.8733 43.219 95.3547 43.8595 94.0952C43.9876 93.947 43.9876 93.947 43.9876 93.7988V94.2434C44.1803 96.4109 44.1803 98.5955 43.9876 100.763Z" fill="#5B9635" stroke="#4F7536" stroke-width="0.3" stroke-miterlimit="3.86"/>
<path opacity="0.8" d="M46.2941 100.762L46.166 100.91C46.0379 100.91 46.0379 100.614 45.9098 100.614C45.8534 99.1672 45.9829 97.719 46.2941 96.3166C46.1807 94.94 46.4026 93.5542 46.9347 92.3159C47.0075 92.2388 47.0531 92.1332 47.0628 92.0195V92.6122C46.8066 93.705 46.5984 100.021 46.2941 100.762Z" fill="#5B9635" stroke="#4F7536" stroke-width="0.3" stroke-miterlimit="3.86"/>
<path opacity="0.8" d="M43.2152 102.688C43.2152 102.688 43.2152 102.985 43.087 102.985C42.9587 102.985 42.8305 102.688 42.8305 102.54C42.3411 100.603 41.9979 98.6195 41.8047 96.6134C41.2779 94.8277 41.0601 92.9397 41.1636 91.0569C41.1636 90.9087 41.1636 90.6123 41.2918 90.6123C41.3566 90.9038 41.3995 91.2013 41.4201 91.5014C42.2062 95.1869 42.8056 98.9223 43.2152 102.688Z" fill="#5B9635" stroke="#4F7536" stroke-width="0.3" stroke-miterlimit="3.86"/>
<path opacity="0.9" d="M48.0914 99.8728L47.9633 100.021C47.8966 100.017 47.8336 99.9839 47.7864 99.9293C47.7391 99.8746 47.7109 99.8018 47.7071 99.7247C47.5789 98.5935 47.5789 97.4478 47.7071 96.3167C47.8352 94.9831 47.3228 94.4645 47.9633 93.205C48.0914 93.0569 48.0914 93.0569 48.0914 92.9087V93.3532C48.284 95.5207 48.284 97.7053 48.0914 99.8728Z" fill="#5B9635" stroke="#4F7536" stroke-width="0.3" stroke-miterlimit="3.86"/>
<path opacity="0.9" d="M50.2657 99.8741L50.1376 100.022C50.0095 100.022 50.0095 99.7259 49.8814 99.7259C49.825 98.2795 49.9545 96.8313 50.2657 95.4289C50.1522 94.0523 50.3741 92.6665 50.9062 91.4282C50.9791 91.3511 51.0247 91.2455 51.0344 91.1318V91.7245C50.919 94.4564 50.6623 97.1777 50.2657 99.8741Z" fill="#5B9635" stroke="#4F7536" stroke-width="0.3" stroke-miterlimit="3.86"/>
<path opacity="0.9" d="M47.3216 101.799C47.3216 101.799 47.3216 102.095 47.1934 102.095C47.0652 102.095 46.937 101.799 46.937 101.651C46.4476 99.7129 46.1044 97.7298 45.9112 95.7237C45.3844 93.938 45.1665 92.05 45.2701 90.1672C45.2701 90.019 45.2701 89.7227 45.3983 89.7227C45.463 90.0142 45.5059 90.3116 45.5265 90.6117C46.3127 94.2972 46.9121 98.0326 47.3216 101.799Z" fill="#5B9635" stroke="#4F7536" stroke-width="0.3" stroke-miterlimit="3.86"/>
<path opacity="0.8" d="M120.023 96.1692C120.023 96.1692 119.895 96.4656 119.766 96.4656C119.638 96.4656 119.51 96.1693 119.51 96.0211C119.318 94.2995 119.318 92.5566 119.51 90.835C119.638 88.9829 119.126 87.8716 119.895 86.0935C120.023 85.9453 120.023 85.7971 120.151 85.6489V86.3898C120.151 87.7233 120.407 95.2802 120.023 96.1692Z" fill="#5B9635" stroke="#4F7536" stroke-width="0.3" stroke-miterlimit="3.86"/>
<path opacity="0.8" d="M122.841 96.1691C122.841 96.1691 122.713 96.4654 122.585 96.4654C122.456 96.4654 122.328 96.0209 122.328 96.0209C122.273 93.8384 122.402 91.655 122.713 89.5013C122.969 86.9824 122.456 85.6488 123.482 83.4262C123.61 83.1299 123.61 82.9817 123.739 82.8335V83.8707C123.61 85.2043 123.354 94.9837 122.841 96.1691Z" fill="#5B9635" stroke="#4F7536" stroke-width="0.3" stroke-miterlimit="3.86"/>
<path opacity="0.8" d="M119.123 99.1332C119.123 99.2814 119.123 99.5778 118.995 99.5778C118.867 99.5778 118.61 99.1333 118.61 98.9851C118.027 96.0044 117.599 92.9862 117.328 89.9465C116.943 86.3903 116.174 84.9086 116.43 81.5006C116.46 81.251 116.503 81.0036 116.558 80.7598C116.609 81.2124 116.695 81.6587 116.815 82.0933C117.119 84.0196 119.251 97.4107 119.123 99.1332Z" fill="#5B9635" stroke="#4F7536" stroke-width="0.3" stroke-miterlimit="3.86"/>
<path opacity="0.9" d="M125.135 94.8352C125.135 94.8352 125.006 95.1316 124.878 95.1316C124.75 95.1316 124.622 94.8353 124.622 94.6871C124.43 92.9655 124.43 91.2226 124.622 89.501C124.75 87.6489 124.238 86.5376 125.006 84.7595C125.135 84.6113 125.135 84.4631 125.263 84.3149V85.0558C125.479 88.3133 125.437 91.5869 125.135 94.8352Z" fill="#5B9635" stroke="#4F7536" stroke-width="0.3" stroke-miterlimit="3.86"/>
<path opacity="0.9" d="M128.099 94.8356C128.099 94.8356 127.971 95.1319 127.843 95.1319C127.714 95.1319 127.586 94.6874 127.586 94.6874C127.531 92.5049 127.66 90.3215 127.971 88.1678C128.227 85.6489 127.714 84.3153 128.74 82.0927C128.868 81.7964 128.868 81.6482 128.997 81.5V82.5928C128.868 83.8708 128.484 93.7058 128.099 94.8356Z" fill="#5B9635" stroke="#4F7536" stroke-width="0.3" stroke-miterlimit="3.86"/>
<path opacity="0.9" d="M124.253 97.7988C124.253 97.9469 124.253 98.2433 124.125 98.2433C123.997 98.2433 123.74 97.7988 123.74 97.6506C123.158 94.67 122.729 91.6517 122.458 88.612C122.074 85.0559 121.304 83.5741 121.561 80.1661C121.591 79.9165 121.634 79.6691 121.689 79.4253C121.739 79.8779 121.825 80.3242 121.945 80.7589C122.202 82.6851 124.382 96.0207 124.253 97.7988Z" fill="#5B9635" stroke="#4F7536" stroke-width="0.3" stroke-miterlimit="3.86"/>
<path opacity="0.8" d="M88.9937 58.9778C89.122 61.0523 89.5066 62.3858 88.8655 63.2749C87.968 64.4603 86.814 63.4231 85.2753 64.6084C83.7366 65.7938 84.3777 67.1274 82.5826 69.4981C82.013 70.3844 81.2647 71.0965 80.4028 71.5726C78.8 72.3134 77.7101 71.2762 75.1456 70.8317C73.7352 70.6835 70.9143 70.239 69.1191 72.0171C67.324 73.7952 67.9651 76.4623 66.17 77.2032C64.7596 77.7959 63.7338 76.3141 61.3616 76.9068C60.0794 77.2032 59.4383 77.944 59.1819 77.7959C58.7972 77.3514 60.2076 75.2769 62.2592 71.4244C64.5672 66.9792 64.1825 66.9792 64.9519 66.0902C67.6446 63.2749 70.4655 65.3493 72.6453 62.6822C74.5686 60.4596 73.1582 58.237 74.9533 56.1626C76.7484 54.0881 79.0564 55.2735 83.5443 54.5326C85.898 54.0535 88.1843 53.206 90.3401 52.0137C89.2606 54.11 88.7889 56.55 88.9937 58.9778Z" fill="#61A03D" stroke="#61A03D" stroke-miterlimit="3.86"/>
<path opacity="0.8" d="M74.2457 42.6777C73.607 44.4317 73.3431 46.3376 73.4764 48.2342C73.7328 50.0864 74.2457 50.605 74.5021 52.6794C74.6304 54.3093 74.8868 56.5319 73.7328 58.0137C72.3223 59.8659 70.2708 58.6064 68.9244 60.5326C68.2833 61.4216 68.5397 62.0143 68.0269 63.6442C67.2575 66.3114 65.7188 67.0522 64.4366 68.9785C61.6157 73.1273 62.8338 78.0171 62.0004 78.2393C61.1669 78.4616 58.5383 73.3496 59.4359 68.6081C60.077 65.3483 61.8721 64.0147 61.8721 60.014C61.8721 57.9396 61.3592 57.7914 61.6157 56.1615C61.8721 54.5316 62.5132 52.6053 65.9753 49.1973C68.5674 46.7576 71.3342 44.5765 74.2457 42.6777Z" fill="#729959" stroke="#729959" stroke-width="0.5" stroke-miterlimit="3.86"/>
<path opacity="0.8" d="M60.5295 78.8884C61.5552 78.1476 61.1706 74.4432 60.273 72.2206C59.5144 70.8082 58.6567 69.4701 57.7085 68.2199C55.4005 64.8119 55.1441 64.5156 55.1441 63.9229C54.7594 61.2558 56.7469 59.7741 56.1699 58.3664C55.4005 56.7365 52.1949 58.5146 50.2716 56.292C49.1176 54.9584 49.8869 53.7731 48.6688 52.2913C48.0277 51.5505 47.066 50.9577 42.0012 50.8096C40.3984 50.8096 38.2827 50.8096 35.7183 50.9578C37.4849 52.4718 39.0979 54.2115 40.5266 56.1438C41.2134 56.8966 41.7589 57.8044 42.1294 58.8109C42.7705 60.6631 42.2576 61.6262 42.7705 63.5525C43.1907 64.9527 43.9467 66.1861 44.9503 67.1087C46.3169 68.5294 47.8764 69.6808 49.5664 70.5167C56.218 73.4987 58.8626 79.8701 60.5295 78.8884Z" fill="#5B9635" stroke="#5B9635" stroke-width="0.5" stroke-miterlimit="3.86"/>
<path opacity="0.8" d="M84.7601 69.9423C83.8357 70.3352 83.002 70.969 82.3239 71.7945C81.0416 73.2762 81.2981 74.4616 80.4005 76.2397C79.2465 78.6104 76.6821 80.9812 74.6305 80.5367C73.3483 80.2404 73.4765 78.9068 71.6813 77.8696C70.1091 76.9006 68.2826 76.6367 66.5524 77.1287C64.2444 77.7214 63.3468 78.3141 63.2186 78.0177C62.8339 77.5732 64.5008 74.9061 67.8346 72.4612C69.3639 71.3283 71.0582 70.5251 72.8353 70.0904C76.7425 68.9369 80.8324 68.8861 84.7601 69.9423Z" fill="#729959" stroke="#729959" stroke-width="0.5" stroke-miterlimit="3.86"/>
<path opacity="0.8" d="M61.5559 102.837C61.8124 103.874 62.1971 103.429 62.3253 102.54C63.4793 97.9469 62.7099 75.5728 62.1971 75.5728C61.6842 75.5728 60.6584 98.9842 61.5559 102.837Z" fill="#5B9635" stroke="#4F7536" stroke-width="0.3" stroke-miterlimit="3.86"/>
<path opacity="0.8" d="M90.6578 51.4213C84.1184 61.3489 78.733 65.0532 75.0146 66.535C71.9335 67.5152 69.0842 69.2882 66.68 71.7211C65.0719 73.317 63.6878 75.1914 62.5769 77.2776C62.3801 75.5564 62.3801 73.8127 62.5769 72.0915C62.97 68.8956 63.7469 65.7786 64.8849 62.8306C65.1399 62.2334 65.3542 61.6141 65.526 60.9785C66.0389 59.3486 66.2954 58.015 66.4236 57.5705V57.4223C66.68 56.3851 68.7316 52.2363 74.4375 42.605" stroke="#4F7536" stroke-width="0.3" stroke-miterlimit="3.86"/>
<path opacity="0.8" d="M84.3738 69.9424C80.7211 70.4527 77.116 71.3454 73.603 72.6095C73.603 72.6095 67.0636 74.4617 63.7298 77.3511C63.6129 77.4681 63.4836 77.5676 63.3451 77.6474L63.2169 77.7956" stroke="#4F7536" stroke-width="0.3" stroke-miterlimit="3.86"/>
<path opacity="0.8" d="M62.8355 101.947C62.9638 102.243 63.3484 102.836 63.7331 102.688C64.1178 102.54 64.1178 101.947 64.246 101.799C64.5024 99.9467 63.3484 83.7217 62.8355 76.6094C62.4509 85.2034 61.938 100.465 62.8355 101.947Z" fill="#5B9635" stroke="#4F7536" stroke-width="0.3" stroke-miterlimit="3.86"/>
<path opacity="0.8" d="M60.4012 78.5366C60.054 78.084 59.7529 77.5869 59.5037 77.0549C59.0233 76.173 58.6359 75.2278 58.3497 74.2396C57.5803 71.7206 54.7594 68.9053 52.0667 66.0901C48.8611 62.9784 48.22 62.9784 47.2584 61.0522C45.8479 58.6814 46.1043 57.3478 45.2068 55.4957C44.181 53.4212 41.7448 51.3468 35.7183 50.606" stroke="#4F7536" stroke-width="0.3" stroke-miterlimit="3.86"/>
<path opacity="0.8" d="M60.9118 78.092C60.9118 77.7957 60.5271 77.7957 59.5013 77.0548C57.3215 75.2027 57.4497 73.9432 56.1675 73.2023C54.1159 72.1651 52.449 75.0544 50.3975 73.9431C49.2434 73.3505 49.7563 72.3133 48.4741 71.2761C46.679 69.7943 44.7556 71.276 42.5758 69.7943C41.6417 69.2348 40.8802 68.3549 40.396 67.2754C39.7549 72.1651 40.6525 74.2395 41.6783 75.2767C43.7298 77.3511 47.1919 76.0176 49.1152 78.981C49.8846 80.1664 49.4999 80.6109 50.2692 81.3518C52.8337 84.3153 61.024 79.8701 60.9118 78.092Z" fill="#6AA842" stroke="#61A03D" stroke-width="0.5" stroke-miterlimit="3.86"/>
<path opacity="0.8" d="M60.9128 78.0924C56.2967 79.1296 53.2194 78.3888 51.5525 77.3516C50.1876 76.4133 48.7745 75.5721 47.3211 74.8326C45.9775 74.4016 44.6854 73.7794 43.4744 72.9804C42.0093 71.4422 40.9812 69.4277 40.5253 67.2017" stroke="#4F7536" stroke-width="0.3" stroke-miterlimit="3.86"/>
<path opacity="0.9" d="M131.82 100.466C132.077 101.8 132.589 101.207 132.846 100.022C134.256 94.4651 133.872 66.3862 133.231 66.3862C132.589 66.3862 130.794 95.5579 131.82 100.466Z" fill="#5B9635" stroke="#4F7536" stroke-width="0.3" stroke-miterlimit="3.86"/>
<path opacity="0.9" d="M167.721 45.6418C167.85 48.1607 168.491 49.7906 167.593 51.1983C166.696 52.6059 164.9 51.3465 163.105 52.8282C161.31 54.3099 161.951 55.9398 159.643 58.9033C158.899 59.9412 157.984 60.7975 156.951 61.4223C154.899 62.3113 153.617 60.9777 150.411 60.5332C148.616 60.2369 145.154 59.7924 142.846 62.015C140.538 64.2376 141.243 67.5715 139.256 68.5346C137.461 69.2755 136.307 67.3492 133.229 68.0901C131.626 68.5346 130.793 69.4236 130.537 69.1273C130.024 68.5346 131.819 66.0156 134.383 61.1259C137.332 55.5694 136.82 55.5694 137.845 54.4581C141.307 50.9019 144.641 53.5691 147.462 50.3093C149.898 47.494 147.975 44.7528 150.411 42.1597C152.847 39.5667 155.54 41.1225 161.054 40.0853C163.998 39.5676 166.854 38.5175 169.517 36.9736C168.29 39.6395 167.672 42.6229 167.721 45.6418Z" fill="#61A03D" stroke="#61A03D" stroke-miterlimit="3.86"/>
<path opacity="0.9" d="M149.385 25.4902C148.527 27.6687 148.216 30.0816 148.487 32.4543C148.744 34.8251 149.513 35.4178 149.769 38.0109C150.026 40.0853 150.282 42.9006 148.872 44.6787C147.269 46.9013 144.64 45.4195 142.845 47.7903C142.076 48.9757 142.332 49.6425 141.82 51.791C140.794 55.199 138.999 55.9399 137.332 58.4588C133.87 63.6449 135.408 69.8681 134.254 70.0163C133.1 70.1645 129.895 63.9412 131.049 57.8661C131.818 53.7172 134.126 52.0874 134.126 47.1976C134.126 44.6787 133.485 44.3823 133.741 42.456C133.998 40.5298 134.895 38.0108 139.127 33.7138C142.186 30.4173 145.641 27.6477 149.385 25.4902Z" fill="#729959" stroke="#729959" stroke-width="0.5" stroke-miterlimit="3.86"/>
<path opacity="0.9" d="M132.207 70.5348C133.617 69.6457 133.105 64.9783 131.822 62.2371C130.876 60.4581 129.804 58.773 128.617 57.1992C125.668 52.9022 125.539 52.6058 125.411 51.6427C124.898 48.2347 127.463 46.4566 126.693 44.6785C125.668 42.6041 121.693 44.9749 119.256 42.1596C117.654 40.5297 118.744 38.8998 117.205 37.1217C116.436 36.2327 115.153 35.2695 108.87 35.2695C106.947 35.2695 104.254 35.2695 101.049 35.4177C103.29 37.3386 105.353 39.5236 107.203 41.9373C108.07 42.9105 108.767 44.0676 109.255 45.3453C110.024 47.7161 109.383 48.9015 110.024 51.1241C110.571 52.852 111.499 54.3845 112.717 55.5693C114.37 57.4001 116.335 58.813 118.487 59.7181C126.822 63.867 130.284 71.8683 132.207 70.5348Z" fill="#5B9635" stroke="#5B9635" stroke-width="0.5" stroke-miterlimit="3.86"/>
<path opacity="0.9" d="M162.592 59.4222C161.42 59.9244 160.366 60.7362 159.514 61.793C157.912 63.6451 158.232 65.2009 157.078 67.3495C155.475 70.3129 152.27 73.2764 149.898 72.6837C148.295 72.2392 148.487 70.8316 146.179 69.2757C144.195 68.1344 141.93 67.8203 139.768 68.3867C136.819 69.1275 135.793 69.8684 135.537 69.5721C135.28 69.2757 137.139 65.7196 141.307 62.6079C143.236 61.2048 145.362 60.2019 147.59 59.6444C152.498 58.1397 157.652 58.0633 162.592 59.4222Z" fill="#729959" stroke="#729959" stroke-width="0.5" stroke-miterlimit="3.86"/>
<path opacity="0.9" d="M133.485 100.466C133.742 101.652 134.254 101.207 134.511 100.022C135.921 94.2429 135.024 66.3862 134.383 66.3862C133.742 66.3862 132.331 95.7246 133.485 100.466Z" fill="#5B9635" stroke="#4F7536" stroke-width="0.3" stroke-miterlimit="3.86"/>
<path opacity="0.9" d="M169.904 36.2883C161.89 48.7349 155.03 53.3283 150.286 55.1064C146.448 56.3621 142.9 58.5892 139.9 61.626C137.872 63.6499 136.103 65.9944 134.642 68.5901C134.446 66.4229 134.446 64.2378 134.642 62.0705C135.197 58.1366 136.188 54.3018 137.592 50.6612C137.72 50.3648 137.976 49.4758 138.361 48.4385C138.782 47.0331 139.125 45.5978 139.387 44.1415V43.9934C139.643 42.6598 142.208 37.4737 149.26 25.4717" stroke="#4F7536" stroke-width="0.3" stroke-miterlimit="3.86"/>
<path opacity="0.9" d="M162.001 59.4219C157.431 60.0708 152.923 61.2117 148.537 62.8299C148.537 62.8299 140.331 65.0525 136.228 68.7568C136.065 68.8591 135.932 69.0134 135.843 69.2013L135.715 69.3495" stroke="#4F7536" stroke-width="0.3" stroke-miterlimit="3.86"/>
<path opacity="0.9" d="M135.15 99.5767C135.279 99.873 135.792 100.614 136.176 100.466C136.561 100.318 136.689 99.5767 136.689 99.2803C137.074 97.0577 135.535 76.6098 134.894 67.7935C134.637 78.536 133.996 97.6504 135.15 99.5767Z" fill="#5B9635" stroke="#4F7536" stroke-width="0.3" stroke-miterlimit="3.86"/>
<path opacity="0.9" d="M132.202 70.2388C131.946 69.7943 131.433 69.2016 131.048 68.3867C130.446 67.2773 129.972 66.0818 129.638 64.8305C128.74 61.7189 125.15 58.0145 121.624 54.7547C117.649 50.754 116.815 50.754 115.469 48.3833C113.674 45.2716 114.059 43.7899 112.905 41.5673C111.622 39.0483 108.545 36.3812 100.98 35.4922" stroke="#4F7536" stroke-width="0.3" stroke-miterlimit="3.86"/>
<path opacity="0.9" d="M132.717 69.627C132.717 69.1824 132.204 69.1824 131.114 68.2934C128.293 66.0708 128.55 64.2927 127.011 63.5519C124.447 62.2183 122.203 65.9226 119.831 64.5891C118.42 63.8482 119.061 62.5146 117.394 61.1811C115.086 59.3289 112.778 61.0329 110.086 59.3289C108.948 58.6128 108.013 57.5324 107.393 56.2173C106.495 62.2924 107.649 64.9595 108.996 66.2931C111.56 68.9602 115.792 67.1821 118.228 70.8864C119.125 72.3682 118.741 72.9609 119.638 73.8499C122.716 77.4987 132.973 71.8681 132.717 69.627Z" fill="#6AA842" stroke="#61A03D" stroke-width="0.5" stroke-miterlimit="3.86"/>
<path opacity="0.9" d="M132.713 69.6271C126.943 70.9607 123.097 69.9235 121.045 68.7381C119.366 67.5426 117.608 66.5022 115.788 65.6264C113.223 64.4411 112.326 64.5893 110.98 63.4039C109.171 61.4989 107.879 59.0281 107.261 56.2915" stroke="#4F7536" stroke-width="0.3" stroke-miterlimit="3.86"/>
<path d="M58.2165 100.615C58.9858 99.1332 59.627 97.3551 60.5245 97.3551C61.4221 97.3551 61.935 98.8368 62.7043 98.5404C63.4737 98.2441 63.3455 97.0587 63.9866 96.1696C65.1406 94.8361 66.2946 97.0587 68.9873 96.9106C70.5901 96.9106 70.7824 96.0215 71.9364 96.466C73.1003 96.9028 74.1264 97.7276 74.8855 98.8368C76.6807 100.911 76.6807 101.948 77.8347 102.245C78.9887 102.541 78.9887 101.652 80.1427 101.948C81.1837 102.348 82.084 103.128 82.7072 104.171C83.22 104.912 83.6047 105.653 83.8612 106.023C79.6298 106.32 75.2702 106.468 70.7824 106.616C64.8841 106.764 59.1141 106.616 53.6005 106.32C55.4964 104.851 57.0756 102.899 58.2165 100.615Z" fill="#B56F35" stroke="#B56F35" stroke-width="2" stroke-miterlimit="3.86"/>
<path d="M95.1481 95.1322C94.7634 96.7621 94.2506 96.0213 93.8659 94.6877C92.0707 87.5754 92.5836 52.6064 93.4812 52.6064C94.3788 52.6064 96.4304 89.0571 95.1481 95.1322Z" fill="#5B9635" stroke="#4F7536" stroke-width="0.3" stroke-miterlimit="3.86"/>
<path d="M50.1393 26.6759C50.0111 29.7876 49.2417 31.862 50.3958 33.4919C51.678 35.344 53.7296 33.7882 56.0376 35.5663C58.3456 37.3444 57.448 39.4188 60.269 43.1232C61.1287 44.4761 62.2773 45.5482 63.6028 46.2348C66.1672 47.4202 67.8341 45.6421 71.6167 45.1976C73.7965 44.9012 78.1561 44.3086 81.1053 47.0498C84.0544 49.791 82.9004 54.0139 85.5931 55.1993C87.7729 56.2365 89.3116 53.7176 93.03 54.6066C95.0816 55.1993 96.1074 56.4588 96.3638 55.9401C97.005 55.1993 94.761 52.0877 91.5555 46.0126C87.837 39.0484 88.6063 39.0484 87.3241 37.7148C83.0927 33.4178 78.7331 36.5295 75.3993 32.5288C72.4502 28.9726 74.63 25.5646 71.8091 22.3048C68.9881 19.045 65.5261 20.9713 58.4738 19.6377C54.7885 18.9319 51.2064 17.6352 47.8313 15.7852C49.4535 19.1007 50.2522 22.8694 50.1393 26.6759Z" fill="#61A03D" stroke="#61A03D" stroke-miterlimit="3.86"/>
<path d="M73.0927 1.33838C74.1286 4.0346 74.5269 7.00019 74.2467 9.93241C73.862 12.8959 72.9645 13.6367 72.6439 17.0447C72.3875 19.5637 72.0028 23.1199 73.7979 25.3425C75.9777 28.1577 79.1833 26.2315 81.2349 29.195C82.2607 30.6767 81.7478 31.5657 82.6453 34.0847C83.9276 38.3817 86.2356 39.4189 88.2871 42.3824C92.6467 48.902 90.7234 56.607 92.1339 56.7552C93.5443 56.9034 97.5192 49.1984 96.237 41.6416C95.3394 36.4555 92.3903 34.5292 92.3903 28.3059C92.3903 25.0461 93.1596 24.8979 92.9032 22.2308C92.6467 19.5637 91.4927 16.6743 86.1073 11.266C82.0511 7.48767 77.6933 4.16354 73.0927 1.33838Z" fill="#729959" stroke="#729959" stroke-width="0.5" stroke-miterlimit="3.86"/>
<path d="M94.6832 57.644C93.0804 56.4586 93.6574 50.828 95.1961 47.1237C96.4127 44.9218 97.7851 42.8402 99.2993 40.9004C102.89 35.5661 103.274 35.1216 103.402 34.0844C104.044 29.9356 100.838 27.5648 101.8 25.4904C103.082 22.9714 108.083 25.7867 111.032 22.3787C112.827 20.3043 111.673 18.378 113.468 16.1554C114.494 14.9701 116.032 13.9328 123.854 13.7847C126.29 13.7847 129.624 13.7847 133.599 14.081C130.79 16.4715 128.21 19.2037 125.906 22.2305C124.874 23.4228 124.047 24.8307 123.469 26.3794C122.444 29.3429 123.341 30.8246 122.572 33.6399C121.917 35.8073 120.765 37.7281 119.238 39.1964C117.149 41.4332 114.713 43.1928 112.057 44.3825C101.431 49.3463 97.0714 59.4221 94.6832 57.644Z" fill="#5B9635" stroke="#5B9635" stroke-width="0.5" stroke-miterlimit="3.86"/>
<path d="M56.6786 43.8634C58.1438 44.4899 59.4613 45.5049 60.5253 46.8269C62.4487 49.1976 62.1281 50.9757 63.6027 53.791C65.526 57.4954 69.5009 61.1997 72.5783 60.4588C74.6299 59.8661 74.3734 57.9399 77.3867 56.1618C79.8627 54.7218 82.6905 54.3035 85.4006 54.9764C88.9909 55.8654 90.209 56.8286 90.6578 56.4582C91.1066 56.0877 88.6062 51.7166 83.4773 47.7159C81.0365 45.8981 78.3156 44.6404 75.4633 44.0116C69.2931 42.3107 62.8683 42.26 56.6786 43.8634Z" fill="#729959" stroke="#729959" stroke-width="0.5" stroke-miterlimit="3.86"/>
<path d="M92.9684 95.1319C92.5837 96.7618 92.0708 96.021 91.6861 94.5393C90.0833 87.4269 91.045 52.458 91.9426 52.458C92.8401 52.458 94.5071 89.205 92.9684 95.1319Z" fill="#5B9635" stroke="#4F7536" stroke-width="0.3" stroke-miterlimit="3.86"/>
<path d="M47.4462 14.9701C57.5758 30.5283 66.0386 36.1589 71.9368 38.5297C76.7228 40.1386 81.1736 42.8615 85.0156 46.531C87.5508 49.0631 89.7537 52.0081 91.555 55.2733C91.8164 52.5651 91.8164 49.8319 91.555 47.1237C90.8785 42.1619 89.6278 37.3276 87.8365 32.7509C87.7083 32.3064 87.3236 31.4174 86.939 29.9356C86.1696 27.2685 85.785 25.1941 85.6567 24.6014V24.4532C85.4003 22.601 82.0665 16.3036 73.3473 1.18994" stroke="#4F7536" stroke-width="0.3" stroke-miterlimit="3.86"/>
<path d="M57.3202 43.8643C63.0079 44.7149 68.6258 46.1025 74.1174 48.0131C74.1174 48.0131 84.3753 50.6802 89.5042 55.4218L90.0171 56.0145L90.1454 56.1627" stroke="#4F7536" stroke-width="0.3" stroke-miterlimit="3.86"/>
<path d="M90.66 93.7065C90.5317 94.0029 90.4035 94.5956 90.1471 94.5956C89.8906 94.5956 89.506 93.5583 89.3777 93.1138C88.4802 89.854 89.506 77.4075 89.6342 73.4068C89.8906 65.7017 88.4802 62.1456 90.7882 55.0332C91.0446 54.2924 91.1728 53.8478 91.3011 53.4033V56.3668C91.3011 60.7564 91.6857 90.0948 90.66 93.7065Z" fill="#5B9635" stroke="#4F7536" stroke-width="0.3" stroke-miterlimit="3.86"/>
<path d="M94.682 57.3475C95.2328 56.6797 95.7069 55.9327 96.0925 55.1249C96.8544 53.7389 97.4577 52.2447 97.8876 50.6797C99.0416 46.8271 103.529 42.2338 107.761 38.0849C112.761 33.1952 113.659 33.1952 115.454 30.2318C117.634 26.3793 117.249 24.453 118.66 21.7859C120.263 18.6742 124.045 15.2662 133.534 14.229" stroke="#4F7536" stroke-width="0.3" stroke-miterlimit="3.86"/>
<path d="M72.4517 100.022C74.0545 97.6509 75.1444 95.132 77.0677 94.9838C78.9911 94.8356 80.2733 97.2064 81.8761 96.6137C83.2866 96.1692 82.9019 94.2429 84.4406 93.0575C86.7486 91.2053 89.4413 94.2429 95.2113 94.0947C98.6734 93.9465 98.9298 92.7612 101.751 93.2057C104.184 93.7683 106.469 94.9867 108.418 96.7618C112.522 99.7253 112.778 101.355 115.214 101.8C117.65 102.244 117.65 100.911 120.343 101.355C122.513 101.859 124.54 102.98 126.241 104.615C128.165 106.245 129.191 106.986 129.062 107.579C128.806 109.949 115.342 108.912 100.853 109.06C78.7988 109.357 63.989 112.32 63.5402 109.357C63.0914 107.43 67.9639 106.838 72.4517 100.022Z" fill="#D57D28" stroke="#D57D28" stroke-width="2" stroke-miterlimit="3.86"/>
<path d="M94.1204 56.6626C94.2486 56.07 94.7615 56.07 96.3002 54.8105C99.7622 52.1434 99.5058 49.9207 101.429 48.8835C104.635 47.2536 107.327 51.847 110.405 50.0689C112.2 49.0317 111.431 47.55 113.354 45.9201C116.303 43.5493 119.124 45.7719 122.586 43.6975C124.04 42.7628 125.239 41.3771 126.048 39.6968C127.074 47.4018 125.663 50.6616 124.125 52.2916C120.919 55.5514 115.534 53.4769 112.585 57.8481C111.431 59.7002 111.943 60.367 110.982 61.5524C106.558 66.3866 93.7357 59.4224 94.1204 56.6626Z" fill="#6AA842" stroke="#61A03D" stroke-width="0.5" stroke-miterlimit="3.86"/>
<path d="M94.1227 56.6616C101.303 58.5138 106.047 57.1061 108.74 55.4762C110.839 53.9722 113.024 52.6356 115.28 51.4755C118.485 49.9938 119.511 50.142 121.306 48.8084C123.525 46.3542 125.178 43.2981 126.114 39.918" stroke="#4F7536" stroke-width="0.3" stroke-miterlimit="3.86"/>
<path d="M95.1478 98.0958C95.7889 96.9105 97.584 93.3543 99.9561 93.3543C102.008 93.3543 102.905 95.8732 104.765 95.4287C106.175 94.9842 105.919 93.2061 107.457 92.0207C109.893 90.1686 112.266 93.6506 118.228 93.8729C121.69 94.0211 122.075 92.8357 124.767 93.5765C127.146 94.3129 129.341 95.6831 131.179 97.5772C135.025 100.837 135.282 102.467 137.59 103.134C139.898 103.801 140.154 102.393 142.719 102.986C144.876 103.655 146.857 104.927 148.489 106.69C149.643 107.875 150.54 109.061 151.181 109.802C142.078 109.357 132.589 109.061 122.972 109.061C107.714 108.913 92.968 109.357 78.8634 110.246C88.7366 106.245 93.0802 101.8 95.1478 98.0958Z" fill="#D68A4C" stroke="#D68A4C" stroke-width="2" stroke-miterlimit="3.86"/>
<path d="M37.0615 103.577C38.2155 101.725 39.1131 99.7248 40.5236 99.5767C41.934 99.4285 42.8316 101.429 44.1138 100.91C45.1396 100.466 45.0114 99.058 46.0372 98.0949C47.8323 96.465 49.7556 99.1321 54.0511 98.984C56.6156 98.984 56.872 97.9467 58.8595 98.3913C60.6207 98.9134 62.2619 99.8742 63.6679 101.207C66.617 103.725 66.8735 104.911 68.6686 105.355C70.4637 105.8 70.4637 104.615 72.5153 105.059C74.1307 105.537 75.6249 106.451 76.8749 107.726C77.3878 108.319 78.1571 109.06 78.9264 110.097C72.1306 110.541 65.0783 110.69 57.8978 110.838C48.2811 110.986 39.049 110.986 30.0734 110.69C31.6097 109.602 33.0299 108.309 34.3047 106.837C35.295 105.834 36.2167 104.744 37.0615 103.577Z" fill="#D68A4C" stroke="#D68A4C" stroke-width="2" stroke-miterlimit="3.86"/>
<path d="M130.278 103.281C131.176 101.8 131.881 99.8732 133.099 99.8732C134.317 99.8732 134.894 101.503 135.92 101.207C136.946 100.91 136.69 99.5769 137.523 98.6878C138.933 97.3543 140.344 99.7251 143.806 99.5769C145.858 99.5769 145.986 98.6878 147.653 99.1324C149.064 99.6525 150.342 100.569 151.371 101.799C153.679 104.022 153.807 105.207 155.09 105.504C156.372 105.8 156.5 104.911 158.039 105.207C159.313 105.64 160.464 106.458 161.373 107.578C161.993 108.23 162.532 108.978 162.975 109.801C157.59 109.949 152.076 110.097 146.435 110.097C138.869 110.097 131.689 109.801 124.637 109.356C126.926 107.906 128.865 105.818 130.278 103.281Z" fill="#D57D28" stroke="#D57D28" stroke-width="2" stroke-miterlimit="3.86"/>
<path d="M103.609 103.726C104.378 102.244 105.019 100.466 105.917 100.466C106.814 100.466 107.327 101.948 108.096 101.652C108.866 101.355 108.738 100.17 109.379 99.281C110.533 97.9474 111.687 100.17 114.379 100.022C115.982 100.022 116.174 99.1328 117.329 99.5773C118.492 100.014 119.518 100.839 120.278 101.948C122.073 104.023 122.073 105.06 123.227 105.356C124.381 105.652 124.381 104.763 125.535 105.06C126.576 105.459 127.476 106.239 128.099 107.282C128.612 108.023 128.997 108.764 129.253 109.134C125.022 109.431 120.662 109.579 116.174 109.727C110.276 109.875 104.506 109.727 98.9926 109.431C100.897 107.973 102.478 106.019 103.609 103.726Z" fill="#B56F35" stroke="#B56F35" stroke-width="2" stroke-miterlimit="3.86"/>
<path d="M67.7071 112.913C67.8484 112.913 67.9629 112.846 67.9629 112.765C67.9629 112.683 67.8484 112.617 67.7071 112.617C67.5658 112.617 67.4513 112.683 67.4513 112.765C67.4513 112.846 67.5658 112.913 67.7071 112.913Z" fill="#B56F35" stroke="#B56F35" stroke-width="0.5" stroke-miterlimit="3.86" stroke-linecap="round"/>
<path d="M70.1397 112.228C70.1359 112.305 70.1077 112.378 70.0604 112.432C70.0132 112.487 69.9502 112.519 69.8835 112.524C69.7554 112.524 69.4991 112.524 69.4991 112.376" fill="#B56F35"/>
<path d="M70.1397 112.228C70.1359 112.305 70.1077 112.378 70.0604 112.432C70.0132 112.487 69.9502 112.519 69.8835 112.524C69.7554 112.524 69.4991 112.524 69.4991 112.376" stroke="#B56F35" stroke-width="0.5" stroke-miterlimit="3.86" stroke-linecap="round"/>
<path d="M66.1702 110.246C66.4532 110.246 66.6827 110.047 66.6827 109.801C66.6827 109.556 66.4532 109.356 66.1702 109.356C65.8872 109.356 65.6578 109.556 65.6578 109.801C65.6578 110.047 65.8872 110.246 66.1702 110.246Z" fill="#B56F35"/>
<path d="M67.4491 110.838C67.7321 110.838 67.9615 110.639 67.9615 110.394C67.9615 110.148 67.7321 109.949 67.4491 109.949C67.1661 109.949 66.9366 110.148 66.9366 110.394C66.9366 110.639 67.1661 110.838 67.4491 110.838Z" fill="#B56F35"/>
<path d="M69.6317 108.468C69.9147 108.468 70.1441 108.269 70.1441 108.023C70.1441 107.778 69.9147 107.579 69.6317 107.579C69.3487 107.579 69.1193 107.778 69.1193 108.023C69.1193 108.269 69.3487 108.468 69.6317 108.468Z" fill="#B56F35"/>
<path d="M70.5289 110.69C70.8119 110.69 71.0413 110.491 71.0413 110.245C71.0413 110 70.8119 109.801 70.5289 109.801C70.2459 109.801 70.0165 110 70.0165 110.245C70.0165 110.491 70.2459 110.69 70.5289 110.69Z" fill="#B56F35"/>
<path d="M71.2982 111.283C71.5812 111.283 71.8106 111.084 71.8106 110.839C71.8106 110.593 71.5812 110.394 71.2982 110.394C71.0152 110.394 70.7858 110.593 70.7858 110.839C70.7858 111.084 71.0152 111.283 71.2982 111.283Z" fill="#B56F35"/>
<path d="M71.2982 111.283C71.5812 111.283 71.8106 111.084 71.8106 110.839C71.8106 110.593 71.5812 110.394 71.2982 110.394C71.0152 110.394 70.7858 110.593 70.7858 110.839C70.7858 111.084 71.0152 111.283 71.2982 111.283Z" fill="#B56F35"/>
<path d="M78.3481 112.765C78.5603 112.765 78.7324 112.632 78.7324 112.468C78.7324 112.305 78.5603 112.172 78.3481 112.172C78.1358 112.172 77.9637 112.305 77.9637 112.468C77.9637 112.632 78.1358 112.765 78.3481 112.765Z" fill="#B56F35" stroke="#B56F35" stroke-width="0.5" stroke-miterlimit="3.86" stroke-linecap="round"/>
<path d="M155.923 111.58C155.923 111.728 155.795 111.876 155.539 111.876C155.283 111.876 155.154 111.728 155.154 111.58" fill="#B56F35"/>
<path d="M155.923 111.58C155.923 111.728 155.795 111.876 155.539 111.876C155.283 111.876 155.154 111.728 155.154 111.58" stroke="#B56F35" stroke-width="0.5" stroke-miterlimit="3.86" stroke-linecap="round"/>
<path d="M75.9139 106.837C76.1969 106.837 76.4263 106.638 76.4263 106.393C76.4263 106.147 76.1969 105.948 75.9139 105.948C75.6309 105.948 75.4015 106.147 75.4015 106.393C75.4015 106.638 75.6309 106.837 75.9139 106.837Z" fill="#B56F35"/>
<path d="M77.0682 107.43C77.3512 107.43 77.5807 107.231 77.5807 106.986C77.5807 106.74 77.3512 106.541 77.0682 106.541C76.7852 106.541 76.5558 106.74 76.5558 106.986C76.5558 107.231 76.7852 107.43 77.0682 107.43Z" fill="#B56F35"/>
<path d="M79.3758 105.06C79.6588 105.06 79.8883 104.861 79.8883 104.615C79.8883 104.37 79.6588 104.171 79.3758 104.171C79.0928 104.171 78.8634 104.37 78.8634 104.615C78.8634 104.861 79.0928 105.06 79.3758 105.06Z" fill="#B56F35"/>
<path d="M80.1424 107.282C80.4254 107.282 80.6548 107.083 80.6548 106.838C80.6548 106.592 80.4254 106.393 80.1424 106.393C79.8594 106.393 79.63 106.592 79.63 106.838C79.63 107.083 79.8594 107.282 80.1424 107.282Z" fill="#B56F35"/>
<path d="M81.0416 107.874C81.3246 107.874 81.554 107.675 81.554 107.43C81.554 107.184 81.3246 106.985 81.0416 106.985C80.7586 106.985 80.5292 107.184 80.5292 107.43C80.5292 107.675 80.7586 107.874 81.0416 107.874Z" fill="#B56F35"/>
<path d="M81.0416 107.874C81.3246 107.874 81.554 107.675 81.554 107.43C81.554 107.184 81.3246 106.985 81.0416 106.985C80.7586 106.985 80.5292 107.184 80.5292 107.43C80.5292 107.675 80.7586 107.874 81.0416 107.874Z" fill="#B56F35"/>
<path d="M130.807 110.287C131.011 110.223 131.147 110.043 131.11 109.885C131.073 109.727 130.877 109.651 130.672 109.716C130.467 109.78 130.331 109.961 130.368 110.118C130.406 110.276 130.602 110.352 130.807 110.287Z" fill="#B56F35" stroke="#B56F35" stroke-miterlimit="3.86" stroke-linecap="round"/>
<path d="M132.714 110.098C132.714 110.246 132.586 110.394 132.458 110.542C132.33 110.69 132.073 110.542 131.945 110.394" fill="#B56F35"/>
<path d="M132.714 110.098C132.714 110.246 132.586 110.394 132.458 110.542C132.33 110.69 132.073 110.542 131.945 110.394" stroke="#B56F35" stroke-miterlimit="3.86" stroke-linecap="round"/>
<path d="M130.08 112.19C130.353 112.104 130.529 111.842 130.473 111.605C130.417 111.368 130.15 111.246 129.877 111.332C129.604 111.418 129.428 111.68 129.484 111.917C129.54 112.154 129.807 112.276 130.08 112.19Z" fill="#B56F35"/>
<path d="M131.35 112.337C131.623 112.251 131.8 111.989 131.744 111.752C131.688 111.515 131.421 111.393 131.148 111.479C130.875 111.565 130.699 111.827 130.755 112.064C130.811 112.3 131.077 112.423 131.35 112.337Z" fill="#B56F35"/>
<path d="M81.6839 111.727C81.9669 111.727 82.1964 111.528 82.1964 111.283C82.1964 111.037 81.9669 110.838 81.6839 110.838C81.4009 110.838 81.1715 111.037 81.1715 111.283C81.1715 111.528 81.4009 111.727 81.6839 111.727Z" fill="#B56F35"/>
<path d="M134.178 111.325C134.451 111.239 134.627 110.978 134.571 110.741C134.515 110.504 134.249 110.382 133.976 110.468C133.703 110.554 133.527 110.816 133.583 111.052C133.638 111.289 133.905 111.411 134.178 111.325Z" fill="#B56F35"/>
<path d="M135.199 111.602C135.472 111.516 135.648 111.254 135.592 111.017C135.536 110.78 135.27 110.658 134.997 110.744C134.724 110.83 134.548 111.092 134.603 111.329C134.659 111.566 134.926 111.688 135.199 111.602Z" fill="#B56F35"/>
<path d="M135.199 111.602C135.472 111.516 135.648 111.254 135.592 111.017C135.536 110.78 135.27 110.658 134.997 110.744C134.724 110.83 134.548 111.092 134.603 111.329C134.659 111.566 134.926 111.688 135.199 111.602Z" fill="#B56F35"/>
<path d="M98.2256 105.652C98.2256 105.8 98.0975 105.948 97.8412 105.948C97.585 105.948 97.4569 105.8 97.4569 105.652" fill="#B56F35"/>
<path d="M98.2256 105.652C98.2256 105.8 98.0975 105.948 97.8412 105.948C97.585 105.948 97.4569 105.8 97.4569 105.652" stroke="#B56F35" stroke-width="0.5" stroke-miterlimit="3.86" stroke-linecap="round"/>
<path d="M75.9139 106.837C76.1969 106.837 76.4263 106.638 76.4263 106.393C76.4263 106.147 76.1969 105.948 75.9139 105.948C75.6309 105.948 75.4015 106.147 75.4015 106.393C75.4015 106.638 75.6309 106.837 75.9139 106.837Z" fill="#B56F35"/>
<path d="M77.0682 107.43C77.3512 107.43 77.5807 107.231 77.5807 106.986C77.5807 106.74 77.3512 106.541 77.0682 106.541C76.7852 106.541 76.5558 106.74 76.5558 106.986C76.5558 107.231 76.7852 107.43 77.0682 107.43Z" fill="#B56F35"/>
<path d="M79.3758 105.06C79.6588 105.06 79.8883 104.861 79.8883 104.615C79.8883 104.37 79.6588 104.171 79.3758 104.171C79.0928 104.171 78.8634 104.37 78.8634 104.615C78.8634 104.861 79.0928 105.06 79.3758 105.06Z" fill="#B56F35"/>
<path d="M80.1424 107.282C80.4254 107.282 80.6548 107.083 80.6548 106.838C80.6548 106.592 80.4254 106.393 80.1424 106.393C79.8594 106.393 79.63 106.592 79.63 106.838C79.63 107.083 79.8594 107.282 80.1424 107.282Z" fill="#B56F35"/>
<path d="M81.0416 107.874C81.3246 107.874 81.554 107.675 81.554 107.43C81.554 107.184 81.3246 106.985 81.0416 106.985C80.7586 106.985 80.5292 107.184 80.5292 107.43C80.5292 107.675 80.7586 107.874 81.0416 107.874Z" fill="#B56F35"/>
<path d="M81.0416 107.874C81.3246 107.874 81.554 107.675 81.554 107.43C81.554 107.184 81.3246 106.985 81.0416 106.985C80.7586 106.985 80.5292 107.184 80.5292 107.43C80.5292 107.675 80.7586 107.874 81.0416 107.874Z" fill="#B56F35"/>
<path d="M77.0668 111.283C77.279 111.283 77.4511 111.15 77.4511 110.987C77.4511 110.823 77.279 110.69 77.0668 110.69C76.8545 110.69 76.6825 110.823 76.6825 110.987C76.6825 111.15 76.8545 111.283 77.0668 111.283Z" fill="#B56F35" stroke="#B56F35" stroke-width="0.5" stroke-miterlimit="3.86" stroke-linecap="round"/>
<path d="M76.4272 111.58C76.4272 111.728 76.2991 111.876 76.0429 111.876C75.7867 111.876 75.6586 111.728 75.6586 111.58" fill="#B56F35"/>
<path d="M76.4272 111.58C76.4272 111.728 76.2991 111.876 76.0429 111.876C75.7867 111.876 75.6586 111.728 75.6586 111.58" stroke="#B56F35" stroke-width="0.5" stroke-miterlimit="3.86" stroke-linecap="round"/>
<path d="M161.052 111.43C161.335 111.43 161.564 111.231 161.564 110.986C161.564 110.74 161.335 110.541 161.052 110.541C160.769 110.541 160.539 110.74 160.539 110.986C160.539 111.231 160.769 111.43 161.052 111.43Z" fill="#B56F35"/>
<path d="M162.209 112.024C162.492 112.024 162.721 111.825 162.721 111.58C162.721 111.334 162.492 111.135 162.209 111.135C161.926 111.135 161.696 111.334 161.696 111.58C161.696 111.825 161.926 112.024 162.209 112.024Z" fill="#B56F35"/>
<path d="M164.386 109.653C164.669 109.653 164.899 109.454 164.899 109.209C164.899 108.963 164.669 108.764 164.386 108.764C164.103 108.764 163.874 108.963 163.874 109.209C163.874 109.454 164.103 109.653 164.386 109.653Z" fill="#B56F35"/>
<path d="M165.286 111.876C165.569 111.876 165.798 111.677 165.798 111.431C165.798 111.186 165.569 110.987 165.286 110.987C165.003 110.987 164.774 111.186 164.774 111.431C164.774 111.677 165.003 111.876 165.286 111.876Z" fill="#B56F35"/>
<path d="M81.0416 107.874C81.3246 107.874 81.554 107.675 81.554 107.43C81.554 107.184 81.3246 106.985 81.0416 106.985C80.7586 106.985 80.5292 107.184 80.5292 107.43C80.5292 107.675 80.7586 107.874 81.0416 107.874Z" fill="#B56F35"/>
<path d="M166.055 112.469C166.338 112.469 166.568 112.27 166.568 112.024C166.568 111.779 166.338 111.58 166.055 111.58C165.772 111.58 165.543 111.779 165.543 112.024C165.543 112.27 165.772 112.469 166.055 112.469Z" fill="#B56F35"/>
<path d="M24.7548 112.319C25.0379 112.319 25.2673 112.12 25.2673 111.875C25.2673 111.629 25.0379 111.43 24.7548 111.43C24.4718 111.43 24.2424 111.629 24.2424 111.875C24.2424 112.12 24.4718 112.319 24.7548 112.319Z" fill="#B56F35"/>
<path d="M25.904 112.913C26.187 112.913 26.4164 112.714 26.4164 112.468C26.4164 112.223 26.187 112.024 25.904 112.024C25.621 112.024 25.3916 112.223 25.3916 112.468C25.3916 112.714 25.621 112.913 25.904 112.913Z" fill="#B56F35"/>
<path d="M28.0866 110.541C28.3696 110.541 28.5991 110.342 28.5991 110.097C28.5991 109.851 28.3696 109.652 28.0866 109.652C27.8036 109.652 27.5742 109.851 27.5742 110.097C27.5742 110.342 27.8036 110.541 28.0866 110.541Z" fill="#B56F35"/>
<path d="M28.9837 112.765C29.2667 112.765 29.4962 112.565 29.4962 112.32C29.4962 112.074 29.2667 111.875 28.9837 111.875C28.7007 111.875 28.4713 112.074 28.4713 112.32C28.4713 112.565 28.7007 112.765 28.9837 112.765Z" fill="#B56F35"/>
<path d="M29.7529 113.357C30.0359 113.357 30.2653 113.158 30.2653 112.912C30.2653 112.667 30.0359 112.468 29.7529 112.468C29.4699 112.468 29.2405 112.667 29.2405 112.912C29.2405 113.158 29.4699 113.357 29.7529 113.357Z" fill="#B56F35"/>
<path d="M40.2684 113.802C40.5514 113.802 40.7808 113.603 40.7808 113.357C40.7808 113.112 40.5514 112.913 40.2684 112.913C39.9854 112.913 39.756 113.112 39.756 113.357C39.756 113.603 39.9854 113.802 40.2684 113.802Z" fill="#B56F35"/>
<path d="M36.8044 112.765C37.0874 112.765 37.3168 112.565 37.3168 112.32C37.3168 112.074 37.0874 111.875 36.8044 111.875C36.5214 111.875 36.292 112.074 36.292 112.32C36.292 112.565 36.5214 112.765 36.8044 112.765Z" fill="#B56F35"/>
<path d="M29.6252 110.098C29.9082 110.098 30.1376 109.898 30.1376 109.653C30.1376 109.407 29.9082 109.208 29.6252 109.208C29.3422 109.208 29.1128 109.407 29.1128 109.653C29.1128 109.898 29.3422 110.098 29.6252 110.098Z" fill="#B56F35"/>
<path d="M40.9082 112.765C41.1912 112.765 41.4206 112.565 41.4206 112.32C41.4206 112.074 41.1912 111.875 40.9082 111.875C40.6252 111.875 40.3958 112.074 40.3958 112.32C40.3958 112.565 40.6252 112.765 40.9082 112.765Z" fill="#B56F35"/>
<path d="M41.8044 112.913C42.0874 112.913 42.3168 112.714 42.3168 112.468C42.3168 112.223 42.0874 112.024 41.8044 112.024C41.5214 112.024 41.292 112.223 41.292 112.468C41.292 112.714 41.5214 112.913 41.8044 112.913Z" fill="#B56F35"/>
<path d="M107.713 99.43C107.713 99.43 107.585 99.7263 107.457 99.7263C107.329 99.7263 107.201 99.43 107.201 99.2818C107.009 97.5603 107.009 95.8173 107.201 94.0957C107.329 92.2435 106.817 91.1323 107.585 89.3542C107.713 89.206 107.713 89.0578 107.841 88.9097V89.6505C108.057 92.908 108.014 96.1815 107.713 99.43Z" fill="#5B9635" stroke="#4F7536" stroke-width="0.3" stroke-miterlimit="3.86"/>
<path d="M110.71 99.2624C110.71 99.2624 110.582 99.5587 110.454 99.5587C110.326 99.5587 110.197 99.1142 110.197 99.1142C110.142 96.9318 110.271 94.7482 110.582 92.5946C110.838 90.0756 110.326 88.7421 111.351 86.5195C111.48 86.2231 111.48 86.0749 111.608 85.9268V86.964C111.431 88.4642 111.175 98.2437 110.71 99.2624Z" fill="#5B9635" stroke="#4F7536" stroke-width="0.3" stroke-miterlimit="3.86"/>
<path d="M106.814 102.392C106.814 102.54 106.814 102.837 106.686 102.837C106.558 102.837 106.301 102.392 106.301 102.244C105.719 99.2632 105.291 96.245 105.019 93.2053C104.635 89.6492 103.865 88.1675 104.122 84.7595C104.152 84.5098 104.195 84.2624 104.25 84.0186C104.3 84.4711 104.386 84.9175 104.506 85.3521C104.763 87.1302 107.071 100.614 106.814 102.392Z" fill="#5B9635" stroke="#4F7536" stroke-width="0.3" stroke-miterlimit="3.86"/>
<path d="M50.0151 101.949L49.887 102.097C49.7589 102.097 49.7589 101.949 49.6308 101.8C49.5026 100.669 49.5026 99.5235 49.6308 98.3924C49.7589 97.0588 49.2465 96.5402 49.887 95.2807C49.887 95.1326 50.0151 95.1325 50.0151 94.9844V95.4289C50.1432 96.4661 50.3994 101.504 50.0151 101.949Z" fill="#5B9635" stroke="#4F7536" stroke-width="0.3" stroke-miterlimit="3.86"/>
<path d="M52.1914 102.393L52.0633 102.541C51.9352 102.541 51.9352 102.244 51.8071 102.244C51.7648 100.855 51.8507 99.4641 52.0633 98.0956C52.1914 96.4657 51.9352 95.5767 52.5757 94.2431C52.6486 94.166 52.6942 94.0605 52.7039 93.9468V94.5395C52.7876 97.1711 52.6158 99.8053 52.1914 102.393Z" fill="#5B9635" stroke="#4F7536" stroke-width="0.3" stroke-miterlimit="3.86"/>
<path d="M49.3721 103.726C49.3721 103.726 49.3721 104.023 49.2439 104.023C49.1156 104.023 48.9874 103.726 48.9874 103.578C48.6028 102.541 48.2181 98.6883 47.9617 97.503C47.7052 95.1322 47.0641 93.9468 47.3205 91.9465C47.3205 91.7983 47.3205 91.502 47.4488 91.502C47.5135 91.7935 47.5564 92.091 47.577 92.391C48.3476 96.1303 48.9468 99.914 49.3721 103.726Z" fill="#5B9635" stroke="#4F7536" stroke-width="0.3" stroke-miterlimit="3.86"/>
<path d="M51.1662 105.207C51.4492 105.207 51.6786 105.008 51.6786 104.763C51.6786 104.517 51.4492 104.318 51.1662 104.318C50.8832 104.318 50.6538 104.517 50.6538 104.763C50.6538 105.008 50.8832 105.207 51.1662 105.207Z" fill="#B56F35"/>
<path d="M55.0099 104.17C55.2929 104.17 55.5223 103.971 55.5223 103.726C55.5223 103.48 55.2929 103.281 55.0099 103.281C54.7269 103.281 54.4974 103.48 54.4974 103.726C54.4974 103.971 54.7269 104.17 55.0099 104.17Z" fill="#B56F35"/>
<path d="M50.3971 104.17C50.6801 104.17 50.9095 103.971 50.9095 103.726C50.9095 103.48 50.6801 103.281 50.3971 103.281C50.1141 103.281 49.8846 103.48 49.8846 103.726C49.8846 103.971 50.1141 104.17 50.3971 104.17Z" fill="#B56F35"/>
<path d="M49.4998 104.319C49.7828 104.319 50.0123 104.12 50.0123 103.874C50.0123 103.629 49.7828 103.43 49.4998 103.43C49.2168 103.43 48.9874 103.629 48.9874 103.874C48.9874 104.12 49.2168 104.319 49.4998 104.319Z" fill="#B56F35"/>
<path d="M155.925 106.541C155.925 106.541 156.053 106.838 156.181 106.838C156.309 106.838 156.438 106.541 156.438 106.393C156.63 104.672 156.63 102.929 156.438 101.207C156.309 99.3549 156.822 98.2436 156.053 96.4655C155.925 96.3173 155.925 96.1692 155.797 96.021V96.7619C155.797 98.0954 155.589 105.652 155.925 106.541Z" fill="#5B9635" stroke="#4F7536" stroke-width="0.3" stroke-miterlimit="3.86"/>
<path d="M153.105 106.541C153.105 106.541 153.233 106.837 153.362 106.837C153.49 106.837 153.618 106.393 153.618 106.393C153.673 104.21 153.544 102.026 153.233 99.8728C152.977 97.3539 153.49 96.0203 152.464 93.7977C152.336 93.5014 152.336 93.3533 152.208 93.2051V94.2423C152.208 95.5573 152.592 105.355 153.105 106.541Z" fill="#5B9635" stroke="#4F7536" stroke-width="0.3" stroke-miterlimit="3.86"/>
<path d="M156.823 109.505C156.823 109.654 156.823 109.95 156.952 109.95C157.08 109.95 157.336 109.505 157.336 109.357C157.919 106.377 158.347 103.358 158.619 100.319C159.003 96.7625 159.773 95.2807 159.516 91.8727C159.486 91.6231 159.443 91.3757 159.388 91.1318C159.338 91.5844 159.252 92.0308 159.131 92.4654C158.875 94.3917 156.695 107.727 156.823 109.505Z" fill="#5B9635" stroke="#4F7536" stroke-width="0.3" stroke-miterlimit="3.86"/>
<path d="M151.949 107.727L152.077 107.875C152.205 107.875 152.205 107.579 152.205 107.579C152.178 106.29 152.093 105.004 151.949 103.726C151.82 102.244 152.077 101.503 151.436 100.17C151.363 100.093 151.318 99.9872 151.308 99.8735V100.466C151.436 101.207 151.692 106.986 151.949 107.727Z" fill="#5B9635" stroke="#4F7536" stroke-width="0.3" stroke-miterlimit="3.86"/>
<path d="M150.029 107.875L150.157 108.023C150.285 108.023 150.285 107.727 150.285 107.578C150.197 105.93 149.983 104.294 149.644 102.689C149.662 101.113 149.4 99.5497 148.875 98.0954C148.826 98.0373 148.789 97.9671 148.767 97.8901C148.744 97.8132 148.738 97.7314 148.747 97.6509C148.738 97.9061 148.782 98.16 148.875 98.3917C149.053 101.582 149.438 104.752 150.029 107.875Z" fill="#5B9635" stroke="#4F7536" stroke-width="0.3" stroke-miterlimit="3.86"/>
<path d="M152.721 109.949C152.721 110.097 152.721 110.246 152.849 110.246C152.977 110.246 153.105 109.949 153.105 109.801C153.373 107.493 153.502 105.166 153.489 102.837C153.788 100.68 153.831 98.4872 153.618 96.3173C153.618 96.021 153.489 95.8728 153.489 95.7246C153.494 96.076 153.451 96.4261 153.361 96.7618C153.361 98.2436 152.593 108.616 152.721 109.949Z" fill="#5B9635" stroke="#4F7536" stroke-width="0.3" stroke-miterlimit="3.86"/>
<path d="M154.386 109.949C154.669 109.949 154.898 109.816 154.898 109.653C154.898 109.489 154.669 109.356 154.386 109.356C154.103 109.356 153.873 109.489 153.873 109.653C153.873 109.816 154.103 109.949 154.386 109.949Z" fill="#B56F35"/>
<path d="M153.232 110.393C153.515 110.393 153.744 110.261 153.744 110.097C153.744 109.933 153.515 109.801 153.232 109.801C152.949 109.801 152.72 109.933 152.72 110.097C152.72 110.261 152.949 110.393 153.232 110.393Z" fill="#B56F35"/>
<path d="M151.051 108.468C151.334 108.468 151.563 108.335 151.563 108.171C151.563 108.008 151.334 107.875 151.051 107.875C150.768 107.875 150.538 108.008 150.538 108.171C150.538 108.335 150.768 108.468 151.051 108.468Z" fill="#B56F35"/>
<path d="M150.152 110.245C150.435 110.245 150.665 110.112 150.665 109.949C150.665 109.785 150.435 109.652 150.152 109.652C149.869 109.652 149.64 109.785 149.64 109.949C149.64 110.112 149.869 110.245 150.152 110.245Z" fill="#B56F35"/>
<path d="M149.258 110.69C149.541 110.69 149.77 110.558 149.77 110.394C149.77 110.23 149.541 110.098 149.258 110.098C148.975 110.098 148.745 110.23 148.745 110.394C148.745 110.558 148.975 110.69 149.258 110.69Z" fill="#B56F35"/>
<defs>
<filter id="filter0_d" x="2.05103" y="125.927" width="185.073" height="49.7187" filterUnits="userSpaceOnUse" color-interpolation-filters="sRGB">
<feFlood flood-opacity="0" result="BackgroundImageFix"/>
<feColorMatrix in="SourceAlpha" type="matrix" values="0 0 0 0 0 0 0 0 0 0 0 0 0 0 0 0 0 0 127 0"/>
<feOffset dy="4"/>
<feGaussianBlur stdDeviation="2"/>
<feColorMatrix type="matrix" values="0 0 0 0 0 0 0 0 0 0 0 0 0 0 0 0 0 0 0.25 0"/>
<feBlend mode="normal" in2="BackgroundImageFix" result="effect1_dropShadow"/>
<feBlend mode="normal" in="SourceGraphic" in2="effect1_dropShadow" result="shape"/>
</filter>
</defs>
</svg>
