<svg width="334" height="207" viewBox="0 0 334 207" fill="none" xmlns="http://www.w3.org/2000/svg">
<g clip-path="url(#clip0)">
<g filter="url(#filter0_d)">
<rect x="46.1509" y="138.508" width="240.749" height="41.7187" rx="10" fill="#7C8294"/>
<path d="M63.9328 166.853C63.1168 166.853 62.3368 166.757 61.5928 166.565C60.8608 166.361 60.2908 166.109 59.8828 165.809L60.8188 164.081C61.2148 164.369 61.7128 164.597 62.3128 164.765C62.9128 164.933 63.5308 165.017 64.1668 165.017C64.8868 165.017 65.4268 164.921 65.7868 164.729C66.1588 164.525 66.3448 164.237 66.3448 163.865C66.3448 163.577 66.1888 163.367 65.8768 163.235C65.5768 163.103 65.0968 162.965 64.4368 162.821C63.7528 162.689 63.1888 162.551 62.7448 162.407C62.3128 162.251 61.9348 162.005 61.6108 161.669C61.2988 161.321 61.1428 160.847 61.1428 160.247C61.1428 159.251 61.5568 158.465 62.3848 157.889C63.2248 157.301 64.3348 157.007 65.7148 157.007C66.3748 157.007 67.0168 157.085 67.6408 157.241C68.2648 157.385 68.7748 157.583 69.1708 157.835L68.3428 159.563C67.9468 159.311 67.4968 159.125 66.9928 159.005C66.5008 158.885 66.0028 158.825 65.4988 158.825C64.7908 158.825 64.2508 158.933 63.8788 159.149C63.5188 159.365 63.3388 159.647 63.3388 159.995C63.3388 160.307 63.4948 160.535 63.8068 160.679C64.1308 160.811 64.6288 160.949 65.3008 161.093C65.9728 161.225 66.5248 161.369 66.9568 161.525C67.3888 161.669 67.7608 161.909 68.0728 162.245C68.3848 162.581 68.5408 163.037 68.5408 163.613C68.5408 164.645 68.1208 165.443 67.2808 166.007C66.4408 166.571 65.3248 166.853 63.9328 166.853ZM73.0885 163.505C73.0645 163.697 73.0525 163.835 73.0525 163.919C73.0525 164.639 73.4305 164.999 74.1865 164.999C74.6545 164.999 75.0745 164.873 75.4465 164.621L75.8425 166.277C75.2305 166.661 74.4565 166.853 73.5205 166.853C72.6925 166.853 72.0265 166.625 71.5225 166.169C71.0185 165.713 70.7665 165.083 70.7665 164.279C70.7665 164.015 70.7905 163.763 70.8385 163.523L71.7565 158.987H70.1905L70.5505 157.187H72.1165L72.5485 154.991H74.7985L74.3485 157.187H76.9405L76.5805 158.987H73.9885L73.0885 163.505ZM88.7814 157.115L86.8554 166.727H84.7134L84.9294 165.665C84.0654 166.457 82.9794 166.853 81.6714 166.853C80.6154 166.853 79.7694 166.571 79.1334 166.007C78.5094 165.431 78.1974 164.627 78.1974 163.595C78.1974 163.211 78.2394 162.827 78.3234 162.443L79.3854 157.115H81.6354L80.5734 162.389C80.5254 162.629 80.5014 162.875 80.5014 163.127C80.5014 163.691 80.6574 164.123 80.9694 164.423C81.2934 164.723 81.7734 164.873 82.4094 164.873C83.2254 164.873 83.9034 164.645 84.4434 164.189C84.9834 163.721 85.3434 163.025 85.5234 162.101L86.5314 157.115H88.7814ZM101.861 153.371L99.1973 166.727H97.0553L97.2533 165.737C96.3893 166.481 95.3513 166.853 94.1393 166.853C93.3473 166.853 92.6273 166.685 91.9793 166.349C91.3433 166.013 90.8393 165.527 90.4673 164.891C90.0953 164.243 89.9093 163.487 89.9093 162.623C89.9093 161.543 90.1433 160.577 90.6113 159.725C91.0793 158.873 91.7213 158.207 92.5373 157.727C93.3653 157.247 94.2893 157.007 95.3093 157.007C96.0653 157.007 96.7193 157.133 97.2713 157.385C97.8353 157.637 98.2733 158.009 98.5853 158.501L99.6113 153.371H101.861ZM94.7153 164.927C95.3393 164.927 95.9033 164.777 96.4073 164.477C96.9113 164.165 97.3013 163.739 97.5773 163.199C97.8653 162.647 98.0093 162.023 98.0093 161.327C98.0093 160.571 97.7873 159.983 97.3433 159.563C96.8993 159.131 96.2753 158.915 95.4713 158.915C94.8473 158.915 94.2833 159.071 93.7793 159.383C93.2753 159.683 92.8793 160.109 92.5913 160.661C92.3153 161.201 92.1773 161.819 92.1773 162.515C92.1773 163.271 92.3993 163.865 92.8433 164.297C93.2873 164.717 93.9113 164.927 94.7153 164.927ZM112.221 161.219C112.221 161.687 112.173 162.143 112.077 162.587H104.445C104.481 164.159 105.405 164.945 107.217 164.945C107.769 164.945 108.285 164.861 108.765 164.693C109.245 164.513 109.653 164.267 109.989 163.955L110.925 165.521C110.433 165.965 109.839 166.301 109.143 166.529C108.459 166.745 107.739 166.853 106.983 166.853C106.023 166.853 105.183 166.679 104.463 166.331C103.755 165.983 103.209 165.491 102.825 164.855C102.441 164.207 102.249 163.463 102.249 162.623C102.249 161.555 102.483 160.595 102.951 159.743C103.431 158.879 104.091 158.207 104.931 157.727C105.783 157.247 106.737 157.007 107.793 157.007C109.137 157.007 110.211 157.385 111.015 158.141C111.819 158.885 112.221 159.911 112.221 161.219ZM107.685 158.807C106.929 158.807 106.281 159.011 105.741 159.419C105.213 159.827 104.847 160.385 104.643 161.093H110.151C110.163 160.373 109.941 159.815 109.485 159.419C109.041 159.011 108.441 158.807 107.685 158.807ZM120.449 157.007C121.529 157.007 122.381 157.289 123.005 157.853C123.641 158.417 123.959 159.215 123.959 160.247C123.959 160.535 123.917 160.919 123.833 161.399L122.771 166.727H120.521L121.565 161.453C121.613 161.213 121.637 160.967 121.637 160.715C121.637 159.551 120.995 158.969 119.711 158.969C118.883 158.969 118.199 159.203 117.659 159.671C117.119 160.127 116.753 160.817 116.561 161.741L115.553 166.727H113.303L115.211 157.115H117.353L117.137 158.177C118.001 157.397 119.105 157.007 120.449 157.007ZM128.794 163.505C128.77 163.697 128.758 163.835 128.758 163.919C128.758 164.639 129.136 164.999 129.892 164.999C130.36 164.999 130.78 164.873 131.152 164.621L131.548 166.277C130.936 166.661 130.162 166.853 129.226 166.853C128.398 166.853 127.732 166.625 127.228 166.169C126.724 165.713 126.472 165.083 126.472 164.279C126.472 164.015 126.496 163.763 126.544 163.523L127.462 158.987H125.896L126.256 157.187H127.822L128.254 154.991H130.504L130.054 157.187H132.646L132.286 158.987H129.694L128.794 163.505ZM144.439 155.063C143.971 155.063 143.599 155.195 143.323 155.459C143.047 155.723 142.849 156.125 142.729 156.665L142.621 157.187H145.249L144.889 158.987H142.315L140.767 166.727H138.517L140.065 158.987H138.499L138.859 157.187H140.425L140.569 156.503C140.785 155.471 141.217 154.673 141.865 154.109C142.525 153.533 143.383 153.245 144.439 153.245C144.859 153.245 145.249 153.293 145.609 153.389C145.981 153.485 146.293 153.629 146.545 153.821L145.627 155.459C145.303 155.195 144.907 155.063 144.439 155.063ZM149.485 166.853C148.549 166.853 147.727 166.679 147.019 166.331C146.323 165.971 145.783 165.473 145.399 164.837C145.015 164.201 144.823 163.463 144.823 162.623C144.823 161.555 145.063 160.595 145.543 159.743C146.035 158.891 146.713 158.225 147.577 157.745C148.453 157.253 149.437 157.007 150.529 157.007C151.465 157.007 152.287 157.181 152.995 157.529C153.703 157.877 154.249 158.369 154.633 159.005C155.017 159.641 155.209 160.379 155.209 161.219C155.209 162.287 154.963 163.247 154.471 164.099C153.979 164.951 153.295 165.623 152.419 166.115C151.555 166.607 150.577 166.853 149.485 166.853ZM149.629 164.927C150.265 164.927 150.829 164.777 151.321 164.477C151.825 164.165 152.221 163.739 152.509 163.199C152.797 162.647 152.941 162.023 152.941 161.327C152.941 160.571 152.719 159.983 152.275 159.563C151.831 159.131 151.207 158.915 150.403 158.915C149.767 158.915 149.197 159.071 148.693 159.383C148.201 159.683 147.811 160.109 147.523 160.661C147.235 161.201 147.091 161.819 147.091 162.515C147.091 163.271 147.313 163.865 147.757 164.297C148.201 164.717 148.825 164.927 149.629 164.927ZM161.087 166.853C160.151 166.853 159.329 166.679 158.621 166.331C157.925 165.971 157.385 165.473 157.001 164.837C156.617 164.201 156.425 163.463 156.425 162.623C156.425 161.555 156.665 160.595 157.145 159.743C157.637 158.891 158.315 158.225 159.179 157.745C160.055 157.253 161.039 157.007 162.131 157.007C163.067 157.007 163.889 157.181 164.597 157.529C165.305 157.877 165.851 158.369 166.235 159.005C166.619 159.641 166.811 160.379 166.811 161.219C166.811 162.287 166.565 163.247 166.073 164.099C165.581 164.951 164.897 165.623 164.021 166.115C163.157 166.607 162.179 166.853 161.087 166.853ZM161.231 164.927C161.867 164.927 162.431 164.777 162.923 164.477C163.427 164.165 163.823 163.739 164.111 163.199C164.399 162.647 164.543 162.023 164.543 161.327C164.543 160.571 164.321 159.983 163.877 159.563C163.433 159.131 162.809 158.915 162.005 158.915C161.369 158.915 160.799 159.071 160.295 159.383C159.803 159.683 159.413 160.109 159.125 160.661C158.837 161.201 158.693 161.819 158.693 162.515C158.693 163.271 158.915 163.865 159.359 164.297C159.803 164.717 160.427 164.927 161.231 164.927ZM179.996 153.371L177.332 166.727H175.19L175.388 165.737C174.524 166.481 173.486 166.853 172.274 166.853C171.482 166.853 170.762 166.685 170.114 166.349C169.478 166.013 168.974 165.527 168.602 164.891C168.23 164.243 168.044 163.487 168.044 162.623C168.044 161.543 168.278 160.577 168.746 159.725C169.214 158.873 169.856 158.207 170.672 157.727C171.5 157.247 172.424 157.007 173.444 157.007C174.2 157.007 174.854 157.133 175.406 157.385C175.97 157.637 176.408 158.009 176.72 158.501L177.746 153.371H179.996ZM172.85 164.927C173.474 164.927 174.038 164.777 174.542 164.477C175.046 164.165 175.436 163.739 175.712 163.199C176 162.647 176.144 162.023 176.144 161.327C176.144 160.571 175.922 159.983 175.478 159.563C175.034 159.131 174.41 158.915 173.606 158.915C172.982 158.915 172.418 159.071 171.914 159.383C171.41 159.683 171.014 160.109 170.726 160.661C170.45 161.201 170.312 161.819 170.312 162.515C170.312 163.271 170.534 163.865 170.978 164.297C171.422 164.717 172.046 164.927 172.85 164.927ZM190.074 166.853C189.126 166.853 188.292 166.679 187.572 166.331C186.864 165.971 186.318 165.473 185.934 164.837C185.55 164.201 185.358 163.463 185.358 162.623C185.358 161.555 185.604 160.595 186.096 159.743C186.588 158.891 187.266 158.225 188.13 157.745C189.006 157.253 190.002 157.007 191.118 157.007C192.09 157.007 192.924 157.199 193.62 157.583C194.328 157.955 194.874 158.513 195.258 159.257L193.332 160.247C192.888 159.359 192.09 158.915 190.938 158.915C190.302 158.915 189.732 159.071 189.228 159.383C188.736 159.683 188.346 160.109 188.058 160.661C187.77 161.201 187.626 161.819 187.626 162.515C187.626 163.271 187.848 163.865 188.292 164.297C188.736 164.717 189.366 164.927 190.182 164.927C190.734 164.927 191.232 164.819 191.676 164.603C192.12 164.375 192.498 164.039 192.81 163.595L194.466 164.711C194.022 165.383 193.41 165.911 192.63 166.295C191.85 166.667 190.998 166.853 190.074 166.853ZM200.338 166.853C199.402 166.853 198.58 166.679 197.872 166.331C197.176 165.971 196.636 165.473 196.252 164.837C195.868 164.201 195.676 163.463 195.676 162.623C195.676 161.555 195.916 160.595 196.396 159.743C196.888 158.891 197.566 158.225 198.43 157.745C199.306 157.253 200.29 157.007 201.382 157.007C202.318 157.007 203.14 157.181 203.848 157.529C204.556 157.877 205.102 158.369 205.486 159.005C205.87 159.641 206.062 160.379 206.062 161.219C206.062 162.287 205.816 163.247 205.324 164.099C204.832 164.951 204.148 165.623 203.272 166.115C202.408 166.607 201.43 166.853 200.338 166.853ZM200.482 164.927C201.118 164.927 201.682 164.777 202.174 164.477C202.678 164.165 203.074 163.739 203.362 163.199C203.65 162.647 203.794 162.023 203.794 161.327C203.794 160.571 203.572 159.983 203.128 159.563C202.684 159.131 202.06 158.915 201.256 158.915C200.62 158.915 200.05 159.071 199.546 159.383C199.054 159.683 198.664 160.109 198.376 160.661C198.088 161.201 197.944 161.819 197.944 162.515C197.944 163.271 198.166 163.865 198.61 164.297C199.054 164.717 199.678 164.927 200.482 164.927ZM209.852 153.371H212.102L209.438 166.727H207.188L209.852 153.371ZM215.055 153.371H217.305L214.641 166.727H212.391L215.055 153.371ZM227.656 161.219C227.656 161.687 227.608 162.143 227.512 162.587H219.88C219.916 164.159 220.84 164.945 222.652 164.945C223.204 164.945 223.72 164.861 224.2 164.693C224.68 164.513 225.088 164.267 225.424 163.955L226.36 165.521C225.868 165.965 225.274 166.301 224.578 166.529C223.894 166.745 223.174 166.853 222.418 166.853C221.458 166.853 220.618 166.679 219.898 166.331C219.19 165.983 218.644 165.491 218.26 164.855C217.876 164.207 217.684 163.463 217.684 162.623C217.684 161.555 217.918 160.595 218.386 159.743C218.866 158.879 219.526 158.207 220.366 157.727C221.218 157.247 222.172 157.007 223.228 157.007C224.572 157.007 225.646 157.385 226.45 158.141C227.254 158.885 227.656 159.911 227.656 161.219ZM223.12 158.807C222.364 158.807 221.716 159.011 221.176 159.419C220.648 159.827 220.282 160.385 220.078 161.093H225.586C225.598 160.373 225.376 159.815 224.92 159.419C224.476 159.011 223.876 158.807 223.12 158.807ZM233.545 166.853C232.597 166.853 231.763 166.679 231.043 166.331C230.335 165.971 229.789 165.473 229.405 164.837C229.021 164.201 228.829 163.463 228.829 162.623C228.829 161.555 229.075 160.595 229.567 159.743C230.059 158.891 230.737 158.225 231.601 157.745C232.477 157.253 233.473 157.007 234.589 157.007C235.561 157.007 236.395 157.199 237.091 157.583C237.799 157.955 238.345 158.513 238.729 159.257L236.803 160.247C236.359 159.359 235.561 158.915 234.409 158.915C233.773 158.915 233.203 159.071 232.699 159.383C232.207 159.683 231.817 160.109 231.529 160.661C231.241 161.201 231.097 161.819 231.097 162.515C231.097 163.271 231.319 163.865 231.763 164.297C232.207 164.717 232.837 164.927 233.653 164.927C234.205 164.927 234.703 164.819 235.147 164.603C235.591 164.375 235.969 164.039 236.281 163.595L237.937 164.711C237.493 165.383 236.881 165.911 236.101 166.295C235.321 166.667 234.469 166.853 233.545 166.853ZM242.489 163.505C242.465 163.697 242.453 163.835 242.453 163.919C242.453 164.639 242.831 164.999 243.587 164.999C244.055 164.999 244.475 164.873 244.847 164.621L245.243 166.277C244.631 166.661 243.857 166.853 242.921 166.853C242.093 166.853 241.427 166.625 240.923 166.169C240.419 165.713 240.167 165.083 240.167 164.279C240.167 164.015 240.191 163.763 240.239 163.523L241.157 158.987H239.591L239.951 157.187H241.517L241.949 154.991H244.199L243.749 157.187H246.341L245.981 158.987H243.389L242.489 163.505ZM248.858 157.115H251.108L249.2 166.727H246.95L248.858 157.115ZM250.496 155.531C250.1 155.531 249.776 155.411 249.524 155.171C249.272 154.919 249.146 154.619 249.146 154.271C249.146 153.863 249.284 153.521 249.56 153.245C249.848 152.969 250.22 152.831 250.676 152.831C251.072 152.831 251.396 152.951 251.648 153.191C251.9 153.419 252.026 153.701 252.026 154.037C252.026 154.481 251.882 154.841 251.594 155.117C251.318 155.393 250.952 155.531 250.496 155.531ZM263.079 157.115L257.049 166.727H254.727L252.513 157.115H254.727L256.329 164.261L260.811 157.115H263.079ZM272.357 161.219C272.357 161.687 272.309 162.143 272.213 162.587H264.581C264.617 164.159 265.541 164.945 267.353 164.945C267.905 164.945 268.421 164.861 268.901 164.693C269.381 164.513 269.789 164.267 270.125 163.955L271.061 165.521C270.569 165.965 269.975 166.301 269.279 166.529C268.595 166.745 267.875 166.853 267.119 166.853C266.159 166.853 265.319 166.679 264.599 166.331C263.891 165.983 263.345 165.491 262.961 164.855C262.577 164.207 262.385 163.463 262.385 162.623C262.385 161.555 262.619 160.595 263.087 159.743C263.567 158.879 264.227 158.207 265.067 157.727C265.919 157.247 266.873 157.007 267.929 157.007C269.273 157.007 270.347 157.385 271.151 158.141C271.955 158.885 272.357 159.911 272.357 161.219ZM267.821 158.807C267.065 158.807 266.417 159.011 265.877 159.419C265.349 159.827 264.983 160.385 264.779 161.093H270.287C270.299 160.373 270.077 159.815 269.621 159.419C269.177 159.011 268.577 158.807 267.821 158.807Z" fill="white"/>
</g>
<path opacity="0.69" d="M-3.54368 57.6427C4.9294 61.6426 14.2169 63.6062 23.5818 63.3776C29.092 63.2206 34.9106 63.0254 37.1431 59.4944C40.6411 53.9118 34.8626 42.7172 30.7042 42.7874C25.0226 42.898 16.7765 64.1869 25.0681 74.702C27.4763 77.7402 31.201 79.7482 47.9157 82.2943C79.8341 87.1238 88.4456 83.1623 95.4275 89.7344C105.129 98.8756 102.676 119.763 95.6484 122.372C90.355 124.256 79.812 117.016 80.0854 110.908C80.4641 101.489 106.633 90.179 125.923 97.4842C138.201 102.147 147.675 114.356 145.554 117.394C143.433 120.431 130.767 117.268 129.943 113.08C128.868 107.644 148.288 100.373 156.539 97.2804C197.415 82.0255 226.076 87.4171 228.66 77.5596C229.9 72.6371 224.235 65.644 219.12 65.2661C214.005 64.8883 208.293 70.9842 208.772 76.322C209.194 82.947 218.894 88.4082 227.009 88.4712C236.992 88.562 239.241 80.3888 255.423 71.4744C264.603 66.3904 281.952 59.092 286.346 63.6697C290.74 68.2474 283.032 83.7405 277.678 83.4599C274.21 83.2602 270.421 76.2448 272.404 72.8861C274.829 68.8205 286.523 68.7925 291.288 73.8475C296.054 78.9024 289.807 85.8459 294.036 96.0624C294.27 96.6243 299.467 108.432 311.253 110.522C315.904 111.14 320.636 110.431 324.905 108.476C329.174 106.521 332.809 103.399 335.391 99.4686" stroke="#4B964B" stroke-width="0.3" stroke-miterlimit="10"/>
<path d="M-1.0157 56.2286C7.42946 60.1783 16.6659 62.1349 25.9852 61.9482C31.4984 61.7661 37.3139 61.5959 39.5495 58.0399C43.0475 52.4573 37.269 41.2627 33.1075 41.3579C27.4539 41.4465 19.1799 62.7574 27.4745 73.2475C29.9045 76.3138 33.6043 78.3187 50.3221 80.8398C82.2405 85.6693 90.8738 81.7359 97.8557 88.308C107.535 97.4211 105.082 118.309 98.0797 120.921C92.7864 122.805 82.2402 115.59 82.4918 109.454C82.8674 100.06 109.064 88.7276 128.329 96.0297C140.607 100.693 150.078 112.927 147.957 115.964C145.836 119.001 133.17 115.839 132.346 111.651C131.3 106.192 150.72 98.9214 158.943 95.851C199.819 80.596 228.483 85.9625 231.063 76.13C232.303 71.2076 226.642 64.1894 221.527 63.8116C216.411 63.4338 210.846 69.5732 211.179 74.8675C211.601 81.4925 221.322 86.9818 229.412 87.0417C239.396 87.1324 241.648 78.9343 257.829 70.0199C267.031 64.964 284.355 57.6625 288.752 62.2152C293.149 66.7678 285.436 82.311 280.109 82.0085C276.614 81.8307 272.827 74.7903 274.836 71.4346C277.233 67.391 288.951 67.3661 293.717 72.421C298.482 77.4759 292.238 84.3944 296.439 94.6329C296.674 95.1948 301.87 107.003 313.66 109.068C318.308 109.691 323.038 108.986 327.307 107.035C331.576 105.085 335.211 101.967 337.795 98.0391" stroke="#76A576" stroke-width="0.5" stroke-miterlimit="10"/>
<path d="M2.10727 53.8989C10.5438 57.8745 19.7864 59.8324 29.1081 59.6184C34.6183 59.4614 40.4338 59.2912 42.6694 55.7352C46.1674 50.1526 40.3889 38.958 36.2305 39.0282C30.5738 39.1418 22.2997 60.4527 30.5944 70.9429C32.9995 74.006 36.7242 76.014 53.442 78.5351C85.3604 83.3646 93.9688 79.4281 100.951 86.0002C110.655 95.1164 108.202 116.004 101.175 118.613C95.8813 120.497 85.3601 113.285 85.6117 107.149C85.9904 97.7301 112.159 86.4198 131.449 93.7251C143.727 98.388 153.201 110.597 151.077 113.659C148.953 116.722 136.29 113.534 135.466 109.346C134.42 103.888 153.839 96.6167 162.063 93.5462C202.939 78.2913 231.602 83.6578 234.183 73.8253C235.423 68.9029 229.762 61.8848 224.647 61.5069C219.531 61.1291 213.944 67.2404 214.299 72.5628C214.72 79.1878 224.445 84.6521 232.532 84.737C242.519 84.8028 244.768 76.6296 260.949 67.7152C270.151 62.6593 287.475 55.3578 291.872 59.9105C296.269 64.4632 288.559 79.9813 283.204 79.7007C279.733 79.526 275.947 72.4856 277.955 69.1299C280.353 65.0863 292.046 65.0583 296.839 70.0913C301.633 75.1243 295.358 82.0897 299.559 92.3282C299.797 92.8651 304.993 104.673 316.78 106.763C321.431 107.384 326.163 106.676 330.433 104.721C334.703 102.765 338.337 99.642 340.917 95.7094" stroke="#4B964B" stroke-width="0.5" stroke-miterlimit="10"/>
<path d="M292.444 97.8954C292.692 97.926 292.905 97.85 292.92 97.7258C292.936 97.6015 292.747 97.4761 292.5 97.4455C292.252 97.4149 292.039 97.4909 292.024 97.6151C292.008 97.7393 292.197 97.8649 292.444 97.8954Z" fill="#B56F35" stroke="#B56F35" stroke-width="0.5" stroke-miterlimit="3.86" stroke-linecap="round"/>
<path d="M290.255 93.5147C290.75 93.5758 291.189 93.3232 291.235 92.9505C291.281 92.5777 290.917 92.226 290.422 92.1649C289.927 92.1038 289.488 92.3563 289.442 92.7291C289.396 93.1018 289.76 93.4536 290.255 93.5147Z" fill="#B56F35"/>
<path d="M292.388 94.6915C292.883 94.7526 293.322 94.5 293.368 94.1272C293.414 93.7545 293.05 93.4028 292.555 93.3416C292.06 93.2805 291.621 93.5331 291.575 93.9058C291.529 94.2786 291.893 94.6303 292.388 94.6915Z" fill="#B56F35"/>
<path d="M296.643 91.563C297.138 91.6242 297.577 91.3715 297.623 90.9988C297.669 90.6261 297.305 90.2744 296.81 90.2132C296.315 90.1521 295.876 90.4047 295.83 90.7774C295.784 91.1502 296.148 91.5019 296.643 91.563Z" fill="#B56F35"/>
<path d="M297.796 95.1309C298.291 95.1921 298.73 94.9395 298.776 94.5667C298.822 94.194 298.458 93.8422 297.963 93.7811C297.467 93.72 297.029 93.9726 296.983 94.3453C296.937 94.7181 297.301 95.0698 297.796 95.1309Z" fill="#B56F35"/>
<path d="M299.029 96.1969C299.524 96.258 299.963 96.0054 300.009 95.6326C300.055 95.2599 299.691 94.9081 299.196 94.847C298.701 94.7859 298.262 95.0385 298.216 95.4113C298.17 95.784 298.534 96.1357 299.029 96.1969Z" fill="#B56F35"/>
<path d="M291.286 78.6181C283.718 83.343 284.793 83.2473 283.046 83.8691C276.934 86.2358 273.729 83.0992 264.087 85.157C261.309 85.7276 258.886 86.2913 258.729 87.5661C258.463 89.7158 264.669 92.9437 270.031 94.1896C273.325 95.0857 276.765 95.3136 280.15 94.86C283.534 94.4063 286.794 93.2802 289.74 91.5476C298.415 86.0459 301.885 75.1559 300.251 73.8375C299.678 73.3607 296.851 75.1434 291.286 78.6181Z" fill="#FCC332" stroke="#FFCF03" stroke-width="0.5" stroke-miterlimit="10"/>
<path d="M298.044 74.2506C293.534 76.7644 297.103 84.7424 292.07 90.4653C289.712 92.7386 286.708 94.2211 283.474 94.7079C280.474 95.3531 277.421 95.7237 274.355 95.8151C268.334 96.2137 267.007 95.8975 266.484 96.8481C265.496 98.7055 268.818 102.948 272.537 105.209C275.349 106.776 278.537 107.538 281.753 107.413C284.909 107.472 292.958 107.654 297.587 102.135C299.401 99.9482 299.974 97.5574 301.118 92.8007C301.931 89.5004 301.277 90.2826 302.341 81.0496C302.838 77.0251 303.092 74.9754 301.938 74.0716C301.328 73.7654 300.65 73.621 299.968 73.6524C299.287 73.6837 298.624 73.8897 298.044 74.2506Z" fill="#FCC332" stroke="#FFCF03" stroke-width="0.5" stroke-miterlimit="10"/>
<path d="M304.049 76.0325C303.065 76.2155 302.791 79.4554 302.466 83.3234C302.014 88.6223 302.94 89.5234 302.271 93.0952C301.829 96.5517 300.21 99.7496 297.687 102.147C295.05 103.836 292.263 105.276 289.362 106.449C285.026 108.578 284.478 108.916 284.432 109.494C284.166 111.644 290.992 115.38 297.368 114.569C305.873 113.512 310.306 104.873 310.539 104.42C316.739 91.7095 306.073 75.6226 304.049 76.0325Z" fill="#FCC332" stroke="#FFCF03" stroke-width="0.5" stroke-miterlimit="10"/>
<path d="M299.677 73.3609C299.893 71.6112 300.109 69.8614 300.325 68.1116L302.876 67.9445L303.047 70.2496L303.789 68.1333L305.97 68.7072C305.412 70.973 304.826 73.2608 304.268 75.5266L300.855 76.5264L299.677 73.3609Z" fill="#BC902E" stroke="#A07C22" stroke-width="0.25" stroke-miterlimit="10"/>
<path opacity="0.5" d="M286.393 109.432C286.585 109.455 286.751 109.396 286.763 109.3C286.775 109.203 286.629 109.105 286.436 109.082C286.243 109.058 286.078 109.117 286.066 109.214C286.054 109.31 286.2 109.408 286.393 109.432Z" fill="#B56F35" stroke="#B56F35" stroke-width="0.25" stroke-miterlimit="3.86" stroke-linecap="round"/>
<path opacity="0.5" d="M300.355 111.46C300.754 111.51 301.108 111.303 301.145 111C301.183 110.696 300.89 110.41 300.491 110.361C300.092 110.311 299.739 110.518 299.701 110.821C299.664 111.125 299.956 111.411 300.355 111.46Z" fill="#B56F35"/>
<path opacity="0.5" d="M302.07 112.382C302.468 112.431 302.822 112.225 302.86 111.921C302.897 111.617 302.604 111.331 302.205 111.282C301.807 111.233 301.453 111.439 301.415 111.743C301.378 112.047 301.671 112.333 302.07 112.382Z" fill="#B56F35"/>
<path opacity="0.5" d="M305.487 109.886C305.886 109.935 306.24 109.729 306.277 109.425C306.315 109.121 306.022 108.835 305.623 108.786C305.224 108.737 304.87 108.943 304.833 109.247C304.795 109.55 305.088 109.837 305.487 109.886Z" fill="#B56F35"/>
<path opacity="0.5" d="M290.66 107.242C291.058 107.291 291.412 107.085 291.45 106.781C291.487 106.478 291.194 106.192 290.795 106.142C290.397 106.093 290.043 106.299 290.005 106.603C289.968 106.907 290.261 107.193 290.66 107.242Z" fill="#B56F35"/>
<path opacity="0.5" d="M291.639 108.1C292.038 108.149 292.392 107.943 292.429 107.639C292.467 107.335 292.174 107.049 291.775 107C291.376 106.951 291.023 107.157 290.985 107.461C290.948 107.764 291.24 108.05 291.639 108.1Z" fill="#B56F35"/>
<path opacity="0.5" d="M305.181 96.8037C305.36 96.8257 305.513 96.7764 305.523 96.6936C305.533 96.6107 305.397 96.5257 305.219 96.5037C305.04 96.4817 304.887 96.531 304.877 96.6138C304.867 96.6967 305.003 96.7817 305.181 96.8037Z" fill="#B56F35" stroke="#B56F35" stroke-width="0.25" stroke-miterlimit="3.86" stroke-linecap="round"/>
<path opacity="0.5" d="M303.635 93.745C303.979 93.7875 304.284 93.6092 304.316 93.3469C304.348 93.0846 304.096 92.8376 303.752 92.7951C303.408 92.7527 303.103 92.9309 303.071 93.1932C303.039 93.4555 303.291 93.7026 303.635 93.745Z" fill="#B56F35"/>
<path opacity="0.5" d="M305.132 94.5648C305.476 94.6073 305.781 94.4291 305.813 94.1668C305.846 93.9045 305.593 93.6574 305.249 93.6149C304.906 93.5725 304.601 93.7507 304.568 94.013C304.536 94.2753 304.788 94.5224 305.132 94.5648Z" fill="#B56F35"/>
<path opacity="0.5" d="M308.102 92.3685C308.446 92.411 308.751 92.2328 308.783 91.9705C308.816 91.7082 308.563 91.4611 308.219 91.4187C307.876 91.3762 307.571 91.5544 307.538 91.8167C307.506 92.079 307.758 92.3261 308.102 92.3685Z" fill="#B56F35"/>
<path opacity="0.5" d="M296.797 82.5736C297.141 82.6161 297.445 82.4379 297.478 82.1756C297.51 81.9133 297.258 81.6662 296.914 81.6237C296.57 81.5813 296.265 81.7595 296.233 82.0218C296.2 82.2841 296.453 82.5311 296.797 82.5736Z" fill="#B56F35"/>
<path opacity="0.5" d="M297.929 83.8294C298.273 83.8719 298.578 83.6937 298.61 83.4314C298.642 83.1691 298.39 82.9221 298.046 82.8796C297.702 82.8372 297.397 83.0153 297.365 83.2776C297.333 83.5399 297.585 83.787 297.929 83.8294Z" fill="#B56F35"/>
<path opacity="0.5" d="M279.432 96.2895C279.61 96.3115 279.763 96.2622 279.773 96.1794C279.783 96.0966 279.647 96.0116 279.469 95.9896C279.29 95.9676 279.137 96.0168 279.127 96.0997C279.117 96.1825 279.253 96.2675 279.432 96.2895Z" fill="#B56F35" stroke="#B56F35" stroke-width="0.25" stroke-miterlimit="3.86" stroke-linecap="round"/>
<path opacity="0.5" d="M277.889 93.2313C278.233 93.2738 278.538 93.0956 278.57 92.8333C278.603 92.571 278.35 92.3239 278.006 92.2815C277.662 92.239 277.358 92.4172 277.325 92.6795C277.293 92.9418 277.545 93.1889 277.889 93.2313Z" fill="#B56F35"/>
<path opacity="0.5" d="M279.381 94.0502C279.725 94.0926 280.03 93.9144 280.062 93.6521C280.095 93.3898 279.842 93.1428 279.498 93.1003C279.155 93.0579 278.85 93.2361 278.817 93.4984C278.785 93.7607 279.037 94.0077 279.381 94.0502Z" fill="#B56F35"/>
<path opacity="0.5" d="M282.354 91.8778C282.697 91.9203 283.002 91.7421 283.035 91.4798C283.067 91.2175 282.815 90.9704 282.471 90.9279C282.127 90.8855 281.822 91.0637 281.79 91.326C281.757 91.5883 282.01 91.8354 282.354 91.8778Z" fill="#B56F35"/>
<path opacity="0.5" d="M283.166 94.3646C283.509 94.4071 283.814 94.2289 283.847 93.9666C283.879 93.7043 283.627 93.4572 283.283 93.4148C282.939 93.3723 282.634 93.5505 282.602 93.8128C282.569 94.0751 282.822 94.3222 283.166 94.3646Z" fill="#B56F35"/>
<path opacity="0.5" d="M284.037 95.1073C284.381 95.1498 284.686 94.9716 284.718 94.7093C284.751 94.4469 284.498 94.1999 284.154 94.1574C283.81 94.115 283.505 94.2932 283.473 94.5555C283.441 94.8178 283.693 95.0649 284.037 95.1073Z" fill="#B56F35"/>
<path opacity="0.5" d="M271.185 86.6418C271.433 86.6723 271.652 86.5516 271.674 86.3721C271.696 86.1927 271.513 86.0224 271.266 85.9919C271.018 85.9613 270.799 86.082 270.777 86.2615C270.755 86.4409 270.938 86.6112 271.185 86.6418Z" fill="#B56F35"/>
<path opacity="0.5" d="M272.239 87.2038C272.486 87.2343 272.705 87.1136 272.727 86.9341C272.749 86.7547 272.566 86.5844 272.319 86.5539C272.071 86.5233 271.853 86.644 271.83 86.8235C271.808 87.0029 271.991 87.1732 272.239 87.2038Z" fill="#B56F35"/>
<path opacity="0.5" d="M274.889 87.4299C275.136 87.4605 275.355 87.3397 275.377 87.1603C275.399 86.9808 275.217 86.8105 274.969 86.78C274.721 86.7494 274.503 86.8701 274.481 87.0496C274.458 87.229 274.641 87.3993 274.889 87.4299Z" fill="#B56F35"/>
<path opacity="0.5" d="M275.5 87.9621C275.748 87.9926 275.966 87.8719 275.988 87.6925C276.011 87.513 275.828 87.3427 275.58 87.3122C275.333 87.2816 275.114 87.4023 275.092 87.5818C275.07 87.7612 275.252 87.9315 275.5 87.9621Z" fill="#B56F35"/>
<path opacity="0.5" d="M275.227 105.605C275.476 105.589 275.669 105.43 275.657 105.249C275.646 105.069 275.435 104.936 275.186 104.952C274.937 104.968 274.744 105.127 274.756 105.308C274.767 105.488 274.978 105.621 275.227 105.605Z" fill="#B56F35"/>
<path opacity="0.5" d="M276.344 105.979C276.593 105.963 276.785 105.804 276.774 105.623C276.762 105.443 276.551 105.31 276.302 105.326C276.053 105.342 275.861 105.501 275.872 105.682C275.884 105.862 276.095 105.995 276.344 105.979Z" fill="#B56F35"/>
<path opacity="0.5" d="M279.004 105.705C279.253 105.689 279.446 105.53 279.434 105.349C279.423 105.169 279.212 105.036 278.963 105.052C278.714 105.068 278.521 105.227 278.533 105.408C278.544 105.588 278.755 105.721 279.004 105.705Z" fill="#B56F35"/>
<path opacity="0.5" d="M279.709 106.101C279.958 106.085 280.15 105.925 280.139 105.745C280.127 105.564 279.916 105.431 279.667 105.447C279.418 105.463 279.226 105.623 279.237 105.803C279.249 105.984 279.46 106.117 279.709 106.101Z" fill="#B56F35"/>
<path opacity="0.5" d="M299.314 88.4125C299.386 88.1729 299.306 87.9363 299.134 87.884C298.962 87.8317 298.764 87.9834 298.691 88.223C298.618 88.4626 298.699 88.6991 298.871 88.7515C299.043 88.8038 299.241 88.652 299.314 88.4125Z" fill="#B56F35"/>
<path opacity="0.5" d="M300.059 87.4764C300.132 87.2368 300.051 87.0003 299.88 86.9479C299.708 86.8956 299.509 87.0474 299.437 87.287C299.364 87.5265 299.445 87.7631 299.616 87.8154C299.788 87.8677 299.987 87.716 300.059 87.4764Z" fill="#B56F35"/>
<path opacity="0.5" d="M302.457 81.1491C302.53 80.9083 302.449 80.6707 302.276 80.6185C302.103 80.5663 301.904 80.7193 301.832 80.96C301.759 81.2008 301.84 81.4383 302.013 81.4905C302.186 81.5427 302.385 81.3898 302.457 81.1491Z" fill="#B56F35"/>
<path opacity="0.5" d="M301.36 84.3792C301.433 84.1397 301.353 83.9031 301.181 83.8508C301.009 83.7985 300.811 83.9502 300.738 84.1898C300.665 84.4294 300.746 84.6659 300.918 84.7183C301.09 84.7706 301.288 84.6188 301.36 84.3792Z" fill="#B56F35"/>
<path opacity="0.5" d="M282.43 104.527C282.485 104.354 282.337 104.153 282.099 104.077C281.862 104 281.625 104.078 281.57 104.25C281.514 104.422 281.662 104.624 281.9 104.7C282.137 104.777 282.374 104.699 282.43 104.527Z" fill="#B56F35"/>
<path opacity="0.5" d="M283.346 105.314C283.401 105.142 283.253 104.94 283.016 104.864C282.778 104.788 282.541 104.865 282.486 105.037C282.431 105.21 282.579 105.411 282.816 105.487C283.054 105.564 283.291 105.486 283.346 105.314Z" fill="#B56F35"/>
<path opacity="0.5" d="M285.931 106.005C285.986 105.833 285.838 105.631 285.6 105.555C285.363 105.478 285.126 105.556 285.071 105.728C285.015 105.9 285.163 106.102 285.401 106.178C285.638 106.255 285.875 106.177 285.931 106.005Z" fill="#B56F35"/>
<path opacity="0.5" d="M286.404 106.634C286.459 106.461 286.312 106.26 286.074 106.184C285.837 106.107 285.599 106.185 285.544 106.357C285.489 106.529 285.637 106.731 285.874 106.807C286.112 106.884 286.349 106.806 286.404 106.634Z" fill="#B56F35"/>
<path opacity="0.5" d="M296.511 113.403C296.759 113.373 296.942 113.203 296.921 113.023C296.899 112.844 296.681 112.723 296.433 112.753C296.185 112.783 296.002 112.953 296.024 113.133C296.045 113.312 296.264 113.433 296.511 113.403Z" fill="#B56F35"/>
<path opacity="0.5" d="M297.671 113.735C297.918 113.705 298.101 113.535 298.08 113.356C298.058 113.176 297.84 113.055 297.592 113.085C297.345 113.116 297.161 113.286 297.183 113.465C297.205 113.645 297.423 113.766 297.671 113.735Z" fill="#B56F35"/>
<path opacity="0.5" d="M300.275 113.283C300.523 113.253 300.706 113.083 300.684 112.903C300.662 112.724 300.444 112.603 300.196 112.633C299.949 112.663 299.766 112.833 299.787 113.013C299.809 113.192 300.027 113.313 300.275 113.283Z" fill="#B56F35"/>
<path opacity="0.5" d="M300.979 113.66C301.227 113.63 301.41 113.46 301.389 113.28C301.367 113.101 301.149 112.98 300.901 113.01C300.653 113.04 300.47 113.21 300.492 113.39C300.514 113.569 300.732 113.69 300.979 113.66Z" fill="#B56F35"/>
<path opacity="0.5" d="M295.858 101.557C296.007 101.356 296.01 101.106 295.865 100.999C295.721 100.892 295.483 100.968 295.335 101.169C295.187 101.371 295.184 101.621 295.328 101.728C295.473 101.835 295.71 101.759 295.858 101.557Z" fill="#B56F35"/>
<path opacity="0.5" d="M296.868 100.922C297.017 100.721 297.02 100.471 296.875 100.364C296.731 100.257 296.493 100.333 296.345 100.534C296.196 100.735 296.193 100.985 296.338 101.092C296.482 101.2 296.72 101.123 296.868 100.922Z" fill="#B56F35"/>
<path opacity="0.5" d="M298.375 98.722C298.524 98.5208 298.527 98.2709 298.382 98.1638C298.238 98.0566 298 98.1328 297.852 98.334C297.704 98.5352 297.7 98.7851 297.845 98.8922C297.989 98.9994 298.227 98.9232 298.375 98.722Z" fill="#B56F35"/>
<path opacity="0.5" d="M299.133 98.4529C299.281 98.2518 299.284 98.0019 299.139 97.8947C298.995 97.7876 298.758 97.8638 298.609 98.065C298.461 98.2661 298.458 98.5161 298.602 98.6232C298.747 98.7303 298.984 98.6541 299.133 98.4529Z" fill="#B56F35"/>
<path opacity="0.5" d="M293.481 78.9418C293.684 78.798 293.766 78.5617 293.662 78.4141C293.559 78.2666 293.31 78.2636 293.106 78.4075C292.902 78.5513 292.821 78.7876 292.924 78.9351C293.028 79.0827 293.277 79.0857 293.481 78.9418Z" fill="#B56F35"/>
<path opacity="0.5" d="M294.663 78.6806C294.867 78.5368 294.948 78.3005 294.845 78.1529C294.741 78.0054 294.492 78.0024 294.288 78.1462C294.084 78.2901 294.003 78.5264 294.107 78.6739C294.21 78.8215 294.459 78.8245 294.663 78.6806Z" fill="#B56F35"/>
<path opacity="0.5" d="M296.765 77.0571C296.969 76.9132 297.05 76.6769 296.946 76.5294C296.843 76.3818 296.594 76.3788 296.39 76.5227C296.186 76.6666 296.105 76.9028 296.209 77.0504C296.312 77.198 296.561 77.201 296.765 77.0571Z" fill="#B56F35"/>
<path opacity="0.5" d="M297.561 77.0244C297.765 76.8805 297.846 76.6442 297.742 76.4967C297.639 76.3491 297.39 76.3461 297.186 76.49C296.982 76.6339 296.901 76.8701 297.005 77.0177C297.108 77.1652 297.357 77.1682 297.561 77.0244Z" fill="#B56F35"/>
<path opacity="0.5" d="M263.814 91.4924C264.061 91.523 264.28 91.4022 264.302 91.2228C264.324 91.0433 264.141 90.873 263.894 90.8425C263.646 90.8119 263.428 90.9326 263.405 91.1121C263.383 91.2915 263.566 91.4618 263.814 91.4924Z" fill="#B56F35"/>
<path opacity="0.5" d="M270.294 93.8674C270.542 93.8979 270.761 93.7772 270.783 93.5977C270.805 93.4183 270.622 93.248 270.375 93.2175C270.127 93.1869 269.909 93.3076 269.886 93.487C269.864 93.6665 270.047 93.8368 270.294 93.8674Z" fill="#B56F35"/>
<path opacity="0.5" d="M272.956 94.0685C273.204 94.0991 273.423 93.9784 273.445 93.7989C273.467 93.6195 273.284 93.4492 273.037 93.4186C272.789 93.3881 272.57 93.5088 272.548 93.6882C272.526 93.8677 272.709 94.038 272.956 94.0685Z" fill="#B56F35"/>
<path opacity="0.5" d="M271.966 93.0319C272.214 93.0625 272.432 92.9418 272.455 92.7623C272.477 92.5828 272.294 92.4126 272.047 92.382C271.799 92.3514 271.58 92.4722 271.558 92.6516C271.536 92.8311 271.719 93.0013 271.966 93.0319Z" fill="#B56F35"/>
<path opacity="0.5" d="M298.199 100.62C298.272 100.38 298.191 100.144 298.019 100.092C297.847 100.039 297.649 100.191 297.577 100.431C297.504 100.67 297.584 100.907 297.756 100.959C297.928 101.011 298.126 100.86 298.199 100.62Z" fill="#B56F35"/>
<path opacity="0.5" d="M289.687 96.34C289.76 96.0992 289.678 95.8617 289.506 95.8095C289.333 95.7573 289.134 95.9102 289.062 96.151C288.989 96.3917 289.07 96.6292 289.243 96.6814C289.416 96.7336 289.615 96.5808 289.687 96.34Z" fill="#B56F35"/>
<path opacity="0.5" d="M304.611 80.8108C304.684 80.5712 304.603 80.3347 304.432 80.2824C304.26 80.23 304.061 80.3818 303.989 80.6214C303.916 80.8609 303.997 81.0976 304.168 81.1499C304.34 81.2022 304.539 81.0504 304.611 80.8108Z" fill="#B56F35"/>
<path opacity="0.5" d="M308.635 83.1361C308.707 82.8965 308.627 82.6599 308.455 82.6076C308.283 82.5553 308.085 82.7071 308.012 82.9466C307.94 83.1862 308.02 83.4228 308.192 83.4751C308.364 83.5274 308.562 83.3756 308.635 83.1361Z" fill="#B56F35"/>
<path opacity="0.5" d="M308.07 81.6737C308.143 81.4341 308.063 81.1975 307.891 81.1452C307.719 81.0929 307.521 81.2447 307.448 81.4842C307.375 81.7238 307.456 81.9604 307.628 82.0127C307.799 82.065 307.998 81.9132 308.07 81.6737Z" fill="#B56F35"/>
<path opacity="0.5" d="M309.779 91.2459C309.852 91.0064 309.772 90.7698 309.6 90.7175C309.428 90.6652 309.23 90.8169 309.157 91.0565C309.084 91.2961 309.165 91.5326 309.337 91.585C309.509 91.6373 309.707 91.4855 309.779 91.2459Z" fill="#B56F35"/>
<path opacity="0.5" d="M311.168 100.466C311.259 100.233 311.198 99.9906 311.031 99.9247C310.863 99.8588 310.654 99.9942 310.562 100.227C310.471 100.46 310.532 100.702 310.699 100.768C310.867 100.834 311.076 100.699 311.168 100.466Z" fill="#B56F35"/>
<path opacity="0.5" d="M310.367 101.327C310.458 101.094 310.397 100.852 310.23 100.786C310.062 100.72 309.853 100.856 309.761 101.088C309.67 101.321 309.731 101.564 309.898 101.63C310.066 101.696 310.275 101.56 310.367 101.327Z" fill="#B56F35"/>
<path opacity="0.5" d="M309.483 103.857C309.574 103.624 309.513 103.382 309.346 103.316C309.178 103.25 308.969 103.385 308.877 103.618C308.786 103.851 308.847 104.093 309.014 104.159C309.182 104.225 309.391 104.09 309.483 103.857Z" fill="#B56F35"/>
<path opacity="0.5" d="M308.827 104.321C308.919 104.088 308.858 103.846 308.69 103.78C308.523 103.714 308.314 103.85 308.222 104.083C308.131 104.316 308.192 104.558 308.359 104.624C308.526 104.69 308.736 104.554 308.827 104.321Z" fill="#B56F35"/>
<path opacity="0.5" d="M282.729 85.5355C282.933 85.3917 283.014 85.1554 282.911 85.0079C282.807 84.8603 282.558 84.8573 282.354 85.0012C282.15 85.1451 282.069 85.3814 282.173 85.5289C282.276 85.6765 282.525 85.6794 282.729 85.5355Z" fill="#B56F35"/>
<path opacity="0.5" d="M283.982 85.7832C284.186 85.6393 284.267 85.403 284.163 85.2555C284.06 85.1079 283.811 85.1049 283.607 85.2488C283.403 85.3927 283.322 85.6289 283.425 85.7765C283.529 85.9241 283.778 85.9271 283.982 85.7832Z" fill="#B56F35"/>
<path opacity="0.5" d="M286.116 84.1464C286.319 84.0026 286.401 83.7663 286.297 83.6188C286.193 83.4712 285.944 83.4682 285.741 83.6121C285.537 83.7559 285.456 83.9922 285.559 84.1398C285.663 84.2873 285.912 84.2903 286.116 84.1464Z" fill="#B56F35"/>
<path opacity="0.5" d="M285.261 84.3183C285.464 84.1745 285.546 83.9382 285.442 83.7906C285.338 83.6431 285.089 83.6401 284.886 83.7839C284.682 83.9278 284.601 84.1641 284.704 84.3116C284.808 84.4592 285.057 84.4622 285.261 84.3183Z" fill="#B56F35"/>
<path d="M226.499 79.2716L229.668 72.0495L230.366 72.1357L230.865 75.471C230.997 74.3962 231.358 73.3241 231.59 72.2615L233.833 72.5385L235.304 72.7201L237.194 80.5668L232.2 82.4879L226.499 79.2716Z" fill="#9E7646" stroke="#9E7646" stroke-width="0.25" stroke-miterlimit="10"/>
<path d="M226.689 77.3417C225.644 77.3162 224.6 77.3998 223.572 77.5912C219.517 78.4609 216.363 90.6843 216.363 90.6843C213.944 100.029 212.695 105.636 215.672 110.419C217.235 112.921 219.982 114.859 221.224 114.023C222.466 113.187 221.122 109.519 221.622 102.195C221.83 98.9167 222.367 95.6672 223.224 92.4958C225.588 84.21 229.977 78.7882 228.758 77.5971C228.53 77.3914 227.926 77.3675 226.689 77.3417Z" fill="#E58910" stroke="#C67409" stroke-miterlimit="10"/>
<path d="M223.138 113.523C221.307 111.952 221.686 108.269 222.13 101.192C222.287 97.995 222.865 94.8322 223.848 91.7862C224.414 90.1237 225.12 88.5129 225.961 86.9715C225.961 86.9715 226.793 84.5365 228.657 80.3002C229.713 77.8928 230.009 77.3456 230.551 77.2602C231.862 77.0922 233.659 79.5474 234.475 81.9575C235.556 85.2886 234.34 87.1434 233.79 93.6483C233.598 95.9267 233.527 98.2136 233.577 100.499C233.82 108.777 235.855 112.175 233.857 114.01C232.998 114.817 231.852 114.879 229.615 114.958C227.354 115.272 225.056 114.763 223.138 113.523V113.523Z" fill="#E58910" stroke="#C67409" stroke-miterlimit="10"/>
<path d="M233.561 78.2662C232.569 79.5395 235.677 81.6236 235.305 85.6634C235.185 86.6383 234.603 89.9164 234.617 91.2377C234.631 92.5591 234.535 93.1309 234.51 93.534C234.396 105.727 233.376 112.757 236.004 114.021C237.462 114.708 239.697 113.411 240.848 112.081C242.802 109.785 241.762 107.347 241.409 98.5225C241.236 93.9838 241.215 91.6972 241.215 88.8294C241.184 83.547 241.059 80.867 240.204 79.7971C238.333 77.5357 234.492 77.0868 233.561 78.2662Z" fill="#E58910" stroke="#C67409" stroke-miterlimit="10"/>
<path d="M241.306 83.3581C241.683 85.6562 241.827 87.9867 241.738 90.3142C241.767 94.1752 241.468 94.7474 241.656 97.7398C241.82 100.095 241.995 100.116 242.19 102.222C242.758 108.89 241.155 112.042 242.735 112.973C243.892 113.649 245.666 112.802 246.525 112.197C247.295 111.528 247.925 110.712 248.377 109.796C248.829 108.88 249.094 107.883 249.157 106.863C250.879 95.1735 252.211 85.8213 246.512 81.1586C244.426 79.4037 241.303 78.2568 240.491 79.0955C239.679 79.9343 240.745 80.7257 241.306 83.3581Z" fill="#E58910" stroke="#C67409" stroke-miterlimit="10"/>
<path d="M220.987 77.653C221.592 78.4891 220.462 79.6439 217.989 85.1246C216.411 88.5356 215.191 92.1016 214.347 95.765C214.22 96.4593 214.133 97.1604 214.088 97.8648C213.548 102.239 213.162 105.364 214.624 108.691C215.055 109.709 216.081 111.028 215.571 111.879C215.061 112.729 212.924 112.821 211.856 112.461C205.791 110.341 203.866 84.9541 213.923 78.7095C216.317 77.1525 220.072 76.4489 220.987 77.653Z" fill="#E58910" stroke="#C67409" stroke-miterlimit="10"/>
<path d="M47.2571 85.9952C44.3406 85.229 39.5858 83.9821 38.8624 80.6191C38.139 77.256 42.645 73.3459 43.0621 73.0421C42.8706 72.2256 42.9088 71.3717 43.1724 70.5754C43.436 69.7791 43.9147 69.0715 44.5553 68.5316C45.0324 68.1631 45.5801 67.8975 46.1642 67.7513C46.7483 67.6051 47.3562 67.5814 47.9496 67.6818C46.9137 65.9095 46.4431 63.8616 46.6011 61.8126C46.7592 59.7637 47.5382 57.8117 48.8337 56.2187C49.9899 55.2032 51.3468 54.4442 52.8156 53.9914C54.2844 53.5386 55.8318 53.4022 57.3564 53.5913C58.7603 53.7072 60.1363 54.0485 61.4319 54.602C61.3087 54.1135 61.3726 53.5962 61.611 53.1522C61.8228 52.7377 62.1531 52.3958 62.5595 52.1702C62.966 51.9447 63.4302 51.8457 63.8928 51.8859C64.9704 50.4306 66.3409 49.2187 67.9155 48.3289C69.4901 47.439 71.2335 46.8911 73.0325 46.7208C79.829 46.3926 83.9948 52.8201 84.7688 54.1338C85.8494 55.9286 86.5583 57.9235 86.8532 59.9997C87.3114 59.4488 87.9614 59.0935 88.6712 59.006C90.6178 58.815 92.913 61.1286 93.9609 64.9378C94.3777 64.6898 94.8449 64.5394 95.3276 64.498C95.8103 64.4565 96.2961 64.525 96.7485 64.6983C99.1051 66.1059 98.8342 74.4472 94.5954 77.832C92.0373 79.9016 89.7776 78.7343 83.5581 79.7174C78.4006 80.5018 78.0405 81.5739 71.4048 83.673C64.1744 85.8763 55.9786 88.3156 47.2571 85.9952Z" fill="#5DAF67" stroke="#5A9E61" stroke-width="0.25" stroke-miterlimit="10"/>
<path d="M59.4491 83.1601C61.4369 86.8158 62.745 90.8039 63.3095 94.93L64.9013 100.481L67.1784 100.483L68.1256 95.2709C68.7102 97.0941 69.2948 98.9174 69.9821 100.728L73.2248 100.697C72.1594 97.4605 72.0699 93.9802 72.9673 90.6916C74.1742 86.4503 76.8537 84.218 79.5304 76.8844C79.9186 75.7903 80.2072 74.887 80.4059 74.3024C79.8056 75.2536 78.9809 76.0419 78.0048 76.5977C77.0288 77.1535 75.9314 77.4598 74.8096 77.4894C73.6879 77.5189 72.5763 77.2709 71.5733 76.7673C70.5702 76.2636 69.7065 75.5198 69.0584 74.6016C69.2368 75.2468 69.2347 75.9289 69.0525 76.5733C68.8703 77.2177 68.5149 77.7996 68.0253 78.2553C67.5857 78.5628 67.0854 78.7721 66.5583 78.869C66.0312 78.9659 65.4896 78.9482 64.9701 78.8171C63.7851 78.6092 62.6962 78.0306 61.8595 77.1641C61.9884 78.1697 61.6898 78.5389 61.5155 78.7204C61.3413 78.9019 59.9674 78.7576 57.5024 77.8188L54.2553 76.6565C56.3384 78.5165 58.0942 80.7151 59.4491 83.1601V83.1601Z" fill="#548E58" stroke="#548E58" stroke-width="0.75" stroke-miterlimit="10"/>
<path d="M46.6796 81.8882C45.9212 81.3854 45.3832 80.6109 45.1757 79.7231C45.0638 78.7885 45.2881 77.8444 45.8081 77.0603C46.0539 76.6402 46.3483 76.2506 46.6852 75.8998C47.0561 75.5286 47.4786 75.2132 47.9395 74.9634C47.025 75.8353 46.4101 76.9759 46.1837 78.2206C45.9572 79.4652 46.1309 80.7495 46.6796 81.8882V81.8882Z" fill="#5A9E61" stroke="#5A9E61" stroke-width="0.12" stroke-miterlimit="10"/>
<path d="M57.7402 63.0015C58.1657 61.9964 58.9518 61.1878 59.943 60.7357C60.5567 60.4898 61.2185 60.3892 61.8771 60.4416C62.1152 59.7995 62.4984 59.2214 62.9965 58.7526C63.4762 58.2931 64.063 57.9613 64.7033 57.7877C65.3435 57.614 66.0169 57.6041 66.6617 57.7587C67.5868 58.111 68.3362 58.8143 68.7479 59.7166C69.0719 59.5378 69.4438 59.4659 69.8107 59.5112C70.1776 59.5565 70.5208 59.7167 70.7916 59.9689C71.0521 60.2713 71.1933 60.6588 71.1885 61.0585C71.0045 60.748 70.7377 60.4953 70.4182 60.3289C70.1502 60.2108 69.8603 60.1514 69.5675 60.1547C69.2748 60.1579 68.986 60.2237 68.7206 60.3477C68.2628 59.5793 67.5429 59.0036 66.694 58.727C66.2479 58.5545 65.7677 58.4891 65.2918 58.5361C64.8158 58.5831 64.3574 58.7412 63.9531 58.9976C63.3477 59.408 62.925 60.0384 62.7745 60.7554C61.9728 60.8902 61.1892 61.1171 60.4391 61.4314C59.4694 61.823 58.5606 62.3517 57.7402 63.0015V63.0015Z" fill="#5A9E61" stroke="#5A9E61" stroke-width="0.12" stroke-miterlimit="10"/>
<path d="M75.5521 66.1157C76.2396 66.0039 76.94 65.9963 77.6297 66.0931C78.6596 66.0931 79.6593 66.4399 80.4686 67.0781C80.5678 67.2277 80.6585 67.383 80.7401 67.543C80.8771 67.8484 80.9567 68.1765 80.9748 68.511C81.1644 68.1322 81.2179 67.6996 81.1261 67.2861C80.819 65.6748 77.5531 64.4594 75.4237 65.5162C74.9665 65.7414 74.5639 66.0641 74.2442 66.4617C74.6652 66.2957 75.1042 66.1795 75.5521 66.1157V66.1157Z" fill="#5A9E61" stroke="#5A9E61" stroke-width="0.12" stroke-miterlimit="10"/>
<path d="M89.4736 67.4792C89.7793 67.7455 90.0478 68.0518 90.2721 68.3899C90.7829 69.176 91.0644 70.0897 91.085 71.028C91.3602 70.6211 91.545 70.1596 91.6267 69.6749C91.7084 69.1902 91.6851 68.6936 91.5584 68.2188C90.9209 66.4144 88.3944 66.1786 88.0953 66.1416C87.6429 66.1092 87.1882 66.1385 86.7435 66.2285C87.7596 66.3564 88.7122 66.7928 89.4736 67.4792Z" fill="#5A9E61" stroke="#5A9E61" stroke-width="0.12" stroke-miterlimit="10"/>
<path d="M61.013 70.4862C61.0071 70.0623 61.1475 69.6493 61.4104 69.3171C61.7352 68.9745 62.1763 68.7664 62.6464 68.7338C62.89 68.7349 63.1326 68.7648 63.3692 68.8231C63.6215 68.8188 63.8732 68.8499 64.1169 68.9154C63.4904 68.8193 62.8496 68.9307 62.2918 69.2328C61.7339 69.5349 61.2894 70.0111 61.0256 70.5893L61.013 70.4862Z" fill="#5A9E61" stroke="#5A9E61" stroke-width="0.12" stroke-miterlimit="10"/>
<path d="M121.377 84.3356L116.038 75.5299C117.061 75.4993 118.069 75.2704 119.005 74.8559C119.973 74.4228 120.843 73.7961 121.561 73.0143L121.377 84.3356Z" fill="#7C6745" stroke="#685130" stroke-width="0.25" stroke-miterlimit="10"/>
<path d="M121.91 85.5679C120.657 84.1771 119.109 83.0848 117.381 82.3709C115.652 81.6569 113.786 81.3393 111.919 81.4411C109.32 81.9415 106.955 83.2784 105.182 85.2487C103.409 87.2191 102.325 89.7153 102.094 92.3585C101.785 94.8582 104.051 98.4371 108.411 105.548C113.26 113.405 115.212 115.22 116.966 114.954C118.719 114.688 119.713 111.766 121.741 111.94C123.769 112.114 123.958 114.472 125.5 114.688C127.043 114.904 129.245 112.029 131.959 107.872C138.81 97.4758 139.299 98.0185 139.86 95.5246C139.978 94.5747 142.113 85.271 136.749 81.7916C132.902 79.3371 126.471 80.5987 121.91 85.5679Z" fill="#F97253" stroke="#E56A55" stroke-width="0.25" stroke-miterlimit="10"/>
<path d="M122.826 81.596C123.446 79.5959 124.762 77.8851 126.534 76.7752C128.09 75.6376 129.925 74.9433 131.842 74.766C132.783 74.6781 133.732 74.7268 134.659 74.9107C134.502 76.3178 134.065 77.6792 133.373 78.9138C132.681 80.1484 131.749 81.2309 130.631 82.0969C129.514 82.9629 128.234 83.5947 126.869 83.9547C125.503 84.3146 124.08 84.3954 122.683 84.1922C122.58 83.3251 122.629 82.4466 122.826 81.596V81.596Z" fill="#5DAF67" stroke="#5DAF67" stroke-width="0.75" stroke-miterlimit="10"/>
<path d="M121.897 84.6283C124.187 83.2391 126.375 81.6857 128.442 79.9803C130.746 78.2509 132.938 76.3771 135.005 74.3701C132.774 75.7415 130.634 77.2575 128.6 78.9085C126.951 80.1767 125.475 81.4665 124.685 82.1302C123.895 82.794 121.85 84.5971 121.897 84.6283Z" fill="#5A9E61" stroke="#5A9E61" stroke-width="0.1" stroke-miterlimit="10"/>
<path d="M120.064 74.2757L121.029 82.6428C119.977 80.1019 118.896 77.5829 117.819 75.039" stroke="#60492C" stroke-width="0.2" stroke-miterlimit="10"/>
<path d="M107.673 87.5163C107.936 87.9461 108.329 88.2796 108.796 88.467C109.187 88.6395 109.621 88.693 110.042 88.6209C109.463 89.9767 109.074 91.406 108.885 92.8684C108.636 94.717 108.73 96.5958 109.162 98.4096C107.677 96.6581 106.809 94.4636 106.694 92.1665C106.646 90.5606 106.982 88.9661 107.673 87.5163V87.5163Z" fill="white"/>
<path d="M177.018 64.2547C174.674 65.6046 172.47 67.1858 170.439 68.9746L173.71 74.6571L168.214 71.2123C164.307 74.0267 161.488 78.1072 160.234 82.7636C159.568 85.4334 159.466 88.213 159.935 90.9237L167.34 94.0713L160.68 93.9088C161.397 96.1947 162.384 98.3866 163.618 100.438C164.789 102.464 166.197 104.341 167.811 106.032C168.741 105.891 169.637 105.58 170.455 105.115C171.219 104.678 171.892 104.097 172.437 103.405L170.793 101.147L174.762 101.789C175.456 101.291 176.156 100.743 176.86 100.17C180.387 97.2453 183.483 93.834 186.056 90.0379L178.756 85.6344L187.35 85.9089C187.978 81.6682 187.825 77.3487 186.9 73.1643C185.988 69.1181 184.354 65.2711 182.077 61.8086C180.335 62.5021 178.645 63.3195 177.018 64.2547V64.2547Z" fill="#992E11" stroke="#992E11" stroke-width="0.75" stroke-miterlimit="10"/>
<path d="M182.054 61.3756C181.841 55.1064 180.546 53.0939 179.16 52.4405C178.754 52.2382 177.548 51.7594 174.818 50.5086L173.525 49.9175C173.427 50.3612 173.371 50.8132 173.358 51.2673C173.29 52.8372 173.678 54.3927 174.475 55.7449C176.314 58.4082 178.978 60.3876 182.054 61.3756V61.3756Z" fill="#2E6031" stroke="#336D33" stroke-width="0.15" stroke-miterlimit="10"/>
<path d="M181.987 60.8845C182.123 59.5704 182.565 58.3066 183.278 57.1954C183.991 56.0843 184.955 55.1569 186.092 54.4885C187.107 53.979 188.234 53.734 189.368 53.7764C189.83 53.7708 190.292 53.8277 190.739 53.9457C190.557 53.9989 190.385 54.0804 190.228 54.1872C188.831 55.0551 188.876 56.9387 188.473 57.9547C188.069 58.9707 186.494 60.4512 181.987 60.8845Z" fill="#447F49" stroke="#357235" stroke-width="0.15" stroke-miterlimit="10"/>
<path d="M182.062 61.7562C180.957 59.5708 179.068 57.8868 176.774 57.0428C175.232 56.4662 173.553 56.3648 171.952 56.7519C171.515 56.9542 171.046 57.0767 170.566 57.1137C169.942 57.1843 169.31 57.1063 168.722 56.886C169.403 57.6293 170.171 58.2866 171.01 58.8435C172.659 59.8059 174.457 60.4827 176.33 60.8454C178.216 61.2893 180.132 61.5937 182.062 61.7562Z" fill="#468C48" stroke="#336D33" stroke-width="0.15" stroke-miterlimit="10"/>
<path d="M182.329 61.2053C183.663 60.8548 185.029 60.6408 186.405 60.5667C187.169 60.4644 187.946 60.5171 188.689 60.7217C189.725 61.2826 190.653 62.0245 191.429 62.9127L191.994 63.4646C191.641 63.6687 191.273 63.8439 190.892 63.9884C189.742 64.3425 188.53 64.4438 187.338 64.2855C185.348 63.9095 183.565 62.8133 182.329 61.2053V61.2053Z" fill="#2E6031" stroke="#336D33" stroke-width="0.15" stroke-miterlimit="10"/>
<path d="M186.994 72.9978C186.253 72.8573 185.504 72.7648 184.751 72.7208C184.206 72.5134 183.678 72.2615 183.174 71.9678C183.557 72.5347 184.088 72.9862 184.708 73.2738C185.406 73.637 186.187 73.812 186.973 73.7819C186.973 73.7819 187.861 73.7647 187.836 73.5585C187.81 73.3524 187.115 73.0382 186.994 72.9978Z" fill="#681F0F"/>
<path d="M187.491 84.3793C186.775 84.2423 186.051 84.1529 185.323 84.1116C184.789 83.926 184.276 83.6839 183.792 83.3896C184.149 83.9551 184.667 84.3995 185.28 84.6646C185.952 85.0252 186.708 85.1975 187.47 85.1634C187.47 85.1634 188.311 85.115 188.308 84.9369C188.305 84.7589 187.588 84.4166 187.491 84.3793Z" fill="#681F0F"/>
<path d="M176.193 100.013C175.039 99.312 174.532 99.5286 173.51 98.9963C172.873 98.5902 172.269 98.1338 171.705 97.6313C171.705 97.6313 172.27 98.7924 173.302 99.6558C174.08 100.301 175.012 100.731 176.007 100.903C176.156 100.922 177.128 101.042 177.15 100.867C177.172 100.692 176.336 100.081 176.193 100.013Z" fill="#681F0F"/>
<path d="M187.115 74.6889C186.216 74.4371 185.302 74.2396 184.38 74.0974C183.7 73.8317 183.046 73.5046 182.425 73.1201C182.937 73.8023 183.608 74.3472 184.38 74.7065C185.232 75.1689 186.176 75.433 187.144 75.4792C187.294 75.4977 188.216 75.6116 188.178 75.3024C188.14 74.9932 187.265 74.7074 187.115 74.6889Z" fill="#681F0F"/>
<path d="M170.217 88.4119C171.442 88.9438 171.613 89.1934 172.592 89.6695C173.57 90.1457 174.701 90.4122 174.695 90.4622C173.857 90.3359 173.035 90.1152 172.246 89.8045C171.344 89.4895 170.478 89.0764 169.666 88.5723C169.666 88.5723 168.821 88.0365 168.977 88.005C169.401 88.1044 169.816 88.2405 170.217 88.4119V88.4119Z" fill="#681F0F"/>
<path d="M167.33 84.9343C168.605 85.6754 168.708 86.0689 169.637 86.7419C170.566 87.4149 171.868 87.728 171.856 87.828C170.922 87.702 170.016 87.4185 169.176 86.9895C168.202 86.5526 167.31 85.9532 166.536 85.2169C166.411 85.2016 165.719 84.4563 165.93 84.3809C166.142 84.3055 167.202 84.7409 167.33 84.9343Z" fill="#681F0F"/>
<path d="M172.157 67.9443C173.217 68.7858 173.215 69.2169 174.081 69.9837C174.663 70.4526 175.279 70.8765 175.924 71.2517C175.054 71.0858 174.234 70.7242 173.524 70.1941C172.702 69.6528 171.981 68.9711 171.394 68.18C171.394 68.18 170.792 67.3189 171.001 67.2686C171.209 67.2182 172.054 67.754 172.157 67.9443Z" fill="#681F0F"/>
<path d="M163.544 76.4475C164.731 77.0763 164.825 77.5447 165.866 78.13C166.541 78.4735 167.241 78.7636 167.961 78.9977C167.111 79.0417 166.264 78.8849 165.487 78.54C164.552 78.2052 163.702 77.667 162.999 76.9639C162.999 76.9639 162.26 76.1875 162.428 76.0559C162.596 75.9244 163.4 76.379 163.544 76.4475Z" fill="#681F0F"/>
<path d="M167.182 99.8125C166.924 99.7309 166.675 99.6235 166.438 99.4921C165.861 99.2433 165.808 99.2621 165.571 99.1314C165.347 99.0003 165.138 98.8468 164.945 98.6733C165.18 99.0411 165.497 99.3494 165.871 99.5744C166.231 99.7817 166.624 99.9247 167.033 99.9971L167.282 100.028C167.474 100.03 167.665 100.002 167.849 99.9456C167.623 99.9243 167.4 99.8797 167.182 99.8125V99.8125Z" fill="#681F0F"/>
<path d="M167.972 99.8083L168.247 99.8422L168.496 99.873C168.68 99.9347 168.875 99.9588 169.069 99.9437C168.804 99.8805 168.565 99.7357 168.386 99.5295L168.209 99.3299C167.917 99.1418 167.582 99.0307 167.236 99.0069C166.865 98.898 166.545 98.6606 166.332 98.3369C166.53 98.7274 166.806 99.0726 167.143 99.3507C167.398 99.539 167.677 99.6929 167.972 99.8083V99.8083Z" fill="#681F0F"/>
<path d="M176.589 99.731C176.33 99.6494 176.081 99.542 175.844 99.4106C175.545 99.3095 175.256 99.1804 174.981 99.0248C174.752 98.9104 174.54 98.7647 174.351 98.5918C174.594 98.9528 174.91 99.2596 175.277 99.4929C175.637 99.7002 176.03 99.8432 176.439 99.9156L176.689 99.9464C176.884 99.9539 177.079 99.9172 177.259 99.8391C177.031 99.8414 176.804 99.8049 176.589 99.731V99.731Z" fill="#681F0F"/>
<path d="M177.414 99.7307L177.689 99.7645L177.938 99.7953C178.122 99.857 178.317 99.8811 178.511 99.8661C178.251 99.791 178.015 99.6481 177.828 99.4519L177.651 99.2523C177.359 99.0642 177.024 98.953 176.678 98.9292C176.307 98.8204 175.987 98.583 175.774 98.2593C175.972 98.6498 176.248 98.9949 176.585 99.273C176.84 99.4614 177.119 99.6152 177.414 99.7307V99.7307Z" fill="#681F0F"/>
<path d="M173.706 71.8145L172.961 71.4941L172.123 71.1115C171.889 70.9902 171.67 70.8439 171.468 70.6753C171.718 71.0312 172.032 71.3369 172.394 71.5764C172.754 71.7819 173.149 71.9169 173.56 71.9741L173.834 72.0079C174.022 72.0152 174.208 71.9774 174.379 71.8976L173.706 71.8145Z" fill="#681F0F"/>
<path d="M174.496 71.7858L174.77 71.8196L174.97 71.8442C175.149 71.8905 175.333 71.9133 175.518 71.9119C175.26 71.8327 175.025 71.6903 174.835 71.4977L174.658 71.2981C174.389 71.0112 174.028 71.0681 173.685 70.9751C173.317 70.8631 173.004 70.6161 172.809 70.2832C172.986 70.6854 173.254 71.0402 173.592 71.3189C173.869 71.5179 174.174 71.6752 174.496 71.7858Z" fill="#681F0F"/>
<path d="M179.876 87.0171L180.525 87.5032C180.759 87.7031 181.007 87.8864 181.267 88.0516L181.959 88.3908C181.53 88.3517 181.115 88.2226 180.74 88.012C180.374 87.8152 180.054 87.542 179.802 87.2109L179.649 87.0144C179.554 86.8387 179.483 86.6506 179.439 86.4556C179.563 86.6588 179.71 86.8472 179.876 87.0171Z" fill="#681F0F"/>
<path d="M179.49 86.4363L179.259 86.2556L179.082 86.056C178.966 85.8995 178.877 85.7257 178.816 85.541C179.002 85.7348 179.24 85.8701 179.502 85.9303L179.776 85.9641C180.175 86.0133 180.303 86.4098 180.552 86.6437C180.827 86.9181 181.199 87.0734 181.587 87.0759C181.211 87.1103 180.833 87.0692 180.473 86.9551C180.114 86.841 179.78 86.6562 179.493 86.4114L179.49 86.4363Z" fill="#681F0F"/>
<path d="M164.013 78.6115C164.217 78.7894 164.433 78.9518 164.661 79.0977L165.425 79.6742C165.642 79.8093 165.876 79.9149 166.12 79.9884C165.684 79.9623 165.258 79.8405 164.874 79.6314C164.519 79.4183 164.202 79.1476 163.935 78.8303L163.785 78.6088C163.707 78.4381 163.644 78.2604 163.598 78.0781C163.714 78.272 163.854 78.4511 164.013 78.6115V78.6115Z" fill="#681F0F"/>
<path d="M184.685 72.231L183.94 71.9106L183.077 71.5248C182.854 71.4006 182.643 71.2556 182.447 71.0918C182.686 71.4508 183.004 71.7504 183.376 71.9679C183.736 72.1751 184.13 72.3182 184.539 72.3906L184.788 72.4213C184.982 72.417 185.175 72.3807 185.358 72.3141L184.685 72.231Z" fill="#681F0F"/>
<path d="M185.469 72.201C185.558 72.2272 185.65 72.2386 185.743 72.2349L185.992 72.2657C186.176 72.3311 186.372 72.3552 186.566 72.3364C186.31 72.2511 186.077 72.1096 185.883 71.9222C185.883 71.9222 185.898 71.7972 185.705 71.7226C185.512 71.648 185.051 71.4896 184.733 71.3996C184.368 71.2666 184.054 71.0238 183.832 70.7046C184.029 71.0951 184.306 71.4402 184.643 71.7183C184.888 71.9262 185.168 72.0895 185.469 72.201V72.201Z" fill="#681F0F"/>
<path d="M179.161 87.8919L178.319 87.5342C177.997 87.4261 177.684 87.294 177.381 87.1393C177.129 87.0053 176.894 86.8399 176.683 86.647C176.94 87.0575 177.286 87.404 177.696 87.6604C178.093 87.8878 178.53 88.0365 178.983 88.0984L179.258 88.1322C179.481 88.1206 179.701 88.0705 179.908 87.9842C179.657 87.981 179.406 87.95 179.161 87.8919V87.8919Z" fill="#681F0F"/>
<path d="M180.028 87.8216C180.133 87.8496 180.242 87.8631 180.352 87.8616L180.576 87.8893C180.79 87.9095 181.006 87.8932 181.215 87.8413C180.941 87.7508 180.691 87.5985 180.485 87.3959L180.289 87.1433C179.974 86.8252 179.584 86.904 179.214 86.8329C178.805 86.7039 178.46 86.4258 178.247 86.0537C178.439 86.5009 178.727 86.9003 179.089 87.2236C179.372 87.4667 179.688 87.6681 180.028 87.8216Z" fill="#681F0F"/>
<path d="M167.207 102.685L166.948 102.526L166.724 102.498C166.599 102.354 166.492 102.196 166.403 102.027C166.611 102.189 166.865 102.282 167.129 102.294L167.403 102.328C167.802 102.377 167.989 102.705 168.269 102.892C168.585 103.111 168.97 103.204 169.351 103.152C168.927 103.258 168.484 103.264 168.058 103.17C167.754 103.046 167.468 102.883 167.207 102.685Z" fill="#681F0F"/>
<path d="M167.111 104.347C166.81 104.335 166.509 104.298 166.214 104.236L165.217 104.113C164.947 104.015 164.691 103.881 164.457 103.714C164.771 104.086 165.168 104.378 165.616 104.568C166.041 104.711 166.49 104.766 166.937 104.731L167.236 104.768C167.452 104.713 167.658 104.627 167.85 104.514C167.597 104.493 167.348 104.437 167.111 104.347V104.347Z" fill="#681F0F"/>
<path d="M167.96 104.172L168.559 104.246C168.774 104.228 168.985 104.177 169.185 104.094C168.896 104.058 168.622 103.945 168.39 103.768L168.162 103.562C167.816 103.291 167.415 103.47 167.041 103.424C166.615 103.359 166.228 103.139 165.953 102.807C166.212 103.225 166.568 103.574 166.991 103.824C167.295 103.988 167.622 104.105 167.96 104.172Z" fill="#681F0F"/>
<path d="M180.224 64.118L179.479 63.7976L178.532 63.4776C178.299 63.3564 178.079 63.2102 177.877 63.0415C178.137 63.3978 178.46 63.704 178.828 63.9456C179.188 64.1512 179.584 64.2861 179.994 64.3433L180.243 64.3741C180.439 64.3816 180.633 64.345 180.813 64.2668C180.612 64.236 180.415 64.1861 180.224 64.118Z" fill="#681F0F"/>
<path d="M180.983 64.0841L181.282 64.1211L181.531 64.1518C181.71 64.1981 181.895 64.2209 182.08 64.2195C181.829 64.1403 181.603 63.9989 181.422 63.8084C181.351 63.7535 181.291 63.6858 181.244 63.6088C180.951 63.3189 180.59 63.3758 180.272 63.2858C179.892 63.1811 179.569 62.9316 179.371 62.5908C179.558 62.9943 179.834 63.3496 180.179 63.6296C180.423 63.8203 180.694 63.9735 180.983 64.0841V64.0841Z" fill="#681F0F"/>
<path d="M180.024 65.1082L180.673 65.5943C181.184 65.962 181.178 66.012 181.415 66.1428C181.644 66.275 181.884 66.3894 182.131 66.485C181.695 66.4477 181.271 66.3175 180.888 66.1031C180.526 65.9004 180.207 65.6282 179.95 65.302L179.797 65.1055C179.696 64.9356 179.634 64.7461 179.612 64.5498C179.726 64.7524 179.864 64.94 180.024 65.1082V65.1082Z" fill="#681F0F"/>
<path d="M179.648 64.4015L179.442 64.2238L179.265 64.0242C179.132 63.8792 179.041 63.7015 178.999 63.5093C179.182 63.7068 179.422 63.8427 179.685 63.8985L179.934 63.9293C180.333 63.9785 180.486 64.3781 180.711 64.6088C180.991 64.8748 181.359 65.0286 181.745 65.0411C181.315 65.0763 180.883 65.0228 180.474 64.8842C180.179 64.7604 179.901 64.5981 179.648 64.4015V64.4015Z" fill="#681F0F"/>
<path d="M162.787 91.9861C162.414 91.9031 162.047 91.7984 161.687 91.6726C160.861 91.393 160.808 91.4119 160.447 91.2658C160.101 91.1386 159.764 90.9868 159.44 90.8115C160.357 91.5572 161.465 92.0284 162.637 92.1707L162.986 92.2138C163.231 92.2114 163.475 92.1731 163.709 92.1C163.399 92.0907 163.09 92.0526 162.787 91.9861V91.9861Z" fill="#681F0F"/>
<path d="M163.782 92.1102L164.18 92.1595L164.529 92.2025C164.784 92.2281 165.041 92.2171 165.293 92.1699C164.924 92.0903 164.574 91.9438 164.258 91.7376L163.952 91.5476C163.527 91.3274 163.057 91.2086 162.578 91.2003C162.05 91.0872 161.558 90.8433 161.148 90.4907C161.559 90.9176 162.036 91.2763 162.56 91.5533C162.948 91.7795 163.357 91.966 163.782 92.1102V92.1102Z" fill="#681F0F"/>
<path d="M161.537 90.8432C161.278 90.7716 161.027 90.6726 160.789 90.5478L159.95 90.1651C159.72 90.0392 159.501 89.8933 159.296 89.729C159.541 90.0827 159.858 90.3811 160.225 90.6051C160.585 90.8123 160.978 90.9554 161.387 91.0278L161.661 91.0616C161.848 91.0569 162.033 91.0195 162.206 90.9513C161.979 90.9509 161.753 90.9144 161.537 90.8432Z" fill="#681F0F"/>
<path d="M162.326 90.8387C162.415 90.8649 162.508 90.8763 162.601 90.8726L162.875 90.9064C163.05 90.9695 163.238 90.9927 163.423 90.9741C163.168 90.8888 162.934 90.7473 162.74 90.5599C162.74 90.5599 162.756 90.4349 162.563 90.3603C162.369 90.2857 161.908 90.1272 161.59 90.0372C161.226 89.9042 160.911 89.6615 160.689 89.3423C160.895 89.7274 161.17 90.0711 161.5 90.356C161.749 90.5586 162.028 90.7215 162.326 90.8387V90.8387Z" fill="#681F0F"/>
</g>
<defs>
<filter id="filter0_d" x="42.1509" y="138.508" width="248.749" height="49.7187" filterUnits="userSpaceOnUse" color-interpolation-filters="sRGB">
<feFlood flood-opacity="0" result="BackgroundImageFix"/>
<feColorMatrix in="SourceAlpha" type="matrix" values="0 0 0 0 0 0 0 0 0 0 0 0 0 0 0 0 0 0 127 0"/>
<feOffset dy="4"/>
<feGaussianBlur stdDeviation="2"/>
<feColorMatrix type="matrix" values="0 0 0 0 0 0 0 0 0 0 0 0 0 0 0 0 0 0 0.25 0"/>
<feBlend mode="normal" in2="BackgroundImageFix" result="effect1_dropShadow"/>
<feBlend mode="normal" in="SourceGraphic" in2="effect1_dropShadow" result="shape"/>
</filter>
<clipPath id="clip0">
<rect width="334" height="207" fill="white"/>
</clipPath>
</defs>
</svg>
