<svg width="356" height="166" viewBox="0 0 356 166" fill="none" xmlns="http://www.w3.org/2000/svg">
<g filter="url(#filter0_d)">
<rect x="56.5303" y="115.95" width="240.749" height="41.7187" rx="10" fill="#7C8294"/>
<path d="M74.3122 144.294C73.4962 144.294 72.7162 144.198 71.9722 144.006C71.2402 143.802 70.6702 143.55 70.2622 143.25L71.1982 141.522C71.5942 141.81 72.0922 142.038 72.6922 142.206C73.2922 142.374 73.9102 142.458 74.5462 142.458C75.2662 142.458 75.8062 142.362 76.1662 142.17C76.5382 141.966 76.7242 141.678 76.7242 141.306C76.7242 141.018 76.5682 140.808 76.2562 140.676C75.9562 140.544 75.4762 140.406 74.8162 140.262C74.1322 140.13 73.5682 139.992 73.1242 139.848C72.6922 139.692 72.3142 139.446 71.9902 139.11C71.6782 138.762 71.5222 138.288 71.5222 137.688C71.5222 136.692 71.9362 135.906 72.7642 135.33C73.6042 134.742 74.7142 134.448 76.0942 134.448C76.7542 134.448 77.3962 134.526 78.0202 134.682C78.6442 134.826 79.1542 135.024 79.5502 135.276L78.7222 137.004C78.3262 136.752 77.8762 136.566 77.3722 136.446C76.8802 136.326 76.3822 136.266 75.8782 136.266C75.1702 136.266 74.6302 136.374 74.2582 136.59C73.8982 136.806 73.7182 137.088 73.7182 137.436C73.7182 137.748 73.8742 137.976 74.1862 138.12C74.5102 138.252 75.0082 138.39 75.6802 138.534C76.3522 138.666 76.9042 138.81 77.3362 138.966C77.7682 139.11 78.1402 139.35 78.4522 139.686C78.7642 140.022 78.9202 140.478 78.9202 141.054C78.9202 142.086 78.5002 142.884 77.6602 143.448C76.8202 144.012 75.7042 144.294 74.3122 144.294ZM83.4679 140.946C83.4439 141.138 83.4319 141.276 83.4319 141.36C83.4319 142.08 83.8099 142.44 84.5659 142.44C85.0339 142.44 85.4539 142.314 85.8259 142.062L86.2219 143.718C85.6099 144.102 84.8359 144.294 83.8999 144.294C83.0719 144.294 82.4059 144.066 81.9019 143.61C81.3979 143.154 81.1459 142.524 81.1459 141.72C81.1459 141.456 81.1699 141.204 81.2179 140.964L82.1359 136.428H80.5699L80.9299 134.628H82.4959L82.9279 132.432H85.1779L84.7279 134.628H87.3199L86.9599 136.428H84.3679L83.4679 140.946ZM99.1608 134.556L97.2348 144.168H95.0928L95.3088 143.106C94.4448 143.898 93.3588 144.294 92.0508 144.294C90.9948 144.294 90.1488 144.012 89.5128 143.448C88.8888 142.872 88.5768 142.068 88.5768 141.036C88.5768 140.652 88.6188 140.268 88.7028 139.884L89.7648 134.556H92.0148L90.9528 139.83C90.9048 140.07 90.8808 140.316 90.8808 140.568C90.8808 141.132 91.0368 141.564 91.3488 141.864C91.6728 142.164 92.1528 142.314 92.7888 142.314C93.6048 142.314 94.2828 142.086 94.8228 141.63C95.3628 141.162 95.7228 140.466 95.9028 139.542L96.9108 134.556H99.1608ZM112.241 130.812L109.577 144.168H107.435L107.633 143.178C106.769 143.922 105.731 144.294 104.519 144.294C103.727 144.294 103.007 144.126 102.359 143.79C101.723 143.454 101.219 142.968 100.847 142.332C100.475 141.684 100.289 140.928 100.289 140.064C100.289 138.984 100.523 138.018 100.991 137.166C101.459 136.314 102.101 135.648 102.917 135.168C103.745 134.688 104.669 134.448 105.689 134.448C106.445 134.448 107.099 134.574 107.651 134.826C108.215 135.078 108.653 135.45 108.965 135.942L109.991 130.812H112.241ZM105.095 142.368C105.719 142.368 106.283 142.218 106.787 141.918C107.291 141.606 107.681 141.18 107.957 140.64C108.245 140.088 108.389 139.464 108.389 138.768C108.389 138.012 108.167 137.424 107.723 137.004C107.279 136.572 106.655 136.356 105.851 136.356C105.227 136.356 104.663 136.512 104.159 136.824C103.655 137.124 103.259 137.55 102.971 138.102C102.695 138.642 102.557 139.26 102.557 139.956C102.557 140.712 102.779 141.306 103.223 141.738C103.667 142.158 104.291 142.368 105.095 142.368ZM122.6 138.66C122.6 139.128 122.552 139.584 122.456 140.028H114.824C114.86 141.6 115.784 142.386 117.596 142.386C118.148 142.386 118.664 142.302 119.144 142.134C119.624 141.954 120.032 141.708 120.368 141.396L121.304 142.962C120.812 143.406 120.218 143.742 119.522 143.97C118.838 144.186 118.118 144.294 117.362 144.294C116.402 144.294 115.562 144.12 114.842 143.772C114.134 143.424 113.588 142.932 113.204 142.296C112.82 141.648 112.628 140.904 112.628 140.064C112.628 138.996 112.862 138.036 113.33 137.184C113.81 136.32 114.47 135.648 115.31 135.168C116.162 134.688 117.116 134.448 118.172 134.448C119.516 134.448 120.59 134.826 121.394 135.582C122.198 136.326 122.6 137.352 122.6 138.66ZM118.064 136.248C117.308 136.248 116.66 136.452 116.12 136.86C115.592 137.268 115.226 137.826 115.022 138.534H120.53C120.542 137.814 120.32 137.256 119.864 136.86C119.42 136.452 118.82 136.248 118.064 136.248ZM130.829 134.448C131.909 134.448 132.761 134.73 133.385 135.294C134.021 135.858 134.339 136.656 134.339 137.688C134.339 137.976 134.297 138.36 134.213 138.84L133.151 144.168H130.901L131.945 138.894C131.993 138.654 132.017 138.408 132.017 138.156C132.017 136.992 131.375 136.41 130.091 136.41C129.263 136.41 128.579 136.644 128.039 137.112C127.499 137.568 127.133 138.258 126.941 139.182L125.933 144.168H123.683L125.591 134.556H127.733L127.517 135.618C128.381 134.838 129.485 134.448 130.829 134.448ZM139.173 140.946C139.149 141.138 139.137 141.276 139.137 141.36C139.137 142.08 139.515 142.44 140.271 142.44C140.739 142.44 141.159 142.314 141.531 142.062L141.927 143.718C141.315 144.102 140.541 144.294 139.605 144.294C138.777 144.294 138.111 144.066 137.607 143.61C137.103 143.154 136.851 142.524 136.851 141.72C136.851 141.456 136.875 141.204 136.923 140.964L137.841 136.428H136.275L136.635 134.628H138.201L138.633 132.432H140.883L140.433 134.628H143.025L142.665 136.428H140.073L139.173 140.946ZM154.818 132.504C154.35 132.504 153.978 132.636 153.702 132.9C153.426 133.164 153.228 133.566 153.108 134.106L153 134.628H155.628L155.268 136.428H152.694L151.146 144.168H148.896L150.444 136.428H148.878L149.238 134.628H150.804L150.948 133.944C151.164 132.912 151.596 132.114 152.244 131.55C152.904 130.974 153.762 130.686 154.818 130.686C155.238 130.686 155.628 130.734 155.988 130.83C156.36 130.926 156.672 131.07 156.924 131.262L156.006 132.9C155.682 132.636 155.286 132.504 154.818 132.504ZM159.864 144.294C158.928 144.294 158.106 144.12 157.398 143.772C156.702 143.412 156.162 142.914 155.778 142.278C155.394 141.642 155.202 140.904 155.202 140.064C155.202 138.996 155.442 138.036 155.922 137.184C156.414 136.332 157.092 135.666 157.956 135.186C158.832 134.694 159.816 134.448 160.908 134.448C161.844 134.448 162.666 134.622 163.374 134.97C164.082 135.318 164.628 135.81 165.012 136.446C165.396 137.082 165.588 137.82 165.588 138.66C165.588 139.728 165.342 140.688 164.85 141.54C164.358 142.392 163.674 143.064 162.798 143.556C161.934 144.048 160.956 144.294 159.864 144.294ZM160.008 142.368C160.644 142.368 161.208 142.218 161.7 141.918C162.204 141.606 162.6 141.18 162.888 140.64C163.176 140.088 163.32 139.464 163.32 138.768C163.32 138.012 163.098 137.424 162.654 137.004C162.21 136.572 161.586 136.356 160.782 136.356C160.146 136.356 159.576 136.512 159.072 136.824C158.58 137.124 158.19 137.55 157.902 138.102C157.614 138.642 157.47 139.26 157.47 139.956C157.47 140.712 157.692 141.306 158.136 141.738C158.58 142.158 159.204 142.368 160.008 142.368ZM171.466 144.294C170.53 144.294 169.708 144.12 169 143.772C168.304 143.412 167.764 142.914 167.38 142.278C166.996 141.642 166.804 140.904 166.804 140.064C166.804 138.996 167.044 138.036 167.524 137.184C168.016 136.332 168.694 135.666 169.558 135.186C170.434 134.694 171.418 134.448 172.51 134.448C173.446 134.448 174.268 134.622 174.976 134.97C175.684 135.318 176.23 135.81 176.614 136.446C176.998 137.082 177.19 137.82 177.19 138.66C177.19 139.728 176.944 140.688 176.452 141.54C175.96 142.392 175.276 143.064 174.4 143.556C173.536 144.048 172.558 144.294 171.466 144.294ZM171.61 142.368C172.246 142.368 172.81 142.218 173.302 141.918C173.806 141.606 174.202 141.18 174.49 140.64C174.778 140.088 174.922 139.464 174.922 138.768C174.922 138.012 174.7 137.424 174.256 137.004C173.812 136.572 173.188 136.356 172.384 136.356C171.748 136.356 171.178 136.512 170.674 136.824C170.182 137.124 169.792 137.55 169.504 138.102C169.216 138.642 169.072 139.26 169.072 139.956C169.072 140.712 169.294 141.306 169.738 141.738C170.182 142.158 170.806 142.368 171.61 142.368ZM190.375 130.812L187.711 144.168H185.569L185.767 143.178C184.903 143.922 183.865 144.294 182.653 144.294C181.861 144.294 181.141 144.126 180.493 143.79C179.857 143.454 179.353 142.968 178.981 142.332C178.609 141.684 178.423 140.928 178.423 140.064C178.423 138.984 178.657 138.018 179.125 137.166C179.593 136.314 180.235 135.648 181.051 135.168C181.879 134.688 182.803 134.448 183.823 134.448C184.579 134.448 185.233 134.574 185.785 134.826C186.349 135.078 186.787 135.45 187.099 135.942L188.125 130.812H190.375ZM183.229 142.368C183.853 142.368 184.417 142.218 184.921 141.918C185.425 141.606 185.815 141.18 186.091 140.64C186.379 140.088 186.523 139.464 186.523 138.768C186.523 138.012 186.301 137.424 185.857 137.004C185.413 136.572 184.789 136.356 183.985 136.356C183.361 136.356 182.797 136.512 182.293 136.824C181.789 137.124 181.393 137.55 181.105 138.102C180.829 138.642 180.691 139.26 180.691 139.956C180.691 140.712 180.913 141.306 181.357 141.738C181.801 142.158 182.425 142.368 183.229 142.368ZM200.454 144.294C199.506 144.294 198.672 144.12 197.952 143.772C197.244 143.412 196.698 142.914 196.314 142.278C195.93 141.642 195.738 140.904 195.738 140.064C195.738 138.996 195.984 138.036 196.476 137.184C196.968 136.332 197.646 135.666 198.51 135.186C199.386 134.694 200.382 134.448 201.498 134.448C202.47 134.448 203.304 134.64 204 135.024C204.708 135.396 205.254 135.954 205.638 136.698L203.712 137.688C203.268 136.8 202.47 136.356 201.318 136.356C200.682 136.356 200.112 136.512 199.608 136.824C199.116 137.124 198.726 137.55 198.438 138.102C198.15 138.642 198.006 139.26 198.006 139.956C198.006 140.712 198.228 141.306 198.672 141.738C199.116 142.158 199.746 142.368 200.562 142.368C201.114 142.368 201.612 142.26 202.056 142.044C202.5 141.816 202.878 141.48 203.19 141.036L204.846 142.152C204.402 142.824 203.79 143.352 203.01 143.736C202.23 144.108 201.378 144.294 200.454 144.294ZM210.718 144.294C209.782 144.294 208.96 144.12 208.252 143.772C207.556 143.412 207.016 142.914 206.632 142.278C206.248 141.642 206.056 140.904 206.056 140.064C206.056 138.996 206.296 138.036 206.776 137.184C207.268 136.332 207.946 135.666 208.81 135.186C209.686 134.694 210.67 134.448 211.762 134.448C212.698 134.448 213.52 134.622 214.228 134.97C214.936 135.318 215.482 135.81 215.866 136.446C216.25 137.082 216.442 137.82 216.442 138.66C216.442 139.728 216.196 140.688 215.704 141.54C215.212 142.392 214.528 143.064 213.652 143.556C212.788 144.048 211.81 144.294 210.718 144.294ZM210.862 142.368C211.498 142.368 212.062 142.218 212.554 141.918C213.058 141.606 213.454 141.18 213.742 140.64C214.03 140.088 214.174 139.464 214.174 138.768C214.174 138.012 213.952 137.424 213.508 137.004C213.064 136.572 212.44 136.356 211.636 136.356C211 136.356 210.43 136.512 209.926 136.824C209.434 137.124 209.044 137.55 208.756 138.102C208.468 138.642 208.324 139.26 208.324 139.956C208.324 140.712 208.546 141.306 208.99 141.738C209.434 142.158 210.058 142.368 210.862 142.368ZM220.231 130.812H222.481L219.817 144.168H217.567L220.231 130.812ZM225.435 130.812H227.685L225.021 144.168H222.771L225.435 130.812ZM238.036 138.66C238.036 139.128 237.988 139.584 237.892 140.028H230.26C230.296 141.6 231.22 142.386 233.032 142.386C233.584 142.386 234.1 142.302 234.58 142.134C235.06 141.954 235.468 141.708 235.804 141.396L236.74 142.962C236.248 143.406 235.654 143.742 234.958 143.97C234.274 144.186 233.554 144.294 232.798 144.294C231.838 144.294 230.998 144.12 230.278 143.772C229.57 143.424 229.024 142.932 228.64 142.296C228.256 141.648 228.064 140.904 228.064 140.064C228.064 138.996 228.298 138.036 228.766 137.184C229.246 136.32 229.906 135.648 230.746 135.168C231.598 134.688 232.552 134.448 233.608 134.448C234.952 134.448 236.026 134.826 236.83 135.582C237.634 136.326 238.036 137.352 238.036 138.66ZM233.5 136.248C232.744 136.248 232.096 136.452 231.556 136.86C231.028 137.268 230.662 137.826 230.458 138.534H235.966C235.978 137.814 235.756 137.256 235.3 136.86C234.856 136.452 234.256 136.248 233.5 136.248ZM243.924 144.294C242.976 144.294 242.142 144.12 241.422 143.772C240.714 143.412 240.168 142.914 239.784 142.278C239.4 141.642 239.208 140.904 239.208 140.064C239.208 138.996 239.454 138.036 239.946 137.184C240.438 136.332 241.116 135.666 241.98 135.186C242.856 134.694 243.852 134.448 244.968 134.448C245.94 134.448 246.774 134.64 247.47 135.024C248.178 135.396 248.724 135.954 249.108 136.698L247.182 137.688C246.738 136.8 245.94 136.356 244.788 136.356C244.152 136.356 243.582 136.512 243.078 136.824C242.586 137.124 242.196 137.55 241.908 138.102C241.62 138.642 241.476 139.26 241.476 139.956C241.476 140.712 241.698 141.306 242.142 141.738C242.586 142.158 243.216 142.368 244.032 142.368C244.584 142.368 245.082 142.26 245.526 142.044C245.97 141.816 246.348 141.48 246.66 141.036L248.316 142.152C247.872 142.824 247.26 143.352 246.48 143.736C245.7 144.108 244.848 144.294 243.924 144.294ZM252.868 140.946C252.844 141.138 252.832 141.276 252.832 141.36C252.832 142.08 253.21 142.44 253.966 142.44C254.434 142.44 254.854 142.314 255.226 142.062L255.622 143.718C255.01 144.102 254.236 144.294 253.3 144.294C252.472 144.294 251.806 144.066 251.302 143.61C250.798 143.154 250.546 142.524 250.546 141.72C250.546 141.456 250.57 141.204 250.618 140.964L251.536 136.428H249.97L250.33 134.628H251.896L252.328 132.432H254.578L254.128 134.628H256.72L256.36 136.428H253.768L252.868 140.946ZM259.237 134.556H261.487L259.579 144.168H257.329L259.237 134.556ZM260.875 132.972C260.479 132.972 260.155 132.852 259.903 132.612C259.651 132.36 259.525 132.06 259.525 131.712C259.525 131.304 259.663 130.962 259.939 130.686C260.227 130.41 260.599 130.272 261.055 130.272C261.451 130.272 261.775 130.392 262.027 130.632C262.279 130.86 262.405 131.142 262.405 131.478C262.405 131.922 262.261 132.282 261.973 132.558C261.697 132.834 261.331 132.972 260.875 132.972ZM273.458 134.556L267.428 144.168H265.106L262.892 134.556H265.106L266.708 141.702L271.19 134.556H273.458ZM282.737 138.66C282.737 139.128 282.689 139.584 282.593 140.028H274.961C274.997 141.6 275.921 142.386 277.733 142.386C278.285 142.386 278.801 142.302 279.281 142.134C279.761 141.954 280.169 141.708 280.505 141.396L281.441 142.962C280.949 143.406 280.355 143.742 279.659 143.97C278.975 144.186 278.255 144.294 277.499 144.294C276.539 144.294 275.699 144.12 274.979 143.772C274.271 143.424 273.725 142.932 273.341 142.296C272.957 141.648 272.765 140.904 272.765 140.064C272.765 138.996 272.999 138.036 273.467 137.184C273.947 136.32 274.607 135.648 275.447 135.168C276.299 134.688 277.253 134.448 278.309 134.448C279.653 134.448 280.727 134.826 281.531 135.582C282.335 136.326 282.737 137.352 282.737 138.66ZM278.201 136.248C277.445 136.248 276.797 136.452 276.257 136.86C275.729 137.268 275.363 137.826 275.159 138.534H280.667C280.679 137.814 280.457 137.256 280.001 136.86C279.557 136.452 278.957 136.248 278.201 136.248Z" fill="white"/>
</g>
<path opacity="0.69" d="M6.83572 35.0846C15.3088 39.0845 24.5963 41.0481 33.9612 40.8195C39.4714 40.6625 45.29 40.4673 47.5225 36.9363C51.0205 31.3537 45.242 20.1591 41.0836 20.2293C35.402 20.3399 27.1559 41.6288 35.4474 52.1439C37.8557 55.1821 41.5804 57.1901 58.2951 59.7362C90.2135 64.5657 98.825 60.6042 105.807 67.1763C115.508 76.3174 113.055 97.2051 106.028 99.8141C100.734 101.698 90.1914 94.458 90.4648 88.3503C90.8435 78.9312 117.012 67.6209 136.302 74.9261C148.58 79.5891 158.054 91.7983 155.933 94.8355C153.812 97.8728 141.146 94.71 140.322 90.5224C139.248 85.0857 158.668 77.8147 166.919 74.7223C207.795 59.4674 236.456 64.859 239.039 55.0015C240.28 50.079 234.615 43.0858 229.5 42.708C224.384 42.3302 218.672 48.4261 219.152 53.7639C219.574 60.3889 229.274 65.8501 237.388 65.9131C247.372 66.0039 249.621 57.8307 265.802 48.9163C274.983 43.8323 292.331 36.5339 296.725 41.1116C301.119 45.6893 293.412 61.1824 288.057 60.9018C284.59 60.7021 280.8 53.6867 282.784 50.328C285.209 46.2624 296.902 46.2344 301.668 51.2894C306.433 56.3443 300.186 63.2878 304.415 73.5043C304.65 74.0662 309.846 85.8741 321.633 87.964C326.284 88.582 331.015 87.8728 335.285 85.9177C339.554 83.9627 343.188 80.841 345.771 76.9105" stroke="#4B964B" stroke-width="0.3" stroke-miterlimit="10"/>
<path d="M9.3637 33.6705C17.8089 37.6202 27.0453 39.5768 36.3645 39.3901C41.8778 39.208 47.6933 39.0378 49.9289 35.4818C53.4269 29.8992 47.6484 18.7046 43.4869 18.7998C37.8333 18.8884 29.5593 40.1993 37.8539 50.6894C40.2839 53.7557 43.9837 55.7606 60.7015 58.2817C92.6199 63.1112 101.253 59.1778 108.235 65.7499C117.914 74.863 115.462 95.7506 108.459 98.3627C103.166 100.247 92.6196 93.0316 92.8712 86.8958C93.2468 77.5017 119.443 66.1695 138.708 73.4716C150.987 78.1346 160.458 90.3688 158.337 93.406C156.216 96.4433 143.55 93.2805 142.726 89.0929C141.679 83.6343 161.099 76.3633 169.322 73.2928C210.198 58.0379 238.862 63.4044 241.442 53.5719C242.683 48.6495 237.021 41.6313 231.906 41.2535C226.791 40.8756 221.225 47.015 221.558 52.3094C221.98 58.9343 231.702 64.4237 239.791 64.4836C249.775 64.5743 252.027 56.3762 268.209 47.4618C277.411 42.4059 294.734 35.1044 299.132 39.6571C303.529 44.2097 295.815 59.7529 290.488 59.4504C286.993 59.2726 283.207 52.2322 285.215 48.8765C287.612 44.8329 299.33 44.808 304.096 49.8629C308.861 54.9178 302.617 61.8363 306.819 72.0748C307.053 72.6367 312.25 84.4446 324.039 86.5094C328.687 87.1324 333.418 86.4281 337.687 84.4774C341.956 82.5266 345.591 79.4085 348.174 75.481" stroke="#76A576" stroke-width="0.5" stroke-miterlimit="10"/>
<path d="M12.4867 31.3408C20.9232 35.3164 30.1657 37.2743 39.4875 37.0603C44.9977 36.9033 50.8132 36.7331 53.0488 33.1771C56.5468 27.5945 50.7683 16.3999 46.6099 16.4701C40.9532 16.5837 32.6791 37.8946 40.9738 48.3847C43.3789 51.4479 47.1036 53.4559 63.8214 55.977C95.7398 60.8065 104.348 56.87 111.33 63.4421C121.034 72.5582 118.582 93.4459 111.554 96.0549C106.261 97.9391 95.7395 90.7269 95.9911 84.5912C96.3698 75.172 122.538 63.8617 141.828 71.1669C154.107 75.8299 163.581 88.0391 161.457 91.1013C159.332 94.1636 146.67 90.9758 145.846 86.7882C144.799 81.3296 164.219 74.0586 172.442 70.9881C213.318 55.7332 241.982 61.0997 244.562 51.2672C245.803 46.3448 240.141 39.3266 235.026 38.9488C229.911 38.571 224.323 44.6823 224.678 50.0047C225.1 56.6297 234.825 62.094 242.911 62.1789C252.898 62.2446 255.147 54.0715 271.329 45.1571C280.531 40.1012 297.854 32.7997 302.251 37.3524C306.649 41.9051 298.938 57.4232 293.583 57.1426C290.113 56.9679 286.326 49.9275 288.335 46.5718C290.732 42.5282 302.425 42.5002 307.219 47.5332C312.012 52.5662 305.737 59.5316 309.939 69.7701C310.176 70.307 315.373 82.1149 327.159 84.2048C331.81 84.8258 336.543 84.118 340.813 82.1627C345.083 80.2074 348.716 77.0839 351.297 73.1513" stroke="#4B964B" stroke-width="0.5" stroke-miterlimit="10"/>
<path d="M302.824 75.3373C303.071 75.3679 303.284 75.2919 303.3 75.1677C303.315 75.0434 303.127 74.918 302.879 74.8874C302.632 74.8568 302.418 74.9327 302.403 75.057C302.388 75.1812 302.576 75.3067 302.824 75.3373Z" fill="#B56F35" stroke="#B56F35" stroke-width="0.5" stroke-miterlimit="3.86" stroke-linecap="round"/>
<path d="M300.634 70.9566C301.129 71.0177 301.568 70.7651 301.614 70.3924C301.66 70.0196 301.296 69.6679 300.801 69.6068C300.306 69.5456 299.867 69.7982 299.821 70.171C299.775 70.5437 300.139 70.8955 300.634 70.9566Z" fill="#B56F35"/>
<path d="M302.767 72.1333C303.262 72.1945 303.701 71.9419 303.747 71.5691C303.793 71.1964 303.429 70.8447 302.934 70.7835C302.439 70.7224 302 70.975 301.954 71.3477C301.908 71.7205 302.272 72.0722 302.767 72.1333Z" fill="#B56F35"/>
<path d="M307.022 69.0049C307.518 69.0661 307.956 68.8134 308.002 68.4407C308.048 68.068 307.684 67.7163 307.189 67.6551C306.694 67.594 306.255 67.8466 306.209 68.2193C306.163 68.5921 306.527 68.9438 307.022 69.0049Z" fill="#B56F35"/>
<path d="M308.175 72.5728C308.67 72.634 309.109 72.3814 309.155 72.0086C309.201 71.6359 308.837 71.2841 308.342 71.223C307.847 71.1619 307.408 71.4145 307.362 71.7872C307.316 72.16 307.68 72.5117 308.175 72.5728Z" fill="#B56F35"/>
<path d="M309.408 73.6388C309.904 73.6999 310.342 73.4473 310.388 73.0745C310.434 72.7018 310.07 72.35 309.575 72.2889C309.08 72.2278 308.641 72.4804 308.595 72.8531C308.549 73.2259 308.913 73.5776 309.408 73.6388Z" fill="#B56F35"/>
<path d="M301.665 56.06C294.098 60.7849 295.172 60.6892 293.426 61.311C287.314 63.6777 284.108 60.5411 274.466 62.5989C271.688 63.1695 269.266 63.7332 269.108 65.008C268.843 67.1577 275.048 70.3856 280.411 71.6315C283.705 72.5276 287.145 72.7555 290.529 72.3019C293.913 71.8482 297.173 70.7221 300.119 68.9895C308.794 63.4878 312.264 52.5978 310.631 51.2794C310.057 50.8025 307.231 52.5853 301.665 56.06Z" fill="#FCC332" stroke="#FFCF03" stroke-width="0.5" stroke-miterlimit="10"/>
<path d="M308.424 51.6925C303.913 54.2063 307.483 62.1843 302.449 67.9072C300.091 70.1804 297.087 71.663 293.853 72.1498C290.853 72.795 287.801 73.1656 284.734 73.257C278.713 73.6556 277.386 73.3394 276.864 74.29C275.875 76.1474 279.197 80.3897 282.916 82.6507C285.729 84.2177 288.917 84.9801 292.133 84.8546C295.288 84.9144 303.338 85.0962 307.966 79.5771C309.78 77.3901 310.354 74.9993 311.498 70.2426C312.31 66.9423 311.657 67.7245 312.721 58.4915C313.218 54.467 313.471 52.4173 312.317 51.5135C311.707 51.2073 311.029 51.0629 310.348 51.0943C309.666 51.1256 309.004 51.3316 308.424 51.6925Z" fill="#FCC332" stroke="#FFCF03" stroke-width="0.5" stroke-miterlimit="10"/>
<path d="M314.429 53.4744C313.444 53.6574 313.171 56.8973 312.845 60.7653C312.393 66.0642 313.319 66.9653 312.651 70.5371C312.208 73.9936 310.589 77.1915 308.066 79.5893C305.43 81.2777 302.643 82.7176 299.742 83.8907C295.405 86.0199 294.857 86.3583 294.811 86.9363C294.546 89.086 301.372 92.822 307.747 92.0104C316.253 90.9543 320.685 82.3148 320.918 81.8614C327.118 69.1514 316.453 53.0645 314.429 53.4744Z" fill="#FCC332" stroke="#FFCF03" stroke-width="0.5" stroke-miterlimit="10"/>
<path d="M310.056 50.8028C310.272 49.0531 310.488 47.3033 310.705 45.5535L313.256 45.3864L313.426 47.6915L314.168 45.5752L316.35 46.1491C315.791 48.4149 315.205 50.7027 314.647 52.9685L311.234 53.9683L310.056 50.8028Z" fill="#BC902E" stroke="#A07C22" stroke-width="0.25" stroke-miterlimit="10"/>
<path opacity="0.5" d="M296.772 86.8735C296.965 86.8972 297.131 86.8382 297.143 86.7415C297.155 86.6449 297.008 86.5473 296.816 86.5235C296.623 86.4997 296.457 86.5588 296.445 86.6554C296.433 86.7521 296.58 86.8497 296.772 86.8735Z" fill="#B56F35" stroke="#B56F35" stroke-width="0.25" stroke-miterlimit="3.86" stroke-linecap="round"/>
<path opacity="0.5" d="M310.735 88.9024C311.134 88.9516 311.487 88.7453 311.525 88.4416C311.562 88.1379 311.269 87.8518 310.871 87.8025C310.472 87.7533 310.118 87.9596 310.081 88.2633C310.043 88.567 310.336 88.8531 310.735 88.9024Z" fill="#B56F35"/>
<path opacity="0.5" d="M312.449 89.8238C312.848 89.873 313.202 89.6667 313.239 89.363C313.277 89.0593 312.984 88.7732 312.585 88.7239C312.186 88.6747 311.833 88.881 311.795 89.1847C311.758 89.4884 312.05 89.7745 312.449 89.8238Z" fill="#B56F35"/>
<path opacity="0.5" d="M315.867 87.3277C316.265 87.3769 316.619 87.1707 316.657 86.8669C316.694 86.5632 316.401 86.2771 316.002 86.2278C315.604 86.1786 315.25 86.3849 315.212 86.6886C315.175 86.9923 315.468 87.2785 315.867 87.3277Z" fill="#B56F35"/>
<path opacity="0.5" d="M301.039 84.6841C301.438 84.7334 301.792 84.5271 301.829 84.2234C301.867 83.9197 301.574 83.6335 301.175 83.5843C300.776 83.535 300.422 83.7413 300.385 84.045C300.347 84.3488 300.64 84.6349 301.039 84.6841Z" fill="#B56F35"/>
<path opacity="0.5" d="M302.019 85.5416C302.418 85.5908 302.771 85.3845 302.809 85.0808C302.846 84.7771 302.553 84.491 302.155 84.4417C301.756 84.3925 301.402 84.5988 301.364 84.9025C301.327 85.2062 301.62 85.4923 302.019 85.5416Z" fill="#B56F35"/>
<path opacity="0.5" d="M315.561 74.2456C315.739 74.2676 315.892 74.2183 315.902 74.1355C315.912 74.0526 315.776 73.9676 315.598 73.9456C315.42 73.9236 315.267 73.9729 315.257 74.0557C315.246 74.1386 315.383 74.2236 315.561 74.2456Z" fill="#B56F35" stroke="#B56F35" stroke-width="0.25" stroke-miterlimit="3.86" stroke-linecap="round"/>
<path opacity="0.5" d="M314.014 71.1869C314.358 71.2294 314.663 71.0511 314.695 70.7888C314.728 70.5265 314.475 70.2795 314.131 70.237C313.788 70.1946 313.483 70.3728 313.45 70.6351C313.418 70.8974 313.67 71.1445 314.014 71.1869Z" fill="#B56F35"/>
<path opacity="0.5" d="M315.511 72.0067C315.855 72.0492 316.16 71.871 316.193 71.6087C316.225 71.3464 315.972 71.0993 315.629 71.0568C315.285 71.0144 314.98 71.1926 314.948 71.4549C314.915 71.7172 315.168 71.9643 315.511 72.0067Z" fill="#B56F35"/>
<path opacity="0.5" d="M318.482 69.8104C318.825 69.8529 319.13 69.6747 319.163 69.4124C319.195 69.1501 318.943 68.903 318.599 68.8606C318.255 68.8181 317.95 68.9963 317.918 69.2586C317.885 69.5209 318.138 69.768 318.482 69.8104Z" fill="#B56F35"/>
<path opacity="0.5" d="M307.176 60.0155C307.52 60.0579 307.825 59.8798 307.857 59.6175C307.89 59.3551 307.637 59.1081 307.293 59.0656C306.95 59.0232 306.645 59.2014 306.612 59.4637C306.58 59.726 306.832 59.973 307.176 60.0155Z" fill="#B56F35"/>
<path opacity="0.5" d="M308.308 61.2713C308.652 61.3138 308.957 61.1356 308.99 60.8733C309.022 60.611 308.769 60.364 308.426 60.3215C308.082 60.279 307.777 60.4572 307.744 60.7195C307.712 60.9818 307.965 61.2289 308.308 61.2713Z" fill="#B56F35"/>
<path opacity="0.5" d="M289.811 73.7314C289.989 73.7534 290.142 73.7041 290.152 73.6213C290.162 73.5385 290.026 73.4535 289.848 73.4315C289.67 73.4094 289.517 73.4587 289.507 73.5416C289.496 73.6244 289.633 73.7094 289.811 73.7314Z" fill="#B56F35" stroke="#B56F35" stroke-width="0.25" stroke-miterlimit="3.86" stroke-linecap="round"/>
<path opacity="0.5" d="M288.268 70.6732C288.612 70.7157 288.917 70.5375 288.949 70.2752C288.982 70.0129 288.729 69.7658 288.386 69.7234C288.042 69.6809 287.737 69.8591 287.704 70.1214C287.672 70.3837 287.924 70.6308 288.268 70.6732Z" fill="#B56F35"/>
<path opacity="0.5" d="M289.761 71.4921C290.104 71.5345 290.409 71.3563 290.442 71.094C290.474 70.8317 290.222 70.5847 289.878 70.5422C289.534 70.4997 289.229 70.678 289.197 70.9403C289.164 71.2026 289.417 71.4496 289.761 71.4921Z" fill="#B56F35"/>
<path opacity="0.5" d="M292.733 69.3197C293.077 69.3622 293.382 69.1839 293.414 68.9216C293.446 68.6593 293.194 68.4123 292.85 68.3698C292.506 68.3274 292.201 68.5056 292.169 68.7679C292.137 69.0302 292.389 69.2773 292.733 69.3197Z" fill="#B56F35"/>
<path opacity="0.5" d="M293.545 71.8065C293.889 71.849 294.194 71.6708 294.226 71.4085C294.259 71.1462 294.006 70.8991 293.662 70.8567C293.319 70.8142 293.014 70.9924 292.981 71.2547C292.949 71.517 293.201 71.7641 293.545 71.8065Z" fill="#B56F35"/>
<path opacity="0.5" d="M294.416 72.5492C294.76 72.5917 295.065 72.4135 295.098 72.1511C295.13 71.8888 294.878 71.6418 294.534 71.5993C294.19 71.5569 293.885 71.7351 293.853 71.9974C293.82 72.2597 294.073 72.5068 294.416 72.5492Z" fill="#B56F35"/>
<path opacity="0.5" d="M281.565 64.0837C281.812 64.1142 282.031 63.9935 282.053 63.814C282.075 63.6346 281.892 63.4643 281.645 63.4338C281.397 63.4032 281.179 63.5239 281.157 63.7033C281.134 63.8828 281.317 64.0531 281.565 64.0837Z" fill="#B56F35"/>
<path opacity="0.5" d="M282.618 64.6457C282.866 64.6762 283.084 64.5555 283.106 64.376C283.129 64.1966 282.946 64.0263 282.698 63.9958C282.451 63.9652 282.232 64.0859 282.21 64.2654C282.188 64.4448 282.371 64.6151 282.618 64.6457Z" fill="#B56F35"/>
<path opacity="0.5" d="M285.268 64.8718C285.516 64.9023 285.734 64.7816 285.756 64.6022C285.779 64.4227 285.596 64.2524 285.348 64.2218C285.101 64.1913 284.882 64.312 284.86 64.4915C284.838 64.6709 285.021 64.8412 285.268 64.8718Z" fill="#B56F35"/>
<path opacity="0.5" d="M285.88 65.404C286.127 65.4345 286.346 65.3138 286.368 65.1344C286.39 64.9549 286.207 64.7846 285.96 64.7541C285.712 64.7235 285.494 64.8442 285.471 65.0237C285.449 65.2031 285.632 65.3734 285.88 65.404Z" fill="#B56F35"/>
<path opacity="0.5" d="M285.607 83.047C285.855 83.0309 286.048 82.8715 286.036 82.6911C286.025 82.5106 285.814 82.3775 285.565 82.3936C285.316 82.4098 285.123 82.5691 285.135 82.7495C285.146 82.93 285.358 83.0632 285.607 83.047Z" fill="#B56F35"/>
<path opacity="0.5" d="M286.723 83.421C286.972 83.4049 287.165 83.2456 287.153 83.0651C287.142 82.8847 286.931 82.7515 286.682 82.7676C286.433 82.7838 286.24 82.9432 286.252 83.1236C286.263 83.304 286.474 83.4372 286.723 83.421Z" fill="#B56F35"/>
<path opacity="0.5" d="M289.384 83.1472C289.633 83.131 289.825 82.9716 289.813 82.7912C289.802 82.6108 289.591 82.4776 289.342 82.4937C289.093 82.5099 288.901 82.6692 288.912 82.8497C288.924 83.0301 289.135 83.1633 289.384 83.1472Z" fill="#B56F35"/>
<path opacity="0.5" d="M290.088 83.5426C290.337 83.5265 290.53 83.3672 290.518 83.1867C290.507 83.0063 290.296 82.8731 290.047 82.8892C289.798 82.9054 289.605 83.0647 289.617 83.2452C289.628 83.4256 289.839 83.5588 290.088 83.5426Z" fill="#B56F35"/>
<path opacity="0.5" d="M309.693 65.8543C309.766 65.6148 309.685 65.3782 309.513 65.3259C309.341 65.2736 309.143 65.4253 309.071 65.6649C308.998 65.9045 309.078 66.141 309.25 66.1934C309.422 66.2457 309.62 66.0939 309.693 65.8543Z" fill="#B56F35"/>
<path opacity="0.5" d="M310.438 64.9183C310.511 64.6787 310.431 64.4421 310.259 64.3898C310.087 64.3375 309.889 64.4893 309.816 64.7289C309.743 64.9684 309.824 65.205 309.996 65.2573C310.168 65.3096 310.366 65.1579 310.438 64.9183Z" fill="#B56F35"/>
<path opacity="0.5" d="M312.837 58.591C312.909 58.3502 312.828 58.1126 312.655 58.0604C312.482 58.0082 312.283 58.1612 312.211 58.4019C312.138 58.6427 312.22 58.8802 312.393 58.9324C312.565 58.9846 312.764 58.8317 312.837 58.591Z" fill="#B56F35"/>
<path opacity="0.5" d="M311.74 61.8211C311.812 61.5816 311.732 61.345 311.56 61.2927C311.388 61.2404 311.19 61.3921 311.117 61.6317C311.045 61.8712 311.125 62.1078 311.297 62.1602C311.469 62.2125 311.667 62.0607 311.74 61.8211Z" fill="#B56F35"/>
<path opacity="0.5" d="M292.809 81.9686C292.864 81.7964 292.716 81.5949 292.479 81.5185C292.241 81.4422 292.004 81.5199 291.949 81.6921C291.894 81.8643 292.042 82.0658 292.279 82.1421C292.517 82.2185 292.754 82.1408 292.809 81.9686Z" fill="#B56F35"/>
<path opacity="0.5" d="M293.725 82.7558C293.781 82.5836 293.633 82.3821 293.395 82.3058C293.158 82.2294 292.92 82.3071 292.865 82.4793C292.81 82.6515 292.958 82.8529 293.196 82.9292C293.433 83.0056 293.67 82.9279 293.725 82.7558Z" fill="#B56F35"/>
<path opacity="0.5" d="M296.31 83.4466C296.365 83.2744 296.217 83.0729 295.98 82.9966C295.742 82.9202 295.505 82.998 295.45 83.1702C295.395 83.3423 295.543 83.5438 295.78 83.6202C296.018 83.6965 296.255 83.6188 296.31 83.4466Z" fill="#B56F35"/>
<path opacity="0.5" d="M296.784 84.0755C296.839 83.9033 296.691 83.7018 296.453 83.6255C296.216 83.5491 295.979 83.6268 295.924 83.799C295.868 83.9712 296.016 84.1727 296.254 84.2491C296.491 84.3254 296.728 84.2477 296.784 84.0755Z" fill="#B56F35"/>
<path opacity="0.5" d="M306.891 90.8447C307.139 90.8145 307.322 90.6445 307.3 90.465C307.278 90.2855 307.06 90.1645 306.812 90.1948C306.565 90.225 306.382 90.395 306.403 90.5745C306.425 90.754 306.643 90.875 306.891 90.8447Z" fill="#B56F35"/>
<path opacity="0.5" d="M308.05 91.1773C308.298 91.1471 308.481 90.9771 308.459 90.7976C308.437 90.6181 308.219 90.4971 307.971 90.5273C307.724 90.5575 307.541 90.7275 307.562 90.907C307.584 91.0865 307.802 91.2075 308.05 91.1773Z" fill="#B56F35"/>
<path opacity="0.5" d="M310.654 90.7251C310.902 90.6949 311.085 90.5249 311.063 90.3454C311.042 90.1659 310.824 90.0449 310.576 90.0751C310.328 90.1054 310.145 90.2754 310.167 90.4548C310.188 90.6343 310.407 90.7553 310.654 90.7251Z" fill="#B56F35"/>
<path opacity="0.5" d="M311.359 91.1021C311.606 91.0718 311.79 90.9018 311.768 90.7223C311.746 90.5428 311.528 90.4219 311.28 90.4521C311.033 90.4823 310.85 90.6523 310.871 90.8318C310.893 91.0113 311.111 91.1323 311.359 91.1021Z" fill="#B56F35"/>
<path opacity="0.5" d="M306.238 78.9993C306.386 78.7982 306.389 78.5482 306.245 78.4411C306.1 78.334 305.863 78.4102 305.714 78.6113C305.566 78.8125 305.563 79.0624 305.707 79.1696C305.852 79.2767 306.089 79.2005 306.238 78.9993Z" fill="#B56F35"/>
<path opacity="0.5" d="M307.247 78.3641C307.396 78.1629 307.399 77.9129 307.254 77.8058C307.11 77.6986 306.872 77.7749 306.724 77.9761C306.576 78.1773 306.573 78.4272 306.717 78.5343C306.862 78.6415 307.099 78.5653 307.247 78.3641Z" fill="#B56F35"/>
<path opacity="0.5" d="M308.755 76.1639C308.903 75.9627 308.906 75.7128 308.762 75.6057C308.617 75.4985 308.38 75.5747 308.231 75.7759C308.083 75.9771 308.08 76.227 308.224 76.3341C308.369 76.4413 308.606 76.365 308.755 76.1639Z" fill="#B56F35"/>
<path opacity="0.5" d="M309.512 75.8948C309.66 75.6937 309.663 75.4438 309.519 75.3366C309.374 75.2295 309.137 75.3057 308.989 75.5069C308.84 75.708 308.837 75.958 308.982 76.0651C309.126 76.1722 309.364 76.096 309.512 75.8948Z" fill="#B56F35"/>
<path opacity="0.5" d="M303.86 56.3837C304.064 56.2399 304.145 56.0036 304.042 55.856C303.938 55.7085 303.689 55.7055 303.485 55.8494C303.281 55.9932 303.2 56.2295 303.304 56.377C303.407 56.5246 303.656 56.5276 303.86 56.3837Z" fill="#B56F35"/>
<path opacity="0.5" d="M305.043 56.1225C305.246 55.9786 305.328 55.7424 305.224 55.5948C305.121 55.4472 304.871 55.4443 304.668 55.5881C304.464 55.732 304.383 55.9683 304.486 56.1158C304.59 56.2634 304.839 56.2664 305.043 56.1225Z" fill="#B56F35"/>
<path opacity="0.5" d="M307.144 54.499C307.348 54.3551 307.429 54.1188 307.326 53.9713C307.222 53.8237 306.973 53.8207 306.769 53.9646C306.566 54.1085 306.484 54.3447 306.588 54.4923C306.691 54.6399 306.941 54.6429 307.144 54.499Z" fill="#B56F35"/>
<path opacity="0.5" d="M307.941 54.4663C308.144 54.3224 308.225 54.0861 308.122 53.9386C308.018 53.791 307.769 53.788 307.566 53.9319C307.362 54.0758 307.281 54.312 307.384 54.4596C307.488 54.6071 307.737 54.6101 307.941 54.4663Z" fill="#B56F35"/>
<path opacity="0.5" d="M274.193 68.9343C274.441 68.9648 274.659 68.8441 274.681 68.6647C274.704 68.4852 274.521 68.3149 274.273 68.2844C274.026 68.2538 273.807 68.3745 273.785 68.554C273.763 68.7334 273.946 68.9037 274.193 68.9343Z" fill="#B56F35"/>
<path opacity="0.5" d="M280.674 71.3092C280.921 71.3398 281.14 71.2191 281.162 71.0396C281.184 70.8602 281.002 70.6899 280.754 70.6593C280.506 70.6288 280.288 70.7495 280.266 70.9289C280.244 71.1084 280.426 71.2787 280.674 71.3092Z" fill="#B56F35"/>
<path opacity="0.5" d="M283.336 71.5104C283.583 71.541 283.802 71.4203 283.824 71.2408C283.846 71.0614 283.664 70.8911 283.416 70.8605C283.168 70.83 282.95 70.9507 282.928 71.1301C282.905 71.3096 283.088 71.4799 283.336 71.5104Z" fill="#B56F35"/>
<path opacity="0.5" d="M282.346 70.4738C282.593 70.5044 282.812 70.3837 282.834 70.2042C282.856 70.0247 282.673 69.8545 282.426 69.8239C282.178 69.7933 281.96 69.9141 281.938 70.0935C281.915 70.273 282.098 70.4432 282.346 70.4738Z" fill="#B56F35"/>
<path opacity="0.5" d="M308.578 78.0619C308.651 77.8223 308.571 77.5857 308.399 77.5334C308.227 77.4811 308.029 77.6329 307.956 77.8724C307.883 78.112 307.964 78.3486 308.136 78.4009C308.308 78.4532 308.506 78.3014 308.578 78.0619Z" fill="#B56F35"/>
<path opacity="0.5" d="M300.067 73.7819C300.139 73.5411 300.058 73.3036 299.885 73.2514C299.712 73.1992 299.514 73.3521 299.441 73.5929C299.369 73.8336 299.45 74.0711 299.623 74.1233C299.795 74.1755 299.994 74.0227 300.067 73.7819Z" fill="#B56F35"/>
<path opacity="0.5" d="M314.991 58.2527C315.063 58.0131 314.983 57.7766 314.811 57.7242C314.639 57.6719 314.441 57.8237 314.368 58.0633C314.295 58.3028 314.376 58.5395 314.548 58.5918C314.72 58.6441 314.918 58.4923 314.991 58.2527Z" fill="#B56F35"/>
<path opacity="0.5" d="M319.014 60.578C319.087 60.3384 319.006 60.1018 318.834 60.0495C318.662 59.9972 318.464 60.149 318.391 60.3885C318.319 60.6281 318.399 60.8647 318.571 60.917C318.743 60.9693 318.941 60.8175 319.014 60.578Z" fill="#B56F35"/>
<path opacity="0.5" d="M318.45 59.1155C318.522 58.876 318.442 58.6394 318.27 58.5871C318.098 58.5348 317.9 58.6866 317.827 58.9261C317.755 59.1657 317.835 59.4023 318.007 59.4546C318.179 59.5069 318.377 59.3551 318.45 59.1155Z" fill="#B56F35"/>
<path opacity="0.5" d="M320.159 68.6878C320.232 68.4483 320.151 68.2117 319.979 68.1594C319.807 68.1071 319.609 68.2588 319.536 68.4984C319.464 68.7379 319.544 68.9745 319.716 69.0269C319.888 69.0792 320.086 68.9274 320.159 68.6878Z" fill="#B56F35"/>
<path opacity="0.5" d="M321.547 77.9077C321.639 77.6748 321.577 77.4325 321.41 77.3666C321.243 77.3007 321.033 77.4361 320.942 77.669C320.85 77.902 320.912 78.1443 321.079 78.2102C321.246 78.2761 321.456 78.1407 321.547 77.9077Z" fill="#B56F35"/>
<path opacity="0.5" d="M320.746 78.7691C320.837 78.5361 320.776 78.2939 320.609 78.2279C320.442 78.162 320.232 78.2974 320.141 78.5304C320.049 78.7633 320.111 79.0056 320.278 79.0715C320.445 79.1374 320.654 79.002 320.746 78.7691Z" fill="#B56F35"/>
<path opacity="0.5" d="M319.862 81.2988C319.954 81.0659 319.892 80.8236 319.725 80.7577C319.558 80.6918 319.348 80.8272 319.257 81.0601C319.165 81.2931 319.227 81.5354 319.394 81.6013C319.561 81.6672 319.771 81.5318 319.862 81.2988Z" fill="#B56F35"/>
<path opacity="0.5" d="M319.207 81.7632C319.298 81.5303 319.237 81.288 319.07 81.2221C318.902 81.1562 318.693 81.2916 318.601 81.5245C318.51 81.7575 318.571 81.9997 318.738 82.0656C318.906 82.1316 319.115 81.9962 319.207 81.7632Z" fill="#B56F35"/>
<path opacity="0.5" d="M293.109 62.9774C293.312 62.8336 293.394 62.5973 293.29 62.4498C293.186 62.3022 292.937 62.2992 292.734 62.4431C292.53 62.5869 292.449 62.8232 292.552 62.9708C292.656 63.1184 292.905 63.1213 293.109 62.9774Z" fill="#B56F35"/>
<path opacity="0.5" d="M294.361 63.2251C294.565 63.0812 294.646 62.8449 294.543 62.6974C294.439 62.5498 294.19 62.5468 293.986 62.6907C293.782 62.8345 293.701 63.0708 293.805 63.2184C293.908 63.3659 294.157 63.369 294.361 63.2251Z" fill="#B56F35"/>
<path opacity="0.5" d="M296.495 61.5883C296.699 61.4445 296.78 61.2082 296.676 61.0607C296.573 60.9131 296.324 60.9101 296.12 61.0539C295.916 61.1978 295.835 61.4341 295.938 61.5817C296.042 61.7292 296.291 61.7322 296.495 61.5883Z" fill="#B56F35"/>
<path opacity="0.5" d="M295.64 61.7602C295.844 61.6164 295.925 61.3801 295.821 61.2325C295.718 61.085 295.469 61.0819 295.265 61.2258C295.061 61.3697 294.98 61.606 295.084 61.7535C295.187 61.9011 295.436 61.9041 295.64 61.7602Z" fill="#B56F35"/>
<path d="M236.878 56.7135L240.047 49.4914L240.745 49.5776L241.244 52.9129C241.377 51.8381 241.737 50.7659 241.969 49.7034L244.212 49.9804L245.683 50.1619L247.573 58.0087L242.579 59.9298L236.878 56.7135Z" fill="#9E7646" stroke="#9E7646" stroke-width="0.25" stroke-miterlimit="10"/>
<path d="M237.069 54.7836C236.024 54.7581 234.979 54.8417 233.951 55.0331C229.896 55.9028 226.742 68.1262 226.742 68.1262C224.323 77.471 223.074 83.0776 226.051 87.861C227.615 90.3634 230.361 92.3013 231.603 91.4649C232.845 90.6285 231.502 86.9605 232.001 79.6372C232.21 76.3586 232.747 73.1091 233.604 69.9377C235.968 61.6519 240.357 56.2301 239.137 55.039C238.91 54.8333 238.306 54.8094 237.069 54.7836Z" fill="#E58910" stroke="#C67409" stroke-miterlimit="10"/>
<path d="M233.517 90.9654C231.687 89.3943 232.066 85.7106 232.509 78.6342C232.666 75.4369 233.244 72.2741 234.228 69.2281C234.793 67.5656 235.5 65.9547 236.34 64.4134C236.34 64.4134 237.172 61.9784 239.037 57.7421C240.093 55.3347 240.388 54.7875 240.93 54.7021C242.241 54.5341 244.038 56.9893 244.854 59.3994C245.936 62.7305 244.72 64.5853 244.17 71.0902C243.977 73.3685 243.906 75.6555 243.956 77.9413C244.199 86.2191 246.234 89.6172 244.236 91.4515C243.378 92.259 242.231 92.3205 239.995 92.3997C237.733 92.714 235.435 92.2051 233.517 90.9654Z" fill="#E58910" stroke="#C67409" stroke-miterlimit="10"/>
<path d="M243.941 55.7081C242.949 56.9814 246.057 59.0655 245.684 63.1053C245.564 64.0802 244.982 67.3583 244.996 68.6796C245.01 70.001 244.914 70.5728 244.89 70.9758C244.776 83.1685 243.756 90.1992 246.383 91.4626C247.842 92.1502 250.077 90.8528 251.228 89.523C253.181 87.2264 252.141 84.7886 251.789 75.9643C251.615 71.4257 251.594 69.1391 251.594 66.2713C251.563 60.9889 251.438 58.3088 250.584 57.239C248.712 54.9776 244.871 54.5287 243.941 55.7081Z" fill="#E58910" stroke="#C67409" stroke-miterlimit="10"/>
<path d="M251.685 60.8C252.062 63.0981 252.207 65.4286 252.117 67.7561C252.146 71.6171 251.848 72.1893 252.035 75.1817C252.2 77.5368 252.374 77.5583 252.57 79.6634C253.138 86.3318 251.534 89.4837 253.115 90.4148C254.271 91.0905 256.045 90.2438 256.905 89.6393C257.675 88.9701 258.304 88.1537 258.756 87.2378C259.208 86.3218 259.474 85.3248 259.537 84.3051C261.259 72.6154 262.591 63.2632 256.891 58.6005C254.805 56.8456 251.683 55.6987 250.871 56.5374C250.059 57.3761 251.125 58.1676 251.685 60.8Z" fill="#E58910" stroke="#C67409" stroke-miterlimit="10"/>
<path d="M231.366 55.0949C231.971 55.931 230.842 57.0858 228.368 62.5665C226.79 65.9775 225.57 69.5435 224.727 73.2069C224.599 73.9012 224.513 74.6023 224.467 75.3067C223.927 79.6811 223.541 82.8057 225.003 86.133C225.434 87.1506 226.46 88.4701 225.951 89.3208C225.441 90.1714 223.304 90.2628 222.235 89.9024C216.171 87.7832 214.245 62.396 224.302 56.1514C226.696 54.5944 230.452 53.8908 231.366 55.0949Z" fill="#E58910" stroke="#C67409" stroke-miterlimit="10"/>
<path d="M57.6365 63.4371C54.72 62.6709 49.9652 61.424 49.2418 58.061C48.5184 54.6979 53.0244 50.7878 53.4415 50.484C53.25 49.6675 53.2882 48.8136 53.5518 48.0173C53.8154 47.221 54.2941 46.5134 54.9347 45.9734C55.4118 45.605 55.9595 45.3394 56.5436 45.1932C57.1277 45.047 57.7356 45.0233 58.329 45.1237C57.2931 43.3514 56.8225 41.3035 56.9805 39.2545C57.1386 37.2056 57.9176 35.2536 59.2131 33.6606C60.3693 32.6451 61.7262 31.8861 63.195 31.4333C64.6638 30.9805 66.2112 30.8441 67.7358 31.0331C69.1397 31.1491 70.5157 31.4904 71.8113 32.0439C71.6881 31.5554 71.752 31.0381 71.9903 30.5941C72.2022 30.1796 72.5325 29.8377 72.9389 29.6121C73.3454 29.3866 73.8096 29.2876 74.2722 29.3278C75.3498 27.8725 76.7203 26.6606 78.2949 25.7708C79.8695 24.8809 81.6129 24.333 83.4119 24.1627C90.2084 23.8345 94.3742 30.262 95.1482 31.5757C96.2288 33.3705 96.9377 35.3654 97.2326 37.4415C97.6908 36.8907 98.3408 36.5354 99.0506 36.4479C100.997 36.2569 103.292 38.5705 104.34 42.3797C104.757 42.1317 105.224 41.9813 105.707 41.9399C106.19 41.8984 106.675 41.9669 107.128 42.1402C109.484 43.5478 109.214 51.8891 104.975 55.2738C102.417 57.3435 100.157 56.1762 93.9375 57.1593C88.78 57.9437 88.4199 59.0158 81.7842 61.1149C74.5538 63.3182 66.358 65.7575 57.6365 63.4371Z" fill="#5DAF67" stroke="#5A9E61" stroke-width="0.25" stroke-miterlimit="10"/>
<path d="M69.8285 60.602C71.8163 64.2577 73.1244 68.2458 73.6889 72.3719L75.2807 77.9231L77.5578 77.9252L78.505 72.7128C79.0896 74.536 79.6741 76.3593 80.3615 78.1699L83.6042 78.1388C82.5388 74.9024 82.4493 71.4221 83.3467 68.1335C84.5536 63.8922 87.2331 61.6599 89.9098 54.3263C90.298 53.2322 90.5866 52.3289 90.7853 51.7443C90.185 52.6954 89.3603 53.4838 88.3842 54.0396C87.4081 54.5954 86.3108 54.9017 85.189 54.9313C84.0673 54.9608 82.9557 54.7128 81.9527 54.2092C80.9496 53.7055 80.0859 52.9617 79.4378 52.0435C79.6162 52.6887 79.6141 53.3708 79.4319 54.0152C79.2497 54.6596 78.8943 55.2415 78.4047 55.6972C77.9651 56.0047 77.4648 56.214 76.9377 56.3109C76.4106 56.4078 75.869 56.3901 75.3495 56.259C74.1644 56.0511 73.0756 55.4725 72.2389 54.606C72.3678 55.6116 72.0691 55.9808 71.8949 56.1623C71.7207 56.3438 70.3468 56.1995 67.8818 55.2607L64.6347 54.0984C66.7178 55.9584 68.4736 58.157 69.8285 60.602Z" fill="#548E58" stroke="#548E58" stroke-width="0.75" stroke-miterlimit="10"/>
<path d="M57.059 59.3301C56.3006 58.8273 55.7626 58.0528 55.5551 57.165C55.4432 56.2304 55.6675 55.2862 56.1875 54.5022C56.4332 54.0821 56.7277 53.6925 57.0646 53.3416C57.4355 52.9705 57.858 52.6551 58.3189 52.4053C57.4044 53.2772 56.7895 54.4178 56.563 55.6624C56.3366 56.9071 56.5102 58.1914 57.059 59.3301Z" fill="#5A9E61" stroke="#5A9E61" stroke-width="0.12" stroke-miterlimit="10"/>
<path d="M68.1196 40.4434C68.5451 39.4383 69.3312 38.6297 70.3224 38.1776C70.9361 37.9317 71.5979 37.8311 72.2565 37.8835C72.4946 37.2414 72.8778 36.6633 73.3759 36.1945C73.8556 35.735 74.4424 35.4032 75.0827 35.2296C75.7229 35.0559 76.3963 35.046 77.0411 35.2006C77.9662 35.5529 78.7156 36.2562 79.1273 37.1585C79.4513 36.9797 79.8232 36.9078 80.1901 36.9531C80.557 36.9984 80.9002 37.1586 81.171 37.4108C81.4315 37.7131 81.5727 38.1007 81.5679 38.5003C81.3839 38.1899 81.1171 37.9372 80.7976 37.7708C80.5296 37.6527 80.2397 37.5933 79.9469 37.5965C79.6542 37.5998 79.3654 37.6656 79.1 37.7896C78.6422 37.0212 77.9223 36.4455 77.0734 36.1689C76.6273 35.9964 76.1471 35.931 75.6712 35.978C75.1952 36.025 74.7368 36.1831 74.3325 36.4395C73.7271 36.8499 73.3044 37.4803 73.1539 38.1973C72.3522 38.3321 71.5686 38.559 70.8185 38.8733C69.8488 39.2649 68.94 39.7936 68.1196 40.4434Z" fill="#5A9E61" stroke="#5A9E61" stroke-width="0.12" stroke-miterlimit="10"/>
<path d="M85.9314 43.5576C86.619 43.4458 87.3194 43.4382 88.0091 43.535C89.0389 43.535 90.0387 43.8818 90.848 44.52C90.9472 44.6696 91.0379 44.8249 91.1195 44.9849C91.2565 45.2903 91.3361 45.6184 91.3542 45.9529C91.5438 45.5741 91.5973 45.1415 91.5055 44.728C91.1984 43.1167 87.9325 41.9013 85.8031 42.958C85.3459 43.1833 84.9433 43.506 84.6236 43.9036C85.0446 43.7375 85.4836 43.6214 85.9314 43.5576Z" fill="#5A9E61" stroke="#5A9E61" stroke-width="0.12" stroke-miterlimit="10"/>
<path d="M99.853 44.9211C100.159 45.1874 100.427 45.4937 100.651 45.8318C101.162 46.6179 101.444 47.5316 101.464 48.4699C101.74 48.063 101.924 47.6015 102.006 47.1168C102.088 46.6321 102.064 46.1355 101.938 45.6607C101.3 43.8563 98.7738 43.6205 98.4747 43.5835C98.0223 43.5511 97.5675 43.5804 97.1229 43.6704C98.139 43.7983 99.0916 44.2347 99.853 44.9211Z" fill="#5A9E61" stroke="#5A9E61" stroke-width="0.12" stroke-miterlimit="10"/>
<path d="M71.3924 47.9281C71.3865 47.5042 71.5269 47.0912 71.7898 46.759C72.1146 46.4164 72.5557 46.2083 73.0258 46.1757C73.2694 46.1768 73.512 46.2067 73.7486 46.265C74.0009 46.2607 74.2526 46.2918 74.4963 46.3573C73.8698 46.2612 73.229 46.3726 72.6712 46.6747C72.1133 46.9768 71.6688 47.453 71.405 48.0312L71.3924 47.9281Z" fill="#5A9E61" stroke="#5A9E61" stroke-width="0.12" stroke-miterlimit="10"/>
<path d="M131.757 61.7775L126.417 52.9718C127.44 52.9412 128.448 52.7123 129.385 52.2978C130.353 51.8646 131.222 51.238 131.94 50.4562L131.757 61.7775Z" fill="#7C6745" stroke="#685130" stroke-width="0.25" stroke-miterlimit="10"/>
<path d="M132.289 63.0098C131.036 61.619 129.489 60.5267 127.76 59.8128C126.031 59.0988 124.165 58.7812 122.298 58.883C119.7 59.3834 117.334 60.7203 115.561 62.6906C113.788 64.661 112.704 67.1572 112.473 69.8004C112.165 72.3001 114.43 75.879 118.79 82.9902C123.64 90.8471 125.592 92.6615 127.345 92.3958C129.098 92.1302 130.092 89.2075 132.12 89.3818C134.148 89.5561 134.338 91.9142 135.88 92.13C137.422 92.3458 139.624 89.4709 142.339 85.3142C149.189 74.9177 149.679 75.4604 150.24 72.9665C150.357 72.0166 152.493 62.7129 147.128 59.2335C143.281 56.779 136.85 58.0406 132.289 63.0098Z" fill="#F97253" stroke="#E56A55" stroke-width="0.25" stroke-miterlimit="10"/>
<path d="M133.205 59.0378C133.826 57.0377 135.141 55.327 136.913 54.2171C138.47 53.0795 140.304 52.3852 142.222 52.2079C143.163 52.12 144.111 52.1687 145.038 52.3526C144.881 53.7597 144.444 55.1211 143.752 56.3557C143.061 57.5903 142.128 58.6728 141.011 59.5388C139.893 60.4048 138.614 61.0366 137.248 61.3965C135.883 61.7565 134.459 61.8373 133.062 61.6341C132.96 60.767 133.008 59.8885 133.205 59.0378Z" fill="#5DAF67" stroke="#5DAF67" stroke-width="0.75" stroke-miterlimit="10"/>
<path d="M132.276 62.0702C134.567 60.6809 136.754 59.1276 138.822 57.4222C141.125 55.6928 143.317 53.819 145.385 51.812C143.154 53.1834 141.014 54.6994 138.979 56.3504C137.33 57.6186 135.855 58.9084 135.064 59.5721C134.274 60.2359 132.229 62.039 132.276 62.0702Z" fill="#5A9E61" stroke="#5A9E61" stroke-width="0.1" stroke-miterlimit="10"/>
<path d="M130.443 51.7176L131.409 60.0847C130.356 57.5438 129.275 55.0248 128.198 52.4809" stroke="#60492C" stroke-width="0.2" stroke-miterlimit="10"/>
<path d="M118.053 64.9582C118.315 65.388 118.709 65.7215 119.175 65.9089C119.567 66.0814 120 66.1349 120.422 66.0628C119.843 67.4186 119.453 68.8479 119.264 70.3103C119.015 72.1589 119.109 74.0377 119.542 75.8515C118.056 74.1 117.189 71.9055 117.074 69.6083C117.026 68.0024 117.362 66.408 118.053 64.9582Z" fill="white"/>
<path d="M187.398 41.6966C185.053 43.0465 182.849 44.6277 180.818 46.4165L184.089 52.099L178.593 48.6542C174.686 51.4686 171.868 55.549 170.613 60.2055C169.947 62.8753 169.845 65.6549 170.314 68.3656L177.719 71.5132L171.059 71.3507C171.777 73.6366 172.763 75.8285 173.998 77.8803C175.168 79.9055 176.576 81.7832 178.19 83.4736C179.12 83.3326 180.016 83.0218 180.834 82.5566C181.598 82.1194 182.271 81.5391 182.816 80.8472L181.172 78.5886L185.141 79.231C185.835 78.733 186.536 78.185 187.239 77.612C190.766 74.6872 193.863 71.2759 196.435 67.4798L189.135 63.0763L197.73 63.3508C198.357 59.1101 198.204 54.7906 197.279 50.6062C196.367 46.56 194.733 42.7129 192.457 39.2505C190.714 39.944 189.024 40.7614 187.398 41.6966Z" fill="#992E11" stroke="#992E11" stroke-width="0.75" stroke-miterlimit="10"/>
<path d="M192.434 38.8175C192.221 32.5483 190.926 30.5358 189.539 29.8824C189.134 29.6801 187.928 29.2013 185.198 27.9505L183.904 27.3594C183.807 27.8031 183.751 28.2551 183.737 28.7092C183.669 30.2791 184.058 31.8346 184.855 33.1868C186.693 35.8501 189.357 37.8295 192.434 38.8175Z" fill="#2E6031" stroke="#336D33" stroke-width="0.15" stroke-miterlimit="10"/>
<path d="M192.367 38.3264C192.502 37.0123 192.945 35.7485 193.658 34.6373C194.371 33.5261 195.335 32.5988 196.471 31.9304C197.487 31.4209 198.613 31.1759 199.747 31.2183C200.21 31.2127 200.671 31.2696 201.118 31.3876C200.936 31.4408 200.764 31.5223 200.608 31.6291C199.21 32.497 199.256 34.3806 198.852 35.3966C198.448 36.4126 196.874 37.8931 192.367 38.3264Z" fill="#447F49" stroke="#357235" stroke-width="0.15" stroke-miterlimit="10"/>
<path d="M192.442 39.1981C191.337 37.0127 189.447 35.3287 187.153 34.4847C185.611 33.9081 183.932 33.8067 182.331 34.1938C181.894 34.3961 181.425 34.5186 180.945 34.5556C180.321 34.6262 179.689 34.5482 179.101 34.3279C179.782 35.0712 180.55 35.7285 181.39 36.2854C183.038 37.2478 184.836 37.9246 186.709 38.2873C188.595 38.7312 190.511 39.0356 192.442 39.1981Z" fill="#468C48" stroke="#336D33" stroke-width="0.15" stroke-miterlimit="10"/>
<path d="M192.708 38.6472C194.042 38.2967 195.408 38.0827 196.785 38.0086C197.549 37.9063 198.325 37.959 199.068 38.1636C200.105 38.7245 201.033 39.4664 201.809 40.3546L202.373 40.9065C202.021 41.1106 201.652 41.2858 201.271 41.4303C200.122 41.7844 198.909 41.8857 197.717 41.7274C195.727 41.3514 193.945 40.2552 192.708 38.6472Z" fill="#2E6031" stroke="#336D33" stroke-width="0.15" stroke-miterlimit="10"/>
<path d="M197.373 50.4397C196.632 50.2992 195.883 50.2067 195.13 50.1627C194.585 49.9553 194.058 49.7034 193.553 49.4097C193.937 49.9766 194.467 50.4281 195.087 50.7157C195.786 51.0789 196.566 51.2539 197.352 51.2238C197.352 51.2238 198.24 51.2066 198.215 51.0004C198.19 50.7943 197.495 50.4801 197.373 50.4397Z" fill="#681F0F"/>
<path d="M197.87 61.8212C197.154 61.6842 196.43 61.5948 195.702 61.5535C195.168 61.3678 194.655 61.1258 194.172 60.8315C194.528 61.397 195.047 61.8414 195.659 62.1065C196.331 62.4671 197.088 62.6394 197.849 62.6053C197.849 62.6053 198.69 62.5569 198.687 62.3788C198.684 62.2008 197.967 61.8585 197.87 61.8212Z" fill="#681F0F"/>
<path d="M186.572 77.4547C185.419 76.7539 184.911 76.9705 183.889 76.4382C183.252 76.0321 182.648 75.5757 182.084 75.0732C182.084 75.0732 182.649 76.2343 183.681 77.0977C184.459 77.7426 185.392 78.1727 186.386 78.3453C186.536 78.3638 187.508 78.4838 187.529 78.3088C187.551 78.1339 186.716 77.5231 186.572 77.4547Z" fill="#681F0F"/>
<path d="M197.495 52.1308C196.595 51.879 195.682 51.6815 194.759 51.5393C194.079 51.2736 193.425 50.9465 192.805 50.562C193.316 51.2442 193.988 51.7891 194.76 52.1484C195.611 52.6108 196.556 52.8749 197.523 52.9211C197.673 52.9396 198.595 53.0535 198.557 52.7443C198.52 52.4351 197.644 52.1493 197.495 52.1308Z" fill="#681F0F"/>
<path d="M180.596 65.8538C181.821 66.3857 181.992 66.6353 182.971 67.1114C183.95 67.5876 185.081 67.8541 185.075 67.9041C184.236 67.7778 183.415 67.5571 182.625 67.2464C181.723 66.9314 180.858 66.5183 180.045 66.0142C180.045 66.0142 179.2 65.4784 179.356 65.4469C179.78 65.5463 180.195 65.6824 180.596 65.8538Z" fill="#681F0F"/>
<path d="M177.709 62.3762C178.984 63.1173 179.087 63.5108 180.016 64.1838C180.945 64.8568 182.248 65.1699 182.235 65.2699C181.301 65.1439 180.395 64.8604 179.555 64.4314C178.582 63.9945 177.689 63.3951 176.915 62.6588C176.79 62.6434 176.098 61.8982 176.31 61.8228C176.521 61.7474 177.581 62.1828 177.709 62.3762Z" fill="#681F0F"/>
<path d="M182.537 45.3862C183.597 46.2277 183.594 46.6588 184.461 47.4256C185.042 47.8945 185.658 48.3183 186.303 48.6936C185.434 48.5277 184.613 48.1661 183.904 47.636C183.082 47.0947 182.361 46.413 181.774 45.6219C181.774 45.6219 181.172 44.7608 181.38 44.7105C181.589 44.6601 182.434 45.1958 182.537 45.3862Z" fill="#681F0F"/>
<path d="M173.923 53.8893C175.111 54.5182 175.205 54.9866 176.246 55.5719C176.92 55.9154 177.62 56.2055 178.34 56.4396C177.491 56.4836 176.643 56.3268 175.866 55.9819C174.931 55.6471 174.082 55.1089 173.379 54.4058C173.379 54.4058 172.639 53.6294 172.808 53.4978C172.976 53.3663 173.78 53.8209 173.923 53.8893Z" fill="#681F0F"/>
<path d="M177.562 77.2544C177.303 77.1727 177.054 77.0654 176.817 76.934C176.24 76.6852 176.187 76.704 175.951 76.5733C175.727 76.4422 175.517 76.2887 175.324 76.1152C175.56 76.483 175.876 76.7913 176.25 77.0163C176.61 77.2236 177.004 77.3666 177.413 77.439L177.662 77.4698C177.854 77.4715 178.045 77.4437 178.229 77.3875C178.002 77.3662 177.779 77.3216 177.562 77.2544Z" fill="#681F0F"/>
<path d="M178.352 77.2502L178.626 77.2841L178.875 77.3149C179.06 77.3766 179.255 77.4007 179.448 77.3856C179.183 77.3224 178.945 77.1776 178.766 76.9714L178.588 76.7718C178.296 76.5837 177.962 76.4726 177.616 76.4488C177.245 76.3399 176.924 76.1025 176.712 75.7788C176.909 76.1693 177.185 76.5144 177.523 76.7926C177.778 76.9809 178.057 77.1348 178.352 77.2502Z" fill="#681F0F"/>
<path d="M186.968 77.1729C186.71 77.0913 186.46 76.9839 186.223 76.8525C185.924 76.7514 185.635 76.6223 185.36 76.4667C185.131 76.3523 184.919 76.2066 184.73 76.0337C184.974 76.3947 185.289 76.7015 185.657 76.9348C186.017 77.1421 186.41 77.2851 186.819 77.3575L187.068 77.3883C187.264 77.3958 187.458 77.3591 187.638 77.281C187.41 77.2833 187.184 77.2468 186.968 77.1729Z" fill="#681F0F"/>
<path d="M187.794 77.1726L188.068 77.2064L188.317 77.2372C188.502 77.2989 188.696 77.323 188.89 77.308C188.63 77.2329 188.395 77.09 188.208 76.8938L188.03 76.6942C187.738 76.5061 187.404 76.3949 187.058 76.3711C186.687 76.2623 186.366 76.0249 186.154 75.7012C186.351 76.0916 186.627 76.4368 186.965 76.7149C187.22 76.9033 187.499 77.0571 187.794 77.1726Z" fill="#681F0F"/>
<path d="M184.085 49.2564L183.341 48.936L182.502 48.5533C182.269 48.4321 182.049 48.2858 181.848 48.1172C182.097 48.4731 182.411 48.7788 182.774 49.0183C183.133 49.2238 183.529 49.3587 183.939 49.416L184.213 49.4498C184.401 49.4571 184.588 49.4192 184.758 49.3395L184.085 49.2564Z" fill="#681F0F"/>
<path d="M184.876 49.2277L185.15 49.2615L185.349 49.2861C185.528 49.3324 185.713 49.3552 185.898 49.3538C185.639 49.2746 185.405 49.1322 185.215 48.9396L185.037 48.74C184.769 48.4531 184.408 48.51 184.065 48.417C183.696 48.305 183.384 48.058 183.189 47.7251C183.365 48.1273 183.633 48.4821 183.972 48.7608C184.249 48.9598 184.553 49.1171 184.876 49.2277Z" fill="#681F0F"/>
<path d="M190.256 64.459L190.904 64.9451C191.138 65.145 191.386 65.3283 191.646 65.4935L192.338 65.8327C191.91 65.7936 191.495 65.6645 191.12 65.4539C190.753 65.2571 190.433 64.9839 190.181 64.6528L190.028 64.4563C189.933 64.2806 189.863 64.0925 189.819 63.8975C189.943 64.1007 190.089 64.2891 190.256 64.459Z" fill="#681F0F"/>
<path d="M189.87 63.8782L189.639 63.6975L189.461 63.4979C189.346 63.3414 189.256 63.1676 189.196 62.9829C189.382 63.1767 189.62 63.312 189.881 63.3721L190.156 63.406C190.554 63.4552 190.682 63.8517 190.932 64.0856C191.207 64.36 191.578 64.5152 191.967 64.5178C191.591 64.5522 191.212 64.5111 190.853 64.397C190.493 64.2829 190.16 64.0981 189.873 63.8533L189.87 63.8782Z" fill="#681F0F"/>
<path d="M174.392 56.0534C174.596 56.2312 174.813 56.3937 175.041 56.5396L175.805 57.1161C176.021 57.2512 176.255 57.3568 176.5 57.4303C176.063 57.4042 175.638 57.2824 175.253 57.0733C174.898 56.8602 174.581 56.5895 174.315 56.2722L174.165 56.0507C174.086 55.88 174.024 55.7023 173.977 55.52C174.094 55.7139 174.233 55.893 174.392 56.0534Z" fill="#681F0F"/>
<path d="M195.064 49.6729L194.319 49.3525L193.456 48.9667C193.233 48.8425 193.022 48.6975 192.826 48.5337C193.066 48.8927 193.383 49.1923 193.756 49.4098C194.116 49.617 194.509 49.76 194.918 49.8325L195.167 49.8632C195.362 49.8589 195.554 49.8226 195.737 49.7559L195.064 49.6729Z" fill="#681F0F"/>
<path d="M195.848 49.6429C195.937 49.6691 196.03 49.6805 196.122 49.6768L196.372 49.7076C196.555 49.773 196.751 49.7971 196.945 49.7783C196.689 49.693 196.456 49.5515 196.262 49.3641C196.262 49.3641 196.278 49.2391 196.084 49.1645C195.891 49.0899 195.43 48.9315 195.112 48.8415C194.748 48.7085 194.433 48.4657 194.211 48.1465C194.409 48.537 194.685 48.8821 195.022 49.1602C195.267 49.3681 195.547 49.5314 195.848 49.6429Z" fill="#681F0F"/>
<path d="M189.54 65.3338L188.699 64.9761C188.377 64.868 188.063 64.7359 187.761 64.5811C187.508 64.4472 187.273 64.2818 187.062 64.0889C187.319 64.4994 187.666 64.8459 188.076 65.1023C188.473 65.3297 188.91 65.4784 189.363 65.5403L189.637 65.5741C189.861 65.5625 190.081 65.5124 190.288 65.4261C190.036 65.4229 189.785 65.3919 189.54 65.3338Z" fill="#681F0F"/>
<path d="M190.407 65.2635C190.513 65.2915 190.622 65.305 190.731 65.3035L190.955 65.3312C191.169 65.3514 191.385 65.3351 191.594 65.2832C191.32 65.1927 191.07 65.0404 190.865 64.8378L190.668 64.5852C190.353 64.2671 189.964 64.3459 189.593 64.2748C189.185 64.1458 188.84 63.8677 188.626 63.4956C188.818 63.9428 189.106 64.3422 189.469 64.6655C189.752 64.9086 190.068 65.11 190.407 65.2635Z" fill="#681F0F"/>
<path d="M177.587 80.1264L177.328 79.9676L177.104 79.9399C176.979 79.7956 176.871 79.6375 176.782 79.4688C176.991 79.6308 177.244 79.7242 177.508 79.7361L177.782 79.7699C178.181 79.8192 178.368 80.1468 178.649 80.3337C178.964 80.5533 179.35 80.6462 179.73 80.5941C179.306 80.6998 178.864 80.7059 178.437 80.6121C178.134 80.4883 177.848 80.325 177.587 80.1264Z" fill="#681F0F"/>
<path d="M177.491 81.7886C177.189 81.7774 176.889 81.7403 176.593 81.6778L175.596 81.5547C175.326 81.4569 175.07 81.3228 174.836 81.1562C175.151 81.5278 175.548 81.8202 175.996 82.0101C176.421 82.1528 176.87 82.2082 177.317 82.1732L177.616 82.2101C177.831 82.1548 178.038 82.0692 178.229 81.9559C177.976 81.9347 177.728 81.8784 177.491 81.7886Z" fill="#681F0F"/>
<path d="M178.34 81.6135L178.938 81.6874C179.153 81.6702 179.364 81.6193 179.564 81.5363C179.275 81.4994 179.001 81.3868 178.769 81.2098L178.542 81.004C178.195 80.7329 177.794 80.9117 177.42 80.8655C176.994 80.8007 176.607 80.5813 176.332 80.249C176.591 80.6671 176.948 81.0158 177.371 81.2655C177.674 81.43 178.001 81.5473 178.34 81.6135Z" fill="#681F0F"/>
<path d="M190.603 41.5599L189.859 41.2395L188.911 40.9195C188.678 40.7983 188.458 40.652 188.257 40.4834C188.517 40.8397 188.839 41.1459 189.208 41.3875C189.567 41.5931 189.963 41.728 190.373 41.7852L190.622 41.816C190.818 41.8235 191.013 41.7869 191.192 41.7087C190.992 41.6779 190.795 41.628 190.603 41.5599Z" fill="#681F0F"/>
<path d="M191.363 41.526L191.662 41.563L191.911 41.5937C192.09 41.64 192.274 41.6628 192.459 41.6614C192.209 41.5822 191.983 41.4408 191.801 41.2503C191.73 41.1954 191.67 41.1277 191.624 41.0507C191.331 40.7608 190.969 40.8176 190.651 40.7276C190.272 40.623 189.949 40.3735 189.75 40.0327C189.937 40.4362 190.214 40.7915 190.558 41.0714C190.802 41.2622 191.073 41.4154 191.363 41.526Z" fill="#681F0F"/>
<path d="M190.403 42.5501L191.052 43.0362C191.563 43.4039 191.557 43.4539 191.794 43.5847C192.024 43.7169 192.263 43.8313 192.511 43.9269C192.074 43.8896 191.65 43.7594 191.267 43.545C190.905 43.3423 190.586 43.0701 190.329 42.7439L190.176 42.5474C190.076 42.3775 190.013 42.188 189.992 41.9917C190.105 42.1943 190.243 42.3819 190.403 42.5501Z" fill="#681F0F"/>
<path d="M190.027 41.8434L189.822 41.6657L189.644 41.4661C189.511 41.3211 189.42 41.1434 189.379 40.9512C189.562 41.1487 189.801 41.2846 190.064 41.3404L190.314 41.3711C190.712 41.4204 190.865 41.8199 191.09 42.0507C191.371 42.3167 191.739 42.4704 192.125 42.483C191.695 42.5181 191.262 42.4647 190.853 42.3261C190.558 42.2023 190.28 42.04 190.027 41.8434Z" fill="#681F0F"/>
<path d="M173.166 69.428C172.794 69.345 172.427 69.2403 172.066 69.1145C171.241 68.8349 171.188 68.8538 170.826 68.7076C170.48 68.5805 170.144 68.4287 169.819 68.2534C170.736 68.9991 171.845 69.4702 173.017 69.6126L173.366 69.6557C173.611 69.6533 173.854 69.615 174.088 69.5419C173.778 69.5326 173.47 69.4945 173.166 69.428Z" fill="#681F0F"/>
<path d="M174.161 69.5521L174.56 69.6013L174.909 69.6444C175.163 69.67 175.42 69.659 175.672 69.6118C175.304 69.5322 174.953 69.3857 174.637 69.1795L174.332 68.9895C173.907 68.7693 173.436 68.6505 172.958 68.6422C172.429 68.5291 171.937 68.2852 171.527 67.9326C171.939 68.3595 172.415 68.7182 172.939 68.9952C173.327 69.2214 173.736 69.4079 174.161 69.5521Z" fill="#681F0F"/>
<path d="M171.916 68.2851C171.657 68.2135 171.406 68.1145 171.168 67.9897L170.33 67.607C170.099 67.4811 169.88 67.3352 169.675 67.1709C169.921 67.5246 170.237 67.823 170.604 68.047C170.965 68.2542 171.358 68.3973 171.767 68.4697L172.041 68.5035C172.228 68.4988 172.412 68.4614 172.586 68.3932C172.358 68.3927 172.132 68.3563 171.916 68.2851Z" fill="#681F0F"/>
<path d="M172.706 68.2806C172.795 68.3067 172.887 68.3182 172.98 68.3145L173.254 68.3483C173.43 68.4114 173.617 68.4346 173.802 68.416C173.547 68.3307 173.314 68.1892 173.12 68.0018C173.12 68.0018 173.135 67.8768 172.942 67.8022C172.749 67.7276 172.288 67.5691 171.97 67.4791C171.605 67.3461 171.29 67.1034 171.069 66.7842C171.275 67.1693 171.549 67.513 171.88 67.7979C172.129 68.0005 172.407 68.1634 172.706 68.2806Z" fill="#681F0F"/>
<defs>
<filter id="filter0_d" x="52.5303" y="115.95" width="248.749" height="49.7187" filterUnits="userSpaceOnUse" color-interpolation-filters="sRGB">
<feFlood flood-opacity="0" result="BackgroundImageFix"/>
<feColorMatrix in="SourceAlpha" type="matrix" values="0 0 0 0 0 0 0 0 0 0 0 0 0 0 0 0 0 0 127 0"/>
<feOffset dy="4"/>
<feGaussianBlur stdDeviation="2"/>
<feColorMatrix type="matrix" values="0 0 0 0 0 0 0 0 0 0 0 0 0 0 0 0 0 0 0.25 0"/>
<feBlend mode="normal" in2="BackgroundImageFix" result="effect1_dropShadow"/>
<feBlend mode="normal" in="SourceGraphic" in2="effect1_dropShadow" result="shape"/>
</filter>
</defs>
</svg>
