<svg width="334" height="207" viewBox="0 0 334 207" fill="none" xmlns="http://www.w3.org/2000/svg">
<g filter="url(#filter0_d)">
<rect x="46.5618" y="123.508" width="240.749" height="41.7187" rx="10" fill="#7C8294"/>
<path d="M64.3437 151.853C63.5277 151.853 62.7477 151.757 62.0037 151.565C61.2717 151.361 60.7017 151.109 60.2937 150.809L61.2297 149.081C61.6257 149.369 62.1237 149.597 62.7237 149.765C63.3237 149.933 63.9417 150.017 64.5777 150.017C65.2977 150.017 65.8377 149.921 66.1977 149.729C66.5697 149.525 66.7557 149.237 66.7557 148.865C66.7557 148.577 66.5997 148.367 66.2877 148.235C65.9877 148.103 65.5077 147.965 64.8477 147.821C64.1637 147.689 63.5997 147.551 63.1557 147.407C62.7237 147.251 62.3457 147.005 62.0217 146.669C61.7097 146.321 61.5537 145.847 61.5537 145.247C61.5537 144.251 61.9677 143.465 62.7957 142.889C63.6357 142.301 64.7457 142.007 66.1257 142.007C66.7857 142.007 67.4277 142.085 68.0517 142.241C68.6757 142.385 69.1857 142.583 69.5817 142.835L68.7537 144.563C68.3577 144.311 67.9077 144.125 67.4037 144.005C66.9117 143.885 66.4137 143.825 65.9097 143.825C65.2017 143.825 64.6617 143.933 64.2897 144.149C63.9297 144.365 63.7497 144.647 63.7497 144.995C63.7497 145.307 63.9057 145.535 64.2177 145.679C64.5417 145.811 65.0397 145.949 65.7117 146.093C66.3837 146.225 66.9357 146.369 67.3677 146.525C67.7997 146.669 68.1717 146.909 68.4837 147.245C68.7957 147.581 68.9517 148.037 68.9517 148.613C68.9517 149.645 68.5317 150.443 67.6917 151.007C66.8517 151.571 65.7357 151.853 64.3437 151.853ZM73.4994 148.505C73.4754 148.697 73.4634 148.835 73.4634 148.919C73.4634 149.639 73.8414 149.999 74.5974 149.999C75.0654 149.999 75.4854 149.873 75.8574 149.621L76.2534 151.277C75.6414 151.661 74.8674 151.853 73.9314 151.853C73.1034 151.853 72.4374 151.625 71.9334 151.169C71.4294 150.713 71.1774 150.083 71.1774 149.279C71.1774 149.015 71.2014 148.763 71.2494 148.523L72.1674 143.987H70.6014L70.9614 142.187H72.5274L72.9594 139.991H75.2094L74.7594 142.187H77.3514L76.9914 143.987H74.3994L73.4994 148.505ZM89.1923 142.115L87.2663 151.727H85.1243L85.3403 150.665C84.4763 151.457 83.3903 151.853 82.0823 151.853C81.0263 151.853 80.1803 151.571 79.5443 151.007C78.9203 150.431 78.6083 149.627 78.6083 148.595C78.6083 148.211 78.6503 147.827 78.7343 147.443L79.7963 142.115H82.0463L80.9843 147.389C80.9363 147.629 80.9123 147.875 80.9123 148.127C80.9123 148.691 81.0683 149.123 81.3803 149.423C81.7043 149.723 82.1843 149.873 82.8203 149.873C83.6363 149.873 84.3143 149.645 84.8543 149.189C85.3943 148.721 85.7543 148.025 85.9343 147.101L86.9423 142.115H89.1923ZM102.272 138.371L99.6082 151.727H97.4662L97.6642 150.737C96.8002 151.481 95.7622 151.853 94.5502 151.853C93.7582 151.853 93.0382 151.685 92.3902 151.349C91.7542 151.013 91.2502 150.527 90.8782 149.891C90.5062 149.243 90.3202 148.487 90.3202 147.623C90.3202 146.543 90.5542 145.577 91.0222 144.725C91.4902 143.873 92.1322 143.207 92.9482 142.727C93.7762 142.247 94.7002 142.007 95.7202 142.007C96.4762 142.007 97.1302 142.133 97.6822 142.385C98.2462 142.637 98.6842 143.009 98.9962 143.501L100.022 138.371H102.272ZM95.1262 149.927C95.7502 149.927 96.3142 149.777 96.8182 149.477C97.3222 149.165 97.7122 148.739 97.9882 148.199C98.2762 147.647 98.4202 147.023 98.4202 146.327C98.4202 145.571 98.1982 144.983 97.7542 144.563C97.3102 144.131 96.6862 143.915 95.8822 143.915C95.2582 143.915 94.6942 144.071 94.1902 144.383C93.6862 144.683 93.2902 145.109 93.0022 145.661C92.7262 146.201 92.5882 146.819 92.5882 147.515C92.5882 148.271 92.8102 148.865 93.2542 149.297C93.6982 149.717 94.3222 149.927 95.1262 149.927ZM112.632 146.219C112.632 146.687 112.584 147.143 112.488 147.587H104.856C104.892 149.159 105.816 149.945 107.628 149.945C108.18 149.945 108.696 149.861 109.176 149.693C109.656 149.513 110.064 149.267 110.4 148.955L111.336 150.521C110.844 150.965 110.25 151.301 109.554 151.529C108.87 151.745 108.15 151.853 107.394 151.853C106.434 151.853 105.594 151.679 104.874 151.331C104.166 150.983 103.62 150.491 103.236 149.855C102.852 149.207 102.66 148.463 102.66 147.623C102.66 146.555 102.894 145.595 103.362 144.743C103.842 143.879 104.502 143.207 105.342 142.727C106.194 142.247 107.148 142.007 108.204 142.007C109.548 142.007 110.622 142.385 111.426 143.141C112.23 143.885 112.632 144.911 112.632 146.219ZM108.096 143.807C107.34 143.807 106.692 144.011 106.152 144.419C105.624 144.827 105.258 145.385 105.054 146.093H110.562C110.574 145.373 110.352 144.815 109.896 144.419C109.452 144.011 108.852 143.807 108.096 143.807ZM120.86 142.007C121.94 142.007 122.792 142.289 123.416 142.853C124.052 143.417 124.37 144.215 124.37 145.247C124.37 145.535 124.328 145.919 124.244 146.399L123.182 151.727H120.932L121.976 146.453C122.024 146.213 122.048 145.967 122.048 145.715C122.048 144.551 121.406 143.969 120.122 143.969C119.294 143.969 118.61 144.203 118.07 144.671C117.53 145.127 117.164 145.817 116.972 146.741L115.964 151.727H113.714L115.622 142.115H117.764L117.548 143.177C118.412 142.397 119.516 142.007 120.86 142.007ZM129.204 148.505C129.18 148.697 129.168 148.835 129.168 148.919C129.168 149.639 129.546 149.999 130.302 149.999C130.77 149.999 131.19 149.873 131.562 149.621L131.958 151.277C131.346 151.661 130.572 151.853 129.636 151.853C128.808 151.853 128.142 151.625 127.638 151.169C127.134 150.713 126.882 150.083 126.882 149.279C126.882 149.015 126.906 148.763 126.954 148.523L127.872 143.987H126.306L126.666 142.187H128.232L128.664 139.991H130.914L130.464 142.187H133.056L132.696 143.987H130.104L129.204 148.505ZM144.85 140.063C144.382 140.063 144.01 140.195 143.734 140.459C143.458 140.723 143.26 141.125 143.14 141.665L143.032 142.187H145.66L145.3 143.987H142.726L141.178 151.727H138.928L140.476 143.987H138.91L139.27 142.187H140.836L140.98 141.503C141.196 140.471 141.628 139.673 142.276 139.109C142.936 138.533 143.794 138.245 144.85 138.245C145.27 138.245 145.66 138.293 146.02 138.389C146.392 138.485 146.704 138.629 146.956 138.821L146.038 140.459C145.714 140.195 145.318 140.063 144.85 140.063ZM149.896 151.853C148.96 151.853 148.138 151.679 147.43 151.331C146.734 150.971 146.194 150.473 145.81 149.837C145.426 149.201 145.234 148.463 145.234 147.623C145.234 146.555 145.474 145.595 145.954 144.743C146.446 143.891 147.124 143.225 147.988 142.745C148.864 142.253 149.848 142.007 150.94 142.007C151.876 142.007 152.698 142.181 153.406 142.529C154.114 142.877 154.66 143.369 155.044 144.005C155.428 144.641 155.62 145.379 155.62 146.219C155.62 147.287 155.374 148.247 154.882 149.099C154.39 149.951 153.706 150.623 152.83 151.115C151.966 151.607 150.988 151.853 149.896 151.853ZM150.04 149.927C150.676 149.927 151.24 149.777 151.732 149.477C152.236 149.165 152.632 148.739 152.92 148.199C153.208 147.647 153.352 147.023 153.352 146.327C153.352 145.571 153.13 144.983 152.686 144.563C152.242 144.131 151.618 143.915 150.814 143.915C150.178 143.915 149.608 144.071 149.104 144.383C148.612 144.683 148.222 145.109 147.934 145.661C147.646 146.201 147.502 146.819 147.502 147.515C147.502 148.271 147.724 148.865 148.168 149.297C148.612 149.717 149.236 149.927 150.04 149.927ZM161.497 151.853C160.561 151.853 159.739 151.679 159.031 151.331C158.335 150.971 157.795 150.473 157.411 149.837C157.027 149.201 156.835 148.463 156.835 147.623C156.835 146.555 157.075 145.595 157.555 144.743C158.047 143.891 158.725 143.225 159.589 142.745C160.465 142.253 161.449 142.007 162.541 142.007C163.477 142.007 164.299 142.181 165.007 142.529C165.715 142.877 166.261 143.369 166.645 144.005C167.029 144.641 167.221 145.379 167.221 146.219C167.221 147.287 166.975 148.247 166.483 149.099C165.991 149.951 165.307 150.623 164.431 151.115C163.567 151.607 162.589 151.853 161.497 151.853ZM161.641 149.927C162.277 149.927 162.841 149.777 163.333 149.477C163.837 149.165 164.233 148.739 164.521 148.199C164.809 147.647 164.953 147.023 164.953 146.327C164.953 145.571 164.731 144.983 164.287 144.563C163.843 144.131 163.219 143.915 162.415 143.915C161.779 143.915 161.209 144.071 160.705 144.383C160.213 144.683 159.823 145.109 159.535 145.661C159.247 146.201 159.103 146.819 159.103 147.515C159.103 148.271 159.325 148.865 159.769 149.297C160.213 149.717 160.837 149.927 161.641 149.927ZM180.407 138.371L177.743 151.727H175.601L175.799 150.737C174.935 151.481 173.897 151.853 172.685 151.853C171.893 151.853 171.173 151.685 170.525 151.349C169.889 151.013 169.385 150.527 169.013 149.891C168.641 149.243 168.455 148.487 168.455 147.623C168.455 146.543 168.689 145.577 169.157 144.725C169.625 143.873 170.267 143.207 171.083 142.727C171.911 142.247 172.835 142.007 173.855 142.007C174.611 142.007 175.265 142.133 175.817 142.385C176.381 142.637 176.819 143.009 177.131 143.501L178.157 138.371H180.407ZM173.261 149.927C173.885 149.927 174.449 149.777 174.953 149.477C175.457 149.165 175.847 148.739 176.123 148.199C176.411 147.647 176.555 147.023 176.555 146.327C176.555 145.571 176.333 144.983 175.889 144.563C175.445 144.131 174.821 143.915 174.017 143.915C173.393 143.915 172.829 144.071 172.325 144.383C171.821 144.683 171.425 145.109 171.137 145.661C170.861 146.201 170.723 146.819 170.723 147.515C170.723 148.271 170.945 148.865 171.389 149.297C171.833 149.717 172.457 149.927 173.261 149.927ZM190.485 151.853C189.537 151.853 188.703 151.679 187.983 151.331C187.275 150.971 186.729 150.473 186.345 149.837C185.961 149.201 185.769 148.463 185.769 147.623C185.769 146.555 186.015 145.595 186.507 144.743C186.999 143.891 187.677 143.225 188.541 142.745C189.417 142.253 190.413 142.007 191.529 142.007C192.501 142.007 193.335 142.199 194.031 142.583C194.739 142.955 195.285 143.513 195.669 144.257L193.743 145.247C193.299 144.359 192.501 143.915 191.349 143.915C190.713 143.915 190.143 144.071 189.639 144.383C189.147 144.683 188.757 145.109 188.469 145.661C188.181 146.201 188.037 146.819 188.037 147.515C188.037 148.271 188.259 148.865 188.703 149.297C189.147 149.717 189.777 149.927 190.593 149.927C191.145 149.927 191.643 149.819 192.087 149.603C192.531 149.375 192.909 149.039 193.221 148.595L194.877 149.711C194.433 150.383 193.821 150.911 193.041 151.295C192.261 151.667 191.409 151.853 190.485 151.853ZM200.749 151.853C199.813 151.853 198.991 151.679 198.283 151.331C197.587 150.971 197.047 150.473 196.663 149.837C196.279 149.201 196.087 148.463 196.087 147.623C196.087 146.555 196.327 145.595 196.807 144.743C197.299 143.891 197.977 143.225 198.841 142.745C199.717 142.253 200.701 142.007 201.793 142.007C202.729 142.007 203.551 142.181 204.259 142.529C204.967 142.877 205.513 143.369 205.897 144.005C206.281 144.641 206.473 145.379 206.473 146.219C206.473 147.287 206.227 148.247 205.735 149.099C205.243 149.951 204.559 150.623 203.683 151.115C202.819 151.607 201.841 151.853 200.749 151.853ZM200.893 149.927C201.529 149.927 202.093 149.777 202.585 149.477C203.089 149.165 203.485 148.739 203.773 148.199C204.061 147.647 204.205 147.023 204.205 146.327C204.205 145.571 203.983 144.983 203.539 144.563C203.095 144.131 202.471 143.915 201.667 143.915C201.031 143.915 200.461 144.071 199.957 144.383C199.465 144.683 199.075 145.109 198.787 145.661C198.499 146.201 198.355 146.819 198.355 147.515C198.355 148.271 198.577 148.865 199.021 149.297C199.465 149.717 200.089 149.927 200.893 149.927ZM210.263 138.371H212.513L209.849 151.727H207.599L210.263 138.371ZM215.466 138.371H217.716L215.052 151.727H212.802L215.466 138.371ZM228.067 146.219C228.067 146.687 228.019 147.143 227.923 147.587H220.291C220.327 149.159 221.251 149.945 223.063 149.945C223.615 149.945 224.131 149.861 224.611 149.693C225.091 149.513 225.499 149.267 225.835 148.955L226.771 150.521C226.279 150.965 225.685 151.301 224.989 151.529C224.305 151.745 223.585 151.853 222.829 151.853C221.869 151.853 221.029 151.679 220.309 151.331C219.601 150.983 219.055 150.491 218.671 149.855C218.287 149.207 218.095 148.463 218.095 147.623C218.095 146.555 218.329 145.595 218.797 144.743C219.277 143.879 219.937 143.207 220.777 142.727C221.629 142.247 222.583 142.007 223.639 142.007C224.983 142.007 226.057 142.385 226.861 143.141C227.665 143.885 228.067 144.911 228.067 146.219ZM223.531 143.807C222.775 143.807 222.127 144.011 221.587 144.419C221.059 144.827 220.693 145.385 220.489 146.093H225.997C226.009 145.373 225.787 144.815 225.331 144.419C224.887 144.011 224.287 143.807 223.531 143.807ZM233.956 151.853C233.008 151.853 232.174 151.679 231.454 151.331C230.746 150.971 230.2 150.473 229.816 149.837C229.432 149.201 229.24 148.463 229.24 147.623C229.24 146.555 229.486 145.595 229.978 144.743C230.47 143.891 231.148 143.225 232.012 142.745C232.888 142.253 233.884 142.007 235 142.007C235.972 142.007 236.806 142.199 237.502 142.583C238.21 142.955 238.756 143.513 239.14 144.257L237.214 145.247C236.77 144.359 235.972 143.915 234.82 143.915C234.184 143.915 233.614 144.071 233.11 144.383C232.618 144.683 232.228 145.109 231.94 145.661C231.652 146.201 231.508 146.819 231.508 147.515C231.508 148.271 231.73 148.865 232.174 149.297C232.618 149.717 233.248 149.927 234.064 149.927C234.616 149.927 235.114 149.819 235.558 149.603C236.002 149.375 236.38 149.039 236.692 148.595L238.348 149.711C237.904 150.383 237.292 150.911 236.512 151.295C235.732 151.667 234.88 151.853 233.956 151.853ZM242.9 148.505C242.876 148.697 242.864 148.835 242.864 148.919C242.864 149.639 243.242 149.999 243.998 149.999C244.466 149.999 244.886 149.873 245.258 149.621L245.654 151.277C245.042 151.661 244.268 151.853 243.332 151.853C242.504 151.853 241.838 151.625 241.334 151.169C240.83 150.713 240.578 150.083 240.578 149.279C240.578 149.015 240.602 148.763 240.65 148.523L241.568 143.987H240.002L240.362 142.187H241.928L242.36 139.991H244.61L244.16 142.187H246.752L246.392 143.987H243.8L242.9 148.505ZM249.269 142.115H251.519L249.611 151.727H247.361L249.269 142.115ZM250.907 140.531C250.511 140.531 250.187 140.411 249.935 140.171C249.683 139.919 249.557 139.619 249.557 139.271C249.557 138.863 249.695 138.521 249.971 138.245C250.259 137.969 250.631 137.831 251.087 137.831C251.483 137.831 251.807 137.951 252.059 138.191C252.311 138.419 252.437 138.701 252.437 139.037C252.437 139.481 252.293 139.841 252.005 140.117C251.729 140.393 251.363 140.531 250.907 140.531ZM263.49 142.115L257.46 151.727H255.138L252.924 142.115H255.138L256.74 149.261L261.222 142.115H263.49ZM272.768 146.219C272.768 146.687 272.72 147.143 272.624 147.587H264.992C265.028 149.159 265.952 149.945 267.764 149.945C268.316 149.945 268.832 149.861 269.312 149.693C269.792 149.513 270.2 149.267 270.536 148.955L271.472 150.521C270.98 150.965 270.386 151.301 269.69 151.529C269.006 151.745 268.286 151.853 267.53 151.853C266.57 151.853 265.73 151.679 265.01 151.331C264.302 150.983 263.756 150.491 263.372 149.855C262.988 149.207 262.796 148.463 262.796 147.623C262.796 146.555 263.03 145.595 263.498 144.743C263.978 143.879 264.638 143.207 265.478 142.727C266.33 142.247 267.284 142.007 268.34 142.007C269.684 142.007 270.758 142.385 271.562 143.141C272.366 143.885 272.768 144.911 272.768 146.219ZM268.232 143.807C267.476 143.807 266.828 144.011 266.288 144.419C265.76 144.827 265.394 145.385 265.19 146.093H270.698C270.71 145.373 270.488 144.815 270.032 144.419C269.588 144.011 268.988 143.807 268.232 143.807Z" fill="white"/>
</g>
<path d="M253.242 70.9522L256.411 63.7302L257.109 63.8164L257.608 67.1517C257.741 66.0768 258.101 65.0047 258.333 63.9422L260.576 64.2191L262.047 64.4007L263.937 72.2475L258.943 74.1686L253.242 70.9522Z" fill="#9E7646" stroke="#9E7646" stroke-width="0.25" stroke-miterlimit="10"/>
<path d="M253.433 69.0224C252.388 68.9969 251.343 69.0805 250.315 69.2718C246.26 70.1416 243.106 82.3649 243.106 82.3649C240.687 91.7098 239.438 97.3164 242.415 102.1C243.979 104.602 246.725 106.54 247.967 105.704C249.209 104.867 247.865 101.199 248.365 93.876C248.574 90.5974 249.11 87.3478 249.967 84.1765C252.332 75.8907 256.721 70.4688 255.501 69.2778C255.274 69.072 254.669 69.0482 253.433 69.0224Z" fill="#E58910" stroke="#C67409" stroke-miterlimit="10"/>
<path d="M249.881 105.204C248.051 103.633 248.43 99.9494 248.873 92.873C249.03 89.6757 249.608 86.5129 250.591 83.4669C251.157 81.8043 251.864 80.1935 252.704 78.6522C252.704 78.6522 253.536 76.2172 255.4 71.9808C256.457 69.5735 256.752 69.0262 257.294 68.9409C258.605 68.7729 260.402 71.228 261.218 73.6381C262.299 76.9693 261.084 78.824 260.533 85.329C260.341 87.6073 260.27 89.8942 260.32 92.18C260.563 100.458 262.598 103.856 260.6 105.69C259.741 106.498 258.595 106.559 256.359 106.638C254.097 106.953 251.799 106.444 249.881 105.204Z" fill="#E58910" stroke="#C67409" stroke-miterlimit="10"/>
<path d="M260.305 69.9469C259.312 71.2201 262.42 73.3042 262.048 77.3441C261.928 78.319 261.346 81.597 261.36 82.9184C261.374 84.2398 261.278 84.8116 261.253 85.2146C261.14 97.4073 260.12 104.438 262.747 105.701C264.205 106.389 266.441 105.092 267.592 103.762C269.545 101.465 268.505 99.0274 268.152 90.2031C267.979 85.6644 267.958 83.3778 267.958 80.5101C267.927 75.2277 267.802 72.5476 266.948 71.4777C265.076 69.2164 261.235 68.7675 260.305 69.9469Z" fill="#E58910" stroke="#C67409" stroke-miterlimit="10"/>
<path d="M268.049 75.0388C268.426 77.3368 268.57 79.6673 268.481 81.9948C268.51 85.8559 268.212 86.4281 268.399 89.4204C268.563 91.7755 268.738 91.7971 268.933 93.9022C269.502 100.571 267.898 103.722 269.478 104.654C270.635 105.329 272.409 104.483 273.268 103.878C274.039 103.209 274.668 102.392 275.12 101.477C275.572 100.561 275.837 99.5636 275.901 98.5438C277.622 86.8542 278.954 77.502 273.255 72.8393C271.169 71.0844 268.046 69.9375 267.234 70.7762C266.422 71.6149 267.489 72.4064 268.049 75.0388Z" fill="#E58910" stroke="#C67409" stroke-miterlimit="10"/>
<path d="M247.73 69.3337C248.335 70.1697 247.206 71.3245 244.732 76.8053C243.154 80.2163 241.934 83.7822 241.09 87.4457C240.963 88.14 240.877 88.8411 240.831 89.5455C240.291 93.9199 239.905 97.0445 241.367 100.372C241.798 101.389 242.824 102.709 242.314 103.56C241.804 104.41 239.668 104.502 238.599 104.141C232.535 102.022 230.609 76.6347 240.666 70.3902C243.06 68.8331 246.816 68.1295 247.73 69.3337Z" fill="#E58910" stroke="#C67409" stroke-miterlimit="10"/>
<path d="M74.0003 77.6759C71.0838 76.9097 66.3289 75.6628 65.6055 72.2997C64.8822 68.9367 69.3882 65.0265 69.8052 64.7228C69.6137 63.9063 69.6519 63.0524 69.9155 62.2561C70.1792 61.4597 70.6579 60.7522 71.2984 60.2122C71.7755 59.8438 72.3233 59.5782 72.9074 59.432C73.4915 59.2857 74.0993 59.2621 74.6928 59.3625C73.6568 57.5902 73.1863 55.5422 73.3443 53.4933C73.5023 51.4443 74.2814 49.4924 75.5769 47.8993C76.733 46.8839 78.09 46.1248 79.5588 45.672C81.0276 45.2192 82.575 45.0829 84.0996 45.2719C85.5034 45.3879 86.8794 45.7291 88.1751 46.2827C88.0518 45.7941 88.1157 45.2768 88.3541 44.8329C88.566 44.4183 88.8963 44.0764 89.3027 43.8509C89.7091 43.6253 90.1734 43.5263 90.636 43.5666C91.7135 42.1113 93.0841 40.8994 94.6587 40.0095C96.2333 39.1197 97.9767 38.5718 99.7757 38.4015C106.572 38.0733 110.738 44.5007 111.512 45.8145C112.593 47.6093 113.301 49.6042 113.596 51.6803C114.055 51.1295 114.705 50.7742 115.414 50.6867C117.361 50.4956 119.656 52.8093 120.704 56.6184C121.121 56.3705 121.588 56.2201 122.071 56.1786C122.553 56.1372 123.039 56.2057 123.492 56.379C125.848 57.7866 125.577 66.1278 121.339 69.5126C118.78 71.5823 116.521 70.415 110.301 71.3981C105.144 72.1824 104.784 73.2546 98.148 75.3537C90.9175 77.5569 82.7217 79.9963 74.0003 77.6759Z" fill="#5DAF67" stroke="#5A9E61" stroke-width="0.25" stroke-miterlimit="10"/>
<path d="M86.1923 74.8408C88.1801 78.4964 89.4881 82.4846 90.0526 86.6106L91.6445 92.1619L93.9215 92.1639L94.8688 86.9515C95.4534 88.7748 96.0379 90.5981 96.7253 92.4086L99.9679 92.3776C98.9026 89.1412 98.813 85.6609 99.7105 82.3723C100.917 78.131 103.597 75.8987 106.274 68.5651C106.662 67.471 106.95 66.5676 107.149 65.9831C106.549 66.9342 105.724 67.7225 104.748 68.2784C103.772 68.8342 102.675 69.1405 101.553 69.17C100.431 69.1996 99.3195 68.9516 98.3164 68.4479C97.3134 67.9443 96.4496 67.2005 95.8016 66.2823C95.9799 66.9275 95.9779 67.6096 95.7956 68.254C95.6134 68.8984 95.2581 69.4803 94.7685 69.936C94.3289 70.2435 93.8286 70.4528 93.3015 70.5497C92.7744 70.6466 92.2328 70.6289 91.7133 70.4977C90.5282 70.2899 89.4394 69.7113 88.6027 68.8447C88.7315 69.8504 88.4329 70.2195 88.2587 70.4011C88.0845 70.5826 86.7106 70.4383 84.2456 69.4995L80.9984 68.3372C83.0815 70.1972 84.8373 72.3958 86.1923 74.8408Z" fill="#548E58" stroke="#548E58" stroke-width="0.75" stroke-miterlimit="10"/>
<path d="M84.4831 54.6822C84.9086 53.677 85.6947 52.8684 86.6859 52.4164C87.2996 52.1705 87.9614 52.0698 88.62 52.1223C88.8581 51.4802 89.2413 50.9021 89.7395 50.4333C90.2191 49.9737 90.8059 49.642 91.4462 49.4683C92.0865 49.2947 92.7598 49.2847 93.4047 49.4393C94.3297 49.7916 95.0791 50.4949 95.4908 51.3973C95.8148 51.2184 96.1867 51.1466 96.5536 51.1919C96.9205 51.2372 97.2638 51.3974 97.5345 51.6496C97.795 51.9519 97.9362 52.3394 97.9314 52.7391C97.7474 52.4287 97.4807 52.176 97.1611 52.0096C96.8932 51.8915 96.6032 51.8321 96.3104 51.8353C96.0177 51.8386 95.729 51.9044 95.4635 52.0283C95.0058 51.26 94.2858 50.6843 93.4369 50.4077C92.9909 50.2352 92.5106 50.1698 92.0347 50.2168C91.5587 50.2638 91.1003 50.4218 90.696 50.6783C90.0906 51.0887 89.6679 51.7191 89.5175 52.4361C88.7158 52.5709 87.9321 52.7977 87.182 53.1121C86.2123 53.5037 85.3035 54.0324 84.4831 54.6822Z" fill="#5A9E61" stroke="#5A9E61" stroke-width="0.12" stroke-miterlimit="10"/>
<path d="M102.295 57.7963C102.983 57.6845 103.683 57.6769 104.373 57.7737C105.403 57.7737 106.402 58.1206 107.212 58.7587C107.311 58.9084 107.402 59.0636 107.483 59.2237C107.62 59.529 107.7 59.8572 107.718 60.1916C107.908 59.8129 107.961 59.3803 107.869 58.9668C107.562 57.3555 104.296 56.1401 102.167 57.1968C101.71 57.422 101.307 57.7447 100.987 58.1424C101.408 57.9763 101.847 57.8602 102.295 57.7963Z" fill="#5A9E61" stroke="#5A9E61" stroke-width="0.12" stroke-miterlimit="10"/>
<path d="M116.217 59.1599C116.522 59.4262 116.791 59.7325 117.015 60.0705C117.526 60.8566 117.807 61.7704 117.828 62.7087C118.103 62.3018 118.288 61.8403 118.37 61.3556C118.451 60.8708 118.428 60.3742 118.301 59.8995C117.664 58.0951 115.137 57.8592 114.838 57.8223C114.386 57.7899 113.931 57.8191 113.486 57.9092C114.503 58.0371 115.455 58.4735 116.217 59.1599Z" fill="#5A9E61" stroke="#5A9E61" stroke-width="0.12" stroke-miterlimit="10"/>
<path d="M87.7562 62.1669C87.7503 61.743 87.8907 61.33 88.1536 60.9978C88.4784 60.6552 88.9194 60.4471 89.3896 60.4145C89.6332 60.4155 89.8758 60.4455 90.1123 60.5037C90.3647 60.4995 90.6163 60.5305 90.86 60.5961C90.2336 60.5 89.5928 60.6114 89.0349 60.9135C88.4771 61.2156 88.0326 61.6918 87.7688 62.2699L87.7562 62.1669Z" fill="#5A9E61" stroke="#5A9E61" stroke-width="0.12" stroke-miterlimit="10"/>
<path d="M148.121 76.0163L142.781 67.2106C143.804 67.18 144.812 66.9511 145.749 66.5366C146.716 66.1034 147.586 65.4767 148.304 64.695L148.121 76.0163Z" fill="#7C6745" stroke="#685130" stroke-width="0.25" stroke-miterlimit="10"/>
<path d="M148.653 77.2485C147.4 75.8578 145.852 74.7655 144.123 74.0515C142.395 73.3376 140.529 73.0199 138.662 73.1217C136.063 73.6222 133.698 74.959 131.925 76.9294C130.152 78.8997 129.067 81.396 128.837 84.0392C128.528 86.5389 130.794 90.1177 135.153 97.2289C140.003 105.086 141.955 106.9 143.709 106.635C145.462 106.369 146.455 103.446 148.484 103.621C150.512 103.795 150.701 106.153 152.243 106.369C153.785 106.585 155.988 103.71 158.702 99.553C165.553 89.1565 166.042 89.6991 166.603 87.2052C166.721 86.2554 168.856 76.9516 163.491 73.4722C159.645 71.0178 153.214 72.2793 148.653 77.2485Z" fill="#F97253" stroke="#E56A55" stroke-width="0.25" stroke-miterlimit="10"/>
<path d="M149.569 73.2766C150.189 71.2765 151.505 69.5658 153.277 68.4558C154.833 67.3183 156.668 66.624 158.585 66.4467C159.526 66.3588 160.475 66.4075 161.401 66.5914C161.245 67.9985 160.808 69.3599 160.116 70.5945C159.424 71.8291 158.492 72.9116 157.374 73.7776C156.257 74.6436 154.977 75.2754 153.612 75.6353C152.246 75.9953 150.822 76.0761 149.426 75.8728C149.323 75.0057 149.372 74.1273 149.569 73.2766Z" fill="#5DAF67" stroke="#5DAF67" stroke-width="0.75" stroke-miterlimit="10"/>
<path d="M148.64 76.3089C150.931 74.9197 153.118 73.3663 155.185 71.6609C157.489 69.9316 159.681 68.0578 161.749 66.0507C159.517 67.4222 157.378 68.9382 155.343 70.5891C153.694 71.8574 152.219 73.1472 151.428 73.8109C150.638 74.4746 148.593 76.2778 148.64 76.3089Z" fill="#5A9E61" stroke="#5A9E61" stroke-width="0.1" stroke-miterlimit="10"/>
<path d="M146.807 65.9564L147.773 74.3235C146.72 71.7826 145.639 69.2636 144.562 66.7197" stroke="#60492C" stroke-width="0.2" stroke-miterlimit="10"/>
<path d="M134.417 79.197C134.679 79.6268 135.073 79.9602 135.539 80.1477C135.93 80.3202 136.364 80.3737 136.785 80.3015C136.207 81.6574 135.817 83.0867 135.628 84.549C135.379 86.3977 135.473 88.2764 135.906 90.0903C134.42 88.3387 133.553 86.1443 133.438 83.8471C133.39 82.2412 133.725 80.6468 134.417 79.197Z" fill="white"/>
<path d="M203.761 55.9354C201.417 57.2853 199.213 58.8664 197.182 60.6553L200.453 66.3377L194.957 62.893C191.05 65.7074 188.231 69.7878 186.977 74.4443C186.311 77.114 186.209 79.8936 186.678 82.6044L194.083 85.752L187.423 85.5894C188.14 87.8753 189.127 90.0673 190.361 92.1191C191.532 94.1443 192.94 96.022 194.554 97.7124C195.484 97.5714 196.38 97.2606 197.198 96.7953C197.962 96.3582 198.635 95.7779 199.18 95.086L197.536 92.8274L201.505 93.4698C202.199 92.9718 202.899 92.4238 203.603 91.8508C207.13 88.926 210.226 85.5147 212.799 81.7186L205.499 77.315L214.093 77.5896C214.721 73.3489 214.568 69.0293 213.643 64.845C212.731 60.7988 211.097 56.9517 208.82 53.4893C207.078 54.1828 205.387 55.0002 203.761 55.9354Z" fill="#992E11" stroke="#992E11" stroke-width="0.75" stroke-miterlimit="10"/>
<path d="M208.797 53.0563C208.585 46.7871 207.29 44.7746 205.903 44.1211C205.498 43.9188 204.291 43.44 201.561 42.1893L200.268 41.5981C200.17 42.0419 200.115 42.4938 200.101 42.948C200.033 44.5178 200.421 46.0734 201.218 47.4255C203.057 50.0888 205.721 52.0682 208.797 53.0563Z" fill="#2E6031" stroke="#336D33" stroke-width="0.15" stroke-miterlimit="10"/>
<path d="M208.73 52.5651C208.866 51.2511 209.308 49.9873 210.021 48.8761C210.734 47.7649 211.698 46.8376 212.835 46.1692C213.85 45.6596 214.977 45.4147 216.111 45.4571C216.573 45.4515 217.034 45.5084 217.482 45.6263C217.3 45.6795 217.128 45.761 216.971 45.8678C215.573 46.7358 215.619 48.6193 215.215 49.6354C214.812 50.6514 213.237 52.1319 208.73 52.5651Z" fill="#447F49" stroke="#357235" stroke-width="0.15" stroke-miterlimit="10"/>
<path d="M208.806 53.4369C207.701 51.2515 205.811 49.5674 203.517 48.7235C201.975 48.1468 200.296 48.0455 198.695 48.4325C198.258 48.6348 197.789 48.7574 197.309 48.7944C196.685 48.865 196.053 48.787 195.465 48.5667C196.146 49.3099 196.914 49.9672 197.753 50.5242C199.402 51.4865 201.2 52.1633 203.073 52.5261C204.959 52.9699 206.875 53.2743 208.806 53.4369Z" fill="#468C48" stroke="#336D33" stroke-width="0.15" stroke-miterlimit="10"/>
<path d="M209.072 52.886C210.406 52.5354 211.772 52.3215 213.149 52.2474C213.913 52.1451 214.689 52.1978 215.432 52.4024C216.468 52.9632 217.397 53.7052 218.173 54.5934L218.737 55.1453C218.384 55.3494 218.016 55.5246 217.635 55.669C216.485 56.0231 215.273 56.1245 214.081 55.9661C212.091 55.5901 210.308 54.494 209.072 52.886Z" fill="#2E6031" stroke="#336D33" stroke-width="0.15" stroke-miterlimit="10"/>
<path d="M213.737 64.6785C212.996 64.538 212.247 64.4455 211.494 64.4015C210.949 64.194 210.421 63.9422 209.917 63.6484C210.301 64.2154 210.831 64.6668 211.451 64.9545C212.149 65.3176 212.93 65.4927 213.716 65.4626C213.716 65.4626 214.604 65.4453 214.579 65.2392C214.554 65.0331 213.859 64.7188 213.737 64.6785Z" fill="#681F0F"/>
<path d="M214.234 76.06C213.518 75.923 212.794 75.8335 212.066 75.7922C211.531 75.6066 211.019 75.3646 210.535 75.0703C210.892 75.6358 211.41 76.0802 212.023 76.3452C212.695 76.7058 213.451 76.8782 214.213 76.8441C214.213 76.8441 215.054 76.7957 215.051 76.6176C215.047 76.4395 214.331 76.0973 214.234 76.06Z" fill="#681F0F"/>
<path d="M202.936 91.6934C201.783 90.9927 201.275 91.2092 200.253 90.6769C199.616 90.2709 199.012 89.8144 198.448 89.312C198.448 89.312 199.013 90.473 200.045 91.3364C200.823 91.9814 201.755 92.4115 202.75 92.5841C202.9 92.6025 203.872 92.7226 203.893 92.5476C203.915 92.3726 203.079 91.7619 202.936 91.6934Z" fill="#681F0F"/>
<path d="M213.858 66.3696C212.959 66.1178 212.046 65.9202 211.123 65.778C210.443 65.5124 209.789 65.1853 209.168 64.8008C209.68 65.4829 210.351 66.0278 211.123 66.3872C211.975 66.8495 212.92 67.1136 213.887 67.1599C214.037 67.1784 214.959 67.2922 214.921 66.983C214.883 66.6738 214.008 66.3881 213.858 66.3696Z" fill="#681F0F"/>
<path d="M196.96 80.0926C198.184 80.6245 198.356 80.8741 199.335 81.3502C200.313 81.8263 201.444 82.0929 201.438 82.1429C200.6 82.0165 199.778 81.7959 198.989 81.4852C198.087 81.1702 197.221 80.757 196.409 80.2529C196.409 80.2529 195.564 79.7172 195.719 79.6857C196.144 79.7851 196.559 79.9212 196.96 80.0926Z" fill="#681F0F"/>
<path d="M194.073 76.615C195.347 77.3561 195.451 77.7495 196.38 78.4226C197.309 79.0956 198.611 79.4087 198.599 79.5086C197.665 79.3826 196.759 79.0992 195.919 78.6702C194.945 78.2333 194.052 77.6339 193.279 76.8976C193.154 76.8822 192.462 76.1369 192.673 76.0616C192.885 75.9862 193.945 76.4215 194.073 76.615Z" fill="#681F0F"/>
<path d="M198.9 59.625C199.96 60.4665 199.958 60.8975 200.825 61.6644C201.406 62.1332 202.022 62.5571 202.667 62.9324C201.797 62.7665 200.977 62.4048 200.267 61.8747C199.445 61.3335 198.724 60.6518 198.137 59.8607C198.137 59.8607 197.535 58.9996 197.744 58.9492C197.953 58.8989 198.797 59.4346 198.9 59.625Z" fill="#681F0F"/>
<path d="M190.287 68.1281C191.474 68.7569 191.568 69.2253 192.609 69.8107C193.284 70.1541 193.984 70.4443 194.704 70.6784C193.855 70.7224 193.007 70.5656 192.23 70.2206C191.295 69.8859 190.445 69.3477 189.742 68.6446C189.742 68.6446 189.003 67.8681 189.171 67.7366C189.339 67.6051 190.144 68.0597 190.287 68.1281Z" fill="#681F0F"/>
<path d="M193.926 91.4932C193.667 91.4115 193.418 91.3042 193.181 91.1728C192.604 90.924 192.551 90.9428 192.314 90.812C192.091 90.6809 191.881 90.5275 191.688 90.354C191.923 90.7218 192.24 91.0301 192.614 91.2551C192.974 91.4623 193.367 91.6053 193.776 91.6778L194.026 91.7085C194.218 91.7102 194.409 91.6825 194.592 91.6263C194.366 91.6049 194.143 91.5603 193.926 91.4932Z" fill="#681F0F"/>
<path d="M194.716 91.489L194.99 91.5228L195.239 91.5536C195.423 91.6154 195.618 91.6394 195.812 91.6244C195.547 91.5612 195.308 91.4163 195.13 91.2102L194.952 91.0106C194.66 90.8225 194.326 90.7114 193.98 90.6875C193.608 90.5787 193.288 90.3413 193.075 90.0176C193.273 90.4081 193.549 90.7532 193.886 91.0313C194.142 91.2197 194.42 91.3735 194.716 91.489Z" fill="#681F0F"/>
<path d="M203.332 91.4117C203.074 91.33 202.824 91.2227 202.587 91.0913C202.288 90.9902 201.999 90.861 201.724 90.7055C201.495 90.5911 201.283 90.4454 201.094 90.2725C201.338 90.6335 201.653 90.9403 202.02 91.1736C202.38 91.3808 202.774 91.5239 203.183 91.5963L203.432 91.627C203.627 91.6346 203.822 91.5979 204.002 91.5197C203.774 91.5221 203.547 91.4855 203.332 91.4117Z" fill="#681F0F"/>
<path d="M204.158 91.4113L204.432 91.4452L204.681 91.476C204.865 91.5377 205.06 91.5618 205.254 91.5468C204.994 91.4716 204.759 91.3287 204.571 91.1326L204.394 90.933C204.102 90.7448 203.768 90.6337 203.421 90.6099C203.05 90.5011 202.73 90.2636 202.517 89.9399C202.715 90.3304 202.991 90.6756 203.328 90.9537C203.584 91.142 203.862 91.2959 204.158 91.4113Z" fill="#681F0F"/>
<path d="M200.449 63.4952L199.704 63.1748L198.866 62.7921C198.633 62.6709 198.413 62.5246 198.211 62.356C198.461 62.7119 198.775 63.0176 199.137 63.2571C199.497 63.4626 199.893 63.5975 200.303 63.6547L200.577 63.6886C200.765 63.6958 200.952 63.658 201.122 63.5783L200.449 63.4952Z" fill="#681F0F"/>
<path d="M201.239 63.4664L201.514 63.5003L201.713 63.5249C201.892 63.5712 202.076 63.594 202.261 63.5926C202.003 63.5133 201.768 63.371 201.579 63.1784L201.401 62.9788C201.133 62.6919 200.771 62.7488 200.429 62.6557C200.06 62.5438 199.747 62.2968 199.552 61.9639C199.729 62.3661 199.997 62.7209 200.335 62.9995C200.612 63.1986 200.917 63.3559 201.239 63.4664Z" fill="#681F0F"/>
<path d="M206.619 78.6977L207.268 79.1838C207.502 79.3838 207.75 79.567 208.01 79.7323L208.702 80.0715C208.274 80.0323 207.858 79.9033 207.483 79.6926C207.117 79.4958 206.797 79.2227 206.545 78.8915L206.392 78.695C206.297 78.5194 206.226 78.3313 206.183 78.1362C206.306 78.3395 206.453 78.5279 206.619 78.6977Z" fill="#681F0F"/>
<path d="M206.233 78.117L206.002 77.9363L205.825 77.7366C205.71 77.5802 205.62 77.4063 205.559 77.2217C205.745 77.4155 205.984 77.5508 206.245 77.6109L206.519 77.6448C206.918 77.694 207.046 78.0905 207.296 78.3243C207.571 78.5988 207.942 78.754 208.33 78.7566C207.955 78.791 207.576 78.7499 207.216 78.6358C206.857 78.5217 206.524 78.3368 206.236 78.092L206.233 78.117Z" fill="#681F0F"/>
<path d="M190.756 70.2922C190.96 70.47 191.177 70.6325 191.404 70.7783L192.168 71.3548C192.385 71.4899 192.619 71.5956 192.863 71.669C192.427 71.643 192.001 71.5211 191.617 71.3121C191.262 71.099 190.945 70.8283 190.678 70.511L190.529 70.2895C190.45 70.1187 190.387 69.9411 190.341 69.7588C190.458 69.9527 190.597 70.1318 190.756 70.2922Z" fill="#681F0F"/>
<path d="M211.428 63.9116L210.683 63.5913L209.82 63.2055C209.597 63.0813 209.386 62.9363 209.19 62.7725C209.429 63.1315 209.747 63.4311 210.119 63.6485C210.479 63.8558 210.873 63.9988 211.282 64.0712L211.531 64.102C211.725 64.0977 211.918 64.0614 212.101 63.9947L211.428 63.9116Z" fill="#681F0F"/>
<path d="M212.212 63.8817C212.301 63.9078 212.394 63.9193 212.486 63.9155L212.735 63.9463C212.919 64.0117 213.115 64.0359 213.309 64.0171C213.053 63.9318 212.82 63.7903 212.626 63.6029C212.626 63.6029 212.641 63.4779 212.448 63.4033C212.255 63.3287 211.794 63.1702 211.476 63.0802C211.111 62.9472 210.797 62.7045 210.575 62.3853C210.773 62.7757 211.049 63.1209 211.386 63.399C211.631 63.6069 211.911 63.7702 212.212 63.8817Z" fill="#681F0F"/>
<path d="M205.904 79.5726L205.062 79.2149C204.74 79.1067 204.427 78.9747 204.124 78.8199C203.872 78.686 203.637 78.5206 203.426 78.3276C203.683 78.7381 204.029 79.0847 204.44 79.341C204.837 79.5685 205.273 79.7172 205.727 79.7791L206.001 79.8129C206.224 79.8013 206.445 79.7512 206.652 79.6649C206.4 79.6617 206.149 79.6307 205.904 79.5726Z" fill="#681F0F"/>
<path d="M206.771 79.5023C206.877 79.5303 206.986 79.5438 207.095 79.5423L207.319 79.57C207.533 79.5902 207.749 79.5739 207.958 79.5219C207.684 79.4315 207.434 79.2791 207.228 79.0766L207.032 78.8239C206.717 78.5059 206.328 78.5847 205.957 78.5135C205.548 78.3846 205.204 78.1065 204.99 77.7344C205.182 78.1816 205.47 78.5809 205.833 78.9043C206.115 79.1474 206.431 79.3487 206.771 79.5023Z" fill="#681F0F"/>
<path d="M193.95 94.3652L193.691 94.2063L193.467 94.1786C193.343 94.0343 193.235 93.8763 193.146 93.7075C193.354 93.8696 193.608 93.963 193.872 93.9748L194.146 94.0087C194.545 94.0579 194.732 94.3856 195.013 94.5725C195.328 94.7921 195.714 94.885 196.094 94.8329C195.67 94.9386 195.228 94.9447 194.801 94.8509C194.497 94.7271 194.211 94.5638 193.95 94.3652Z" fill="#681F0F"/>
<path d="M193.854 96.0274C193.553 96.0162 193.253 95.9791 192.957 95.9166L191.96 95.7935C191.69 95.6957 191.434 95.5616 191.2 95.395C191.514 95.7666 191.912 96.059 192.359 96.2488C192.784 96.3915 193.234 96.447 193.68 96.4119L193.979 96.4489C194.195 96.3935 194.401 96.3079 194.593 96.1947C194.34 96.1735 194.092 96.1172 193.854 96.0274Z" fill="#681F0F"/>
<path d="M194.703 95.8523L195.302 95.9262C195.517 95.909 195.728 95.858 195.927 95.7751C195.639 95.7382 195.364 95.6255 195.133 95.4485L194.905 95.2428C194.559 94.9717 194.157 95.1505 193.784 95.1043C193.358 95.0394 192.971 94.82 192.696 94.4878C192.955 94.9058 193.311 95.2546 193.734 95.5043C194.038 95.6687 194.365 95.7861 194.703 95.8523Z" fill="#681F0F"/>
<path d="M206.967 55.7986L206.222 55.4783L205.275 55.1583C205.042 55.037 204.822 54.8908 204.62 54.7222C204.881 55.0784 205.203 55.3847 205.571 55.6263C205.931 55.8318 206.327 55.9668 206.737 56.024L206.986 56.0548C207.182 56.0623 207.376 56.0256 207.556 55.9475C207.355 55.9166 207.158 55.8668 206.967 55.7986Z" fill="#681F0F"/>
<path d="M207.726 55.7648L208.025 55.8017L208.274 55.8325C208.454 55.8788 208.638 55.9016 208.823 55.9002C208.572 55.821 208.346 55.6796 208.165 55.4891C208.094 55.4341 208.034 55.3665 207.987 55.2895C207.694 54.9995 207.333 55.0564 207.015 54.9664C206.636 54.8617 206.312 54.6123 206.114 54.2715C206.301 54.675 206.577 55.0303 206.922 55.3102C207.166 55.501 207.437 55.6542 207.726 55.7648Z" fill="#681F0F"/>
<path d="M206.767 56.7889L207.415 57.275C207.927 57.6427 207.921 57.6927 208.157 57.8234C208.387 57.9556 208.627 58.07 208.874 58.1657C208.437 58.1284 208.014 57.9982 207.631 57.7838C207.269 57.5811 206.95 57.3089 206.692 56.9827L206.54 56.7862C206.439 56.6163 206.376 56.4268 206.355 56.2305C206.469 56.4331 206.607 56.6207 206.767 56.7889Z" fill="#681F0F"/>
<path d="M206.391 56.0821L206.185 55.9045L206.008 55.7049C205.875 55.5599 205.783 55.3822 205.742 55.1899C205.925 55.3874 206.165 55.5234 206.428 55.5791L206.677 55.6099C207.076 55.6592 207.229 56.0587 207.454 56.2895C207.734 56.5554 208.102 56.7092 208.488 56.7218C208.058 56.7569 207.626 56.7035 207.217 56.5648C206.922 56.4411 206.644 56.2788 206.391 56.0821Z" fill="#681F0F"/>
<path d="M189.53 83.6668C189.158 83.5837 188.79 83.479 188.43 83.3533C187.604 83.0737 187.551 83.0926 187.19 82.9464C186.844 82.8193 186.507 82.6675 186.183 82.4922C187.1 83.2379 188.208 83.709 189.381 83.8514L189.73 83.8945C189.975 83.8921 190.218 83.8537 190.452 83.7807C190.142 83.7714 189.833 83.7332 189.53 83.6668Z" fill="#681F0F"/>
<path d="M190.525 83.7909L190.924 83.8401L191.273 83.8832C191.527 83.9088 191.784 83.8978 192.036 83.8505C191.667 83.771 191.317 83.6245 191.001 83.4183L190.696 83.2283C190.27 83.0081 189.8 82.8892 189.321 82.8809C188.793 82.7678 188.301 82.5239 187.891 82.1714C188.303 82.5983 188.779 82.957 189.303 83.234C189.691 83.4601 190.1 83.6467 190.525 83.7909Z" fill="#681F0F"/>
<path d="M188.28 82.5238C188.021 82.4523 187.77 82.3532 187.532 82.2285L186.693 81.8458C186.463 81.7199 186.244 81.5739 186.039 81.4097C186.284 81.7634 186.601 82.0618 186.968 82.2858C187.328 82.493 187.722 82.636 188.13 82.7084L188.405 82.7423C188.591 82.7375 188.776 82.7002 188.95 82.6319C188.722 82.6315 188.496 82.5951 188.28 82.5238Z" fill="#681F0F"/>
<path d="M189.069 82.5194C189.158 82.5455 189.251 82.557 189.344 82.5532L189.618 82.5871C189.793 82.6502 189.98 82.6733 190.166 82.6548C189.911 82.5695 189.677 82.4279 189.483 82.2406C189.483 82.2406 189.499 82.1156 189.306 82.041C189.112 81.9663 188.651 81.8079 188.333 81.7179C187.969 81.5849 187.654 81.3422 187.432 81.0229C187.638 81.4081 187.913 81.7518 188.243 82.0367C188.492 82.2393 188.771 82.4021 189.069 82.5194Z" fill="#681F0F"/>
<path opacity="0.69" d="M51.811 66.383C54.2192 69.4212 57.9439 71.4292 74.6586 73.9753C106.577 78.8047 115.189 74.8432 122.17 81.4154C131.871 90.5565 129.419 111.444 122.391 114.053C117.098 115.937 106.555 108.697 106.828 102.589C107.207 93.1702 133.375 81.86 152.665 89.1652C164.944 93.8282 174.418 106.037 172.297 109.075C170.176 112.112 157.51 108.949 156.686 104.761C155.611 99.3248 175.031 92.0538 183.282 88.9614C224.158 73.7064 252.819 79.098 255.403 69.2405C256.643 64.3181 250.978 57.3249 245.863 56.9471C240.748 56.5692 235.036 62.6652 235.515 68.003C235.937 74.6279 245.637 80.0892 253.752 80.1522C263.735 80.2429 265.984 72.0698 282.166 63.1554" stroke="#4B964B" stroke-width="0.3" stroke-miterlimit="10"/>
<path d="M54.2174 64.9284C56.6475 67.9946 60.3472 69.9995 77.065 72.5206C108.983 77.3501 117.617 73.4167 124.599 79.9889C134.278 89.1019 131.825 109.99 124.823 112.602C119.529 114.486 108.983 107.271 109.235 101.135C109.61 91.7406 135.807 80.4085 155.072 87.7106C167.35 92.3736 176.821 104.608 174.7 107.645C172.579 110.682 159.913 107.519 159.089 103.332C158.043 97.8733 177.462 90.6023 185.686 87.5318C226.562 72.2768 255.226 77.6434 257.806 67.8109C259.046 62.8885 253.385 55.8703 248.27 55.4925C243.154 55.1146 237.589 61.254 237.922 66.5484C238.344 73.1733 248.065 78.6626 256.155 78.7225C266.139 78.8133 268.391 70.6152 284.572 61.7008" stroke="#76A576" stroke-width="0.5" stroke-miterlimit="10"/>
<path d="M57.3373 62.6237C59.7424 65.6869 63.4671 67.6949 80.185 70.216C112.103 75.0454 120.712 71.1089 127.694 77.6811C137.398 86.7972 134.945 107.685 127.918 110.294C122.624 112.178 112.103 104.966 112.355 98.8301C112.733 89.4109 138.902 78.1007 158.192 85.4059C170.47 90.0689 179.944 102.278 177.82 105.34C175.696 108.403 163.033 105.215 162.209 101.027C161.163 95.5686 180.582 88.2975 188.806 85.2271C229.682 69.9721 258.345 75.3387 260.926 65.5062C262.166 60.5838 256.505 53.5656 251.389 53.1878C246.274 52.8099 240.687 58.9212 241.042 64.2437C241.463 70.8686 251.188 76.3329 259.275 76.4179C269.262 76.4836 271.511 68.3105 287.692 59.3961" stroke="#4B964B" stroke-width="0.5" stroke-miterlimit="10"/>
<defs>
<filter id="filter0_d" x="42.5618" y="123.508" width="248.749" height="49.7187" filterUnits="userSpaceOnUse" color-interpolation-filters="sRGB">
<feFlood flood-opacity="0" result="BackgroundImageFix"/>
<feColorMatrix in="SourceAlpha" type="matrix" values="0 0 0 0 0 0 0 0 0 0 0 0 0 0 0 0 0 0 127 0"/>
<feOffset dy="4"/>
<feGaussianBlur stdDeviation="2"/>
<feColorMatrix type="matrix" values="0 0 0 0 0 0 0 0 0 0 0 0 0 0 0 0 0 0 0.25 0"/>
<feBlend mode="normal" in2="BackgroundImageFix" result="effect1_dropShadow"/>
<feBlend mode="normal" in="SourceGraphic" in2="effect1_dropShadow" result="shape"/>
</filter>
</defs>
</svg>
