<svg width="334" height="207" viewBox="0 0 334 207" fill="none" xmlns="http://www.w3.org/2000/svg">
<g filter="url(#filter0_d)">
<rect x="46.5618" y="147.787" width="240.749" height="41.7187" rx="10" fill="#7C8294"/>
<path d="M64.3437 176.132C63.5277 176.132 62.7477 176.036 62.0037 175.844C61.2717 175.64 60.7017 175.388 60.2937 175.088L61.2297 173.36C61.6257 173.648 62.1237 173.876 62.7237 174.044C63.3237 174.212 63.9417 174.296 64.5777 174.296C65.2977 174.296 65.8377 174.2 66.1977 174.008C66.5697 173.804 66.7557 173.516 66.7557 173.144C66.7557 172.856 66.5997 172.646 66.2877 172.514C65.9877 172.382 65.5077 172.244 64.8477 172.1C64.1637 171.968 63.5997 171.83 63.1557 171.686C62.7237 171.53 62.3457 171.284 62.0217 170.948C61.7097 170.6 61.5537 170.126 61.5537 169.526C61.5537 168.53 61.9677 167.744 62.7957 167.168C63.6357 166.58 64.7457 166.286 66.1257 166.286C66.7857 166.286 67.4277 166.364 68.0517 166.52C68.6757 166.664 69.1857 166.862 69.5817 167.114L68.7537 168.842C68.3577 168.59 67.9077 168.404 67.4037 168.284C66.9117 168.164 66.4137 168.104 65.9097 168.104C65.2017 168.104 64.6617 168.212 64.2897 168.428C63.9297 168.644 63.7497 168.926 63.7497 169.274C63.7497 169.586 63.9057 169.814 64.2177 169.958C64.5417 170.09 65.0397 170.228 65.7117 170.372C66.3837 170.504 66.9357 170.648 67.3677 170.804C67.7997 170.948 68.1717 171.188 68.4837 171.524C68.7957 171.86 68.9517 172.316 68.9517 172.892C68.9517 173.924 68.5317 174.722 67.6917 175.286C66.8517 175.85 65.7357 176.132 64.3437 176.132ZM73.4994 172.784C73.4754 172.976 73.4634 173.114 73.4634 173.198C73.4634 173.918 73.8414 174.278 74.5974 174.278C75.0654 174.278 75.4854 174.152 75.8574 173.9L76.2534 175.556C75.6414 175.94 74.8674 176.132 73.9314 176.132C73.1034 176.132 72.4374 175.904 71.9334 175.448C71.4294 174.992 71.1774 174.362 71.1774 173.558C71.1774 173.294 71.2014 173.042 71.2494 172.802L72.1674 168.266H70.6014L70.9614 166.466H72.5274L72.9594 164.27H75.2094L74.7594 166.466H77.3514L76.9914 168.266H74.3994L73.4994 172.784ZM89.1923 166.394L87.2663 176.006H85.1243L85.3403 174.944C84.4763 175.736 83.3903 176.132 82.0823 176.132C81.0263 176.132 80.1803 175.85 79.5443 175.286C78.9203 174.71 78.6083 173.906 78.6083 172.874C78.6083 172.49 78.6503 172.106 78.7343 171.722L79.7963 166.394H82.0463L80.9843 171.668C80.9363 171.908 80.9123 172.154 80.9123 172.406C80.9123 172.97 81.0683 173.402 81.3803 173.702C81.7043 174.002 82.1843 174.152 82.8203 174.152C83.6363 174.152 84.3143 173.924 84.8543 173.468C85.3943 173 85.7543 172.304 85.9343 171.38L86.9423 166.394H89.1923ZM102.272 162.65L99.6082 176.006H97.4662L97.6642 175.016C96.8002 175.76 95.7622 176.132 94.5502 176.132C93.7582 176.132 93.0382 175.964 92.3902 175.628C91.7542 175.292 91.2502 174.806 90.8782 174.17C90.5062 173.522 90.3202 172.766 90.3202 171.902C90.3202 170.822 90.5542 169.856 91.0222 169.004C91.4902 168.152 92.1322 167.486 92.9482 167.006C93.7762 166.526 94.7002 166.286 95.7202 166.286C96.4762 166.286 97.1302 166.412 97.6822 166.664C98.2462 166.916 98.6842 167.288 98.9962 167.78L100.022 162.65H102.272ZM95.1262 174.206C95.7502 174.206 96.3142 174.056 96.8182 173.756C97.3222 173.444 97.7122 173.018 97.9882 172.478C98.2762 171.926 98.4202 171.302 98.4202 170.606C98.4202 169.85 98.1982 169.262 97.7542 168.842C97.3102 168.41 96.6862 168.194 95.8822 168.194C95.2582 168.194 94.6942 168.35 94.1902 168.662C93.6862 168.962 93.2902 169.388 93.0022 169.94C92.7262 170.48 92.5882 171.098 92.5882 171.794C92.5882 172.55 92.8102 173.144 93.2542 173.576C93.6982 173.996 94.3222 174.206 95.1262 174.206ZM112.632 170.498C112.632 170.966 112.584 171.422 112.488 171.866H104.856C104.892 173.438 105.816 174.224 107.628 174.224C108.18 174.224 108.696 174.14 109.176 173.972C109.656 173.792 110.064 173.546 110.4 173.234L111.336 174.8C110.844 175.244 110.25 175.58 109.554 175.808C108.87 176.024 108.15 176.132 107.394 176.132C106.434 176.132 105.594 175.958 104.874 175.61C104.166 175.262 103.62 174.77 103.236 174.134C102.852 173.486 102.66 172.742 102.66 171.902C102.66 170.834 102.894 169.874 103.362 169.022C103.842 168.158 104.502 167.486 105.342 167.006C106.194 166.526 107.148 166.286 108.204 166.286C109.548 166.286 110.622 166.664 111.426 167.42C112.23 168.164 112.632 169.19 112.632 170.498ZM108.096 168.086C107.34 168.086 106.692 168.29 106.152 168.698C105.624 169.106 105.258 169.664 105.054 170.372H110.562C110.574 169.652 110.352 169.094 109.896 168.698C109.452 168.29 108.852 168.086 108.096 168.086ZM120.86 166.286C121.94 166.286 122.792 166.568 123.416 167.132C124.052 167.696 124.37 168.494 124.37 169.526C124.37 169.814 124.328 170.198 124.244 170.678L123.182 176.006H120.932L121.976 170.732C122.024 170.492 122.048 170.246 122.048 169.994C122.048 168.83 121.406 168.248 120.122 168.248C119.294 168.248 118.61 168.482 118.07 168.95C117.53 169.406 117.164 170.096 116.972 171.02L115.964 176.006H113.714L115.622 166.394H117.764L117.548 167.456C118.412 166.676 119.516 166.286 120.86 166.286ZM129.204 172.784C129.18 172.976 129.168 173.114 129.168 173.198C129.168 173.918 129.546 174.278 130.302 174.278C130.77 174.278 131.19 174.152 131.562 173.9L131.958 175.556C131.346 175.94 130.572 176.132 129.636 176.132C128.808 176.132 128.142 175.904 127.638 175.448C127.134 174.992 126.882 174.362 126.882 173.558C126.882 173.294 126.906 173.042 126.954 172.802L127.872 168.266H126.306L126.666 166.466H128.232L128.664 164.27H130.914L130.464 166.466H133.056L132.696 168.266H130.104L129.204 172.784ZM144.85 164.342C144.382 164.342 144.01 164.474 143.734 164.738C143.458 165.002 143.26 165.404 143.14 165.944L143.032 166.466H145.66L145.3 168.266H142.726L141.178 176.006H138.928L140.476 168.266H138.91L139.27 166.466H140.836L140.98 165.782C141.196 164.75 141.628 163.952 142.276 163.388C142.936 162.812 143.794 162.524 144.85 162.524C145.27 162.524 145.66 162.572 146.02 162.668C146.392 162.764 146.704 162.908 146.956 163.1L146.038 164.738C145.714 164.474 145.318 164.342 144.85 164.342ZM149.896 176.132C148.96 176.132 148.138 175.958 147.43 175.61C146.734 175.25 146.194 174.752 145.81 174.116C145.426 173.48 145.234 172.742 145.234 171.902C145.234 170.834 145.474 169.874 145.954 169.022C146.446 168.17 147.124 167.504 147.988 167.024C148.864 166.532 149.848 166.286 150.94 166.286C151.876 166.286 152.698 166.46 153.406 166.808C154.114 167.156 154.66 167.648 155.044 168.284C155.428 168.92 155.62 169.658 155.62 170.498C155.62 171.566 155.374 172.526 154.882 173.378C154.39 174.23 153.706 174.902 152.83 175.394C151.966 175.886 150.988 176.132 149.896 176.132ZM150.04 174.206C150.676 174.206 151.24 174.056 151.732 173.756C152.236 173.444 152.632 173.018 152.92 172.478C153.208 171.926 153.352 171.302 153.352 170.606C153.352 169.85 153.13 169.262 152.686 168.842C152.242 168.41 151.618 168.194 150.814 168.194C150.178 168.194 149.608 168.35 149.104 168.662C148.612 168.962 148.222 169.388 147.934 169.94C147.646 170.48 147.502 171.098 147.502 171.794C147.502 172.55 147.724 173.144 148.168 173.576C148.612 173.996 149.236 174.206 150.04 174.206ZM161.497 176.132C160.561 176.132 159.739 175.958 159.031 175.61C158.335 175.25 157.795 174.752 157.411 174.116C157.027 173.48 156.835 172.742 156.835 171.902C156.835 170.834 157.075 169.874 157.555 169.022C158.047 168.17 158.725 167.504 159.589 167.024C160.465 166.532 161.449 166.286 162.541 166.286C163.477 166.286 164.299 166.46 165.007 166.808C165.715 167.156 166.261 167.648 166.645 168.284C167.029 168.92 167.221 169.658 167.221 170.498C167.221 171.566 166.975 172.526 166.483 173.378C165.991 174.23 165.307 174.902 164.431 175.394C163.567 175.886 162.589 176.132 161.497 176.132ZM161.641 174.206C162.277 174.206 162.841 174.056 163.333 173.756C163.837 173.444 164.233 173.018 164.521 172.478C164.809 171.926 164.953 171.302 164.953 170.606C164.953 169.85 164.731 169.262 164.287 168.842C163.843 168.41 163.219 168.194 162.415 168.194C161.779 168.194 161.209 168.35 160.705 168.662C160.213 168.962 159.823 169.388 159.535 169.94C159.247 170.48 159.103 171.098 159.103 171.794C159.103 172.55 159.325 173.144 159.769 173.576C160.213 173.996 160.837 174.206 161.641 174.206ZM180.407 162.65L177.743 176.006H175.601L175.799 175.016C174.935 175.76 173.897 176.132 172.685 176.132C171.893 176.132 171.173 175.964 170.525 175.628C169.889 175.292 169.385 174.806 169.013 174.17C168.641 173.522 168.455 172.766 168.455 171.902C168.455 170.822 168.689 169.856 169.157 169.004C169.625 168.152 170.267 167.486 171.083 167.006C171.911 166.526 172.835 166.286 173.855 166.286C174.611 166.286 175.265 166.412 175.817 166.664C176.381 166.916 176.819 167.288 177.131 167.78L178.157 162.65H180.407ZM173.261 174.206C173.885 174.206 174.449 174.056 174.953 173.756C175.457 173.444 175.847 173.018 176.123 172.478C176.411 171.926 176.555 171.302 176.555 170.606C176.555 169.85 176.333 169.262 175.889 168.842C175.445 168.41 174.821 168.194 174.017 168.194C173.393 168.194 172.829 168.35 172.325 168.662C171.821 168.962 171.425 169.388 171.137 169.94C170.861 170.48 170.723 171.098 170.723 171.794C170.723 172.55 170.945 173.144 171.389 173.576C171.833 173.996 172.457 174.206 173.261 174.206ZM190.485 176.132C189.537 176.132 188.703 175.958 187.983 175.61C187.275 175.25 186.729 174.752 186.345 174.116C185.961 173.48 185.769 172.742 185.769 171.902C185.769 170.834 186.015 169.874 186.507 169.022C186.999 168.17 187.677 167.504 188.541 167.024C189.417 166.532 190.413 166.286 191.529 166.286C192.501 166.286 193.335 166.478 194.031 166.862C194.739 167.234 195.285 167.792 195.669 168.536L193.743 169.526C193.299 168.638 192.501 168.194 191.349 168.194C190.713 168.194 190.143 168.35 189.639 168.662C189.147 168.962 188.757 169.388 188.469 169.94C188.181 170.48 188.037 171.098 188.037 171.794C188.037 172.55 188.259 173.144 188.703 173.576C189.147 173.996 189.777 174.206 190.593 174.206C191.145 174.206 191.643 174.098 192.087 173.882C192.531 173.654 192.909 173.318 193.221 172.874L194.877 173.99C194.433 174.662 193.821 175.19 193.041 175.574C192.261 175.946 191.409 176.132 190.485 176.132ZM200.749 176.132C199.813 176.132 198.991 175.958 198.283 175.61C197.587 175.25 197.047 174.752 196.663 174.116C196.279 173.48 196.087 172.742 196.087 171.902C196.087 170.834 196.327 169.874 196.807 169.022C197.299 168.17 197.977 167.504 198.841 167.024C199.717 166.532 200.701 166.286 201.793 166.286C202.729 166.286 203.551 166.46 204.259 166.808C204.967 167.156 205.513 167.648 205.897 168.284C206.281 168.92 206.473 169.658 206.473 170.498C206.473 171.566 206.227 172.526 205.735 173.378C205.243 174.23 204.559 174.902 203.683 175.394C202.819 175.886 201.841 176.132 200.749 176.132ZM200.893 174.206C201.529 174.206 202.093 174.056 202.585 173.756C203.089 173.444 203.485 173.018 203.773 172.478C204.061 171.926 204.205 171.302 204.205 170.606C204.205 169.85 203.983 169.262 203.539 168.842C203.095 168.41 202.471 168.194 201.667 168.194C201.031 168.194 200.461 168.35 199.957 168.662C199.465 168.962 199.075 169.388 198.787 169.94C198.499 170.48 198.355 171.098 198.355 171.794C198.355 172.55 198.577 173.144 199.021 173.576C199.465 173.996 200.089 174.206 200.893 174.206ZM210.263 162.65H212.513L209.849 176.006H207.599L210.263 162.65ZM215.466 162.65H217.716L215.052 176.006H212.802L215.466 162.65ZM228.067 170.498C228.067 170.966 228.019 171.422 227.923 171.866H220.291C220.327 173.438 221.251 174.224 223.063 174.224C223.615 174.224 224.131 174.14 224.611 173.972C225.091 173.792 225.499 173.546 225.835 173.234L226.771 174.8C226.279 175.244 225.685 175.58 224.989 175.808C224.305 176.024 223.585 176.132 222.829 176.132C221.869 176.132 221.029 175.958 220.309 175.61C219.601 175.262 219.055 174.77 218.671 174.134C218.287 173.486 218.095 172.742 218.095 171.902C218.095 170.834 218.329 169.874 218.797 169.022C219.277 168.158 219.937 167.486 220.777 167.006C221.629 166.526 222.583 166.286 223.639 166.286C224.983 166.286 226.057 166.664 226.861 167.42C227.665 168.164 228.067 169.19 228.067 170.498ZM223.531 168.086C222.775 168.086 222.127 168.29 221.587 168.698C221.059 169.106 220.693 169.664 220.489 170.372H225.997C226.009 169.652 225.787 169.094 225.331 168.698C224.887 168.29 224.287 168.086 223.531 168.086ZM233.956 176.132C233.008 176.132 232.174 175.958 231.454 175.61C230.746 175.25 230.2 174.752 229.816 174.116C229.432 173.48 229.24 172.742 229.24 171.902C229.24 170.834 229.486 169.874 229.978 169.022C230.47 168.17 231.148 167.504 232.012 167.024C232.888 166.532 233.884 166.286 235 166.286C235.972 166.286 236.806 166.478 237.502 166.862C238.21 167.234 238.756 167.792 239.14 168.536L237.214 169.526C236.77 168.638 235.972 168.194 234.82 168.194C234.184 168.194 233.614 168.35 233.11 168.662C232.618 168.962 232.228 169.388 231.94 169.94C231.652 170.48 231.508 171.098 231.508 171.794C231.508 172.55 231.73 173.144 232.174 173.576C232.618 173.996 233.248 174.206 234.064 174.206C234.616 174.206 235.114 174.098 235.558 173.882C236.002 173.654 236.38 173.318 236.692 172.874L238.348 173.99C237.904 174.662 237.292 175.19 236.512 175.574C235.732 175.946 234.88 176.132 233.956 176.132ZM242.9 172.784C242.876 172.976 242.864 173.114 242.864 173.198C242.864 173.918 243.242 174.278 243.998 174.278C244.466 174.278 244.886 174.152 245.258 173.9L245.654 175.556C245.042 175.94 244.268 176.132 243.332 176.132C242.504 176.132 241.838 175.904 241.334 175.448C240.83 174.992 240.578 174.362 240.578 173.558C240.578 173.294 240.602 173.042 240.65 172.802L241.568 168.266H240.002L240.362 166.466H241.928L242.36 164.27H244.61L244.16 166.466H246.752L246.392 168.266H243.8L242.9 172.784ZM249.269 166.394H251.519L249.611 176.006H247.361L249.269 166.394ZM250.907 164.81C250.511 164.81 250.187 164.69 249.935 164.45C249.683 164.198 249.557 163.898 249.557 163.55C249.557 163.142 249.695 162.8 249.971 162.524C250.259 162.248 250.631 162.11 251.087 162.11C251.483 162.11 251.807 162.23 252.059 162.47C252.311 162.698 252.437 162.98 252.437 163.316C252.437 163.76 252.293 164.12 252.005 164.396C251.729 164.672 251.363 164.81 250.907 164.81ZM263.49 166.394L257.46 176.006H255.138L252.924 166.394H255.138L256.74 173.54L261.222 166.394H263.49ZM272.768 170.498C272.768 170.966 272.72 171.422 272.624 171.866H264.992C265.028 173.438 265.952 174.224 267.764 174.224C268.316 174.224 268.832 174.14 269.312 173.972C269.792 173.792 270.2 173.546 270.536 173.234L271.472 174.8C270.98 175.244 270.386 175.58 269.69 175.808C269.006 176.024 268.286 176.132 267.53 176.132C266.57 176.132 265.73 175.958 265.01 175.61C264.302 175.262 263.756 174.77 263.372 174.134C262.988 173.486 262.796 172.742 262.796 171.902C262.796 170.834 263.03 169.874 263.498 169.022C263.978 168.158 264.638 167.486 265.478 167.006C266.33 166.526 267.284 166.286 268.34 166.286C269.684 166.286 270.758 166.664 271.562 167.42C272.366 168.164 272.768 169.19 272.768 170.498ZM268.232 168.086C267.476 168.086 266.828 168.29 266.288 168.698C265.76 169.106 265.394 169.664 265.19 170.372H270.698C270.71 169.652 270.488 169.094 270.032 168.698C269.588 168.29 268.988 168.086 268.232 168.086Z" fill="white"/>
</g>
<path d="M253.242 91.2315L256.411 84.0095L257.109 84.0957L257.608 87.431C257.741 86.3561 258.101 85.284 258.333 84.2215L260.576 84.4984L262.047 84.68L263.937 92.5268L258.943 94.4479L253.242 91.2315Z" fill="#9E7646" stroke="#9E7646" stroke-width="0.25" stroke-miterlimit="10"/>
<path d="M253.433 89.3017C252.388 89.2761 251.343 89.3598 250.315 89.5511C246.26 90.4209 243.106 102.644 243.106 102.644C240.687 111.989 239.438 117.596 242.415 122.379C243.979 124.881 246.725 126.819 247.967 125.983C249.209 125.147 247.865 121.479 248.365 114.155C248.574 110.877 249.11 107.627 249.967 104.456C252.332 96.17 256.721 90.7481 255.501 89.5571C255.274 89.3513 254.669 89.3275 253.433 89.3017Z" fill="#E58910" stroke="#C67409" stroke-miterlimit="10"/>
<path d="M249.881 125.483C248.051 123.912 248.43 120.229 248.873 113.152C249.03 109.955 249.608 106.792 250.591 103.746C251.157 102.084 251.864 100.473 252.704 98.9315C252.704 98.9315 253.536 96.4964 255.4 92.2601C256.457 89.8528 256.752 89.3055 257.294 89.2202C258.605 89.0522 260.402 91.5073 261.218 93.9174C262.299 97.2486 261.084 99.1033 260.533 105.608C260.341 107.887 260.27 110.174 260.32 112.459C260.563 120.737 262.598 124.135 260.6 125.97C259.741 126.777 258.595 126.839 256.359 126.918C254.097 127.232 251.799 126.723 249.881 125.483Z" fill="#E58910" stroke="#C67409" stroke-miterlimit="10"/>
<path d="M260.305 90.2262C259.312 91.4994 262.42 93.5835 262.048 97.6234C261.928 98.5983 261.346 101.876 261.36 103.198C261.374 104.519 261.278 105.091 261.253 105.494C261.14 117.687 260.12 124.717 262.747 125.981C264.205 126.668 266.441 125.371 267.592 124.041C269.545 121.745 268.505 119.307 268.152 110.482C267.979 105.944 267.958 103.657 267.958 100.789C267.927 95.507 267.802 92.8269 266.948 91.757C265.076 89.4957 261.235 89.0468 260.305 90.2262Z" fill="#E58910" stroke="#C67409" stroke-miterlimit="10"/>
<path d="M268.049 95.3181C268.426 97.6161 268.57 99.9466 268.481 102.274C268.51 106.135 268.212 106.707 268.399 109.7C268.563 112.055 268.738 112.076 268.933 114.182C269.502 120.85 267.898 124.002 269.478 124.933C270.635 125.609 272.409 124.762 273.268 124.157C274.039 123.488 274.668 122.672 275.12 121.756C275.572 120.84 275.837 119.843 275.901 118.823C277.622 107.134 278.954 97.7813 273.255 93.1186C271.169 91.3637 268.046 90.2168 267.234 91.0555C266.422 91.8942 267.489 92.6857 268.049 95.3181Z" fill="#E58910" stroke="#C67409" stroke-miterlimit="10"/>
<path d="M247.73 89.613C248.335 90.449 247.206 91.6038 244.732 97.0846C243.154 100.496 241.934 104.062 241.09 107.725C240.963 108.419 240.877 109.12 240.831 109.825C240.291 114.199 239.905 117.324 241.367 120.651C241.798 121.669 242.824 122.988 242.314 123.839C241.804 124.689 239.668 124.781 238.599 124.42C232.535 122.301 230.609 96.914 240.666 90.6694C243.06 89.1124 246.816 88.4088 247.73 89.613Z" fill="#E58910" stroke="#C67409" stroke-miterlimit="10"/>
<path d="M74.0003 97.9552C71.0838 97.189 66.3289 95.9421 65.6055 92.579C64.8822 89.216 69.3882 85.3058 69.8052 85.0021C69.6137 84.1856 69.6519 83.3317 69.9155 82.5354C70.1792 81.739 70.6579 81.0315 71.2984 80.4915C71.7755 80.1231 72.3233 79.8575 72.9074 79.7112C73.4915 79.565 74.0993 79.5413 74.6928 79.6418C73.6568 77.8695 73.1863 75.8215 73.3443 73.7726C73.5023 71.7236 74.2814 69.7717 75.5769 68.1786C76.733 67.1632 78.09 66.4041 79.5588 65.9513C81.0276 65.4985 82.575 65.3622 84.0996 65.5512C85.5034 65.6672 86.8794 66.0084 88.1751 66.562C88.0518 66.0734 88.1157 65.5561 88.3541 65.1122C88.566 64.6976 88.8963 64.3557 89.3027 64.1302C89.7091 63.9046 90.1734 63.8056 90.636 63.8459C91.7135 62.3906 93.0841 61.1787 94.6587 60.2888C96.2333 59.399 97.9767 58.8511 99.7757 58.6808C106.572 58.3526 110.738 64.78 111.512 66.0938C112.593 67.8886 113.301 69.8835 113.596 71.9596C114.055 71.4088 114.705 71.0535 115.414 70.966C117.361 70.7749 119.656 73.0886 120.704 76.8977C121.121 76.6498 121.588 76.4994 122.071 76.4579C122.553 76.4165 123.039 76.485 123.492 76.6583C125.848 78.0659 125.577 86.4071 121.339 89.7919C118.78 91.8616 116.521 90.6943 110.301 91.6774C105.144 92.4617 104.784 93.5339 98.148 95.633C90.9175 97.8362 82.7217 100.276 74.0003 97.9552Z" fill="#5DAF67" stroke="#5A9E61" stroke-width="0.25" stroke-miterlimit="10"/>
<path d="M86.1923 95.1201C88.1801 98.7757 89.4881 102.764 90.0526 106.89L91.6445 112.441L93.9215 112.443L94.8688 107.231C95.4534 109.054 96.0379 110.877 96.7253 112.688L99.9679 112.657C98.9026 109.42 98.813 105.94 99.7105 102.652C100.917 98.4103 103.597 96.178 106.274 88.8444C106.662 87.7503 106.95 86.8469 107.149 86.2624C106.549 87.2135 105.724 88.0018 104.748 88.5577C103.772 89.1135 102.675 89.4198 101.553 89.4493C100.431 89.4789 99.3195 89.2309 98.3164 88.7272C97.3134 88.2236 96.4496 87.4798 95.8016 86.5616C95.9799 87.2068 95.9779 87.8889 95.7956 88.5333C95.6134 89.1777 95.2581 89.7596 94.7685 90.2153C94.3289 90.5228 93.8286 90.7321 93.3015 90.829C92.7744 90.9259 92.2328 90.9082 91.7133 90.777C90.5282 90.5692 89.4394 89.9906 88.6027 89.124C88.7315 90.1297 88.4329 90.4988 88.2587 90.6803C88.0845 90.8619 86.7106 90.7176 84.2456 89.7788L80.9984 88.6165C83.0815 90.4765 84.8373 92.6751 86.1923 95.1201Z" fill="#548E58" stroke="#548E58" stroke-width="0.75" stroke-miterlimit="10"/>
<path d="M84.4831 74.9615C84.9086 73.9563 85.6947 73.1477 86.6859 72.6957C87.2996 72.4498 87.9614 72.3491 88.62 72.4016C88.8581 71.7595 89.2413 71.1814 89.7395 70.7126C90.2191 70.253 90.8059 69.9213 91.4462 69.7476C92.0865 69.574 92.7598 69.564 93.4047 69.7186C94.3297 70.0709 95.0791 70.7742 95.4908 71.6765C95.8148 71.4977 96.1867 71.4259 96.5536 71.4712C96.9205 71.5165 97.2638 71.6767 97.5345 71.9289C97.795 72.2312 97.9362 72.6187 97.9314 73.0184C97.7474 72.708 97.4807 72.4553 97.1611 72.2889C96.8932 72.1708 96.6032 72.1114 96.3104 72.1146C96.0177 72.1179 95.729 72.1837 95.4635 72.3076C95.0058 71.5393 94.2858 70.9636 93.4369 70.687C92.9909 70.5145 92.5106 70.4491 92.0347 70.4961C91.5587 70.5431 91.1003 70.7011 90.696 70.9576C90.0906 71.368 89.6679 71.9984 89.5175 72.7154C88.7158 72.8502 87.9321 73.077 87.182 73.3914C86.2123 73.783 85.3035 74.3117 84.4831 74.9615Z" fill="#5A9E61" stroke="#5A9E61" stroke-width="0.12" stroke-miterlimit="10"/>
<path d="M102.295 78.0756C102.983 77.9638 103.683 77.9562 104.373 78.053C105.403 78.053 106.402 78.3999 107.212 79.038C107.311 79.1877 107.402 79.3429 107.483 79.503C107.62 79.8083 107.7 80.1365 107.718 80.4709C107.908 80.0922 107.961 79.6596 107.869 79.2461C107.562 77.6348 104.296 76.4194 102.167 77.4761C101.71 77.7013 101.307 78.024 100.987 78.4217C101.408 78.2556 101.847 78.1395 102.295 78.0756Z" fill="#5A9E61" stroke="#5A9E61" stroke-width="0.12" stroke-miterlimit="10"/>
<path d="M116.217 79.4392C116.522 79.7055 116.791 80.0117 117.015 80.3498C117.526 81.1359 117.807 82.0497 117.828 82.988C118.103 82.5811 118.288 82.1196 118.37 81.6349C118.451 81.1501 118.428 80.6535 118.301 80.1788C117.664 78.3744 115.137 78.1385 114.838 78.1016C114.386 78.0692 113.931 78.0984 113.486 78.1885C114.503 78.3164 115.455 78.7528 116.217 79.4392Z" fill="#5A9E61" stroke="#5A9E61" stroke-width="0.12" stroke-miterlimit="10"/>
<path d="M87.7562 82.4462C87.7503 82.0223 87.8907 81.6093 88.1536 81.2771C88.4784 80.9345 88.9194 80.7264 89.3896 80.6938C89.6332 80.6948 89.8758 80.7248 90.1123 80.783C90.3647 80.7788 90.6163 80.8098 90.86 80.8754C90.2336 80.7793 89.5928 80.8907 89.0349 81.1928C88.4771 81.4949 88.0326 81.9711 87.7688 82.5492L87.7562 82.4462Z" fill="#5A9E61" stroke="#5A9E61" stroke-width="0.12" stroke-miterlimit="10"/>
<path d="M148.121 96.2956L142.781 87.4899C143.804 87.4593 144.812 87.2304 145.749 86.8159C146.716 86.3827 147.586 85.756 148.304 84.9743L148.121 96.2956Z" fill="#7C6745" stroke="#685130" stroke-width="0.25" stroke-miterlimit="10"/>
<path d="M148.653 97.5278C147.4 96.1371 145.852 95.0448 144.123 94.3308C142.395 93.6169 140.529 93.2992 138.662 93.401C136.063 93.9015 133.698 95.2383 131.925 97.2087C130.152 99.179 129.067 101.675 128.837 104.319C128.528 106.818 130.794 110.397 135.153 117.508C140.003 125.365 141.955 127.18 143.709 126.914C145.462 126.648 146.455 123.726 148.484 123.9C150.512 124.074 150.701 126.432 152.243 126.648C153.785 126.864 155.988 123.989 158.702 119.832C165.553 109.436 166.042 109.978 166.603 107.485C166.721 106.535 168.856 97.2309 163.491 93.7515C159.645 91.2971 153.214 92.5586 148.653 97.5278Z" fill="#F97253" stroke="#E56A55" stroke-width="0.25" stroke-miterlimit="10"/>
<path d="M149.569 93.5559C150.189 91.5558 151.505 89.8451 153.277 88.7351C154.833 87.5975 156.668 86.9033 158.585 86.726C159.526 86.6381 160.475 86.6868 161.401 86.8707C161.245 88.2778 160.808 89.6392 160.116 90.8738C159.424 92.1084 158.492 93.1909 157.374 94.0569C156.257 94.9229 154.977 95.5547 153.612 95.9146C152.246 96.2746 150.822 96.3554 149.426 96.1521C149.323 95.285 149.372 94.4066 149.569 93.5559Z" fill="#5DAF67" stroke="#5DAF67" stroke-width="0.75" stroke-miterlimit="10"/>
<path d="M148.64 96.5882C150.931 95.199 153.118 93.6456 155.185 91.9402C157.489 90.2109 159.681 88.3371 161.749 86.33C159.517 87.7015 157.378 89.2175 155.343 90.8684C153.694 92.1367 152.219 93.4265 151.428 94.0902C150.638 94.7539 148.593 96.5571 148.64 96.5882Z" fill="#5A9E61" stroke="#5A9E61" stroke-width="0.1" stroke-miterlimit="10"/>
<path d="M146.807 86.2357L147.773 94.6028C146.72 92.0619 145.639 89.5429 144.562 86.999" stroke="#60492C" stroke-width="0.2" stroke-miterlimit="10"/>
<path d="M134.417 99.4763C134.679 99.9061 135.073 100.24 135.539 100.427C135.93 100.599 136.364 100.653 136.785 100.581C136.207 101.937 135.817 103.366 135.628 104.828C135.379 106.677 135.473 108.556 135.906 110.37C134.42 108.618 133.553 106.424 133.438 104.126C133.39 102.521 133.725 100.926 134.417 99.4763Z" fill="white"/>
<path d="M203.761 76.2146C201.417 77.5646 199.213 79.1457 197.182 80.9346L200.453 86.617L194.957 83.1723C191.05 85.9867 188.231 90.0671 186.977 94.7236C186.311 97.3933 186.209 100.173 186.678 102.884L194.083 106.031L187.423 105.869C188.14 108.155 189.127 110.347 190.361 112.398C191.532 114.424 192.94 116.301 194.554 117.992C195.484 117.851 196.38 117.54 197.198 117.075C197.962 116.638 198.635 116.057 199.18 115.365L197.536 113.107L201.505 113.749C202.199 113.251 202.899 112.703 203.603 112.13C207.13 109.205 210.226 105.794 212.799 101.998L205.499 97.5943L214.093 97.8689C214.721 93.6282 214.568 89.3086 213.643 85.1243C212.731 81.0781 211.097 77.231 208.82 73.7686C207.078 74.4621 205.387 75.2795 203.761 76.2146Z" fill="#992E11" stroke="#992E11" stroke-width="0.75" stroke-miterlimit="10"/>
<path d="M208.797 73.3356C208.585 67.0664 207.29 65.0539 205.903 64.4004C205.498 64.1981 204.291 63.7193 201.561 62.4686L200.268 61.8774C200.17 62.3212 200.115 62.7731 200.101 63.2273C200.033 64.7971 200.421 66.3527 201.218 67.7048C203.057 70.3681 205.721 72.3475 208.797 73.3356Z" fill="#2E6031" stroke="#336D33" stroke-width="0.15" stroke-miterlimit="10"/>
<path d="M208.73 72.8444C208.866 71.5304 209.308 70.2666 210.021 69.1554C210.734 68.0442 211.698 67.1168 212.835 66.4485C213.85 65.9389 214.977 65.694 216.111 65.7364C216.573 65.7308 217.034 65.7877 217.482 65.9056C217.3 65.9588 217.128 66.0403 216.971 66.1471C215.573 67.0151 215.619 68.8986 215.215 69.9147C214.812 70.9307 213.237 72.4112 208.73 72.8444Z" fill="#447F49" stroke="#357235" stroke-width="0.15" stroke-miterlimit="10"/>
<path d="M208.806 73.7162C207.701 71.5308 205.811 69.8467 203.517 69.0028C201.975 68.4261 200.296 68.3248 198.695 68.7118C198.258 68.9141 197.789 69.0367 197.309 69.0737C196.685 69.1443 196.053 69.0663 195.465 68.8459C196.146 69.5892 196.914 70.2465 197.753 70.8035C199.402 71.7658 201.2 72.4426 203.073 72.8054C204.959 73.2492 206.875 73.5536 208.806 73.7162Z" fill="#468C48" stroke="#336D33" stroke-width="0.15" stroke-miterlimit="10"/>
<path d="M209.072 73.1652C210.406 72.8147 211.772 72.6008 213.149 72.5266C213.913 72.4244 214.689 72.4771 215.432 72.6817C216.468 73.2425 217.397 73.9845 218.173 74.8727L218.737 75.4246C218.384 75.6287 218.016 75.8039 217.635 75.9483C216.485 76.3024 215.273 76.4038 214.081 76.2454C212.091 75.8694 210.308 74.7733 209.072 73.1652Z" fill="#2E6031" stroke="#336D33" stroke-width="0.15" stroke-miterlimit="10"/>
<path d="M213.737 84.9578C212.996 84.8173 212.247 84.7248 211.494 84.6808C210.949 84.4733 210.421 84.2215 209.917 83.9277C210.301 84.4947 210.831 84.9461 211.451 85.2338C212.149 85.5969 212.93 85.772 213.716 85.7419C213.716 85.7419 214.604 85.7246 214.579 85.5185C214.554 85.3124 213.859 84.9981 213.737 84.9578Z" fill="#681F0F"/>
<path d="M214.234 96.3393C213.518 96.2023 212.794 96.1128 212.066 96.0715C211.531 95.8859 211.019 95.6439 210.535 95.3496C210.892 95.9151 211.41 96.3595 212.023 96.6245C212.695 96.9851 213.451 97.1575 214.213 97.1234C214.213 97.1234 215.054 97.075 215.051 96.8969C215.047 96.7188 214.331 96.3766 214.234 96.3393Z" fill="#681F0F"/>
<path d="M202.936 111.973C201.783 111.272 201.275 111.489 200.253 110.956C199.616 110.55 199.012 110.094 198.448 109.591C198.448 109.591 199.013 110.752 200.045 111.616C200.823 112.261 201.755 112.691 202.75 112.863C202.9 112.882 203.872 113.002 203.893 112.827C203.915 112.652 203.079 112.041 202.936 111.973Z" fill="#681F0F"/>
<path d="M213.858 86.6489C212.959 86.3971 212.046 86.1995 211.123 86.0573C210.443 85.7917 209.789 85.4646 209.168 85.0801C209.68 85.7622 210.351 86.3071 211.123 86.6665C211.975 87.1288 212.92 87.3929 213.887 87.4392C214.037 87.4577 214.959 87.5715 214.921 87.2623C214.883 86.9531 214.008 86.6674 213.858 86.6489Z" fill="#681F0F"/>
<path d="M196.96 100.372C198.184 100.904 198.356 101.153 199.335 101.63C200.313 102.106 201.444 102.372 201.438 102.422C200.6 102.296 199.778 102.075 198.989 101.764C198.087 101.45 197.221 101.036 196.409 100.532C196.409 100.532 195.564 99.9965 195.719 99.965C196.144 100.064 196.559 100.2 196.96 100.372Z" fill="#681F0F"/>
<path d="M194.073 96.8943C195.347 97.6354 195.451 98.0288 196.38 98.7019C197.309 99.3749 198.611 99.688 198.599 99.7879C197.665 99.6619 196.759 99.3785 195.919 98.9495C194.945 98.5126 194.052 97.9132 193.279 97.1769C193.154 97.1615 192.462 96.4162 192.673 96.3409C192.885 96.2655 193.945 96.7008 194.073 96.8943Z" fill="#681F0F"/>
<path d="M198.9 79.9043C199.96 80.7458 199.958 81.1768 200.825 81.9437C201.406 82.4125 202.022 82.8364 202.667 83.2117C201.797 83.0458 200.977 82.6841 200.267 82.154C199.445 81.6128 198.724 80.9311 198.137 80.14C198.137 80.14 197.535 79.2789 197.744 79.2285C197.953 79.1782 198.797 79.7139 198.9 79.9043Z" fill="#681F0F"/>
<path d="M190.287 88.4074C191.474 89.0362 191.568 89.5046 192.609 90.09C193.284 90.4334 193.984 90.7236 194.704 90.9577C193.855 91.0016 193.007 90.8449 192.23 90.4999C191.295 90.1652 190.445 89.6269 189.742 88.9239C189.742 88.9239 189.003 88.1474 189.171 88.0159C189.339 87.8844 190.144 88.339 190.287 88.4074Z" fill="#681F0F"/>
<path d="M193.926 111.772C193.667 111.691 193.418 111.583 193.181 111.452C192.604 111.203 192.551 111.222 192.314 111.091C192.091 110.96 191.881 110.807 191.688 110.633C191.923 111.001 192.24 111.309 192.614 111.534C192.974 111.742 193.367 111.885 193.776 111.957L194.026 111.988C194.218 111.99 194.409 111.962 194.592 111.906C194.366 111.884 194.143 111.84 193.926 111.772Z" fill="#681F0F"/>
<path d="M194.716 111.768L194.99 111.802L195.239 111.833C195.423 111.895 195.618 111.919 195.812 111.904C195.547 111.84 195.308 111.696 195.13 111.489L194.952 111.29C194.66 111.102 194.326 110.991 193.98 110.967C193.608 110.858 193.288 110.621 193.075 110.297C193.273 110.687 193.549 111.033 193.886 111.311C194.142 111.499 194.42 111.653 194.716 111.768Z" fill="#681F0F"/>
<path d="M203.332 111.691C203.074 111.609 202.824 111.502 202.587 111.371C202.288 111.269 201.999 111.14 201.724 110.985C201.495 110.87 201.283 110.725 201.094 110.552C201.338 110.913 201.653 111.22 202.02 111.453C202.38 111.66 202.774 111.803 203.183 111.876L203.432 111.906C203.627 111.914 203.822 111.877 204.002 111.799C203.774 111.801 203.547 111.765 203.332 111.691Z" fill="#681F0F"/>
<path d="M204.158 111.691L204.432 111.724L204.681 111.755C204.865 111.817 205.06 111.841 205.254 111.826C204.994 111.751 204.759 111.608 204.571 111.412L204.394 111.212C204.102 111.024 203.768 110.913 203.421 110.889C203.05 110.78 202.73 110.543 202.517 110.219C202.715 110.61 202.991 110.955 203.328 111.233C203.584 111.421 203.862 111.575 204.158 111.691Z" fill="#681F0F"/>
<path d="M200.449 83.7745L199.704 83.4541L198.866 83.0714C198.633 82.9502 198.413 82.8039 198.211 82.6353C198.461 82.9912 198.775 83.2969 199.137 83.5364C199.497 83.7419 199.893 83.8768 200.303 83.934L200.577 83.9679C200.765 83.9751 200.952 83.9373 201.122 83.8575L200.449 83.7745Z" fill="#681F0F"/>
<path d="M201.239 83.7457L201.514 83.7796L201.713 83.8042C201.892 83.8505 202.076 83.8732 202.261 83.8719C202.003 83.7926 201.768 83.6503 201.579 83.4577L201.401 83.2581C201.133 82.9712 200.771 83.0281 200.429 82.935C200.06 82.8231 199.747 82.5761 199.552 82.2432C199.729 82.6454 199.997 83.0002 200.335 83.2788C200.612 83.4779 200.917 83.6352 201.239 83.7457Z" fill="#681F0F"/>
<path d="M206.619 98.977L207.268 99.4631C207.502 99.6631 207.75 99.8463 208.01 100.012L208.702 100.351C208.274 100.312 207.858 100.183 207.483 99.9719C207.117 99.7751 206.797 99.502 206.545 99.1708L206.392 98.9743C206.297 98.7987 206.226 98.6106 206.183 98.4155C206.306 98.6188 206.453 98.8072 206.619 98.977Z" fill="#681F0F"/>
<path d="M206.233 98.3963L206.002 98.2155L205.825 98.0159C205.71 97.8595 205.62 97.6856 205.559 97.501C205.745 97.6948 205.984 97.83 206.245 97.8902L206.519 97.9241C206.918 97.9733 207.046 98.3698 207.296 98.6036C207.571 98.8781 207.942 99.0333 208.33 99.0359C207.955 99.0703 207.576 99.0292 207.216 98.9151C206.857 98.801 206.524 98.6161 206.236 98.3713L206.233 98.3963Z" fill="#681F0F"/>
<path d="M190.756 90.5715C190.96 90.7493 191.177 90.9118 191.404 91.0576L192.168 91.6341C192.385 91.7692 192.619 91.8749 192.863 91.9483C192.427 91.9223 192.001 91.8004 191.617 91.5914C191.262 91.3783 190.945 91.1076 190.678 90.7903L190.529 90.5688C190.45 90.398 190.387 90.2204 190.341 90.0381C190.458 90.232 190.597 90.4111 190.756 90.5715Z" fill="#681F0F"/>
<path d="M211.428 84.1909L210.683 83.8706L209.82 83.4848C209.597 83.3606 209.386 83.2156 209.19 83.0518C209.429 83.4108 209.747 83.7104 210.119 83.9278C210.479 84.1351 210.873 84.2781 211.282 84.3505L211.531 84.3813C211.725 84.377 211.918 84.3407 212.101 84.274L211.428 84.1909Z" fill="#681F0F"/>
<path d="M212.212 84.161C212.301 84.1871 212.394 84.1986 212.486 84.1948L212.735 84.2256C212.919 84.291 213.115 84.3152 213.309 84.2964C213.053 84.2111 212.82 84.0695 212.626 83.8822C212.626 83.8822 212.641 83.7572 212.448 83.6826C212.255 83.608 211.794 83.4495 211.476 83.3595C211.111 83.2265 210.797 82.9838 210.575 82.6646C210.773 83.055 211.049 83.4002 211.386 83.6783C211.631 83.8861 211.911 84.0495 212.212 84.161Z" fill="#681F0F"/>
<path d="M205.904 99.8519L205.062 99.4942C204.74 99.386 204.427 99.254 204.124 99.0992C203.872 98.9653 203.637 98.7999 203.426 98.6069C203.683 99.0174 204.029 99.364 204.44 99.6203C204.837 99.8478 205.273 99.9965 205.727 100.058L206.001 100.092C206.224 100.081 206.445 100.03 206.652 99.9442C206.4 99.941 206.149 99.91 205.904 99.8519Z" fill="#681F0F"/>
<path d="M206.771 99.7816C206.877 99.8096 206.986 99.8231 207.095 99.8216L207.319 99.8493C207.533 99.8695 207.749 99.8532 207.958 99.8012C207.684 99.7108 207.434 99.5584 207.228 99.3559L207.032 99.1032C206.717 98.7852 206.328 98.864 205.957 98.7928C205.548 98.6639 205.204 98.3858 204.99 98.0137C205.182 98.4609 205.47 98.8602 205.833 99.1836C206.115 99.4266 206.431 99.628 206.771 99.7816Z" fill="#681F0F"/>
<path d="M193.95 114.644L193.691 114.486L193.467 114.458C193.343 114.314 193.235 114.156 193.146 113.987C193.354 114.149 193.608 114.242 193.872 114.254L194.146 114.288C194.545 114.337 194.732 114.665 195.013 114.852C195.328 115.071 195.714 115.164 196.094 115.112C195.67 115.218 195.228 115.224 194.801 115.13C194.497 115.006 194.211 114.843 193.95 114.644Z" fill="#681F0F"/>
<path d="M193.854 116.307C193.553 116.295 193.253 116.258 192.957 116.196L191.96 116.073C191.69 115.975 191.434 115.841 191.2 115.674C191.514 116.046 191.912 116.338 192.359 116.528C192.784 116.671 193.234 116.726 193.68 116.691L193.979 116.728C194.195 116.673 194.401 116.587 194.593 116.474C194.34 116.453 194.092 116.396 193.854 116.307Z" fill="#681F0F"/>
<path d="M194.703 116.132L195.302 116.205C195.517 116.188 195.728 116.137 195.927 116.054C195.639 116.017 195.364 115.905 195.133 115.728L194.905 115.522C194.559 115.251 194.157 115.43 193.784 115.384C193.358 115.319 192.971 115.099 192.696 114.767C192.955 115.185 193.311 115.534 193.734 115.784C194.038 115.948 194.365 116.065 194.703 116.132Z" fill="#681F0F"/>
<path d="M206.967 76.0779L206.222 75.7576L205.275 75.4376C205.042 75.3163 204.822 75.1701 204.62 75.0015C204.881 75.3577 205.203 75.664 205.571 75.9056C205.931 76.1111 206.327 76.2461 206.737 76.3033L206.986 76.3341C207.182 76.3416 207.376 76.3049 207.556 76.2268C207.355 76.1959 207.158 76.1461 206.967 76.0779Z" fill="#681F0F"/>
<path d="M207.726 76.0441L208.025 76.081L208.274 76.1118C208.454 76.1581 208.638 76.1809 208.823 76.1795C208.572 76.1003 208.346 75.9589 208.165 75.7684C208.094 75.7134 208.034 75.6458 207.987 75.5688C207.694 75.2788 207.333 75.3357 207.015 75.2457C206.636 75.141 206.312 74.8916 206.114 74.5508C206.301 74.9543 206.577 75.3096 206.922 75.5895C207.166 75.7803 207.437 75.9335 207.726 76.0441Z" fill="#681F0F"/>
<path d="M206.767 77.0682L207.415 77.5543C207.927 77.922 207.921 77.972 208.157 78.1027C208.387 78.2349 208.627 78.3493 208.874 78.445C208.437 78.4077 208.014 78.2775 207.631 78.0631C207.269 77.8604 206.95 77.5882 206.692 77.262L206.54 77.0655C206.439 76.8956 206.376 76.7061 206.355 76.5098C206.469 76.7124 206.607 76.9 206.767 77.0682Z" fill="#681F0F"/>
<path d="M206.391 76.3614L206.185 76.1838L206.008 75.9842C205.875 75.8392 205.783 75.6615 205.742 75.4692C205.925 75.6667 206.165 75.8027 206.428 75.8584L206.677 75.8892C207.076 75.9385 207.229 76.338 207.454 76.5688C207.734 76.8347 208.102 76.9885 208.488 77.0011C208.058 77.0362 207.626 76.9828 207.217 76.8441C206.922 76.7204 206.644 76.5581 206.391 76.3614Z" fill="#681F0F"/>
<path d="M189.53 103.946C189.158 103.863 188.79 103.758 188.43 103.633C187.604 103.353 187.551 103.372 187.19 103.226C186.844 103.099 186.507 102.947 186.183 102.771C187.1 103.517 188.208 103.988 189.381 104.131L189.73 104.174C189.975 104.171 190.218 104.133 190.452 104.06C190.142 104.051 189.833 104.013 189.53 103.946Z" fill="#681F0F"/>
<path d="M190.525 104.07L190.924 104.119L191.273 104.163C191.527 104.188 191.784 104.177 192.036 104.13C191.667 104.05 191.317 103.904 191.001 103.698L190.696 103.508C190.27 103.287 189.8 103.169 189.321 103.16C188.793 103.047 188.301 102.803 187.891 102.451C188.303 102.878 188.779 103.236 189.303 103.513C189.691 103.739 190.1 103.926 190.525 104.07Z" fill="#681F0F"/>
<path d="M188.28 102.803C188.021 102.732 187.77 102.633 187.532 102.508L186.693 102.125C186.463 101.999 186.244 101.853 186.039 101.689C186.284 102.043 186.601 102.341 186.968 102.565C187.328 102.772 187.722 102.915 188.13 102.988L188.405 103.022C188.591 103.017 188.776 102.979 188.95 102.911C188.722 102.911 188.496 102.874 188.28 102.803Z" fill="#681F0F"/>
<path d="M189.069 102.799C189.158 102.825 189.251 102.836 189.344 102.833L189.618 102.866C189.793 102.93 189.98 102.953 190.166 102.934C189.911 102.849 189.677 102.707 189.483 102.52C189.483 102.52 189.499 102.395 189.306 102.32C189.112 102.246 188.651 102.087 188.333 101.997C187.969 101.864 187.654 101.622 187.432 101.302C187.638 101.687 187.913 102.031 188.243 102.316C188.492 102.519 188.771 102.681 189.069 102.799Z" fill="#681F0F"/>
<path opacity="0.69" d="M51.811 86.6623C54.2192 89.7005 57.9439 91.7085 74.6586 94.2546C106.577 99.084 115.189 95.1225 122.17 101.695C131.871 110.836 129.419 131.723 122.391 134.333C117.098 136.217 106.555 128.976 106.828 122.869C107.207 113.45 133.375 102.139 152.665 109.445C164.944 114.107 174.418 126.317 172.297 129.354C170.176 132.391 157.51 129.228 156.686 125.041C155.611 119.604 175.031 112.333 183.282 109.241C224.158 93.9857 252.819 99.3773 255.403 89.5198C256.643 84.5974 250.978 77.6042 245.863 77.2264C240.748 76.8485 235.036 82.9445 235.515 88.2823C235.937 94.9072 245.637 100.368 253.752 100.431C263.735 100.522 265.984 92.3491 282.166 83.4347" stroke="#4B964B" stroke-width="0.3" stroke-miterlimit="10"/>
<path d="M54.2174 85.2077C56.6475 88.2739 60.3472 90.2788 77.065 92.7999C108.983 97.6294 117.617 93.696 124.599 100.268C134.278 109.381 131.825 130.269 124.823 132.881C119.529 134.765 108.983 127.55 109.235 121.414C109.61 112.02 135.807 100.688 155.072 107.99C167.35 112.653 176.821 124.887 174.7 127.924C172.579 130.962 159.913 127.799 159.089 123.611C158.043 118.153 177.462 110.882 185.686 107.811C226.562 92.5561 255.226 97.9227 257.806 88.0902C259.046 83.1678 253.385 76.1496 248.27 75.7717C243.154 75.3939 237.589 81.5333 237.922 86.8277C238.344 93.4526 248.065 98.9419 256.155 99.0018C266.139 99.0926 268.391 90.8945 284.572 81.9801" stroke="#76A576" stroke-width="0.5" stroke-miterlimit="10"/>
<path d="M57.3373 82.903C59.7424 85.9662 63.4671 87.9742 80.185 90.4953C112.103 95.3247 120.712 91.3882 127.694 97.9604C137.398 107.077 134.945 127.964 127.918 130.573C122.624 132.457 112.103 125.245 112.355 119.109C112.733 109.69 138.902 98.38 158.192 105.685C170.47 110.348 179.944 122.557 177.82 125.62C175.696 128.682 163.033 125.494 162.209 121.306C161.163 115.848 180.582 108.577 188.806 105.506C229.682 90.2514 258.345 95.618 260.926 85.7855C262.166 80.8631 256.505 73.8449 251.389 73.4671C246.274 73.0892 240.687 79.2005 241.042 84.523C241.463 91.1479 251.188 96.6122 259.275 96.6971C269.262 96.7629 271.511 88.5898 287.692 79.6754" stroke="#4B964B" stroke-width="0.5" stroke-miterlimit="10"/>
<defs>
<filter id="filter0_d" x="42.5618" y="147.787" width="248.749" height="49.7187" filterUnits="userSpaceOnUse" color-interpolation-filters="sRGB">
<feFlood flood-opacity="0" result="BackgroundImageFix"/>
<feColorMatrix in="SourceAlpha" type="matrix" values="0 0 0 0 0 0 0 0 0 0 0 0 0 0 0 0 0 0 127 0"/>
<feOffset dy="4"/>
<feGaussianBlur stdDeviation="2"/>
<feColorMatrix type="matrix" values="0 0 0 0 0 0 0 0 0 0 0 0 0 0 0 0 0 0 0.25 0"/>
<feBlend mode="normal" in2="BackgroundImageFix" result="effect1_dropShadow"/>
<feBlend mode="normal" in="SourceGraphic" in2="effect1_dropShadow" result="shape"/>
</filter>
</defs>
</svg>
