<svg width="334" height="207" viewBox="0 0 334 207" fill="none" xmlns="http://www.w3.org/2000/svg">
<g filter="url(#filter0_d)">
<rect x="82.0439" y="148.196" width="168" height="41" rx="10" fill="#7C8294"/>
<path d="M95.7721 174.05C97.6081 174.05 99.2641 173.258 100.164 171.908L98.5081 170.792C97.8781 171.71 96.9421 172.124 95.8801 172.124C94.2421 172.124 93.3241 171.206 93.3241 169.712C93.3241 167.588 94.7281 166.112 96.6361 166.112C97.7701 166.112 98.5801 166.544 99.0301 167.444L100.956 166.454C100.182 164.96 98.7601 164.204 96.8161 164.204C93.4321 164.204 91.0561 166.598 91.0561 169.82C91.0561 172.358 92.8921 174.05 95.7721 174.05ZM106.037 174.05C109.367 174.05 111.761 171.638 111.761 168.416C111.761 165.86 109.925 164.204 107.081 164.204C103.751 164.204 101.375 166.598 101.375 169.82C101.375 172.358 103.211 174.05 106.037 174.05ZM106.181 172.124C104.561 172.124 103.643 171.206 103.643 169.712C103.643 167.588 105.047 166.112 106.955 166.112C108.575 166.112 109.493 167.03 109.493 168.524C109.493 170.648 108.089 172.124 106.181 172.124ZM126.674 164.204C125.126 164.204 123.848 164.744 122.876 165.788C122.354 164.744 121.274 164.204 119.888 164.204C118.682 164.204 117.584 164.564 116.738 165.356L116.936 164.312H114.794L112.886 173.924H115.136L116.144 168.938C116.522 167.048 117.548 166.166 119.096 166.166C120.338 166.166 120.932 166.778 120.932 167.894C120.932 168.128 120.914 168.38 120.86 168.65L119.798 173.924H122.048L123.056 168.92C123.434 167.048 124.46 166.166 126.008 166.166C127.25 166.166 127.844 166.778 127.844 167.894C127.844 168.128 127.826 168.38 127.772 168.65L126.71 173.924H128.96L130.022 168.596C130.112 168.164 130.148 167.768 130.148 167.408C130.148 165.32 128.798 164.204 126.674 164.204ZM145.623 164.204C144.075 164.204 142.797 164.744 141.825 165.788C141.303 164.744 140.223 164.204 138.837 164.204C137.631 164.204 136.533 164.564 135.687 165.356L135.885 164.312H133.743L131.835 173.924H134.085L135.093 168.938C135.471 167.048 136.497 166.166 138.045 166.166C139.287 166.166 139.881 166.778 139.881 167.894C139.881 168.128 139.863 168.38 139.809 168.65L138.747 173.924H140.997L142.005 168.92C142.383 167.048 143.409 166.166 144.957 166.166C146.199 166.166 146.793 166.778 146.793 167.894C146.793 168.128 146.775 168.38 146.721 168.65L145.659 173.924H147.909L148.971 168.596C149.061 168.164 149.097 167.768 149.097 167.408C149.097 165.32 147.747 164.204 145.623 164.204ZM159.767 164.312L158.759 169.298C158.381 171.17 157.247 172.07 155.645 172.07C154.367 172.07 153.737 171.44 153.737 170.324C153.737 170.09 153.755 169.856 153.809 169.586L154.871 164.312H152.621L151.559 169.64C151.469 170.054 151.433 170.432 151.433 170.792C151.433 172.898 152.837 174.05 154.907 174.05C156.149 174.05 157.283 173.672 158.165 172.862L157.949 173.924H160.091L162.017 164.312H159.767ZM170.182 164.204C168.904 164.204 167.752 164.582 166.87 165.374L167.086 164.312H164.944L163.036 173.924H165.286L166.294 168.938C166.672 167.066 167.806 166.166 169.444 166.166C170.758 166.166 171.37 166.796 171.37 167.912C171.37 168.128 171.352 168.38 171.298 168.65L170.254 173.924H172.504L173.566 168.596C173.638 168.182 173.692 167.804 173.692 167.444C173.692 165.338 172.306 164.204 170.182 164.204ZM178.905 162.728C179.823 162.728 180.435 162.116 180.435 161.234C180.435 160.568 179.895 160.028 179.085 160.028C178.167 160.028 177.555 160.658 177.555 161.468C177.555 162.152 178.095 162.728 178.905 162.728ZM175.359 173.924H177.609L179.517 164.312H177.267L175.359 173.924ZM184.63 166.184H187.222L187.582 164.384H184.99L185.44 162.188H183.19L182.758 164.384H181.192L180.832 166.184H182.398L181.48 170.72C181.426 170.99 181.408 171.242 181.408 171.476C181.408 173.096 182.524 174.05 184.162 174.05C184.954 174.05 185.8 173.906 186.484 173.474L186.088 171.818C185.71 172.07 185.26 172.196 184.828 172.196C184.036 172.196 183.694 171.782 183.694 171.116C183.694 170.99 183.712 170.846 183.73 170.702L184.63 166.184ZM196.691 164.312L192.245 171.44L190.625 164.312H188.375L190.643 173.888L190.337 174.356C189.725 175.31 189.203 175.67 188.447 175.67C187.781 175.67 187.259 175.418 186.863 175.058L185.747 176.696C186.287 177.218 187.313 177.542 188.267 177.542C189.941 177.542 190.985 176.876 192.317 174.77L198.941 164.312H196.691ZM208.202 174.05C210.038 174.05 211.694 173.258 212.594 171.908L210.938 170.792C210.308 171.71 209.372 172.124 208.31 172.124C206.672 172.124 205.754 171.206 205.754 169.712C205.754 167.588 207.158 166.112 209.066 166.112C210.2 166.112 211.01 166.544 211.46 167.444L213.386 166.454C212.612 164.96 211.19 164.204 209.246 164.204C205.862 164.204 203.486 166.598 203.486 169.82C203.486 172.358 205.322 174.05 208.202 174.05ZM222.768 164.312L222.498 165.734C221.85 164.708 220.716 164.204 219.222 164.204C216.144 164.204 213.804 166.544 213.804 169.82C213.804 172.484 215.676 174.05 218.034 174.05C219.294 174.05 220.356 173.654 221.166 172.934L220.968 173.924H223.11L225.018 164.312H222.768ZM218.61 172.124C216.99 172.124 216.072 171.206 216.072 169.712C216.072 167.588 217.476 166.112 219.384 166.112C221.004 166.112 221.922 167.03 221.922 168.524C221.922 170.648 220.518 172.124 218.61 172.124ZM232.264 162.26C232.75 162.26 233.146 162.404 233.452 162.656L234.37 161.018C233.866 160.64 233.092 160.442 232.264 160.442C230.104 160.442 228.808 161.684 228.394 163.7L228.25 164.384H226.684L226.324 166.184H227.89L226.342 173.924H228.592L230.14 166.184H232.714L233.074 164.384H230.446L230.554 163.862C230.788 162.782 231.31 162.26 232.264 162.26ZM242.62 168.416C242.62 165.788 240.856 164.204 238.192 164.204C234.97 164.204 232.648 166.562 232.648 169.82C232.648 172.376 234.484 174.05 237.382 174.05C238.858 174.05 240.316 173.618 241.324 172.718L240.388 171.152C239.722 171.782 238.714 172.142 237.616 172.142C235.762 172.142 234.88 171.314 234.844 169.784H242.476C242.566 169.37 242.62 168.902 242.62 168.416ZM238.084 166.004C239.578 166.004 240.568 166.814 240.55 168.29H235.042C235.456 166.886 236.554 166.004 238.084 166.004Z" fill="white"/>
</g>
<path d="M129.523 128.483C128.983 128.48 128.45 128.365 127.956 128.147C127.462 127.928 127.019 127.61 126.653 127.212C126.287 126.814 126.006 126.345 125.829 125.834C125.651 125.322 125.58 124.78 125.621 124.24L129.419 74.4864L126.07 73.4127C124.848 72.927 123.764 72.1466 122.915 71.1407C122.066 70.1349 121.477 68.9345 121.2 67.6459L120.579 64.7019C120.237 63.1377 120.178 61.5246 120.406 59.9396L122.944 42.2755C122.96 42.1714 123.012 42.0762 123.091 42.0066C123.17 41.937 123.271 41.8973 123.376 41.8945H126.398C126.512 41.8945 126.622 41.9401 126.703 42.0213C126.784 42.1025 126.829 42.2126 126.829 42.3274V61.0306C126.829 61.3399 126.951 61.6369 127.167 61.8572C127.384 62.0776 127.678 62.2036 127.986 62.2082H129.022C129.276 62.2036 129.517 62.0995 129.695 61.9181C129.872 61.7367 129.972 61.4926 129.972 61.2384L131.25 40.5784C131.258 40.4696 131.308 40.3682 131.388 40.2944C131.468 40.2205 131.573 40.1797 131.681 40.18H134.444C134.5 40.1777 134.556 40.1867 134.608 40.2066C134.66 40.2264 134.708 40.2567 134.748 40.2955C134.789 40.3343 134.821 40.3809 134.843 40.4325C134.864 40.4841 134.876 40.5396 134.876 40.5957L135.566 60.7708C135.564 60.9269 135.593 61.0819 135.651 61.2268C135.709 61.3717 135.795 61.5035 135.904 61.6147C136.013 61.7259 136.144 61.8142 136.287 61.8745C136.431 61.9347 136.585 61.9657 136.74 61.9657H137.345C137.467 61.968 137.589 61.9461 137.703 61.9012C137.817 61.8563 137.921 61.7894 138.009 61.7041C138.097 61.6189 138.168 61.5171 138.217 61.4045C138.266 61.2919 138.292 61.1707 138.294 61.0479L138.882 42.5699C138.886 42.4581 138.933 42.3524 139.014 42.2749C139.094 42.1974 139.202 42.1542 139.313 42.1543H141.61C141.712 42.1563 141.811 42.1935 141.89 42.2597C141.968 42.3258 142.022 42.417 142.041 42.5179L144.735 59.6798C145 61.3584 144.918 63.0739 144.493 64.7192L143.63 67.975C143.373 68.9746 142.893 69.9026 142.226 70.6887C141.559 71.4747 140.722 72.0983 139.779 72.5122L135.877 74.244L138.951 124.673C138.981 125.161 138.912 125.65 138.747 126.11C138.582 126.57 138.326 126.992 137.992 127.348C137.659 127.705 137.257 127.99 136.81 128.185C136.363 128.38 135.881 128.482 135.394 128.483H129.523Z" fill="#E8EAEA"/>
<path d="M134.427 40.6127L135.118 60.7878C135.118 61.2149 135.287 61.6246 135.588 61.9266C135.89 62.2287 136.298 62.3983 136.724 62.3983H137.328C137.507 62.4006 137.685 62.3675 137.852 62.3009C138.018 62.2342 138.17 62.1353 138.298 62.0099C138.426 61.8845 138.528 61.7349 138.599 61.5698C138.67 61.4047 138.707 61.2272 138.71 61.0476L139.297 42.5869H141.61L144.304 59.7487C144.561 61.3643 144.479 63.0159 144.062 64.5977L143.216 67.8707C142.972 68.8185 142.515 69.6979 141.88 70.4421C141.246 71.1863 140.451 71.7757 139.556 72.1655L135.377 73.8973L138.468 124.638C138.496 125.067 138.436 125.497 138.292 125.902C138.148 126.306 137.922 126.677 137.629 126.99C137.336 127.304 136.982 127.553 136.588 127.724C136.195 127.894 135.771 127.981 135.343 127.981H129.524C129.043 127.982 128.567 127.884 128.126 127.69C127.685 127.497 127.29 127.214 126.965 126.858C126.64 126.503 126.392 126.083 126.238 125.627C126.084 125.17 126.027 124.686 126.07 124.205L129.903 74.1051L126.243 72.9275C125.093 72.4681 124.074 71.7316 123.276 70.7831C122.478 69.8347 121.926 68.7035 121.667 67.4897L120.89 64.5977C120.62 63.0916 120.62 61.5492 120.89 60.0431L123.428 42.3791H126.45V61.0822C126.45 61.5064 126.617 61.9134 126.914 62.2149C127.212 62.5165 127.616 62.6882 128.039 62.6927H129.075C129.443 62.6882 129.794 62.5384 130.052 62.2758C130.311 62.0132 130.456 61.6591 130.456 61.29L131.751 40.6646H134.514L134.427 40.6127ZM134.514 39.7987H131.751C131.535 39.7983 131.328 39.8806 131.17 40.0286C131.013 40.1767 130.918 40.3794 130.905 40.5953L129.524 61.1861C129.528 61.3348 129.475 61.4795 129.375 61.5895C129.275 61.6994 129.136 61.766 128.988 61.7749H127.952C127.856 61.7749 127.76 61.7556 127.671 61.7179C127.582 61.6803 127.501 61.6252 127.433 61.5558C127.366 61.4864 127.313 61.4042 127.277 61.3139C127.242 61.2237 127.225 61.1272 127.227 61.0302V42.3271C127.223 42.0989 127.13 41.8812 126.969 41.7197C126.808 41.5583 126.591 41.4657 126.364 41.4612H123.342C123.136 41.4633 122.937 41.5396 122.781 41.6762C122.626 41.8129 122.525 42.0008 122.496 42.2059L119.958 59.87C119.717 61.5055 119.769 63.1712 120.113 64.7882L120.752 67.7322C121.045 69.0948 121.672 70.3627 122.576 71.421C123.481 72.4794 124.634 73.2948 125.932 73.7934L129.006 74.7805L125.224 124.205C125.177 124.802 125.252 125.403 125.446 125.97C125.641 126.536 125.949 127.057 126.352 127.499C126.755 127.94 127.245 128.294 127.791 128.538C128.336 128.782 128.926 128.91 129.524 128.916H135.394C135.941 128.917 136.481 128.805 136.983 128.588C137.485 128.371 137.936 128.053 138.31 127.654C138.684 127.254 138.973 126.782 139.157 126.266C139.342 125.751 139.418 125.202 139.383 124.656L136.327 74.4342L139.953 72.8409C140.954 72.4015 141.842 71.7398 142.551 70.9059C143.26 70.0719 143.771 69.0874 144.045 68.0266L144.908 64.7536C145.354 63.0587 145.442 61.2892 145.167 59.5582L142.456 42.3964C142.424 42.1944 142.321 42.0106 142.166 41.8775C142.011 41.7443 141.814 41.6705 141.61 41.669H139.348C139.124 41.6733 138.909 41.7635 138.749 41.9213C138.588 42.0791 138.494 42.2924 138.485 42.5176L137.898 60.9783C137.898 61.0457 137.885 61.1125 137.858 61.1746C137.832 61.2367 137.794 61.2928 137.745 61.3397C137.697 61.3865 137.64 61.4232 137.577 61.4474C137.514 61.4716 137.447 61.4828 137.38 61.4805H136.776C136.678 61.4805 136.582 61.4612 136.492 61.4238C136.401 61.3864 136.32 61.3315 136.251 61.2624C136.182 61.1933 136.127 61.1112 136.09 61.0208C136.052 60.9305 136.033 60.8336 136.033 60.7358L135.343 40.5261C135.334 40.3025 135.239 40.091 135.078 39.9361C134.917 39.7811 134.702 39.6946 134.479 39.6948L134.514 39.7987Z" fill="#E8EAEA"/>
<path d="M202.237 47.0714C203.307 49.1495 203.618 51.7991 204.257 57.0983C204.727 61.3726 204.458 65.6962 203.463 69.8788C203.215 70.8136 202.763 71.6812 202.139 72.4183C201.514 73.1553 200.734 73.7432 199.854 74.139L195.675 75.9747L198.766 126.716C198.792 127.144 198.73 127.573 198.585 127.976C198.44 128.38 198.214 128.749 197.921 129.062C197.629 129.375 197.276 129.625 196.883 129.796C196.491 129.967 196.068 130.056 195.641 130.058H189.77C189.289 130.06 188.813 129.961 188.372 129.768C187.932 129.575 187.536 129.291 187.211 128.936C186.886 128.58 186.639 128.161 186.485 127.704C186.33 127.247 186.273 126.763 186.317 126.283L190.15 76.1825L186.506 75.0049C185.386 74.5001 184.381 73.7691 183.554 72.8575C181.827 70.9525 181.016 68.3375 181.154 62.0166C181.309 54.2409 181.396 50.3618 183.623 46.4306C184.78 44.4564 187.801 39.2611 192.515 39.0879C198.075 38.9494 201.736 46.0843 202.237 47.0714Z" fill="#E8EAEA" stroke="#E8EAEA" stroke-width="0.5" stroke-linecap="round" stroke-linejoin="round"/>
<path d="M165.042 39.0016C163.316 38.7592 153.767 65.4285 152.058 73.8449C152.005 74.105 152.009 74.3736 152.071 74.6318C152.132 74.8901 152.249 75.1317 152.414 75.3396C152.578 75.5476 152.786 75.7169 153.023 75.8356C153.26 75.9544 153.52 76.0196 153.784 76.0269L156.685 76.633C157.981 76.9021 159.136 77.6327 159.936 78.6897C160.735 79.7467 161.127 81.0586 161.037 82.3825L158.187 125.85C158.144 126.33 158.201 126.814 158.355 127.271C158.51 127.728 158.757 128.148 159.082 128.503C159.407 128.859 159.803 129.142 160.243 129.335C160.684 129.528 161.16 129.627 161.641 129.625H167.512C167.939 129.624 168.362 129.535 168.754 129.363C169.147 129.192 169.5 128.942 169.792 128.629C170.085 128.317 170.311 127.947 170.456 127.544C170.601 127.14 170.663 126.711 170.637 126.283L167.512 75.6286L164.973 39.0709" fill="#E8EAEA"/>
<path d="M165.042 39.0016C163.316 38.7592 153.767 65.4285 152.058 73.8449C152.005 74.105 152.009 74.3736 152.071 74.6318C152.132 74.8901 152.249 75.1317 152.414 75.3396C152.578 75.5476 152.786 75.7169 153.023 75.8356C153.26 75.9544 153.52 76.0196 153.784 76.0269L156.685 76.633C157.981 76.902 159.136 77.6327 159.936 78.6897C160.735 79.7467 161.127 81.0586 161.037 82.3825L158.187 125.85C158.144 126.33 158.201 126.814 158.355 127.271C158.51 127.728 158.757 128.148 159.082 128.503C159.407 128.859 159.803 129.142 160.243 129.335C160.684 129.528 161.16 129.627 161.641 129.625H167.512C167.939 129.624 168.362 129.535 168.754 129.363C169.147 129.192 169.5 128.942 169.792 128.629C170.085 128.317 170.311 127.947 170.456 127.544C170.601 127.14 170.663 126.711 170.637 126.283L167.512 75.6286L164.973 39.0709" stroke="#E8EAEA" stroke-width="0.5" stroke-linecap="round" stroke-linejoin="round"/>
<path d="M102.517 102.229C109.283 105.551 116.871 106.809 124.343 105.849C131.98 105.244 139.356 102.79 145.84 98.6965C152.746 94.2285 152.28 91.7694 158.03 87.1975C173.57 74.9192 195.102 78.4347 196.017 78.5386C207.396 80.5648 208.846 85.3791 220.743 86.4009C227.45 86.93 234.193 86.0875 240.566 83.9244C235.148 84.3585 229.697 83.9909 224.386 82.8334C218.999 81.6558 216.616 80.2531 211.005 78.3828C204.07 75.8483 196.806 74.3374 189.438 73.8975C180.303 73.3929 171.193 75.2787 163.003 79.3699C161.086 80.357 156.735 83.4742 148.015 89.7605C137.655 97.1725 137.552 97.6747 134.841 98.8177C127.295 102.004 120.285 101.467 113.188 100.913C107.064 100.426 101.025 99.1696 95.2134 97.1725C97.421 99.1661 99.8759 100.866 102.517 102.229Z" fill="#D3B78D" stroke="#D3B78D" stroke-width="0.5" stroke-linecap="round" stroke-linejoin="round"/>
<path d="M111.823 89.2934C120.456 85.6393 121.233 84.6003 126.102 83.6651C134.356 82.1065 142.782 82.9551 152.745 83.9595C163.83 85.0679 163.572 86.055 169.563 86.055C179.595 86.055 180.148 83.3188 195.256 80.9982C205.14 79.6109 215.098 78.8129 225.076 78.6083C231.499 78.3832 236.921 78.3659 240.823 78.4005C237.922 79.1452 233.468 80.2708 227.925 81.5697C215.286 84.4964 212.506 84.8427 206.998 86.4879C198.52 88.9817 201.455 90.6095 193.357 93.415C183.13 96.7596 172.336 98.0024 161.62 97.069C149.534 95.9261 150.103 92.5318 138.466 92.0123C131.421 91.7005 128.969 92.7915 112.444 94.2636C105.123 94.9043 99.0454 95.268 94.9531 95.4758C98.959 94.2462 104.985 92.1508 111.823 89.2934Z" fill="#F9EDB2" stroke="#F9EDB2" stroke-width="0.5" stroke-linecap="round" stroke-linejoin="round"/>
<path d="M103.78 89.3793C112.414 85.4829 113.208 84.3572 118.06 83.3874C126.331 81.6557 134.74 82.6081 144.703 83.6818C155.805 84.8768 155.546 85.9158 161.52 85.9331C171.552 85.9331 172.105 83.0064 187.213 80.53C197.087 79.0298 207.049 78.1794 217.033 77.9843C223.474 77.7245 228.896 77.7072 232.798 77.7419C229.897 78.5385 225.442 79.7507 219.9 81.2054C207.26 84.3226 204.463 84.6689 198.955 86.4007C190.494 89.085 193.43 90.8167 185.314 93.8993C175.143 97.4677 164.325 98.8024 153.595 97.8131C141.508 96.5835 142.061 92.9641 130.44 92.4099C123.395 92.0636 120.943 93.2412 104.419 94.7998C97.0979 95.4925 91.0027 95.8908 86.9277 96.0986C90.9336 94.6786 96.9598 92.4446 103.78 89.3793Z" stroke="#EFD686" stroke-width="0.5" stroke-linecap="round" stroke-linejoin="round"/>
<path d="M127.987 129.955C127.445 129.956 126.909 129.845 126.412 129.627C125.916 129.41 125.47 129.091 125.103 128.691C124.742 128.292 124.465 127.824 124.29 127.315C124.115 126.806 124.045 126.266 124.085 125.729L127.883 75.9582L124.551 74.8845C123.329 74.4043 122.244 73.6278 121.395 72.6245C120.545 71.6212 119.956 70.4223 119.682 69.1351L119.06 66.1737C118.718 64.6096 118.659 62.9963 118.887 61.4114L121.425 43.7473C121.442 43.6449 121.495 43.5518 121.574 43.485C121.653 43.4183 121.754 43.3823 121.857 43.3836H124.862C124.976 43.3836 125.086 43.4292 125.167 43.5104C125.248 43.5916 125.293 43.7018 125.293 43.8166V62.5197C125.298 62.829 125.424 63.1241 125.643 63.3412C125.863 63.5583 126.159 63.68 126.467 63.68H127.486C127.743 63.68 127.989 63.5778 128.17 63.3959C128.351 63.2141 128.453 62.9674 128.453 62.7102L129.748 42.0502C129.757 41.9414 129.806 41.84 129.886 41.7662C129.966 41.6923 130.071 41.6515 130.18 41.6519H132.977C133.089 41.6518 133.196 41.695 133.276 41.7725C133.357 41.85 133.404 41.9557 133.409 42.0675L134.099 62.2599C134.097 62.416 134.126 62.571 134.184 62.7159C134.242 62.8608 134.328 62.9927 134.437 63.1038C134.546 63.215 134.677 63.3033 134.82 63.3636C134.964 63.4238 135.118 63.4549 135.273 63.4549H135.878C136.127 63.4549 136.366 63.3569 136.543 63.182C136.721 63.0071 136.823 62.7693 136.827 62.5197L137.415 44.059C137.415 43.9442 137.46 43.8341 137.541 43.7529C137.622 43.6717 137.732 43.6261 137.846 43.6261H140.108C140.211 43.6295 140.31 43.6698 140.386 43.7396C140.462 43.8095 140.51 43.9044 140.523 44.0071L143.233 61.1516C143.493 62.8314 143.405 64.5469 142.974 66.1911L142.128 69.4641C141.864 70.4601 141.381 71.3842 140.714 72.1691C140.048 72.9541 139.216 73.58 138.278 74.0013L134.376 75.7331L137.449 126.18C137.477 126.666 137.406 127.153 137.24 127.611C137.074 128.069 136.817 128.489 136.484 128.844C136.151 129.199 135.75 129.482 135.304 129.676C134.858 129.87 134.378 129.971 133.892 129.972L127.987 129.955Z" fill="#8C9998"/>
<path d="M132.979 42.0839L133.67 62.2763C133.67 62.7035 133.839 63.1131 134.14 63.4152C134.442 63.7172 134.85 63.8869 135.276 63.8869H135.88C136.239 63.8827 136.583 63.7401 136.84 63.4886C137.097 63.2371 137.248 62.8961 137.262 62.5361L137.849 44.0754H140.111L142.804 61.22C143.061 62.8413 142.979 64.4985 142.562 66.0862L141.613 69.342C141.384 70.2629 140.957 71.122 140.36 71.8583C139.763 72.5947 139.012 73.19 138.159 73.6021L133.981 75.4378L137.072 126.179C137.097 126.607 137.036 127.036 136.891 127.439C136.745 127.843 136.52 128.212 136.227 128.525C135.934 128.838 135.581 129.088 135.189 129.259C134.797 129.43 134.374 129.519 133.946 129.521H128.076C127.595 129.523 127.119 129.424 126.678 129.231C126.237 129.038 125.842 128.754 125.517 128.399C125.192 128.044 124.944 127.624 124.79 127.167C124.636 126.71 124.579 126.226 124.622 125.746L128.335 75.6283L124.674 74.468C123.526 74.0018 122.508 73.261 121.711 72.3102C120.913 71.3594 120.36 70.2275 120.098 69.0129L119.477 66.0689C119.149 64.5553 119.097 62.9948 119.321 61.4624L121.86 43.7983H124.864V62.5015C124.868 62.9256 125.04 63.3308 125.34 63.6291C125.641 63.9274 126.047 64.0947 126.47 64.0947H127.489C127.859 64.0947 128.215 63.9469 128.477 63.6838C128.74 63.4208 128.887 63.064 128.887 62.692L130.182 42.0666H132.979V42.0839ZM132.979 41.2007H130.217C129.996 41.2003 129.784 41.2843 129.624 41.4357C129.463 41.587 129.367 41.7941 129.353 42.0146L128.058 62.64C128.063 62.7142 128.053 62.7886 128.028 62.8587C128.004 62.9289 127.965 62.9933 127.915 63.0483C127.865 63.1032 127.805 63.1475 127.737 63.1785C127.67 63.2095 127.597 63.2266 127.523 63.2288H126.504C126.408 63.2311 126.311 63.214 126.221 63.1785C126.131 63.143 126.049 63.0898 125.98 63.022C125.911 62.9542 125.856 62.8733 125.819 62.7839C125.781 62.6945 125.762 62.5985 125.762 62.5015V43.8157C125.762 43.586 125.671 43.3658 125.509 43.2034C125.347 43.041 125.127 42.9498 124.898 42.9498H121.894C121.686 42.9513 121.484 43.027 121.326 43.1633C121.168 43.2997 121.063 43.4879 121.031 43.6944L118.492 61.3585C118.265 62.9897 118.323 64.6483 118.665 66.2594L119.304 69.2207C119.583 70.5686 120.19 71.8267 121.069 72.8839C121.948 73.941 123.074 74.7646 124.346 75.2819L127.402 76.269L123.655 125.694C123.61 126.292 123.689 126.894 123.886 127.461C124.083 128.028 124.395 128.548 124.802 128.988C125.209 129.429 125.702 129.78 126.25 130.021C126.799 130.262 127.391 130.386 127.989 130.387H133.86C134.404 130.385 134.941 130.271 135.44 130.054C135.939 129.837 136.388 129.52 136.761 129.123C137.138 128.725 137.429 128.254 137.617 127.739C137.804 127.223 137.883 126.674 137.849 126.127L134.792 75.992L138.418 74.3814C139.419 73.942 140.308 73.2803 141.017 72.4464C141.726 71.6124 142.236 70.6279 142.511 69.5671L143.357 66.294C143.803 64.5992 143.891 62.8297 143.616 61.0987L140.922 43.9542C140.893 43.7507 140.791 43.5649 140.635 43.4311C140.48 43.2973 140.281 43.2248 140.076 43.2269H137.814C137.703 43.2246 137.592 43.2442 137.489 43.2848C137.385 43.3253 137.291 43.3859 137.211 43.4631C137.131 43.5403 137.066 43.6326 137.022 43.7347C136.977 43.8368 136.953 43.9467 136.951 44.0581L136.433 62.5015C136.433 62.6393 136.378 62.7714 136.281 62.8688C136.184 62.9663 136.052 63.021 135.915 63.021H135.31C135.113 63.021 134.925 62.9425 134.785 62.8029C134.646 62.6632 134.568 62.4738 134.568 62.2763L133.877 42.0493C133.868 41.8257 133.773 41.6142 133.612 41.4592C133.452 41.3043 133.237 41.2178 133.014 41.218L132.979 41.2007Z" fill="#8C9998"/>
<path d="M200.749 48.544C201.82 50.6394 202.131 53.289 202.769 58.5882C203.23 62.8636 202.956 67.1865 201.958 71.3687C201.706 72.2961 201.259 73.1584 200.646 73.8971C200.019 74.6391 199.234 75.2309 198.349 75.6289L194.188 77.4819L197.279 128.223C197.302 128.651 197.238 129.08 197.091 129.482C196.943 129.885 196.716 130.253 196.422 130.564C196.127 130.875 195.773 131.123 195.38 131.292C194.987 131.462 194.564 131.548 194.136 131.548H188.231C187.751 131.549 187.277 131.451 186.838 131.259C186.398 131.067 186.004 130.785 185.679 130.432C185.354 130.078 185.106 129.661 184.951 129.206C184.796 128.751 184.737 128.269 184.777 127.79L188.611 77.6897L184.95 76.5121C183.831 75.9959 182.822 75.2666 181.98 74.3647C180.254 72.4424 179.459 69.8447 179.597 63.5065C179.753 55.7481 179.839 51.8516 182.067 47.9205C183.241 45.877 186.28 40.6124 191.011 40.4912C196.588 40.422 200.318 47.5569 200.749 48.544Z" fill="#8C9998" stroke="#8C9998" stroke-width="0.5" stroke-linecap="round" stroke-linejoin="round"/>
<path d="M163.56 40.4909C161.833 40.2485 152.267 66.9177 150.575 75.3341C150.508 75.5946 150.502 75.8672 150.558 76.1303C150.614 76.3934 150.731 76.6397 150.898 76.8498C151.066 77.0599 151.28 77.2279 151.524 77.3406C151.767 77.4532 152.034 77.5074 152.302 77.4989L155.203 78.105C156.495 78.3807 157.645 79.113 158.444 80.1684C159.243 81.2238 159.637 82.532 159.554 83.8545L156.705 127.357C156.664 127.836 156.723 128.318 156.878 128.773C157.034 129.227 157.282 129.645 157.606 129.998C157.931 130.352 158.326 130.634 158.765 130.826C159.204 131.018 159.679 131.116 160.158 131.114H166.012C166.446 131.127 166.879 131.049 167.282 130.885C167.686 130.722 168.05 130.476 168.354 130.163C168.658 129.851 168.893 129.478 169.046 129.07C169.198 128.661 169.265 128.225 169.241 127.789L166.15 77.0486L163.612 40.4909" fill="#8C9998"/>
<path d="M163.56 40.4909C161.833 40.2485 152.267 66.9177 150.575 75.3341C150.508 75.5946 150.502 75.8672 150.558 76.1303C150.614 76.3934 150.731 76.6397 150.898 76.8498C151.066 77.0599 151.28 77.2279 151.524 77.3406C151.767 77.4532 152.034 77.5074 152.302 77.4989L155.203 78.105C156.495 78.3807 157.645 79.113 158.444 80.1684C159.243 81.2238 159.637 82.532 159.554 83.8545L156.705 127.357C156.664 127.836 156.723 128.318 156.878 128.773C157.034 129.227 157.282 129.645 157.606 129.998C157.931 130.352 158.326 130.634 158.765 130.826C159.204 131.018 159.679 131.116 160.158 131.114H166.012C166.446 131.127 166.879 131.049 167.282 130.885C167.686 130.722 168.05 130.476 168.354 130.163C168.658 129.851 168.893 129.478 169.046 129.07C169.198 128.661 169.265 128.225 169.241 127.789L166.15 77.0486L163.612 40.4909" stroke="#8C9998" stroke-width="0.5" stroke-linecap="round" stroke-linejoin="round"/>
<path d="M120.665 65.9482C120.761 67.5745 121.285 69.1461 122.184 70.5028C123.169 71.9728 124.615 73.0702 126.294 73.62C126.001 73.0161 125.66 72.437 125.275 71.8882C124.691 71.098 124.026 70.3724 123.289 69.7235C122.182 68.6447 121.291 67.3632 120.665 65.9482Z" fill="white" stroke="white" stroke-width="0.25" stroke-miterlimit="10"/>
<path d="M198.833 51.0897C198.598 49.4705 197.943 47.9416 196.933 46.6563C196.377 45.9803 195.719 45.396 194.982 44.9246C194.243 44.4444 193.424 44.0986 192.565 43.9028C192.908 44.4585 193.294 44.9856 193.722 45.4787C194.374 46.2185 195.104 46.8861 195.897 47.4703C197.1 48.4747 198.097 49.704 198.833 51.0897Z" fill="white" stroke="white" stroke-width="0.25" stroke-miterlimit="10"/>
<path d="M129.179 77.7236L127.279 126.889" stroke="#B1B5B5" stroke-width="0.25" stroke-linecap="round" stroke-linejoin="round"/>
<path d="M131.061 77.7061L131.026 126.906" stroke="#B1B5B5" stroke-width="0.25" stroke-linecap="round" stroke-linejoin="round"/>
<path d="M133.185 77.7246L135.067 126.89" stroke="#B1B5B5" stroke-width="0.25" stroke-linecap="round" stroke-linejoin="round"/>
<path d="M160.935 79.8892L159.036 129.054" stroke="#B1B5B5" stroke-width="0.25" stroke-linecap="round" stroke-linejoin="round"/>
<path d="M162.813 79.8721L162.779 129.072" stroke="#B1B5B5" stroke-width="0.25" stroke-linecap="round" stroke-linejoin="round"/>
<path d="M164.938 79.8892L166.82 129.054" stroke="#B1B5B5" stroke-width="0.25" stroke-linecap="round" stroke-linejoin="round"/>
<path d="M189.058 79.9062L187.158 129.089" stroke="#B1B5B5" stroke-width="0.25" stroke-linecap="round" stroke-linejoin="round"/>
<path d="M190.959 79.8887L190.89 129.106" stroke="#B1B5B5" stroke-width="0.25" stroke-linecap="round" stroke-linejoin="round"/>
<path d="M193.082 79.9233L194.929 129.088" stroke="#B1B5B5" stroke-width="0.25" stroke-linecap="round" stroke-linejoin="round"/>
<path d="M137.641 117.278H123.897V119.633H137.641V117.278Z" fill="#DB7028" stroke="#DB7028" stroke-width="0.5" stroke-linecap="round" stroke-linejoin="round"/>
<path d="M169.183 117.279H156.682V119.634H169.183V117.279Z" fill="#FFDF5A" stroke="#FFDF5A" stroke-width="0.5" stroke-linecap="round" stroke-linejoin="round"/>
<path d="M197.296 117.278H184.778V119.633H197.296V117.278Z" fill="#99CCFF" stroke="#99CCFF" stroke-width="0.5" stroke-linecap="round" stroke-linejoin="round"/>
<path d="M163.833 129.487C164.45 129.583 165.08 129.54 165.678 129.36C166.275 129.181 166.825 128.869 167.287 128.448C167.839 127.773 167.839 126.716 167.839 124.985C167.846 123.827 167.777 122.67 167.632 121.521C167.494 122.179 167.252 123.253 166.993 124.552C166.904 125.527 166.653 126.481 166.251 127.374C165.697 128.325 164.848 129.067 163.833 129.487Z" fill="white" stroke="white" stroke-width="0.25" stroke-miterlimit="10"/>
<defs>
<filter id="filter0_d" x="78.0439" y="148.196" width="176" height="49" filterUnits="userSpaceOnUse" color-interpolation-filters="sRGB">
<feFlood flood-opacity="0" result="BackgroundImageFix"/>
<feColorMatrix in="SourceAlpha" type="matrix" values="0 0 0 0 0 0 0 0 0 0 0 0 0 0 0 0 0 0 127 0"/>
<feOffset dy="4"/>
<feGaussianBlur stdDeviation="2"/>
<feColorMatrix type="matrix" values="0 0 0 0 0 0 0 0 0 0 0 0 0 0 0 0 0 0 0.25 0"/>
<feBlend mode="normal" in2="BackgroundImageFix" result="effect1_dropShadow"/>
<feBlend mode="normal" in="SourceGraphic" in2="effect1_dropShadow" result="shape"/>
</filter>
</defs>
</svg>
