<svg width="334" height="207" viewBox="0 0 334 207" fill="none" xmlns="http://www.w3.org/2000/svg">
<g filter="url(#filter0_d)">
<rect x="82.0437" y="137.196" width="168" height="41" rx="10" fill="#7C8294"/>
<path d="M95.7721 163.05C97.6081 163.05 99.2641 162.258 100.164 160.908L98.5081 159.792C97.8781 160.71 96.9421 161.124 95.8801 161.124C94.2421 161.124 93.3241 160.206 93.3241 158.712C93.3241 156.588 94.7281 155.112 96.6361 155.112C97.7701 155.112 98.5801 155.544 99.0301 156.444L100.956 155.454C100.182 153.96 98.7601 153.204 96.8161 153.204C93.4321 153.204 91.0561 155.598 91.0561 158.82C91.0561 161.358 92.8921 163.05 95.7721 163.05ZM106.037 163.05C109.367 163.05 111.761 160.638 111.761 157.416C111.761 154.86 109.925 153.204 107.081 153.204C103.751 153.204 101.375 155.598 101.375 158.82C101.375 161.358 103.211 163.05 106.037 163.05ZM106.181 161.124C104.561 161.124 103.643 160.206 103.643 158.712C103.643 156.588 105.047 155.112 106.955 155.112C108.575 155.112 109.493 156.03 109.493 157.524C109.493 159.648 108.089 161.124 106.181 161.124ZM126.674 153.204C125.126 153.204 123.848 153.744 122.876 154.788C122.354 153.744 121.274 153.204 119.888 153.204C118.682 153.204 117.584 153.564 116.738 154.356L116.936 153.312H114.794L112.886 162.924H115.136L116.144 157.938C116.522 156.048 117.548 155.166 119.096 155.166C120.338 155.166 120.932 155.778 120.932 156.894C120.932 157.128 120.914 157.38 120.86 157.65L119.798 162.924H122.048L123.056 157.92C123.434 156.048 124.46 155.166 126.008 155.166C127.25 155.166 127.844 155.778 127.844 156.894C127.844 157.128 127.826 157.38 127.772 157.65L126.71 162.924H128.96L130.022 157.596C130.112 157.164 130.148 156.768 130.148 156.408C130.148 154.32 128.798 153.204 126.674 153.204ZM145.623 153.204C144.075 153.204 142.797 153.744 141.825 154.788C141.303 153.744 140.223 153.204 138.837 153.204C137.631 153.204 136.533 153.564 135.687 154.356L135.885 153.312H133.743L131.835 162.924H134.085L135.093 157.938C135.471 156.048 136.497 155.166 138.045 155.166C139.287 155.166 139.881 155.778 139.881 156.894C139.881 157.128 139.863 157.38 139.809 157.65L138.747 162.924H140.997L142.005 157.92C142.383 156.048 143.409 155.166 144.957 155.166C146.199 155.166 146.793 155.778 146.793 156.894C146.793 157.128 146.775 157.38 146.721 157.65L145.659 162.924H147.909L148.971 157.596C149.061 157.164 149.097 156.768 149.097 156.408C149.097 154.32 147.747 153.204 145.623 153.204ZM159.767 153.312L158.759 158.298C158.381 160.17 157.247 161.07 155.645 161.07C154.367 161.07 153.737 160.44 153.737 159.324C153.737 159.09 153.755 158.856 153.809 158.586L154.871 153.312H152.621L151.559 158.64C151.469 159.054 151.433 159.432 151.433 159.792C151.433 161.898 152.837 163.05 154.907 163.05C156.149 163.05 157.283 162.672 158.165 161.862L157.949 162.924H160.091L162.017 153.312H159.767ZM170.182 153.204C168.904 153.204 167.752 153.582 166.87 154.374L167.086 153.312H164.944L163.036 162.924H165.286L166.294 157.938C166.672 156.066 167.806 155.166 169.444 155.166C170.758 155.166 171.37 155.796 171.37 156.912C171.37 157.128 171.352 157.38 171.298 157.65L170.254 162.924H172.504L173.566 157.596C173.638 157.182 173.692 156.804 173.692 156.444C173.692 154.338 172.306 153.204 170.182 153.204ZM178.905 151.728C179.823 151.728 180.435 151.116 180.435 150.234C180.435 149.568 179.895 149.028 179.085 149.028C178.167 149.028 177.555 149.658 177.555 150.468C177.555 151.152 178.095 151.728 178.905 151.728ZM175.359 162.924H177.609L179.517 153.312H177.267L175.359 162.924ZM184.63 155.184H187.222L187.582 153.384H184.99L185.44 151.188H183.19L182.758 153.384H181.192L180.832 155.184H182.398L181.48 159.72C181.426 159.99 181.408 160.242 181.408 160.476C181.408 162.096 182.524 163.05 184.162 163.05C184.954 163.05 185.8 162.906 186.484 162.474L186.088 160.818C185.71 161.07 185.26 161.196 184.828 161.196C184.036 161.196 183.694 160.782 183.694 160.116C183.694 159.99 183.712 159.846 183.73 159.702L184.63 155.184ZM196.691 153.312L192.245 160.44L190.625 153.312H188.375L190.643 162.888L190.337 163.356C189.725 164.31 189.203 164.67 188.447 164.67C187.781 164.67 187.259 164.418 186.863 164.058L185.747 165.696C186.287 166.218 187.313 166.542 188.267 166.542C189.941 166.542 190.985 165.876 192.317 163.77L198.941 153.312H196.691ZM208.202 163.05C210.038 163.05 211.694 162.258 212.594 160.908L210.938 159.792C210.308 160.71 209.372 161.124 208.31 161.124C206.672 161.124 205.754 160.206 205.754 158.712C205.754 156.588 207.158 155.112 209.066 155.112C210.2 155.112 211.01 155.544 211.46 156.444L213.386 155.454C212.612 153.96 211.19 153.204 209.246 153.204C205.862 153.204 203.486 155.598 203.486 158.82C203.486 161.358 205.322 163.05 208.202 163.05ZM222.768 153.312L222.498 154.734C221.85 153.708 220.716 153.204 219.222 153.204C216.144 153.204 213.804 155.544 213.804 158.82C213.804 161.484 215.676 163.05 218.034 163.05C219.294 163.05 220.356 162.654 221.166 161.934L220.968 162.924H223.11L225.018 153.312H222.768ZM218.61 161.124C216.99 161.124 216.072 160.206 216.072 158.712C216.072 156.588 217.476 155.112 219.384 155.112C221.004 155.112 221.922 156.03 221.922 157.524C221.922 159.648 220.518 161.124 218.61 161.124ZM232.264 151.26C232.75 151.26 233.146 151.404 233.452 151.656L234.37 150.018C233.866 149.64 233.092 149.442 232.264 149.442C230.104 149.442 228.808 150.684 228.394 152.7L228.25 153.384H226.684L226.324 155.184H227.89L226.342 162.924H228.592L230.14 155.184H232.714L233.074 153.384H230.446L230.554 152.862C230.788 151.782 231.31 151.26 232.264 151.26ZM242.62 157.416C242.62 154.788 240.856 153.204 238.192 153.204C234.97 153.204 232.648 155.562 232.648 158.82C232.648 161.376 234.484 163.05 237.382 163.05C238.858 163.05 240.316 162.618 241.324 161.718L240.388 160.152C239.722 160.782 238.714 161.142 237.616 161.142C235.762 161.142 234.88 160.314 234.844 158.784H242.476C242.566 158.37 242.62 157.902 242.62 157.416ZM238.084 155.004C239.578 155.004 240.568 155.814 240.55 157.29H235.042C235.456 155.886 236.554 155.004 238.084 155.004Z" fill="white"/>
</g>
<path d="M129.523 117.483C128.983 117.48 128.45 117.365 127.956 117.147C127.463 116.928 127.019 116.61 126.653 116.212C126.287 115.814 126.007 115.345 125.829 114.834C125.651 114.322 125.581 113.78 125.621 113.24L129.42 63.4864L126.07 62.4127C124.848 61.927 123.765 61.1466 122.915 60.1407C122.066 59.1349 121.477 57.9345 121.201 56.6459L120.579 53.7019C120.237 52.1377 120.179 50.5246 120.406 48.9396L122.945 31.2755C122.961 31.1714 123.013 31.0762 123.092 31.0066C123.17 30.937 123.271 30.8973 123.376 30.8945H126.398C126.512 30.8945 126.622 30.9401 126.703 31.0213C126.784 31.1025 126.83 31.2126 126.83 31.3274V50.0306C126.83 50.3399 126.951 50.6369 127.167 50.8572C127.384 51.0776 127.678 51.2036 127.986 51.2082H129.022C129.276 51.2036 129.517 51.0995 129.695 50.9181C129.873 50.7367 129.972 50.4926 129.972 50.2384L131.25 29.5784C131.259 29.4696 131.308 29.3682 131.388 29.2944C131.468 29.2205 131.573 29.1797 131.682 29.18H134.444C134.5 29.1777 134.556 29.1867 134.608 29.2066C134.66 29.2264 134.708 29.2567 134.748 29.2955C134.789 29.3343 134.821 29.3809 134.843 29.4325C134.865 29.4841 134.876 29.5396 134.876 29.5957L135.567 49.7708C135.564 49.9269 135.593 50.0819 135.651 50.2268C135.709 50.3717 135.795 50.5035 135.904 50.6147C136.014 50.7259 136.144 50.8142 136.287 50.8745C136.431 50.9347 136.585 50.9657 136.741 50.9657H137.345C137.467 50.968 137.589 50.9461 137.703 50.9012C137.817 50.8563 137.921 50.7894 138.009 50.7041C138.098 50.6189 138.168 50.5171 138.217 50.4045C138.266 50.2919 138.292 50.1707 138.295 50.0479L138.882 31.5699C138.886 31.4581 138.934 31.3524 139.014 31.2749C139.095 31.1974 139.202 31.1542 139.313 31.1543H141.61C141.712 31.1563 141.811 31.1935 141.89 31.2597C141.968 31.3258 142.022 31.417 142.042 31.5179L144.735 48.6798C145 50.3584 144.918 52.0739 144.494 53.7192L143.63 56.975C143.373 57.9746 142.893 58.9026 142.226 59.6887C141.559 60.4747 140.723 61.0983 139.78 61.5122L135.877 63.244L138.951 113.673C138.981 114.161 138.912 114.65 138.747 115.11C138.583 115.57 138.326 115.992 137.993 116.348C137.66 116.705 137.257 116.99 136.81 117.185C136.363 117.38 135.881 117.482 135.394 117.483H129.523Z" fill="#E8EAEA"/>
<path d="M134.427 29.6127L135.118 49.7878C135.118 50.2149 135.287 50.6246 135.588 50.9266C135.89 51.2287 136.298 51.3983 136.724 51.3983H137.328C137.507 51.4006 137.685 51.3675 137.852 51.3009C138.018 51.2342 138.17 51.1353 138.298 51.0099C138.426 50.8845 138.528 50.7349 138.599 50.5698C138.67 50.4047 138.707 50.2272 138.71 50.0476L139.297 31.5869H141.61L144.304 48.7487C144.561 50.3643 144.479 52.0159 144.062 53.5977L143.216 56.8707C142.972 57.8185 142.515 58.6979 141.88 59.4421C141.246 60.1863 140.451 60.7757 139.556 61.1655L135.377 62.8973L138.468 113.638C138.496 114.067 138.436 114.497 138.292 114.902C138.148 115.306 137.922 115.677 137.629 115.99C137.336 116.304 136.982 116.553 136.588 116.724C136.195 116.894 135.771 116.981 135.343 116.981H129.524C129.043 116.982 128.567 116.884 128.126 116.69C127.685 116.497 127.29 116.214 126.965 115.858C126.64 115.503 126.392 115.083 126.238 114.627C126.084 114.17 126.027 113.686 126.07 113.205L129.903 63.1051L126.243 61.9275C125.093 61.4681 124.074 60.7316 123.276 59.7831C122.478 58.8347 121.926 57.7035 121.667 56.4897L120.89 53.5977C120.62 52.0916 120.62 50.5492 120.89 49.0431L123.428 31.3791H126.45V50.0822C126.45 50.5064 126.617 50.9134 126.914 51.2149C127.212 51.5165 127.616 51.6882 128.039 51.6927H129.075C129.443 51.6882 129.794 51.5384 130.052 51.2758C130.311 51.0132 130.456 50.6591 130.456 50.29L131.751 29.6646H134.514L134.427 29.6127ZM134.514 28.7987H131.751C131.535 28.7983 131.328 28.8806 131.17 29.0286C131.013 29.1767 130.918 29.3794 130.905 29.5953L129.524 50.1861C129.528 50.3348 129.475 50.4795 129.375 50.5895C129.275 50.6994 129.136 50.766 128.988 50.7749H127.952C127.856 50.7749 127.76 50.7556 127.671 50.7179C127.582 50.6803 127.501 50.6252 127.433 50.5558C127.366 50.4864 127.313 50.4042 127.277 50.3139C127.242 50.2237 127.225 50.1272 127.227 50.0302V31.3271C127.223 31.0989 127.13 30.8812 126.969 30.7197C126.808 30.5583 126.591 30.4657 126.364 30.4612H123.342C123.136 30.4633 122.937 30.5396 122.781 30.6762C122.626 30.8129 122.525 31.0008 122.496 31.2059L119.958 48.87C119.717 50.5055 119.769 52.1712 120.113 53.7882L120.752 56.7322C121.045 58.0948 121.672 59.3627 122.576 60.421C123.481 61.4794 124.634 62.2948 125.932 62.7934L129.006 63.7805L125.224 113.205C125.177 113.802 125.252 114.403 125.446 114.97C125.641 115.536 125.949 116.057 126.352 116.499C126.755 116.94 127.245 117.294 127.791 117.538C128.336 117.782 128.926 117.91 129.524 117.916H135.394C135.941 117.917 136.481 117.805 136.983 117.588C137.485 117.371 137.936 117.053 138.31 116.654C138.684 116.254 138.973 115.782 139.157 115.266C139.342 114.751 139.418 114.202 139.383 113.656L136.327 63.4342L139.953 61.8409C140.954 61.4015 141.842 60.7398 142.551 59.9059C143.26 59.0719 143.771 58.0874 144.045 57.0266L144.908 53.7536C145.354 52.0587 145.442 50.2892 145.167 48.5582L142.456 31.3964C142.424 31.1944 142.321 31.0106 142.166 30.8775C142.011 30.7443 141.814 30.6705 141.61 30.669H139.348C139.124 30.6733 138.909 30.7635 138.749 30.9213C138.588 31.0791 138.494 31.2924 138.485 31.5176L137.898 49.9783C137.898 50.0457 137.885 50.1125 137.858 50.1746C137.832 50.2367 137.794 50.2928 137.745 50.3397C137.697 50.3865 137.64 50.4232 137.577 50.4474C137.514 50.4716 137.447 50.4828 137.38 50.4805H136.776C136.678 50.4805 136.582 50.4612 136.492 50.4238C136.401 50.3864 136.32 50.3315 136.251 50.2624C136.182 50.1933 136.127 50.1112 136.09 50.0208C136.052 49.9305 136.033 49.8336 136.033 49.7358L135.343 29.5261C135.334 29.3025 135.239 29.091 135.078 28.9361C134.917 28.7811 134.702 28.6946 134.479 28.6948L134.514 28.7987Z" fill="#E8EAEA"/>
<path d="M202.237 36.0714C203.307 38.1495 203.618 40.7991 204.257 46.0983C204.727 50.3726 204.459 54.6962 203.463 58.8788C203.216 59.8136 202.763 60.6812 202.139 61.4183C201.514 62.1553 200.734 62.7432 199.854 63.139L195.675 64.9747L198.766 115.716C198.792 116.144 198.73 116.573 198.585 116.976C198.44 117.38 198.214 117.749 197.922 118.062C197.629 118.375 197.276 118.625 196.884 118.796C196.492 118.967 196.069 119.056 195.641 119.058H189.77C189.289 119.06 188.813 118.961 188.373 118.768C187.932 118.575 187.537 118.291 187.211 117.936C186.886 117.58 186.639 117.161 186.485 116.704C186.331 116.247 186.274 115.763 186.317 115.283L190.15 65.1825L186.507 64.0049C185.386 63.5001 184.381 62.7691 183.554 61.8575C181.827 59.9525 181.016 57.3375 181.154 51.0166C181.309 43.2409 181.396 39.3618 183.623 35.4306C184.78 33.4564 187.802 28.2611 192.516 28.0879C198.076 27.9494 201.736 35.0843 202.237 36.0714Z" fill="#E8EAEA" stroke="#E8EAEA" stroke-width="0.5" stroke-linecap="round" stroke-linejoin="round"/>
<path d="M165.042 28.0016C163.316 27.7592 153.767 54.4285 152.058 62.8449C152.005 63.105 152.009 63.3736 152.071 63.6318C152.132 63.8901 152.249 64.1317 152.414 64.3396C152.578 64.5476 152.786 64.7169 153.023 64.8356C153.26 64.9544 153.52 65.0196 153.784 65.0269L156.685 65.633C157.981 65.9021 159.136 66.6327 159.936 67.6897C160.735 68.7467 161.127 70.0586 161.037 71.3825L158.187 114.85C158.144 115.33 158.201 115.814 158.355 116.271C158.51 116.728 158.757 117.148 159.082 117.503C159.407 117.859 159.803 118.142 160.243 118.335C160.684 118.528 161.16 118.627 161.641 118.625H167.512C167.939 118.624 168.362 118.535 168.754 118.363C169.147 118.192 169.5 117.942 169.792 117.629C170.085 117.317 170.311 116.947 170.456 116.544C170.601 116.14 170.663 115.711 170.637 115.283L167.512 64.6286L164.973 28.0709" fill="#E8EAEA"/>
<path d="M165.042 28.0016C163.316 27.7592 153.767 54.4285 152.058 62.8449C152.005 63.105 152.009 63.3736 152.071 63.6318C152.132 63.8901 152.249 64.1317 152.414 64.3396C152.578 64.5476 152.786 64.7169 153.023 64.8356C153.26 64.9544 153.52 65.0196 153.784 65.0269L156.685 65.633C157.981 65.902 159.136 66.6327 159.936 67.6897C160.735 68.7467 161.127 70.0586 161.037 71.3825L158.187 114.85C158.144 115.33 158.201 115.814 158.355 116.271C158.51 116.728 158.757 117.148 159.082 117.503C159.407 117.859 159.803 118.142 160.243 118.335C160.684 118.528 161.16 118.627 161.641 118.625H167.512C167.939 118.624 168.362 118.535 168.754 118.363C169.147 118.192 169.5 117.942 169.792 117.629C170.085 117.317 170.311 116.947 170.456 116.544C170.601 116.14 170.663 115.711 170.637 115.283L167.512 64.6286L164.973 28.0709" stroke="#E8EAEA" stroke-width="0.5" stroke-linecap="round" stroke-linejoin="round"/>
<path d="M102.518 91.2293C109.283 94.5509 116.872 95.8093 124.343 94.8487C131.98 94.244 139.357 91.7897 145.84 87.6965C152.747 83.2285 152.281 80.7694 158.031 76.1975C173.571 63.9192 195.102 67.4347 196.018 67.5386C207.396 69.5648 208.847 74.3791 220.744 75.4009C227.45 75.93 234.194 75.0875 240.566 72.9244C235.149 73.3585 229.697 72.9909 224.387 71.8334C219 70.6558 216.617 69.2531 211.005 67.3828C204.071 64.8483 196.806 63.3374 189.439 62.8975C180.303 62.3929 171.193 64.2787 163.003 68.3699C161.087 69.357 156.736 72.4742 148.016 78.7605C137.656 86.1725 137.552 86.6747 134.841 87.8177C127.296 91.0041 120.285 90.4673 113.189 89.9131C107.064 89.4263 101.026 88.1696 95.2139 86.1725C97.4215 88.1661 99.8764 89.8658 102.518 91.2293Z" fill="#D3B78D" stroke="#D3B78D" stroke-width="0.5" stroke-linecap="round" stroke-linejoin="round"/>
<path d="M111.823 78.2934C120.456 74.6393 121.233 73.6003 126.103 72.6651C134.356 71.1065 142.782 71.9551 152.745 72.9595C163.831 74.0679 163.572 75.055 169.563 75.055C179.595 75.055 180.148 72.3188 195.256 69.9982C205.14 68.6109 215.098 67.8129 225.076 67.6083C231.499 67.3832 236.921 67.3659 240.824 67.4005C237.923 68.1452 233.468 69.2708 227.925 70.5697C215.286 73.4964 212.506 73.8427 206.998 75.4879C198.52 77.9817 201.455 79.6095 193.357 82.415C183.131 85.7596 172.337 87.0024 161.621 86.069C149.534 84.9261 150.104 81.5318 138.466 81.0123C131.421 80.7005 128.969 81.7915 112.445 83.2636C105.124 83.9043 99.0456 84.268 94.9534 84.4758C98.9593 83.2462 104.985 81.1508 111.823 78.2934Z" fill="#F9EDB2" stroke="#F9EDB2" stroke-width="0.5" stroke-linecap="round" stroke-linejoin="round"/>
<path d="M103.78 78.3793C112.414 74.4829 113.208 73.3572 118.06 72.3874C126.331 70.6557 134.74 71.6081 144.703 72.6818C155.805 73.8768 155.546 74.9158 161.521 74.9331C171.553 74.9331 172.105 72.0064 187.214 69.53C197.088 68.0298 207.049 67.1794 217.034 66.9843C223.474 66.7245 228.896 66.7072 232.798 66.7419C229.897 67.5385 225.442 68.7507 219.9 70.2054C207.261 73.3226 204.463 73.6689 198.955 75.4007C190.494 78.085 193.43 79.8167 185.314 82.8993C175.143 86.4677 164.326 87.8024 153.595 86.8131C141.508 85.5835 142.061 81.9641 130.44 81.4099C123.396 81.0636 120.944 82.2412 104.419 83.7998C97.0982 84.4925 91.003 84.8908 86.928 85.0986C90.9339 83.6786 96.96 81.4446 103.78 78.3793Z" stroke="#EFD686" stroke-width="0.5" stroke-linecap="round" stroke-linejoin="round"/>
<path d="M127.987 118.955C127.445 118.956 126.909 118.845 126.412 118.627C125.916 118.41 125.47 118.091 125.103 117.691C124.742 117.292 124.465 116.824 124.29 116.315C124.115 115.806 124.045 115.266 124.085 114.729L127.883 64.9582L124.551 63.8845C123.329 63.4043 122.244 62.6278 121.395 61.6245C120.545 60.6212 119.956 59.4223 119.682 58.1351L119.06 55.1737C118.718 53.6096 118.659 51.9963 118.887 50.4114L121.425 32.7473C121.442 32.6449 121.495 32.5518 121.574 32.485C121.653 32.4183 121.754 32.3823 121.857 32.3836H124.862C124.976 32.3836 125.086 32.4292 125.167 32.5104C125.248 32.5916 125.293 32.7018 125.293 32.8166V51.5197C125.298 51.829 125.424 52.1241 125.643 52.3412C125.863 52.5583 126.159 52.68 126.467 52.68H127.486C127.743 52.68 127.989 52.5778 128.17 52.3959C128.351 52.2141 128.453 51.9674 128.453 51.7102L129.748 31.0502C129.757 30.9414 129.806 30.84 129.886 30.7662C129.966 30.6923 130.071 30.6515 130.18 30.6519H132.977C133.089 30.6518 133.196 30.695 133.276 30.7725C133.357 30.85 133.404 30.9557 133.409 31.0675L134.099 51.2599C134.097 51.416 134.126 51.571 134.184 51.7159C134.242 51.8608 134.328 51.9927 134.437 52.1038C134.546 52.215 134.677 52.3033 134.82 52.3636C134.964 52.4238 135.118 52.4549 135.273 52.4549H135.878C136.127 52.4549 136.366 52.3569 136.543 52.182C136.721 52.0071 136.823 51.7693 136.827 51.5197L137.415 33.059C137.415 32.9442 137.46 32.8341 137.541 32.7529C137.622 32.6717 137.732 32.6261 137.846 32.6261H140.108C140.211 32.6295 140.31 32.6698 140.386 32.7396C140.462 32.8095 140.51 32.9044 140.523 33.0071L143.233 50.1516C143.493 51.8314 143.405 53.5469 142.974 55.1911L142.128 58.4641C141.864 59.4601 141.381 60.3842 140.714 61.1691C140.048 61.9541 139.216 62.58 138.278 63.0013L134.376 64.7331L137.449 115.18C137.477 115.666 137.406 116.153 137.24 116.611C137.074 117.069 136.817 117.489 136.484 117.844C136.151 118.199 135.75 118.482 135.304 118.676C134.858 118.87 134.378 118.971 133.892 118.972L127.987 118.955Z" fill="#8C9998"/>
<path d="M132.979 31.0839L133.67 51.2763C133.67 51.7035 133.839 52.1131 134.14 52.4152C134.442 52.7172 134.85 52.8869 135.276 52.8869H135.88C136.239 52.8827 136.583 52.7401 136.84 52.4886C137.097 52.2371 137.248 51.8961 137.262 51.5361L137.849 33.0754H140.111L142.804 50.22C143.061 51.8413 142.979 53.4985 142.562 55.0862L141.613 58.342C141.384 59.2629 140.957 60.122 140.36 60.8583C139.763 61.5947 139.012 62.19 138.159 62.6021L133.981 64.4378L137.072 115.179C137.097 115.607 137.036 116.036 136.891 116.439C136.745 116.843 136.52 117.212 136.227 117.525C135.934 117.838 135.581 118.088 135.189 118.259C134.797 118.43 134.374 118.519 133.946 118.521H128.076C127.595 118.523 127.119 118.424 126.678 118.231C126.237 118.038 125.842 117.754 125.517 117.399C125.192 117.044 124.944 116.624 124.79 116.167C124.636 115.71 124.579 115.226 124.622 114.746L128.335 64.6283L124.674 63.468C123.526 63.0018 122.508 62.261 121.711 61.3102C120.913 60.3594 120.36 59.2275 120.098 58.0129L119.477 55.0689C119.149 53.5553 119.097 51.9948 119.321 50.4624L121.86 32.7983H124.864V51.5015C124.868 51.9256 125.04 52.3308 125.34 52.6291C125.641 52.9274 126.047 53.0947 126.47 53.0947H127.489C127.859 53.0947 128.215 52.9469 128.477 52.6838C128.74 52.4208 128.887 52.064 128.887 51.692L130.182 31.0666H132.979V31.0839ZM132.979 30.2007H130.217C129.996 30.2003 129.784 30.2843 129.624 30.4357C129.463 30.587 129.367 30.7941 129.353 31.0146L128.058 51.64C128.063 51.7142 128.053 51.7886 128.028 51.8587C128.004 51.9289 127.965 51.9933 127.915 52.0483C127.865 52.1032 127.805 52.1475 127.737 52.1785C127.67 52.2095 127.597 52.2266 127.523 52.2288H126.504C126.408 52.2311 126.311 52.214 126.221 52.1785C126.131 52.143 126.049 52.0898 125.98 52.022C125.911 51.9542 125.856 51.8733 125.819 51.7839C125.781 51.6945 125.762 51.5985 125.762 51.5015V32.8157C125.762 32.586 125.671 32.3658 125.509 32.2034C125.347 32.041 125.127 31.9498 124.898 31.9498H121.894C121.686 31.9513 121.484 32.027 121.326 32.1633C121.168 32.2997 121.063 32.4879 121.031 32.6944L118.492 50.3585C118.265 51.9897 118.323 53.6483 118.665 55.2594L119.304 58.2207C119.583 59.5686 120.19 60.8267 121.069 61.8839C121.948 62.941 123.074 63.7646 124.346 64.2819L127.402 65.269L123.655 114.694C123.61 115.292 123.689 115.894 123.886 116.461C124.083 117.028 124.395 117.548 124.802 117.988C125.209 118.429 125.702 118.78 126.25 119.021C126.799 119.262 127.391 119.386 127.989 119.387H133.86C134.404 119.385 134.941 119.271 135.44 119.054C135.939 118.837 136.388 118.52 136.761 118.123C137.138 117.725 137.429 117.254 137.617 116.739C137.804 116.223 137.883 115.674 137.849 115.127L134.792 64.992L138.418 63.3814C139.419 62.942 140.308 62.2803 141.017 61.4464C141.726 60.6124 142.236 59.6279 142.511 58.5671L143.357 55.294C143.803 53.5992 143.891 51.8297 143.616 50.0987L140.922 32.9542C140.893 32.7507 140.791 32.5649 140.635 32.4311C140.48 32.2973 140.281 32.2248 140.076 32.2269H137.814C137.703 32.2246 137.592 32.2442 137.489 32.2848C137.385 32.3253 137.291 32.3859 137.211 32.4631C137.131 32.5403 137.066 32.6326 137.022 32.7347C136.977 32.8368 136.953 32.9467 136.951 33.0581L136.433 51.5015C136.433 51.6393 136.378 51.7714 136.281 51.8688C136.184 51.9663 136.052 52.021 135.915 52.021H135.31C135.113 52.021 134.925 51.9425 134.785 51.8029C134.646 51.6632 134.568 51.4738 134.568 51.2763L133.877 31.0493C133.868 30.8257 133.773 30.6142 133.612 30.4592C133.452 30.3043 133.237 30.2178 133.014 30.218L132.979 30.2007Z" fill="#8C9998"/>
<path d="M200.749 37.544C201.82 39.6394 202.131 42.289 202.769 47.5882C203.23 51.8636 202.956 56.1865 201.958 60.3687C201.706 61.2961 201.259 62.1584 200.646 62.8971C200.019 63.6391 199.234 64.2309 198.349 64.6289L194.188 66.4819L197.279 117.223C197.302 117.651 197.238 118.08 197.091 118.482C196.943 118.885 196.716 119.253 196.422 119.564C196.127 119.875 195.773 120.123 195.38 120.292C194.987 120.462 194.564 120.548 194.136 120.548H188.231C187.751 120.549 187.277 120.451 186.838 120.259C186.398 120.067 186.004 119.785 185.679 119.432C185.354 119.078 185.106 118.661 184.951 118.206C184.796 117.751 184.737 117.269 184.777 116.79L188.611 66.6897L184.95 65.5121C183.831 64.9959 182.822 64.2666 181.98 63.3647C180.254 61.4424 179.459 58.8447 179.597 52.5065C179.753 44.7481 179.839 40.8516 182.067 36.9205C183.241 34.877 186.28 29.6124 191.011 29.4912C196.588 29.422 200.318 36.5569 200.749 37.544Z" fill="#8C9998" stroke="#8C9998" stroke-width="0.5" stroke-linecap="round" stroke-linejoin="round"/>
<path d="M163.56 29.4909C161.833 29.2485 152.267 55.9177 150.575 64.3341C150.508 64.5946 150.502 64.8672 150.558 65.1303C150.615 65.3934 150.731 65.6397 150.899 65.8498C151.066 66.0599 151.28 66.2279 151.524 66.3406C151.767 66.4532 152.034 66.5074 152.302 66.4989L155.203 67.105C156.495 67.3807 157.645 68.113 158.444 69.1684C159.243 70.2238 159.637 71.532 159.554 72.8545L156.705 116.357C156.664 116.836 156.723 117.318 156.879 117.773C157.034 118.227 157.282 118.645 157.607 118.998C157.931 119.352 158.326 119.634 158.765 119.826C159.205 120.018 159.679 120.116 160.158 120.114H166.012C166.447 120.127 166.879 120.049 167.283 119.885C167.686 119.722 168.051 119.476 168.354 119.163C168.658 118.851 168.893 118.478 169.046 118.07C169.198 117.661 169.265 117.225 169.241 116.789L166.15 66.0486L163.612 29.4909" fill="#8C9998"/>
<path d="M163.56 29.4909C161.833 29.2485 152.267 55.9177 150.575 64.3341C150.508 64.5946 150.502 64.8672 150.558 65.1303C150.615 65.3934 150.731 65.6397 150.899 65.8498C151.066 66.0599 151.28 66.2279 151.524 66.3406C151.767 66.4532 152.034 66.5074 152.302 66.4989L155.203 67.105C156.495 67.3807 157.645 68.113 158.444 69.1684C159.243 70.2238 159.637 71.532 159.554 72.8545L156.705 116.357C156.664 116.836 156.723 117.318 156.879 117.773C157.034 118.227 157.282 118.645 157.607 118.998C157.931 119.352 158.326 119.634 158.765 119.826C159.205 120.018 159.679 120.116 160.158 120.114H166.012C166.447 120.127 166.879 120.049 167.283 119.885C167.686 119.722 168.051 119.476 168.354 119.163C168.658 118.851 168.893 118.478 169.046 118.07C169.198 117.661 169.265 117.225 169.241 116.789L166.15 66.0486L163.612 29.4909" stroke="#8C9998" stroke-width="0.5" stroke-linecap="round" stroke-linejoin="round"/>
<path d="M120.665 54.9482C120.761 56.5745 121.285 58.1461 122.185 59.5028C123.169 60.9728 124.616 62.0702 126.294 62.62C126.002 62.0161 125.661 61.437 125.275 60.8882C124.692 60.098 124.026 59.3724 123.29 58.7235C122.182 57.6447 121.291 56.3632 120.665 54.9482Z" fill="white" stroke="white" stroke-width="0.25" stroke-miterlimit="10"/>
<path d="M198.833 40.0897C198.598 38.4705 197.943 36.9416 196.933 35.6563C196.377 34.9803 195.719 34.396 194.982 33.9246C194.243 33.4444 193.424 33.0986 192.565 32.9028C192.908 33.4585 193.294 33.9856 193.722 34.4787C194.374 35.2185 195.104 35.8861 195.897 36.4703C197.1 37.4747 198.097 38.704 198.833 40.0897Z" fill="white" stroke="white" stroke-width="0.25" stroke-miterlimit="10"/>
<path d="M129.179 66.7236L127.28 115.889" stroke="#B1B5B5" stroke-width="0.25" stroke-linecap="round" stroke-linejoin="round"/>
<path d="M131.061 66.7061L131.027 115.906" stroke="#B1B5B5" stroke-width="0.25" stroke-linecap="round" stroke-linejoin="round"/>
<path d="M133.185 66.7246L135.067 115.89" stroke="#B1B5B5" stroke-width="0.25" stroke-linecap="round" stroke-linejoin="round"/>
<path d="M160.936 68.8892L159.036 118.054" stroke="#B1B5B5" stroke-width="0.25" stroke-linecap="round" stroke-linejoin="round"/>
<path d="M162.814 68.8721L162.78 118.072" stroke="#B1B5B5" stroke-width="0.25" stroke-linecap="round" stroke-linejoin="round"/>
<path d="M164.938 68.8892L166.82 118.054" stroke="#B1B5B5" stroke-width="0.25" stroke-linecap="round" stroke-linejoin="round"/>
<path d="M189.058 68.9062L187.158 118.089" stroke="#B1B5B5" stroke-width="0.25" stroke-linecap="round" stroke-linejoin="round"/>
<path d="M190.959 68.8887L190.89 118.106" stroke="#B1B5B5" stroke-width="0.25" stroke-linecap="round" stroke-linejoin="round"/>
<path d="M193.082 68.9233L194.93 118.088" stroke="#B1B5B5" stroke-width="0.25" stroke-linecap="round" stroke-linejoin="round"/>
<path d="M137.641 106.278H123.897V108.633H137.641V106.278Z" fill="#DB7028" stroke="#DB7028" stroke-width="0.5" stroke-linecap="round" stroke-linejoin="round"/>
<path d="M169.183 106.279H156.682V108.634H169.183V106.279Z" fill="#FFDF5A" stroke="#FFDF5A" stroke-width="0.5" stroke-linecap="round" stroke-linejoin="round"/>
<path d="M197.297 106.278H184.778V108.633H197.297V106.278Z" fill="#99CCFF" stroke="#99CCFF" stroke-width="0.5" stroke-linecap="round" stroke-linejoin="round"/>
<path d="M163.834 118.487C164.45 118.583 165.08 118.54 165.678 118.36C166.275 118.181 166.825 117.869 167.287 117.448C167.84 116.773 167.84 115.716 167.84 113.985C167.846 112.827 167.777 111.67 167.632 110.521C167.494 111.179 167.253 112.253 166.994 113.552C166.904 114.527 166.653 115.481 166.251 116.374C165.697 117.325 164.848 118.067 163.834 118.487Z" fill="white" stroke="white" stroke-width="0.25" stroke-miterlimit="10"/>
<defs>
<filter id="filter0_d" x="78.0437" y="137.196" width="176" height="49" filterUnits="userSpaceOnUse" color-interpolation-filters="sRGB">
<feFlood flood-opacity="0" result="BackgroundImageFix"/>
<feColorMatrix in="SourceAlpha" type="matrix" values="0 0 0 0 0 0 0 0 0 0 0 0 0 0 0 0 0 0 127 0"/>
<feOffset dy="4"/>
<feGaussianBlur stdDeviation="2"/>
<feColorMatrix type="matrix" values="0 0 0 0 0 0 0 0 0 0 0 0 0 0 0 0 0 0 0.25 0"/>
<feBlend mode="normal" in2="BackgroundImageFix" result="effect1_dropShadow"/>
<feBlend mode="normal" in="SourceGraphic" in2="effect1_dropShadow" result="shape"/>
</filter>
</defs>
</svg>
