<svg width="235" height="160" viewBox="0 0 235 160" fill="none" xmlns="http://www.w3.org/2000/svg">
<g filter="url(#filter0_d)">
<rect x="32.8936" y="110.19" width="168" height="41" rx="10" fill="#7C8294"/>
<path d="M46.622 136.044C48.458 136.044 50.114 135.252 51.014 133.902L49.358 132.786C48.728 133.704 47.792 134.118 46.73 134.118C45.092 134.118 44.174 133.2 44.174 131.706C44.174 129.582 45.578 128.106 47.486 128.106C48.62 128.106 49.43 128.538 49.88 129.438L51.806 128.448C51.032 126.954 49.61 126.198 47.666 126.198C44.282 126.198 41.906 128.592 41.906 131.814C41.906 134.352 43.742 136.044 46.622 136.044ZM56.8864 136.044C60.2164 136.044 62.6104 133.632 62.6104 130.41C62.6104 127.854 60.7744 126.198 57.9304 126.198C54.6004 126.198 52.2244 128.592 52.2244 131.814C52.2244 134.352 54.0604 136.044 56.8864 136.044ZM57.0304 134.118C55.4104 134.118 54.4924 133.2 54.4924 131.706C54.4924 129.582 55.8964 128.106 57.8044 128.106C59.4244 128.106 60.3424 129.024 60.3424 130.518C60.3424 132.642 58.9384 134.118 57.0304 134.118ZM77.5239 126.198C75.9759 126.198 74.6979 126.738 73.7259 127.782C73.2039 126.738 72.1239 126.198 70.7379 126.198C69.5319 126.198 68.4339 126.558 67.5879 127.35L67.7859 126.306H65.6439L63.7359 135.918H65.9859L66.9939 130.932C67.3719 129.042 68.3979 128.16 69.9459 128.16C71.1879 128.16 71.7819 128.772 71.7819 129.888C71.7819 130.122 71.7639 130.374 71.7099 130.644L70.6479 135.918H72.8979L73.9059 130.914C74.2839 129.042 75.3099 128.16 76.8579 128.16C78.0999 128.16 78.6939 128.772 78.6939 129.888C78.6939 130.122 78.6759 130.374 78.6219 130.644L77.5599 135.918H79.8099L80.8719 130.59C80.9619 130.158 80.9979 129.762 80.9979 129.402C80.9979 127.314 79.6479 126.198 77.5239 126.198ZM96.4731 126.198C94.9251 126.198 93.6471 126.738 92.6751 127.782C92.1531 126.738 91.0731 126.198 89.6871 126.198C88.4811 126.198 87.3831 126.558 86.5371 127.35L86.7351 126.306H84.5931L82.6851 135.918H84.9351L85.9431 130.932C86.3211 129.042 87.3471 128.16 88.8951 128.16C90.1371 128.16 90.7311 128.772 90.7311 129.888C90.7311 130.122 90.7131 130.374 90.6591 130.644L89.5971 135.918H91.8471L92.8551 130.914C93.2331 129.042 94.2591 128.16 95.8071 128.16C97.0491 128.16 97.6431 128.772 97.6431 129.888C97.6431 130.122 97.6251 130.374 97.5711 130.644L96.5091 135.918H98.7591L99.8211 130.59C99.9111 130.158 99.9471 129.762 99.9471 129.402C99.9471 127.314 98.5971 126.198 96.4731 126.198ZM110.616 126.306L109.608 131.292C109.23 133.164 108.096 134.064 106.494 134.064C105.216 134.064 104.586 133.434 104.586 132.318C104.586 132.084 104.604 131.85 104.658 131.58L105.72 126.306H103.47L102.408 131.634C102.318 132.048 102.282 132.426 102.282 132.786C102.282 134.892 103.686 136.044 105.756 136.044C106.998 136.044 108.132 135.666 109.014 134.856L108.798 135.918H110.94L112.866 126.306H110.616ZM121.032 126.198C119.754 126.198 118.602 126.576 117.72 127.368L117.936 126.306H115.794L113.886 135.918H116.136L117.144 130.932C117.522 129.06 118.656 128.16 120.294 128.16C121.608 128.16 122.22 128.79 122.22 129.906C122.22 130.122 122.202 130.374 122.148 130.644L121.104 135.918H123.354L124.416 130.59C124.488 130.176 124.542 129.798 124.542 129.438C124.542 127.332 123.156 126.198 121.032 126.198ZM129.755 124.722C130.673 124.722 131.285 124.11 131.285 123.228C131.285 122.562 130.745 122.022 129.935 122.022C129.017 122.022 128.405 122.652 128.405 123.462C128.405 124.146 128.945 124.722 129.755 124.722ZM126.209 135.918H128.459L130.367 126.306H128.117L126.209 135.918ZM135.48 128.178H138.072L138.432 126.378H135.84L136.29 124.182H134.04L133.608 126.378H132.042L131.682 128.178H133.248L132.33 132.714C132.276 132.984 132.258 133.236 132.258 133.47C132.258 135.09 133.374 136.044 135.012 136.044C135.804 136.044 136.65 135.9 137.334 135.468L136.938 133.812C136.56 134.064 136.11 134.19 135.678 134.19C134.886 134.19 134.544 133.776 134.544 133.11C134.544 132.984 134.562 132.84 134.58 132.696L135.48 128.178ZM147.541 126.306L143.095 133.434L141.475 126.306H139.225L141.493 135.882L141.187 136.35C140.575 137.304 140.053 137.664 139.297 137.664C138.631 137.664 138.109 137.412 137.713 137.052L136.597 138.69C137.137 139.212 138.163 139.536 139.117 139.536C140.791 139.536 141.835 138.87 143.167 136.764L149.791 126.306H147.541ZM159.052 136.044C160.888 136.044 162.544 135.252 163.444 133.902L161.788 132.786C161.158 133.704 160.222 134.118 159.16 134.118C157.522 134.118 156.604 133.2 156.604 131.706C156.604 129.582 158.008 128.106 159.916 128.106C161.05 128.106 161.86 128.538 162.31 129.438L164.236 128.448C163.462 126.954 162.04 126.198 160.096 126.198C156.712 126.198 154.336 128.592 154.336 131.814C154.336 134.352 156.172 136.044 159.052 136.044ZM173.618 126.306L173.348 127.728C172.7 126.702 171.566 126.198 170.072 126.198C166.994 126.198 164.654 128.538 164.654 131.814C164.654 134.478 166.526 136.044 168.884 136.044C170.144 136.044 171.206 135.648 172.016 134.928L171.818 135.918H173.96L175.868 126.306H173.618ZM169.46 134.118C167.84 134.118 166.922 133.2 166.922 131.706C166.922 129.582 168.326 128.106 170.234 128.106C171.854 128.106 172.772 129.024 172.772 130.518C172.772 132.642 171.368 134.118 169.46 134.118ZM183.114 124.254C183.6 124.254 183.996 124.398 184.302 124.65L185.22 123.012C184.716 122.634 183.942 122.436 183.114 122.436C180.954 122.436 179.658 123.678 179.244 125.694L179.1 126.378H177.534L177.174 128.178H178.74L177.192 135.918H179.442L180.99 128.178H183.564L183.924 126.378H181.296L181.404 125.856C181.638 124.776 182.16 124.254 183.114 124.254ZM193.47 130.41C193.47 127.782 191.706 126.198 189.042 126.198C185.82 126.198 183.498 128.556 183.498 131.814C183.498 134.37 185.334 136.044 188.232 136.044C189.708 136.044 191.166 135.612 192.174 134.712L191.238 133.146C190.572 133.776 189.564 134.136 188.466 134.136C186.612 134.136 185.73 133.308 185.694 131.778H193.326C193.416 131.364 193.47 130.896 193.47 130.41ZM188.934 127.998C190.428 127.998 191.418 128.808 191.4 130.284H185.892C186.306 128.88 187.404 127.998 188.934 127.998Z" fill="white"/>
</g>
<path d="M80.3729 90.4767C79.8332 90.4735 79.2999 90.3589 78.8061 90.1403C78.3124 89.9216 77.8687 89.6034 77.5027 89.2055C77.1368 88.8076 76.8563 88.3385 76.6787 87.8273C76.5012 87.3161 76.4303 86.7737 76.4706 86.2339L80.2693 36.4801L76.9195 35.4064C75.6978 34.9206 74.6144 34.1403 73.765 33.1344C72.9157 32.1285 72.3268 30.9282 72.0503 29.6396L71.4287 26.6956C71.0869 25.1313 71.0284 23.5182 71.256 21.9332L73.7942 4.26914C73.8104 4.16501 73.8624 4.06985 73.9413 4.00024C74.0202 3.93062 74.1209 3.89096 74.2259 3.88815L77.2476 3.88815C77.3621 3.88815 77.4719 3.93377 77.5528 4.01496C77.6338 4.09615 77.6793 4.20627 77.6793 4.3211V23.0242C77.6792 23.3336 77.8006 23.6305 78.017 23.8509C78.2335 24.0712 78.5277 24.1973 78.8361 24.2018H79.8722C80.1256 24.1973 80.3671 24.0931 80.5448 23.9117C80.7224 23.7304 80.8219 23.4863 80.8218 23.232L82.0996 2.57201C82.1083 2.46329 82.1576 2.36187 82.2376 2.28802C82.3176 2.21418 82.4225 2.17335 82.5313 2.1737L85.294 2.1737C85.3498 2.17136 85.4055 2.18039 85.4578 2.20022C85.5101 2.22006 85.5579 2.25031 85.5982 2.28914C85.6385 2.32797 85.6706 2.37458 85.6925 2.42617C85.7144 2.47775 85.7257 2.53326 85.7256 2.58933L86.4163 22.7645C86.414 22.9206 86.4427 23.0756 86.5007 23.2204C86.5586 23.3653 86.6448 23.4972 86.754 23.6084C86.8633 23.7196 86.9935 23.8078 87.1371 23.8681C87.2807 23.9284 87.4348 23.9594 87.5904 23.9594H88.1948C88.3172 23.9617 88.4389 23.9398 88.5529 23.8949C88.6669 23.85 88.771 23.783 88.8592 23.6978C88.9474 23.6125 89.018 23.5107 89.0669 23.3981C89.1159 23.2855 89.1422 23.1644 89.1445 23.0415L89.7315 4.56354C89.736 4.45175 89.7834 4.34603 89.8639 4.26854C89.9444 4.19106 90.0516 4.14783 90.1632 4.14792L92.4597 4.14792C92.5622 4.14996 92.661 4.18716 92.7395 4.25332C92.8181 4.31949 92.8716 4.41063 92.8914 4.51159L95.585 21.6734C95.8501 23.3521 95.7678 25.0675 95.3432 26.7129L94.4799 29.9686C94.2232 30.9683 93.7431 31.8962 93.076 32.6823C92.4089 33.4684 91.5723 34.092 90.6294 34.5059L86.7271 36.2376L89.8006 86.6668C89.8312 87.1547 89.762 87.6437 89.5972 88.1038C89.4325 88.5639 89.1756 88.9853 88.8424 89.3421C88.5093 89.699 88.1069 89.9837 87.66 90.1788C87.213 90.3739 86.731 90.4753 86.2436 90.4767H80.3729Z" fill="#E8EAEA"/>
<path d="M85.2773 2.60632L85.968 22.7814C85.968 23.2086 86.1372 23.6182 86.4383 23.9203C86.7395 24.2223 87.1479 24.392 87.5738 24.392H88.1782C88.3573 24.3943 88.5351 24.3612 88.7015 24.2945C88.8679 24.2279 89.0195 24.129 89.1478 24.0036C89.2761 23.8781 89.3785 23.7286 89.4491 23.5635C89.5198 23.3983 89.5573 23.2209 89.5595 23.0412L90.1466 4.58053H92.4603L95.154 21.7424C95.4111 23.3579 95.3288 25.0096 94.9122 26.5913L94.0662 29.8644C93.8215 30.8122 93.3647 31.6916 92.7304 32.4358C92.0961 33.1799 91.301 33.7693 90.4056 34.1592L86.227 35.891L89.3178 86.6319C89.3462 87.0606 89.2864 87.4907 89.1421 87.8953C88.9978 88.2999 88.7721 88.6704 88.479 88.9839C88.1859 89.2973 87.8317 89.547 87.4384 89.7173C87.045 89.8877 86.6209 89.9751 86.1925 89.9742H80.3736C79.8927 89.9761 79.4167 89.8773 78.9761 89.6841C78.5355 89.4909 78.14 89.2075 77.8149 88.8521C77.4898 88.4967 77.2422 88.0771 77.0882 87.6203C76.9341 87.1634 76.8769 86.6793 76.9202 86.1989L80.7534 36.0988L77.0929 34.9212C75.9433 34.4618 74.9244 33.7252 74.1263 32.7768C73.3282 31.8283 72.7755 30.6971 72.5171 29.4834L71.7401 26.5913C71.4701 25.0852 71.4701 23.5429 71.7401 22.0368L74.2784 4.37272L77.3001 4.37272V23.0758C77.3 23.5 77.4669 23.9071 77.7643 24.2086C78.0617 24.5101 78.4657 24.6818 78.8886 24.6864H79.9246C80.2926 24.6818 80.6439 24.532 80.9025 24.2695C81.161 24.0069 81.306 23.6527 81.306 23.2837L82.601 2.65827L85.3637 2.65827L85.2773 2.60632ZM85.3637 1.79238L82.601 1.79238C82.3853 1.79198 82.1776 1.87421 82.0203 2.02228C81.863 2.17035 81.7681 2.37307 81.7549 2.589L80.3736 23.1798C80.3783 23.3285 80.3251 23.4732 80.2251 23.5831C80.1252 23.6931 79.9864 23.7596 79.8383 23.7686H78.8023C78.7056 23.7686 78.6098 23.7492 78.5207 23.7116C78.4316 23.674 78.3509 23.6188 78.2833 23.5494C78.2157 23.4801 78.1626 23.3978 78.1272 23.3076C78.0918 23.2173 78.0748 23.1209 78.0771 23.0239V4.32077C78.0727 4.09251 77.9803 3.87483 77.8193 3.7134C77.6584 3.55197 77.4413 3.45932 77.2137 3.45488L74.192 3.45488C73.9855 3.45699 73.7866 3.53327 73.6314 3.6699C73.4761 3.80653 73.3749 3.99444 73.3459 4.19955L70.8077 21.8636C70.5665 23.4992 70.6191 25.1649 70.9631 26.7818L71.602 29.7258C71.8948 31.0885 72.5219 32.3563 73.4264 33.4147C74.3308 34.473 75.4842 35.2884 76.7821 35.787L79.8556 36.7742L76.0741 86.1989C76.0267 86.7961 76.1024 87.3967 76.2964 87.9633C76.4905 88.5299 76.7988 89.0503 77.2021 89.4922C77.6055 89.9341 78.0952 90.2879 78.6408 90.5317C79.1864 90.7756 79.7763 90.9041 80.3736 90.9093H86.2443C86.7906 90.9105 87.3313 90.7991 87.833 90.582C88.3346 90.3649 88.7864 90.0468 89.1603 89.6473C89.5343 89.2479 89.8225 88.7757 90.007 88.2599C90.1915 87.7442 90.2684 87.1959 90.2329 86.6492L87.1767 36.4278L90.8027 34.8346C91.8037 34.3951 92.6921 33.7335 93.401 32.8995C94.1099 32.0655 94.6207 31.0811 94.895 30.0203L95.7583 26.7472C96.2038 25.0523 96.292 23.2829 96.0173 21.5519L93.3064 4.39004C93.2738 4.1881 93.1709 4.00427 93.0161 3.87113C92.8612 3.73799 92.6643 3.66415 92.4603 3.66269L90.1984 3.66269C89.9737 3.66694 89.7591 3.75719 89.5986 3.91495C89.4381 4.07271 89.3438 4.28604 89.3351 4.51126L88.748 22.9719C88.748 23.0394 88.7345 23.1061 88.7083 23.1682C88.682 23.2303 88.6436 23.2865 88.5953 23.3333C88.5469 23.3802 88.4897 23.4168 88.4269 23.441C88.3641 23.4652 88.2972 23.4765 88.23 23.4742H87.6256C87.5281 23.4742 87.4316 23.4549 87.3415 23.4175C87.2514 23.3801 87.1696 23.3252 87.1006 23.2561C87.0317 23.1869 86.977 23.1048 86.9397 23.0145C86.9024 22.9241 86.8832 22.8273 86.8832 22.7295L86.1925 2.51973C86.1836 2.29613 86.0887 2.08469 85.9277 1.92972C85.7668 1.77476 85.5522 1.6883 85.3291 1.68848L85.3637 1.79238Z" fill="#E8EAEA"/>
<path d="M153.087 9.06504C154.157 11.1432 154.468 13.7928 155.107 19.092C155.577 23.3663 155.309 27.6899 154.313 31.8725C154.065 32.8073 153.613 33.6749 152.989 34.4119C152.364 35.149 151.584 35.7368 150.704 36.1326L146.525 37.9683L149.616 88.7092C149.642 89.1374 149.58 89.5664 149.435 89.9698C149.29 90.3733 149.064 90.7429 148.772 91.0558C148.479 91.3687 148.126 91.6184 147.734 91.7896C147.341 91.9608 146.919 92.0499 146.491 92.0515H140.62C140.139 92.0535 139.663 91.9547 139.223 91.7615C138.782 91.5682 138.387 91.2849 138.061 90.9295C137.736 90.5741 137.489 90.1545 137.335 89.6976C137.181 89.2407 137.123 88.7566 137.167 88.2763L141 38.1761L137.357 36.9985C136.236 36.4937 135.231 35.7627 134.404 34.8511C132.677 32.9462 131.866 30.3312 132.004 24.0102C132.159 16.2346 132.246 12.3554 134.473 8.42429C135.63 6.45007 138.652 1.25476 143.366 1.08158C148.925 0.943039 152.586 8.07793 153.087 9.06504Z" fill="#E8EAEA" stroke="#E8EAEA" stroke-width="0.5" stroke-linecap="round" stroke-linejoin="round"/>
<path d="M115.892 0.995295C114.166 0.752847 104.617 27.4221 102.908 35.8385C102.855 36.0986 102.859 36.3673 102.921 36.6255C102.982 36.8837 103.099 37.1253 103.264 37.3333C103.428 37.5412 103.636 37.7105 103.873 37.8293C104.11 37.948 104.37 38.0133 104.634 38.0206L107.535 38.6267C108.831 38.8957 109.986 39.6263 110.785 40.6833C111.585 41.7403 111.977 43.0522 111.886 44.3762L109.037 87.8436C108.994 88.324 109.051 88.8081 109.205 89.2649C109.36 89.7218 109.607 90.1414 109.932 90.4968C110.257 90.8522 110.653 91.1356 111.093 91.3288C111.534 91.522 112.01 91.6208 112.491 91.6189H118.362C118.789 91.6173 119.212 91.5282 119.604 91.3569C119.996 91.1857 120.35 90.936 120.642 90.6231C120.935 90.3102 121.161 89.9407 121.306 89.5372C121.451 89.1337 121.513 88.7047 121.487 88.2765L118.362 37.6222L115.823 1.06456" fill="#E8EAEA"/>
<path d="M115.892 0.995295C114.166 0.752847 104.617 27.4221 102.908 35.8385C102.855 36.0986 102.859 36.3673 102.921 36.6255C102.982 36.8837 103.099 37.1253 103.264 37.3333C103.428 37.5412 103.636 37.7105 103.873 37.8293C104.11 37.948 104.37 38.0133 104.634 38.0206L107.535 38.6267C108.831 38.8957 109.986 39.6263 110.785 40.6833C111.585 41.7404 111.977 43.0522 111.886 44.3762L109.037 87.8436C108.994 88.3239 109.051 88.8081 109.205 89.2649C109.36 89.7218 109.607 90.1414 109.932 90.4968C110.257 90.8522 110.653 91.1356 111.093 91.3288C111.534 91.522 112.01 91.6208 112.491 91.6189H118.362C118.789 91.6173 119.212 91.5282 119.604 91.3569C119.996 91.1857 120.35 90.936 120.642 90.6231C120.935 90.3102 121.161 89.9407 121.306 89.5372C121.451 89.1337 121.513 88.7047 121.487 88.2765L118.362 37.6222L115.823 1.06456" stroke="#E8EAEA" stroke-width="0.5" stroke-linecap="round" stroke-linejoin="round"/>
<path d="M53.3675 64.2229C60.133 67.5445 67.7213 68.8029 75.1927 67.8423C82.8299 67.2377 90.2067 64.7834 96.6899 60.6901C103.597 56.2221 103.13 53.763 108.88 49.1911C124.42 36.9129 145.952 40.4284 146.867 40.5323C158.246 42.5585 159.697 47.3728 171.593 48.3945C178.3 48.9237 185.044 48.0812 191.416 45.9181C185.999 46.3521 180.547 45.9845 175.237 44.8271C169.849 43.6495 167.467 42.2467 161.855 40.3764C154.921 37.842 147.656 36.3311 140.289 35.8911C131.153 35.3865 122.043 37.2723 113.853 41.3635C111.937 42.3506 107.585 45.4678 98.8656 51.7542C88.5055 59.1661 88.4018 59.6684 85.691 60.8113C78.1454 63.9978 71.135 63.4609 64.0383 62.9068C57.9142 62.4199 51.8753 61.1632 46.0636 59.1661C48.2712 61.1598 50.7261 62.8594 53.3675 64.2229Z" fill="#D3B78D" stroke="#D3B78D" stroke-width="0.5" stroke-linecap="round" stroke-linejoin="round"/>
<path d="M62.6728 51.287C71.3062 47.633 72.0832 46.5939 76.9525 45.6588C85.206 44.1002 93.6322 44.9487 103.595 45.9532C114.68 47.0615 114.421 48.0486 120.413 48.0486C130.445 48.0486 130.998 45.3124 146.106 42.9918C155.99 41.6046 165.948 40.8066 175.926 40.602C182.349 40.3769 187.771 40.3595 191.673 40.3942C188.772 41.1388 184.318 42.2645 178.775 43.5633C166.136 46.49 163.356 46.8364 157.848 48.4816C149.37 50.9753 152.305 52.6032 144.207 55.4086C133.98 58.7533 123.186 59.9961 112.47 59.0627C100.384 57.9197 100.953 54.5254 89.3155 54.0059C82.2706 53.6942 79.8188 54.7852 63.2944 56.2572C55.9733 56.898 49.8953 57.2616 45.8031 57.4694C49.809 56.2399 55.8351 54.1444 62.6728 51.287Z" fill="#F9EDB2" stroke="#F9EDB2" stroke-width="0.5" stroke-linecap="round" stroke-linejoin="round"/>
<path d="M54.6302 51.373C63.2637 47.4765 64.0579 46.3509 68.9099 45.3811C77.1807 43.6493 85.5897 44.6018 95.5526 45.6755C106.655 46.8704 106.396 47.9095 112.371 47.9268C122.403 47.9268 122.955 45.0001 138.064 42.5237C147.937 41.0235 157.899 40.1731 167.883 39.978C174.324 39.7182 179.746 39.7009 183.648 39.7355C180.747 40.5321 176.292 41.7444 170.75 43.199C158.11 46.3162 155.313 46.6626 149.805 48.3944C141.344 51.0786 144.28 52.8104 136.164 55.8929C125.993 59.4613 115.176 60.796 104.445 59.8067C92.3583 58.5772 92.9108 54.9578 81.2902 54.4036C74.2454 54.0572 71.7935 55.2349 55.2691 56.7934C47.948 57.4862 41.8528 57.8845 37.7778 58.0923C41.7837 56.6722 47.8099 54.4382 54.6302 51.373Z" stroke="#EFD686" stroke-width="0.5" stroke-linecap="round" stroke-linejoin="round"/>
<path d="M78.8367 91.9485C78.2949 91.9501 77.7587 91.8385 77.2623 91.6209C76.7658 91.4032 76.32 91.0843 75.9532 90.6843C75.5918 90.286 75.3151 89.818 75.1399 89.3088C74.9648 88.7997 74.8949 88.2601 74.9344 87.723L78.7331 37.9519L75.4006 36.8782C74.1785 36.398 73.0942 35.6215 72.2445 34.6182C71.3947 33.6148 70.8062 32.416 70.5314 31.1287L69.9098 28.1674C69.5676 26.6032 69.5091 24.99 69.7371 23.405L72.2753 5.74095C72.2919 5.63851 72.3446 5.54543 72.4238 5.47868C72.503 5.41193 72.6035 5.37595 72.707 5.37728L75.7114 5.37728C75.8259 5.37728 75.9357 5.4229 76.0167 5.50409C76.0976 5.58528 76.1431 5.6954 76.1431 5.81023V24.5134C76.1477 24.8227 76.2734 25.1178 76.4931 25.3349C76.7128 25.552 77.0088 25.6737 77.3173 25.6736H78.336C78.5925 25.6736 78.8384 25.5715 79.0197 25.3896C79.2011 25.2077 79.303 24.9611 79.303 24.7038L80.598 4.04382C80.6067 3.9351 80.6559 3.83368 80.736 3.75984C80.816 3.68599 80.9209 3.64516 81.0296 3.64551L83.8268 3.64551C83.9384 3.64542 84.0457 3.68865 84.1262 3.76614C84.2066 3.84362 84.2541 3.94934 84.2585 4.06114L84.9492 24.2536C84.9469 24.4097 84.9756 24.5647 85.0336 24.7096C85.0916 24.8544 85.1777 24.9863 85.2869 25.0975C85.3962 25.2087 85.5264 25.297 85.67 25.3572C85.8136 25.4175 85.9677 25.4485 86.1233 25.4485H86.7277C86.9766 25.4486 87.2156 25.3506 87.3932 25.1757C87.5708 25.0008 87.6728 24.763 87.6773 24.5134L88.2644 6.05267C88.2644 5.93785 88.3099 5.82773 88.3909 5.74654C88.4718 5.66534 88.5816 5.61973 88.6961 5.61973L90.9581 5.61973C91.0611 5.62313 91.1596 5.66341 91.2356 5.73329C91.3116 5.80317 91.3601 5.89804 91.3724 6.00072L94.0833 23.1453C94.3433 24.8251 94.2551 26.5406 93.8243 28.1847L92.9783 31.4578C92.7135 32.4537 92.2304 33.3779 91.5643 34.1628C90.8981 34.9477 90.0657 35.5737 89.1278 35.995L85.2255 37.7268L88.299 88.1733C88.3271 88.6598 88.2561 89.1469 88.0902 89.6049C87.9244 90.063 87.6671 90.4823 87.3342 90.8372C87.0013 91.1922 86.5997 91.4753 86.154 91.6694C85.7083 91.8634 85.2279 91.9643 84.742 91.9658L78.8367 91.9485Z" fill="#8C9998"/>
<path d="M83.8292 4.07754L84.5199 24.27C84.5199 24.6971 84.6891 25.1068 84.9902 25.4088C85.2914 25.7109 85.6998 25.8805 86.1257 25.8805H86.73C87.0892 25.8763 87.4329 25.7337 87.6901 25.4823C87.9472 25.2308 88.0981 24.8897 88.1114 24.5298L88.6985 6.06907H90.9604L93.654 23.2136C93.9111 24.8349 93.8287 26.4922 93.4123 28.0799L92.4626 31.3356C92.2343 32.2565 91.8066 33.1157 91.2097 33.852C90.6128 34.5883 89.8615 35.1837 89.0093 35.5958L84.8307 37.4314L87.9214 88.1723C87.9473 88.6005 87.8857 89.0295 87.7405 89.433C87.5953 89.8365 87.3695 90.206 87.0769 90.5189C86.7843 90.8318 86.4311 91.0815 86.0389 91.2527C85.6468 91.424 85.2239 91.5131 84.7961 91.5147H78.9254C78.4446 91.5166 77.9685 91.4178 77.5279 91.2246C77.0873 91.0314 76.6918 90.748 76.3667 90.3926C76.0416 90.0372 75.7941 89.6176 75.6401 89.1608C75.486 88.7039 75.4288 88.2197 75.4721 87.7394L79.1844 37.6219L75.5239 36.4617C74.3755 35.9955 73.3582 35.2547 72.5607 34.3039C71.7632 33.3531 71.2096 32.2211 70.9481 31.0066L70.3265 28.0626C69.9991 26.5489 69.9465 24.9884 70.1711 23.4561L72.7094 5.79199L75.7138 5.79199V24.4951C75.7184 24.9193 75.8895 25.3245 76.1902 25.6228C76.4908 25.9211 76.8967 26.0884 77.3196 26.0883H78.3384C78.7093 26.0883 79.065 25.9406 79.3273 25.6775C79.5896 25.4144 79.737 25.0576 79.737 24.6856L81.032 4.06022H83.8292V4.07754ZM83.8292 3.19434L81.0665 3.19434C80.8462 3.19394 80.6341 3.278 80.4736 3.42931C80.3131 3.58063 80.2164 3.78774 80.2032 4.00827L78.9082 24.6337C78.9128 24.7079 78.9025 24.7822 78.878 24.8524C78.8534 24.9225 78.815 24.987 78.765 25.0419C78.7151 25.0968 78.6546 25.1411 78.5872 25.1722C78.5199 25.2032 78.447 25.2203 78.3729 25.2225H77.3541C77.2575 25.2248 77.1613 25.2077 77.0713 25.1722C76.9813 25.1366 76.8993 25.0834 76.8302 25.0156C76.761 24.9479 76.706 24.8669 76.6685 24.7775C76.631 24.6881 76.6117 24.5921 76.6117 24.4951V5.80931C76.6117 5.57966 76.5207 5.35942 76.3588 5.19704C76.1969 5.03465 75.9773 4.94343 75.7483 4.94343L72.7439 4.94343C72.5354 4.94494 72.3342 5.02061 72.1761 5.15697C72.018 5.29333 71.9133 5.48154 71.8806 5.68809L69.3423 23.3521C69.1147 24.9834 69.1731 26.642 69.515 28.2531L70.1539 31.2144C70.4333 32.5623 71.0395 33.8204 71.9189 34.8775C72.7982 35.9347 73.9237 36.7583 75.1958 37.2756L78.252 38.2627L74.5051 87.6875C74.46 88.2861 74.5385 88.8877 74.7358 89.4546C74.9331 90.0215 75.2449 90.5414 75.6517 90.9819C76.0584 91.4224 76.5515 91.774 77.0999 92.0147C77.6484 92.2553 78.2404 92.3799 78.8391 92.3805H84.7098C85.2536 92.3783 85.7912 92.2651 86.2899 92.0477C86.7886 91.8304 87.238 91.5135 87.6106 91.1163C87.9879 90.719 88.2793 90.2478 88.4665 89.7323C88.6537 89.2168 88.7327 88.668 88.6985 88.1204L85.6422 37.9856L89.2682 36.3751C90.2692 35.9356 91.1576 35.274 91.8665 34.44C92.5754 33.606 93.0862 32.6215 93.3605 31.5607L94.2066 28.2877C94.6525 26.5929 94.7408 24.8234 94.4656 23.0924L91.772 5.94785C91.7427 5.7444 91.6408 5.55853 91.4852 5.42475C91.3296 5.29098 91.1308 5.2184 90.9259 5.22051H88.6639C88.5528 5.21821 88.4423 5.23789 88.3388 5.27843C88.2353 5.31896 88.1407 5.37955 88.0605 5.45675C87.9804 5.53394 87.9161 5.62622 87.8715 5.72831C87.8269 5.83041 87.8028 5.94032 87.8006 6.05176L87.2826 24.4951C87.2826 24.6329 87.228 24.7651 87.1308 24.8625C87.0337 24.9599 86.9019 25.0147 86.7646 25.0147H86.1602C85.9633 25.0147 85.7745 24.9362 85.6352 24.7965C85.496 24.6569 85.4178 24.4675 85.4178 24.27L84.7271 4.0429C84.7182 3.81931 84.6233 3.60787 84.4623 3.4529C84.3014 3.29793 84.0869 3.21147 83.8637 3.21165L83.8292 3.19434Z" fill="#8C9998"/>
<path d="M151.599 10.5376C152.67 12.6331 152.981 15.2827 153.619 20.5819C154.08 24.8572 153.805 29.1801 152.808 33.3624C152.556 34.2898 152.109 35.1521 151.496 35.8907C150.869 36.6328 150.084 37.2245 149.199 37.6225L145.038 39.4755L148.129 90.2164C148.152 90.6446 148.088 91.0732 147.941 91.4758C147.793 91.8784 147.566 92.2466 147.271 92.5579C146.977 92.8691 146.623 93.1169 146.23 93.286C145.837 93.4552 145.414 93.542 144.986 93.5414H139.081C138.601 93.5431 138.127 93.4448 137.688 93.2526C137.248 93.0604 136.854 92.7787 136.529 92.4252C136.204 92.0717 135.956 91.6543 135.801 91.1995C135.646 90.7447 135.587 90.2624 135.627 89.7835L139.461 39.6833L135.8 38.5057C134.681 37.9895 133.672 37.2602 132.83 36.3583C131.104 34.4361 130.309 31.8384 130.447 25.5001C130.603 17.7418 130.689 13.8453 132.916 9.91418C134.091 7.87069 137.13 2.6061 141.861 2.48488C147.438 2.41561 151.168 9.5505 151.599 10.5376Z" fill="#8C9998" stroke="#8C9998" stroke-width="0.5" stroke-linecap="round" stroke-linejoin="round"/>
<path d="M114.41 2.48455C112.683 2.2421 103.117 28.9114 101.425 37.3278C101.358 37.5883 101.352 37.8608 101.408 38.1239C101.464 38.387 101.581 38.6334 101.748 38.8434C101.916 39.0535 102.13 39.2216 102.374 39.3342C102.617 39.4469 102.884 39.5011 103.152 39.4925L106.053 40.0986C107.345 40.3743 108.495 41.1066 109.294 42.1621C110.093 43.2175 110.487 44.5257 110.404 45.8481L107.555 89.3502C107.514 89.8292 107.573 90.3114 107.728 90.7662C107.884 91.221 108.132 91.6385 108.456 91.9919C108.781 92.3454 109.176 92.6272 109.615 92.8194C110.055 93.0115 110.529 93.1099 111.008 93.1081H116.862C117.297 93.1208 117.729 93.0428 118.132 92.879C118.536 92.7152 118.901 92.4693 119.204 92.1567C119.508 91.8442 119.743 91.4718 119.896 91.0633C120.048 90.6547 120.115 90.2188 120.091 89.7831L117 39.0422L114.462 2.48455" fill="#8C9998"/>
<path d="M114.41 2.48455C112.683 2.2421 103.117 28.9114 101.425 37.3278C101.358 37.5883 101.352 37.8608 101.408 38.1239C101.464 38.387 101.581 38.6334 101.748 38.8434C101.916 39.0535 102.13 39.2216 102.374 39.3342C102.617 39.4469 102.884 39.5011 103.152 39.4925L106.053 40.0986C107.345 40.3743 108.495 41.1066 109.294 42.1621C110.093 43.2175 110.487 44.5257 110.404 45.8481L107.555 89.3502C107.514 89.8292 107.573 90.3114 107.728 90.7662C107.884 91.221 108.132 91.6384 108.456 91.9919C108.781 92.3454 109.176 92.6272 109.615 92.8194C110.055 93.0115 110.529 93.1099 111.008 93.1081H116.862C117.297 93.1208 117.729 93.0428 118.132 92.879C118.536 92.7152 118.901 92.4693 119.204 92.1567C119.508 91.8442 119.743 91.4718 119.896 91.0633C120.048 90.6547 120.115 90.2188 120.091 89.7831L117 39.0422L114.462 2.48455" stroke="#8C9998" stroke-width="0.5" stroke-linecap="round" stroke-linejoin="round"/>
<path d="M71.5148 27.9419C71.6109 29.5681 72.1352 31.1397 73.0343 32.4965C74.0187 33.9665 75.4654 35.0638 77.1438 35.6136C76.8513 35.0098 76.5106 34.4306 76.125 33.8819C75.5416 33.0917 74.8759 32.366 74.1393 31.7172C73.0321 30.6384 72.1412 29.3569 71.5148 27.9419Z" fill="white" stroke="white" stroke-width="0.25" stroke-miterlimit="10"/>
<path d="M149.683 13.0833C149.448 11.4641 148.793 9.93528 147.783 8.65C147.227 7.97399 146.569 7.38963 145.832 6.91823C145.092 6.43807 144.274 6.09221 143.415 5.89648C143.758 6.4522 144.144 6.97922 144.572 7.4724C145.224 8.21212 145.954 8.87976 146.747 9.46394C147.95 10.4684 148.947 11.6976 149.683 13.0833Z" fill="white" stroke="white" stroke-width="0.25" stroke-miterlimit="10"/>
<path d="M80.0287 39.7173L78.1294 88.8823" stroke="#B1B5B5" stroke-width="0.25" stroke-linecap="round" stroke-linejoin="round"/>
<path d="M81.9107 39.6997L81.8766 88.8993" stroke="#B1B5B5" stroke-width="0.25" stroke-linecap="round" stroke-linejoin="round"/>
<path d="M84.0348 39.7183L85.9169 88.8832" stroke="#B1B5B5" stroke-width="0.25" stroke-linecap="round" stroke-linejoin="round"/>
<path d="M111.786 41.8828L109.886 91.0478" stroke="#B1B5B5" stroke-width="0.25" stroke-linecap="round" stroke-linejoin="round"/>
<path d="M113.664 41.8662L113.63 91.0658" stroke="#B1B5B5" stroke-width="0.25" stroke-linecap="round" stroke-linejoin="round"/>
<path d="M115.788 41.8828L117.67 91.0478" stroke="#B1B5B5" stroke-width="0.25" stroke-linecap="round" stroke-linejoin="round"/>
<path d="M139.908 41.8999L138.008 91.0822" stroke="#B1B5B5" stroke-width="0.25" stroke-linecap="round" stroke-linejoin="round"/>
<path d="M141.809 41.8823L141.74 91.0992" stroke="#B1B5B5" stroke-width="0.25" stroke-linecap="round" stroke-linejoin="round"/>
<path d="M143.932 41.917L145.779 91.082" stroke="#B1B5B5" stroke-width="0.25" stroke-linecap="round" stroke-linejoin="round"/>
<path d="M88.4912 79.2715H74.7468V81.6267H88.4912V79.2715Z" fill="#DB7028" stroke="#DB7028" stroke-width="0.5" stroke-linecap="round" stroke-linejoin="round"/>
<path d="M120.033 79.2725H107.532V81.6277H120.033V79.2725Z" fill="#FFDF5A" stroke="#FFDF5A" stroke-width="0.5" stroke-linecap="round" stroke-linejoin="round"/>
<path d="M148.147 79.2715H135.628V81.6267H148.147V79.2715Z" fill="#99CCFF" stroke="#99CCFF" stroke-width="0.5" stroke-linecap="round" stroke-linejoin="round"/>
<path d="M114.684 91.4808C115.3 91.5772 115.93 91.5338 116.528 91.354C117.125 91.1742 117.675 90.8625 118.137 90.4417C118.69 89.7663 118.69 88.71 118.69 86.9782C118.696 85.8204 118.627 84.6634 118.482 83.5146C118.344 84.1727 118.103 85.2464 117.844 86.5452C117.754 87.521 117.503 88.475 117.101 89.368C116.547 90.3182 115.698 91.0602 114.684 91.4808Z" fill="white" stroke="white" stroke-width="0.25" stroke-miterlimit="10"/>
<defs>
<filter id="filter0_d" x="28.8936" y="110.19" width="176" height="49" filterUnits="userSpaceOnUse" color-interpolation-filters="sRGB">
<feFlood flood-opacity="0" result="BackgroundImageFix"/>
<feColorMatrix in="SourceAlpha" type="matrix" values="0 0 0 0 0 0 0 0 0 0 0 0 0 0 0 0 0 0 127 0"/>
<feOffset dy="4"/>
<feGaussianBlur stdDeviation="2"/>
<feColorMatrix type="matrix" values="0 0 0 0 0 0 0 0 0 0 0 0 0 0 0 0 0 0 0.25 0"/>
<feBlend mode="normal" in2="BackgroundImageFix" result="effect1_dropShadow"/>
<feBlend mode="normal" in="SourceGraphic" in2="effect1_dropShadow" result="shape"/>
</filter>
</defs>
</svg>
