<svg width="248" height="188" viewBox="0 0 248 188" fill="none" xmlns="http://www.w3.org/2000/svg">
<g filter="url(#filter0_d)">
<rect x="45.6016" y="138.135" width="153.521" height="41.7187" rx="10" fill="#7C8294"/>
<path d="M75.3316 156.742L73.6936 164.896C73.3336 166.66 72.6676 167.944 71.6956 168.748C70.7236 169.564 69.4096 169.972 67.7536 169.972C65.8696 169.972 64.3696 169.534 63.2536 168.658L64.4236 166.966C64.7956 167.29 65.2876 167.548 65.8996 167.74C66.5236 167.944 67.1896 168.046 67.8976 168.046C68.9296 168.046 69.7216 167.818 70.2736 167.362C70.8256 166.906 71.1916 166.21 71.3716 165.274L71.4616 164.806C70.5976 165.55 69.5476 165.922 68.3116 165.922C67.4836 165.922 66.7396 165.76 66.0796 165.436C65.4316 165.112 64.9216 164.65 64.5496 164.05C64.1896 163.45 64.0096 162.748 64.0096 161.944C64.0096 160.96 64.2436 160.066 64.7116 159.262C65.1796 158.446 65.8276 157.804 66.6556 157.336C67.4956 156.868 68.4316 156.634 69.4636 156.634C70.2196 156.634 70.8976 156.778 71.4976 157.066C72.0976 157.342 72.5536 157.762 72.8656 158.326L73.1716 156.742H75.3316ZM68.8156 164.014C69.4516 164.014 70.0156 163.876 70.5076 163.6C71.0116 163.312 71.4016 162.922 71.6776 162.43C71.9656 161.926 72.1096 161.362 72.1096 160.738C72.1096 160.054 71.8876 159.52 71.4436 159.136C70.9996 158.74 70.3816 158.542 69.5896 158.542C68.9536 158.542 68.3836 158.686 67.8796 158.974C67.3756 159.25 66.9796 159.64 66.6916 160.144C66.4156 160.636 66.2776 161.194 66.2776 161.818C66.2776 162.49 66.4996 163.024 66.9436 163.42C67.3996 163.816 68.0236 164.014 68.8156 164.014ZM80.1616 157.984C80.5816 157.492 81.0916 157.144 81.6916 156.94C82.3036 156.736 83.0296 156.634 83.8696 156.634L83.4556 158.776C83.2516 158.74 83.0656 158.722 82.8976 158.722C81.0616 158.722 79.9516 159.688 79.5676 161.62L78.6136 166.354H76.3636L78.2716 156.742H80.4136L80.1616 157.984ZM88.4984 166.48C87.5624 166.48 86.7404 166.306 86.0324 165.958C85.3364 165.598 84.7964 165.1 84.4124 164.464C84.0284 163.828 83.8364 163.09 83.8364 162.25C83.8364 161.182 84.0764 160.222 84.5564 159.37C85.0484 158.518 85.7264 157.852 86.5904 157.372C87.4664 156.88 88.4504 156.634 89.5424 156.634C90.4784 156.634 91.3004 156.808 92.0084 157.156C92.7164 157.504 93.2624 157.996 93.6464 158.632C94.0304 159.268 94.2224 160.006 94.2224 160.846C94.2224 161.914 93.9764 162.874 93.4844 163.726C92.9924 164.578 92.3084 165.25 91.4324 165.742C90.5684 166.234 89.5904 166.48 88.4984 166.48ZM88.6424 164.554C89.2784 164.554 89.8424 164.404 90.3344 164.104C90.8384 163.792 91.2344 163.366 91.5224 162.826C91.8104 162.274 91.9544 161.65 91.9544 160.954C91.9544 160.198 91.7324 159.61 91.2884 159.19C90.8444 158.758 90.2204 158.542 89.4164 158.542C88.7804 158.542 88.2104 158.698 87.7064 159.01C87.2144 159.31 86.8244 159.736 86.5364 160.288C86.2484 160.828 86.1044 161.446 86.1044 162.142C86.1044 162.898 86.3264 163.492 86.7704 163.924C87.2144 164.344 87.8384 164.554 88.6424 164.554ZM106.58 156.742L104.654 166.354H102.512L102.728 165.292C101.864 166.084 100.778 166.48 99.47 166.48C98.414 166.48 97.568 166.198 96.932 165.634C96.308 165.058 95.996 164.254 95.996 163.222C95.996 162.838 96.038 162.454 96.122 162.07L97.184 156.742H99.434L98.372 162.016C98.324 162.256 98.3 162.502 98.3 162.754C98.3 163.318 98.456 163.75 98.768 164.05C99.092 164.35 99.572 164.5 100.208 164.5C101.024 164.5 101.702 164.272 102.242 163.816C102.782 163.348 103.142 162.652 103.322 161.728L104.33 156.742H106.58ZM114.584 156.634C115.376 156.634 116.09 156.802 116.726 157.138C117.374 157.474 117.884 157.96 118.256 158.596C118.628 159.232 118.814 159.982 118.814 160.846C118.814 161.914 118.574 162.88 118.094 163.744C117.626 164.596 116.978 165.268 116.15 165.76C115.334 166.24 114.422 166.48 113.414 166.48C112.658 166.48 111.998 166.348 111.434 166.084C110.87 165.82 110.432 165.436 110.12 164.932L109.148 169.846H106.898L109.508 156.742H111.65L111.452 157.75C112.292 157.006 113.336 156.634 114.584 156.634ZM113.234 164.554C113.87 164.554 114.434 164.404 114.926 164.104C115.43 163.792 115.826 163.366 116.114 162.826C116.402 162.274 116.546 161.65 116.546 160.954C116.546 160.198 116.324 159.61 115.88 159.19C115.436 158.758 114.812 158.542 114.008 158.542C113.372 158.542 112.802 158.698 112.298 159.01C111.806 159.31 111.416 159.736 111.128 160.288C110.84 160.828 110.696 161.446 110.696 162.142C110.696 162.898 110.918 163.492 111.362 163.924C111.806 164.344 112.43 164.554 113.234 164.554ZM123.216 166.48C122.4 166.48 121.62 166.384 120.876 166.192C120.144 165.988 119.574 165.736 119.166 165.436L120.102 163.708C120.498 163.996 120.996 164.224 121.596 164.392C122.196 164.56 122.814 164.644 123.45 164.644C124.17 164.644 124.71 164.548 125.07 164.356C125.442 164.152 125.628 163.864 125.628 163.492C125.628 163.204 125.472 162.994 125.16 162.862C124.86 162.73 124.38 162.592 123.72 162.448C123.036 162.316 122.472 162.178 122.028 162.034C121.596 161.878 121.218 161.632 120.894 161.296C120.582 160.948 120.426 160.474 120.426 159.874C120.426 158.878 120.84 158.092 121.668 157.516C122.508 156.928 123.618 156.634 124.998 156.634C125.658 156.634 126.3 156.712 126.924 156.868C127.548 157.012 128.058 157.21 128.454 157.462L127.626 159.19C127.23 158.938 126.78 158.752 126.276 158.632C125.784 158.512 125.286 158.452 124.782 158.452C124.074 158.452 123.534 158.56 123.162 158.776C122.802 158.992 122.622 159.274 122.622 159.622C122.622 159.934 122.778 160.162 123.09 160.306C123.414 160.438 123.912 160.576 124.584 160.72C125.256 160.852 125.808 160.996 126.24 161.152C126.672 161.296 127.044 161.536 127.356 161.872C127.668 162.208 127.824 162.664 127.824 163.24C127.824 164.272 127.404 165.07 126.564 165.634C125.724 166.198 124.608 166.48 123.216 166.48ZM133.955 166.48C133.019 166.48 132.197 166.306 131.489 165.958C130.793 165.598 130.253 165.1 129.869 164.464C129.485 163.828 129.293 163.09 129.293 162.25C129.293 161.182 129.533 160.222 130.013 159.37C130.505 158.518 131.183 157.852 132.047 157.372C132.923 156.88 133.907 156.634 134.999 156.634C135.935 156.634 136.757 156.808 137.465 157.156C138.173 157.504 138.719 157.996 139.103 158.632C139.487 159.268 139.679 160.006 139.679 160.846C139.679 161.914 139.433 162.874 138.941 163.726C138.449 164.578 137.765 165.25 136.889 165.742C136.025 166.234 135.047 166.48 133.955 166.48ZM134.099 164.554C134.735 164.554 135.299 164.404 135.791 164.104C136.295 163.792 136.691 163.366 136.979 162.826C137.267 162.274 137.411 161.65 137.411 160.954C137.411 160.198 137.189 159.61 136.745 159.19C136.301 158.758 135.677 158.542 134.873 158.542C134.237 158.542 133.667 158.698 133.163 159.01C132.671 159.31 132.281 159.736 131.993 160.288C131.705 160.828 131.561 161.446 131.561 162.142C131.561 162.898 131.783 163.492 132.227 163.924C132.671 164.344 133.295 164.554 134.099 164.554ZM152.037 156.742L150.111 166.354H147.969L148.185 165.292C147.321 166.084 146.235 166.48 144.927 166.48C143.871 166.48 143.025 166.198 142.389 165.634C141.765 165.058 141.453 164.254 141.453 163.222C141.453 162.838 141.495 162.454 141.579 162.07L142.641 156.742H144.891L143.829 162.016C143.781 162.256 143.757 162.502 143.757 162.754C143.757 163.318 143.913 163.75 144.225 164.05C144.549 164.35 145.029 164.5 145.665 164.5C146.481 164.5 147.159 164.272 147.699 163.816C148.239 163.348 148.599 162.652 148.779 161.728L149.787 156.742H152.037ZM156.855 157.984C157.275 157.492 157.785 157.144 158.385 156.94C158.997 156.736 159.723 156.634 160.563 156.634L160.149 158.776C159.945 158.74 159.759 158.722 159.591 158.722C157.755 158.722 156.645 159.688 156.261 161.62L155.307 166.354H153.057L154.965 156.742H157.107L156.855 157.984ZM165.246 166.48C164.298 166.48 163.464 166.306 162.744 165.958C162.036 165.598 161.49 165.1 161.106 164.464C160.722 163.828 160.53 163.09 160.53 162.25C160.53 161.182 160.776 160.222 161.268 159.37C161.76 158.518 162.438 157.852 163.302 157.372C164.178 156.88 165.174 156.634 166.29 156.634C167.262 156.634 168.096 156.826 168.792 157.21C169.5 157.582 170.046 158.14 170.43 158.884L168.504 159.874C168.06 158.986 167.262 158.542 166.11 158.542C165.474 158.542 164.904 158.698 164.4 159.01C163.908 159.31 163.518 159.736 163.23 160.288C162.942 160.828 162.798 161.446 162.798 162.142C162.798 162.898 163.02 163.492 163.464 163.924C163.908 164.344 164.538 164.554 165.354 164.554C165.906 164.554 166.404 164.446 166.848 164.23C167.292 164.002 167.67 163.666 167.982 163.222L169.638 164.338C169.194 165.01 168.582 165.538 167.802 165.922C167.022 166.294 166.17 166.48 165.246 166.48ZM180.82 160.846C180.82 161.314 180.772 161.77 180.676 162.214H173.044C173.08 163.786 174.004 164.572 175.816 164.572C176.368 164.572 176.884 164.488 177.364 164.32C177.844 164.14 178.252 163.894 178.588 163.582L179.524 165.148C179.032 165.592 178.438 165.928 177.742 166.156C177.058 166.372 176.338 166.48 175.582 166.48C174.622 166.48 173.782 166.306 173.062 165.958C172.354 165.61 171.808 165.118 171.424 164.482C171.04 163.834 170.848 163.09 170.848 162.25C170.848 161.182 171.082 160.222 171.55 159.37C172.03 158.506 172.69 157.834 173.53 157.354C174.382 156.874 175.336 156.634 176.392 156.634C177.736 156.634 178.81 157.012 179.614 157.768C180.418 158.512 180.82 159.538 180.82 160.846ZM176.284 158.434C175.528 158.434 174.88 158.638 174.34 159.046C173.812 159.454 173.446 160.012 173.242 160.72H178.75C178.762 160 178.54 159.442 178.084 159.046C177.64 158.638 177.04 158.434 176.284 158.434Z" fill="white"/>
</g>
<path opacity="0.5" d="M175.429 51.5066L73.6115 114.774C105.33 122.114 138.391 121.249 169.688 112.26L175.429 51.5066Z" fill="#F9AD5A"/>
<path d="M76.784 114.323C84.2082 111.964 91.7911 110.142 99.4746 108.869C122.406 105.139 145.852 106.11 168.396 111.723C138.556 120.271 107.055 121.165 76.784 114.323Z" fill="#F9AD5A"/>
<path opacity="0.7" d="M98.2993 18.5564L73.6891 114.775C84.3833 117.266 95.2727 118.823 106.235 119.428C127.661 120.591 149.131 118.169 169.766 112.261C145.922 81.0185 122.1 49.7835 98.2993 18.5564Z" fill="#F9AD5A"/>
<path d="M79.1934 12.3196C84.0695 9.53928 89.3516 7.5466 94.8456 6.41478C101.962 4.43552 109.334 3.54165 116.715 3.76319C123.117 4.08567 128.985 4.36877 129.445 6.59227C130.429 10.3769 115.935 18.0785 103.039 22.1037C87.7884 26.8644 68.6286 28.3852 67.2383 23.9652C66.0804 20.2605 77.9676 13.1787 79.1934 12.3196Z" fill="#B76DE2" stroke="#B76DE2" stroke-width="0.2" stroke-miterlimit="10" stroke-linecap="round"/>
<path d="M95.952 10.1615C83.8528 13.3775 70.6693 21.509 71.79 25.6841C72.9106 29.8592 89.3759 30.2843 102.406 26.7138C113.97 23.5227 127.473 16.0665 126.418 11.8293C125.364 7.59212 109.218 6.55606 95.952 10.1615Z" fill="#D7E7F7" stroke="white" stroke-width="0.2" stroke-miterlimit="10" stroke-linecap="round"/>
<path d="M67.3372 24.0332L69.9607 30.5526C75.2403 31.6749 80.6242 32.2297 86.0213 32.2075C93.311 32.174 108.476 31.8694 122.102 22.0163C125.465 19.5772 128.512 16.7272 131.172 13.5321L129.573 7.04712C121.969 15.6437 112.035 21.8353 100.984 24.8667C89.9319 27.8981 78.24 27.6383 67.3343 24.1189L67.3372 24.0332Z" fill="#944BC9" stroke="#8B43BF" stroke-width="0.2" stroke-miterlimit="10" stroke-linecap="round"/>
<path d="M12.0663 47.5981L11.8459 54.1505C12.156 54.6392 12.5375 55.0784 12.9777 55.4534C14.2708 56.4909 15.8869 57.0385 17.5425 57.0004C17.603 55.2017 17.6635 53.403 17.7233 51.6257L12.0663 47.5981Z" fill="#A46ED3" stroke="#8B43BF" stroke-width="0.2" stroke-miterlimit="10" stroke-linecap="round"/>
<path d="M70.9793 29.4937L70.7882 26.9147L17.6792 51.5179L17.4316 56.976L70.9793 29.4937Z" fill="#9861D1" stroke="#8B43BF" stroke-width="0.2" stroke-miterlimit="10" stroke-linecap="round"/>
<path d="M68.378 26.2331C68.8251 26.1608 69.2819 26.1762 69.7231 26.2783C70.1064 26.3962 70.4684 26.5748 70.7954 26.8074L17.6829 51.5177C16.3437 50.9465 15.0949 50.1823 13.9759 49.2493C13.3078 48.7006 12.6915 48.0914 12.1348 47.4295L68.378 26.2331Z" fill="#944BC9" stroke="#8B43BF" stroke-width="0.2" stroke-miterlimit="10" stroke-linecap="round"/>
<path d="M193.244 49.8551C189.508 47.373 185.4 45.5053 181.076 44.3224C175.501 42.3738 169.666 41.2743 163.766 41.0606C158.599 40.8868 153.939 40.9016 153.367 42.6402C152.391 45.6086 163.53 52.5215 173.594 56.44C185.512 61.1283 200.657 63.3098 202.077 59.8633C203.288 56.9028 194.183 50.5298 193.244 49.8551Z" fill="#92BCD3" stroke="#6D94AF" stroke-width="0.2" stroke-miterlimit="10" stroke-linecap="round"/>
<path d="M179.972 47.2427C189.48 50.5208 199.544 57.6335 198.429 60.9187C197.314 64.204 184.144 63.6539 173.94 60.0951C164.877 56.9392 154.521 50.2669 155.552 46.9359C156.583 43.6049 169.598 43.6568 179.972 47.2427Z" fill="#DAE8F7" stroke="white" stroke-width="0.2" stroke-miterlimit="10" stroke-linecap="round"/>
<path d="M202.077 59.8633L199.644 64.8407C195.393 65.4498 191.088 65.5997 186.805 65.2878C180.984 64.8562 168.9 63.8067 158.545 55.2051C156 53.0749 153.721 50.6446 151.756 47.9668L153.381 42.8765C158.991 50.1443 166.587 55.6195 175.244 58.6357C183.901 61.652 193.246 62.0792 202.141 59.8654L202.077 59.8633Z" fill="#7499B7" stroke="#6D94AF" stroke-width="0.2" stroke-miterlimit="10" stroke-linecap="round"/>
<path d="M244.945 81.627L244.768 86.8732C244.481 87.241 244.147 87.5686 243.773 87.8473C242.694 88.6107 241.378 88.9619 240.064 88.8373L240.208 84.5547L244.945 81.627Z" fill="#9EC4DD" stroke="#6D94AF" stroke-width="0.2" stroke-miterlimit="10" stroke-linecap="round"/>
<path d="M198.857 63.999L199.161 61.9513L240.234 84.4483L240.129 88.8394L198.857 63.999Z" fill="#89B1CC" stroke="#6D94AF" stroke-width="0.2" stroke-miterlimit="10" stroke-linecap="round"/>
<path d="M201.14 61.5456C200.788 61.4757 200.428 61.4636 200.072 61.5096C199.755 61.5872 199.449 61.7067 199.163 61.8649L240.235 84.3834C241.334 83.972 242.373 83.4158 243.325 82.7295C243.884 82.3199 244.407 81.8642 244.889 81.3672L201.14 61.5456Z" fill="#7499B7" stroke="#6D94AF" stroke-width="0.2" stroke-miterlimit="10" stroke-linecap="round"/>
<path d="M118.286 115.354C130.042 115.749 139.894 106.512 140.291 94.721C140.687 82.9304 131.478 73.0517 119.722 72.6563C107.967 72.2609 98.1149 81.4986 97.7184 93.2892C97.3219 105.08 106.531 114.959 118.286 115.354Z" fill="#6D9ABF"/>
<path d="M102.09 83.2328C101.601 84.0358 101.389 84.9778 101.487 85.9136C101.476 86.2562 101.682 87.7423 102.423 87.9602C103.164 88.178 104.481 85.8856 105.519 86.135C106.558 86.3843 106.287 88.7332 107.283 88.9811C108.28 89.229 108.702 87.4853 109.945 87.3771C111.702 87.2432 114.118 90.4114 113.324 91.7782C112.53 93.1449 107.792 92.2781 107.38 93.722C107.092 94.677 109.016 95.9208 109.307 96.1664C109.598 96.412 113.596 98.9473 116.449 96.7281C117.357 95.9393 117.99 94.8804 118.257 93.7056C118.523 92.5308 118.408 91.3014 117.93 90.1967C116.977 88.0209 115.043 88.3203 114.672 86.6357C114.269 84.6285 116.908 83.7097 117.009 80.7118C117.062 79.1273 116.494 76.9644 115.288 76.6023C113.447 76.0473 112.444 80.4511 108.039 81.7607C105.293 82.6974 103.211 81.6841 102.09 83.2328Z" fill="#57BC74"/>
<path d="M126.815 93.5175C124.283 93.8182 123.02 97.6773 122.073 97.2381C121.126 96.799 121.972 94.5336 121.255 94.2522C120.537 93.9709 118.372 96.0632 118.765 97.7271C119.158 99.391 122.265 99.817 122.968 99.8835C126.609 100.285 130.847 98.2191 130.848 96.2684C130.681 94.8908 128.532 93.3179 126.815 93.5175Z" fill="#57BC74"/>
<path d="M123.555 83.1179C121.664 84.6621 119.564 84.1842 119.457 84.8237C119.35 85.4632 121.195 86.5328 123.339 86.9908C127.775 87.9117 129.47 85.1819 133.397 85.9785C136.815 86.6723 138.393 89.3407 139.053 88.7841C139.713 88.2275 137.096 83.4232 136.507 82.5031C134.946 79.9639 133.89 78.3206 131.784 77.3922C131.257 77.1602 128.621 76.1068 127.151 77.2364C126.448 77.7916 126.666 78.3134 125.64 80.2083C125.141 81.3054 124.433 82.2939 123.555 83.1179Z" fill="#57BC74"/>
<path d="M135.286 95.947C135.157 95.9427 135.395 96.5081 135.238 97.3603C135.154 97.9888 134.898 98.5816 134.496 99.0717C133.76 99.9902 132.951 99.8987 132.891 100.411C132.831 100.924 133.597 101.657 134.324 101.66C135.391 101.696 136.341 100.163 136.555 98.8623C136.602 98.3088 136.51 97.7523 136.289 97.2433C136.067 96.7343 135.722 96.2888 135.286 95.947Z" fill="#57BC74"/>
<path d="M130.12 100.188C130.467 100.049 130.979 100.067 131.081 100.22C131.183 100.374 130.935 100.73 130.87 100.77C130.425 101.291 129.501 101.432 129.339 101.169C129.177 100.906 129.579 100.384 130.12 100.188Z" fill="#57BC74"/>
<path d="M101.944 91.9101C101.287 92.4316 100.849 93.1823 100.719 94.0127C100.712 94.2268 100.332 95.3502 100.668 95.533C101.004 95.7158 101.571 94.7487 102.863 93.8275C104.155 92.9063 105.592 92.7617 105.583 92.3969C105.573 92.0322 103.388 90.9297 101.944 91.9101Z" fill="#57BC74"/>
<path d="M99.3791 89.0366C99.0677 90.0337 98.6285 90.3833 98.799 91.0322C98.799 91.0322 98.9326 91.5083 99.2073 91.6033C99.482 91.6983 100.096 91.2473 100.295 91.0396C100.936 90.3966 100.912 89.8384 101.365 89.725C101.818 89.6116 101.808 89.9114 102.191 89.9672C103.338 90.1773 104.664 88.2282 104.393 88.0476C104.121 87.8669 103.291 89.0181 102.405 88.6881C101.919 88.5003 101.954 88.0942 101.202 87.5973C100.931 87.3952 100.24 86.9432 99.8054 87.1644C99.3705 87.3856 99.7596 87.8918 99.3791 89.0366Z" fill="#57BC74"/>
<path d="M131.19 86.6334C130.781 86.6936 130.386 86.8255 130.023 87.0229C129.13 87.5288 128.41 88.5765 128.632 88.9698C128.854 89.3631 129.892 89.0122 130.774 88.8489C132.152 88.5308 132.334 88.2154 133.081 88.2619C134.212 88.3 134.803 89.1773 134.98 88.9904C135.157 88.8034 134.681 87.7155 133.783 87.0851C133.001 86.6262 132.081 86.4658 131.19 86.6334Z" fill="#57BC74"/>
<path d="M119.596 83.3714C119.988 83.4729 120.404 83.4177 120.756 83.2175C121.478 82.7059 121.498 81.4846 121.163 81.2804C120.828 81.0762 120.816 81.4188 120.501 81.2581C120.186 81.0975 120.053 80.5999 119.903 80.6163C119.752 80.6327 119.884 81.1731 119.628 81.7862C119.372 82.3992 118.831 82.6168 118.906 82.9195C118.981 83.2221 119.448 83.345 119.596 83.3714Z" fill="#57BC74"/>
<path d="M119.609 79.063C119.602 79.2771 120.072 79.2715 120.419 79.7762C120.765 80.2809 120.576 80.1888 120.764 80.3023C120.953 80.4158 121.388 80.1947 121.64 80.3318C121.891 80.4689 121.595 81.6594 121.929 81.885C122.264 82.1106 122.813 81.6575 123.149 81.2186C123.319 80.9651 123.437 80.6798 123.495 80.3797C123.552 80.0796 123.549 79.7709 123.485 79.472C123.217 78.5412 122.427 78.5146 122.263 77.6945C122.098 76.8743 122.934 76.1522 122.769 75.9965C122.603 75.8409 119.208 78.2777 119.609 79.063Z" fill="#57BC74"/>
<path d="M120.46 100.099C120.683 99.8497 121.101 100.121 122.272 100.268C124.079 100.543 124.73 100.243 125.182 100.794C125.634 101.345 125.345 101.679 125.681 101.861C126.331 102.226 127.384 100.783 127.973 101.081C128.561 101.379 128.234 102.848 127.884 103.715C127.492 104.851 126.851 105.884 126.008 106.739C125.603 107.245 125.135 107.698 124.616 108.085C123.505 108.638 122.258 108.856 121.026 108.711C119.794 108.567 118.63 108.068 117.676 107.273C117.694 106.738 122.662 107.719 123.295 106.069C123.378 105.762 123.369 105.439 123.269 105.138C123.168 104.837 122.982 104.572 122.732 104.378C122.023 103.839 121.28 104.329 119.7 104.276C118.12 104.222 116.86 103.558 116.891 103.259C116.923 102.96 120.137 103.368 120.628 102.099C121.036 101.426 120.168 100.518 120.46 100.099Z" fill="#57BC74"/>
<path d="M114.814 98.3871C113.781 98.6096 113.17 98.3318 113.075 98.6288C112.979 98.9257 113.405 98.9614 113.876 99.5989C114.346 100.236 114.328 100.75 114.666 100.869C115.004 100.987 116.116 100.339 116.381 99.4474C116.503 99.0013 116.527 98.2947 116.193 98.0691C115.858 97.8435 115.654 98.201 114.814 98.3871Z" fill="#57BC74"/>
<path d="M111.874 98.1397C111.934 98.2662 111.968 98.4037 111.973 98.5439C111.979 98.684 111.956 98.8238 111.905 98.9547C111.855 99.0855 111.778 99.2046 111.68 99.3046C111.582 99.4047 111.465 99.4836 111.335 99.5364C111.204 99.5565 111.069 99.5495 110.941 99.5159C110.812 99.4824 110.691 99.4229 110.586 99.3412C110.481 99.2595 110.393 99.1572 110.329 99.0406C110.264 98.9239 110.224 98.7953 110.21 98.6625C110.27 98.1501 111.544 97.7642 111.874 98.1397Z" fill="#57BC74"/>
<path d="M112.392 99.1644C112.717 99.0253 113.594 99.6121 113.607 100.492C113.62 101.371 112.939 101.927 112.58 101.829C112.22 101.731 111.85 99.4034 112.392 99.1644Z" fill="#57BC74"/>
<path d="M122.469 95.6664C122.469 95.6664 122.653 95.2867 122.786 94.5194C122.919 93.7521 122.82 93.513 122.831 93.1918C123.217 92.4974 124.994 92.4071 125.128 92.8832C125.262 93.3593 122.654 95.887 122.469 95.6664Z" fill="#57BC74"/>
<path d="M125.314 91.7091C125.308 91.9019 125.669 91.9783 125.742 92.3452C125.815 92.7121 125.596 92.8762 125.719 93.0304C125.902 93.162 126.126 93.2234 126.35 93.2034C126.574 93.1834 126.784 93.0834 126.941 92.9214C127.028 92.8135 127.093 92.6893 127.132 92.5559C127.171 92.4226 127.183 92.2828 127.168 92.1447C127.153 92.0066 127.11 91.8729 127.043 91.7514C126.976 91.6299 126.886 91.5229 126.777 91.4368C126.192 91.0312 125.345 91.4315 125.314 91.7091Z" fill="#57BC74"/>
<path d="M107.526 110.254C107.54 109.826 108.725 109.565 109.681 109.726C110.638 109.887 111.12 110.803 112.737 111.651C113.51 112.02 114.327 112.285 115.169 112.44C116.652 112.812 118.517 113.282 119.012 112.569C119.281 112.193 119.04 111.713 119.218 111.504C119.396 111.296 120.168 111.879 121.333 112.176C122.204 112.417 123.129 112.366 123.967 112.029C124.728 111.668 124.59 111.299 125.194 111.148C125.797 110.997 126.505 111.557 127.765 111.599C128.384 111.62 128.738 111.267 128.966 111.468C129.195 111.669 128.938 112.303 128.934 112.431C128.387 114.085 123.088 115.3 117.937 114.656C115.629 114.33 113.382 113.662 111.271 112.673C110.049 112.139 107.373 110.978 107.526 110.254Z" fill="white"/>
<path d="M112.858 74.3763C112.447 74.5126 111.171 74.9413 111.057 75.795C111.028 75.9681 111.045 76.1459 111.107 76.31C111.169 76.4742 111.274 76.6187 111.41 76.7286C111.998 77.0485 112.718 75.9794 114.298 75.3894C115.878 74.7995 117.19 75.208 117.218 74.9946C116.594 74.5488 115.872 74.2599 115.113 74.1523C114.354 74.0447 113.581 74.1215 112.858 74.3763Z" fill="white"/>
<path d="M116.797 73.7377C116.791 73.909 118.092 74.017 118.12 74.4467C118.148 74.8764 117.181 75.0368 117.211 75.4237C117.24 75.8106 118.087 76.0534 118.812 76.1206C119.562 76.1411 120.309 76.0056 121.005 75.7228C122.582 75.2399 123.173 74.8096 123.591 75.1023C124.009 75.3951 123.695 75.8133 124.07 76.126C124.444 76.4387 125.607 76.1777 126.216 75.8552C126.825 75.5327 127.002 75.3671 126.991 75.0452C127.014 74.3814 124.781 74.049 123.463 73.8332C121.268 73.3667 119.004 73.3343 116.797 73.7377Z" fill="white"/>
<path d="M110.326 75.5345C110.49 75.733 110.18 76.0441 110.293 76.4981C110.469 76.7534 110.711 76.9554 110.993 77.0821C111.275 77.2088 111.587 77.2553 111.894 77.2165C112.321 77.2308 112.543 76.9596 112.585 77.0039C112.626 77.0481 112.037 78.0359 111.018 78.4518C110.119 78.7015 109.166 78.6695 108.286 78.3599C107.203 78.1306 106.566 78.002 106.472 77.6344C106.307 76.8142 109.809 75.0026 110.326 75.5345Z" fill="white"/>
<path d="M112.338 110.309C112.544 110.579 112.842 110.765 113.175 110.83L114.802 111.378C115.564 111.618 115.986 111.782 117.108 112.098C117.723 112.248 117.978 112.299 118.154 112.134C118.304 111.968 118.391 111.754 118.398 111.531C118.406 111.307 118.334 111.088 118.195 110.913C117.804 110.471 117.167 110.986 115.847 110.834C115.181 110.712 114.534 110.502 113.923 110.212C112.954 109.772 112.453 109.412 112.255 109.577C112.057 109.742 112.196 110.068 112.338 110.309Z" fill="white"/>
<path d="M127.667 110.825C127.661 110.996 128.921 110.396 129.396 110.883C129.544 111.027 129.649 111.208 129.699 111.408C129.691 111.643 129.686 111.793 129.685 111.836C129.683 111.879 130.14 111.637 130.362 111.409C130.583 111.18 131.028 110.681 130.933 110.313C130.839 109.946 129.97 109.723 129.456 109.749C128.407 109.8 127.587 110.651 127.667 110.825Z" fill="white"/>
<path opacity="0.5" d="M96.8567 25.1119L98.2797 19.0287L101.992 23.6768L102.176 23.9402L102.235 24.0709L100.27 24.6693L97.7933 25.2291L96.7598 25.4516L96.8567 25.1119Z" fill="#F9AD5A"/>
<path opacity="0.35" d="M168.859 55.4232L175.403 51.5059C175.331 53.6472 175.062 55.932 174.881 58.1339L171.528 56.7992L169.424 55.8066L168.859 55.4232Z" fill="#F9AD5A"/>
<path d="M116.429 9.71374C116.482 9.84744 116.507 9.99057 116.502 10.1342C116.497 10.2779 116.463 10.419 116.401 10.5489C115.716 11.8549 112.536 11.0834 108.014 10.8027C102.703 10.474 99.4554 11.0722 99.4669 10.7296C100.836 10.1302 102.292 9.75228 103.779 9.60985C106.207 9.28039 108.655 9.13345 111.104 9.17022C114.421 9.06738 116.072 8.90854 116.429 9.71374Z" fill="white"/>
<path d="M163.318 46.0605C163.305 46.1481 163.31 46.2376 163.333 46.3232C163.355 46.4088 163.396 46.4888 163.451 46.558C163.922 47.1741 165.297 46.9631 166.219 46.8655C167.736 46.7705 169.259 46.8218 170.767 47.0184C173.35 47.1053 175.014 47.8473 175.019 47.6974C174.247 47.2329 173.408 46.8935 172.53 46.6919C171.319 46.346 170.085 46.0825 168.838 45.9031C167.302 45.458 165.69 45.3381 164.105 45.551C163.934 45.5453 163.394 45.72 163.318 46.0605Z" fill="white"/>
<path d="M37.3366 59.531C37.4173 60.7082 37.155 61.8837 36.5816 62.9142C36.0358 63.8211 35.2292 64.5413 34.2678 64.9801C35.0199 65.4069 35.683 65.9751 36.2207 66.6536C36.994 67.6737 37.4844 68.881 37.642 70.1528C37.5789 68.9165 37.8804 67.6889 38.5088 66.6233C39.0008 65.7694 39.7016 65.0552 40.545 64.5481C39.9149 64.1109 39.356 63.5787 38.8881 62.9703C38.1101 61.9613 37.5787 60.7833 37.3366 59.531Z" fill="#CAD3FD"/>
<path d="M174.516 30.8316C174.512 32.1426 174.062 33.4129 173.241 34.4331C172.418 35.4114 171.322 36.121 170.094 36.471C170.995 37.0048 171.79 37.7001 172.441 38.5221C173.315 39.6875 173.832 41.0828 173.93 42.5381C173.956 41.1537 174.462 39.8214 175.361 38.7704C176.101 37.9033 177.05 37.2414 178.118 36.848C177.346 36.3049 176.649 35.6615 176.045 34.9347C175.19 33.723 174.663 32.3092 174.516 30.8316Z" fill="#CAD3FD"/>
<path d="M180.572 84.0716C180.669 85.067 180.383 86.062 179.773 86.853C179.127 87.6487 178.27 88.2443 177.3 88.5706C178.076 88.9047 178.785 89.3791 179.39 89.97C180.213 90.7337 180.764 91.7458 180.961 92.8525C180.905 91.8023 181.236 90.7681 181.892 89.9469C182.481 89.2422 183.233 88.6933 184.083 88.3485C183.427 88.0004 182.823 87.5616 182.289 87.0448C181.443 86.2398 180.847 85.2076 180.572 84.0716Z" fill="#CAD3FD"/>
<path d="M68.2356 63.894C68.3656 65.4521 67.9909 67.0108 67.167 68.3384C66.3826 69.5931 65.2294 70.573 63.8665 71.1429C64.9379 71.6912 65.8868 72.4525 66.6554 73.3804C67.7382 74.6982 68.4256 76.2974 68.6378 77.9918C68.5443 76.3469 68.9814 74.7155 69.8843 73.3389C70.603 72.2324 71.5988 71.3345 72.7719 70.7349C71.8774 70.1754 71.0782 69.4754 70.405 68.6617C69.2883 67.284 68.5415 65.6428 68.2356 63.894Z" fill="#CAD3FD"/>
<path d="M55.0672 92.0048C55.1647 92.9279 54.9287 93.8556 54.4022 94.6192C53.8564 95.3738 53.0905 95.9398 52.2102 96.239C52.8785 96.5562 53.4803 96.9985 53.9832 97.542C54.6786 98.2901 55.1314 99.2322 55.2817 100.244C55.2326 99.2738 55.5135 98.3158 56.0784 97.5267C56.5453 96.8687 57.1742 96.3433 57.9038 96.0017C57.1633 95.5762 56.5192 95.0008 56.0125 94.312C55.5058 93.6233 55.1475 92.8364 54.9604 92.0012L55.0672 92.0048Z" fill="#CAD3FD"/>
<path d="M51.7863 36.3506C51.8988 37.6695 51.5912 38.9903 50.9079 40.123C50.2245 41.2556 49.2006 42.1417 47.9834 42.6539C49.1265 43.2472 50.1058 44.1144 50.8344 45.1785C51.563 46.2427 52.0183 47.4708 52.16 48.7539C52.0855 47.3146 52.4624 45.8879 53.2377 44.6742C53.8923 43.7069 54.7976 42.9368 55.8561 42.447C55.0742 41.949 54.3739 41.3324 53.7801 40.6194C52.7657 39.3888 52.0797 37.92 51.7863 36.3506Z" fill="#CAD3FD"/>
<path d="M228.07 61.1014C228.174 62.2399 227.887 63.38 227.256 64.3325C226.642 65.2601 225.76 65.9782 224.729 66.3912C225.518 66.7927 226.225 67.3401 226.812 68.0048C227.654 68.9433 228.202 70.1099 228.388 71.3591C228.322 70.1594 228.655 68.9717 229.335 67.9824C229.899 67.175 230.656 66.5223 231.536 66.0842C230.856 65.6774 230.239 65.1728 229.706 64.5864C228.872 63.5842 228.309 62.3843 228.07 61.1014Z" fill="#CAD3FD"/>
<path d="M128.747 40.6114C128.789 41.5583 128.533 42.4946 128.015 43.2879C127.476 44.0536 126.708 44.6282 125.823 44.9292C126.479 45.2713 127.059 45.7429 127.529 46.3156C128.187 47.1213 128.593 48.1047 128.695 49.1417C128.669 48.1416 128.964 47.1596 129.537 46.3403C130.002 45.6803 130.631 45.1544 131.363 44.8153C130.823 44.4596 130.341 44.0242 129.931 43.5238C129.302 42.6665 128.895 41.6657 128.747 40.6114Z" fill="#CAD3FD"/>
<path d="M213.712 88.273C213.83 89.6427 213.507 91.0144 212.79 92.1864C212.097 93.2765 211.092 94.1318 209.907 94.6405C211.043 95.2161 212.021 96.0611 212.757 97.102C213.493 98.1429 213.965 99.3482 214.131 100.613C214.044 99.1729 214.422 97.7426 215.209 96.5338C215.834 95.5612 216.71 94.7759 217.743 94.2609C216.961 93.7629 216.261 93.1463 215.667 92.4332C214.683 91.2297 214.011 89.8004 213.712 88.273Z" fill="#CAD3FD"/>
<path d="M6.02872 70.6333C6.15282 71.9967 5.82914 73.3634 5.10698 74.5254C4.4296 75.6557 3.42199 76.5499 2.22081 77.0865C3.35635 77.6622 4.3346 78.5071 5.07063 79.548C5.80666 80.5889 6.27823 81.7943 6.4444 83.0595C6.36914 81.7696 6.67065 80.4857 7.31198 79.365C7.95331 78.2442 8.90663 77.3354 10.0551 76.7498C9.27319 76.2517 8.5729 75.6351 7.97916 74.9221C6.9708 73.6854 6.29886 72.2079 6.02872 70.6333Z" fill="#CAD3FD"/>
<path d="M198.276 66.0168C198.335 66.9655 198.078 67.9071 197.545 68.6933C197.04 69.4405 196.32 70.0148 195.48 70.3389C196.129 70.6827 196.702 71.154 197.165 71.7246C197.824 72.5325 198.236 73.5141 198.352 74.5514C198.327 73.5513 198.622 72.5693 199.195 71.75C199.667 71.0972 200.295 70.573 201.02 70.225C200.481 69.8693 199.998 69.4339 199.589 68.9335C198.913 68.0879 198.461 67.0845 198.276 66.0168Z" fill="#CAD3FD"/>
<defs>
<filter id="filter0_d" x="41.6016" y="138.135" width="161.521" height="49.7187" filterUnits="userSpaceOnUse" color-interpolation-filters="sRGB">
<feFlood flood-opacity="0" result="BackgroundImageFix"/>
<feColorMatrix in="SourceAlpha" type="matrix" values="0 0 0 0 0 0 0 0 0 0 0 0 0 0 0 0 0 0 127 0"/>
<feOffset dy="4"/>
<feGaussianBlur stdDeviation="2"/>
<feColorMatrix type="matrix" values="0 0 0 0 0 0 0 0 0 0 0 0 0 0 0 0 0 0 0.25 0"/>
<feBlend mode="normal" in2="BackgroundImageFix" result="effect1_dropShadow"/>
<feBlend mode="normal" in="SourceGraphic" in2="effect1_dropShadow" result="shape"/>
</filter>
</defs>
</svg>
