<svg width="334" height="207" viewBox="0 0 334 207" fill="none" xmlns="http://www.w3.org/2000/svg">
<g filter="url(#filter0_d)">
<rect x="88.687" y="150.135" width="153.521" height="41.7187" rx="10" fill="#7C8294"/>
<path d="M118.417 168.742L116.779 176.896C116.419 178.66 115.753 179.944 114.781 180.748C113.809 181.564 112.495 181.972 110.839 181.972C108.955 181.972 107.455 181.534 106.339 180.658L107.509 178.966C107.881 179.29 108.373 179.548 108.985 179.74C109.609 179.944 110.275 180.046 110.983 180.046C112.015 180.046 112.807 179.818 113.359 179.362C113.911 178.906 114.277 178.21 114.457 177.274L114.547 176.806C113.683 177.55 112.633 177.922 111.397 177.922C110.569 177.922 109.825 177.76 109.165 177.436C108.517 177.112 108.007 176.65 107.635 176.05C107.275 175.45 107.095 174.748 107.095 173.944C107.095 172.96 107.329 172.066 107.797 171.262C108.265 170.446 108.913 169.804 109.741 169.336C110.581 168.868 111.517 168.634 112.549 168.634C113.305 168.634 113.983 168.778 114.583 169.066C115.183 169.342 115.639 169.762 115.951 170.326L116.257 168.742H118.417ZM111.901 176.014C112.537 176.014 113.101 175.876 113.593 175.6C114.097 175.312 114.487 174.922 114.763 174.43C115.051 173.926 115.195 173.362 115.195 172.738C115.195 172.054 114.973 171.52 114.529 171.136C114.085 170.74 113.467 170.542 112.675 170.542C112.039 170.542 111.469 170.686 110.965 170.974C110.461 171.25 110.065 171.64 109.777 172.144C109.501 172.636 109.363 173.194 109.363 173.818C109.363 174.49 109.585 175.024 110.029 175.42C110.485 175.816 111.109 176.014 111.901 176.014ZM123.247 169.984C123.667 169.492 124.177 169.144 124.777 168.94C125.389 168.736 126.115 168.634 126.955 168.634L126.541 170.776C126.337 170.74 126.151 170.722 125.983 170.722C124.147 170.722 123.037 171.688 122.653 173.62L121.699 178.354H119.449L121.357 168.742H123.499L123.247 169.984ZM131.584 178.48C130.648 178.48 129.826 178.306 129.118 177.958C128.422 177.598 127.882 177.1 127.498 176.464C127.114 175.828 126.922 175.09 126.922 174.25C126.922 173.182 127.162 172.222 127.642 171.37C128.134 170.518 128.812 169.852 129.676 169.372C130.552 168.88 131.536 168.634 132.628 168.634C133.564 168.634 134.386 168.808 135.094 169.156C135.802 169.504 136.348 169.996 136.732 170.632C137.116 171.268 137.308 172.006 137.308 172.846C137.308 173.914 137.062 174.874 136.57 175.726C136.078 176.578 135.394 177.25 134.518 177.742C133.654 178.234 132.676 178.48 131.584 178.48ZM131.728 176.554C132.364 176.554 132.928 176.404 133.42 176.104C133.924 175.792 134.32 175.366 134.608 174.826C134.896 174.274 135.04 173.65 135.04 172.954C135.04 172.198 134.818 171.61 134.374 171.19C133.93 170.758 133.306 170.542 132.502 170.542C131.866 170.542 131.296 170.698 130.792 171.01C130.3 171.31 129.91 171.736 129.622 172.288C129.334 172.828 129.19 173.446 129.19 174.142C129.19 174.898 129.412 175.492 129.856 175.924C130.3 176.344 130.924 176.554 131.728 176.554ZM149.666 168.742L147.74 178.354H145.598L145.814 177.292C144.95 178.084 143.864 178.48 142.556 178.48C141.5 178.48 140.654 178.198 140.018 177.634C139.394 177.058 139.082 176.254 139.082 175.222C139.082 174.838 139.124 174.454 139.208 174.07L140.27 168.742H142.52L141.458 174.016C141.41 174.256 141.386 174.502 141.386 174.754C141.386 175.318 141.542 175.75 141.854 176.05C142.178 176.35 142.658 176.5 143.294 176.5C144.11 176.5 144.788 176.272 145.328 175.816C145.868 175.348 146.228 174.652 146.408 173.728L147.416 168.742H149.666ZM157.67 168.634C158.462 168.634 159.176 168.802 159.812 169.138C160.46 169.474 160.97 169.96 161.342 170.596C161.714 171.232 161.9 171.982 161.9 172.846C161.9 173.914 161.66 174.88 161.18 175.744C160.712 176.596 160.064 177.268 159.236 177.76C158.42 178.24 157.508 178.48 156.5 178.48C155.744 178.48 155.084 178.348 154.52 178.084C153.956 177.82 153.518 177.436 153.206 176.932L152.234 181.846H149.984L152.594 168.742H154.736L154.538 169.75C155.378 169.006 156.422 168.634 157.67 168.634ZM156.32 176.554C156.956 176.554 157.52 176.404 158.012 176.104C158.516 175.792 158.912 175.366 159.2 174.826C159.488 174.274 159.632 173.65 159.632 172.954C159.632 172.198 159.41 171.61 158.966 171.19C158.522 170.758 157.898 170.542 157.094 170.542C156.458 170.542 155.888 170.698 155.384 171.01C154.892 171.31 154.502 171.736 154.214 172.288C153.926 172.828 153.782 173.446 153.782 174.142C153.782 174.898 154.004 175.492 154.448 175.924C154.892 176.344 155.516 176.554 156.32 176.554ZM166.301 178.48C165.485 178.48 164.705 178.384 163.961 178.192C163.229 177.988 162.659 177.736 162.251 177.436L163.187 175.708C163.583 175.996 164.081 176.224 164.681 176.392C165.281 176.56 165.899 176.644 166.535 176.644C167.255 176.644 167.795 176.548 168.155 176.356C168.527 176.152 168.713 175.864 168.713 175.492C168.713 175.204 168.557 174.994 168.245 174.862C167.945 174.73 167.465 174.592 166.805 174.448C166.121 174.316 165.557 174.178 165.113 174.034C164.681 173.878 164.303 173.632 163.979 173.296C163.667 172.948 163.511 172.474 163.511 171.874C163.511 170.878 163.925 170.092 164.753 169.516C165.593 168.928 166.703 168.634 168.083 168.634C168.743 168.634 169.385 168.712 170.009 168.868C170.633 169.012 171.143 169.21 171.539 169.462L170.711 171.19C170.315 170.938 169.865 170.752 169.361 170.632C168.869 170.512 168.371 170.452 167.867 170.452C167.159 170.452 166.619 170.56 166.247 170.776C165.887 170.992 165.707 171.274 165.707 171.622C165.707 171.934 165.863 172.162 166.175 172.306C166.499 172.438 166.997 172.576 167.669 172.72C168.341 172.852 168.893 172.996 169.325 173.152C169.757 173.296 170.129 173.536 170.441 173.872C170.753 174.208 170.909 174.664 170.909 175.24C170.909 176.272 170.489 177.07 169.649 177.634C168.809 178.198 167.693 178.48 166.301 178.48ZM177.041 178.48C176.105 178.48 175.283 178.306 174.575 177.958C173.879 177.598 173.339 177.1 172.955 176.464C172.571 175.828 172.379 175.09 172.379 174.25C172.379 173.182 172.619 172.222 173.099 171.37C173.591 170.518 174.269 169.852 175.133 169.372C176.009 168.88 176.993 168.634 178.085 168.634C179.021 168.634 179.843 168.808 180.551 169.156C181.259 169.504 181.805 169.996 182.189 170.632C182.573 171.268 182.765 172.006 182.765 172.846C182.765 173.914 182.519 174.874 182.027 175.726C181.535 176.578 180.851 177.25 179.975 177.742C179.111 178.234 178.133 178.48 177.041 178.48ZM177.185 176.554C177.821 176.554 178.385 176.404 178.877 176.104C179.381 175.792 179.777 175.366 180.065 174.826C180.353 174.274 180.497 173.65 180.497 172.954C180.497 172.198 180.275 171.61 179.831 171.19C179.387 170.758 178.763 170.542 177.959 170.542C177.323 170.542 176.753 170.698 176.249 171.01C175.757 171.31 175.367 171.736 175.079 172.288C174.791 172.828 174.647 173.446 174.647 174.142C174.647 174.898 174.869 175.492 175.313 175.924C175.757 176.344 176.381 176.554 177.185 176.554ZM195.123 168.742L193.197 178.354H191.055L191.271 177.292C190.407 178.084 189.321 178.48 188.013 178.48C186.957 178.48 186.111 178.198 185.475 177.634C184.851 177.058 184.539 176.254 184.539 175.222C184.539 174.838 184.581 174.454 184.665 174.07L185.727 168.742H187.977L186.915 174.016C186.867 174.256 186.843 174.502 186.843 174.754C186.843 175.318 186.999 175.75 187.311 176.05C187.635 176.35 188.115 176.5 188.751 176.5C189.567 176.5 190.245 176.272 190.785 175.816C191.325 175.348 191.685 174.652 191.865 173.728L192.873 168.742H195.123ZM199.941 169.984C200.361 169.492 200.871 169.144 201.471 168.94C202.083 168.736 202.809 168.634 203.649 168.634L203.235 170.776C203.031 170.74 202.845 170.722 202.677 170.722C200.841 170.722 199.731 171.688 199.347 173.62L198.393 178.354H196.143L198.051 168.742H200.193L199.941 169.984ZM208.331 178.48C207.383 178.48 206.549 178.306 205.829 177.958C205.121 177.598 204.575 177.1 204.191 176.464C203.807 175.828 203.615 175.09 203.615 174.25C203.615 173.182 203.861 172.222 204.353 171.37C204.845 170.518 205.523 169.852 206.387 169.372C207.263 168.88 208.259 168.634 209.375 168.634C210.347 168.634 211.181 168.826 211.877 169.21C212.585 169.582 213.131 170.14 213.515 170.884L211.589 171.874C211.145 170.986 210.347 170.542 209.195 170.542C208.559 170.542 207.989 170.698 207.485 171.01C206.993 171.31 206.603 171.736 206.315 172.288C206.027 172.828 205.883 173.446 205.883 174.142C205.883 174.898 206.105 175.492 206.549 175.924C206.993 176.344 207.623 176.554 208.439 176.554C208.991 176.554 209.489 176.446 209.933 176.23C210.377 176.002 210.755 175.666 211.067 175.222L212.723 176.338C212.279 177.01 211.667 177.538 210.887 177.922C210.107 178.294 209.255 178.48 208.331 178.48ZM223.906 172.846C223.906 173.314 223.858 173.77 223.762 174.214H216.13C216.166 175.786 217.09 176.572 218.902 176.572C219.454 176.572 219.97 176.488 220.45 176.32C220.93 176.14 221.338 175.894 221.674 175.582L222.61 177.148C222.118 177.592 221.524 177.928 220.828 178.156C220.144 178.372 219.424 178.48 218.668 178.48C217.708 178.48 216.868 178.306 216.148 177.958C215.44 177.61 214.894 177.118 214.51 176.482C214.126 175.834 213.934 175.09 213.934 174.25C213.934 173.182 214.168 172.222 214.636 171.37C215.116 170.506 215.776 169.834 216.616 169.354C217.468 168.874 218.422 168.634 219.478 168.634C220.822 168.634 221.896 169.012 222.7 169.768C223.504 170.512 223.906 171.538 223.906 172.846ZM219.37 170.434C218.614 170.434 217.966 170.638 217.426 171.046C216.898 171.454 216.532 172.012 216.328 172.72H221.836C221.848 172 221.626 171.442 221.17 171.046C220.726 170.638 220.126 170.434 219.37 170.434Z" fill="white"/>
</g>
<path opacity="0.5" d="M218.515 63.5066L116.697 126.774C148.416 134.114 181.476 133.249 212.774 124.26L218.515 63.5066Z" fill="#F9AD5A"/>
<path d="M119.87 126.323C127.294 123.964 134.877 122.142 142.56 120.869C165.491 117.139 188.937 118.11 211.482 123.723C181.642 132.271 150.141 133.165 119.87 126.323Z" fill="#F9AD5A"/>
<path opacity="0.7" d="M141.385 30.5564L116.775 126.775C127.469 129.266 138.358 130.823 149.321 131.428C170.747 132.591 192.217 130.169 212.851 124.261C189.008 93.0185 165.186 61.7835 141.385 30.5564Z" fill="#F9AD5A"/>
<path d="M122.279 24.3196C127.155 21.5393 132.437 19.5466 137.931 18.4148C145.047 16.4355 152.42 15.5416 159.801 15.7632C166.202 16.0857 172.071 16.3688 172.53 18.5923C173.515 22.3769 159.02 30.0785 146.124 34.1037C130.874 38.8644 111.714 40.3852 110.324 35.9652C109.166 32.2605 121.053 25.1787 122.279 24.3196Z" fill="#B76DE2" stroke="#B76DE2" stroke-width="0.2" stroke-miterlimit="10" stroke-linecap="round"/>
<path d="M139.038 22.1615C126.939 25.3775 113.755 33.509 114.876 37.6841C115.996 41.8592 132.462 42.2843 145.492 38.7138C157.056 35.5227 170.559 28.0665 169.504 23.8293C168.45 19.5921 152.304 18.5561 139.038 22.1615Z" fill="#D7E7F7" stroke="white" stroke-width="0.2" stroke-miterlimit="10" stroke-linecap="round"/>
<path d="M110.423 36.0332L113.046 42.5526C118.326 43.6749 123.71 44.2297 129.107 44.2075C136.397 44.174 151.561 43.8694 165.187 34.0163C168.551 31.5772 171.597 28.7272 174.258 25.5321L172.659 19.0471C165.055 27.6437 155.121 33.8353 144.069 36.8667C133.017 39.8981 121.326 39.6383 110.42 36.1189L110.423 36.0332Z" fill="#944BC9" stroke="#8B43BF" stroke-width="0.2" stroke-miterlimit="10" stroke-linecap="round"/>
<path d="M55.1519 59.5981L54.9315 66.1505C55.2416 66.6392 55.6231 67.0784 56.0633 67.4534C57.3564 68.4909 58.9724 69.0385 60.6281 69.0004C60.6886 67.2017 60.7491 65.403 60.8088 63.6257L55.1519 59.5981Z" fill="#A46ED3" stroke="#8B43BF" stroke-width="0.2" stroke-miterlimit="10" stroke-linecap="round"/>
<path d="M114.065 41.4937L113.874 38.9147L60.7649 63.5179L60.5173 68.976L114.065 41.4937Z" fill="#9861D1" stroke="#8B43BF" stroke-width="0.2" stroke-miterlimit="10" stroke-linecap="round"/>
<path d="M111.463 38.2331C111.911 38.1608 112.367 38.1762 112.809 38.2783C113.192 38.3962 113.554 38.5748 113.881 38.8074L60.7683 63.5177C59.4291 62.9465 58.1803 62.1823 57.0614 61.2493C56.3933 60.7006 55.777 60.0914 55.2202 59.4295L111.463 38.2331Z" fill="#944BC9" stroke="#8B43BF" stroke-width="0.2" stroke-miterlimit="10" stroke-linecap="round"/>
<path d="M236.33 61.8551C232.593 59.373 228.486 57.5053 224.162 56.3224C218.587 54.3738 212.752 53.2743 206.851 53.0606C201.685 52.8868 197.024 52.9016 196.453 54.6402C195.477 57.6086 206.615 64.5215 216.679 68.44C228.598 73.1283 243.743 75.3098 245.163 71.8633C246.374 68.9028 237.269 62.5298 236.33 61.8551Z" fill="#92BCD3" stroke="#6D94AF" stroke-width="0.2" stroke-miterlimit="10" stroke-linecap="round"/>
<path d="M223.058 59.2427C232.566 62.5208 242.629 69.6335 241.514 72.9187C240.399 76.204 227.23 75.6539 217.026 72.0951C207.962 68.9392 197.606 62.2669 198.638 58.9359C199.669 55.6049 212.684 55.6568 223.058 59.2427Z" fill="#DAE8F7" stroke="white" stroke-width="0.2" stroke-miterlimit="10" stroke-linecap="round"/>
<path d="M245.163 71.8633L242.73 76.8407C238.478 77.4498 234.174 77.5997 229.89 77.2878C224.07 76.8562 211.986 75.8067 201.631 67.2051C199.086 65.0749 196.806 62.6446 194.842 59.9668L196.466 54.8765C202.076 62.1443 209.672 67.6195 218.329 70.6357C226.986 73.652 236.331 74.0792 245.227 71.8654L245.163 71.8633Z" fill="#7499B7" stroke="#6D94AF" stroke-width="0.2" stroke-miterlimit="10" stroke-linecap="round"/>
<path d="M288.03 93.627L287.854 98.8732C287.567 99.241 287.232 99.5686 286.859 99.8473C285.78 100.611 284.464 100.962 283.149 100.837L283.293 96.5547L288.03 93.627Z" fill="#9EC4DD" stroke="#6D94AF" stroke-width="0.2" stroke-miterlimit="10" stroke-linecap="round"/>
<path d="M241.942 75.999L242.246 73.9513L283.319 96.4483L283.214 100.839L241.942 75.999Z" fill="#89B1CC" stroke="#6D94AF" stroke-width="0.2" stroke-miterlimit="10" stroke-linecap="round"/>
<path d="M244.225 73.5456C243.874 73.4757 243.513 73.4636 243.158 73.5096C242.84 73.5872 242.535 73.7067 242.248 73.8649L283.32 96.3834C284.419 95.972 285.459 95.4158 286.411 94.7295C286.969 94.3199 287.492 93.8642 287.975 93.3672L244.225 73.5456Z" fill="#7499B7" stroke="#6D94AF" stroke-width="0.2" stroke-miterlimit="10" stroke-linecap="round"/>
<path d="M161.372 127.354C173.128 127.749 182.98 118.512 183.376 106.721C183.773 94.9304 174.564 85.0517 162.808 84.6563C151.052 84.2609 141.201 93.4986 140.804 105.289C140.407 117.08 149.616 126.959 161.372 127.354Z" fill="#6D9ABF"/>
<path d="M145.176 95.2328C144.687 96.0358 144.475 96.9778 144.573 97.9136C144.561 98.2562 144.768 99.7423 145.509 99.9602C146.249 100.178 147.566 97.8856 148.605 98.135C149.644 98.3843 149.373 100.733 150.369 100.981C151.365 101.229 151.787 99.4853 153.031 99.3771C154.788 99.2432 157.203 102.411 156.409 103.778C155.615 105.145 150.878 104.278 150.466 105.722C150.177 106.677 152.102 107.921 152.393 108.166C152.684 108.412 156.681 110.947 159.535 108.728C160.443 107.939 161.076 106.88 161.342 105.706C161.609 104.531 161.494 103.301 161.015 102.197C160.062 100.021 158.129 100.32 157.758 98.6357C157.355 96.6285 159.994 95.7097 160.095 92.7118C160.148 91.1273 159.579 88.9644 158.373 88.6023C156.532 88.0473 155.529 92.4511 151.125 93.7607C148.379 94.6974 146.297 93.6841 145.176 95.2328Z" fill="#57BC74"/>
<path d="M169.901 105.517C167.369 105.818 166.106 109.677 165.159 109.238C164.212 108.799 165.057 106.534 164.34 106.252C163.623 105.971 161.458 108.063 161.851 109.727C162.244 111.391 165.35 111.817 166.053 111.884C169.695 112.285 173.932 110.219 173.934 108.268C173.766 106.891 171.617 105.318 169.901 105.517Z" fill="#57BC74"/>
<path d="M166.64 95.1179C164.75 96.6621 162.65 96.1842 162.543 96.8237C162.436 97.4632 164.281 98.5328 166.424 98.9908C170.861 99.9117 172.555 97.1819 176.483 97.9785C179.901 98.6723 181.478 101.341 182.138 100.784C182.798 100.227 180.181 95.4232 179.592 94.5031C178.032 91.9639 176.976 90.3206 174.869 89.3922C174.343 89.1602 171.706 88.1068 170.236 89.2364C169.534 89.7916 169.751 90.3134 168.726 92.2083C168.227 93.3054 167.518 94.2939 166.64 95.1179Z" fill="#57BC74"/>
<path d="M178.371 107.947C178.243 107.943 178.48 108.508 178.324 109.36C178.24 109.989 177.983 110.582 177.582 111.072C176.846 111.99 176.037 111.899 175.977 112.411C175.917 112.924 176.683 113.657 177.41 113.66C178.477 113.696 179.426 112.163 179.641 110.862C179.688 110.309 179.596 109.752 179.374 109.243C179.152 108.734 178.808 108.289 178.371 107.947Z" fill="#57BC74"/>
<path d="M173.206 112.188C173.552 112.049 174.065 112.067 174.166 112.22C174.268 112.374 174.021 112.73 173.956 112.77C173.511 113.291 172.587 113.432 172.425 113.169C172.262 112.906 172.665 112.384 173.206 112.188Z" fill="#57BC74"/>
<path d="M145.03 103.91C144.372 104.432 143.935 105.182 143.805 106.013C143.797 106.227 143.418 107.35 143.753 107.533C144.089 107.716 144.656 106.749 145.948 105.827C147.24 104.906 148.677 104.762 148.668 104.397C148.659 104.032 146.473 102.93 145.03 103.91Z" fill="#57BC74"/>
<path d="M142.465 101.037C142.153 102.034 141.714 102.383 141.885 103.032C141.885 103.032 142.018 103.508 142.293 103.603C142.568 103.698 143.181 103.247 143.381 103.04C144.022 102.397 143.998 101.838 144.451 101.725C144.904 101.612 144.893 101.911 145.276 101.967C146.423 102.177 147.75 100.228 147.478 100.048C147.206 99.8669 146.377 101.018 145.49 100.688C145.005 100.5 145.04 100.094 144.287 99.5973C144.016 99.3952 143.326 98.9432 142.891 99.1644C142.456 99.3856 142.845 99.8918 142.465 101.037Z" fill="#57BC74"/>
<path d="M174.276 98.6334C173.867 98.6936 173.472 98.8255 173.109 99.0229C172.215 99.5288 171.496 100.576 171.718 100.97C171.94 101.363 172.978 101.012 173.859 100.849C175.238 100.531 175.42 100.215 176.166 100.262C177.298 100.3 177.888 101.177 178.065 100.99C178.243 100.803 177.766 99.7155 176.868 99.0851C176.087 98.6262 175.166 98.4658 174.276 98.6334Z" fill="#57BC74"/>
<path d="M162.682 95.3714C163.074 95.4729 163.489 95.4177 163.841 95.2175C164.564 94.7059 164.583 93.4846 164.248 93.2804C163.913 93.0762 163.902 93.4188 163.586 93.2581C163.271 93.0975 163.138 92.5999 162.988 92.6163C162.838 92.6327 162.969 93.1731 162.714 93.7862C162.458 94.3992 161.916 94.6168 161.992 94.9195C162.067 95.2221 162.533 95.345 162.682 95.3714Z" fill="#57BC74"/>
<path d="M162.695 91.063C162.687 91.2771 163.158 91.2715 163.504 91.7762C163.851 92.2809 163.661 92.1888 163.85 92.3023C164.038 92.4158 164.473 92.1947 164.725 92.3318C164.977 92.4689 164.681 93.6594 165.015 93.885C165.349 94.1106 165.899 93.6575 166.234 93.2186C166.405 92.9651 166.522 92.6798 166.58 92.3797C166.638 92.0796 166.635 91.7709 166.571 91.472C166.303 90.5412 165.513 90.5146 165.348 89.6945C165.184 88.8743 166.02 88.1522 165.854 87.9965C165.689 87.8409 162.294 90.2777 162.695 91.063Z" fill="#57BC74"/>
<path d="M163.546 112.099C163.768 111.85 164.186 112.121 165.357 112.268C167.165 112.543 167.816 112.243 168.268 112.794C168.719 113.345 168.43 113.679 168.766 113.861C169.416 114.226 170.47 112.783 171.058 113.081C171.646 113.379 171.319 114.848 170.969 115.715C170.577 116.851 169.936 117.884 169.094 118.739C168.689 119.245 168.221 119.698 167.702 120.085C166.59 120.638 165.343 120.856 164.111 120.711C162.879 120.567 161.715 120.068 160.761 119.273C160.779 118.738 165.748 119.719 166.38 118.069C166.463 117.762 166.454 117.439 166.354 117.138C166.254 116.837 166.067 116.572 165.817 116.378C165.109 115.839 164.365 116.329 162.786 116.276C161.206 116.222 159.946 115.558 159.977 115.259C160.008 114.96 163.222 115.368 163.714 114.099C164.121 113.426 163.254 112.518 163.546 112.099Z" fill="#57BC74"/>
<path d="M157.899 110.387C156.866 110.61 156.256 110.332 156.16 110.629C156.065 110.926 156.491 110.961 156.961 111.599C157.431 112.236 157.414 112.75 157.752 112.869C158.09 112.987 159.202 112.339 159.467 111.447C159.589 111.001 159.613 110.295 159.278 110.069C158.944 109.843 158.739 110.201 157.899 110.387Z" fill="#57BC74"/>
<path d="M154.959 110.14C155.02 110.266 155.054 110.404 155.059 110.544C155.065 110.684 155.041 110.824 154.991 110.955C154.94 111.085 154.864 111.205 154.766 111.305C154.668 111.405 154.55 111.484 154.421 111.536C154.289 111.556 154.155 111.549 154.026 111.516C153.898 111.482 153.777 111.423 153.672 111.341C153.567 111.26 153.479 111.157 153.414 111.041C153.35 110.924 153.31 110.795 153.296 110.663C153.356 110.15 154.63 109.764 154.959 110.14Z" fill="#57BC74"/>
<path d="M155.477 111.164C155.802 111.025 156.679 111.612 156.693 112.492C156.706 113.371 156.025 113.927 155.665 113.829C155.306 113.731 154.935 111.403 155.477 111.164Z" fill="#57BC74"/>
<path d="M165.555 107.666C165.555 107.666 165.739 107.287 165.871 106.519C166.004 105.752 165.905 105.513 165.916 105.192C166.303 104.497 168.08 104.407 168.214 104.883C168.347 105.359 165.74 107.887 165.555 107.666Z" fill="#57BC74"/>
<path d="M168.4 103.709C168.393 103.902 168.754 103.978 168.827 104.345C168.9 104.712 168.681 104.876 168.804 105.03C168.987 105.162 169.211 105.223 169.435 105.203C169.66 105.183 169.869 105.083 170.026 104.921C170.114 104.813 170.179 104.689 170.218 104.556C170.257 104.423 170.269 104.283 170.254 104.145C170.238 104.007 170.196 103.873 170.129 103.751C170.062 103.63 169.971 103.523 169.862 103.437C169.278 103.031 168.431 103.431 168.4 103.709Z" fill="#57BC74"/>
<path d="M150.612 122.254C150.626 121.826 151.81 121.565 152.767 121.726C153.723 121.887 154.205 122.803 155.823 123.651C156.595 124.02 157.413 124.285 158.254 124.44C159.738 124.812 161.603 125.282 162.097 124.569C162.366 124.193 162.126 123.713 162.304 123.504C162.482 123.296 163.253 123.879 164.419 124.176C165.289 124.417 166.215 124.366 167.053 124.029C167.813 123.668 167.676 123.299 168.279 123.148C168.883 122.997 169.591 123.557 170.851 123.599C171.47 123.62 171.824 123.267 172.052 123.468C172.28 123.669 172.024 124.303 172.02 124.431C171.472 126.085 166.173 127.3 161.022 126.656C158.715 126.33 156.468 125.662 154.356 124.673C153.134 124.139 150.459 122.978 150.612 122.254Z" fill="white"/>
<path d="M155.943 86.3763C155.533 86.5126 154.257 86.9413 154.143 87.795C154.113 87.9681 154.131 88.1459 154.193 88.31C154.255 88.4742 154.36 88.6187 154.496 88.7286C155.084 89.0485 155.804 87.9794 157.384 87.3894C158.964 86.7995 160.276 87.208 160.304 86.9946C159.68 86.5488 158.958 86.2599 158.199 86.1523C157.44 86.0447 156.666 86.1215 155.943 86.3763Z" fill="white"/>
<path d="M159.883 85.7377C159.877 85.909 161.177 86.017 161.205 86.4467C161.234 86.8764 160.267 87.0368 160.296 87.4237C160.326 87.8106 161.173 88.0534 161.897 88.1206C162.648 88.1411 163.395 88.0056 164.091 87.7228C165.667 87.2399 166.259 86.8096 166.677 87.1023C167.094 87.3951 166.781 87.8133 167.155 88.126C167.529 88.4387 168.692 88.1777 169.302 87.8552C169.911 87.5327 170.088 87.3671 170.077 87.0452C170.099 86.3814 167.866 86.049 166.548 85.8332C164.354 85.3667 162.09 85.3343 159.883 85.7377Z" fill="white"/>
<path d="M153.411 87.5345C153.576 87.733 153.266 88.0441 153.379 88.4981C153.554 88.7534 153.796 88.9554 154.079 89.0821C154.361 89.2088 154.672 89.2553 154.979 89.2165C155.406 89.2308 155.629 88.9596 155.67 89.0039C155.712 89.0481 155.123 90.0359 154.104 90.4518C153.205 90.7015 152.251 90.6695 151.371 90.3599C150.289 90.1306 149.652 90.002 149.557 89.6344C149.393 88.8142 152.895 87.0026 153.411 87.5345Z" fill="white"/>
<path d="M155.423 122.309C155.629 122.579 155.927 122.765 156.261 122.83L157.888 123.378C158.649 123.618 159.071 123.782 160.194 124.098C160.808 124.248 161.063 124.299 161.24 124.134C161.39 123.968 161.476 123.754 161.484 123.531C161.491 123.307 161.419 123.088 161.281 122.913C160.89 122.471 160.252 122.986 158.932 122.834C158.267 122.712 157.62 122.502 157.008 122.212C156.04 121.772 155.539 121.412 155.341 121.577C155.143 121.742 155.282 122.068 155.423 122.309Z" fill="white"/>
<path d="M170.753 122.825C170.747 122.996 172.007 122.396 172.482 122.883C172.629 123.027 172.734 123.208 172.785 123.408C172.777 123.643 172.772 123.793 172.771 123.836C172.769 123.879 173.226 123.637 173.448 123.409C173.669 123.18 174.113 122.681 174.019 122.313C173.924 121.946 173.055 121.723 172.541 121.749C171.492 121.8 170.673 122.651 170.753 122.825Z" fill="white"/>
<path opacity="0.5" d="M139.942 37.1119L141.365 31.0287L145.078 35.6768L145.261 35.9402L145.321 36.0709L143.356 36.6693L140.879 37.2291L139.845 37.4516L139.942 37.1119Z" fill="#F9AD5A"/>
<path opacity="0.35" d="M211.945 67.4232L218.489 63.5059C218.417 65.6472 218.148 67.932 217.967 70.1339L214.613 68.7992L212.509 67.8066L211.945 67.4232Z" fill="#F9AD5A"/>
<path d="M159.515 21.7137C159.568 21.8474 159.592 21.9906 159.588 22.1342C159.583 22.2779 159.549 22.419 159.487 22.5489C158.802 23.8549 155.622 23.0834 151.1 22.8027C145.789 22.474 142.541 23.0722 142.553 22.7296C143.922 22.1302 145.378 21.7523 146.865 21.6098C149.292 21.2804 151.741 21.1335 154.19 21.1702C157.506 21.0674 159.158 20.9085 159.515 21.7137Z" fill="white"/>
<path d="M206.404 58.0605C206.39 58.1481 206.395 58.2376 206.418 58.3232C206.441 58.4088 206.481 58.4888 206.536 58.558C207.007 59.1741 208.382 58.9631 209.305 58.8655C210.822 58.7705 212.345 58.8218 213.852 59.0184C216.436 59.1053 218.099 59.8473 218.104 59.6974C217.333 59.2329 216.493 58.8935 215.616 58.6919C214.404 58.346 213.171 58.0825 211.923 57.9031C210.387 57.458 208.775 57.3381 207.19 57.551C207.019 57.5453 206.479 57.72 206.404 58.0605Z" fill="white"/>
<path d="M80.4221 71.531C80.5028 72.7082 80.2405 73.8837 79.6671 74.9142C79.1212 75.8211 78.3147 76.5413 77.3533 76.9801C78.1054 77.4069 78.7684 77.9751 79.3062 78.6536C80.0795 79.6737 80.5698 80.881 80.7274 82.1528C80.6643 80.9165 80.9658 79.6889 81.5942 78.6233C82.0863 77.7694 82.787 77.0552 83.6305 76.5481C83.0004 76.1109 82.4415 75.5787 81.9736 74.9703C81.1955 73.9613 80.6642 72.7833 80.4221 71.531Z" fill="#CAD3FD"/>
<path d="M217.602 42.8316C217.597 44.1426 217.147 45.4129 216.326 46.4331C215.503 47.4114 214.408 48.121 213.18 48.471C214.081 49.0048 214.876 49.7001 215.526 50.5221C216.4 51.6875 216.918 53.0828 217.016 54.5381C217.041 53.1537 217.547 51.8214 218.446 50.7704C219.186 49.9033 220.136 49.2414 221.204 48.848C220.432 48.3049 219.735 47.6615 219.131 46.9347C218.275 45.723 217.748 44.3092 217.602 42.8316Z" fill="#CAD3FD"/>
<path d="M223.657 96.0716C223.755 97.067 223.469 98.062 222.859 98.853C222.213 99.6487 221.355 100.244 220.385 100.571C221.162 100.905 221.87 101.379 222.476 101.97C223.298 102.734 223.85 103.746 224.046 104.853C223.99 103.802 224.322 102.768 224.977 101.947C225.566 101.242 226.319 100.693 227.169 100.349C226.513 100 225.909 99.5616 225.374 99.0448C224.529 98.2398 223.933 97.2076 223.657 96.0716Z" fill="#CAD3FD"/>
<path d="M111.321 75.894C111.451 77.4521 111.077 79.0108 110.253 80.3384C109.468 81.5931 108.315 82.573 106.952 83.1429C108.024 83.6912 108.973 84.4525 109.741 85.3804C110.824 86.6982 111.511 88.2974 111.723 89.9918C111.63 88.3469 112.067 86.7155 112.97 85.3389C113.689 84.2324 114.684 83.3345 115.858 82.7349C114.963 82.1754 114.164 81.4754 113.491 80.6617C112.374 79.284 111.627 77.6428 111.321 75.894Z" fill="#CAD3FD"/>
<path d="M98.1526 104.005C98.2501 104.928 98.0141 105.856 97.4876 106.619C96.9419 107.374 96.1759 107.94 95.2957 108.239C95.964 108.556 96.5658 108.998 97.0687 109.542C97.7641 110.29 98.2168 111.232 98.3671 112.244C98.318 111.274 98.5989 110.316 99.1639 109.527C99.6307 108.869 100.26 108.343 100.989 108.002C100.249 107.576 99.6047 107.001 99.0979 106.312C98.5912 105.623 98.2329 104.836 98.0459 104.001L98.1526 104.005Z" fill="#CAD3FD"/>
<path d="M94.872 48.3506C94.9845 49.6695 94.6769 50.9903 93.9935 52.123C93.3102 53.2556 92.2863 54.1417 91.0691 54.6539C92.2122 55.2472 93.1915 56.1144 93.9201 57.1785C94.6487 58.2427 95.104 59.4708 95.2457 60.7539C95.1712 59.3146 95.5481 57.8879 96.3234 56.6742C96.978 55.7069 97.8833 54.9368 98.9418 54.447C98.1599 53.949 97.4596 53.3324 96.8658 52.6194C95.8514 51.3888 95.1654 49.92 94.872 48.3506Z" fill="#CAD3FD"/>
<path d="M271.156 73.1014C271.26 74.2399 270.972 75.38 270.342 76.3325C269.727 77.2601 268.846 77.9782 267.814 78.3912C268.604 78.7927 269.311 79.3401 269.898 80.0048C270.74 80.9433 271.288 82.1099 271.473 83.3591C271.407 82.1594 271.74 80.9717 272.42 79.9824C272.984 79.175 273.741 78.5223 274.622 78.0842C273.942 77.6774 273.325 77.1728 272.791 76.5864C271.958 75.5842 271.395 74.3843 271.156 73.1014Z" fill="#CAD3FD"/>
<path d="M171.832 52.6114C171.874 53.5583 171.618 54.4946 171.101 55.2879C170.561 56.0536 169.794 56.6282 168.908 56.9292C169.564 57.2713 170.145 57.7429 170.614 58.3156C171.273 59.1213 171.679 60.1047 171.78 61.1417C171.755 60.1416 172.05 59.1596 172.623 58.3403C173.087 57.6803 173.717 57.1544 174.448 56.8153C173.909 56.4596 173.426 56.0242 173.017 55.5238C172.387 54.6665 171.98 53.6657 171.832 52.6114Z" fill="#CAD3FD"/>
<path d="M256.798 100.273C256.915 101.643 256.592 103.014 255.875 104.186C255.182 105.277 254.178 106.132 252.993 106.64C254.128 107.216 255.107 108.061 255.843 109.102C256.579 110.143 257.05 111.348 257.216 112.613C257.13 111.173 257.508 109.743 258.294 108.534C258.919 107.561 259.795 106.776 260.828 106.261C260.047 105.763 259.346 105.146 258.752 104.433C257.768 103.23 257.097 101.8 256.798 100.273Z" fill="#CAD3FD"/>
<path d="M49.1144 82.6333C49.2385 83.9967 48.9148 85.3634 48.1927 86.5254C47.5153 87.6557 46.5077 88.5499 45.3065 89.0865C46.442 89.6622 47.4203 90.5071 48.1563 91.548C48.8924 92.5889 49.3639 93.7943 49.5301 95.0595C49.4548 93.7696 49.7563 92.4857 50.3977 91.365C51.039 90.2442 51.9923 89.3354 53.1408 88.7498C52.3589 88.2517 51.6586 87.6351 51.0649 86.9221C50.0565 85.6854 49.3845 84.2079 49.1144 82.6333Z" fill="#CAD3FD"/>
<path d="M241.362 78.0168C241.421 78.9655 241.164 79.9071 240.631 80.6933C240.126 81.4405 239.406 82.0148 238.566 82.3389C239.215 82.6827 239.788 83.154 240.251 83.7246C240.91 84.5325 241.322 85.5141 241.438 86.5514C241.412 85.5513 241.708 84.5693 242.28 83.75C242.753 83.0972 243.38 82.573 244.106 82.225C243.566 81.8693 243.084 81.4339 242.674 80.9335C241.999 80.0879 241.547 79.0845 241.362 78.0168Z" fill="#CAD3FD"/>
<defs>
<filter id="filter0_d" x="84.687" y="150.135" width="161.521" height="49.7187" filterUnits="userSpaceOnUse" color-interpolation-filters="sRGB">
<feFlood flood-opacity="0" result="BackgroundImageFix"/>
<feColorMatrix in="SourceAlpha" type="matrix" values="0 0 0 0 0 0 0 0 0 0 0 0 0 0 0 0 0 0 127 0"/>
<feOffset dy="4"/>
<feGaussianBlur stdDeviation="2"/>
<feColorMatrix type="matrix" values="0 0 0 0 0 0 0 0 0 0 0 0 0 0 0 0 0 0 0.25 0"/>
<feBlend mode="normal" in2="BackgroundImageFix" result="effect1_dropShadow"/>
<feBlend mode="normal" in="SourceGraphic" in2="effect1_dropShadow" result="shape"/>
</filter>
</defs>
</svg>
