<svg width="334" height="207" viewBox="0 0 334 207" fill="none" xmlns="http://www.w3.org/2000/svg">
<g filter="url(#filter0_d)">
<rect x="88.687" y="147.135" width="153.521" height="41.7187" rx="10" fill="#7C8294"/>
<path d="M118.417 165.742L116.779 173.896C116.419 175.66 115.753 176.944 114.781 177.748C113.809 178.564 112.495 178.972 110.839 178.972C108.955 178.972 107.455 178.534 106.339 177.658L107.509 175.966C107.881 176.29 108.373 176.548 108.985 176.74C109.609 176.944 110.275 177.046 110.983 177.046C112.015 177.046 112.807 176.818 113.359 176.362C113.911 175.906 114.277 175.21 114.457 174.274L114.547 173.806C113.683 174.55 112.633 174.922 111.397 174.922C110.569 174.922 109.825 174.76 109.165 174.436C108.517 174.112 108.007 173.65 107.635 173.05C107.275 172.45 107.095 171.748 107.095 170.944C107.095 169.96 107.329 169.066 107.797 168.262C108.265 167.446 108.913 166.804 109.741 166.336C110.581 165.868 111.517 165.634 112.549 165.634C113.305 165.634 113.983 165.778 114.583 166.066C115.183 166.342 115.639 166.762 115.951 167.326L116.257 165.742H118.417ZM111.901 173.014C112.537 173.014 113.101 172.876 113.593 172.6C114.097 172.312 114.487 171.922 114.763 171.43C115.051 170.926 115.195 170.362 115.195 169.738C115.195 169.054 114.973 168.52 114.529 168.136C114.085 167.74 113.467 167.542 112.675 167.542C112.039 167.542 111.469 167.686 110.965 167.974C110.461 168.25 110.065 168.64 109.777 169.144C109.501 169.636 109.363 170.194 109.363 170.818C109.363 171.49 109.585 172.024 110.029 172.42C110.485 172.816 111.109 173.014 111.901 173.014ZM123.247 166.984C123.667 166.492 124.177 166.144 124.777 165.94C125.389 165.736 126.115 165.634 126.955 165.634L126.541 167.776C126.337 167.74 126.151 167.722 125.983 167.722C124.147 167.722 123.037 168.688 122.653 170.62L121.699 175.354H119.449L121.357 165.742H123.499L123.247 166.984ZM131.584 175.48C130.648 175.48 129.826 175.306 129.118 174.958C128.422 174.598 127.882 174.1 127.498 173.464C127.114 172.828 126.922 172.09 126.922 171.25C126.922 170.182 127.162 169.222 127.642 168.37C128.134 167.518 128.812 166.852 129.676 166.372C130.552 165.88 131.536 165.634 132.628 165.634C133.564 165.634 134.386 165.808 135.094 166.156C135.802 166.504 136.348 166.996 136.732 167.632C137.116 168.268 137.308 169.006 137.308 169.846C137.308 170.914 137.062 171.874 136.57 172.726C136.078 173.578 135.394 174.25 134.518 174.742C133.654 175.234 132.676 175.48 131.584 175.48ZM131.728 173.554C132.364 173.554 132.928 173.404 133.42 173.104C133.924 172.792 134.32 172.366 134.608 171.826C134.896 171.274 135.04 170.65 135.04 169.954C135.04 169.198 134.818 168.61 134.374 168.19C133.93 167.758 133.306 167.542 132.502 167.542C131.866 167.542 131.296 167.698 130.792 168.01C130.3 168.31 129.91 168.736 129.622 169.288C129.334 169.828 129.19 170.446 129.19 171.142C129.19 171.898 129.412 172.492 129.856 172.924C130.3 173.344 130.924 173.554 131.728 173.554ZM149.666 165.742L147.74 175.354H145.598L145.814 174.292C144.95 175.084 143.864 175.48 142.556 175.48C141.5 175.48 140.654 175.198 140.018 174.634C139.394 174.058 139.082 173.254 139.082 172.222C139.082 171.838 139.124 171.454 139.208 171.07L140.27 165.742H142.52L141.458 171.016C141.41 171.256 141.386 171.502 141.386 171.754C141.386 172.318 141.542 172.75 141.854 173.05C142.178 173.35 142.658 173.5 143.294 173.5C144.11 173.5 144.788 173.272 145.328 172.816C145.868 172.348 146.228 171.652 146.408 170.728L147.416 165.742H149.666ZM157.67 165.634C158.462 165.634 159.176 165.802 159.812 166.138C160.46 166.474 160.97 166.96 161.342 167.596C161.714 168.232 161.9 168.982 161.9 169.846C161.9 170.914 161.66 171.88 161.18 172.744C160.712 173.596 160.064 174.268 159.236 174.76C158.42 175.24 157.508 175.48 156.5 175.48C155.744 175.48 155.084 175.348 154.52 175.084C153.956 174.82 153.518 174.436 153.206 173.932L152.234 178.846H149.984L152.594 165.742H154.736L154.538 166.75C155.378 166.006 156.422 165.634 157.67 165.634ZM156.32 173.554C156.956 173.554 157.52 173.404 158.012 173.104C158.516 172.792 158.912 172.366 159.2 171.826C159.488 171.274 159.632 170.65 159.632 169.954C159.632 169.198 159.41 168.61 158.966 168.19C158.522 167.758 157.898 167.542 157.094 167.542C156.458 167.542 155.888 167.698 155.384 168.01C154.892 168.31 154.502 168.736 154.214 169.288C153.926 169.828 153.782 170.446 153.782 171.142C153.782 171.898 154.004 172.492 154.448 172.924C154.892 173.344 155.516 173.554 156.32 173.554ZM166.301 175.48C165.485 175.48 164.705 175.384 163.961 175.192C163.229 174.988 162.659 174.736 162.251 174.436L163.187 172.708C163.583 172.996 164.081 173.224 164.681 173.392C165.281 173.56 165.899 173.644 166.535 173.644C167.255 173.644 167.795 173.548 168.155 173.356C168.527 173.152 168.713 172.864 168.713 172.492C168.713 172.204 168.557 171.994 168.245 171.862C167.945 171.73 167.465 171.592 166.805 171.448C166.121 171.316 165.557 171.178 165.113 171.034C164.681 170.878 164.303 170.632 163.979 170.296C163.667 169.948 163.511 169.474 163.511 168.874C163.511 167.878 163.925 167.092 164.753 166.516C165.593 165.928 166.703 165.634 168.083 165.634C168.743 165.634 169.385 165.712 170.009 165.868C170.633 166.012 171.143 166.21 171.539 166.462L170.711 168.19C170.315 167.938 169.865 167.752 169.361 167.632C168.869 167.512 168.371 167.452 167.867 167.452C167.159 167.452 166.619 167.56 166.247 167.776C165.887 167.992 165.707 168.274 165.707 168.622C165.707 168.934 165.863 169.162 166.175 169.306C166.499 169.438 166.997 169.576 167.669 169.72C168.341 169.852 168.893 169.996 169.325 170.152C169.757 170.296 170.129 170.536 170.441 170.872C170.753 171.208 170.909 171.664 170.909 172.24C170.909 173.272 170.489 174.07 169.649 174.634C168.809 175.198 167.693 175.48 166.301 175.48ZM177.041 175.48C176.105 175.48 175.283 175.306 174.575 174.958C173.879 174.598 173.339 174.1 172.955 173.464C172.571 172.828 172.379 172.09 172.379 171.25C172.379 170.182 172.619 169.222 173.099 168.37C173.591 167.518 174.269 166.852 175.133 166.372C176.009 165.88 176.993 165.634 178.085 165.634C179.021 165.634 179.843 165.808 180.551 166.156C181.259 166.504 181.805 166.996 182.189 167.632C182.573 168.268 182.765 169.006 182.765 169.846C182.765 170.914 182.519 171.874 182.027 172.726C181.535 173.578 180.851 174.25 179.975 174.742C179.111 175.234 178.133 175.48 177.041 175.48ZM177.185 173.554C177.821 173.554 178.385 173.404 178.877 173.104C179.381 172.792 179.777 172.366 180.065 171.826C180.353 171.274 180.497 170.65 180.497 169.954C180.497 169.198 180.275 168.61 179.831 168.19C179.387 167.758 178.763 167.542 177.959 167.542C177.323 167.542 176.753 167.698 176.249 168.01C175.757 168.31 175.367 168.736 175.079 169.288C174.791 169.828 174.647 170.446 174.647 171.142C174.647 171.898 174.869 172.492 175.313 172.924C175.757 173.344 176.381 173.554 177.185 173.554ZM195.123 165.742L193.197 175.354H191.055L191.271 174.292C190.407 175.084 189.321 175.48 188.013 175.48C186.957 175.48 186.111 175.198 185.475 174.634C184.851 174.058 184.539 173.254 184.539 172.222C184.539 171.838 184.581 171.454 184.665 171.07L185.727 165.742H187.977L186.915 171.016C186.867 171.256 186.843 171.502 186.843 171.754C186.843 172.318 186.999 172.75 187.311 173.05C187.635 173.35 188.115 173.5 188.751 173.5C189.567 173.5 190.245 173.272 190.785 172.816C191.325 172.348 191.685 171.652 191.865 170.728L192.873 165.742H195.123ZM199.941 166.984C200.361 166.492 200.871 166.144 201.471 165.94C202.083 165.736 202.809 165.634 203.649 165.634L203.235 167.776C203.031 167.74 202.845 167.722 202.677 167.722C200.841 167.722 199.731 168.688 199.347 170.62L198.393 175.354H196.143L198.051 165.742H200.193L199.941 166.984ZM208.331 175.48C207.383 175.48 206.549 175.306 205.829 174.958C205.121 174.598 204.575 174.1 204.191 173.464C203.807 172.828 203.615 172.09 203.615 171.25C203.615 170.182 203.861 169.222 204.353 168.37C204.845 167.518 205.523 166.852 206.387 166.372C207.263 165.88 208.259 165.634 209.375 165.634C210.347 165.634 211.181 165.826 211.877 166.21C212.585 166.582 213.131 167.14 213.515 167.884L211.589 168.874C211.145 167.986 210.347 167.542 209.195 167.542C208.559 167.542 207.989 167.698 207.485 168.01C206.993 168.31 206.603 168.736 206.315 169.288C206.027 169.828 205.883 170.446 205.883 171.142C205.883 171.898 206.105 172.492 206.549 172.924C206.993 173.344 207.623 173.554 208.439 173.554C208.991 173.554 209.489 173.446 209.933 173.23C210.377 173.002 210.755 172.666 211.067 172.222L212.723 173.338C212.279 174.01 211.667 174.538 210.887 174.922C210.107 175.294 209.255 175.48 208.331 175.48ZM223.906 169.846C223.906 170.314 223.858 170.77 223.762 171.214H216.13C216.166 172.786 217.09 173.572 218.902 173.572C219.454 173.572 219.97 173.488 220.45 173.32C220.93 173.14 221.338 172.894 221.674 172.582L222.61 174.148C222.118 174.592 221.524 174.928 220.828 175.156C220.144 175.372 219.424 175.48 218.668 175.48C217.708 175.48 216.868 175.306 216.148 174.958C215.44 174.61 214.894 174.118 214.51 173.482C214.126 172.834 213.934 172.09 213.934 171.25C213.934 170.182 214.168 169.222 214.636 168.37C215.116 167.506 215.776 166.834 216.616 166.354C217.468 165.874 218.422 165.634 219.478 165.634C220.822 165.634 221.896 166.012 222.7 166.768C223.504 167.512 223.906 168.538 223.906 169.846ZM219.37 167.434C218.614 167.434 217.966 167.638 217.426 168.046C216.898 168.454 216.532 169.012 216.328 169.72H221.836C221.848 169 221.626 168.442 221.17 168.046C220.726 167.638 220.126 167.434 219.37 167.434Z" fill="white"/>
</g>
<path opacity="0.5" d="M218.515 60.5066L116.697 123.774C148.416 131.114 181.476 130.249 212.774 121.26L218.515 60.5066Z" fill="#F9AD5A"/>
<path d="M119.87 123.323C127.294 120.964 134.877 119.142 142.56 117.869C165.491 114.139 188.937 115.11 211.482 120.723C181.642 129.271 150.141 130.165 119.87 123.323Z" fill="#F9AD5A"/>
<path opacity="0.7" d="M141.385 27.5564L116.775 123.775C127.469 126.266 138.358 127.823 149.321 128.428C170.747 129.591 192.217 127.169 212.851 121.261C189.008 90.0185 165.186 58.7835 141.385 27.5564Z" fill="#F9AD5A"/>
<path d="M122.279 21.3196C127.155 18.5393 132.437 16.5466 137.931 15.4148C145.047 13.4355 152.42 12.5416 159.801 12.7632C166.202 13.0857 172.071 13.3688 172.53 15.5923C173.515 19.3769 159.02 27.0785 146.124 31.1037C130.874 35.8644 111.714 37.3852 110.324 32.9652C109.166 29.2605 121.053 22.1787 122.279 21.3196Z" fill="#B76DE2" stroke="#B76DE2" stroke-width="0.2" stroke-miterlimit="10" stroke-linecap="round"/>
<path d="M139.038 19.1615C126.939 22.3775 113.755 30.509 114.876 34.6841C115.996 38.8592 132.462 39.2843 145.492 35.7138C157.056 32.5227 170.559 25.0665 169.504 20.8293C168.45 16.5921 152.304 15.5561 139.038 19.1615Z" fill="#D7E7F7" stroke="white" stroke-width="0.2" stroke-miterlimit="10" stroke-linecap="round"/>
<path d="M110.423 33.0332L113.046 39.5526C118.326 40.6749 123.71 41.2297 129.107 41.2075C136.397 41.174 151.561 40.8694 165.187 31.0163C168.551 28.5772 171.597 25.7272 174.258 22.5321L172.659 16.0471C165.055 24.6437 155.121 30.8353 144.069 33.8667C133.017 36.8981 121.326 36.6383 110.42 33.1189L110.423 33.0332Z" fill="#944BC9" stroke="#8B43BF" stroke-width="0.2" stroke-miterlimit="10" stroke-linecap="round"/>
<path d="M55.1519 56.5981L54.9315 63.1505C55.2416 63.6392 55.6231 64.0784 56.0633 64.4534C57.3564 65.4909 58.9724 66.0385 60.6281 66.0004C60.6886 64.2017 60.7491 62.403 60.8088 60.6257L55.1519 56.5981Z" fill="#A46ED3" stroke="#8B43BF" stroke-width="0.2" stroke-miterlimit="10" stroke-linecap="round"/>
<path d="M114.065 38.4937L113.874 35.9147L60.7649 60.5179L60.5173 65.976L114.065 38.4937Z" fill="#9861D1" stroke="#8B43BF" stroke-width="0.2" stroke-miterlimit="10" stroke-linecap="round"/>
<path d="M111.463 35.2331C111.911 35.1608 112.367 35.1762 112.809 35.2783C113.192 35.3962 113.554 35.5748 113.881 35.8074L60.7683 60.5177C59.4291 59.9465 58.1803 59.1823 57.0614 58.2493C56.3933 57.7006 55.777 57.0914 55.2202 56.4295L111.463 35.2331Z" fill="#944BC9" stroke="#8B43BF" stroke-width="0.2" stroke-miterlimit="10" stroke-linecap="round"/>
<path d="M236.33 58.8551C232.593 56.373 228.486 54.5053 224.162 53.3224C218.587 51.3738 212.752 50.2743 206.851 50.0606C201.685 49.8868 197.024 49.9016 196.453 51.6402C195.477 54.6086 206.615 61.5215 216.679 65.44C228.598 70.1283 243.743 72.3098 245.163 68.8633C246.374 65.9028 237.269 59.5298 236.33 58.8551Z" fill="#92BCD3" stroke="#6D94AF" stroke-width="0.2" stroke-miterlimit="10" stroke-linecap="round"/>
<path d="M223.058 56.2427C232.566 59.5208 242.629 66.6335 241.514 69.9187C240.399 73.204 227.23 72.6539 217.026 69.0951C207.962 65.9392 197.606 59.2669 198.638 55.9359C199.669 52.6049 212.684 52.6568 223.058 56.2427Z" fill="#DAE8F7" stroke="white" stroke-width="0.2" stroke-miterlimit="10" stroke-linecap="round"/>
<path d="M245.163 68.8633L242.73 73.8407C238.478 74.4498 234.174 74.5997 229.89 74.2878C224.07 73.8562 211.986 72.8067 201.631 64.2051C199.086 62.0749 196.806 59.6446 194.842 56.9668L196.466 51.8765C202.076 59.1443 209.672 64.6195 218.329 67.6357C226.986 70.652 236.331 71.0792 245.227 68.8654L245.163 68.8633Z" fill="#7499B7" stroke="#6D94AF" stroke-width="0.2" stroke-miterlimit="10" stroke-linecap="round"/>
<path d="M288.03 90.627L287.854 95.8732C287.567 96.241 287.232 96.5686 286.859 96.8473C285.78 97.6107 284.464 97.9619 283.149 97.8373L283.293 93.5547L288.03 90.627Z" fill="#9EC4DD" stroke="#6D94AF" stroke-width="0.2" stroke-miterlimit="10" stroke-linecap="round"/>
<path d="M241.942 72.999L242.246 70.9513L283.319 93.4483L283.214 97.8394L241.942 72.999Z" fill="#89B1CC" stroke="#6D94AF" stroke-width="0.2" stroke-miterlimit="10" stroke-linecap="round"/>
<path d="M244.225 70.5456C243.874 70.4757 243.513 70.4636 243.158 70.5096C242.84 70.5872 242.535 70.7067 242.248 70.8649L283.32 93.3834C284.419 92.972 285.459 92.4158 286.411 91.7295C286.969 91.3199 287.492 90.8642 287.975 90.3672L244.225 70.5456Z" fill="#7499B7" stroke="#6D94AF" stroke-width="0.2" stroke-miterlimit="10" stroke-linecap="round"/>
<path d="M161.372 124.354C173.128 124.749 182.98 115.512 183.376 103.721C183.773 91.9304 174.564 82.0517 162.808 81.6563C151.052 81.2609 141.201 90.4986 140.804 102.289C140.407 114.08 149.616 123.959 161.372 124.354Z" fill="#6D9ABF"/>
<path d="M145.176 92.2328C144.687 93.0358 144.475 93.9778 144.573 94.9136C144.561 95.2562 144.768 96.7423 145.509 96.9602C146.249 97.178 147.566 94.8856 148.605 95.135C149.644 95.3843 149.373 97.7332 150.369 97.9811C151.365 98.229 151.787 96.4853 153.031 96.3771C154.788 96.2432 157.203 99.4114 156.409 100.778C155.615 102.145 150.878 101.278 150.466 102.722C150.177 103.677 152.102 104.921 152.393 105.166C152.684 105.412 156.681 107.947 159.535 105.728C160.443 104.939 161.076 103.88 161.342 102.706C161.609 101.531 161.494 100.301 161.015 99.1967C160.062 97.0209 158.129 97.3203 157.758 95.6357C157.355 93.6285 159.994 92.7097 160.095 89.7118C160.148 88.1273 159.579 85.9644 158.373 85.6023C156.532 85.0473 155.529 89.4511 151.125 90.7607C148.379 91.6974 146.297 90.6841 145.176 92.2328Z" fill="#57BC74"/>
<path d="M169.901 102.517C167.369 102.818 166.106 106.677 165.159 106.238C164.212 105.799 165.057 103.534 164.34 103.252C163.623 102.971 161.458 105.063 161.851 106.727C162.244 108.391 165.35 108.817 166.053 108.884C169.695 109.285 173.932 107.219 173.934 105.268C173.766 103.891 171.617 102.318 169.901 102.517Z" fill="#57BC74"/>
<path d="M166.64 92.1179C164.75 93.6621 162.65 93.1842 162.543 93.8237C162.436 94.4632 164.281 95.5328 166.424 95.9908C170.861 96.9117 172.555 94.1819 176.483 94.9785C179.901 95.6723 181.478 98.3407 182.138 97.7841C182.798 97.2275 180.181 92.4232 179.592 91.5031C178.032 88.9639 176.976 87.3206 174.869 86.3922C174.343 86.1602 171.706 85.1068 170.236 86.2364C169.534 86.7916 169.751 87.3134 168.726 89.2083C168.227 90.3054 167.518 91.2939 166.64 92.1179Z" fill="#57BC74"/>
<path d="M178.371 104.947C178.243 104.943 178.48 105.508 178.324 106.36C178.24 106.989 177.983 107.582 177.582 108.072C176.846 108.99 176.037 108.899 175.977 109.411C175.917 109.924 176.683 110.657 177.41 110.66C178.477 110.696 179.426 109.163 179.641 107.862C179.688 107.309 179.596 106.752 179.374 106.243C179.152 105.734 178.808 105.289 178.371 104.947Z" fill="#57BC74"/>
<path d="M173.206 109.188C173.552 109.049 174.065 109.067 174.166 109.22C174.268 109.374 174.021 109.73 173.956 109.77C173.511 110.291 172.587 110.432 172.425 110.169C172.262 109.906 172.665 109.384 173.206 109.188Z" fill="#57BC74"/>
<path d="M145.03 100.91C144.372 101.432 143.935 102.182 143.805 103.013C143.797 103.227 143.418 104.35 143.753 104.533C144.089 104.716 144.656 103.749 145.948 102.827C147.24 101.906 148.677 101.762 148.668 101.397C148.659 101.032 146.473 99.9297 145.03 100.91Z" fill="#57BC74"/>
<path d="M142.465 98.0366C142.153 99.0337 141.714 99.3833 141.885 100.032C141.885 100.032 142.018 100.508 142.293 100.603C142.568 100.698 143.181 100.247 143.381 100.04C144.022 99.3966 143.998 98.8384 144.451 98.725C144.904 98.6116 144.893 98.9114 145.276 98.9672C146.423 99.1773 147.75 97.2282 147.478 97.0476C147.206 96.8669 146.377 98.0181 145.49 97.6881C145.005 97.5003 145.04 97.0942 144.287 96.5973C144.016 96.3952 143.326 95.9432 142.891 96.1644C142.456 96.3856 142.845 96.8918 142.465 98.0366Z" fill="#57BC74"/>
<path d="M174.276 95.6334C173.867 95.6936 173.472 95.8255 173.109 96.0229C172.215 96.5288 171.496 97.5765 171.718 97.9698C171.94 98.3631 172.978 98.0122 173.859 97.8489C175.238 97.5308 175.42 97.2154 176.166 97.2619C177.298 97.3 177.888 98.1773 178.065 97.9904C178.243 97.8034 177.766 96.7155 176.868 96.0851C176.087 95.6262 175.166 95.4658 174.276 95.6334Z" fill="#57BC74"/>
<path d="M162.682 92.3714C163.074 92.4729 163.489 92.4177 163.841 92.2175C164.564 91.7059 164.583 90.4846 164.248 90.2804C163.913 90.0762 163.902 90.4188 163.586 90.2581C163.271 90.0975 163.138 89.5999 162.988 89.6163C162.838 89.6327 162.969 90.1731 162.714 90.7862C162.458 91.3992 161.916 91.6168 161.992 91.9195C162.067 92.2221 162.533 92.345 162.682 92.3714Z" fill="#57BC74"/>
<path d="M162.695 88.063C162.687 88.2771 163.158 88.2715 163.504 88.7762C163.851 89.2809 163.661 89.1888 163.85 89.3023C164.038 89.4158 164.473 89.1947 164.725 89.3318C164.977 89.4689 164.681 90.6594 165.015 90.885C165.349 91.1106 165.899 90.6575 166.234 90.2186C166.405 89.9651 166.522 89.6798 166.58 89.3797C166.638 89.0796 166.635 88.7709 166.571 88.472C166.303 87.5412 165.513 87.5146 165.348 86.6945C165.184 85.8743 166.02 85.1522 165.854 84.9965C165.689 84.8409 162.294 87.2777 162.695 88.063Z" fill="#57BC74"/>
<path d="M163.546 109.099C163.768 108.85 164.186 109.121 165.357 109.268C167.165 109.543 167.816 109.243 168.268 109.794C168.719 110.345 168.43 110.679 168.766 110.861C169.416 111.226 170.47 109.783 171.058 110.081C171.646 110.379 171.319 111.848 170.969 112.715C170.577 113.851 169.936 114.884 169.094 115.739C168.689 116.245 168.221 116.698 167.702 117.085C166.59 117.638 165.343 117.856 164.111 117.711C162.879 117.567 161.715 117.068 160.761 116.273C160.779 115.738 165.748 116.719 166.38 115.069C166.463 114.762 166.454 114.439 166.354 114.138C166.254 113.837 166.067 113.572 165.817 113.378C165.109 112.839 164.365 113.329 162.786 113.276C161.206 113.222 159.946 112.558 159.977 112.259C160.008 111.96 163.222 112.368 163.714 111.099C164.121 110.426 163.254 109.518 163.546 109.099Z" fill="#57BC74"/>
<path d="M157.899 107.387C156.866 107.61 156.256 107.332 156.16 107.629C156.065 107.926 156.491 107.961 156.961 108.599C157.431 109.236 157.414 109.75 157.752 109.869C158.09 109.987 159.202 109.339 159.467 108.447C159.589 108.001 159.613 107.295 159.278 107.069C158.944 106.843 158.739 107.201 157.899 107.387Z" fill="#57BC74"/>
<path d="M154.959 107.14C155.02 107.266 155.054 107.404 155.059 107.544C155.065 107.684 155.041 107.824 154.991 107.955C154.94 108.085 154.864 108.205 154.766 108.305C154.668 108.405 154.55 108.484 154.421 108.536C154.289 108.556 154.155 108.549 154.026 108.516C153.898 108.482 153.777 108.423 153.672 108.341C153.567 108.26 153.479 108.157 153.414 108.041C153.35 107.924 153.31 107.795 153.296 107.663C153.356 107.15 154.63 106.764 154.959 107.14Z" fill="#57BC74"/>
<path d="M155.477 108.164C155.802 108.025 156.679 108.612 156.693 109.492C156.706 110.371 156.025 110.927 155.665 110.829C155.306 110.731 154.935 108.403 155.477 108.164Z" fill="#57BC74"/>
<path d="M165.555 104.666C165.555 104.666 165.739 104.287 165.871 103.519C166.004 102.752 165.905 102.513 165.916 102.192C166.303 101.497 168.08 101.407 168.214 101.883C168.347 102.359 165.74 104.887 165.555 104.666Z" fill="#57BC74"/>
<path d="M168.4 100.709C168.393 100.902 168.754 100.978 168.827 101.345C168.9 101.712 168.681 101.876 168.804 102.03C168.987 102.162 169.211 102.223 169.435 102.203C169.66 102.183 169.869 102.083 170.026 101.921C170.114 101.813 170.179 101.689 170.218 101.556C170.257 101.423 170.269 101.283 170.254 101.145C170.238 101.007 170.196 100.873 170.129 100.751C170.062 100.63 169.971 100.523 169.862 100.437C169.278 100.031 168.431 100.431 168.4 100.709Z" fill="#57BC74"/>
<path d="M150.612 119.254C150.626 118.826 151.81 118.565 152.767 118.726C153.723 118.887 154.205 119.803 155.823 120.651C156.595 121.02 157.413 121.285 158.254 121.44C159.738 121.812 161.603 122.282 162.097 121.569C162.366 121.193 162.126 120.713 162.304 120.504C162.482 120.296 163.253 120.879 164.419 121.176C165.289 121.417 166.215 121.366 167.053 121.029C167.813 120.668 167.676 120.299 168.279 120.148C168.883 119.997 169.591 120.557 170.851 120.599C171.47 120.62 171.824 120.267 172.052 120.468C172.28 120.669 172.024 121.303 172.02 121.431C171.472 123.085 166.173 124.3 161.022 123.656C158.715 123.33 156.468 122.662 154.356 121.673C153.134 121.139 150.459 119.978 150.612 119.254Z" fill="white"/>
<path d="M155.943 83.3763C155.533 83.5126 154.257 83.9413 154.143 84.795C154.113 84.9681 154.131 85.1459 154.193 85.31C154.255 85.4742 154.36 85.6187 154.496 85.7286C155.084 86.0485 155.804 84.9794 157.384 84.3894C158.964 83.7995 160.276 84.208 160.304 83.9946C159.68 83.5488 158.958 83.2599 158.199 83.1523C157.44 83.0447 156.666 83.1215 155.943 83.3763Z" fill="white"/>
<path d="M159.883 82.7377C159.877 82.909 161.177 83.017 161.205 83.4467C161.234 83.8764 160.267 84.0368 160.296 84.4237C160.326 84.8106 161.173 85.0534 161.897 85.1206C162.648 85.1411 163.395 85.0056 164.091 84.7228C165.667 84.2399 166.259 83.8096 166.677 84.1023C167.094 84.3951 166.781 84.8133 167.155 85.126C167.529 85.4387 168.692 85.1777 169.302 84.8552C169.911 84.5327 170.088 84.3671 170.077 84.0452C170.099 83.3814 167.866 83.049 166.548 82.8332C164.354 82.3667 162.09 82.3343 159.883 82.7377Z" fill="white"/>
<path d="M153.411 84.5345C153.576 84.733 153.266 85.0441 153.379 85.4981C153.554 85.7534 153.796 85.9554 154.079 86.0821C154.361 86.2088 154.672 86.2553 154.979 86.2165C155.406 86.2308 155.629 85.9596 155.67 86.0039C155.712 86.0481 155.123 87.0359 154.104 87.4518C153.205 87.7015 152.251 87.6695 151.371 87.3599C150.289 87.1306 149.652 87.002 149.557 86.6344C149.393 85.8142 152.895 84.0026 153.411 84.5345Z" fill="white"/>
<path d="M155.423 119.309C155.629 119.579 155.927 119.765 156.261 119.83L157.888 120.378C158.649 120.618 159.071 120.782 160.194 121.098C160.808 121.248 161.063 121.299 161.24 121.134C161.39 120.968 161.476 120.754 161.484 120.531C161.491 120.307 161.419 120.088 161.281 119.913C160.89 119.471 160.252 119.986 158.932 119.834C158.267 119.712 157.62 119.502 157.008 119.212C156.04 118.772 155.539 118.412 155.341 118.577C155.143 118.742 155.282 119.068 155.423 119.309Z" fill="white"/>
<path d="M170.753 119.825C170.747 119.996 172.007 119.396 172.482 119.883C172.629 120.027 172.734 120.208 172.785 120.408C172.777 120.643 172.772 120.793 172.771 120.836C172.769 120.879 173.226 120.637 173.448 120.409C173.669 120.18 174.113 119.681 174.019 119.313C173.924 118.946 173.055 118.723 172.541 118.749C171.492 118.8 170.673 119.651 170.753 119.825Z" fill="white"/>
<path opacity="0.5" d="M139.942 34.1119L141.365 28.0287L145.078 32.6768L145.261 32.9402L145.321 33.0709L143.356 33.6693L140.879 34.2291L139.845 34.4516L139.942 34.1119Z" fill="#F9AD5A"/>
<path opacity="0.35" d="M211.945 64.4232L218.489 60.5059C218.417 62.6472 218.148 64.932 217.967 67.1339L214.613 65.7992L212.509 64.8066L211.945 64.4232Z" fill="#F9AD5A"/>
<path d="M159.515 18.7137C159.568 18.8474 159.592 18.9906 159.588 19.1342C159.583 19.2779 159.549 19.419 159.487 19.5489C158.802 20.8549 155.622 20.0834 151.1 19.8027C145.789 19.474 142.541 20.0722 142.553 19.7296C143.922 19.1302 145.378 18.7523 146.865 18.6098C149.292 18.2804 151.741 18.1335 154.19 18.1702C157.506 18.0674 159.158 17.9085 159.515 18.7137Z" fill="white"/>
<path d="M206.404 55.0605C206.39 55.1481 206.395 55.2376 206.418 55.3232C206.441 55.4088 206.481 55.4888 206.536 55.558C207.007 56.1741 208.382 55.9631 209.305 55.8655C210.822 55.7705 212.345 55.8218 213.852 56.0184C216.436 56.1053 218.099 56.8473 218.104 56.6974C217.333 56.2329 216.493 55.8935 215.616 55.6919C214.404 55.346 213.171 55.0825 211.923 54.9031C210.387 54.458 208.775 54.3381 207.19 54.551C207.019 54.5453 206.479 54.72 206.404 55.0605Z" fill="white"/>
<path d="M80.4221 68.531C80.5028 69.7082 80.2405 70.8837 79.6671 71.9142C79.1212 72.8211 78.3147 73.5413 77.3533 73.9801C78.1054 74.4069 78.7684 74.9751 79.3062 75.6536C80.0795 76.6737 80.5698 77.881 80.7274 79.1528C80.6643 77.9165 80.9658 76.6889 81.5942 75.6233C82.0863 74.7694 82.787 74.0552 83.6305 73.5481C83.0004 73.1109 82.4415 72.5787 81.9736 71.9703C81.1955 70.9613 80.6642 69.7833 80.4221 68.531Z" fill="#CAD3FD"/>
<path d="M217.602 39.8316C217.597 41.1426 217.147 42.4129 216.326 43.4331C215.503 44.4114 214.408 45.121 213.18 45.471C214.081 46.0048 214.876 46.7001 215.526 47.5221C216.4 48.6875 216.918 50.0828 217.016 51.5381C217.041 50.1537 217.547 48.8214 218.446 47.7704C219.186 46.9033 220.136 46.2414 221.204 45.848C220.432 45.3049 219.735 44.6615 219.131 43.9347C218.275 42.723 217.748 41.3092 217.602 39.8316Z" fill="#CAD3FD"/>
<path d="M223.657 93.0716C223.755 94.067 223.469 95.062 222.859 95.853C222.213 96.6487 221.355 97.2443 220.385 97.5706C221.162 97.9047 221.87 98.3791 222.476 98.97C223.298 99.7337 223.85 100.746 224.046 101.853C223.99 100.802 224.322 99.7681 224.977 98.9469C225.566 98.2422 226.319 97.6933 227.169 97.3485C226.513 97.0004 225.909 96.5616 225.374 96.0448C224.529 95.2398 223.933 94.2076 223.657 93.0716Z" fill="#CAD3FD"/>
<path d="M111.321 72.894C111.451 74.4521 111.077 76.0108 110.253 77.3384C109.468 78.5931 108.315 79.573 106.952 80.1429C108.024 80.6912 108.973 81.4525 109.741 82.3804C110.824 83.6982 111.511 85.2974 111.723 86.9918C111.63 85.3469 112.067 83.7155 112.97 82.3389C113.689 81.2324 114.684 80.3345 115.858 79.7349C114.963 79.1754 114.164 78.4754 113.491 77.6617C112.374 76.284 111.627 74.6428 111.321 72.894Z" fill="#CAD3FD"/>
<path d="M98.1526 101.005C98.2501 101.928 98.0141 102.856 97.4876 103.619C96.9419 104.374 96.1759 104.94 95.2957 105.239C95.964 105.556 96.5658 105.998 97.0687 106.542C97.7641 107.29 98.2168 108.232 98.3671 109.244C98.318 108.274 98.5989 107.316 99.1639 106.527C99.6307 105.869 100.26 105.343 100.989 105.002C100.249 104.576 99.6047 104.001 99.0979 103.312C98.5912 102.623 98.2329 101.836 98.0459 101.001L98.1526 101.005Z" fill="#CAD3FD"/>
<path d="M94.872 45.3506C94.9845 46.6695 94.6769 47.9903 93.9935 49.123C93.3102 50.2556 92.2863 51.1417 91.0691 51.6539C92.2122 52.2472 93.1915 53.1144 93.9201 54.1785C94.6487 55.2427 95.104 56.4708 95.2457 57.7539C95.1712 56.3146 95.5481 54.8879 96.3234 53.6742C96.978 52.7069 97.8833 51.9368 98.9418 51.447C98.1599 50.949 97.4596 50.3324 96.8658 49.6194C95.8514 48.3888 95.1654 46.92 94.872 45.3506Z" fill="#CAD3FD"/>
<path d="M271.156 70.1014C271.26 71.2399 270.972 72.38 270.342 73.3325C269.727 74.2601 268.846 74.9782 267.814 75.3912C268.604 75.7927 269.311 76.3401 269.898 77.0048C270.74 77.9433 271.288 79.1099 271.473 80.3591C271.407 79.1594 271.74 77.9717 272.42 76.9824C272.984 76.175 273.741 75.5223 274.622 75.0842C273.942 74.6774 273.325 74.1728 272.791 73.5864C271.958 72.5842 271.395 71.3843 271.156 70.1014Z" fill="#CAD3FD"/>
<path d="M171.832 49.6114C171.874 50.5583 171.618 51.4946 171.101 52.2879C170.561 53.0536 169.794 53.6282 168.908 53.9292C169.564 54.2713 170.145 54.7429 170.614 55.3156C171.273 56.1213 171.679 57.1047 171.78 58.1417C171.755 57.1416 172.05 56.1596 172.623 55.3403C173.087 54.6803 173.717 54.1544 174.448 53.8153C173.909 53.4596 173.426 53.0242 173.017 52.5238C172.387 51.6665 171.98 50.6657 171.832 49.6114Z" fill="#CAD3FD"/>
<path d="M256.798 97.273C256.915 98.6427 256.592 100.014 255.875 101.186C255.182 102.277 254.178 103.132 252.993 103.64C254.128 104.216 255.107 105.061 255.843 106.102C256.579 107.143 257.05 108.348 257.216 109.613C257.13 108.173 257.508 106.743 258.294 105.534C258.919 104.561 259.795 103.776 260.828 103.261C260.047 102.763 259.346 102.146 258.752 101.433C257.768 100.23 257.097 98.8004 256.798 97.273Z" fill="#CAD3FD"/>
<path d="M49.1144 79.6333C49.2385 80.9967 48.9148 82.3634 48.1927 83.5254C47.5153 84.6557 46.5077 85.5499 45.3065 86.0865C46.442 86.6622 47.4203 87.5071 48.1563 88.548C48.8924 89.5889 49.3639 90.7943 49.5301 92.0595C49.4548 90.7696 49.7563 89.4857 50.3977 88.365C51.039 87.2442 51.9923 86.3354 53.1408 85.7498C52.3589 85.2517 51.6586 84.6351 51.0649 83.9221C50.0565 82.6854 49.3845 81.2079 49.1144 79.6333Z" fill="#CAD3FD"/>
<path d="M241.362 75.0168C241.421 75.9655 241.164 76.9071 240.631 77.6933C240.126 78.4405 239.406 79.0148 238.566 79.3389C239.215 79.6827 239.788 80.154 240.251 80.7246C240.91 81.5325 241.322 82.5141 241.438 83.5514C241.412 82.5513 241.708 81.5693 242.28 80.75C242.753 80.0972 243.38 79.573 244.106 79.225C243.566 78.8693 243.084 78.4339 242.674 77.9335C241.999 77.0879 241.547 76.0845 241.362 75.0168Z" fill="#CAD3FD"/>
<defs>
<filter id="filter0_d" x="84.687" y="147.135" width="161.521" height="49.7187" filterUnits="userSpaceOnUse" color-interpolation-filters="sRGB">
<feFlood flood-opacity="0" result="BackgroundImageFix"/>
<feColorMatrix in="SourceAlpha" type="matrix" values="0 0 0 0 0 0 0 0 0 0 0 0 0 0 0 0 0 0 127 0"/>
<feOffset dy="4"/>
<feGaussianBlur stdDeviation="2"/>
<feColorMatrix type="matrix" values="0 0 0 0 0 0 0 0 0 0 0 0 0 0 0 0 0 0 0.25 0"/>
<feBlend mode="normal" in2="BackgroundImageFix" result="effect1_dropShadow"/>
<feBlend mode="normal" in="SourceGraphic" in2="effect1_dropShadow" result="shape"/>
</filter>
</defs>
</svg>
