<svg width="231" height="193" viewBox="0 0 231 193" fill="none" xmlns="http://www.w3.org/2000/svg">
<g filter="url(#filter0_d)">
<rect x="6.823" y="142.601" width="217.197" height="41.7187" rx="10" fill="#7C8294"/>
<path d="M36.304 161.1C34.756 161.1 33.478 161.64 32.506 162.684C31.984 161.64 30.904 161.1 29.518 161.1C28.312 161.1 27.214 161.46 26.368 162.252L26.566 161.208H24.4239L22.5159 170.82H24.766L25.774 165.834C26.152 163.944 27.178 163.062 28.726 163.062C29.968 163.062 30.562 163.674 30.562 164.79C30.562 165.024 30.544 165.276 30.49 165.546L29.428 170.82H31.678L32.686 165.816C33.064 163.944 34.09 163.062 35.638 163.062C36.88 163.062 37.474 163.674 37.474 164.79C37.474 165.024 37.456 165.276 37.402 165.546L36.34 170.82H38.59L39.652 165.492C39.742 165.06 39.778 164.664 39.778 164.304C39.778 162.216 38.428 161.1 36.304 161.1ZM46.3051 170.946C49.6351 170.946 52.0291 168.534 52.0291 165.312C52.0291 162.756 50.1931 161.1 47.3491 161.1C44.0191 161.1 41.6431 163.494 41.6431 166.716C41.6431 169.254 43.4791 170.946 46.3051 170.946ZM46.4491 169.02C44.8291 169.02 43.9111 168.102 43.9111 166.608C43.9111 164.484 45.3151 163.008 47.2231 163.008C48.8431 163.008 49.7611 163.926 49.7611 165.42C49.7611 167.544 48.3571 169.02 46.4491 169.02ZM59.3646 159.156C59.8506 159.156 60.2466 159.3 60.5526 159.552L61.4706 157.914C60.9666 157.536 60.1926 157.338 59.3646 157.338C57.2046 157.338 55.9086 158.58 55.4946 160.596L55.3506 161.28H53.7846L53.4246 163.08H54.9906L53.4426 170.82H55.6926L57.2406 163.08H59.8146L60.1746 161.28H57.5466L57.6546 160.758C57.8886 159.678 58.4106 159.156 59.3646 159.156ZM71.6072 156.924C70.6892 156.924 70.0772 157.554 70.0772 158.364C70.0772 159.048 70.6172 159.624 71.4272 159.624C72.3452 159.624 72.9572 159.012 72.9572 158.13C72.9572 157.464 72.4172 156.924 71.6072 156.924ZM66.0092 159.156C66.4952 159.156 66.8912 159.3 67.1972 159.552L68.1152 157.914C67.6112 157.536 66.8372 157.338 66.0092 157.338C63.8492 157.338 62.5532 158.58 62.1392 160.596L61.9952 161.28H60.4292L60.0692 163.08H61.6352L60.0872 170.82H62.3372L63.8852 163.08H66.4592L66.8192 161.28H64.1912L64.2992 160.758C64.5332 159.678 65.0552 159.156 66.0092 159.156ZM67.8812 170.82H70.1312L72.0392 161.208H69.7892L67.8812 170.82ZM77.1562 163.08H79.7482L80.1082 161.28H77.5162L77.9662 159.084H75.7162L75.2842 161.28H73.7182L73.3582 163.08H74.9242L74.0062 167.616C73.9522 167.886 73.9342 168.138 73.9342 168.372C73.9342 169.992 75.0502 170.946 76.6882 170.946C77.4802 170.946 78.3262 170.802 79.0102 170.37L78.6142 168.714C78.2362 168.966 77.7862 169.092 77.3542 169.092C76.5622 169.092 76.2202 168.678 76.2202 168.012C76.2202 167.886 76.2382 167.742 76.2562 167.598L77.1562 163.08ZM84.5566 163.08H87.1486L87.5086 161.28H84.9166L85.3666 159.084H83.1166L82.6846 161.28H81.1186L80.7586 163.08H82.3246L81.4066 167.616C81.3526 167.886 81.3346 168.138 81.3346 168.372C81.3346 169.992 82.4506 170.946 84.0886 170.946C84.8806 170.946 85.7266 170.802 86.4106 170.37L86.0146 168.714C85.6366 168.966 85.1866 169.092 84.7546 169.092C83.9626 169.092 83.6206 168.678 83.6206 168.012C83.6206 167.886 83.6386 167.742 83.6566 167.598L84.5566 163.08ZM106.88 161.1C105.332 161.1 104.054 161.64 103.082 162.684C102.56 161.64 101.48 161.1 100.094 161.1C98.8881 161.1 97.7901 161.46 96.9441 162.252L97.1421 161.208H95.0001L93.0921 170.82H95.3421L96.3501 165.834C96.7281 163.944 97.7541 163.062 99.3021 163.062C100.544 163.062 101.138 163.674 101.138 164.79C101.138 165.024 101.12 165.276 101.066 165.546L100.004 170.82H102.254L103.262 165.816C103.64 163.944 104.666 163.062 106.214 163.062C107.456 163.062 108.05 163.674 108.05 164.79C108.05 165.024 108.032 165.276 107.978 165.546L106.916 170.82H109.166L110.228 165.492C110.318 165.06 110.354 164.664 110.354 164.304C110.354 162.216 109.004 161.1 106.88 161.1ZM121.183 161.208L120.913 162.63C120.265 161.604 119.131 161.1 117.637 161.1C114.559 161.1 112.219 163.44 112.219 166.716C112.219 169.38 114.091 170.946 116.449 170.946C117.709 170.946 118.771 170.55 119.581 169.83L119.383 170.82H121.525L123.433 161.208H121.183ZM117.025 169.02C115.405 169.02 114.487 168.102 114.487 166.608C114.487 164.484 115.891 163.008 117.799 163.008C119.419 163.008 120.337 163.926 120.337 165.42C120.337 167.544 118.933 169.02 117.025 169.02ZM136.133 161.208H133.073L127.799 165.438L129.383 157.464H127.133L124.469 170.82H126.719L127.223 168.282L129.239 166.662L131.813 170.82H134.423L131.039 165.33L136.133 161.208ZM145.377 165.312C145.377 162.684 143.613 161.1 140.949 161.1C137.727 161.1 135.405 163.458 135.405 166.716C135.405 169.272 137.241 170.946 140.139 170.946C141.615 170.946 143.073 170.514 144.081 169.614L143.145 168.048C142.479 168.678 141.471 169.038 140.373 169.038C138.519 169.038 137.637 168.21 137.601 166.68H145.233C145.323 166.266 145.377 165.798 145.377 165.312ZM140.841 162.9C142.335 162.9 143.325 163.71 143.307 165.186H137.799C138.213 163.782 139.311 162.9 140.841 162.9ZM150.257 162.45L150.509 161.208H148.367L146.459 170.82H148.709L149.663 166.086C150.059 164.088 151.229 163.188 152.993 163.188C153.209 163.188 153.353 163.206 153.551 163.242L153.965 161.1C152.345 161.1 151.139 161.442 150.257 162.45ZM157.241 170.946C159.941 170.946 161.849 169.812 161.849 167.706C161.849 164.502 156.647 165.744 156.647 164.088C156.647 163.422 157.349 162.918 158.807 162.918C159.743 162.918 160.805 163.116 161.651 163.656L162.479 161.928C161.669 161.406 160.319 161.1 159.023 161.1C156.287 161.1 154.451 162.324 154.451 164.34C154.451 167.598 159.653 166.374 159.653 167.958C159.653 168.678 158.951 169.11 157.475 169.11C156.197 169.11 154.901 168.732 154.127 168.174L153.191 169.902C153.983 170.496 155.567 170.946 157.241 170.946ZM170.213 161.1C168.953 161.1 167.891 161.496 167.081 162.216L167.279 161.208H165.137L162.527 174.312H164.777L165.749 169.398C166.379 170.424 167.531 170.946 169.043 170.946C172.103 170.946 174.443 168.588 174.443 165.312C174.443 162.648 172.571 161.1 170.213 161.1ZM168.863 169.02C167.243 169.02 166.325 168.102 166.325 166.608C166.325 164.484 167.729 163.008 169.637 163.008C171.257 163.008 172.175 163.926 172.175 165.42C172.175 167.544 170.771 169.02 168.863 169.02ZM184.623 161.208L184.353 162.63C183.705 161.604 182.571 161.1 181.077 161.1C177.999 161.1 175.659 163.44 175.659 166.716C175.659 169.38 177.531 170.946 179.889 170.946C181.149 170.946 182.211 170.55 183.021 169.83L182.823 170.82H184.965L186.873 161.208H184.623ZM180.465 169.02C178.845 169.02 177.927 168.102 177.927 166.608C177.927 164.484 179.331 163.008 181.239 163.008C182.859 163.008 183.777 163.926 183.777 165.42C183.777 167.544 182.373 169.02 180.465 169.02ZM192.715 170.946C194.551 170.946 196.207 170.154 197.107 168.804L195.451 167.688C194.821 168.606 193.885 169.02 192.823 169.02C191.185 169.02 190.267 168.102 190.267 166.608C190.267 164.484 191.671 163.008 193.579 163.008C194.713 163.008 195.523 163.44 195.973 164.34L197.899 163.35C197.125 161.856 195.703 161.1 193.759 161.1C190.375 161.1 187.999 163.494 187.999 166.716C187.999 169.254 189.835 170.946 192.715 170.946ZM208.289 165.312C208.289 162.684 206.525 161.1 203.861 161.1C200.639 161.1 198.317 163.458 198.317 166.716C198.317 169.272 200.153 170.946 203.051 170.946C204.527 170.946 205.985 170.514 206.993 169.614L206.057 168.048C205.391 168.678 204.383 169.038 203.285 169.038C201.431 169.038 200.549 168.21 200.513 166.68H208.145C208.235 166.266 208.289 165.798 208.289 165.312ZM203.753 162.9C205.247 162.9 206.237 163.71 206.219 165.186H200.711C201.125 163.782 202.223 162.9 203.753 162.9Z" fill="white"/>
</g>
<g opacity="0.85">
<path d="M44.0031 43.9094L42.2558 42.9155L38.5289 44.4195L33.6414 38.6603L35.7657 35.4997L35.3978 32.9843L32.0904 31.1285L33.5642 23.7633L37.2707 23.1934L38.9989 21.306L38.3091 17.6034L45.488 14.0803L48.1693 17.0459L50.5489 17.074L53.6339 14.2789L60.2591 18.7749L58.6447 21.7818L59.6837 23.5392L64.0997 23.9985L65.2858 31.8909L62.329 33.1482L61.2257 35.3452L63.3224 38.4757L57.9743 44.3686L55.9118 43.2014L53.4059 44.2148L53.0976 46.6879L45.0263 47.2944L44.0031 43.9094Z" fill="#65CBE4" stroke="#65CBE4" stroke-miterlimit="10" stroke-linecap="round"/>
<path d="M44.2498 45.4453L42.4866 44.4463L38.7756 45.9554L33.8721 40.1911L35.9964 37.0305L35.6233 34.5311L32.3211 32.6592L33.7949 25.2941L37.5014 24.7241L39.2244 22.8528L38.5397 19.1341L45.7188 15.6111L48.4 18.5767L50.7796 18.6048L53.8646 15.8096L60.5058 20.3108L58.8754 23.3125L59.9144 25.07L64.3304 25.5292L65.5165 33.4217L62.5757 34.6842L61.4564 36.8759L63.5479 40.0226L58.205 45.8994L56.1425 44.7321L53.6366 45.7456L53.3283 48.2186L45.257 48.8252L44.2498 45.4453Z" fill="#F7E326" stroke="#F7E326" stroke-miterlimit="10" stroke-linecap="round"/>
<path d="M46.0343 40.4346C50.6659 41.94 55.6444 39.3947 57.1542 34.7495C58.664 30.1043 56.1334 25.1183 51.5019 23.6129C46.8703 22.1076 41.8918 24.6529 40.382 29.298C38.8721 33.9432 41.4028 38.9292 46.0343 40.4346Z" fill="#191847"/>
<path d="M44.2273 39.6177C44.9297 40.042 45.6904 40.361 46.4852 40.5645C47.2488 40.7732 48.0377 40.8744 48.8295 40.865C50.1908 40.8562 51.5332 40.5404 52.7573 39.9411C53.5149 39.5431 54.2139 39.0416 54.8341 38.451C54.0926 38.8563 53.3185 39.1984 52.5199 39.4735C51.8911 39.6891 51.246 39.8533 50.5908 39.9645C49.8441 40.0926 49.0864 40.1436 48.3295 40.1169C47.7493 40.1155 47.1697 40.0812 46.5934 40.014C45.7982 39.924 45.0084 39.7917 44.2273 39.6177Z" fill="#66CBE4"/>
<path d="M54.8451 38.4368C54.1037 38.8422 53.3296 39.1843 52.531 39.4593C51.9022 39.6749 51.257 39.8391 50.6019 39.9504C49.8552 40.0784 49.0974 40.1295 48.3406 40.1027C47.7603 40.1014 47.1807 40.0671 46.6045 39.9999C45.8242 39.9188 45.0487 39.7971 44.2812 39.6352C44.8497 39.9754 45.4551 40.2495 46.0858 40.4524L46.5339 40.5981C47.2974 40.8068 48.0864 40.9079 48.8781 40.8986C50.2274 40.8735 51.5546 40.547 52.7631 39.943C53.5207 39.545 54.2197 39.0435 54.8399 38.4529L54.8451 38.4368Z" fill="#66CBE4"/>
<path d="M162.341 81.7699L162.102 79.5095L158.286 77.0977L160.339 68.8206L164.623 68.7047L166.676 66.6919L166.211 62.4591L173.88 58.9533L176.822 61.9861L179.683 62.3303L182.612 59.2537L190.529 63.5307L189.579 67.9247L191.089 70.1371L195.658 71.1073L195.883 80.1603L192.096 80.6509L191.167 82.745L193.645 87.0997L187.213 93.3858L184.145 91.5012L181.423 91.9296L179.921 95.896L171.051 94.8764L170.778 92.2322L168.202 90.5783L165.762 91.9327L159.918 84.9223L162.341 81.7699Z" fill="#65CBE4" stroke="#65CBE4" stroke-miterlimit="10" stroke-linecap="round"/>
<path d="M161.091 82.9964L160.857 80.72L157.041 78.3082L159.094 70.0311L163.362 69.91L165.425 67.9184L164.966 63.6696L172.63 60.1798L175.577 63.1966L178.433 63.5568L181.362 60.4802L189.279 64.7572L188.329 69.1513L189.839 71.3637L194.407 72.3338L194.653 81.376L190.845 81.8775L189.917 83.9716L192.394 88.3262L185.968 94.5963L182.9 92.7118L180.178 93.1401L178.671 97.1226L169.806 96.087L169.517 93.4375L166.951 91.8048L164.495 93.1541L158.668 86.1489L161.091 82.9964Z" fill="#F7E326" stroke="#F7E326" stroke-miterlimit="10" stroke-linecap="round"/>
<path d="M173.214 87.7886C178.421 89.4807 184.017 86.6196 185.714 81.3982C187.411 76.1769 184.566 70.5724 179.36 68.8803C174.154 67.1881 168.558 70.0492 166.861 75.2706C165.164 80.492 168.008 86.0965 173.214 87.7886Z" fill="#191847"/>
<path d="M166.39 79.1465C166.468 80.0658 166.675 80.9693 167.004 81.8306C167.311 82.6754 167.738 83.4714 168.271 84.1944C169.188 85.415 170.373 86.4074 171.734 87.0948C172.589 87.5302 173.507 87.8286 174.455 87.9791C173.597 87.5726 172.776 87.0921 172.002 86.543C171.398 86.1168 170.831 85.6415 170.305 85.1218C169.701 84.5163 169.158 83.8524 168.684 83.1398C168.179 82.4077 167.851 81.8395 167.603 81.4041C167.355 80.9686 166.806 80.0981 166.39 79.1465Z" fill="#66CBE4"/>
<path d="M166.39 79.146C166.469 80.0654 166.675 80.9689 167.004 81.8302C167.312 82.6749 167.738 83.471 168.271 84.194C169.188 85.4146 170.373 86.4069 171.734 87.0944C172.595 87.5153 173.511 87.8129 174.455 87.9787C173.597 87.5722 172.777 87.0917 172.002 86.5425C171.399 86.1164 170.831 85.641 170.305 85.1214C169.701 84.5158 169.158 83.8519 168.685 83.1394C168.179 82.4073 167.851 81.8391 167.603 81.4036C167.355 80.9682 166.843 79.9853 166.427 79.0337L166.39 79.146Z" fill="#66CBE4"/>
<path d="M94.6494 68.6245L96.7534 67.2143L97.1569 62.2166L106.335 59.9466L108.651 64.0892L111.676 65.0723L115.598 62.4249L122.982 68.1791L121.532 72.6414L122.664 75.6359L127.181 76.9267L127.072 86.9537L122.263 88.3012L120.891 90.9433L122.287 95.958L113.526 100.866L111.081 97.3911L108.548 97.5618L105.555 102.25L96.081 99.1709L96.3367 95.1722L94.5211 92.7009L89.8512 93.2949L86.282 84.0245L88.7515 82.3603L89.0328 78.9911L86.4448 77.2626L90.3061 67.8872L94.6494 68.6245Z" fill="#F766D8" stroke="#F766D8" stroke-miterlimit="10" stroke-linecap="round"/>
<path d="M92.8063 68.0249L94.9103 66.6146L95.3138 61.6169L104.492 59.347L106.808 63.4896L109.833 64.4727L113.755 61.8253L121.139 67.5795L119.689 72.0417L120.821 75.0363L125.354 76.3323L125.229 86.3541L120.42 87.7016L119.048 90.3437L120.444 95.3583L111.683 100.266L109.238 96.7915L106.705 96.9621L103.712 101.651L94.2379 98.5712L94.4937 94.5726L92.678 92.1013L88.0082 92.6953L84.4389 83.4249L86.9085 81.7607L87.1896 78.3915L84.6018 76.663L88.463 67.2876L92.8063 68.0249Z" fill="#F7E326" stroke="#F7E326" stroke-miterlimit="10" stroke-linecap="round"/>
<path d="M101.799 91.1086C107.589 92.9903 113.812 89.8087 115.699 84.0022C117.587 78.1957 114.423 71.9632 108.634 70.0815C102.844 68.1998 96.6212 71.3814 94.7339 77.1879C92.8466 82.9943 96.01 89.2269 101.799 91.1086Z" fill="#191847"/>
<path d="M99.4215 71.0804C98.533 71.6148 97.7237 72.2718 97.0177 73.0321C96.3519 73.7705 95.7913 74.5976 95.3518 75.4899C94.5774 77.0206 94.1677 78.7099 94.1547 80.4249C94.1549 81.4949 94.3163 82.5585 94.6334 83.5797C94.5963 82.525 94.6552 81.469 94.8095 80.4248C94.9154 79.6045 95.0899 78.7945 95.3311 78.0033C95.6428 77.1204 96.0326 76.2671 96.496 75.4536C96.848 74.7839 97.2364 74.134 97.6596 73.507C98.198 72.6637 98.7864 71.8534 99.4215 71.0804Z" fill="#F766D8"/>
<path d="M99.4215 71.0804C98.533 71.6148 97.7237 72.2718 97.0177 73.0321C96.3519 73.7705 95.7913 74.5976 95.3518 75.4899C94.5774 77.0206 94.1677 78.7099 94.1547 80.4249C94.1549 81.4949 94.3163 82.5585 94.6334 83.5797C94.5963 82.525 94.6552 81.469 94.8095 80.4248C94.9154 79.6045 95.0899 78.7945 95.3311 78.0033C95.6428 77.1204 96.0326 76.2671 96.496 75.4536C96.848 74.7839 97.2364 74.134 97.6596 73.507C98.1892 72.6792 98.767 71.8833 99.3898 71.1234L99.4215 71.0804Z" fill="#F766D8"/>
<path d="M123.077 100.811C122.435 101.153 121.9 101.667 121.532 102.296C121.18 102.91 121.008 103.61 121.035 104.317C120.685 104.392 120.355 104.54 120.066 104.753C119.778 104.965 119.537 105.236 119.361 105.548C119.134 106.024 119.077 106.563 119.201 107.075C118.617 107.471 118.173 108.041 117.928 108.703C117.709 109.363 117.675 110.07 117.83 110.747C117.24 111.161 116.791 111.746 116.542 112.423C116.354 112.977 116.302 113.569 116.389 114.148L132.161 122.185C132.755 121.832 133.247 121.332 133.589 120.732C133.937 120.138 134.12 119.462 134.119 118.775C134.719 118.47 135.215 117.991 135.542 117.402C135.869 116.812 136.013 116.138 135.955 115.467C136.41 115.148 136.799 114.744 137.102 114.278C137.459 113.662 137.639 112.958 137.621 112.246C138.182 111.805 138.62 111.226 138.893 110.565C139.091 110.025 139.181 109.452 139.159 108.877L123.077 100.811Z" fill="#FFEC61"/>
<path d="M120.374 103.517L138.074 112.376" stroke="white" stroke-width="0.3" stroke-linecap="round" stroke-linejoin="round"/>
<path d="M118.64 107L136.324 115.853" stroke="white" stroke-width="0.3" stroke-linecap="round" stroke-linejoin="round"/>
<path d="M117.043 110.882L134.272 119.499" stroke="white" stroke-width="0.3" stroke-linecap="round" stroke-linejoin="round"/>
<path d="M123.014 99.1577L140.254 107.796C142.564 106.133 145.727 103.754 149.583 100.872C159.244 93.5771 160.407 92.3935 161.405 91.1739C163.877 88.1971 168.477 82.6467 167.655 75.05C166.65 65.6193 158.069 60.0085 156.759 59.0857C156.203 58.7275 145.203 52.0111 134.062 56.8907C130.978 58.2901 128.267 60.401 126.151 63.0508C124.035 65.7005 122.574 68.8138 121.888 72.1358C121.315 74.8779 121.737 75.9735 122.416 86.8422C122.722 92.1061 122.915 96.3572 123.014 99.1577Z" fill="#F766D8" stroke="white" stroke-width="0.3" stroke-linecap="round" stroke-linejoin="round"/>
<path d="M137.022 59.6446C136.246 59.9437 135.49 60.2904 134.756 60.6828C134.263 60.9483 133.738 61.2569 133.15 61.6513C130.887 62.9733 128.968 64.8123 127.548 67.0181C126.974 67.997 126.511 69.0372 126.168 70.1191C126.928 69.4116 127.733 68.7543 128.577 68.1513C129.989 67.1577 131.498 66.3102 133.08 65.6218C138.52 63.1484 140.807 63.6255 141.519 61.816C141.746 61.3004 141.807 60.7272 141.695 60.1756C141.582 59.624 141.302 59.1213 140.892 58.7371C140.415 58.3516 139.252 58.7722 137.022 59.6446Z" fill="white" stroke="white" stroke-width="0.3" stroke-linecap="round" stroke-linejoin="round"/>
<path d="M69.8471 66.0989C69.3751 66.6521 69.0646 67.325 68.9497 68.0433C68.8493 68.7429 68.9348 69.4563 69.1975 70.1115C68.9068 70.3116 68.6596 70.5688 68.4712 70.8677C68.2828 71.1665 68.1572 71.5006 68.1018 71.8495C68.0697 72.3704 68.2056 72.8875 68.4895 73.3243C68.0792 73.895 67.8567 74.5796 67.853 75.2825C67.8676 75.982 68.0748 76.6635 68.4516 77.2518C68.0734 77.8509 67.851 78.5352 67.8047 79.2421C67.7809 79.8221 67.8827 80.4001 68.1033 80.9364L85.7937 82.7465C85.9581 82.4302 86.1 82.1027 86.2184 81.7665C86.3277 81.4888 86.4201 81.2047 86.4949 80.9158C86.5677 80.1895 86.416 79.4587 86.0605 78.8224C86.5356 78.2421 86.8225 77.5303 86.8828 76.7826C86.9116 76.199 86.8039 75.617 86.5682 75.0831C86.9354 74.5586 87.1665 73.9508 87.2403 73.3148C87.3142 72.6787 87.2286 72.0345 86.9912 71.4405C87.3449 70.8249 87.5346 70.1287 87.5421 69.4189C87.5487 68.8465 87.4381 68.279 87.217 67.7515L69.8471 66.0989Z" fill="#FFEC61" stroke="white" stroke-width="0.2" stroke-linecap="round" stroke-linejoin="round"/>
<path d="M67.0319 69.4787L86.7401 71.3413" stroke="white" stroke-width="0.3" stroke-linecap="round" stroke-linejoin="round"/>
<path d="M67.9476 73.4677L86.2541 75.0698" stroke="white" stroke-width="0.3" stroke-linecap="round" stroke-linejoin="round"/>
<path d="M67.8538 77.6611L85.7264 78.856" stroke="white" stroke-width="0.3" stroke-linecap="round" stroke-linejoin="round"/>
<path d="M69.2219 64.5831L88.4135 66.4019C89.9256 64.0362 92.0538 60.6461 94.614 56.5801C101.035 46.2441 101.684 44.6806 102.16 43.2733C103.359 39.5816 105.678 32.775 102.189 25.9796C97.8481 17.5587 87.8317 15.4389 86.2539 15.1213C85.6458 14.9236 72.8873 12.6934 64.2938 21.276C61.9182 23.694 60.1474 26.6412 59.1269 29.8757C58.1063 33.1102 57.8651 36.5399 58.4228 39.8833C58.867 42.6542 59.6606 43.5333 64.2187 53.4091C66.4005 58.129 68.1084 62.0205 69.2219 64.5831Z" fill="#65CBE4" stroke="white" stroke-width="0.3" stroke-linecap="round" stroke-linejoin="round"/>
<path d="M68.6719 23.8168C68.048 24.3499 67.4597 24.9235 66.9106 25.5337C66.51 25.983 66.133 26.4528 65.7807 26.9411C64.1866 29.0211 63.1013 31.4463 62.6123 34.0216C62.4248 35.1216 62.3644 36.2393 62.432 37.3527C62.9102 36.4204 63.4355 35.5131 64.0057 34.6343C64.9709 33.2002 66.0747 31.8648 67.301 30.6475C71.4731 26.4132 73.749 26.0526 73.8156 24.0512C73.8535 23.5034 73.7238 22.9573 73.4439 22.4858C73.164 22.0144 72.7472 21.6399 72.2491 21.4124C71.5557 21.2047 70.5929 22.0986 68.6719 23.8168Z" fill="white" stroke="white" stroke-width="0.3" stroke-linecap="round" stroke-linejoin="round"/>
<path d="M77.2026 62.0841C78.7877 59.0894 79.2358 55.6217 78.4635 52.325C78.3539 51.8457 77.551 48.763 76.5396 48.7714C75.5283 48.7799 74.4952 51.1417 75.2458 52.7521C76.2445 54.8514 80.4096 55.2114 83.1364 54.6069C84.0879 54.4015 87.6493 53.6247 88.5891 50.8422C89.3769 48.4185 87.9624 45.4209 86.823 45.3878C85.6836 45.3546 84.6433 48.2287 84.0635 49.9036C82.7175 54.0163 82.4244 58.4005 83.2109 62.6528L77.2026 62.0841Z" stroke="#B2F4F7" stroke-width="0.3" stroke-linecap="round" stroke-linejoin="round"/>
<path d="M76.2665 62.6144C77.8414 59.6164 78.289 56.1525 77.5275 52.8552C77.4019 52.3707 76.599 49.288 75.6037 49.3017C74.6083 49.3153 73.554 51.688 74.3098 53.2824C75.3085 55.3817 79.4736 55.7416 82.2004 55.1372C83.1307 54.9426 86.7133 54.1549 87.6531 51.3724C88.4357 48.9647 87.0264 45.9511 85.887 45.918C84.7476 45.8848 83.7073 48.7589 83.1223 50.4499C81.7799 54.5633 81.4867 58.9465 82.2697 63.199L76.2665 62.6144Z" stroke="white" stroke-width="0.3" stroke-linecap="round" stroke-linejoin="round"/>
<path d="M135.055 101.42C135.315 98.0396 136.775 94.8621 139.17 92.4642C139.524 92.1357 141.846 89.9446 142.68 90.4819C143.514 91.0191 143.159 93.5833 141.675 94.5562C139.698 95.848 135.985 93.8782 133.997 91.9366C133.312 91.27 130.692 88.7148 131.401 85.7688C131.976 83.2935 134.791 81.5464 135.833 82.098C136.874 82.6495 136.176 85.6701 135.772 87.4023C134.739 91.6095 132.663 95.4887 129.735 98.6794L135.055 101.42Z" stroke="#FCBBF7" stroke-width="0.3" stroke-linecap="round" stroke-linejoin="round"/>
<path d="M135.586 102.178C135.845 98.7979 137.305 95.6204 139.7 93.2225C140.054 92.894 142.377 90.7029 143.211 91.2402C144.045 91.7774 143.689 94.3416 142.205 95.3145C140.228 96.6063 136.515 94.6365 134.528 92.6949C133.842 92.0283 131.222 89.4731 131.932 86.5271C132.506 84.0518 135.321 82.3047 136.363 82.8563C137.405 83.4078 136.706 86.4284 136.302 88.1606C135.266 92.3665 133.19 96.2449 130.266 99.4377L135.586 102.178Z" stroke="white" stroke-width="0.3" stroke-linecap="round" stroke-linejoin="round"/>
</g>
<defs>
<filter id="filter0_d" x="2.823" y="142.601" width="225.197" height="49.7187" filterUnits="userSpaceOnUse" color-interpolation-filters="sRGB">
<feFlood flood-opacity="0" result="BackgroundImageFix"/>
<feColorMatrix in="SourceAlpha" type="matrix" values="0 0 0 0 0 0 0 0 0 0 0 0 0 0 0 0 0 0 127 0"/>
<feOffset dy="4"/>
<feGaussianBlur stdDeviation="2"/>
<feColorMatrix type="matrix" values="0 0 0 0 0 0 0 0 0 0 0 0 0 0 0 0 0 0 0.25 0"/>
<feBlend mode="normal" in2="BackgroundImageFix" result="effect1_dropShadow"/>
<feBlend mode="normal" in="SourceGraphic" in2="effect1_dropShadow" result="shape"/>
</filter>
</defs>
</svg>
