<svg width="334" height="207" viewBox="0 0 334 207" fill="none" xmlns="http://www.w3.org/2000/svg">
<g filter="url(#filter0_d)">
<rect x="58.823" y="147.781" width="217.197" height="41.7187" rx="10" fill="#7C8294"/>
<path d="M88.304 166.28C86.756 166.28 85.478 166.82 84.506 167.864C83.984 166.82 82.904 166.28 81.518 166.28C80.312 166.28 79.214 166.64 78.368 167.432L78.566 166.388H76.4239L74.5159 176H76.766L77.774 171.014C78.152 169.124 79.178 168.242 80.726 168.242C81.968 168.242 82.562 168.854 82.562 169.97C82.562 170.204 82.544 170.456 82.49 170.726L81.428 176H83.678L84.686 170.996C85.064 169.124 86.09 168.242 87.638 168.242C88.88 168.242 89.474 168.854 89.474 169.97C89.474 170.204 89.456 170.456 89.402 170.726L88.34 176H90.59L91.652 170.672C91.742 170.24 91.778 169.844 91.778 169.484C91.778 167.396 90.428 166.28 88.304 166.28ZM98.3051 176.126C101.635 176.126 104.029 173.714 104.029 170.492C104.029 167.936 102.193 166.28 99.3491 166.28C96.0191 166.28 93.6431 168.674 93.6431 171.896C93.6431 174.434 95.4791 176.126 98.3051 176.126ZM98.4491 174.2C96.8291 174.2 95.9111 173.282 95.9111 171.788C95.9111 169.664 97.3151 168.188 99.2231 168.188C100.843 168.188 101.761 169.106 101.761 170.6C101.761 172.724 100.357 174.2 98.4491 174.2ZM111.365 164.336C111.851 164.336 112.247 164.48 112.553 164.732L113.471 163.094C112.967 162.716 112.193 162.518 111.365 162.518C109.205 162.518 107.909 163.76 107.495 165.776L107.351 166.46H105.785L105.425 168.26H106.991L105.443 176H107.693L109.241 168.26H111.815L112.175 166.46H109.547L109.655 165.938C109.889 164.858 110.411 164.336 111.365 164.336ZM123.607 162.104C122.689 162.104 122.077 162.734 122.077 163.544C122.077 164.228 122.617 164.804 123.427 164.804C124.345 164.804 124.957 164.192 124.957 163.31C124.957 162.644 124.417 162.104 123.607 162.104ZM118.009 164.336C118.495 164.336 118.891 164.48 119.197 164.732L120.115 163.094C119.611 162.716 118.837 162.518 118.009 162.518C115.849 162.518 114.553 163.76 114.139 165.776L113.995 166.46H112.429L112.069 168.26H113.635L112.087 176H114.337L115.885 168.26H118.459L118.819 166.46H116.191L116.299 165.938C116.533 164.858 117.055 164.336 118.009 164.336ZM119.881 176H122.131L124.039 166.388H121.789L119.881 176ZM129.156 168.26H131.748L132.108 166.46H129.516L129.966 164.264H127.716L127.284 166.46H125.718L125.358 168.26H126.924L126.006 172.796C125.952 173.066 125.934 173.318 125.934 173.552C125.934 175.172 127.05 176.126 128.688 176.126C129.48 176.126 130.326 175.982 131.01 175.55L130.614 173.894C130.236 174.146 129.786 174.272 129.354 174.272C128.562 174.272 128.22 173.858 128.22 173.192C128.22 173.066 128.238 172.922 128.256 172.778L129.156 168.26ZM136.557 168.26H139.149L139.509 166.46H136.917L137.367 164.264H135.117L134.685 166.46H133.119L132.759 168.26H134.325L133.407 172.796C133.353 173.066 133.335 173.318 133.335 173.552C133.335 175.172 134.451 176.126 136.089 176.126C136.881 176.126 137.727 175.982 138.411 175.55L138.015 173.894C137.637 174.146 137.187 174.272 136.755 174.272C135.963 174.272 135.621 173.858 135.621 173.192C135.621 173.066 135.639 172.922 135.657 172.778L136.557 168.26ZM158.88 166.28C157.332 166.28 156.054 166.82 155.082 167.864C154.56 166.82 153.48 166.28 152.094 166.28C150.888 166.28 149.79 166.64 148.944 167.432L149.142 166.388H147L145.092 176H147.342L148.35 171.014C148.728 169.124 149.754 168.242 151.302 168.242C152.544 168.242 153.138 168.854 153.138 169.97C153.138 170.204 153.12 170.456 153.066 170.726L152.004 176H154.254L155.262 170.996C155.64 169.124 156.666 168.242 158.214 168.242C159.456 168.242 160.05 168.854 160.05 169.97C160.05 170.204 160.032 170.456 159.978 170.726L158.916 176H161.166L162.228 170.672C162.318 170.24 162.354 169.844 162.354 169.484C162.354 167.396 161.004 166.28 158.88 166.28ZM173.183 166.388L172.913 167.81C172.265 166.784 171.131 166.28 169.637 166.28C166.559 166.28 164.219 168.62 164.219 171.896C164.219 174.56 166.091 176.126 168.449 176.126C169.709 176.126 170.771 175.73 171.581 175.01L171.383 176H173.525L175.433 166.388H173.183ZM169.025 174.2C167.405 174.2 166.487 173.282 166.487 171.788C166.487 169.664 167.891 168.188 169.799 168.188C171.419 168.188 172.337 169.106 172.337 170.6C172.337 172.724 170.933 174.2 169.025 174.2ZM188.133 166.388H185.073L179.799 170.618L181.383 162.644H179.133L176.469 176H178.719L179.223 173.462L181.239 171.842L183.813 176H186.423L183.039 170.51L188.133 166.388ZM197.377 170.492C197.377 167.864 195.613 166.28 192.949 166.28C189.727 166.28 187.405 168.638 187.405 171.896C187.405 174.452 189.241 176.126 192.139 176.126C193.615 176.126 195.073 175.694 196.081 174.794L195.145 173.228C194.479 173.858 193.471 174.218 192.373 174.218C190.519 174.218 189.637 173.39 189.601 171.86H197.233C197.323 171.446 197.377 170.978 197.377 170.492ZM192.841 168.08C194.335 168.08 195.325 168.89 195.307 170.366H189.799C190.213 168.962 191.311 168.08 192.841 168.08ZM202.257 167.63L202.509 166.388H200.367L198.459 176H200.709L201.663 171.266C202.059 169.268 203.229 168.368 204.993 168.368C205.209 168.368 205.353 168.386 205.551 168.422L205.965 166.28C204.345 166.28 203.139 166.622 202.257 167.63ZM209.241 176.126C211.941 176.126 213.849 174.992 213.849 172.886C213.849 169.682 208.647 170.924 208.647 169.268C208.647 168.602 209.349 168.098 210.807 168.098C211.743 168.098 212.805 168.296 213.651 168.836L214.479 167.108C213.669 166.586 212.319 166.28 211.023 166.28C208.287 166.28 206.451 167.504 206.451 169.52C206.451 172.778 211.653 171.554 211.653 173.138C211.653 173.858 210.951 174.29 209.475 174.29C208.197 174.29 206.901 173.912 206.127 173.354L205.191 175.082C205.983 175.676 207.567 176.126 209.241 176.126ZM222.213 166.28C220.953 166.28 219.891 166.676 219.081 167.396L219.279 166.388H217.137L214.527 179.492H216.777L217.749 174.578C218.379 175.604 219.531 176.126 221.043 176.126C224.103 176.126 226.443 173.768 226.443 170.492C226.443 167.828 224.571 166.28 222.213 166.28ZM220.863 174.2C219.243 174.2 218.325 173.282 218.325 171.788C218.325 169.664 219.729 168.188 221.637 168.188C223.257 168.188 224.175 169.106 224.175 170.6C224.175 172.724 222.771 174.2 220.863 174.2ZM236.623 166.388L236.353 167.81C235.705 166.784 234.571 166.28 233.077 166.28C229.999 166.28 227.659 168.62 227.659 171.896C227.659 174.56 229.531 176.126 231.889 176.126C233.149 176.126 234.211 175.73 235.021 175.01L234.823 176H236.965L238.873 166.388H236.623ZM232.465 174.2C230.845 174.2 229.927 173.282 229.927 171.788C229.927 169.664 231.331 168.188 233.239 168.188C234.859 168.188 235.777 169.106 235.777 170.6C235.777 172.724 234.373 174.2 232.465 174.2ZM244.715 176.126C246.551 176.126 248.207 175.334 249.107 173.984L247.451 172.868C246.821 173.786 245.885 174.2 244.823 174.2C243.185 174.2 242.267 173.282 242.267 171.788C242.267 169.664 243.671 168.188 245.579 168.188C246.713 168.188 247.523 168.62 247.973 169.52L249.899 168.53C249.125 167.036 247.703 166.28 245.759 166.28C242.375 166.28 239.999 168.674 239.999 171.896C239.999 174.434 241.835 176.126 244.715 176.126ZM260.289 170.492C260.289 167.864 258.525 166.28 255.861 166.28C252.639 166.28 250.317 168.638 250.317 171.896C250.317 174.452 252.153 176.126 255.051 176.126C256.527 176.126 257.985 175.694 258.993 174.794L258.057 173.228C257.391 173.858 256.383 174.218 255.285 174.218C253.431 174.218 252.549 173.39 252.513 171.86H260.145C260.235 171.446 260.289 170.978 260.289 170.492ZM255.753 168.08C257.247 168.08 258.237 168.89 258.219 170.366H252.711C253.125 168.962 254.223 168.08 255.753 168.08Z" fill="white"/>
</g>
<g opacity="0.85">
<path d="M96.0031 53.2457L94.2558 52.2707L90.5289 53.7461L85.6414 48.0962L87.7657 44.9955L87.3978 42.5277L84.0904 40.7071L85.5642 33.4816L89.2707 32.9224L90.9989 31.0708L90.3091 27.4384L97.488 23.9821L100.169 26.8915L102.549 26.919L105.634 24.1769L112.259 28.5876L110.645 31.5375L111.684 33.2617L116.1 33.7122L117.286 41.455L114.329 42.6885L113.226 44.8438L115.322 47.9151L109.974 53.6962L107.912 52.5511L105.406 53.5453L105.098 55.9715L97.0263 56.5665L96.0031 53.2457Z" fill="#65CBE4" stroke="#65CBE4" stroke-miterlimit="10" stroke-linecap="round"/>
<path d="M96.2498 54.7527L94.4866 53.7726L90.7756 55.2531L85.8721 49.5981L87.9964 46.4974L87.6233 44.0454L84.3211 42.209L85.7949 34.9835L89.5014 34.4243L91.2244 32.5885L90.5397 28.9403L97.7188 25.484L100.4 28.3934L102.78 28.421L105.865 25.6788L112.506 30.0947L110.875 33.0395L111.914 34.7636L116.33 35.2141L117.516 42.957L114.576 44.1956L113.456 46.3458L115.548 49.4327L110.205 55.1981L108.143 54.053L105.637 55.0472L105.328 57.4734L97.257 58.0685L96.2498 54.7527Z" fill="#F7E326" stroke="#F7E326" stroke-miterlimit="10" stroke-linecap="round"/>
<path d="M98.0343 49.837C102.666 51.3138 107.644 48.8168 109.154 44.2597C110.664 39.7026 108.133 34.8111 103.502 33.3342C98.8703 31.8574 93.8918 34.3544 92.382 38.9115C90.8721 43.4687 93.4028 48.3602 98.0343 49.837Z" fill="#191847"/>
<path d="M96.2273 49.0351C96.9297 49.4514 97.6904 49.7644 98.4852 49.964C99.2488 50.1688 100.038 50.268 100.829 50.2589C102.191 50.2502 103.533 49.9404 104.757 49.3524C105.515 48.962 106.214 48.47 106.834 47.8906C106.093 48.2882 105.319 48.6238 104.52 48.8937C103.891 49.1052 103.246 49.2663 102.591 49.3754C101.844 49.501 101.086 49.5511 100.329 49.5249C99.7493 49.5236 99.1697 49.4899 98.5934 49.424C97.7982 49.3357 97.0084 49.2059 96.2273 49.0351Z" fill="#66CBE4"/>
<path d="M106.845 47.8767C106.104 48.2744 105.33 48.61 104.531 48.8798C103.902 49.0913 103.257 49.2524 102.602 49.3616C101.855 49.4872 101.097 49.5373 100.341 49.511C99.7603 49.5097 99.1807 49.476 98.6045 49.4101C97.8242 49.3306 97.0487 49.2112 96.2812 49.0523C96.8497 49.3861 97.4551 49.6551 98.0858 49.8541L98.5339 49.997C99.2974 50.2017 100.086 50.301 100.878 50.2918C102.227 50.2672 103.555 49.9469 104.763 49.3543C105.521 48.9639 106.22 48.4719 106.84 47.8924L106.845 47.8767Z" fill="#66CBE4"/>
<path d="M214.341 90.3881L214.102 88.1706L210.286 85.8045L212.339 77.6843L216.623 77.5706L218.675 75.5959L218.211 71.4434L225.88 68.004L228.822 70.9793L231.683 71.317L234.612 68.2987L242.529 72.4947L241.579 76.8054L243.089 78.9758L247.658 79.9277L247.882 88.8091L244.096 89.2904L243.167 91.3447L245.645 95.6168L239.213 101.784L236.145 99.935L233.423 100.355L231.921 104.246L223.051 103.246L222.778 100.652L220.201 99.0295L217.762 100.358L211.918 93.4808L214.341 90.3881Z" fill="#65CBE4" stroke="#65CBE4" stroke-miterlimit="10" stroke-linecap="round"/>
<path d="M213.091 91.5917L212.857 89.3584L209.041 86.9923L211.094 78.8722L215.362 78.7533L217.425 76.7995L216.966 72.6313L224.63 69.2076L227.577 72.1672L230.433 72.5206L233.362 69.5023L241.279 73.6983L240.329 78.009L241.839 80.1794L246.407 81.1312L246.653 90.002L242.845 90.494L241.917 92.5483L244.394 96.8204L237.968 102.972L234.9 101.123L232.178 101.543L230.671 105.45L221.806 104.434L221.517 101.835L218.951 100.233L216.495 101.557L210.668 94.6844L213.091 91.5917Z" fill="#F7E326" stroke="#F7E326" stroke-miterlimit="10" stroke-linecap="round"/>
<path d="M225.214 96.2929C230.421 97.953 236.017 95.1462 237.714 90.0238C239.411 84.9014 236.566 79.4031 231.36 77.7431C226.154 76.083 220.558 78.8898 218.861 84.0122C217.164 89.1346 220.008 94.6329 225.214 96.2929Z" fill="#191847"/>
<path d="M218.39 87.8145C218.468 88.7164 218.675 89.6028 219.004 90.4477C219.311 91.2764 219.738 92.0574 220.271 92.7667C221.188 93.9641 222.373 94.9377 223.734 95.6121C224.589 96.0393 225.507 96.332 226.455 96.4796C225.597 96.0809 224.776 95.6095 224.002 95.0707C223.398 94.6526 222.831 94.1863 222.305 93.6765C221.701 93.0824 221.158 92.4311 220.684 91.7321C220.179 91.0139 219.851 90.4564 219.603 90.0292C219.355 89.602 218.806 88.748 218.39 87.8145Z" fill="#66CBE4"/>
<path d="M218.39 87.8143C218.469 88.7162 218.675 89.6026 219.004 90.4476C219.312 91.2763 219.738 92.0573 220.271 92.7666C221.188 93.964 222.373 94.9376 223.734 95.612C224.595 96.0249 225.511 96.3169 226.455 96.4795C225.597 96.0807 224.777 95.6093 224.002 95.0706C223.399 94.6525 222.831 94.1862 222.305 93.6764C221.701 93.0823 221.158 92.431 220.685 91.732C220.179 91.0137 219.851 90.4563 219.603 90.0291C219.355 89.6019 218.843 88.6377 218.427 87.7041L218.39 87.8143Z" fill="#66CBE4"/>
<path d="M146.649 77.492L148.753 76.1085L149.157 71.2055L158.335 68.9786L160.651 73.0426L163.676 74.0071L167.598 71.4099L174.982 77.0551L173.532 81.4327L174.664 84.3705L179.181 85.6368L179.072 95.4737L174.263 96.7957L172.891 99.3877L174.287 104.307L165.526 109.122L163.081 105.713L160.548 105.881L157.555 110.48L148.081 107.459L148.337 103.536L146.521 101.112L141.851 101.695L138.282 92.6L140.752 90.9674L141.033 87.6621L138.445 85.9663L142.306 76.7687L146.649 77.492Z" fill="#F766D8" stroke="#F766D8" stroke-miterlimit="10" stroke-linecap="round"/>
<path d="M144.806 76.9041L146.91 75.5206L147.314 70.6176L156.492 68.3907L158.808 72.4548L161.833 73.4192L165.755 70.822L173.139 76.4671L171.689 80.8448L172.821 83.7826L177.354 85.054L177.229 94.8858L172.42 96.2078L171.048 98.7998L172.444 103.719L163.683 108.534L161.238 105.125L158.705 105.293L155.712 109.892L146.238 106.871L146.494 102.949L144.678 100.524L140.008 101.107L136.439 92.0121L138.909 90.3795L139.19 87.0741L136.602 85.3785L140.463 76.1808L144.806 76.9041Z" fill="#F7E326" stroke="#F7E326" stroke-miterlimit="10" stroke-linecap="round"/>
<path d="M153.799 99.5497C159.589 101.396 165.812 98.2744 167.699 92.578C169.586 86.8816 166.423 80.7673 160.634 78.9212C154.844 77.0752 148.621 80.1965 146.734 85.8928C144.846 91.5892 148.01 97.7036 153.799 99.5497Z" fill="#191847"/>
<path d="M151.422 79.9014C150.533 80.4256 149.724 81.0702 149.018 81.8161C148.352 82.5405 147.791 83.3519 147.352 84.2273C146.577 85.7289 146.168 87.3862 146.155 89.0687C146.155 90.1185 146.316 91.1619 146.633 92.1637C146.596 91.129 146.655 90.093 146.809 89.0686C146.915 88.2639 147.09 87.4692 147.331 86.693C147.643 85.8268 148.033 84.9897 148.496 84.1917C148.848 83.5347 149.236 82.8971 149.66 82.2819C150.198 81.4546 150.786 80.6597 151.422 79.9014Z" fill="#F766D8"/>
<path d="M151.422 79.9014C150.533 80.4256 149.724 81.0702 149.018 81.8161C148.352 82.5405 147.791 83.3519 147.352 84.2273C146.577 85.7289 146.168 87.3862 146.155 89.0687C146.155 90.1185 146.316 91.1619 146.633 92.1637C146.596 91.129 146.655 90.093 146.809 89.0686C146.915 88.2639 147.09 87.4692 147.331 86.693C147.643 85.8268 148.033 84.9897 148.496 84.1917C148.848 83.5347 149.236 82.8971 149.66 82.2819C150.189 81.4698 150.767 80.689 151.39 79.9435L151.422 79.9014Z" fill="#F766D8"/>
<path d="M175.077 109.068C174.435 109.404 173.9 109.909 173.532 110.526C173.18 111.128 173.008 111.815 173.035 112.508C172.685 112.582 172.355 112.727 172.066 112.935C171.778 113.144 171.537 113.41 171.361 113.716C171.134 114.183 171.077 114.712 171.201 115.214C170.617 115.603 170.173 116.161 169.928 116.811C169.709 117.458 169.675 118.152 169.83 118.816C169.24 119.222 168.791 119.796 168.542 120.46C168.354 121.004 168.302 121.585 168.389 122.152L184.161 130.037C184.755 129.691 185.247 129.2 185.589 128.612C185.937 128.03 186.12 127.366 186.119 126.692C186.719 126.392 187.215 125.923 187.542 125.345C187.869 124.767 188.013 124.105 187.955 123.447C188.41 123.134 188.799 122.738 189.102 122.28C189.459 121.676 189.639 120.986 189.621 120.287C190.182 119.854 190.62 119.286 190.893 118.638C191.091 118.108 191.181 117.545 191.159 116.982L175.077 109.068Z" fill="#FFEC61"/>
<path d="M172.374 111.723L190.074 120.414" stroke="white" stroke-width="0.3" stroke-linecap="round" stroke-linejoin="round"/>
<path d="M170.64 115.14L188.324 123.826" stroke="white" stroke-width="0.3" stroke-linecap="round" stroke-linejoin="round"/>
<path d="M169.043 118.948L186.272 127.402" stroke="white" stroke-width="0.3" stroke-linecap="round" stroke-linejoin="round"/>
<path d="M175.014 107.447L192.254 115.921C194.564 114.29 197.727 111.956 201.583 109.129C211.244 101.972 212.407 100.811 213.405 99.6143C215.877 96.694 220.477 91.2488 219.655 83.7961C218.65 74.5442 210.069 69.0398 208.759 68.1345C208.203 67.7831 197.203 61.194 186.062 65.9811C182.978 67.3539 180.267 69.4248 178.151 72.0244C176.035 74.6239 174.574 77.6781 173.888 80.9371C173.315 83.6272 173.737 84.7021 174.416 95.3648C174.722 100.529 174.915 104.699 175.014 107.447Z" fill="#F766D8" stroke="white" stroke-width="0.3" stroke-linecap="round" stroke-linejoin="round"/>
<path d="M189.022 68.683C188.246 68.9764 187.49 69.3165 186.756 69.7014C186.263 69.962 185.738 70.2647 185.15 70.6516C182.887 71.9486 180.968 73.7527 179.548 75.9167C178.974 76.8771 178.511 77.8975 178.168 78.9589C178.928 78.2648 179.733 77.62 180.577 77.0284C181.989 76.0537 183.498 75.2222 185.08 74.5468C190.52 72.1203 192.807 72.5884 193.519 70.8132C193.746 70.3074 193.807 69.745 193.695 69.2039C193.582 68.6627 193.302 68.1696 192.892 67.7927C192.415 67.4145 191.252 67.8271 189.022 68.683Z" fill="white" stroke="white" stroke-width="0.3" stroke-linecap="round" stroke-linejoin="round"/>
<path d="M121.847 75.0145C121.375 75.5572 121.065 76.2174 120.95 76.9221C120.849 77.6084 120.935 78.3083 121.198 78.9511C120.907 79.1473 120.66 79.3997 120.471 79.6929C120.283 79.986 120.157 80.3138 120.102 80.6561C120.07 81.1671 120.206 81.6744 120.49 82.1029C120.079 82.6628 119.857 83.3345 119.853 84.0241C119.868 84.7103 120.075 85.3789 120.452 85.956C120.073 86.5437 119.851 87.215 119.805 87.9086C119.781 88.4776 119.883 89.0446 120.103 89.5708L137.794 91.3465C137.958 91.0362 138.1 90.7149 138.218 90.3851C138.328 90.1126 138.42 89.8339 138.495 89.5505C138.568 88.838 138.416 88.1211 138.061 87.4968C138.536 86.9275 138.822 86.2292 138.883 85.4957C138.912 84.9231 138.804 84.3522 138.568 83.8284C138.935 83.3139 139.166 82.7176 139.24 82.0936C139.314 81.4696 139.229 80.8376 138.991 80.2549C139.345 79.651 139.535 78.9679 139.542 78.2716C139.549 77.71 139.438 77.1533 139.217 76.6358L121.847 75.0145Z" fill="#FFEC61" stroke="white" stroke-width="0.2" stroke-linecap="round" stroke-linejoin="round"/>
<path d="M119.032 78.3305L138.74 80.1578" stroke="white" stroke-width="0.3" stroke-linecap="round" stroke-linejoin="round"/>
<path d="M119.948 82.2432L138.254 83.815" stroke="white" stroke-width="0.3" stroke-linecap="round" stroke-linejoin="round"/>
<path d="M119.854 86.3579L137.726 87.5301" stroke="white" stroke-width="0.3" stroke-linecap="round" stroke-linejoin="round"/>
<path d="M121.222 73.5271L140.413 75.3114C141.926 72.9905 144.054 69.6647 146.614 65.6758C153.035 55.5358 153.684 54.0019 154.16 52.6213C155.359 48.9995 157.678 42.3219 154.189 35.6554C149.848 27.3941 139.832 25.3145 138.254 25.0029C137.646 24.809 124.887 22.6211 116.294 31.041C113.918 33.4132 112.147 36.3045 111.127 39.4776C110.106 42.6508 109.865 46.0155 110.423 49.2955C110.867 52.0139 111.661 52.8763 116.219 62.5649C118.4 67.1953 120.108 71.0131 121.222 73.5271Z" fill="#65CBE4" stroke="white" stroke-width="0.3" stroke-linecap="round" stroke-linejoin="round"/>
<path d="M120.672 33.534C120.048 34.057 119.46 34.6197 118.911 35.2183C118.51 35.6592 118.133 36.1201 117.781 36.5991C116.187 38.6396 115.101 41.0189 114.612 43.5454C114.425 44.6245 114.364 45.721 114.432 46.8133C114.91 45.8987 115.435 45.0086 116.006 44.1464C116.971 42.7395 118.075 41.4294 119.301 40.2352C123.473 36.0812 125.749 35.7275 125.816 33.7639C125.853 33.2265 125.724 32.6908 125.444 32.2283C125.164 31.7657 124.747 31.3984 124.249 31.1752C123.556 30.9715 122.593 31.8483 120.672 33.534Z" fill="white" stroke="white" stroke-width="0.3" stroke-linecap="round" stroke-linejoin="round"/>
<path d="M129.203 71.0759C130.788 68.1379 131.236 64.736 130.464 61.5017C130.354 61.0315 129.551 58.0072 128.54 58.0155C127.528 58.0239 126.495 60.3408 127.246 61.9208C128.244 63.9803 132.41 64.3334 135.136 63.7404C136.088 63.5389 139.649 62.7768 140.589 60.047C141.377 57.6693 139.962 54.7285 138.823 54.696C137.684 54.6635 136.643 57.4831 136.063 59.1263C134.718 63.161 134.424 67.462 135.211 71.6337L129.203 71.0759Z" stroke="#B2F4F7" stroke-width="0.3" stroke-linecap="round" stroke-linejoin="round"/>
<path d="M128.267 71.5959C129.841 68.6548 130.289 65.2565 129.528 62.0218C129.402 61.5464 128.599 58.5222 127.604 58.5356C126.608 58.549 125.554 60.8766 126.31 62.4408C127.308 64.5003 131.474 64.8534 134.2 64.2604C135.131 64.0696 138.713 63.2968 139.653 60.5671C140.436 58.205 139.026 55.2485 137.887 55.216C136.748 55.1835 135.707 58.0031 135.122 59.6621C133.78 63.6974 133.487 67.9976 134.27 72.1695L128.267 71.5959Z" stroke="white" stroke-width="0.3" stroke-linecap="round" stroke-linejoin="round"/>
<path d="M187.055 109.666C187.315 106.35 188.775 103.233 191.17 100.88C191.524 100.558 193.846 98.4084 194.68 98.9354C195.514 99.4625 195.159 101.978 193.675 102.933C191.698 104.2 187.985 102.267 185.997 100.363C185.312 99.7087 182.692 97.2018 183.401 94.3117C183.976 91.8833 186.791 90.1694 187.833 90.7105C188.874 91.2516 188.176 94.2149 187.772 95.9142C186.739 100.042 184.663 103.847 181.735 106.978L187.055 109.666Z" stroke="#FCBBF7" stroke-width="0.3" stroke-linecap="round" stroke-linejoin="round"/>
<path d="M187.586 110.41C187.845 107.094 189.305 103.976 191.7 101.624C192.054 101.302 194.377 99.152 195.211 99.6791C196.045 100.206 195.689 102.722 194.205 103.676C192.228 104.944 188.515 103.011 186.528 101.106C185.842 100.452 183.222 97.9455 183.932 95.0554C184.506 92.627 187.321 90.913 188.363 91.4541C189.405 91.9952 188.706 94.9585 188.302 96.6579C187.266 100.784 185.19 104.589 182.266 107.721L187.586 110.41Z" stroke="white" stroke-width="0.3" stroke-linecap="round" stroke-linejoin="round"/>
</g>
<defs>
<filter id="filter0_d" x="54.823" y="147.781" width="225.197" height="49.7187" filterUnits="userSpaceOnUse" color-interpolation-filters="sRGB">
<feFlood flood-opacity="0" result="BackgroundImageFix"/>
<feColorMatrix in="SourceAlpha" type="matrix" values="0 0 0 0 0 0 0 0 0 0 0 0 0 0 0 0 0 0 127 0"/>
<feOffset dy="4"/>
<feGaussianBlur stdDeviation="2"/>
<feColorMatrix type="matrix" values="0 0 0 0 0 0 0 0 0 0 0 0 0 0 0 0 0 0 0.25 0"/>
<feBlend mode="normal" in2="BackgroundImageFix" result="effect1_dropShadow"/>
<feBlend mode="normal" in="SourceGraphic" in2="effect1_dropShadow" result="shape"/>
</filter>
</defs>
</svg>
