<svg width="334" height="207" viewBox="0 0 334 207" fill="none" xmlns="http://www.w3.org/2000/svg">
<g filter="url(#filter0_d)">
<rect x="58.823" y="149.781" width="217.197" height="41.7187" rx="10" fill="#7C8294"/>
<path d="M88.304 168.28C86.756 168.28 85.478 168.82 84.506 169.864C83.984 168.82 82.904 168.28 81.518 168.28C80.312 168.28 79.214 168.64 78.368 169.432L78.566 168.388H76.4239L74.5159 178H76.766L77.774 173.014C78.152 171.124 79.178 170.242 80.726 170.242C81.968 170.242 82.562 170.854 82.562 171.97C82.562 172.204 82.544 172.456 82.49 172.726L81.428 178H83.678L84.686 172.996C85.064 171.124 86.09 170.242 87.638 170.242C88.88 170.242 89.474 170.854 89.474 171.97C89.474 172.204 89.456 172.456 89.402 172.726L88.34 178H90.59L91.652 172.672C91.742 172.24 91.778 171.844 91.778 171.484C91.778 169.396 90.428 168.28 88.304 168.28ZM98.3051 178.126C101.635 178.126 104.029 175.714 104.029 172.492C104.029 169.936 102.193 168.28 99.3491 168.28C96.0191 168.28 93.6431 170.674 93.6431 173.896C93.6431 176.434 95.4791 178.126 98.3051 178.126ZM98.4491 176.2C96.8291 176.2 95.9111 175.282 95.9111 173.788C95.9111 171.664 97.3151 170.188 99.2231 170.188C100.843 170.188 101.761 171.106 101.761 172.6C101.761 174.724 100.357 176.2 98.4491 176.2ZM111.365 166.336C111.851 166.336 112.247 166.48 112.553 166.732L113.471 165.094C112.967 164.716 112.193 164.518 111.365 164.518C109.205 164.518 107.909 165.76 107.495 167.776L107.351 168.46H105.785L105.425 170.26H106.991L105.443 178H107.693L109.241 170.26H111.815L112.175 168.46H109.547L109.655 167.938C109.889 166.858 110.411 166.336 111.365 166.336ZM123.607 164.104C122.689 164.104 122.077 164.734 122.077 165.544C122.077 166.228 122.617 166.804 123.427 166.804C124.345 166.804 124.957 166.192 124.957 165.31C124.957 164.644 124.417 164.104 123.607 164.104ZM118.009 166.336C118.495 166.336 118.891 166.48 119.197 166.732L120.115 165.094C119.611 164.716 118.837 164.518 118.009 164.518C115.849 164.518 114.553 165.76 114.139 167.776L113.995 168.46H112.429L112.069 170.26H113.635L112.087 178H114.337L115.885 170.26H118.459L118.819 168.46H116.191L116.299 167.938C116.533 166.858 117.055 166.336 118.009 166.336ZM119.881 178H122.131L124.039 168.388H121.789L119.881 178ZM129.156 170.26H131.748L132.108 168.46H129.516L129.966 166.264H127.716L127.284 168.46H125.718L125.358 170.26H126.924L126.006 174.796C125.952 175.066 125.934 175.318 125.934 175.552C125.934 177.172 127.05 178.126 128.688 178.126C129.48 178.126 130.326 177.982 131.01 177.55L130.614 175.894C130.236 176.146 129.786 176.272 129.354 176.272C128.562 176.272 128.22 175.858 128.22 175.192C128.22 175.066 128.238 174.922 128.256 174.778L129.156 170.26ZM136.557 170.26H139.149L139.509 168.46H136.917L137.367 166.264H135.117L134.685 168.46H133.119L132.759 170.26H134.325L133.407 174.796C133.353 175.066 133.335 175.318 133.335 175.552C133.335 177.172 134.451 178.126 136.089 178.126C136.881 178.126 137.727 177.982 138.411 177.55L138.015 175.894C137.637 176.146 137.187 176.272 136.755 176.272C135.963 176.272 135.621 175.858 135.621 175.192C135.621 175.066 135.639 174.922 135.657 174.778L136.557 170.26ZM158.88 168.28C157.332 168.28 156.054 168.82 155.082 169.864C154.56 168.82 153.48 168.28 152.094 168.28C150.888 168.28 149.79 168.64 148.944 169.432L149.142 168.388H147L145.092 178H147.342L148.35 173.014C148.728 171.124 149.754 170.242 151.302 170.242C152.544 170.242 153.138 170.854 153.138 171.97C153.138 172.204 153.12 172.456 153.066 172.726L152.004 178H154.254L155.262 172.996C155.64 171.124 156.666 170.242 158.214 170.242C159.456 170.242 160.05 170.854 160.05 171.97C160.05 172.204 160.032 172.456 159.978 172.726L158.916 178H161.166L162.228 172.672C162.318 172.24 162.354 171.844 162.354 171.484C162.354 169.396 161.004 168.28 158.88 168.28ZM173.183 168.388L172.913 169.81C172.265 168.784 171.131 168.28 169.637 168.28C166.559 168.28 164.219 170.62 164.219 173.896C164.219 176.56 166.091 178.126 168.449 178.126C169.709 178.126 170.771 177.73 171.581 177.01L171.383 178H173.525L175.433 168.388H173.183ZM169.025 176.2C167.405 176.2 166.487 175.282 166.487 173.788C166.487 171.664 167.891 170.188 169.799 170.188C171.419 170.188 172.337 171.106 172.337 172.6C172.337 174.724 170.933 176.2 169.025 176.2ZM188.133 168.388H185.073L179.799 172.618L181.383 164.644H179.133L176.469 178H178.719L179.223 175.462L181.239 173.842L183.813 178H186.423L183.039 172.51L188.133 168.388ZM197.377 172.492C197.377 169.864 195.613 168.28 192.949 168.28C189.727 168.28 187.405 170.638 187.405 173.896C187.405 176.452 189.241 178.126 192.139 178.126C193.615 178.126 195.073 177.694 196.081 176.794L195.145 175.228C194.479 175.858 193.471 176.218 192.373 176.218C190.519 176.218 189.637 175.39 189.601 173.86H197.233C197.323 173.446 197.377 172.978 197.377 172.492ZM192.841 170.08C194.335 170.08 195.325 170.89 195.307 172.366H189.799C190.213 170.962 191.311 170.08 192.841 170.08ZM202.257 169.63L202.509 168.388H200.367L198.459 178H200.709L201.663 173.266C202.059 171.268 203.229 170.368 204.993 170.368C205.209 170.368 205.353 170.386 205.551 170.422L205.965 168.28C204.345 168.28 203.139 168.622 202.257 169.63ZM209.241 178.126C211.941 178.126 213.849 176.992 213.849 174.886C213.849 171.682 208.647 172.924 208.647 171.268C208.647 170.602 209.349 170.098 210.807 170.098C211.743 170.098 212.805 170.296 213.651 170.836L214.479 169.108C213.669 168.586 212.319 168.28 211.023 168.28C208.287 168.28 206.451 169.504 206.451 171.52C206.451 174.778 211.653 173.554 211.653 175.138C211.653 175.858 210.951 176.29 209.475 176.29C208.197 176.29 206.901 175.912 206.127 175.354L205.191 177.082C205.983 177.676 207.567 178.126 209.241 178.126ZM222.213 168.28C220.953 168.28 219.891 168.676 219.081 169.396L219.279 168.388H217.137L214.527 181.492H216.777L217.749 176.578C218.379 177.604 219.531 178.126 221.043 178.126C224.103 178.126 226.443 175.768 226.443 172.492C226.443 169.828 224.571 168.28 222.213 168.28ZM220.863 176.2C219.243 176.2 218.325 175.282 218.325 173.788C218.325 171.664 219.729 170.188 221.637 170.188C223.257 170.188 224.175 171.106 224.175 172.6C224.175 174.724 222.771 176.2 220.863 176.2ZM236.623 168.388L236.353 169.81C235.705 168.784 234.571 168.28 233.077 168.28C229.999 168.28 227.659 170.62 227.659 173.896C227.659 176.56 229.531 178.126 231.889 178.126C233.149 178.126 234.211 177.73 235.021 177.01L234.823 178H236.965L238.873 168.388H236.623ZM232.465 176.2C230.845 176.2 229.927 175.282 229.927 173.788C229.927 171.664 231.331 170.188 233.239 170.188C234.859 170.188 235.777 171.106 235.777 172.6C235.777 174.724 234.373 176.2 232.465 176.2ZM244.715 178.126C246.551 178.126 248.207 177.334 249.107 175.984L247.451 174.868C246.821 175.786 245.885 176.2 244.823 176.2C243.185 176.2 242.267 175.282 242.267 173.788C242.267 171.664 243.671 170.188 245.579 170.188C246.713 170.188 247.523 170.62 247.973 171.52L249.899 170.53C249.125 169.036 247.703 168.28 245.759 168.28C242.375 168.28 239.999 170.674 239.999 173.896C239.999 176.434 241.835 178.126 244.715 178.126ZM260.289 172.492C260.289 169.864 258.525 168.28 255.861 168.28C252.639 168.28 250.317 170.638 250.317 173.896C250.317 176.452 252.153 178.126 255.051 178.126C256.527 178.126 257.985 177.694 258.993 176.794L258.057 175.228C257.391 175.858 256.383 176.218 255.285 176.218C253.431 176.218 252.549 175.39 252.513 173.86H260.145C260.235 173.446 260.289 172.978 260.289 172.492ZM255.753 170.08C257.247 170.08 258.237 170.89 258.219 172.366H252.711C253.125 170.962 254.223 170.08 255.753 170.08Z" fill="white"/>
</g>
<g opacity="0.85">
<path d="M96.0031 55.2457L94.2558 54.2707L90.5289 55.7461L85.6414 50.0962L87.7657 46.9955L87.3978 44.5277L84.0904 42.7071L85.5642 35.4816L89.2707 34.9224L90.9989 33.0708L90.3091 29.4384L97.488 25.9821L100.169 28.8915L102.549 28.919L105.634 26.1769L112.259 30.5876L110.645 33.5375L111.684 35.2617L116.1 35.7122L117.286 43.455L114.329 44.6885L113.226 46.8438L115.322 49.9151L109.974 55.6962L107.912 54.5511L105.406 55.5453L105.098 57.9715L97.0263 58.5665L96.0031 55.2457Z" fill="#65CBE4" stroke="#65CBE4" stroke-miterlimit="10" stroke-linecap="round"/>
<path d="M96.2498 56.7527L94.4866 55.7726L90.7756 57.2531L85.8721 51.5981L87.9964 48.4974L87.6233 46.0454L84.3211 44.209L85.7949 36.9835L89.5014 36.4243L91.2244 34.5885L90.5397 30.9403L97.7188 27.484L100.4 30.3934L102.78 30.421L105.865 27.6788L112.506 32.0947L110.875 35.0395L111.914 36.7636L116.33 37.2141L117.516 44.957L114.576 46.1956L113.456 48.3458L115.548 51.4327L110.205 57.1981L108.143 56.053L105.637 57.0472L105.328 59.4734L97.257 60.0685L96.2498 56.7527Z" fill="#F7E326" stroke="#F7E326" stroke-miterlimit="10" stroke-linecap="round"/>
<path d="M98.0343 51.837C102.666 53.3138 107.644 50.8168 109.154 46.2597C110.664 41.7026 108.133 36.8111 103.502 35.3342C98.8703 33.8574 93.8918 36.3544 92.382 40.9115C90.8721 45.4687 93.4028 50.3602 98.0343 51.837Z" fill="#191847"/>
<path d="M96.2273 51.0351C96.9297 51.4514 97.6904 51.7644 98.4852 51.964C99.2488 52.1688 100.038 52.268 100.829 52.2589C102.191 52.2502 103.533 51.9404 104.757 51.3524C105.515 50.962 106.214 50.47 106.834 49.8906C106.093 50.2882 105.319 50.6238 104.52 50.8937C103.891 51.1052 103.246 51.2663 102.591 51.3754C101.844 51.501 101.086 51.5511 100.329 51.5249C99.7493 51.5236 99.1697 51.4899 98.5934 51.424C97.7982 51.3357 97.0084 51.2059 96.2273 51.0351V51.0351Z" fill="#66CBE4"/>
<path d="M106.845 49.8767C106.104 50.2744 105.33 50.61 104.531 50.8798C103.902 51.0913 103.257 51.2524 102.602 51.3616C101.855 51.4872 101.097 51.5373 100.341 51.511C99.7603 51.5097 99.1807 51.476 98.6045 51.4101C97.8242 51.3306 97.0487 51.2112 96.2812 51.0523C96.8497 51.3861 97.4551 51.6551 98.0858 51.8541L98.5339 51.997C99.2974 52.2017 100.086 52.301 100.878 52.2918C102.227 52.2672 103.555 51.9469 104.763 51.3543C105.521 50.9639 106.22 50.4719 106.84 49.8924L106.845 49.8767Z" fill="#66CBE4"/>
<path d="M214.341 92.3881L214.102 90.1706L210.286 87.8045L212.339 79.6843L216.623 79.5706L218.675 77.5959L218.211 73.4434L225.88 70.004L228.822 72.9793L231.683 73.317L234.612 70.2987L242.529 74.4947L241.579 78.8054L243.089 80.9758L247.658 81.9277L247.882 90.8091L244.096 91.2904L243.167 93.3447L245.645 97.6168L239.213 103.784L236.145 101.935L233.423 102.355L231.921 106.246L223.051 105.246L222.778 102.652L220.201 101.03L217.762 102.358L211.918 95.4808L214.341 92.3881Z" fill="#65CBE4" stroke="#65CBE4" stroke-miterlimit="10" stroke-linecap="round"/>
<path d="M213.091 93.5917L212.857 91.3584L209.041 88.9923L211.094 80.8722L215.362 80.7533L217.425 78.7995L216.966 74.6313L224.63 71.2076L227.577 74.1672L230.433 74.5206L233.362 71.5023L241.279 75.6983L240.329 80.009L241.839 82.1794L246.407 83.1312L246.653 92.002L242.845 92.494L241.917 94.5483L244.394 98.8204L237.968 104.972L234.9 103.123L232.178 103.543L230.671 107.45L221.806 106.434L221.517 103.835L218.951 102.233L216.495 103.557L210.668 96.6844L213.091 93.5917Z" fill="#F7E326" stroke="#F7E326" stroke-miterlimit="10" stroke-linecap="round"/>
<path d="M225.214 98.2929C230.421 99.953 236.017 97.1462 237.714 92.0238C239.411 86.9014 236.566 81.4031 231.36 79.7431C226.154 78.083 220.558 80.8898 218.861 86.0122C217.164 91.1346 220.008 96.6329 225.214 98.2929Z" fill="#191847"/>
<path d="M218.39 89.8145C218.468 90.7164 218.675 91.6028 219.004 92.4477C219.311 93.2764 219.738 94.0574 220.271 94.7667C221.188 95.9641 222.373 96.9377 223.734 97.6121C224.589 98.0393 225.507 98.332 226.455 98.4796C225.597 98.0809 224.776 97.6095 224.002 97.0707C223.398 96.6526 222.831 96.1863 222.305 95.6765C221.701 95.0824 221.158 94.4311 220.684 93.7321C220.179 93.0139 219.851 92.4564 219.603 92.0292C219.355 91.602 218.806 90.748 218.39 89.8145Z" fill="#66CBE4"/>
<path d="M218.39 89.8143C218.469 90.7162 218.675 91.6026 219.004 92.4476C219.312 93.2763 219.738 94.0573 220.271 94.7666C221.188 95.964 222.373 96.9376 223.734 97.612C224.595 98.0249 225.511 98.3169 226.455 98.4795C225.597 98.0807 224.777 97.6093 224.002 97.0706C223.399 96.6525 222.831 96.1862 222.305 95.6764C221.701 95.0823 221.158 94.431 220.685 93.732C220.179 93.0137 219.851 92.4563 219.603 92.0291C219.355 91.6019 218.843 90.6377 218.427 89.7041L218.39 89.8143Z" fill="#66CBE4"/>
<path d="M146.649 79.492L148.753 78.1085L149.157 73.2055L158.335 70.9786L160.651 75.0426L163.676 76.0071L167.598 73.4099L174.982 79.0551L173.532 83.4327L174.664 86.3705L179.181 87.6368L179.072 97.4737L174.263 98.7957L172.891 101.388L174.287 106.307L165.526 111.122L163.081 107.713L160.548 107.881L157.555 112.48L148.081 109.459L148.337 105.536L146.521 103.112L141.851 103.695L138.282 94.6L140.752 92.9674L141.033 89.6621L138.445 87.9663L142.306 78.7687L146.649 79.492Z" fill="#F766D8" stroke="#F766D8" stroke-miterlimit="10" stroke-linecap="round"/>
<path d="M144.806 78.9041L146.91 77.5206L147.314 72.6176L156.492 70.3907L158.808 74.4548L161.833 75.4192L165.755 72.822L173.139 78.4671L171.689 82.8448L172.821 85.7826L177.354 87.054L177.229 96.8858L172.42 98.2078L171.048 100.8L172.444 105.719L163.683 110.534L161.238 107.125L158.705 107.293L155.712 111.892L146.238 108.871L146.494 104.949L144.678 102.524L140.008 103.107L136.439 94.0121L138.909 92.3795L139.19 89.0741L136.602 87.3785L140.463 78.1808L144.806 78.9041Z" fill="#F7E326" stroke="#F7E326" stroke-miterlimit="10" stroke-linecap="round"/>
<path d="M153.799 101.55C159.589 103.396 165.812 100.274 167.699 94.578C169.586 88.8816 166.423 82.7673 160.634 80.9212C154.844 79.0752 148.621 82.1965 146.734 87.8928C144.846 93.5892 148.01 99.7036 153.799 101.55Z" fill="#191847"/>
<path d="M151.422 81.9014C150.533 82.4256 149.724 83.0702 149.018 83.8161C148.352 84.5405 147.791 85.3519 147.352 86.2273C146.577 87.7289 146.168 89.3862 146.155 91.0687C146.155 92.1185 146.316 93.1619 146.633 94.1637C146.596 93.129 146.655 92.093 146.809 91.0686C146.915 90.2639 147.09 89.4692 147.331 88.693C147.643 87.8268 148.033 86.9897 148.496 86.1917C148.848 85.5347 149.236 84.8971 149.66 84.2819C150.198 83.4546 150.786 82.6597 151.422 81.9014V81.9014Z" fill="#F766D8"/>
<path d="M151.422 81.9014C150.533 82.4256 149.724 83.0702 149.018 83.8161C148.352 84.5405 147.791 85.3519 147.352 86.2273C146.577 87.7289 146.168 89.3862 146.155 91.0687C146.155 92.1185 146.316 93.1619 146.633 94.1637C146.596 93.129 146.655 92.093 146.809 91.0686C146.915 90.2639 147.09 89.4692 147.331 88.693C147.643 87.8268 148.033 86.9897 148.496 86.1917C148.848 85.5347 149.236 84.8971 149.66 84.2819C150.189 83.4698 150.767 82.689 151.39 81.9435L151.422 81.9014Z" fill="#F766D8"/>
<path d="M175.077 111.068C174.435 111.404 173.9 111.909 173.532 112.526C173.18 113.128 173.008 113.815 173.035 114.508C172.685 114.582 172.355 114.727 172.066 114.935C171.778 115.144 171.537 115.41 171.361 115.716C171.134 116.183 171.077 116.712 171.201 117.214C170.617 117.603 170.173 118.161 169.928 118.811C169.709 119.458 169.675 120.152 169.83 120.816C169.24 121.222 168.791 121.796 168.542 122.46C168.354 123.004 168.302 123.585 168.389 124.152L184.161 132.037C184.755 131.691 185.247 131.2 185.589 130.612C185.937 130.03 186.12 129.366 186.119 128.692C186.719 128.392 187.215 127.923 187.542 127.345C187.869 126.767 188.013 126.105 187.955 125.447C188.41 125.134 188.799 124.738 189.102 124.28C189.459 123.676 189.639 122.986 189.621 122.287C190.182 121.854 190.62 121.286 190.893 120.638C191.091 120.108 191.181 119.545 191.159 118.982L175.077 111.068Z" fill="#FFEC61"/>
<path d="M172.374 113.723L190.074 122.414" stroke="white" stroke-width="0.3" stroke-linecap="round" stroke-linejoin="round"/>
<path d="M170.64 117.14L188.324 125.826" stroke="white" stroke-width="0.3" stroke-linecap="round" stroke-linejoin="round"/>
<path d="M169.043 120.948L186.272 129.402" stroke="white" stroke-width="0.3" stroke-linecap="round" stroke-linejoin="round"/>
<path d="M175.014 109.447L192.254 117.921C194.564 116.29 197.727 113.956 201.583 111.129C211.244 103.972 212.407 102.811 213.405 101.614C215.877 98.694 220.477 93.2488 219.655 85.7961C218.65 76.5442 210.069 71.0398 208.759 70.1345C208.203 69.7831 197.203 63.194 186.062 67.9811C182.978 69.3539 180.267 71.4248 178.151 74.0244C176.035 76.6239 174.574 79.6781 173.888 82.9371C173.315 85.6272 173.737 86.7021 174.416 97.3648C174.722 102.529 174.915 106.699 175.014 109.447Z" fill="#F766D8" stroke="white" stroke-width="0.3" stroke-linecap="round" stroke-linejoin="round"/>
<path d="M189.022 70.683C188.246 70.9764 187.49 71.3165 186.756 71.7014C186.263 71.962 185.738 72.2647 185.15 72.6516C182.887 73.9486 180.968 75.7527 179.548 77.9167C178.974 78.8771 178.511 79.8975 178.168 80.9589C178.928 80.2648 179.733 79.62 180.577 79.0284C181.989 78.0537 183.498 77.2222 185.08 76.5468C190.52 74.1203 192.807 74.5884 193.519 72.8132C193.746 72.3074 193.807 71.745 193.695 71.2039C193.582 70.6627 193.302 70.1696 192.892 69.7927C192.415 69.4145 191.252 69.8271 189.022 70.683Z" fill="white" stroke="white" stroke-width="0.3" stroke-linecap="round" stroke-linejoin="round"/>
<path d="M121.847 77.0145C121.375 77.5572 121.065 78.2174 120.95 78.9221C120.849 79.6084 120.935 80.3083 121.198 80.9511C120.907 81.1473 120.66 81.3997 120.471 81.6929C120.283 81.986 120.157 82.3138 120.102 82.6561C120.07 83.1671 120.206 83.6744 120.49 84.1029C120.079 84.6628 119.857 85.3345 119.853 86.0241C119.868 86.7103 120.075 87.3789 120.452 87.956C120.073 88.5437 119.851 89.215 119.805 89.9086C119.781 90.4776 119.883 91.0446 120.103 91.5708L137.794 93.3465C137.958 93.0362 138.1 92.7149 138.218 92.3851C138.328 92.1126 138.42 91.8339 138.495 91.5505C138.568 90.838 138.416 90.1211 138.061 89.4968C138.536 88.9275 138.822 88.2292 138.883 87.4957C138.912 86.9231 138.804 86.3522 138.568 85.8284C138.935 85.3139 139.166 84.7176 139.24 84.0936C139.314 83.4696 139.229 82.8376 138.991 82.2549C139.345 81.651 139.535 80.9679 139.542 80.2716C139.549 79.71 139.438 79.1533 139.217 78.6358L121.847 77.0145Z" fill="#FFEC61" stroke="white" stroke-width="0.2" stroke-linecap="round" stroke-linejoin="round"/>
<path d="M119.032 80.3305L138.74 82.1578" stroke="white" stroke-width="0.3" stroke-linecap="round" stroke-linejoin="round"/>
<path d="M119.948 84.2432L138.254 85.815" stroke="white" stroke-width="0.3" stroke-linecap="round" stroke-linejoin="round"/>
<path d="M119.854 88.3579L137.726 89.5301" stroke="white" stroke-width="0.3" stroke-linecap="round" stroke-linejoin="round"/>
<path d="M121.222 75.5271L140.413 77.3114C141.926 74.9905 144.054 71.6647 146.614 67.6758C153.035 57.5358 153.684 56.0019 154.16 54.6213C155.359 50.9995 157.678 44.3219 154.189 37.6554C149.848 29.3941 139.832 27.3145 138.254 27.0029C137.646 26.809 124.887 24.6211 116.294 33.041C113.918 35.4132 112.147 38.3045 111.127 41.4776C110.106 44.6508 109.865 48.0155 110.423 51.2955C110.867 54.0139 111.661 54.8763 116.219 64.5649C118.4 69.1953 120.108 73.0131 121.222 75.5271Z" fill="#65CBE4" stroke="white" stroke-width="0.3" stroke-linecap="round" stroke-linejoin="round"/>
<path d="M120.672 35.534C120.048 36.057 119.46 36.6197 118.911 37.2183C118.51 37.6592 118.133 38.1201 117.781 38.5991C116.187 40.6396 115.101 43.0189 114.612 45.5454C114.425 46.6245 114.364 47.721 114.432 48.8133C114.91 47.8987 115.435 47.0086 116.006 46.1464C116.971 44.7395 118.075 43.4294 119.301 42.2352C123.473 38.0812 125.749 37.7275 125.816 35.7639C125.853 35.2265 125.724 34.6908 125.444 34.2283C125.164 33.7657 124.747 33.3984 124.249 33.1752C123.556 32.9715 122.593 33.8483 120.672 35.534Z" fill="white" stroke="white" stroke-width="0.3" stroke-linecap="round" stroke-linejoin="round"/>
<path d="M129.203 73.0759C130.788 70.1379 131.236 66.736 130.464 63.5017C130.354 63.0315 129.551 60.0072 128.54 60.0155C127.528 60.0239 126.495 62.3408 127.246 63.9208C128.244 65.9803 132.41 66.3334 135.136 65.7404C136.088 65.5389 139.649 64.7768 140.589 62.047C141.377 59.6693 139.962 56.7285 138.823 56.696C137.684 56.6635 136.643 59.4831 136.063 61.1263C134.718 65.161 134.424 69.462 135.211 73.6337L129.203 73.0759Z" stroke="#B2F4F7" stroke-width="0.3" stroke-linecap="round" stroke-linejoin="round"/>
<path d="M128.267 73.5959C129.841 70.6548 130.289 67.2565 129.528 64.0218C129.402 63.5464 128.599 60.5222 127.604 60.5356C126.608 60.549 125.554 62.8766 126.31 64.4408C127.308 66.5003 131.474 66.8534 134.2 66.2604C135.131 66.0696 138.713 65.2968 139.653 62.5671C140.436 60.205 139.026 57.2485 137.887 57.216C136.748 57.1835 135.707 60.0031 135.122 61.6621C133.78 65.6974 133.487 69.9976 134.27 74.1695L128.267 73.5959Z" stroke="white" stroke-width="0.3" stroke-linecap="round" stroke-linejoin="round"/>
<path d="M187.055 111.666C187.315 108.35 188.775 105.233 191.17 102.88C191.524 102.558 193.846 100.408 194.68 100.935C195.514 101.463 195.159 103.978 193.675 104.933C191.698 106.2 187.985 104.267 185.997 102.363C185.312 101.709 182.692 99.2018 183.401 96.3117C183.976 93.8833 186.791 92.1694 187.833 92.7105C188.874 93.2516 188.176 96.2149 187.772 97.9142C186.739 102.042 184.663 105.847 181.735 108.978L187.055 111.666Z" stroke="#FCBBF7" stroke-width="0.3" stroke-linecap="round" stroke-linejoin="round"/>
<path d="M187.586 112.41C187.845 109.094 189.305 105.976 191.7 103.624C192.054 103.302 194.377 101.152 195.211 101.679C196.045 102.206 195.689 104.722 194.205 105.676C192.228 106.944 188.515 105.011 186.528 103.106C185.842 102.452 183.222 99.9455 183.932 97.0554C184.506 94.627 187.321 92.913 188.363 93.4541C189.405 93.9952 188.706 96.9585 188.302 98.6579C187.266 102.784 185.19 106.589 182.266 109.721L187.586 112.41Z" stroke="white" stroke-width="0.3" stroke-linecap="round" stroke-linejoin="round"/>
</g>
<defs>
<filter id="filter0_d" x="54.823" y="149.781" width="225.197" height="49.7187" filterUnits="userSpaceOnUse" color-interpolation-filters="sRGB">
<feFlood flood-opacity="0" result="BackgroundImageFix"/>
<feColorMatrix in="SourceAlpha" type="matrix" values="0 0 0 0 0 0 0 0 0 0 0 0 0 0 0 0 0 0 127 0"/>
<feOffset dy="4"/>
<feGaussianBlur stdDeviation="2"/>
<feColorMatrix type="matrix" values="0 0 0 0 0 0 0 0 0 0 0 0 0 0 0 0 0 0 0.25 0"/>
<feBlend mode="normal" in2="BackgroundImageFix" result="effect1_dropShadow"/>
<feBlend mode="normal" in="SourceGraphic" in2="effect1_dropShadow" result="shape"/>
</filter>
</defs>
</svg>
