<svg width="334" height="207" viewBox="0 0 334 207" fill="none" xmlns="http://www.w3.org/2000/svg">
<g filter="url(#filter0_d)">
<rect x="89.8225" y="128.781" width="153.521" height="41.7187" rx="10" fill="#7C8294"/>
<path d="M117.579 146.28C118.659 146.28 119.511 146.562 120.135 147.126C120.771 147.69 121.089 148.488 121.089 149.52C121.089 149.808 121.047 150.192 120.963 150.672L119.901 156H117.651L118.695 150.726C118.743 150.486 118.767 150.24 118.767 149.988C118.767 148.824 118.125 148.242 116.841 148.242C116.013 148.242 115.329 148.476 114.789 148.944C114.249 149.4 113.883 150.09 113.691 151.014L112.683 156H110.433L112.341 146.388H114.483L114.267 147.45C115.131 146.67 116.235 146.28 117.579 146.28ZM132.905 150.492C132.905 150.96 132.857 151.416 132.761 151.86H125.129C125.165 153.432 126.089 154.218 127.901 154.218C128.453 154.218 128.969 154.134 129.449 153.966C129.929 153.786 130.337 153.54 130.673 153.228L131.609 154.794C131.117 155.238 130.523 155.574 129.827 155.802C129.143 156.018 128.423 156.126 127.667 156.126C126.707 156.126 125.867 155.952 125.147 155.604C124.439 155.256 123.893 154.764 123.509 154.128C123.125 153.48 122.933 152.736 122.933 151.896C122.933 150.828 123.167 149.868 123.635 149.016C124.115 148.152 124.775 147.48 125.615 147C126.467 146.52 127.421 146.28 128.477 146.28C129.821 146.28 130.895 146.658 131.699 147.414C132.503 148.158 132.905 149.184 132.905 150.492ZM128.369 148.08C127.613 148.08 126.965 148.284 126.425 148.692C125.897 149.1 125.531 149.658 125.327 150.366H130.835C130.847 149.646 130.625 149.088 130.169 148.692C129.725 148.284 129.125 148.08 128.369 148.08ZM137.156 152.778C137.132 152.97 137.12 153.108 137.12 153.192C137.12 153.912 137.498 154.272 138.254 154.272C138.722 154.272 139.142 154.146 139.514 153.894L139.91 155.55C139.298 155.934 138.524 156.126 137.588 156.126C136.76 156.126 136.094 155.898 135.59 155.442C135.086 154.986 134.834 154.356 134.834 153.552C134.834 153.288 134.858 153.036 134.906 152.796L135.824 148.26H134.258L134.618 146.46H136.184L136.616 144.264H138.866L138.416 146.46H141.008L140.648 148.26H138.056L137.156 152.778ZM143.525 146.388H145.775L143.867 156H141.617L143.525 146.388ZM145.163 144.804C144.767 144.804 144.443 144.684 144.191 144.444C143.939 144.192 143.813 143.892 143.813 143.544C143.813 143.136 143.951 142.794 144.227 142.518C144.515 142.242 144.887 142.104 145.343 142.104C145.739 142.104 146.063 142.224 146.315 142.464C146.567 142.692 146.693 142.974 146.693 143.31C146.693 143.754 146.549 144.114 146.261 144.39C145.985 144.666 145.619 144.804 145.163 144.804ZM151.626 156.126C150.678 156.126 149.844 155.952 149.124 155.604C148.416 155.244 147.87 154.746 147.486 154.11C147.102 153.474 146.91 152.736 146.91 151.896C146.91 150.828 147.156 149.868 147.648 149.016C148.14 148.164 148.818 147.498 149.682 147.018C150.558 146.526 151.554 146.28 152.67 146.28C153.642 146.28 154.476 146.472 155.172 146.856C155.88 147.228 156.426 147.786 156.81 148.53L154.884 149.52C154.44 148.632 153.642 148.188 152.49 148.188C151.854 148.188 151.284 148.344 150.78 148.656C150.288 148.956 149.898 149.382 149.61 149.934C149.322 150.474 149.178 151.092 149.178 151.788C149.178 152.544 149.4 153.138 149.844 153.57C150.288 153.99 150.918 154.2 151.734 154.2C152.286 154.2 152.784 154.092 153.228 153.876C153.672 153.648 154.05 153.312 154.362 152.868L156.018 153.984C155.574 154.656 154.962 155.184 154.182 155.568C153.402 155.94 152.55 156.126 151.626 156.126ZM169.4 146.28C170.48 146.28 171.332 146.562 171.956 147.126C172.592 147.69 172.91 148.494 172.91 149.538C172.91 149.826 172.868 150.204 172.784 150.672L171.722 156H169.472L170.516 150.726C170.564 150.486 170.588 150.24 170.588 149.988C170.588 148.824 169.946 148.242 168.662 148.242C167.834 148.242 167.15 148.476 166.61 148.944C166.07 149.4 165.704 150.09 165.512 151.014L164.504 156H162.254L164.918 142.644H167.168L166.232 147.342C167.06 146.634 168.116 146.28 169.4 146.28ZM184.726 150.492C184.726 150.96 184.678 151.416 184.582 151.86H176.95C176.986 153.432 177.91 154.218 179.722 154.218C180.274 154.218 180.79 154.134 181.27 153.966C181.75 153.786 182.158 153.54 182.494 153.228L183.43 154.794C182.938 155.238 182.344 155.574 181.648 155.802C180.964 156.018 180.244 156.126 179.488 156.126C178.528 156.126 177.688 155.952 176.968 155.604C176.26 155.256 175.714 154.764 175.33 154.128C174.946 153.48 174.754 152.736 174.754 151.896C174.754 150.828 174.988 149.868 175.456 149.016C175.936 148.152 176.596 147.48 177.436 147C178.288 146.52 179.242 146.28 180.298 146.28C181.642 146.28 182.716 146.658 183.52 147.414C184.324 148.158 184.726 149.184 184.726 150.492ZM180.19 148.08C179.434 148.08 178.786 148.284 178.246 148.692C177.718 149.1 177.352 149.658 177.148 150.366H182.656C182.668 149.646 182.446 149.088 181.99 148.692C181.546 148.284 180.946 148.08 180.19 148.08ZM197.112 146.388L195.204 156H193.062L193.26 155.01C192.42 155.754 191.376 156.126 190.128 156.126C189.336 156.126 188.616 155.958 187.968 155.622C187.332 155.286 186.828 154.8 186.456 154.164C186.084 153.516 185.898 152.76 185.898 151.896C185.898 150.828 186.132 149.868 186.6 149.016C187.08 148.152 187.728 147.48 188.544 147C189.372 146.52 190.296 146.28 191.316 146.28C192.852 146.28 193.944 146.79 194.592 147.81L194.862 146.388H197.112ZM190.704 154.2C191.34 154.2 191.904 154.05 192.396 153.75C192.9 153.438 193.296 153.012 193.584 152.472C193.872 151.92 194.016 151.296 194.016 150.6C194.016 149.844 193.794 149.256 193.35 148.836C192.906 148.404 192.282 148.188 191.478 148.188C190.842 148.188 190.272 148.344 189.768 148.656C189.276 148.956 188.886 149.382 188.598 149.934C188.31 150.474 188.166 151.092 188.166 151.788C188.166 152.544 188.388 153.138 188.832 153.57C189.276 153.99 189.9 154.2 190.704 154.2ZM200.812 142.644H203.062L200.398 156H198.148L200.812 142.644ZM206.994 152.778C206.97 152.97 206.958 153.108 206.958 153.192C206.958 153.912 207.336 154.272 208.092 154.272C208.56 154.272 208.98 154.146 209.352 153.894L209.748 155.55C209.136 155.934 208.362 156.126 207.426 156.126C206.598 156.126 205.932 155.898 205.428 155.442C204.924 154.986 204.672 154.356 204.672 153.552C204.672 153.288 204.696 153.036 204.744 152.796L205.662 148.26H204.096L204.456 146.46H206.022L206.454 144.264H208.704L208.254 146.46H210.846L210.486 148.26H207.894L206.994 152.778ZM218.601 146.28C219.681 146.28 220.533 146.562 221.157 147.126C221.793 147.69 222.111 148.494 222.111 149.538C222.111 149.826 222.069 150.204 221.985 150.672L220.923 156H218.673L219.717 150.726C219.765 150.486 219.789 150.24 219.789 149.988C219.789 148.824 219.147 148.242 217.863 148.242C217.035 148.242 216.351 148.476 215.811 148.944C215.271 149.4 214.905 150.09 214.713 151.014L213.705 156H211.455L214.119 142.644H216.369L215.433 147.342C216.261 146.634 217.317 146.28 218.601 146.28Z" fill="white"/>
</g>
<path d="M121.543 86.6488C121.688 85.5347 121.996 84.4482 122.458 83.4248" stroke="#9AC1C0" stroke-width="0.75" stroke-miterlimit="10"/>
<path d="M143.665 97.603C141.264 99.5818 138.256 100.668 135.149 100.678" stroke="#9AC1C0" stroke-width="0.75" stroke-miterlimit="10"/>
<path d="M148.114 85.4326C148.389 86.7303 148.453 88.0642 148.305 89.3826" stroke="#9AC1C0" stroke-width="0.75" stroke-miterlimit="10"/>
<path d="M137.852 75.29C139.798 75.8167 141.611 76.7478 143.174 78.023" stroke="#9AC1C0" stroke-width="0.75" stroke-miterlimit="10"/>
<path d="M124.229 80.4146C125.069 78.9283 126.225 77.6455 127.614 76.6567" stroke="#9AC1C0" stroke-width="0.75" stroke-miterlimit="10"/>
<path d="M130.893 75.4188C132.065 75.1982 133.259 75.1265 134.448 75.2053" stroke="#9AC1C0" stroke-width="0.75" stroke-miterlimit="10"/>
<path d="M126.444 97.4751C124.067 95.6243 122.477 92.9388 121.995 89.9595" stroke="#9AC1C0" stroke-width="0.75" stroke-miterlimit="10"/>
<path d="M132.674 100.378C131.282 100.127 129.934 99.674 128.672 99.0327" stroke="#9AC1C0" stroke-width="0.75" stroke-miterlimit="10"/>
<path d="M147.753 91.2397C147.449 93.1429 146.722 94.9529 145.624 96.5348" stroke="#9AC1C0" stroke-width="0.75" stroke-miterlimit="10"/>
<path d="M144.389 79.3687C145.681 80.4365 146.721 81.7782 147.434 83.2973" stroke="#9AC1C0" stroke-width="0.75" stroke-miterlimit="10"/>
<path d="M239.253 91.1116C239.445 89.7189 239.832 88.3604 240.402 87.0762" stroke="#F9C7F7" stroke-width="0.75" stroke-miterlimit="10"/>
<path d="M267.099 104.798C264.043 107.288 260.222 108.638 256.285 108.62" stroke="#F9C7F7" stroke-width="0.75" stroke-miterlimit="10"/>
<path d="M272.695 89.4888C273.037 91.1093 273.116 92.775 272.928 94.4209" stroke="#F9C7F7" stroke-width="0.75" stroke-miterlimit="10"/>
<path d="M259.771 76.8911C262.214 77.5624 264.496 78.7246 266.477 80.3073" stroke="#F9C7F7" stroke-width="0.75" stroke-miterlimit="10"/>
<path d="M242.607 83.2964C243.67 81.4393 245.122 79.8365 246.865 78.5991" stroke="#F9C7F7" stroke-width="0.75" stroke-miterlimit="10"/>
<path d="M250.999 77.0838C252.48 76.8102 253.988 76.717 255.491 76.8062" stroke="#F9C7F7" stroke-width="0.75" stroke-miterlimit="10"/>
<path d="M245.405 104.648C242.423 102.351 240.428 98.9981 239.827 95.2749" stroke="#F9C7F7" stroke-width="0.75" stroke-miterlimit="10"/>
<path d="M253.258 108.363C251.512 108.051 249.821 107.49 248.234 106.698" stroke="#F9C7F7" stroke-width="0.75" stroke-miterlimit="10"/>
<path d="M272.242 96.8555C271.84 99.2352 270.917 101.496 269.538 103.474" stroke="#F9C7F7" stroke-width="0.75" stroke-miterlimit="10"/>
<path d="M268.015 82.0156C269.648 83.3822 270.957 85.0961 271.847 87.0331" stroke="#F9C7F7" stroke-width="0.75" stroke-miterlimit="10"/>
<path d="M60 51.6975C60.2306 49.988 60.6815 48.3158 61.3412 46.7227" stroke="#F9BF87" stroke-width="0.75" stroke-miterlimit="10"/>
<path d="M92.3359 68.5864C88.8472 71.6305 84.3786 73.3064 79.7544 73.305" stroke="#F9BF87" stroke-width="0.75" stroke-miterlimit="10"/>
<path d="M98.8716 49.6909C99.274 51.6932 99.3599 53.7468 99.1261 55.776" stroke="#F9BF87" stroke-width="0.75" stroke-miterlimit="10"/>
<path d="M83.8208 34.189C86.6959 35.0446 89.3584 36.4997 91.6337 38.4592" stroke="#F9BF87" stroke-width="0.75" stroke-miterlimit="10"/>
<path d="M63.8538 42.0895C65.0812 39.8307 66.7804 37.8643 68.8353 36.3247" stroke="#F9BF87" stroke-width="0.75" stroke-miterlimit="10"/>
<path d="M73.6035 34.3603C75.3297 34.0406 77.0884 33.9331 78.8405 34.0401" stroke="#F9BF87" stroke-width="0.75" stroke-miterlimit="10"/>
<path d="M67.1083 68.3517C63.574 65.4439 61.2506 61.3165 60.594 56.7793" stroke="#F9BF87" stroke-width="0.75" stroke-miterlimit="10"/>
<path d="M76.2256 72.9843C74.1871 72.5644 72.2215 71.8449 70.3926 70.8491" stroke="#F9BF87" stroke-width="0.75" stroke-miterlimit="10"/>
<path d="M98.3208 58.7861C97.8673 61.7004 96.7927 64.4823 95.1702 66.9423" stroke="#F9BF87" stroke-width="0.75" stroke-miterlimit="10"/>
<path d="M93.426 40.4673C95.344 42.1789 96.863 44.2928 97.8753 46.6591" stroke="#F9BF87" stroke-width="0.75" stroke-miterlimit="10"/>
<path d="M206.87 91.603L199.717 111.203L187.689 95.4889L174.256 105.802L163.591 96.3003" stroke="#F7C2F9" stroke-miterlimit="10"/>
<path d="M188.968 65.3835C185.588 62.8767 183.301 59.1605 182.581 55.0068" stroke="#9AC1C0" stroke-width="0.75" stroke-miterlimit="10"/>
<path d="M219.832 56.7793C219.364 59.4226 218.293 61.9217 216.703 64.0814" stroke="#9AC1C0" stroke-width="0.75" stroke-miterlimit="10"/>
<path d="M111.987 86.2002C112.279 83.941 112.866 81.73 113.732 79.624" stroke="#FCC3FC" stroke-width="0.75" stroke-miterlimit="10"/>
<path d="M162.335 83.5752C162.863 86.2173 162.977 88.9257 162.675 91.6033" stroke="#FCC3FC" stroke-width="0.75" stroke-miterlimit="10"/>
<path d="M117.076 73.4961C118.627 70.5076 120.806 67.8924 123.463 65.8311" stroke="#FCC3FC" stroke-width="0.75" stroke-miterlimit="10"/>
<path d="M155.286 71.3623C157.78 73.6429 159.748 76.4406 161.055 79.5612" stroke="#FCC3FC" stroke-width="0.75" stroke-miterlimit="10"/>
<path fill-rule="evenodd" clip-rule="evenodd" d="M204.273 83.1043C202.436 77.5595 202.771 71.5218 205.209 66.2155C210.042 56.3725 222.24 51.8461 232.522 53.7036C237.756 54.5055 242.597 56.9676 246.334 60.7293C250.071 64.491 252.509 69.3544 253.29 74.6067C254.071 79.859 253.153 85.224 250.673 89.9155C248.192 94.6069 244.278 98.3781 239.505 100.676C224.986 107.509 208.445 95.6374 204.273 83.1043Z" fill="#D7F4F4"/>
<path fill-rule="evenodd" clip-rule="evenodd" d="M151.713 57.376C148.73 59.9456 146.448 63.234 145.081 66.9317C143.714 70.6294 143.308 74.615 143.9 78.5137C144.611 82.8226 146.497 86.8502 149.348 90.1511C152.2 93.4521 155.906 95.8976 160.058 97.2174C164.426 98.5079 169.065 98.5565 173.46 97.3576C177.854 96.1588 181.829 93.7597 184.944 90.4277C191.118 84.0223 194.417 73.6243 190.756 65.2332C184.965 51.7606 163.187 47.9601 151.713 57.376Z" fill="#D7F4F4"/>
<path fill-rule="evenodd" clip-rule="evenodd" d="M86.8456 59.918C94.8927 52.3169 108.496 51.527 118.31 58.1672C127.592 64.5726 132.19 76.5079 128.784 86.7992C124.015 101.275 104.622 108.577 91.5078 100.827C77.7554 92.6921 75.4989 70.679 86.8456 59.918Z" fill="#D7F4F4"/>
<path fill-rule="evenodd" clip-rule="evenodd" d="M206.658 79.8813C204.823 74.3273 205.166 68.2808 207.616 62.9711C212.449 53.1495 224.647 48.6017 234.908 50.4593C240.178 51.2291 245.061 53.6812 248.832 57.4523C252.604 61.2234 255.064 66.1128 255.847 71.396C256.631 76.6792 255.696 82.0749 253.183 86.7838C250.669 91.4926 246.709 95.2639 241.891 97.5387C227.372 104.264 210.831 92.3931 206.658 79.8813Z" fill="#AFD9DB"/>
<path fill-rule="evenodd" clip-rule="evenodd" d="M154.03 53.6407C151.045 56.2032 148.76 59.4874 147.393 63.1824C146.026 66.8775 145.621 70.8614 146.217 74.757C146.936 79.0761 148.834 83.1108 151.702 86.4126C154.569 89.7145 158.293 92.1542 162.461 93.4607C166.829 94.7512 171.468 94.7998 175.862 93.6009C180.257 92.4021 184.232 90.003 187.347 86.671C193.52 80.2656 196.82 69.8676 193.159 61.4766C187.283 48.0039 165.505 44.2034 154.03 53.6407Z" fill="#AFD9DB"/>
<path fill-rule="evenodd" clip-rule="evenodd" d="M89.6144 56.6941C97.6615 49.0717 111.244 48.2817 121.079 54.9433C130.361 61.3487 134.959 73.284 131.553 83.5753C126.784 98.0514 107.39 105.354 94.2766 97.6031C80.5242 89.4469 78.2677 67.4551 89.6144 56.6941Z" fill="#AFD9DB"/>
<path d="M104.9 90.7477C102.508 90.7547 100.182 89.9632 98.2883 88.498C96.3946 87.0327 95.041 84.977 94.4408 82.6549C93.8407 80.3329 94.0281 77.8765 94.9736 75.6731C95.9191 73.4697 97.569 71.6445 99.6629 70.4854H99.8119C99.8285 70.5264 99.8285 70.5724 99.8119 70.6135L100.004 73.0688C98.9393 73.8723 98.0731 74.9099 97.4716 76.1018C96.87 77.2937 96.5491 78.6081 96.5335 79.9439C96.5614 82.0008 97.3492 83.9741 98.7445 85.4817C100.14 86.9894 102.043 87.924 104.086 88.1048C106.129 88.2855 108.167 87.6994 109.804 86.46C111.441 85.2206 112.561 83.416 112.947 81.3958C112.956 81.3656 112.973 81.3381 112.995 81.3157C113.017 81.2934 113.045 81.2769 113.075 81.2677V81.2677C113.098 81.2564 113.123 81.2505 113.149 81.2505C113.175 81.2505 113.2 81.2564 113.224 81.2677L114.671 83.9793C113.897 85.9535 112.555 87.6517 110.814 88.8572C109.074 90.0627 107.015 90.7208 104.9 90.7477Z" fill="#F492D8"/>
<path d="M99.7449 70.6577L99.9365 73.1131C98.7832 73.9208 97.8473 75.0025 97.2125 76.2615C96.5777 77.5205 96.2638 78.9177 96.2988 80.3281C96.3338 81.7385 96.7167 83.1183 97.4132 84.344C98.1096 85.5698 99.0981 86.6035 100.29 87.3526C101.482 88.1017 102.841 88.543 104.244 88.637C105.648 88.731 107.053 88.4748 108.333 87.8913C109.614 87.3078 110.731 86.4151 111.584 85.2931C112.437 84.1711 112.999 82.8546 113.221 81.4614L114.668 84.173C114.009 85.7449 112.984 87.1354 111.678 88.2283C110.373 89.3212 108.826 90.0846 107.166 90.4546C105.506 90.8246 103.782 90.7904 102.138 90.3549C100.495 89.9194 98.9786 89.0953 97.7175 87.9515C96.4564 86.8077 95.4868 85.3776 94.8899 83.7808C94.2931 82.184 94.0863 80.4671 94.2869 78.7737C94.4875 77.0803 95.0897 75.4598 96.043 74.0477C96.9963 72.6357 98.273 71.4732 99.7662 70.6577H99.7449ZM99.7662 70.3374C99.7111 70.3179 99.651 70.3179 99.5959 70.3374C98.0825 71.1864 96.7925 72.3846 95.8325 73.8329C94.8725 75.2812 94.2701 76.938 94.0753 78.6661C93.8804 80.3942 94.0987 82.1441 94.712 83.7708C95.3253 85.3975 96.316 86.8544 97.6021 88.0209C98.8883 89.1874 100.433 90.0299 102.108 90.4788C103.783 90.9277 105.541 90.9701 107.236 90.6024C108.931 90.2347 110.514 89.4676 111.855 88.3644C113.195 87.2612 114.254 85.8537 114.945 84.2584C114.966 84.2151 114.976 84.1677 114.976 84.1196C114.976 84.0716 114.966 84.0241 114.945 83.9808L113.497 81.2692C113.462 81.2317 113.419 81.2026 113.371 81.1841C113.323 81.1656 113.272 81.1582 113.221 81.1625C113.157 81.1743 113.099 81.2051 113.053 81.2509C113.008 81.2966 112.977 81.3551 112.965 81.4187C112.726 82.7249 112.172 83.9526 111.351 84.9946C110.531 86.0366 109.468 86.8612 108.256 87.3964C107.044 87.9317 105.72 88.1612 104.4 88.065C103.079 87.9688 101.802 87.5499 100.68 86.8447C99.5582 86.1395 98.6254 85.1696 97.9633 84.0196C97.3011 82.8696 96.9298 81.5745 96.8816 80.2474C96.8335 78.9203 97.11 77.6016 97.687 76.4063C98.2641 75.2111 99.1241 74.1757 100.192 73.3906C100.233 73.3575 100.266 73.3152 100.289 73.267C100.311 73.2188 100.321 73.1661 100.32 73.1131L100.128 70.6577C100.124 70.6041 100.105 70.5525 100.076 70.5077C100.046 70.4629 100.005 70.4264 99.9578 70.4015C99.9095 70.3852 99.8571 70.3852 99.8088 70.4015L99.7662 70.3374Z" fill="#F492D8"/>
<path d="M104.9 90.7477C102.508 90.7547 100.182 89.9632 98.2883 88.498C96.3946 87.0327 95.041 84.977 94.4408 82.6549C93.8407 80.3329 94.0281 77.8765 94.9736 75.6731C95.9191 73.4697 97.569 71.6445 99.6629 70.4854H99.8119C99.8285 70.5264 99.8285 70.5724 99.8119 70.6135L100.004 73.0688C98.9393 73.8723 98.0731 74.9099 97.4716 76.1018C96.87 77.2937 96.5491 78.6081 96.5335 79.9439C96.5614 82.0008 97.3492 83.9741 98.7445 85.4817C100.14 86.9894 102.043 87.924 104.086 88.1048C106.129 88.2855 108.167 87.6994 109.804 86.46C111.441 85.2206 112.561 83.416 112.947 81.3958C112.956 81.3656 112.973 81.3381 112.995 81.3157C113.017 81.2934 113.045 81.2769 113.075 81.2677V81.2677C113.098 81.2564 113.123 81.2505 113.149 81.2505C113.175 81.2505 113.2 81.2564 113.224 81.2677L114.671 83.9793C113.897 85.9535 112.555 87.6517 110.814 88.8572C109.074 90.0627 107.015 90.7208 104.9 90.7477Z" fill="#F492D8"/>
<path d="M99.7449 70.6577L99.9365 73.1131C98.7832 73.9208 97.8473 75.0025 97.2125 76.2615C96.5777 77.5205 96.2638 78.9177 96.2988 80.3281C96.3338 81.7385 96.7167 83.1183 97.4132 84.344C98.1096 85.5698 99.0981 86.6035 100.29 87.3526C101.482 88.1017 102.841 88.543 104.244 88.637C105.648 88.731 107.053 88.4748 108.333 87.8913C109.614 87.3078 110.731 86.4151 111.584 85.2931C112.437 84.1711 112.999 82.8546 113.221 81.4614L114.668 84.173C114.009 85.7449 112.984 87.1354 111.678 88.2283C110.373 89.3212 108.826 90.0846 107.166 90.4546C105.506 90.8246 103.782 90.7904 102.138 90.3549C100.495 89.9194 98.9786 89.0953 97.7175 87.9515C96.4564 86.8077 95.4868 85.3776 94.8899 83.7808C94.2931 82.184 94.0863 80.4671 94.2869 78.7737C94.4875 77.0803 95.0897 75.4598 96.043 74.0477C96.9963 72.6357 98.273 71.4732 99.7662 70.6577H99.7449ZM99.7662 70.3374C99.7111 70.3179 99.651 70.3179 99.5959 70.3374C98.0825 71.1864 96.7925 72.3846 95.8325 73.8329C94.8725 75.2812 94.2701 76.938 94.0753 78.6661C93.8804 80.3942 94.0987 82.1441 94.712 83.7708C95.3253 85.3975 96.316 86.8544 97.6021 88.0209C98.8883 89.1874 100.433 90.0299 102.108 90.4788C103.783 90.9277 105.541 90.9701 107.236 90.6024C108.931 90.2347 110.514 89.4676 111.855 88.3644C113.195 87.2612 114.254 85.8537 114.945 84.2584C114.966 84.2151 114.976 84.1677 114.976 84.1196C114.976 84.0716 114.966 84.0241 114.945 83.9808L113.497 81.2692C113.462 81.2317 113.419 81.2026 113.371 81.1841C113.323 81.1656 113.272 81.1582 113.221 81.1625C113.157 81.1743 113.099 81.2051 113.053 81.2509C113.008 81.2966 112.977 81.3551 112.965 81.4187C112.726 82.7249 112.172 83.9526 111.351 84.9946C110.531 86.0366 109.468 86.8612 108.256 87.3964C107.044 87.9317 105.72 88.1612 104.4 88.065C103.079 87.9688 101.802 87.5499 100.68 86.8447C99.5582 86.1395 98.6254 85.1696 97.9633 84.0196C97.3011 82.8696 96.9298 81.5745 96.8816 80.2474C96.8335 78.9203 97.11 77.6016 97.687 76.4063C98.2641 75.2111 99.1241 74.1757 100.192 73.3906C100.233 73.3575 100.266 73.3152 100.289 73.267C100.311 73.2188 100.321 73.1661 100.32 73.1131L100.128 70.6577C100.124 70.6041 100.105 70.5525 100.076 70.5077C100.046 70.4629 100.005 70.4264 99.9578 70.4015C99.9095 70.3852 99.8571 70.3852 99.8088 70.4015L99.7662 70.3374Z" fill="#F492D8"/>
<path fill-rule="evenodd" clip-rule="evenodd" d="M117.479 87.2467H117.372L112.902 76.8914L102.13 77.233C102.09 77.233 102.052 77.2173 102.025 77.1892C101.997 77.1612 101.981 77.1232 101.981 77.0836L100.257 62.9918V62.3726L99.8733 61.2836V60.1093L100.214 59.0631L100.895 58.2518L101.789 57.8248L102.726 57.6753L103.812 57.8248L104.599 58.3158L105.153 59.1699L105.515 60.152V61.0488L105.323 61.8174L104.919 62.458L104.323 62.949L103.663 63.2693H103.216L103.961 69.4398L111.433 69.2477C111.433 69.2477 111.582 69.2477 111.603 69.4185V71.7885C111.603 71.8281 111.588 71.8661 111.56 71.8941C111.532 71.9222 111.494 71.9379 111.454 71.9379L104.28 72.2795L104.472 74.4147L114.754 74.0517L118.735 83.5316L122.354 81.9943H122.482C122.491 82.0293 122.491 82.0661 122.482 82.1011L123.418 84.407C123.432 84.4209 123.444 84.4376 123.451 84.4559C123.459 84.4742 123.463 84.4939 123.463 84.5138C123.463 84.5337 123.459 84.5533 123.451 84.5717C123.444 84.59 123.432 84.6066 123.418 84.6205L117.479 87.2254V87.2467Z" fill="#DB7028"/>
<path d="M102.724 57.8247L103.768 57.9741L104.491 58.4652L105.002 59.2552L105.343 60.1947V61.0487L105.151 61.7746L104.768 62.3725L104.193 62.8422L103.576 63.1198H103.022L103.768 69.5251H111.41V71.8951L104.044 72.2367L104.3 74.6281L114.71 74.2651L118.606 83.7878L122.374 82.1864L123.31 84.5137L117.477 87.0972L113.049 76.8913L102.128 77.1262L100.425 63.0344V62.3725L100.021 61.2409V60.1092L100.361 59.1057L101.021 58.3584L101.873 57.9741L102.746 57.8247H102.724ZM102.746 57.5044L101.852 57.6539L101.021 58.0382H100.894L100.255 58.7855L99.9143 59.789V60.9206L100.297 62.0095V62.5219L102.001 76.6351C102.003 76.6744 102.014 76.7127 102.031 76.748C102.049 76.7832 102.073 76.8146 102.103 76.8404C102.132 76.8662 102.167 76.8859 102.204 76.8983C102.241 76.9107 102.281 76.9156 102.32 76.9127V76.9127L112.964 76.6778L117.222 86.7983C117.27 86.8706 117.336 86.9294 117.413 86.9691H117.541L123.523 84.3429C123.562 84.3289 123.598 84.307 123.628 84.2785C123.657 84.2501 123.681 84.2157 123.697 84.1776C123.713 84.1394 123.721 84.0984 123.721 84.057C123.72 84.0156 123.711 83.9748 123.694 83.9372L122.757 81.6099C122.757 81.6099 122.757 81.4605 122.587 81.4391H122.459H122.331L118.861 82.891L115.093 73.6673C115.064 73.6123 115.021 73.5658 114.969 73.5321C114.917 73.4985 114.857 73.4788 114.795 73.4751V73.4751L104.683 73.8167L104.513 72.0659L111.517 71.7457C111.56 71.7458 111.604 71.7368 111.644 71.7194C111.684 71.702 111.72 71.6765 111.75 71.6444C111.78 71.6124 111.803 71.5745 111.818 71.5332C111.833 71.4918 111.839 71.4479 111.836 71.404V69.0341C111.83 68.9529 111.794 68.8768 111.735 68.8213C111.676 68.7658 111.598 68.735 111.517 68.7351V68.7351H104.151L103.491 63.013H103.81L104.449 62.7141L105.002 62.2657L105.385 61.6679L105.577 60.9633V60.1092L105.236 59.1698L104.704 58.2944H104.598L103.874 57.8033H103.746L102.703 57.6539L102.746 57.5044Z" fill="#DB7028"/>
<path fill-rule="evenodd" clip-rule="evenodd" d="M117.479 87.2467H117.372L112.902 76.8914L102.13 77.233C102.09 77.233 102.052 77.2173 102.025 77.1892C101.997 77.1612 101.981 77.1232 101.981 77.0836L100.257 62.9918V62.3726L99.8733 61.2836V60.1093L100.214 59.0631L100.895 58.2518L101.789 57.8248L102.726 57.6753L103.812 57.8248L104.599 58.3158L105.153 59.1699L105.515 60.152V61.0488L105.323 61.8174L104.919 62.458L104.323 62.949L103.663 63.2693H103.216L103.961 69.4398L111.433 69.2477C111.433 69.2477 111.582 69.2477 111.603 69.4185V71.7885C111.603 71.8281 111.588 71.8661 111.56 71.8941C111.532 71.9222 111.494 71.9379 111.454 71.9379L104.28 72.2795L104.472 74.4147L114.754 74.0517L118.735 83.5316L122.354 81.9943H122.482C122.491 82.0293 122.491 82.0661 122.482 82.1011L123.418 84.407C123.432 84.4209 123.444 84.4376 123.451 84.4559C123.459 84.4742 123.463 84.4939 123.463 84.5138C123.463 84.5337 123.459 84.5533 123.451 84.5717C123.444 84.59 123.432 84.6066 123.418 84.6205L117.479 87.2254V87.2467Z" fill="#DB7028"/>
<path d="M102.724 57.8247L103.768 57.9741L104.491 58.4652L105.002 59.2552L105.343 60.1947V61.0487L105.151 61.7746L104.768 62.3725L104.193 62.8422L103.576 63.1198H103.022L103.768 69.5251H111.41V71.8951L104.044 72.2367L104.3 74.6281L114.71 74.2651L118.606 83.7878L122.374 82.1864L123.31 84.5137L117.477 87.0972L113.049 76.8913L102.128 77.1262L100.425 63.0344V62.3725L100.021 61.2409V60.1092L100.361 59.1057L101.021 58.3584L101.873 57.9741L102.746 57.8247H102.724ZM102.746 57.5044L101.852 57.6539L101.021 58.0382H100.894L100.255 58.7855L99.9143 59.789V60.9206L100.297 62.0095V62.5219L102.001 76.6351C102.003 76.6744 102.014 76.7127 102.031 76.748C102.049 76.7832 102.073 76.8146 102.103 76.8404C102.132 76.8662 102.167 76.8859 102.204 76.8983C102.241 76.9107 102.281 76.9156 102.32 76.9127V76.9127L112.964 76.6778L117.222 86.7983C117.27 86.8706 117.336 86.9294 117.413 86.9691H117.541L123.523 84.3429C123.562 84.3289 123.598 84.307 123.628 84.2785C123.657 84.2501 123.681 84.2157 123.697 84.1776C123.713 84.1394 123.721 84.0984 123.721 84.057C123.72 84.0156 123.711 83.9748 123.694 83.9372L122.757 81.6099C122.757 81.6099 122.757 81.4605 122.587 81.4391H122.459H122.331L118.861 82.891L115.093 73.6673C115.064 73.6123 115.021 73.5658 114.969 73.5321C114.917 73.4985 114.857 73.4788 114.795 73.4751V73.4751L104.683 73.8167L104.513 72.0659L111.517 71.7457C111.56 71.7458 111.604 71.7368 111.644 71.7194C111.684 71.702 111.72 71.6765 111.75 71.6444C111.78 71.6124 111.803 71.5745 111.818 71.5332C111.833 71.4918 111.839 71.4479 111.836 71.404V69.0341C111.83 68.9529 111.794 68.8768 111.735 68.8213C111.676 68.7658 111.598 68.735 111.517 68.7351V68.7351H104.151L103.491 63.013H103.81L104.449 62.7141L105.002 62.2657L105.385 61.6679L105.577 60.9633V60.1092L105.236 59.1698L104.704 58.2944H104.598L103.874 57.8033H103.746L102.703 57.6539L102.746 57.5044Z" fill="#DB7028"/>
<path d="M167.616 57.8042C167.612 57.2501 167.772 56.7073 168.076 56.2445C168.38 55.7817 168.814 55.4199 169.323 55.2049C169.832 54.99 170.393 54.9315 170.936 55.037C171.478 55.1425 171.977 55.4072 172.369 55.7975C172.761 56.1878 173.029 56.6861 173.138 57.2293C173.248 57.7724 173.194 58.3359 172.983 58.8482C172.773 59.3606 172.415 59.7987 171.956 60.107C171.497 60.4152 170.957 60.5798 170.405 60.5799C169.669 60.5799 168.963 60.2881 168.44 59.7682C167.918 59.2483 167.622 58.5423 167.616 57.8042V57.8042Z" fill="#DB7028" stroke="#DB7028" stroke-width="0.25" stroke-miterlimit="10"/>
<path d="M167.616 57.8042C167.612 57.2501 167.772 56.7073 168.076 56.2445C168.38 55.7817 168.814 55.4199 169.323 55.2049C169.832 54.99 170.393 54.9315 170.936 55.037C171.478 55.1425 171.977 55.4072 172.369 55.7975C172.761 56.1878 173.029 56.6861 173.138 57.2293C173.248 57.7724 173.194 58.3359 172.983 58.8482C172.773 59.3606 172.415 59.7987 171.956 60.107C171.497 60.4152 170.957 60.5798 170.405 60.5799C169.669 60.5799 168.963 60.2881 168.44 59.7682C167.918 59.2483 167.622 58.5423 167.616 57.8042V57.8042Z" fill="#DB7028" stroke="#DB7028" stroke-width="0.25" stroke-linejoin="round"/>
<path d="M183.37 62.3096H157.292V63.612H183.37V62.3096Z" fill="#D8600E" stroke="#DB7028" stroke-width="0.75" stroke-linejoin="round"/>
<path d="M173.55 63.6113H167.27V74.2015H173.55V63.6113Z" fill="#DB7028" stroke="#DB7028" stroke-width="0.75" stroke-linejoin="round"/>
<path d="M167.277 65.1462L167.069 87.6494L168.368 87.6615L168.575 65.1583L167.277 65.1462Z" fill="#D8600E" stroke="#DB7028" stroke-width="0.75" stroke-linecap="round" stroke-linejoin="round"/>
<path d="M173.487 64.9039L172.188 64.9058L172.221 87.9437L173.519 87.9419L173.487 64.9039Z" fill="#D8600E" stroke="#DB7028" stroke-width="0.75" stroke-linecap="round" stroke-linejoin="round"/>
<path d="M167.419 78.6221H168.802V81.9315H166.78V78.6221H167.419Z" fill="#F492D8" stroke="#F492D8" stroke-width="0.75" stroke-linejoin="round"/>
<path d="M235.609 64.2521C235.609 63.6989 235.773 63.1581 236.079 62.6982C236.385 62.2382 236.821 61.8797 237.331 61.668C237.84 61.4563 238.401 61.4009 238.942 61.5088C239.483 61.6167 239.98 61.8831 240.37 62.2743C240.76 62.6655 241.025 63.1639 241.133 63.7064C241.241 64.249 241.185 64.8114 240.974 65.3225C240.763 65.8335 240.406 66.2704 239.947 66.5777C239.489 66.8851 238.949 67.0491 238.398 67.0491C238.031 67.0519 237.667 66.9815 237.327 66.842C236.988 66.7024 236.679 66.4965 236.42 66.2362C236.16 65.9759 235.955 65.6664 235.816 65.3258C235.676 64.9852 235.606 64.6202 235.609 64.2521V64.2521Z" fill="#DB7028" stroke="#DB7028" stroke-width="0.15" stroke-miterlimit="10"/>
<path d="M235.609 64.2521C235.609 63.6989 235.773 63.1581 236.079 62.6982C236.385 62.2382 236.821 61.8797 237.331 61.668C237.84 61.4563 238.401 61.4009 238.942 61.5088C239.483 61.6167 239.98 61.8831 240.37 62.2743C240.76 62.6655 241.025 63.1639 241.133 63.7064C241.241 64.249 241.185 64.8114 240.974 65.3225C240.763 65.8335 240.406 66.2704 239.947 66.5777C239.489 66.8851 238.949 67.0491 238.398 67.0491C238.031 67.0519 237.667 66.9815 237.327 66.842C236.988 66.7024 236.679 66.4965 236.42 66.2362C236.16 65.9759 235.955 65.6664 235.816 65.3258C235.676 64.9852 235.606 64.6202 235.609 64.2521V64.2521Z" fill="#DB7028" stroke="#DB7028" stroke-width="0.15" stroke-linejoin="round"/>
<path d="M222.282 72.6219L227.626 67.1346L234.417 67.0278L239.611 72.0881L243.933 67.647" stroke="#DB7028" stroke-width="1.5" stroke-linecap="round" stroke-linejoin="round"/>
<path d="M231.673 67.0702L224.818 74.3723L228.096 77.6817L235.611 69.6964L236.101 69.1626L233.993 67.0488L231.673 67.0702Z" fill="#DB7028" stroke="#DB7028" stroke-width="0.6" stroke-linejoin="round"/>
<path d="M213.38 78.8082L222.087 78.6801L224.408 76.2888L225.365 75.3066" stroke="#DB7028" stroke-width="2" stroke-linecap="round" stroke-linejoin="round"/>
<path d="M229.001 76.731L231.842 79.2689L230.543 86.7015" stroke="#DB7028" stroke-width="2" stroke-linecap="round" stroke-linejoin="round"/>
<path d="M73.1738 90.9409L86.6707 96.8339L93.9088 104.627L108.853 103.965L116.602 110.627L125.693 106.122" stroke="#FCB854" stroke-width="1.2" stroke-miterlimit="10"/>
<path d="M71.0068 90.3856C71.1272 89.9893 71.36 89.6367 71.6768 89.3708C71.9936 89.1049 72.3807 88.9372 72.7909 88.8881C73.201 88.839 73.6166 88.9106 73.9869 89.0943C74.3572 89.278 74.6662 89.5657 74.8762 89.9225C75.0863 90.2792 75.1883 90.6895 75.1699 91.1034C75.1514 91.5173 75.0133 91.9169 74.7724 92.2534C74.5315 92.59 74.1981 92.849 73.813 92.9988C73.4279 93.1486 73.0076 93.1828 72.6034 93.0972C72.3145 93.0361 72.0414 92.9153 71.8015 92.7425C71.5617 92.5698 71.3602 92.3489 71.2101 92.0939C71.0599 91.8388 70.9643 91.5553 70.9293 91.2612C70.8943 90.9671 70.9207 90.6689 71.0068 90.3856V90.3856Z" fill="#C1E0DF"/>
<path d="M71.0068 90.3856C71.1272 89.9893 71.36 89.6367 71.6768 89.3708C71.9936 89.1049 72.3807 88.9372 72.7909 88.8881C73.201 88.839 73.6166 88.9106 73.9869 89.0943C74.3572 89.278 74.6662 89.5657 74.8762 89.9225C75.0863 90.2792 75.1883 90.6895 75.1699 91.1034C75.1514 91.5173 75.0133 91.9169 74.7724 92.2534C74.5315 92.59 74.1981 92.849 73.813 92.9988C73.4279 93.1486 73.0076 93.1828 72.6034 93.0972C72.3145 93.0361 72.0414 92.9153 71.8015 92.7425C71.5617 92.5698 71.3602 92.3489 71.2101 92.0939C71.0599 91.8388 70.9643 91.5553 70.9293 91.2612C70.8943 90.9671 70.9207 90.6689 71.0068 90.3856V90.3856Z" fill="#C1E0DF"/>
<path d="M84.5257 96.2582C84.6781 95.6919 85.0486 95.2095 85.5557 94.9172C86.0627 94.6249 86.6647 94.5466 87.2293 94.6995C87.7939 94.8524 88.2749 95.224 88.5663 95.7325C88.8578 96.241 88.9358 96.8449 88.7834 97.4111C88.7079 97.6915 88.5781 97.9542 88.4014 98.1843C88.2247 98.4144 88.0045 98.6073 87.7534 98.752C87.5024 98.8968 87.2253 98.9905 86.9382 99.0278C86.651 99.0652 86.3593 99.0455 86.0797 98.9698C85.8002 98.8941 85.5382 98.7639 85.3088 98.5866C85.0794 98.4094 84.8871 98.1886 84.7428 97.9368C84.5985 97.685 84.505 97.4071 84.4678 97.1191C84.4305 96.8311 84.4502 96.5385 84.5257 96.2582V96.2582Z" fill="#C1E0DF"/>
<path d="M84.5257 96.2582C84.6781 95.6919 85.0486 95.2095 85.5557 94.9172C86.0627 94.6249 86.6647 94.5466 87.2293 94.6995C87.7939 94.8524 88.2749 95.224 88.5663 95.7325C88.8578 96.241 88.9358 96.8449 88.7834 97.4111C88.7079 97.6915 88.5781 97.9542 88.4014 98.1843C88.2247 98.4144 88.0045 98.6073 87.7534 98.752C87.5024 98.8968 87.2253 98.9905 86.9382 99.0278C86.651 99.0652 86.3593 99.0455 86.0797 98.9698C85.8002 98.8941 85.5382 98.7639 85.3088 98.5866C85.0794 98.4094 84.8871 98.1886 84.7428 97.9368C84.5985 97.685 84.505 97.4071 84.4678 97.1191C84.4305 96.8311 84.4502 96.5385 84.5257 96.2582V96.2582Z" fill="#C1E0DF"/>
<path d="M91.7642 104.071C91.8857 103.675 92.1198 103.322 92.4379 103.057C92.7561 102.791 93.1444 102.625 93.5554 102.577C93.9665 102.53 94.3824 102.603 94.7524 102.789C95.1224 102.975 95.4303 103.265 95.6387 103.623C95.847 103.982 95.9466 104.393 95.9253 104.808C95.904 105.222 95.7628 105.622 95.5189 105.957C95.275 106.292 94.939 106.549 94.5519 106.695C94.1649 106.842 93.7436 106.872 93.3396 106.783C93.0526 106.719 92.7818 106.597 92.5443 106.423C92.3069 106.249 92.1079 106.028 91.9599 105.773C91.8119 105.518 91.7181 105.236 91.6844 104.943C91.6507 104.65 91.6779 104.353 91.7642 104.071Z" fill="#C1E0DF"/>
<path d="M91.7642 104.071C91.8857 103.675 92.1198 103.322 92.4379 103.057C92.7561 102.791 93.1444 102.625 93.5554 102.577C93.9665 102.53 94.3824 102.603 94.7524 102.789C95.1224 102.975 95.4303 103.265 95.6387 103.623C95.847 103.982 95.9466 104.393 95.9253 104.808C95.904 105.222 95.7628 105.622 95.5189 105.957C95.275 106.292 94.939 106.549 94.5519 106.695C94.1649 106.842 93.7436 106.872 93.3396 106.783C93.0526 106.719 92.7818 106.597 92.5443 106.423C92.3069 106.249 92.1079 106.028 91.9599 105.773C91.8119 105.518 91.7181 105.236 91.6844 104.943C91.6507 104.65 91.6779 104.353 91.7642 104.071Z" fill="#C1E0DF"/>
<path d="M123.544 105.544C123.669 105.15 123.906 104.801 124.225 104.539C124.544 104.277 124.933 104.113 125.343 104.069C125.753 104.024 126.168 104.1 126.536 104.287C126.904 104.474 127.209 104.764 127.416 105.123C127.622 105.481 127.721 105.892 127.699 106.305C127.677 106.718 127.536 107.116 127.292 107.45C127.049 107.784 126.714 108.041 126.328 108.187C125.943 108.334 125.523 108.366 125.119 108.277C124.83 108.214 124.557 108.091 124.318 107.916C124.078 107.741 123.878 107.517 123.73 107.26C123.582 107.003 123.489 106.717 123.457 106.422C123.425 106.126 123.454 105.828 123.544 105.544Z" fill="#C1E0DF"/>
<path d="M123.544 105.544C123.669 105.15 123.906 104.801 124.225 104.539C124.544 104.277 124.933 104.113 125.343 104.069C125.753 104.024 126.168 104.1 126.536 104.287C126.904 104.474 127.209 104.764 127.416 105.123C127.622 105.481 127.721 105.892 127.699 106.305C127.677 106.718 127.536 107.116 127.292 107.45C127.049 107.784 126.714 108.041 126.328 108.187C125.943 108.334 125.523 108.366 125.119 108.277C124.83 108.214 124.557 108.091 124.318 107.916C124.078 107.741 123.878 107.517 123.73 107.26C123.582 107.003 123.489 106.717 123.457 106.422C123.425 106.126 123.454 105.828 123.544 105.544Z" fill="#C1E0DF"/>
<path d="M114.456 110.071C114.581 109.677 114.818 109.327 115.137 109.065C115.457 108.803 115.845 108.64 116.255 108.595C116.665 108.551 117.08 108.627 117.448 108.814C117.816 109.001 118.122 109.291 118.328 109.65C118.535 110.008 118.633 110.418 118.611 110.832C118.589 111.245 118.448 111.643 118.204 111.977C117.961 112.311 117.626 112.567 117.241 112.714C116.855 112.861 116.435 112.892 116.032 112.804C115.742 112.741 115.469 112.618 115.23 112.443C114.99 112.267 114.79 112.044 114.642 111.787C114.494 111.53 114.401 111.244 114.369 110.949C114.337 110.653 114.367 110.354 114.456 110.071Z" fill="#C1E0DF"/>
<path d="M114.456 110.071C114.581 109.677 114.818 109.327 115.137 109.065C115.457 108.803 115.845 108.64 116.255 108.595C116.665 108.551 117.08 108.627 117.448 108.814C117.816 109.001 118.122 109.291 118.328 109.65C118.535 110.008 118.633 110.418 118.611 110.832C118.589 111.245 118.448 111.643 118.204 111.977C117.961 112.311 117.626 112.567 117.241 112.714C116.855 112.861 116.435 112.892 116.032 112.804C115.742 112.741 115.469 112.618 115.23 112.443C114.99 112.267 114.79 112.044 114.642 111.787C114.494 111.53 114.401 111.244 114.369 110.949C114.337 110.653 114.367 110.354 114.456 110.071Z" fill="#C1E0DF"/>
<path d="M106.706 103.388C106.831 102.994 107.068 102.644 107.387 102.382C107.707 102.12 108.095 101.957 108.505 101.912C108.916 101.868 109.33 101.944 109.698 102.131C110.066 102.318 110.372 102.608 110.578 102.966C110.785 103.325 110.883 103.735 110.861 104.149C110.839 104.562 110.698 104.96 110.455 105.294C110.211 105.628 109.876 105.884 109.491 106.031C109.105 106.178 108.685 106.209 108.282 106.121C107.713 105.966 107.228 105.592 106.933 105.08C106.638 104.568 106.557 103.96 106.706 103.388V103.388Z" fill="#C1E0DF"/>
<path d="M106.706 103.388C106.831 102.994 107.068 102.644 107.387 102.382C107.707 102.12 108.095 101.957 108.505 101.912C108.916 101.868 109.33 101.944 109.698 102.131C110.066 102.318 110.372 102.608 110.578 102.966C110.785 103.325 110.883 103.735 110.861 104.149C110.839 104.562 110.698 104.96 110.455 105.294C110.211 105.628 109.876 105.884 109.491 106.031C109.105 106.178 108.685 106.209 108.282 106.121C107.713 105.966 107.228 105.592 106.933 105.08C106.638 104.568 106.557 103.96 106.706 103.388V103.388Z" fill="#C1E0DF"/>
<path d="M177.558 44.5872L189.181 38.374L201.294 46.0178L218.857 42.1532L233.419 53.1704" stroke="#F9C5F9" stroke-width="1.2" stroke-miterlimit="10"/>
<path d="M174.81 44.0965C174.846 43.7112 174.961 43.3375 175.149 42.9992C175.336 42.6609 175.591 42.3653 175.898 42.1311C176.206 41.8968 176.558 41.7291 176.933 41.6384C177.308 41.5477 177.698 41.5361 178.078 41.6043C178.458 41.6725 178.819 41.819 179.14 42.0345C179.46 42.2501 179.733 42.53 179.94 42.8565C180.147 43.1831 180.284 43.5492 180.343 43.9317C180.401 44.3142 180.38 44.7047 180.281 45.0786C180.101 45.7563 179.673 46.3413 179.083 46.7177C178.493 47.0941 177.783 47.2344 177.095 47.1108C176.407 46.9872 175.79 46.6088 175.366 46.0505C174.943 45.4922 174.745 44.7948 174.81 44.0965V44.0965Z" fill="#D7F4F4"/>
<path d="M174.81 44.0965C174.846 43.7112 174.961 43.3375 175.149 42.9992C175.336 42.6609 175.591 42.3653 175.898 42.1311C176.206 41.8968 176.558 41.7291 176.933 41.6384C177.308 41.5477 177.698 41.5361 178.078 41.6043C178.458 41.6725 178.819 41.819 179.14 42.0345C179.46 42.2501 179.733 42.53 179.94 42.8565C180.147 43.1831 180.284 43.5492 180.343 43.9317C180.401 44.3142 180.38 44.7047 180.281 45.0786C180.101 45.7563 179.673 46.3413 179.083 46.7177C178.493 47.0941 177.783 47.2344 177.095 47.1108C176.407 46.9872 175.79 46.6088 175.366 46.0505C174.943 45.4922 174.745 44.7948 174.81 44.0965V44.0965Z" fill="#D7F4F4"/>
<path d="M186.429 37.8831C186.564 37.1552 186.979 36.5097 187.585 36.0862C188.19 35.6627 188.937 35.4952 189.665 35.6198C190.208 35.7171 190.71 35.9736 191.108 36.3569C191.505 36.7402 191.78 37.2332 191.899 37.7735C192.017 38.3137 191.973 38.877 191.772 39.3922C191.571 39.9073 191.222 40.3511 190.77 40.6675C190.318 40.9839 189.782 41.1587 189.23 41.1697C188.679 41.1808 188.137 41.0276 187.672 40.7296C187.208 40.4316 186.842 40.0021 186.62 39.4954C186.399 38.9887 186.332 38.4276 186.429 37.8831V37.8831Z" fill="#D7F4F4"/>
<path d="M186.429 37.8831C186.564 37.1552 186.979 36.5097 187.585 36.0862C188.19 35.6627 188.937 35.4952 189.665 35.6198C190.208 35.7171 190.71 35.9736 191.108 36.3569C191.505 36.7402 191.78 37.2332 191.899 37.7735C192.017 38.3137 191.973 38.877 191.772 39.3922C191.571 39.9073 191.222 40.3511 190.77 40.6675C190.318 40.9839 189.782 41.1587 189.23 41.1697C188.679 41.1808 188.137 41.0276 187.672 40.7296C187.208 40.4316 186.842 40.0021 186.62 39.4954C186.399 38.9887 186.332 38.4276 186.429 37.8831V37.8831Z" fill="#D7F4F4"/>
<path d="M198.546 45.527C198.643 44.9825 198.899 44.479 199.281 44.0803C199.663 43.6815 200.155 43.4054 200.694 43.2868C201.232 43.1681 201.794 43.2124 202.308 43.4139C202.821 43.6154 203.264 43.9651 203.579 44.4188C203.895 44.8725 204.069 45.4098 204.08 45.9628C204.091 46.5159 203.938 47.0597 203.641 47.5257C203.344 47.9917 202.916 48.3588 202.411 48.5808C201.905 48.8027 201.346 48.8694 200.803 48.7724C200.442 48.708 200.098 48.573 199.789 48.375C199.48 48.177 199.214 47.92 199.004 47.6186C198.795 47.3172 198.646 46.9774 198.568 46.6185C198.489 46.2596 198.482 45.8887 198.546 45.527V45.527Z" fill="#D7F4F4"/>
<path d="M198.546 45.527C198.643 44.9825 198.899 44.479 199.281 44.0803C199.663 43.6815 200.155 43.4054 200.694 43.2868C201.232 43.1681 201.794 43.2124 202.308 43.4139C202.821 43.6154 203.264 43.9651 203.579 44.4188C203.895 44.8725 204.069 45.4098 204.08 45.9628C204.091 46.5159 203.938 47.0597 203.641 47.5257C203.344 47.9917 202.916 48.3588 202.411 48.5808C201.905 48.8027 201.346 48.8694 200.803 48.7724C200.442 48.708 200.098 48.573 199.789 48.375C199.48 48.177 199.214 47.92 199.004 47.6186C198.795 47.3172 198.646 46.9774 198.568 46.6185C198.489 46.2596 198.482 45.8887 198.546 45.527V45.527Z" fill="#D7F4F4"/>
<path d="M216.107 41.6614C216.287 40.9837 216.715 40.3987 217.305 40.0223C217.895 39.646 218.604 39.5056 219.293 39.6292C219.981 39.7528 220.598 40.1312 221.021 40.6895C221.445 41.2478 221.643 41.9452 221.578 42.6436C221.542 43.0289 221.427 43.4025 221.239 43.7408C221.052 44.0791 220.797 44.3747 220.489 44.609C220.182 44.8432 219.83 45.011 219.455 45.1016C219.08 45.1923 218.69 45.2039 218.31 45.1357C217.93 45.0675 217.569 44.921 217.248 44.7055C216.928 44.4899 216.655 44.2101 216.448 43.8835C216.241 43.5569 216.104 43.1909 216.045 42.8084C215.986 42.4259 216.007 42.0353 216.107 41.6614V41.6614Z" fill="#D7F4F4"/>
<path d="M216.107 41.6614C216.287 40.9837 216.715 40.3987 217.305 40.0223C217.895 39.646 218.604 39.5056 219.293 39.6292C219.981 39.7528 220.598 40.1312 221.021 40.6895C221.445 41.2478 221.643 41.9452 221.578 42.6436C221.542 43.0289 221.427 43.4025 221.239 43.7408C221.052 44.0791 220.797 44.3747 220.489 44.609C220.182 44.8432 219.83 45.011 219.455 45.1016C219.08 45.1923 218.69 45.2039 218.31 45.1357C217.93 45.0675 217.569 44.921 217.248 44.7055C216.928 44.4899 216.655 44.2101 216.448 43.8835C216.241 43.5569 216.104 43.1909 216.045 42.8084C215.986 42.4259 216.007 42.0353 216.107 41.6614V41.6614Z" fill="#D7F4F4"/>
<path d="M230.668 52.6795C230.704 52.2942 230.819 51.9205 231.007 51.5822C231.194 51.2439 231.449 50.9483 231.757 50.7141C232.064 50.4798 232.416 50.3121 232.791 50.2214C233.166 50.1307 233.556 50.1191 233.936 50.1873C234.316 50.2555 234.677 50.402 234.998 50.6175C235.318 50.8331 235.591 51.113 235.798 51.4395C236.005 51.7661 236.142 52.1322 236.201 52.5147C236.26 52.8972 236.239 53.2877 236.139 53.6616C235.959 54.3393 235.531 54.9243 234.941 55.3007C234.351 55.6771 233.642 55.8174 232.953 55.6938C232.265 55.5702 231.648 55.1918 231.225 54.6335C230.801 54.0752 230.603 53.3778 230.668 52.6795V52.6795Z" fill="#D7F4F4"/>
<path d="M230.668 52.6795C230.704 52.2942 230.819 51.9205 231.007 51.5822C231.194 51.2439 231.449 50.9483 231.757 50.7141C232.064 50.4798 232.416 50.3121 232.791 50.2214C233.166 50.1307 233.556 50.1191 233.936 50.1873C234.316 50.2555 234.677 50.402 234.998 50.6175C235.318 50.8331 235.591 51.113 235.798 51.4395C236.005 51.7661 236.142 52.1322 236.201 52.5147C236.26 52.8972 236.239 53.2877 236.139 53.6616C235.959 54.3393 235.531 54.9243 234.941 55.3007C234.351 55.6771 233.642 55.8174 232.953 55.6938C232.265 55.5702 231.648 55.1918 231.225 54.6335C230.801 54.0752 230.603 53.3778 230.668 52.6795V52.6795Z" fill="#D7F4F4"/>
<path d="M171.655 105.523C171.651 104.969 171.811 104.427 172.115 103.964C172.419 103.501 172.853 103.139 173.362 102.924C173.871 102.709 174.432 102.651 174.975 102.756C175.517 102.862 176.016 103.126 176.408 103.517C176.8 103.907 177.068 104.405 177.177 104.949C177.287 105.492 177.233 106.055 177.022 106.567C176.812 107.08 176.455 107.518 175.995 107.826C175.536 108.134 174.996 108.299 174.444 108.299C173.708 108.299 173.002 108.007 172.479 107.487C171.957 106.968 171.661 106.262 171.655 105.523V105.523Z" fill="#F7BA77"/>
<path d="M171.655 105.523C171.651 104.969 171.811 104.427 172.115 103.964C172.419 103.501 172.853 103.139 173.362 102.924C173.871 102.709 174.432 102.651 174.975 102.756C175.517 102.862 176.016 103.126 176.408 103.517C176.8 103.907 177.068 104.405 177.177 104.949C177.287 105.492 177.233 106.055 177.022 106.567C176.812 107.08 176.455 107.518 175.995 107.826C175.536 108.134 174.996 108.299 174.444 108.299C173.708 108.299 173.002 108.007 172.479 107.487C171.957 106.968 171.661 106.262 171.655 105.523V105.523Z" fill="#F7BA77"/>
<path d="M184.902 95.4888C184.894 94.9357 185.049 94.3925 185.348 93.928C185.648 93.4634 186.078 93.0983 186.584 92.8789C187.09 92.6595 187.65 92.5955 188.193 92.6952C188.735 92.7948 189.236 93.0535 189.632 93.4387C190.028 93.8238 190.301 94.318 190.417 94.8589C190.533 95.3997 190.486 95.9628 190.283 96.4771C190.08 96.9913 189.729 97.4336 189.275 97.7479C188.821 98.0623 188.285 98.2346 187.733 98.2431C187.367 98.2488 187.003 98.182 186.663 98.0466C186.322 97.9113 186.012 97.71 185.749 97.4542C185.486 97.1984 185.276 96.8932 185.13 96.556C184.985 96.2188 184.907 95.8561 184.902 95.4888V95.4888Z" fill="#F7BA77"/>
<path d="M184.902 95.4888C184.894 94.9357 185.049 94.3925 185.348 93.928C185.648 93.4634 186.078 93.0983 186.584 92.8789C187.09 92.6595 187.65 92.5955 188.193 92.6952C188.735 92.7948 189.236 93.0535 189.632 93.4387C190.028 93.8238 190.301 94.318 190.417 94.8589C190.533 95.3997 190.486 95.9628 190.283 96.4771C190.08 96.9913 189.729 97.4336 189.275 97.7479C188.821 98.0623 188.285 98.2346 187.733 98.2431C187.367 98.2488 187.003 98.182 186.663 98.0466C186.322 97.9113 186.012 97.71 185.749 97.4542C185.486 97.1984 185.276 96.8932 185.13 96.556C184.985 96.2188 184.907 95.8561 184.902 95.4888V95.4888Z" fill="#F7BA77"/>
<path d="M196.927 111.203C196.927 110.65 197.09 110.109 197.397 109.649C197.703 109.189 198.139 108.831 198.648 108.619C199.158 108.407 199.719 108.352 200.26 108.46C200.801 108.568 201.297 108.834 201.687 109.225C202.078 109.617 202.343 110.115 202.451 110.658C202.558 111.2 202.503 111.763 202.292 112.274C202.081 112.785 201.724 113.222 201.265 113.529C200.806 113.836 200.267 114 199.716 114C198.976 114 198.267 113.706 197.744 113.181C197.221 112.657 196.927 111.945 196.927 111.203V111.203Z" fill="#F7BA77"/>
<path d="M196.927 111.203C196.927 110.65 197.09 110.109 197.397 109.649C197.703 109.189 198.139 108.831 198.648 108.619C199.158 108.407 199.719 108.352 200.26 108.46C200.801 108.568 201.297 108.834 201.687 109.225C202.078 109.617 202.343 110.115 202.451 110.658C202.558 111.2 202.503 111.763 202.292 112.274C202.081 112.785 201.724 113.222 201.265 113.529C200.806 113.836 200.267 114 199.716 114C198.976 114 198.267 113.706 197.744 113.181C197.221 112.657 196.927 111.945 196.927 111.203V111.203Z" fill="#F7BA77"/>
<path d="M204.077 91.6036C204.077 91.0513 204.24 90.5114 204.546 90.0519C204.851 89.5924 205.286 89.2339 205.794 89.0216C206.302 88.8093 206.862 88.7526 207.402 88.8588C207.943 88.965 208.44 89.2293 208.831 89.6184C209.222 90.0074 209.489 90.5038 209.599 91.0449C209.709 91.5861 209.657 92.1478 209.449 92.6592C209.241 93.1707 208.887 93.609 208.431 93.9189C207.975 94.2288 207.438 94.3964 206.887 94.4006C206.519 94.4034 206.155 94.3331 205.814 94.1938C205.473 94.0545 205.163 93.849 204.902 93.5889C204.641 93.3289 204.433 93.0197 204.292 92.6789C204.15 92.3382 204.077 91.9727 204.077 91.6036Z" fill="#F7BA77"/>
<path d="M204.077 91.6036C204.077 91.0513 204.24 90.5114 204.546 90.0519C204.851 89.5924 205.286 89.2339 205.794 89.0216C206.302 88.8093 206.862 88.7526 207.402 88.8588C207.943 88.965 208.44 89.2293 208.831 89.6184C209.222 90.0074 209.489 90.5038 209.599 91.0449C209.709 91.5861 209.657 92.1478 209.449 92.6592C209.241 93.1707 208.887 93.609 208.431 93.9189C207.975 94.2288 207.438 94.3964 206.887 94.4006C206.519 94.4034 206.155 94.3331 205.814 94.1938C205.473 94.0545 205.163 93.849 204.902 93.5889C204.641 93.3289 204.433 93.0197 204.292 92.6789C204.15 92.3382 204.077 91.9727 204.077 91.6036Z" fill="#F7BA77"/>
<path d="M160.821 96.3222C160.817 95.7672 160.978 95.2235 161.282 94.7603C161.587 94.297 162.023 93.9352 162.533 93.7209C163.044 93.5066 163.606 93.4494 164.149 93.5566C164.692 93.6639 165.191 93.9307 165.582 94.3231C165.973 94.7156 166.239 95.2159 166.346 95.7605C166.453 96.305 166.396 96.8692 166.183 97.3811C165.969 97.8931 165.608 98.3297 165.146 98.6354C164.684 98.9411 164.142 99.1021 163.589 99.0978C162.857 99.0923 162.156 98.798 161.638 98.2787C161.12 97.7594 160.827 97.0566 160.821 96.3222V96.3222Z" fill="#F7BA77"/>
<path d="M160.821 96.3222C160.817 95.7672 160.978 95.2235 161.282 94.7603C161.587 94.297 162.023 93.9352 162.533 93.7209C163.044 93.5066 163.606 93.4494 164.149 93.5566C164.692 93.6639 165.191 93.9307 165.582 94.3231C165.973 94.7156 166.239 95.2159 166.346 95.7605C166.453 96.305 166.396 96.8692 166.183 97.3811C165.969 97.8931 165.608 98.3297 165.146 98.6354C164.684 98.9411 164.142 99.1021 163.589 99.0978C162.857 99.0923 162.156 98.798 161.638 98.2787C161.12 97.7594 160.827 97.0566 160.821 96.3222V96.3222Z" fill="#F7BA77"/>
<defs>
<filter id="filter0_d" x="85.8225" y="128.781" width="161.521" height="49.7187" filterUnits="userSpaceOnUse" color-interpolation-filters="sRGB">
<feFlood flood-opacity="0" result="BackgroundImageFix"/>
<feColorMatrix in="SourceAlpha" type="matrix" values="0 0 0 0 0 0 0 0 0 0 0 0 0 0 0 0 0 0 127 0"/>
<feOffset dy="4"/>
<feGaussianBlur stdDeviation="2"/>
<feColorMatrix type="matrix" values="0 0 0 0 0 0 0 0 0 0 0 0 0 0 0 0 0 0 0.25 0"/>
<feBlend mode="normal" in2="BackgroundImageFix" result="effect1_dropShadow"/>
<feBlend mode="normal" in="SourceGraphic" in2="effect1_dropShadow" result="shape"/>
</filter>
</defs>
</svg>
