<svg width="206" height="138" viewBox="0 0 206 138" fill="none" xmlns="http://www.w3.org/2000/svg">
<g filter="url(#filter0_d)">
<rect x="25.7162" y="3.97119" width="153.521" height="41.7187" rx="10" fill="#7C8294"/>
<path d="M53.4729 21.4699C54.5529 21.4699 55.4049 21.7519 56.0289 22.3159C56.6649 22.8799 56.9829 23.6779 56.9829 24.7099C56.9829 24.9979 56.9409 25.3819 56.8569 25.8619L55.7949 31.1899H53.5449L54.5889 25.9159C54.6369 25.6759 54.6609 25.4299 54.6609 25.1779C54.6609 24.0139 54.0189 23.4319 52.7349 23.4319C51.9069 23.4319 51.2229 23.6659 50.6829 24.1339C50.1429 24.5899 49.7769 25.2799 49.5849 26.2039L48.5769 31.1899H46.3269L48.2349 21.5779H50.3769L50.1609 22.6399C51.0249 21.8599 52.1289 21.4699 53.4729 21.4699ZM68.799 25.6819C68.799 26.1499 68.751 26.6059 68.655 27.0499H61.023C61.059 28.6219 61.983 29.4079 63.795 29.4079C64.347 29.4079 64.863 29.3239 65.343 29.1559C65.823 28.9759 66.231 28.7299 66.567 28.4179L67.503 29.9839C67.011 30.4279 66.417 30.7639 65.721 30.9919C65.037 31.2079 64.317 31.3159 63.561 31.3159C62.601 31.3159 61.761 31.1419 61.041 30.7939C60.333 30.4459 59.787 29.9539 59.403 29.3179C59.019 28.6699 58.827 27.9259 58.827 27.0859C58.827 26.0179 59.061 25.0579 59.529 24.2059C60.009 23.3419 60.669 22.6699 61.509 22.1899C62.361 21.7099 63.315 21.4699 64.371 21.4699C65.715 21.4699 66.789 21.8479 67.593 22.6039C68.397 23.3479 68.799 24.3739 68.799 25.6819ZM64.263 23.2699C63.507 23.2699 62.859 23.4739 62.319 23.8819C61.791 24.2899 61.425 24.8479 61.221 25.5559H66.729C66.741 24.8359 66.519 24.2779 66.063 23.8819C65.619 23.4739 65.019 23.2699 64.263 23.2699ZM73.0496 27.9679C73.0256 28.1599 73.0136 28.2979 73.0136 28.3819C73.0136 29.1019 73.3916 29.4619 74.1476 29.4619C74.6156 29.4619 75.0356 29.3359 75.4076 29.0839L75.8036 30.7399C75.1916 31.1239 74.4176 31.3159 73.4816 31.3159C72.6536 31.3159 71.9876 31.0879 71.4836 30.6319C70.9796 30.1759 70.7276 29.5459 70.7276 28.7419C70.7276 28.4779 70.7516 28.2259 70.7996 27.9859L71.7176 23.4499H70.1516L70.5116 21.6499H72.0776L72.5096 19.4539H74.7596L74.3096 21.6499H76.9016L76.5416 23.4499H73.9496L73.0496 27.9679ZM79.4185 21.5779H81.6685L79.7605 31.1899H77.5105L79.4185 21.5779ZM81.0565 19.9939C80.6605 19.9939 80.3365 19.8739 80.0845 19.6339C79.8325 19.3819 79.7065 19.0819 79.7065 18.7339C79.7065 18.3259 79.8445 17.9839 80.1205 17.7079C80.4085 17.4319 80.7805 17.2939 81.2365 17.2939C81.6325 17.2939 81.9565 17.4139 82.2085 17.6539C82.4605 17.8819 82.5865 18.1639 82.5865 18.4999C82.5865 18.9439 82.4425 19.3039 82.1545 19.5799C81.8785 19.8559 81.5125 19.9939 81.0565 19.9939ZM87.5196 31.3159C86.5716 31.3159 85.7376 31.1419 85.0176 30.7939C84.3096 30.4339 83.7636 29.9359 83.3796 29.2999C82.9956 28.6639 82.8036 27.9259 82.8036 27.0859C82.8036 26.0179 83.0496 25.0579 83.5416 24.2059C84.0336 23.3539 84.7116 22.6879 85.5756 22.2079C86.4516 21.7159 87.4476 21.4699 88.5636 21.4699C89.5356 21.4699 90.3696 21.6619 91.0656 22.0459C91.7736 22.4179 92.3196 22.9759 92.7036 23.7199L90.7776 24.7099C90.3336 23.8219 89.5356 23.3779 88.3836 23.3779C87.7476 23.3779 87.1776 23.5339 86.6736 23.8459C86.1816 24.1459 85.7916 24.5719 85.5036 25.1239C85.2156 25.6639 85.0716 26.2819 85.0716 26.9779C85.0716 27.7339 85.2936 28.3279 85.7376 28.7599C86.1816 29.1799 86.8116 29.3899 87.6276 29.3899C88.1796 29.3899 88.6776 29.2819 89.1216 29.0659C89.5656 28.8379 89.9436 28.5019 90.2556 28.0579L91.9116 29.1739C91.4676 29.8459 90.8556 30.3739 90.0756 30.7579C89.2956 31.1299 88.4436 31.3159 87.5196 31.3159ZM105.293 21.4699C106.373 21.4699 107.225 21.7519 107.849 22.3159C108.485 22.8799 108.803 23.6839 108.803 24.7279C108.803 25.0159 108.761 25.3939 108.677 25.8619L107.615 31.1899H105.365L106.409 25.9159C106.457 25.6759 106.481 25.4299 106.481 25.1779C106.481 24.0139 105.839 23.4319 104.555 23.4319C103.727 23.4319 103.043 23.6659 102.503 24.1339C101.963 24.5899 101.597 25.2799 101.405 26.2039L100.397 31.1899H98.1472L100.811 17.8339H103.061L102.125 22.5319C102.953 21.8239 104.009 21.4699 105.293 21.4699ZM120.619 25.6819C120.619 26.1499 120.571 26.6059 120.475 27.0499H112.843C112.879 28.6219 113.803 29.4079 115.615 29.4079C116.167 29.4079 116.683 29.3239 117.163 29.1559C117.643 28.9759 118.051 28.7299 118.387 28.4179L119.323 29.9839C118.831 30.4279 118.237 30.7639 117.541 30.9919C116.857 31.2079 116.137 31.3159 115.381 31.3159C114.421 31.3159 113.581 31.1419 112.861 30.7939C112.153 30.4459 111.607 29.9539 111.223 29.3179C110.839 28.6699 110.647 27.9259 110.647 27.0859C110.647 26.0179 110.881 25.0579 111.349 24.2059C111.829 23.3419 112.489 22.6699 113.329 22.1899C114.181 21.7099 115.135 21.4699 116.191 21.4699C117.535 21.4699 118.609 21.8479 119.413 22.6039C120.217 23.3479 120.619 24.3739 120.619 25.6819ZM116.083 23.2699C115.327 23.2699 114.679 23.4739 114.139 23.8819C113.611 24.2899 113.245 24.8479 113.041 25.5559H118.549C118.561 24.8359 118.339 24.2779 117.883 23.8819C117.439 23.4739 116.839 23.2699 116.083 23.2699ZM133.006 21.5779L131.098 31.1899H128.956L129.154 30.1999C128.314 30.9439 127.27 31.3159 126.022 31.3159C125.23 31.3159 124.51 31.1479 123.862 30.8119C123.226 30.4759 122.722 29.9899 122.35 29.3539C121.978 28.7059 121.792 27.9499 121.792 27.0859C121.792 26.0179 122.026 25.0579 122.494 24.2059C122.974 23.3419 123.622 22.6699 124.438 22.1899C125.266 21.7099 126.19 21.4699 127.21 21.4699C128.746 21.4699 129.838 21.9799 130.486 22.9999L130.756 21.5779H133.006ZM126.598 29.3899C127.234 29.3899 127.798 29.2399 128.29 28.9399C128.794 28.6279 129.19 28.2019 129.478 27.6619C129.766 27.1099 129.91 26.4859 129.91 25.7899C129.91 25.0339 129.688 24.4459 129.244 24.0259C128.8 23.5939 128.176 23.3779 127.372 23.3779C126.736 23.3779 126.166 23.5339 125.662 23.8459C125.17 24.1459 124.78 24.5719 124.492 25.1239C124.204 25.6639 124.06 26.2819 124.06 26.9779C124.06 27.7339 124.282 28.3279 124.726 28.7599C125.17 29.1799 125.794 29.3899 126.598 29.3899ZM136.706 17.8339H138.956L136.292 31.1899H134.042L136.706 17.8339ZM142.887 27.9679C142.863 28.1599 142.851 28.2979 142.851 28.3819C142.851 29.1019 143.229 29.4619 143.985 29.4619C144.453 29.4619 144.873 29.3359 145.245 29.0839L145.641 30.7399C145.029 31.1239 144.255 31.3159 143.319 31.3159C142.491 31.3159 141.825 31.0879 141.321 30.6319C140.817 30.1759 140.565 29.5459 140.565 28.7419C140.565 28.4779 140.589 28.2259 140.637 27.9859L141.555 23.4499H139.989L140.349 21.6499H141.915L142.347 19.4539H144.597L144.147 21.6499H146.739L146.379 23.4499H143.787L142.887 27.9679ZM154.494 21.4699C155.574 21.4699 156.426 21.7519 157.05 22.3159C157.686 22.8799 158.004 23.6839 158.004 24.7279C158.004 25.0159 157.962 25.3939 157.878 25.8619L156.816 31.1899H154.566L155.61 25.9159C155.658 25.6759 155.682 25.4299 155.682 25.1779C155.682 24.0139 155.04 23.4319 153.756 23.4319C152.928 23.4319 152.244 23.6659 151.704 24.1339C151.164 24.5899 150.798 25.2799 150.606 26.2039L149.598 31.1899H147.348L150.012 17.8339H152.262L151.326 22.5319C152.154 21.8239 153.21 21.4699 154.494 21.4699Z" fill="white"/>
</g>
<path d="M60.0803 111.129C60.2185 110.062 60.5136 109.022 60.9559 108.042" stroke="#9AC1C0" stroke-width="0.75" stroke-miterlimit="10"/>
<path d="M81.2596 121.616C78.9616 123.511 76.0814 124.551 73.1067 124.56" stroke="#9AC1C0" stroke-width="0.75" stroke-miterlimit="10"/>
<path d="M85.5194 109.964C85.7826 111.206 85.8443 112.483 85.7022 113.746" stroke="#9AC1C0" stroke-width="0.75" stroke-miterlimit="10"/>
<path d="M75.6948 100.253C77.5575 100.758 79.2936 101.649 80.7904 102.87" stroke="#9AC1C0" stroke-width="0.75" stroke-miterlimit="10"/>
<path d="M62.6517 105.16C63.4561 103.737 64.5624 102.509 65.8925 101.562" stroke="#9AC1C0" stroke-width="0.75" stroke-miterlimit="10"/>
<path d="M69.0319 100.377C70.1534 100.165 71.297 100.097 72.4357 100.172" stroke="#9AC1C0" stroke-width="0.75" stroke-miterlimit="10"/>
<path d="M64.7721 121.494C62.496 119.722 60.9739 117.151 60.5122 114.298" stroke="#9AC1C0" stroke-width="0.75" stroke-miterlimit="10"/>
<path d="M70.7375 124.273C69.4046 124.033 68.1137 123.599 66.9056 122.985" stroke="#9AC1C0" stroke-width="0.75" stroke-miterlimit="10"/>
<path d="M85.1737 115.524C84.8832 117.346 84.1865 119.079 83.1355 120.594" stroke="#9AC1C0" stroke-width="0.75" stroke-miterlimit="10"/>
<path d="M81.9536 104.158C83.1904 105.181 84.1858 106.465 84.8683 107.92" stroke="#9AC1C0" stroke-width="0.75" stroke-miterlimit="10"/>
<path d="M172.779 115.401C172.963 114.068 173.333 112.767 173.878 111.538" stroke="#F9C7F7" stroke-width="0.75" stroke-miterlimit="10"/>
<path d="M199.439 128.505C196.513 130.889 192.854 132.182 189.085 132.165" stroke="#F9C7F7" stroke-width="0.75" stroke-miterlimit="10"/>
<path d="M204.797 113.848C205.124 115.399 205.2 116.994 205.02 118.57" stroke="#F9C7F7" stroke-width="0.75" stroke-miterlimit="10"/>
<path d="M192.423 101.786C194.762 102.429 196.946 103.542 198.843 105.057" stroke="#F9C7F7" stroke-width="0.75" stroke-miterlimit="10"/>
<path d="M175.99 107.919C177.007 106.141 178.398 104.606 180.066 103.421" stroke="#F9C7F7" stroke-width="0.75" stroke-miterlimit="10"/>
<path d="M184.025 101.97C185.442 101.708 186.886 101.619 188.325 101.705" stroke="#F9C7F7" stroke-width="0.75" stroke-miterlimit="10"/>
<path d="M178.669 128.361C175.813 126.162 173.903 122.952 173.328 119.387" stroke="#F9C7F7" stroke-width="0.75" stroke-miterlimit="10"/>
<path d="M186.187 131.918C184.516 131.62 182.896 131.083 181.377 130.324" stroke="#F9C7F7" stroke-width="0.75" stroke-miterlimit="10"/>
<path d="M204.363 120.9C203.978 123.179 203.094 125.343 201.774 127.237" stroke="#F9C7F7" stroke-width="0.75" stroke-miterlimit="10"/>
<path d="M200.316 106.692C201.879 108.001 203.133 109.642 203.985 111.496" stroke="#F9C7F7" stroke-width="0.75" stroke-miterlimit="10"/>
<path d="M1.15698 77.6654C1.3778 76.0287 1.80944 74.4276 2.44106 72.9023" stroke="#F9BF87" stroke-width="0.75" stroke-miterlimit="10"/>
<path d="M32.116 93.835C28.7759 96.7494 24.4975 98.354 20.0702 98.3527" stroke="#F9BF87" stroke-width="0.75" stroke-miterlimit="10"/>
<path d="M38.3735 75.7441C38.7588 77.6611 38.8411 79.6274 38.6172 81.5702" stroke="#F9BF87" stroke-width="0.75" stroke-miterlimit="10"/>
<path d="M23.9635 60.9023C26.7162 61.7215 29.2653 63.1147 31.4438 64.9908" stroke="#F9BF87" stroke-width="0.75" stroke-miterlimit="10"/>
<path d="M4.84668 68.4662C6.02187 66.3035 7.64873 64.4208 9.61609 62.9468" stroke="#F9BF87" stroke-width="0.75" stroke-miterlimit="10"/>
<path d="M14.1814 61.0662C15.8341 60.7601 17.5179 60.6571 19.1954 60.7595" stroke="#F9BF87" stroke-width="0.75" stroke-miterlimit="10"/>
<path d="M7.96264 93.6104C4.57884 90.8264 2.35439 86.8748 1.72571 82.5308" stroke="#F9BF87" stroke-width="0.75" stroke-miterlimit="10"/>
<path d="M16.6917 98.0457C14.74 97.6437 12.8582 96.9549 11.1071 96.0015" stroke="#F9BF87" stroke-width="0.75" stroke-miterlimit="10"/>
<path d="M37.8464 84.4521C37.4122 87.2423 36.3833 89.9058 34.8298 92.2611" stroke="#F9BF87" stroke-width="0.75" stroke-miterlimit="10"/>
<path d="M33.1599 66.9131C34.9963 68.5518 36.4506 70.5758 37.4198 72.8413" stroke="#F9BF87" stroke-width="0.75" stroke-miterlimit="10"/>
<path d="M141.774 115.872L134.926 134.638L123.41 119.592L110.549 129.466L100.338 120.369" stroke="#F7C2F9" stroke-miterlimit="10"/>
<path d="M124.634 90.7684C121.398 88.3683 119.208 84.8104 118.519 80.8335" stroke="#9AC1C0" stroke-width="0.75" stroke-miterlimit="10"/>
<path d="M154.184 82.5308C153.736 85.0616 152.71 87.4542 151.188 89.522" stroke="#9AC1C0" stroke-width="0.75" stroke-miterlimit="10"/>
<path d="M50.9305 110.699C51.2105 108.536 51.7724 106.419 52.6019 104.403" stroke="#FCC3FC" stroke-width="0.75" stroke-miterlimit="10"/>
<path d="M99.1351 108.186C99.6404 110.715 99.7503 113.308 99.4609 115.872" stroke="#FCC3FC" stroke-width="0.75" stroke-miterlimit="10"/>
<path d="M55.8035 98.536C57.288 95.6747 59.3743 93.1708 61.9181 91.1973" stroke="#FCC3FC" stroke-width="0.75" stroke-miterlimit="10"/>
<path d="M92.3862 96.4927C94.7737 98.6762 96.6585 101.355 97.9098 104.342" stroke="#FCC3FC" stroke-width="0.75" stroke-miterlimit="10"/>
<path fill-rule="evenodd" clip-rule="evenodd" d="M139.287 107.735C137.529 102.426 137.85 96.6457 140.184 91.5653C144.811 82.1414 156.49 77.8077 166.334 79.5861C171.346 80.3538 175.98 82.7112 179.558 86.3127C183.136 89.9143 185.47 94.5706 186.217 99.5993C186.965 104.628 186.087 109.765 183.712 114.256C181.337 118.748 177.59 122.359 173.02 124.559C159.119 131.1 143.282 119.735 139.287 107.735Z" fill="#D7F4F4"/>
<path fill-rule="evenodd" clip-rule="evenodd" d="M88.9647 83.1022C86.109 85.5624 83.9241 88.7107 82.6156 92.251C81.307 95.7913 80.9178 99.6073 81.4845 103.34C82.1656 107.465 83.9711 111.322 86.7013 114.482C89.4315 117.642 92.9801 119.984 96.9545 121.247C101.137 122.483 105.579 122.529 109.786 121.382C113.993 120.234 117.799 117.937 120.781 114.747C126.692 108.614 129.851 98.6587 126.346 90.6249C120.802 77.7259 99.9507 74.0872 88.9647 83.1022Z" fill="#D7F4F4"/>
<path fill-rule="evenodd" clip-rule="evenodd" d="M26.8596 85.5358C34.564 78.2584 47.5882 77.502 56.9844 83.8596C65.871 89.9922 70.2735 101.419 67.0124 111.273C62.4468 125.132 43.8787 132.124 31.3233 124.703C18.1564 116.915 15.9959 95.8387 26.8596 85.5358Z" fill="#D7F4F4"/>
<path fill-rule="evenodd" clip-rule="evenodd" d="M141.571 104.649C139.814 99.3314 140.142 93.5423 142.489 88.4587C147.115 79.0553 158.794 74.7011 168.619 76.4795C173.664 77.2165 178.339 79.5643 181.95 83.1748C185.561 86.7854 187.916 91.4666 188.666 96.5249C189.416 101.583 188.522 106.749 186.115 111.258C183.708 115.766 179.917 119.377 175.304 121.555C161.403 127.994 145.566 116.628 141.571 104.649Z" fill="#AFD9DB"/>
<path fill-rule="evenodd" clip-rule="evenodd" d="M91.1841 79.5258C88.3254 81.9793 86.1382 85.1236 84.8292 88.6614C83.5203 92.1992 83.1329 96.0134 83.7038 99.7432C84.3916 103.878 86.2093 107.741 88.9547 110.903C91.7001 114.064 95.2658 116.4 99.2554 117.651C103.438 118.886 107.88 118.933 112.087 117.785C116.294 116.637 120.1 114.34 123.082 111.15C128.993 105.017 132.152 95.0619 128.646 87.0281C123.021 74.1291 102.17 70.4904 91.1841 79.5258Z" fill="#AFD9DB"/>
<path fill-rule="evenodd" clip-rule="evenodd" d="M29.5108 82.449C37.2153 75.1511 50.2191 74.3947 59.6356 80.7727C68.5222 86.9054 72.9248 98.3326 69.6636 108.186C65.098 122.046 46.5299 129.037 33.9745 121.616C20.8076 113.807 18.6471 92.7518 29.5108 82.449Z" fill="#AFD9DB"/>
<path d="M44.1451 115.053C41.8552 115.06 39.6281 114.302 37.8151 112.899C36.002 111.496 34.706 109.528 34.1314 107.305C33.5568 105.082 33.7362 102.73 34.6415 100.62C35.5467 98.5106 37.1263 96.7631 39.1311 95.6533H39.2738C39.2897 95.6927 39.2897 95.7366 39.2738 95.776L39.4572 98.1268C38.4383 98.896 37.609 99.8895 37.0331 101.031C36.4571 102.172 36.1498 103.43 36.135 104.709C36.1616 106.678 36.9159 108.568 38.2518 110.011C39.5878 111.455 41.4102 112.35 43.3663 112.523C45.3224 112.696 47.2729 112.134 48.8401 110.948C50.4073 109.761 51.4797 108.033 51.8496 106.099C51.8583 106.07 51.8741 106.044 51.8954 106.023C51.9168 106.001 51.943 105.985 51.9719 105.977C51.9941 105.966 52.0185 105.96 52.0432 105.96C52.0679 105.96 52.0923 105.966 52.1146 105.977L53.5005 108.573C52.7595 110.463 51.4739 112.089 49.8076 113.243C48.1413 114.397 46.17 115.027 44.1451 115.053Z" fill="#F492D8"/>
<path d="M39.2098 95.8182L39.3933 98.1691C38.289 98.9424 37.393 99.978 36.7852 101.183C36.1774 102.389 35.8769 103.727 35.9104 105.077C35.944 106.427 36.3105 107.748 36.9773 108.922C37.6442 110.095 38.5905 111.085 39.7318 111.802C40.8731 112.52 42.1737 112.942 43.5176 113.032C44.8614 113.122 46.2065 112.877 47.4327 112.318C48.659 111.759 49.7281 110.905 50.5446 109.831C51.3611 108.756 51.8995 107.496 52.1117 106.162L53.4977 108.758C52.8665 110.263 51.8849 111.594 50.6353 112.641C49.3857 113.687 47.9043 114.418 46.3151 114.772C44.726 115.127 43.0754 115.094 41.5015 114.677C39.9276 114.26 38.4761 113.471 37.2687 112.376C36.0613 111.281 35.133 109.911 34.5615 108.383C33.9901 106.854 33.7921 105.21 33.9842 103.589C34.1762 101.967 34.7528 100.416 35.6655 99.0639C36.5782 97.712 37.8005 96.5991 39.2302 95.8182H39.2098ZM39.2302 95.5116C39.1775 95.4929 39.1199 95.4929 39.0672 95.5116C37.6182 96.3244 36.3831 97.4716 35.4639 98.8583C34.5448 100.245 33.9681 101.831 33.7816 103.486C33.595 105.14 33.804 106.816 34.3912 108.373C34.9783 109.931 35.9269 111.325 37.1582 112.442C38.3896 113.559 39.8685 114.366 41.4724 114.796C43.0764 115.225 44.7593 115.266 46.382 114.914C48.0047 114.562 49.5205 113.827 50.8039 112.771C52.0874 111.715 53.1016 110.367 53.7627 108.84C53.7826 108.798 53.7929 108.753 53.7929 108.707C53.7929 108.661 53.7826 108.616 53.7627 108.574L52.3767 105.978C52.3431 105.942 52.3018 105.914 52.2559 105.896C52.21 105.879 52.1607 105.872 52.1117 105.876C52.051 105.887 51.9952 105.917 51.9515 105.96C51.9079 106.004 51.8785 106.06 51.8672 106.121C51.6385 107.372 51.1081 108.547 50.3222 109.545C49.5363 110.542 48.5189 111.332 47.3587 111.844C46.1985 112.357 44.9309 112.577 43.6665 112.484C42.4021 112.392 41.1795 111.991 40.1053 111.316C39.0311 110.641 38.138 109.712 37.504 108.611C36.8701 107.51 36.5145 106.27 36.4684 105C36.4223 103.729 36.6871 102.466 37.2395 101.322C37.792 100.178 38.6154 99.1865 39.6379 98.4348C39.6774 98.4031 39.7091 98.3626 39.7303 98.3164C39.7515 98.2703 39.7618 98.2199 39.7602 98.1691L39.5767 95.8182C39.5723 95.7669 39.555 95.7175 39.5265 95.6746C39.498 95.6317 39.4592 95.5968 39.4137 95.5729C39.3674 95.5573 39.3173 95.5573 39.271 95.5729L39.2302 95.5116Z" fill="#F492D8"/>
<path d="M44.1451 115.053C41.8552 115.06 39.6281 114.302 37.8151 112.899C36.002 111.496 34.706 109.528 34.1314 107.305C33.5568 105.082 33.7362 102.73 34.6415 100.62C35.5467 98.5106 37.1263 96.7631 39.1311 95.6533H39.2738C39.2897 95.6927 39.2897 95.7366 39.2738 95.776L39.4572 98.1268C38.4383 98.896 37.609 99.8895 37.0331 101.031C36.4571 102.172 36.1498 103.43 36.135 104.709C36.1616 106.678 36.9159 108.568 38.2518 110.011C39.5878 111.455 41.4102 112.35 43.3663 112.523C45.3224 112.696 47.2729 112.134 48.8401 110.948C50.4073 109.761 51.4797 108.033 51.8496 106.099C51.8583 106.07 51.8741 106.044 51.8954 106.023C51.9168 106.001 51.943 105.985 51.9719 105.977C51.9941 105.966 52.0185 105.96 52.0432 105.96C52.0679 105.96 52.0923 105.966 52.1146 105.977L53.5005 108.573C52.7595 110.463 51.4739 112.089 49.8076 113.243C48.1413 114.397 46.17 115.027 44.1451 115.053Z" fill="#F492D8"/>
<path d="M39.2098 95.8182L39.3933 98.1691C38.289 98.9424 37.393 99.978 36.7852 101.183C36.1774 102.389 35.8769 103.727 35.9104 105.077C35.944 106.427 36.3105 107.748 36.9773 108.922C37.6442 110.095 38.5905 111.085 39.7318 111.802C40.8731 112.52 42.1737 112.942 43.5176 113.032C44.8614 113.122 46.2065 112.877 47.4327 112.318C48.659 111.759 49.7281 110.905 50.5446 109.831C51.3611 108.756 51.8995 107.496 52.1117 106.162L53.4977 108.758C52.8665 110.263 51.8849 111.594 50.6353 112.641C49.3857 113.687 47.9043 114.418 46.3151 114.772C44.726 115.127 43.0754 115.094 41.5015 114.677C39.9276 114.26 38.4761 113.471 37.2687 112.376C36.0613 111.281 35.133 109.911 34.5615 108.383C33.9901 106.854 33.7921 105.21 33.9842 103.589C34.1762 101.967 34.7528 100.416 35.6655 99.0639C36.5782 97.712 37.8005 96.5991 39.2302 95.8182H39.2098ZM39.2302 95.5116C39.1775 95.4929 39.1199 95.4929 39.0672 95.5116C37.6182 96.3244 36.3831 97.4716 35.4639 98.8583C34.5448 100.245 33.9681 101.831 33.7816 103.486C33.595 105.14 33.804 106.816 34.3912 108.373C34.9783 109.931 35.9269 111.325 37.1582 112.442C38.3896 113.559 39.8685 114.366 41.4724 114.796C43.0764 115.225 44.7593 115.266 46.382 114.914C48.0047 114.562 49.5205 113.827 50.8039 112.771C52.0874 111.715 53.1016 110.367 53.7627 108.84C53.7826 108.798 53.7929 108.753 53.7929 108.707C53.7929 108.661 53.7826 108.616 53.7627 108.574L52.3767 105.978C52.3431 105.942 52.3018 105.914 52.2559 105.896C52.21 105.879 52.1607 105.872 52.1117 105.876C52.051 105.887 51.9952 105.917 51.9515 105.96C51.9079 106.004 51.8785 106.06 51.8672 106.121C51.6385 107.372 51.1081 108.547 50.3222 109.545C49.5363 110.542 48.5189 111.332 47.3587 111.844C46.1985 112.357 44.9309 112.577 43.6665 112.484C42.4021 112.392 41.1795 111.991 40.1053 111.316C39.0311 110.641 38.138 109.712 37.504 108.611C36.8701 107.51 36.5145 106.27 36.4684 105C36.4223 103.729 36.6871 102.466 37.2395 101.322C37.792 100.178 38.6154 99.1865 39.6379 98.4348C39.6774 98.4031 39.7091 98.3626 39.7303 98.3164C39.7515 98.2703 39.7618 98.2199 39.7602 98.1691L39.5767 95.8182C39.5723 95.7669 39.555 95.7175 39.5265 95.6746C39.498 95.6317 39.4592 95.5968 39.4137 95.5729C39.3674 95.5573 39.3173 95.5573 39.271 95.5729L39.2302 95.5116Z" fill="#F492D8"/>
<path fill-rule="evenodd" clip-rule="evenodd" d="M56.1887 111.701H56.0868L51.8065 101.787L41.4931 102.114C41.4553 102.114 41.419 102.099 41.3923 102.072C41.3655 102.045 41.3505 102.009 41.3505 101.971L39.6995 88.4788V87.886L39.3326 86.8434V85.7191L39.6588 84.7174L40.311 83.9406L41.1671 83.5318L42.0639 83.3887L43.1033 83.5318L43.8575 84.0019L44.3874 84.8196L44.7339 85.76V86.6185L44.5505 87.3545L44.1632 87.9677L43.5925 88.4379L42.9607 88.7445H42.5327L43.246 94.6523L50.4002 94.4683C50.4002 94.4683 50.5428 94.4683 50.5632 94.6319V96.901C50.5632 96.9389 50.5482 96.9753 50.5214 97.0022C50.4947 97.029 50.4584 97.0441 50.4205 97.0441L43.5518 97.3711L43.7352 99.4154L53.5798 99.0678L57.3912 108.144L60.8562 106.672H60.9785C60.9871 106.706 60.9871 106.741 60.9785 106.775L61.8753 108.982C61.8888 108.996 61.8996 109.012 61.907 109.029C61.9143 109.047 61.9181 109.065 61.9181 109.085C61.9181 109.104 61.9143 109.122 61.907 109.14C61.8996 109.158 61.8888 109.173 61.8753 109.187L56.1887 111.681V111.701Z" fill="#DB7028"/>
<path d="M42.0625 83.5317L43.0612 83.6748L43.7542 84.145L44.2434 84.9014L44.5695 85.8008V86.6185L44.3861 87.3135L44.0192 87.8859L43.4689 88.3356L42.8778 88.6014H42.3479L43.0612 94.7341H50.3784V97.0031L43.3262 97.3302L43.5708 99.6197L53.5377 99.2722L57.2676 108.389L60.8752 106.856L61.7721 109.084L56.1873 111.558L51.9478 101.787L41.4918 102.011L39.8613 88.5196V87.8859L39.474 86.8025V85.719L39.8001 84.7583L40.432 84.0428L41.2472 83.6748L42.0829 83.5317H42.0625ZM42.0829 83.2251L41.2269 83.3682L40.432 83.7362H40.3097L39.6982 84.4516L39.3721 85.4124V86.4959L39.7389 87.5384V88.029L41.3695 101.541C41.3721 101.579 41.3821 101.616 41.3988 101.649C41.4156 101.683 41.4389 101.713 41.4673 101.738C41.4957 101.763 41.5287 101.781 41.5644 101.793C41.6001 101.805 41.6378 101.81 41.6753 101.807L51.8663 101.582L55.9428 111.272C55.9891 111.341 56.0522 111.397 56.1262 111.435H56.2485L61.9759 108.921C62.013 108.908 62.047 108.887 62.0757 108.859C62.1044 108.832 62.1271 108.799 62.1424 108.763C62.1578 108.726 62.1654 108.687 62.1648 108.647C62.1642 108.608 62.1553 108.569 62.1389 108.533L61.2421 106.304C61.2421 106.304 61.2421 106.161 61.079 106.141H60.9567H60.8345L57.5122 107.531L53.9045 98.6999C53.8767 98.6472 53.8358 98.6027 53.7858 98.5704C53.7359 98.5382 53.6785 98.5194 53.6192 98.5159L43.9377 98.8429L43.7746 97.1667L50.4803 96.8601C50.5223 96.8601 50.5638 96.8516 50.6022 96.8349C50.6407 96.8182 50.6754 96.7938 50.7041 96.7631C50.7327 96.7325 50.7548 96.6962 50.7689 96.6566C50.783 96.617 50.7889 96.5749 50.7861 96.533V94.2639C50.7809 94.1862 50.7464 94.1133 50.6896 94.0602C50.6329 94.007 50.558 93.9775 50.4803 93.9777H43.4281L42.7963 88.4992H43.102L43.7135 88.213L44.2434 87.7837L44.6103 87.2113L44.7937 86.5367V85.719L44.4676 84.8196L43.9581 83.9815H43.8561L43.1631 83.5113H43.0409L42.0421 83.3682L42.0829 83.2251Z" fill="#DB7028"/>
<path fill-rule="evenodd" clip-rule="evenodd" d="M56.1887 111.701H56.0868L51.8065 101.787L41.4931 102.114C41.4553 102.114 41.419 102.099 41.3923 102.072C41.3655 102.045 41.3505 102.009 41.3505 101.971L39.6995 88.4788V87.886L39.3326 86.8434V85.7191L39.6588 84.7174L40.311 83.9406L41.1671 83.5318L42.0639 83.3887L43.1033 83.5318L43.8575 84.0019L44.3874 84.8196L44.7339 85.76V86.6185L44.5505 87.3545L44.1632 87.9677L43.5925 88.4379L42.9607 88.7445H42.5327L43.246 94.6523L50.4002 94.4683C50.4002 94.4683 50.5428 94.4683 50.5632 94.6319V96.901C50.5632 96.9389 50.5482 96.9753 50.5214 97.0022C50.4947 97.029 50.4584 97.0441 50.4205 97.0441L43.5518 97.3711L43.7352 99.4154L53.5798 99.0678L57.3912 108.144L60.8562 106.672H60.9785C60.9871 106.706 60.9871 106.741 60.9785 106.775L61.8753 108.982C61.8888 108.996 61.8996 109.012 61.907 109.029C61.9143 109.047 61.9181 109.065 61.9181 109.085C61.9181 109.104 61.9143 109.122 61.907 109.14C61.8996 109.158 61.8888 109.173 61.8753 109.187L56.1887 111.681V111.701Z" fill="#DB7028"/>
<path d="M42.0625 83.5317L43.0612 83.6748L43.7542 84.145L44.2434 84.9014L44.5695 85.8008V86.6185L44.3861 87.3135L44.0192 87.8859L43.4689 88.3356L42.8778 88.6014H42.3479L43.0612 94.7341H50.3784V97.0031L43.3262 97.3302L43.5708 99.6197L53.5377 99.2722L57.2676 108.389L60.8752 106.856L61.7721 109.084L56.1873 111.558L51.9478 101.787L41.4918 102.011L39.8613 88.5196V87.8859L39.474 86.8025V85.719L39.8001 84.7583L40.432 84.0428L41.2472 83.6748L42.0829 83.5317H42.0625ZM42.0829 83.2251L41.2269 83.3682L40.432 83.7362H40.3097L39.6982 84.4516L39.3721 85.4124V86.4959L39.7389 87.5384V88.029L41.3695 101.541C41.3721 101.579 41.3821 101.616 41.3988 101.649C41.4156 101.683 41.4389 101.713 41.4673 101.738C41.4957 101.763 41.5287 101.781 41.5644 101.793C41.6001 101.805 41.6378 101.81 41.6753 101.807L51.8663 101.582L55.9428 111.272C55.9891 111.341 56.0522 111.397 56.1262 111.435H56.2485L61.9759 108.921C62.013 108.908 62.047 108.887 62.0757 108.859C62.1044 108.832 62.1271 108.799 62.1424 108.763C62.1578 108.726 62.1654 108.687 62.1648 108.647C62.1642 108.608 62.1553 108.569 62.1389 108.533L61.2421 106.304C61.2421 106.304 61.2421 106.161 61.079 106.141H60.9567H60.8345L57.5122 107.531L53.9045 98.6999C53.8767 98.6472 53.8358 98.6027 53.7858 98.5704C53.7359 98.5382 53.6785 98.5194 53.6192 98.5159L43.9377 98.8429L43.7746 97.1667L50.4803 96.8601C50.5223 96.8601 50.5638 96.8516 50.6022 96.8349C50.6407 96.8182 50.6754 96.7938 50.7041 96.7631C50.7327 96.7325 50.7548 96.6962 50.7689 96.6566C50.783 96.617 50.7889 96.5749 50.7861 96.533V94.2639C50.7809 94.1862 50.7464 94.1133 50.6896 94.0602C50.6329 94.007 50.558 93.9775 50.4803 93.9777H43.4281L42.7963 88.4992H43.102L43.7135 88.213L44.2434 87.7837L44.6103 87.2113L44.7937 86.5367V85.719L44.4676 84.8196L43.9581 83.9815H43.8561L43.1631 83.5113H43.0409L42.0421 83.3682L42.0829 83.2251Z" fill="#DB7028"/>
<path d="M104.191 83.5118C104.187 82.9814 104.34 82.4616 104.631 82.0185C104.922 81.5755 105.338 81.2291 105.825 81.0232C106.313 80.8174 106.85 80.7615 107.37 80.8625C107.889 80.9635 108.367 81.2169 108.742 81.5906C109.117 81.9643 109.374 82.4414 109.478 82.9614C109.583 83.4814 109.532 84.0209 109.33 84.5114C109.129 85.0019 108.786 85.4214 108.347 85.7166C107.907 86.0117 107.39 86.1693 106.861 86.1693C106.157 86.1694 105.481 85.89 104.98 85.3922C104.48 84.8944 104.197 84.2185 104.191 83.5118Z" fill="#DB7028" stroke="#DB7028" stroke-width="0.25" stroke-miterlimit="10"/>
<path d="M104.191 83.5118C104.187 82.9814 104.34 82.4616 104.631 82.0185C104.922 81.5755 105.338 81.2291 105.825 81.0232C106.313 80.8174 106.85 80.7615 107.37 80.8625C107.889 80.9635 108.367 81.2169 108.742 81.5906C109.117 81.9643 109.374 82.4414 109.478 82.9614C109.583 83.4814 109.532 84.0209 109.33 84.5114C109.129 85.0019 108.786 85.4214 108.347 85.7166C107.907 86.0117 107.39 86.1693 106.861 86.1693C106.157 86.1694 105.481 85.89 104.98 85.3922C104.48 84.8944 104.197 84.2185 104.191 83.5118Z" fill="#DB7028" stroke="#DB7028" stroke-width="0.25" stroke-linejoin="round"/>
<path d="M119.275 87.8257H94.3065V89.0727H119.275V87.8257Z" fill="#D8600E" stroke="#DB7028" stroke-width="0.75" stroke-linejoin="round"/>
<path d="M109.873 89.0718H103.86V99.2111H109.873V89.0718Z" fill="#DB7028" stroke="#DB7028" stroke-width="0.75" stroke-linejoin="round"/>
<path d="M103.866 90.5413L103.668 112.086L104.911 112.098L105.11 90.5528L103.866 90.5413Z" fill="#D8600E" stroke="#DB7028" stroke-width="0.75" stroke-linecap="round" stroke-linejoin="round"/>
<path d="M109.813 90.3093L108.569 90.311L108.6 112.368L109.843 112.366L109.813 90.3093Z" fill="#D8600E" stroke="#DB7028" stroke-width="0.75" stroke-linecap="round" stroke-linejoin="round"/>
<path d="M104.002 103.443H105.327V106.612H103.391V103.443H104.002Z" fill="#F492D8" stroke="#F492D8" stroke-width="0.75" stroke-linejoin="round"/>
<path d="M169.289 89.6853C169.289 89.1556 169.446 88.6379 169.739 88.1975C170.033 87.7571 170.45 87.4139 170.938 87.2112C171.426 87.0085 171.962 86.9555 172.48 87.0588C172.998 87.1621 173.474 87.4172 173.848 87.7917C174.221 88.1662 174.475 88.6434 174.578 89.1628C174.681 89.6823 174.628 90.2207 174.426 90.7101C174.224 91.1994 173.882 91.6176 173.443 91.9119C173.004 92.2061 172.488 92.3632 171.959 92.3632C171.608 92.3659 171.26 92.2985 170.934 92.1649C170.609 92.0313 170.314 91.8341 170.065 91.5849C169.817 91.3357 169.62 91.0394 169.487 90.7133C169.354 90.3871 169.287 90.0377 169.289 89.6853Z" fill="#DB7028" stroke="#DB7028" stroke-width="0.15" stroke-miterlimit="10"/>
<path d="M169.289 89.6853C169.289 89.1556 169.446 88.6379 169.739 88.1975C170.033 87.7571 170.45 87.4139 170.938 87.2112C171.426 87.0085 171.962 86.9555 172.48 87.0588C172.998 87.1621 173.474 87.4172 173.848 87.7917C174.221 88.1662 174.475 88.6434 174.578 89.1628C174.681 89.6823 174.628 90.2207 174.426 90.7101C174.224 91.1994 173.882 91.6176 173.443 91.9119C173.004 92.2061 172.488 92.3632 171.959 92.3632C171.608 92.3659 171.26 92.2985 170.934 92.1649C170.609 92.0313 170.314 91.8341 170.065 91.5849C169.817 91.3357 169.62 91.0394 169.487 90.7133C169.354 90.3871 169.287 90.0377 169.289 89.6853Z" fill="#DB7028" stroke="#DB7028" stroke-width="0.15" stroke-linejoin="round"/>
<path d="M156.53 97.6986L161.646 92.445L168.148 92.3428L173.121 97.1876L177.259 92.9356" stroke="#DB7028" stroke-width="1.5" stroke-linecap="round" stroke-linejoin="round"/>
<path d="M165.52 92.3832L158.957 99.3745L162.096 102.543L169.291 94.8976L169.76 94.3866L167.742 92.3628L165.52 92.3832Z" fill="#DB7028" stroke="#DB7028" stroke-width="0.6" stroke-linejoin="round"/>
<path d="M148.007 103.622L156.343 103.499L158.565 101.209L159.482 100.269" stroke="#DB7028" stroke-width="2" stroke-linecap="round" stroke-linejoin="round"/>
<path d="M162.963 101.633L165.683 104.063L164.439 111.179" stroke="#DB7028" stroke-width="2" stroke-linecap="round" stroke-linejoin="round"/>
<path d="M13.77 115.238L26.6923 120.88L33.6222 128.341L47.9305 127.708L55.3496 134.086L64.0527 129.772" stroke="#FCB854" stroke-width="1.2" stroke-miterlimit="10"/>
<path d="M11.6952 114.706C11.8105 114.327 12.0335 113.989 12.3367 113.734C12.64 113.48 13.0106 113.319 13.4033 113.272C13.7961 113.225 14.1939 113.294 14.5484 113.47C14.903 113.645 15.1988 113.921 15.3999 114.263C15.601 114.604 15.6987 114.997 15.6811 115.393C15.6634 115.79 15.5312 116.172 15.3005 116.494C15.0699 116.816 14.7507 117.064 14.382 117.208C14.0133 117.351 13.6109 117.384 13.2239 117.302C12.9473 117.244 12.6858 117.128 12.4561 116.963C12.2265 116.797 12.0336 116.586 11.8899 116.342C11.7461 116.097 11.6546 115.826 11.6211 115.544C11.5876 115.263 11.6128 114.977 11.6952 114.706Z" fill="#C1E0DF"/>
<path d="M11.6952 114.706C11.8105 114.327 12.0335 113.989 12.3367 113.734C12.64 113.48 13.0106 113.319 13.4033 113.272C13.7961 113.225 14.1939 113.294 14.5484 113.47C14.903 113.645 15.1988 113.921 15.3999 114.263C15.601 114.604 15.6987 114.997 15.6811 115.393C15.6634 115.79 15.5312 116.172 15.3005 116.494C15.0699 116.816 14.7507 117.064 14.382 117.208C14.0133 117.351 13.6109 117.384 13.2239 117.302C12.9473 117.244 12.6858 117.128 12.4561 116.963C12.2265 116.797 12.0336 116.586 11.8899 116.342C11.7461 116.097 11.6546 115.826 11.6211 115.544C11.5876 115.263 11.6128 114.977 11.6952 114.706Z" fill="#C1E0DF"/>
<path d="M24.6384 120.329C24.7844 119.787 25.1391 119.325 25.6245 119.045C26.11 118.765 26.6864 118.69 27.2269 118.836C27.7675 118.983 28.228 119.339 28.507 119.825C28.786 120.312 28.8608 120.89 28.7148 121.433C28.6426 121.701 28.5183 121.953 28.3491 122.173C28.1799 122.393 27.9691 122.578 27.7287 122.716C27.4884 122.855 27.2231 122.945 26.9482 122.98C26.6732 123.016 26.394 122.997 26.1263 122.925C25.8586 122.852 25.6078 122.728 25.3882 122.558C25.1686 122.388 24.9844 122.177 24.8463 121.936C24.7081 121.695 24.6186 121.429 24.583 121.153C24.5473 120.877 24.5662 120.597 24.6384 120.329Z" fill="#C1E0DF"/>
<path d="M24.6384 120.329C24.7844 119.787 25.1391 119.325 25.6245 119.045C26.11 118.765 26.6864 118.69 27.2269 118.836C27.7675 118.983 28.228 119.339 28.507 119.825C28.786 120.312 28.8608 120.89 28.7148 121.433C28.6426 121.701 28.5183 121.953 28.3491 122.173C28.1799 122.393 27.9691 122.578 27.7287 122.716C27.4884 122.855 27.2231 122.945 26.9482 122.98C26.6732 123.016 26.394 122.997 26.1263 122.925C25.8586 122.852 25.6078 122.728 25.3882 122.558C25.1686 122.388 24.9844 122.177 24.8463 121.936C24.7081 121.695 24.6186 121.429 24.583 121.153C24.5473 120.877 24.5662 120.597 24.6384 120.329Z" fill="#C1E0DF"/>
<path d="M31.5688 127.809C31.6851 127.429 31.9093 127.092 32.2139 126.838C32.5184 126.584 32.8902 126.424 33.2838 126.379C33.6773 126.333 34.0755 126.404 34.4298 126.582C34.784 126.759 35.0789 127.037 35.2783 127.38C35.4777 127.724 35.5731 128.118 35.5527 128.515C35.5324 128.911 35.3972 129.294 35.1636 129.615C34.9301 129.935 34.6084 130.181 34.2378 130.322C33.8673 130.462 33.4639 130.491 33.0771 130.405C32.8023 130.344 32.5431 130.227 32.3157 130.061C32.0884 129.894 31.8978 129.683 31.7562 129.439C31.6145 129.195 31.5247 128.924 31.4924 128.644C31.4602 128.363 31.4862 128.079 31.5688 127.809Z" fill="#C1E0DF"/>
<path d="M31.5688 127.809C31.6851 127.429 31.9093 127.092 32.2139 126.838C32.5184 126.584 32.8902 126.424 33.2838 126.379C33.6773 126.333 34.0755 126.404 34.4298 126.582C34.784 126.759 35.0789 127.037 35.2783 127.38C35.4777 127.724 35.5731 128.118 35.5527 128.515C35.5324 128.911 35.3972 129.294 35.1636 129.615C34.9301 129.935 34.6084 130.181 34.2378 130.322C33.8673 130.462 33.4639 130.491 33.0771 130.405C32.8023 130.344 32.5431 130.227 32.3157 130.061C32.0884 129.894 31.8978 129.683 31.7562 129.439C31.6145 129.195 31.5247 128.924 31.4924 128.644C31.4602 128.363 31.4862 128.079 31.5688 127.809Z" fill="#C1E0DF"/>
<path d="M61.9957 129.22C62.1154 128.842 62.3419 128.508 62.6476 128.257C62.9534 128.006 63.3253 127.85 63.718 127.807C64.1107 127.764 64.5074 127.837 64.8597 128.016C65.2121 128.195 65.5049 128.473 65.7027 128.816C65.9004 129.159 65.9944 129.552 65.9734 129.948C65.9524 130.344 65.8172 130.725 65.5843 131.045C65.3513 131.365 65.0307 131.61 64.6614 131.75C64.292 131.891 63.8899 131.921 63.5039 131.836C63.2268 131.776 62.9653 131.658 62.7363 131.49C62.5072 131.322 62.3155 131.109 62.1736 130.862C62.0316 130.616 61.9424 130.343 61.9118 130.06C61.8812 129.777 61.9098 129.491 61.9957 129.22Z" fill="#C1E0DF"/>
<path d="M61.9957 129.22C62.1154 128.842 62.3419 128.508 62.6476 128.257C62.9534 128.006 63.3253 127.85 63.718 127.807C64.1107 127.764 64.5074 127.837 64.8597 128.016C65.2121 128.195 65.5049 128.473 65.7027 128.816C65.9004 129.159 65.9944 129.552 65.9734 129.948C65.9524 130.344 65.8172 130.725 65.5843 131.045C65.3513 131.365 65.0307 131.61 64.6614 131.75C64.292 131.891 63.8899 131.921 63.5039 131.836C63.2268 131.776 62.9653 131.658 62.7363 131.49C62.5072 131.322 62.3155 131.109 62.1736 130.862C62.0316 130.616 61.9424 130.343 61.9118 130.06C61.8812 129.777 61.9098 129.491 61.9957 129.22Z" fill="#C1E0DF"/>
<path d="M53.2946 133.554C53.4143 133.176 53.6408 132.842 53.9466 132.591C54.2524 132.34 54.6242 132.184 55.017 132.141C55.4097 132.098 55.8064 132.171 56.1587 132.35C56.5111 132.529 56.8039 132.807 57.0017 133.15C57.1994 133.493 57.2934 133.886 57.2724 134.282C57.2514 134.678 57.1162 135.059 56.8833 135.379C56.6503 135.699 56.3297 135.944 55.9604 136.084C55.591 136.225 55.1889 136.255 54.8029 136.17C54.5258 136.11 54.2643 135.992 54.0352 135.824C53.8061 135.656 53.6145 135.443 53.4725 135.196C53.3305 134.95 53.2414 134.677 53.2108 134.394C53.1801 134.111 53.2087 133.825 53.2946 133.554Z" fill="#C1E0DF"/>
<path d="M53.2946 133.554C53.4143 133.176 53.6408 132.842 53.9466 132.591C54.2524 132.34 54.6242 132.184 55.017 132.141C55.4097 132.098 55.8064 132.171 56.1587 132.35C56.5111 132.529 56.8039 132.807 57.0017 133.15C57.1994 133.493 57.2934 133.886 57.2724 134.282C57.2514 134.678 57.1162 135.059 56.8833 135.379C56.6503 135.699 56.3297 135.944 55.9604 136.084C55.591 136.225 55.1889 136.255 54.8029 136.17C54.5258 136.11 54.2643 135.992 54.0352 135.824C53.8061 135.656 53.6145 135.443 53.4725 135.196C53.3305 134.95 53.2414 134.677 53.2108 134.394C53.1801 134.111 53.2087 133.825 53.2946 133.554Z" fill="#C1E0DF"/>
<path d="M45.8749 127.155C45.9946 126.778 46.2211 126.443 46.5269 126.192C46.8327 125.942 47.2045 125.785 47.5972 125.742C47.99 125.7 48.3866 125.772 48.739 125.951C49.0913 126.131 49.3842 126.409 49.5819 126.752C49.7796 127.095 49.8737 127.488 49.8527 127.883C49.8316 128.279 49.6964 128.66 49.4635 128.98C49.2306 129.3 48.91 129.545 48.5406 129.686C48.1713 129.826 47.7692 129.856 47.3832 129.772C46.8386 129.623 46.3745 129.265 46.092 128.775C45.8096 128.285 45.7315 127.703 45.8749 127.155Z" fill="#C1E0DF"/>
<path d="M45.8749 127.155C45.9946 126.778 46.2211 126.443 46.5269 126.192C46.8327 125.942 47.2045 125.785 47.5972 125.742C47.99 125.7 48.3866 125.772 48.739 125.951C49.0913 126.131 49.3842 126.409 49.5819 126.752C49.7796 127.095 49.8737 127.488 49.8527 127.883C49.8316 128.279 49.6964 128.66 49.4635 128.98C49.2306 129.3 48.91 129.545 48.5406 129.686C48.1713 129.826 47.7692 129.856 47.3832 129.772C46.8386 129.623 46.3745 129.265 46.092 128.775C45.8096 128.285 45.7315 127.703 45.8749 127.155Z" fill="#C1E0DF"/>
<path d="M113.71 70.8579L124.838 64.9092L136.436 72.2275L153.251 68.5275L167.192 79.0756" stroke="#F9C5F9" stroke-width="1.2" stroke-miterlimit="10"/>
<path d="M111.079 70.3879C111.113 70.019 111.224 69.6613 111.403 69.3374C111.583 69.0135 111.827 68.7305 112.121 68.5062C112.415 68.2819 112.752 68.1213 113.112 68.0345C113.471 67.9477 113.844 67.9366 114.208 68.0019C114.571 68.0671 114.918 68.2074 115.224 68.4138C115.531 68.6201 115.792 68.8881 115.99 69.2008C116.188 69.5134 116.32 69.8639 116.376 70.2301C116.432 70.5963 116.412 70.9703 116.317 71.3283C116.144 71.9771 115.735 72.5372 115.17 72.8975C114.605 73.2579 113.926 73.3922 113.267 73.2739C112.608 73.1556 112.017 72.7933 111.612 72.2587C111.207 71.7242 111.016 71.0565 111.079 70.3879Z" fill="#D7F4F4"/>
<path d="M111.079 70.3879C111.113 70.019 111.224 69.6613 111.403 69.3374C111.583 69.0135 111.827 68.7305 112.121 68.5062C112.415 68.2819 112.752 68.1213 113.112 68.0345C113.471 67.9477 113.844 67.9366 114.208 68.0019C114.571 68.0671 114.918 68.2074 115.224 68.4138C115.531 68.6201 115.792 68.8881 115.99 69.2008C116.188 69.5134 116.32 69.8639 116.376 70.2301C116.432 70.5963 116.412 70.9703 116.317 71.3283C116.144 71.9771 115.735 72.5372 115.17 72.8975C114.605 73.2579 113.926 73.3922 113.267 73.2739C112.608 73.1556 112.017 72.7933 111.612 72.2587C111.207 71.7242 111.016 71.0565 111.079 70.3879Z" fill="#D7F4F4"/>
<path d="M122.203 64.4388C122.332 63.7419 122.73 63.1239 123.31 62.7185C123.889 62.313 124.605 62.1526 125.301 62.2719C125.821 62.365 126.302 62.6106 126.683 62.9776C127.063 63.3446 127.327 63.8166 127.44 64.3339C127.553 64.8511 127.511 65.3905 127.319 65.8837C127.126 66.3769 126.792 66.8018 126.359 67.1047C125.926 67.4076 125.413 67.575 124.885 67.5855C124.357 67.5961 123.838 67.4495 123.393 67.1641C122.949 66.8788 122.598 66.4676 122.386 65.9825C122.174 65.4974 122.111 64.9602 122.203 64.4388Z" fill="#D7F4F4"/>
<path d="M122.203 64.4388C122.332 63.7419 122.73 63.1239 123.31 62.7185C123.889 62.313 124.605 62.1526 125.301 62.2719C125.821 62.365 126.302 62.6106 126.683 62.9776C127.063 63.3446 127.327 63.8166 127.44 64.3339C127.553 64.8511 127.511 65.3905 127.319 65.8837C127.126 66.3769 126.792 66.8018 126.359 67.1047C125.926 67.4076 125.413 67.575 124.885 67.5855C124.357 67.5961 123.838 67.4495 123.393 67.1641C122.949 66.8788 122.598 66.4676 122.386 65.9825C122.174 65.4974 122.111 64.9602 122.203 64.4388Z" fill="#D7F4F4"/>
<path d="M133.805 71.7575C133.898 71.2362 134.142 70.7541 134.508 70.3723C134.874 69.9906 135.345 69.7262 135.861 69.6126C136.376 69.499 136.914 69.5414 137.406 69.7343C137.898 69.9272 138.321 70.262 138.623 70.6964C138.925 71.1308 139.092 71.6453 139.103 72.1747C139.113 72.7042 138.967 73.2249 138.683 73.6711C138.398 74.1172 137.988 74.4687 137.504 74.6812C137.021 74.8937 136.485 74.9575 135.965 74.8647C135.62 74.803 135.29 74.6737 134.995 74.4842C134.699 74.2947 134.444 74.0486 134.243 73.76C134.042 73.4715 133.901 73.1461 133.825 72.8025C133.75 72.4589 133.743 72.1038 133.805 71.7575Z" fill="#D7F4F4"/>
<path d="M133.805 71.7575C133.898 71.2362 134.142 70.7541 134.508 70.3723C134.874 69.9906 135.345 69.7262 135.861 69.6126C136.376 69.499 136.914 69.5414 137.406 69.7343C137.898 69.9272 138.321 70.262 138.623 70.6964C138.925 71.1308 139.092 71.6453 139.103 72.1747C139.113 72.7042 138.967 73.2249 138.683 73.6711C138.398 74.1172 137.988 74.4687 137.504 74.6812C137.021 74.8937 136.485 74.9575 135.965 74.8647C135.62 74.803 135.29 74.6737 134.995 74.4842C134.699 74.2947 134.444 74.0486 134.243 73.76C134.042 73.4715 133.901 73.1461 133.825 72.8025C133.75 72.4589 133.743 72.1038 133.805 71.7575Z" fill="#D7F4F4"/>
<path d="M150.618 68.0564C150.79 67.4076 151.2 66.8475 151.765 66.4871C152.33 66.1268 153.009 65.9924 153.668 66.1107C154.327 66.2291 154.918 66.5914 155.323 67.1259C155.728 67.6605 155.919 68.3282 155.856 68.9968C155.822 69.3657 155.711 69.7234 155.532 70.0473C155.352 70.3712 155.108 70.6542 154.814 70.8785C154.52 71.1027 154.182 71.2634 153.823 71.3502C153.464 71.437 153.091 71.4481 152.727 71.3828C152.364 71.3175 152.017 71.1773 151.711 70.9709C151.404 70.7645 151.143 70.4966 150.945 70.1839C150.746 69.8713 150.615 69.5208 150.559 69.1545C150.502 68.7883 150.523 68.4144 150.618 68.0564Z" fill="#D7F4F4"/>
<path d="M150.618 68.0564C150.79 67.4076 151.2 66.8475 151.765 66.4871C152.33 66.1268 153.009 65.9924 153.668 66.1107C154.327 66.2291 154.918 66.5914 155.323 67.1259C155.728 67.6605 155.919 68.3282 155.856 68.9968C155.822 69.3657 155.711 69.7234 155.532 70.0473C155.352 70.3712 155.108 70.6542 154.814 70.8785C154.52 71.1027 154.182 71.2634 153.823 71.3502C153.464 71.437 153.091 71.4481 152.727 71.3828C152.364 71.3175 152.017 71.1773 151.711 70.9709C151.404 70.7645 151.143 70.4966 150.945 70.1839C150.746 69.8713 150.615 69.5208 150.559 69.1545C150.502 68.7883 150.523 68.4144 150.618 68.0564Z" fill="#D7F4F4"/>
<path d="M164.559 78.6052C164.593 78.2363 164.704 77.8786 164.883 77.5547C165.063 77.2308 165.307 76.9477 165.601 76.7235C165.895 76.4992 166.232 76.3386 166.592 76.2518C166.951 76.165 167.324 76.1539 167.688 76.2191C168.051 76.2844 168.397 76.4247 168.704 76.6311C169.011 76.8374 169.272 77.1054 169.47 77.418C169.668 77.7307 169.8 78.0812 169.856 78.4474C169.912 78.8136 169.892 79.1875 169.797 79.5455C169.624 80.1944 169.215 80.7544 168.65 81.1148C168.085 81.4752 167.406 81.6095 166.747 81.4912C166.088 81.3729 165.497 81.0106 165.092 80.476C164.686 79.9415 164.496 79.2738 164.559 78.6052Z" fill="#D7F4F4"/>
<path d="M164.559 78.6052C164.593 78.2363 164.704 77.8786 164.883 77.5547C165.063 77.2308 165.307 76.9477 165.601 76.7235C165.895 76.4992 166.232 76.3386 166.592 76.2518C166.951 76.165 167.324 76.1539 167.688 76.2191C168.051 76.2844 168.397 76.4247 168.704 76.6311C169.011 76.8374 169.272 77.1054 169.47 77.418C169.668 77.7307 169.8 78.0812 169.856 78.4474C169.912 78.8136 169.892 79.1875 169.797 79.5455C169.624 80.1944 169.215 80.7544 168.65 81.1148C168.085 81.4752 167.406 81.6095 166.747 81.4912C166.088 81.3729 165.497 81.0106 165.092 80.476C164.686 79.9415 164.496 79.2738 164.559 78.6052Z" fill="#D7F4F4"/>
<path d="M108.058 129.199C108.054 128.669 108.208 128.149 108.498 127.706C108.789 127.263 109.205 126.917 109.693 126.711C110.18 126.505 110.718 126.449 111.237 126.55C111.756 126.651 112.234 126.904 112.609 127.278C112.985 127.652 113.241 128.129 113.346 128.649C113.45 129.169 113.399 129.708 113.197 130.199C112.996 130.689 112.654 131.109 112.214 131.404C111.774 131.699 111.257 131.857 110.728 131.857C110.024 131.857 109.348 131.578 108.848 131.08C108.347 130.582 108.064 129.906 108.058 129.199Z" fill="#F7BA77"/>
<path d="M108.058 129.199C108.054 128.669 108.208 128.149 108.498 127.706C108.789 127.263 109.205 126.917 109.693 126.711C110.18 126.505 110.718 126.449 111.237 126.55C111.756 126.651 112.234 126.904 112.609 127.278C112.985 127.652 113.241 128.129 113.346 128.649C113.45 129.169 113.399 129.708 113.197 130.199C112.996 130.689 112.654 131.109 112.214 131.404C111.774 131.699 111.257 131.857 110.728 131.857C110.024 131.857 109.348 131.578 108.848 131.08C108.347 130.582 108.064 129.906 108.058 129.199Z" fill="#F7BA77"/>
<path d="M120.741 119.592C120.733 119.062 120.882 118.542 121.169 118.098C121.455 117.653 121.867 117.303 122.352 117.093C122.836 116.883 123.372 116.822 123.892 116.917C124.411 117.013 124.891 117.26 125.27 117.629C125.649 117.998 125.91 118.471 126.021 118.989C126.132 119.507 126.088 120.046 125.893 120.538C125.699 121.031 125.363 121.454 124.928 121.755C124.494 122.056 123.98 122.221 123.452 122.229C123.101 122.234 122.753 122.171 122.427 122.041C122.101 121.911 121.804 121.719 121.552 121.474C121.3 121.229 121.099 120.937 120.96 120.614C120.821 120.291 120.746 119.944 120.741 119.592Z" fill="#F7BA77"/>
<path d="M120.741 119.592C120.733 119.062 120.882 118.542 121.169 118.098C121.455 117.653 121.867 117.303 122.352 117.093C122.836 116.883 123.372 116.822 123.892 116.917C124.411 117.013 124.891 117.26 125.27 117.629C125.649 117.998 125.91 118.471 126.021 118.989C126.132 119.507 126.088 120.046 125.893 120.538C125.699 121.031 125.363 121.454 124.928 121.755C124.494 122.056 123.98 122.221 123.452 122.229C123.101 122.234 122.753 122.171 122.427 122.041C122.101 121.911 121.804 121.719 121.552 121.474C121.3 121.229 121.099 120.937 120.96 120.614C120.821 120.291 120.746 119.944 120.741 119.592Z" fill="#F7BA77"/>
<path d="M132.254 134.637C132.254 134.108 132.411 133.59 132.704 133.15C132.998 132.709 133.415 132.366 133.903 132.163C134.39 131.961 134.927 131.908 135.445 132.011C135.963 132.114 136.439 132.369 136.812 132.744C137.186 133.118 137.44 133.595 137.543 134.115C137.646 134.634 137.593 135.173 137.391 135.662C137.189 136.152 136.847 136.57 136.408 136.864C135.969 137.158 135.452 137.315 134.924 137.315C134.216 137.315 133.537 137.033 133.036 136.531C132.536 136.029 132.254 135.348 132.254 134.637Z" fill="#F7BA77"/>
<path d="M132.254 134.637C132.254 134.108 132.411 133.59 132.704 133.15C132.998 132.709 133.415 132.366 133.903 132.163C134.39 131.961 134.927 131.908 135.445 132.011C135.963 132.114 136.439 132.369 136.812 132.744C137.186 133.118 137.44 133.595 137.543 134.115C137.646 134.634 137.593 135.173 137.391 135.662C137.189 136.152 136.847 136.57 136.408 136.864C135.969 137.158 135.452 137.315 134.924 137.315C134.216 137.315 133.537 137.033 133.036 136.531C132.536 136.029 132.254 135.348 132.254 134.637Z" fill="#F7BA77"/>
<path d="M139.1 115.872C139.1 115.343 139.256 114.826 139.549 114.387C139.841 113.947 140.257 113.603 140.744 113.4C141.231 113.197 141.766 113.143 142.284 113.244C142.801 113.346 143.277 113.599 143.651 113.972C144.025 114.344 144.281 114.819 144.387 115.337C144.492 115.855 144.442 116.393 144.243 116.883C144.044 117.373 143.705 117.792 143.269 118.089C142.832 118.386 142.318 118.546 141.791 118.55C141.438 118.553 141.089 118.486 140.763 118.352C140.436 118.219 140.14 118.022 139.89 117.773C139.639 117.524 139.441 117.228 139.306 116.902C139.17 116.576 139.1 116.226 139.1 115.872Z" fill="#F7BA77"/>
<path d="M139.1 115.872C139.1 115.343 139.256 114.826 139.549 114.387C139.841 113.947 140.257 113.603 140.744 113.4C141.231 113.197 141.766 113.143 142.284 113.244C142.801 113.346 143.277 113.599 143.651 113.972C144.025 114.344 144.281 114.819 144.387 115.337C144.492 115.855 144.442 116.393 144.243 116.883C144.044 117.373 143.705 117.792 143.269 118.089C142.832 118.386 142.318 118.546 141.791 118.55C141.438 118.553 141.089 118.486 140.763 118.352C140.436 118.219 140.14 118.022 139.89 117.773C139.639 117.524 139.441 117.228 139.306 116.902C139.17 116.576 139.1 116.226 139.1 115.872Z" fill="#F7BA77"/>
<path d="M97.6857 120.39C97.6817 119.859 97.8354 119.338 98.1272 118.895C98.4191 118.451 98.8359 118.105 99.3246 117.9C99.8133 117.694 100.352 117.64 100.872 117.742C101.391 117.845 101.869 118.1 102.244 118.476C102.618 118.852 102.873 119.331 102.975 119.852C103.078 120.374 103.023 120.914 102.819 121.404C102.614 121.894 102.269 122.312 101.826 122.605C101.384 122.898 100.865 123.052 100.335 123.048C99.6343 123.042 98.9635 122.761 98.4677 122.263C97.972 121.766 97.6911 121.093 97.6857 120.39Z" fill="#F7BA77"/>
<path d="M97.6857 120.39C97.6817 119.859 97.8354 119.338 98.1272 118.895C98.4191 118.451 98.8359 118.105 99.3246 117.9C99.8133 117.694 100.352 117.64 100.872 117.742C101.391 117.845 101.869 118.1 102.244 118.476C102.618 118.852 102.873 119.331 102.975 119.852C103.078 120.374 103.023 120.914 102.819 121.404C102.614 121.894 102.269 122.312 101.826 122.605C101.384 122.898 100.865 123.052 100.335 123.048C99.6343 123.042 98.9635 122.761 98.4677 122.263C97.972 121.766 97.6911 121.093 97.6857 120.39Z" fill="#F7BA77"/>
<defs>
<filter id="filter0_d" x="21.7162" y="3.97119" width="161.521" height="49.7187" filterUnits="userSpaceOnUse" color-interpolation-filters="sRGB">
<feFlood flood-opacity="0" result="BackgroundImageFix"/>
<feColorMatrix in="SourceAlpha" type="matrix" values="0 0 0 0 0 0 0 0 0 0 0 0 0 0 0 0 0 0 127 0"/>
<feOffset dy="4"/>
<feGaussianBlur stdDeviation="2"/>
<feColorMatrix type="matrix" values="0 0 0 0 0 0 0 0 0 0 0 0 0 0 0 0 0 0 0.25 0"/>
<feBlend mode="normal" in2="BackgroundImageFix" result="effect1_dropShadow"/>
<feBlend mode="normal" in="SourceGraphic" in2="effect1_dropShadow" result="shape"/>
</filter>
</defs>
</svg>
