<svg width="334" height="207" viewBox="0 0 334 207" fill="none" xmlns="http://www.w3.org/2000/svg">
<g filter="url(#filter0_d)">
<rect x="89.8225" y="147.781" width="153.521" height="41.7187" rx="10" fill="#7C8294"/>
<path d="M117.579 165.28C118.659 165.28 119.511 165.562 120.135 166.126C120.771 166.69 121.089 167.488 121.089 168.52C121.089 168.808 121.047 169.192 120.963 169.672L119.901 175H117.651L118.695 169.726C118.743 169.486 118.767 169.24 118.767 168.988C118.767 167.824 118.125 167.242 116.841 167.242C116.013 167.242 115.329 167.476 114.789 167.944C114.249 168.4 113.883 169.09 113.691 170.014L112.683 175H110.433L112.341 165.388H114.483L114.267 166.45C115.131 165.67 116.235 165.28 117.579 165.28ZM132.905 169.492C132.905 169.96 132.857 170.416 132.761 170.86H125.129C125.165 172.432 126.089 173.218 127.901 173.218C128.453 173.218 128.969 173.134 129.449 172.966C129.929 172.786 130.337 172.54 130.673 172.228L131.609 173.794C131.117 174.238 130.523 174.574 129.827 174.802C129.143 175.018 128.423 175.126 127.667 175.126C126.707 175.126 125.867 174.952 125.147 174.604C124.439 174.256 123.893 173.764 123.509 173.128C123.125 172.48 122.933 171.736 122.933 170.896C122.933 169.828 123.167 168.868 123.635 168.016C124.115 167.152 124.775 166.48 125.615 166C126.467 165.52 127.421 165.28 128.477 165.28C129.821 165.28 130.895 165.658 131.699 166.414C132.503 167.158 132.905 168.184 132.905 169.492ZM128.369 167.08C127.613 167.08 126.965 167.284 126.425 167.692C125.897 168.1 125.531 168.658 125.327 169.366H130.835C130.847 168.646 130.625 168.088 130.169 167.692C129.725 167.284 129.125 167.08 128.369 167.08ZM137.156 171.778C137.132 171.97 137.12 172.108 137.12 172.192C137.12 172.912 137.498 173.272 138.254 173.272C138.722 173.272 139.142 173.146 139.514 172.894L139.91 174.55C139.298 174.934 138.524 175.126 137.588 175.126C136.76 175.126 136.094 174.898 135.59 174.442C135.086 173.986 134.834 173.356 134.834 172.552C134.834 172.288 134.858 172.036 134.906 171.796L135.824 167.26H134.258L134.618 165.46H136.184L136.616 163.264H138.866L138.416 165.46H141.008L140.648 167.26H138.056L137.156 171.778ZM143.525 165.388H145.775L143.867 175H141.617L143.525 165.388ZM145.163 163.804C144.767 163.804 144.443 163.684 144.191 163.444C143.939 163.192 143.813 162.892 143.813 162.544C143.813 162.136 143.951 161.794 144.227 161.518C144.515 161.242 144.887 161.104 145.343 161.104C145.739 161.104 146.063 161.224 146.315 161.464C146.567 161.692 146.693 161.974 146.693 162.31C146.693 162.754 146.549 163.114 146.261 163.39C145.985 163.666 145.619 163.804 145.163 163.804ZM151.626 175.126C150.678 175.126 149.844 174.952 149.124 174.604C148.416 174.244 147.87 173.746 147.486 173.11C147.102 172.474 146.91 171.736 146.91 170.896C146.91 169.828 147.156 168.868 147.648 168.016C148.14 167.164 148.818 166.498 149.682 166.018C150.558 165.526 151.554 165.28 152.67 165.28C153.642 165.28 154.476 165.472 155.172 165.856C155.88 166.228 156.426 166.786 156.81 167.53L154.884 168.52C154.44 167.632 153.642 167.188 152.49 167.188C151.854 167.188 151.284 167.344 150.78 167.656C150.288 167.956 149.898 168.382 149.61 168.934C149.322 169.474 149.178 170.092 149.178 170.788C149.178 171.544 149.4 172.138 149.844 172.57C150.288 172.99 150.918 173.2 151.734 173.2C152.286 173.2 152.784 173.092 153.228 172.876C153.672 172.648 154.05 172.312 154.362 171.868L156.018 172.984C155.574 173.656 154.962 174.184 154.182 174.568C153.402 174.94 152.55 175.126 151.626 175.126ZM169.4 165.28C170.48 165.28 171.332 165.562 171.956 166.126C172.592 166.69 172.91 167.494 172.91 168.538C172.91 168.826 172.868 169.204 172.784 169.672L171.722 175H169.472L170.516 169.726C170.564 169.486 170.588 169.24 170.588 168.988C170.588 167.824 169.946 167.242 168.662 167.242C167.834 167.242 167.15 167.476 166.61 167.944C166.07 168.4 165.704 169.09 165.512 170.014L164.504 175H162.254L164.918 161.644H167.168L166.232 166.342C167.06 165.634 168.116 165.28 169.4 165.28ZM184.726 169.492C184.726 169.96 184.678 170.416 184.582 170.86H176.95C176.986 172.432 177.91 173.218 179.722 173.218C180.274 173.218 180.79 173.134 181.27 172.966C181.75 172.786 182.158 172.54 182.494 172.228L183.43 173.794C182.938 174.238 182.344 174.574 181.648 174.802C180.964 175.018 180.244 175.126 179.488 175.126C178.528 175.126 177.688 174.952 176.968 174.604C176.26 174.256 175.714 173.764 175.33 173.128C174.946 172.48 174.754 171.736 174.754 170.896C174.754 169.828 174.988 168.868 175.456 168.016C175.936 167.152 176.596 166.48 177.436 166C178.288 165.52 179.242 165.28 180.298 165.28C181.642 165.28 182.716 165.658 183.52 166.414C184.324 167.158 184.726 168.184 184.726 169.492ZM180.19 167.08C179.434 167.08 178.786 167.284 178.246 167.692C177.718 168.1 177.352 168.658 177.148 169.366H182.656C182.668 168.646 182.446 168.088 181.99 167.692C181.546 167.284 180.946 167.08 180.19 167.08ZM197.112 165.388L195.204 175H193.062L193.26 174.01C192.42 174.754 191.376 175.126 190.128 175.126C189.336 175.126 188.616 174.958 187.968 174.622C187.332 174.286 186.828 173.8 186.456 173.164C186.084 172.516 185.898 171.76 185.898 170.896C185.898 169.828 186.132 168.868 186.6 168.016C187.08 167.152 187.728 166.48 188.544 166C189.372 165.52 190.296 165.28 191.316 165.28C192.852 165.28 193.944 165.79 194.592 166.81L194.862 165.388H197.112ZM190.704 173.2C191.34 173.2 191.904 173.05 192.396 172.75C192.9 172.438 193.296 172.012 193.584 171.472C193.872 170.92 194.016 170.296 194.016 169.6C194.016 168.844 193.794 168.256 193.35 167.836C192.906 167.404 192.282 167.188 191.478 167.188C190.842 167.188 190.272 167.344 189.768 167.656C189.276 167.956 188.886 168.382 188.598 168.934C188.31 169.474 188.166 170.092 188.166 170.788C188.166 171.544 188.388 172.138 188.832 172.57C189.276 172.99 189.9 173.2 190.704 173.2ZM200.812 161.644H203.062L200.398 175H198.148L200.812 161.644ZM206.994 171.778C206.97 171.97 206.958 172.108 206.958 172.192C206.958 172.912 207.336 173.272 208.092 173.272C208.56 173.272 208.98 173.146 209.352 172.894L209.748 174.55C209.136 174.934 208.362 175.126 207.426 175.126C206.598 175.126 205.932 174.898 205.428 174.442C204.924 173.986 204.672 173.356 204.672 172.552C204.672 172.288 204.696 172.036 204.744 171.796L205.662 167.26H204.096L204.456 165.46H206.022L206.454 163.264H208.704L208.254 165.46H210.846L210.486 167.26H207.894L206.994 171.778ZM218.601 165.28C219.681 165.28 220.533 165.562 221.157 166.126C221.793 166.69 222.111 167.494 222.111 168.538C222.111 168.826 222.069 169.204 221.985 169.672L220.923 175H218.673L219.717 169.726C219.765 169.486 219.789 169.24 219.789 168.988C219.789 167.824 219.147 167.242 217.863 167.242C217.035 167.242 216.351 167.476 215.811 167.944C215.271 168.4 214.905 169.09 214.713 170.014L213.705 175H211.455L214.119 161.644H216.369L215.433 166.342C216.261 165.634 217.317 165.28 218.601 165.28Z" fill="white"/>
</g>
<path d="M116.344 102.182C116.506 100.927 116.854 99.7024 117.374 98.5493" stroke="#9AC1C0" stroke-width="0.75" stroke-miterlimit="10"/>
<path d="M141.269 114.525C138.564 116.754 135.175 117.978 131.674 117.989" stroke="#9AC1C0" stroke-width="0.75" stroke-miterlimit="10"/>
<path d="M146.282 100.812C146.592 102.274 146.664 103.777 146.497 105.262" stroke="#9AC1C0" stroke-width="0.75" stroke-miterlimit="10"/>
<path d="M134.72 89.3838C136.912 89.9772 138.955 91.0263 140.716 92.4631" stroke="#9AC1C0" stroke-width="0.75" stroke-miterlimit="10"/>
<path d="M119.37 95.1574C120.316 93.4828 121.618 92.0374 123.184 90.9233" stroke="#9AC1C0" stroke-width="0.75" stroke-miterlimit="10"/>
<path d="M126.879 89.5289C128.199 89.2804 129.544 89.1995 130.884 89.2883" stroke="#9AC1C0" stroke-width="0.75" stroke-miterlimit="10"/>
<path d="M121.865 114.381C119.187 112.295 117.395 109.27 116.852 105.913" stroke="#9AC1C0" stroke-width="0.75" stroke-miterlimit="10"/>
<path d="M128.885 117.651C127.317 117.369 125.798 116.858 124.376 116.136" stroke="#9AC1C0" stroke-width="0.75" stroke-miterlimit="10"/>
<path d="M145.875 107.355C145.533 109.499 144.713 111.539 143.476 113.321" stroke="#9AC1C0" stroke-width="0.75" stroke-miterlimit="10"/>
<path d="M142.085 93.979C143.541 95.1822 144.712 96.6939 145.515 98.4056" stroke="#9AC1C0" stroke-width="0.75" stroke-miterlimit="10"/>
<path d="M248.973 107.21C249.189 105.641 249.624 104.111 250.267 102.664" stroke="#F9C7F7" stroke-width="0.75" stroke-miterlimit="10"/>
<path d="M280.348 122.632C276.904 125.437 272.599 126.958 268.163 126.938" stroke="#F9C7F7" stroke-width="0.75" stroke-miterlimit="10"/>
<path d="M286.653 105.382C287.039 107.208 287.127 109.085 286.916 110.939" stroke="#F9C7F7" stroke-width="0.75" stroke-miterlimit="10"/>
<path d="M272.091 91.1875C274.844 91.9438 277.414 93.2534 279.647 95.0367" stroke="#F9C7F7" stroke-width="0.75" stroke-miterlimit="10"/>
<path d="M252.751 98.4049C253.948 96.3125 255.586 94.5065 257.549 93.1123" stroke="#F9C7F7" stroke-width="0.75" stroke-miterlimit="10"/>
<path d="M262.207 91.4049C263.876 91.0965 265.575 90.9915 267.268 91.0921" stroke="#F9C7F7" stroke-width="0.75" stroke-miterlimit="10"/>
<path d="M255.904 122.463C252.544 119.874 250.296 116.096 249.619 111.901" stroke="#F9C7F7" stroke-width="0.75" stroke-miterlimit="10"/>
<path d="M264.752 126.648C262.785 126.297 260.879 125.665 259.091 124.772" stroke="#F9C7F7" stroke-width="0.75" stroke-miterlimit="10"/>
<path d="M286.143 113.683C285.69 116.364 284.649 118.911 283.096 121.14" stroke="#F9C7F7" stroke-width="0.75" stroke-miterlimit="10"/>
<path d="M281.38 96.9619C283.22 98.5017 284.694 100.433 285.697 102.615" stroke="#F9C7F7" stroke-width="0.75" stroke-miterlimit="10"/>
<path d="M47 62.8007C47.2599 60.8745 47.7678 58.9904 48.5112 57.1953" stroke="#F9BF87" stroke-width="0.75" stroke-miterlimit="10"/>
<path d="M83.4342 81.8306C79.5033 85.2605 74.4683 87.1488 69.2581 87.1472" stroke="#F9BF87" stroke-width="0.75" stroke-miterlimit="10"/>
<path d="M90.7983 60.54C91.2518 62.7961 91.3486 65.11 91.0851 67.3964" stroke="#F9BF87" stroke-width="0.75" stroke-miterlimit="10"/>
<path d="M73.8398 43.0732C77.0794 44.0373 80.0793 45.6769 82.643 47.8847" stroke="#F9BF87" stroke-width="0.75" stroke-miterlimit="10"/>
<path d="M51.3423 51.975C52.7253 49.4299 54.6399 47.2142 56.9552 45.4795" stroke="#F9BF87" stroke-width="0.75" stroke-miterlimit="10"/>
<path d="M62.3276 43.2663C64.2726 42.9061 66.2542 42.7849 68.2284 42.9055" stroke="#F9BF87" stroke-width="0.75" stroke-miterlimit="10"/>
<path d="M55.0091 81.5659C51.0269 78.2896 48.4091 73.6391 47.6692 68.5269" stroke="#F9BF87" stroke-width="0.75" stroke-miterlimit="10"/>
<path d="M65.282 86.7856C62.9851 86.3125 60.7705 85.5019 58.7097 84.3799" stroke="#F9BF87" stroke-width="0.75" stroke-miterlimit="10"/>
<path d="M90.1777 70.7881C89.6667 74.0717 88.4558 77.2062 86.6277 79.978" stroke="#F9BF87" stroke-width="0.75" stroke-miterlimit="10"/>
<path d="M84.6626 50.1475C86.8237 52.076 88.5352 54.4579 89.6758 57.1241" stroke="#F9BF87" stroke-width="0.75" stroke-miterlimit="10"/>
<path d="M212.485 107.764L204.426 129.849L190.873 112.143L175.738 123.762L163.72 113.057" stroke="#F7C2F9" stroke-miterlimit="10"/>
<path d="M192.313 78.2217C188.505 75.3971 185.928 71.21 185.117 66.5298" stroke="#9AC1C0" stroke-width="0.75" stroke-miterlimit="10"/>
<path d="M227.09 68.5269C226.562 71.5052 225.355 74.321 223.564 76.7545" stroke="#9AC1C0" stroke-width="0.75" stroke-miterlimit="10"/>
<path d="M105.576 101.677C105.905 99.1312 106.567 96.64 107.543 94.2671" stroke="#FCC3FC" stroke-width="0.75" stroke-miterlimit="10"/>
<path d="M162.305 98.7188C162.9 101.696 163.029 104.747 162.689 107.764" stroke="#FCC3FC" stroke-width="0.75" stroke-miterlimit="10"/>
<path d="M111.311 87.3622C113.058 83.9949 115.513 81.0481 118.507 78.7256" stroke="#FCC3FC" stroke-width="0.75" stroke-miterlimit="10"/>
<path d="M154.363 84.958C157.172 87.5276 159.391 90.68 160.863 94.196" stroke="#FCC3FC" stroke-width="0.75" stroke-miterlimit="10"/>
<path fill-rule="evenodd" clip-rule="evenodd" d="M209.558 98.1881C207.489 91.9405 207.867 85.1376 210.614 79.1587C216.059 68.0683 229.803 62.9681 241.389 65.0611C247.286 65.9646 252.74 68.7388 256.951 72.9773C261.162 77.2157 263.908 82.6955 264.788 88.6135C265.668 94.5315 264.634 100.577 261.839 105.863C259.044 111.149 254.634 115.398 249.256 117.987C232.897 125.686 214.26 112.31 209.558 98.1881Z" fill="#D7F4F4"/>
<path fill-rule="evenodd" clip-rule="evenodd" d="M150.337 69.1991C146.976 72.0945 144.405 75.7996 142.865 79.966C141.325 84.1323 140.867 88.6231 141.533 93.0159C142.335 97.871 144.46 102.409 147.673 106.128C150.886 109.848 155.062 112.603 159.739 114.09C164.661 115.544 169.889 115.599 174.84 114.248C179.791 112.897 184.271 110.194 187.78 106.44C194.736 99.2227 198.454 87.5068 194.328 78.0523C187.804 62.8721 163.265 58.5899 150.337 69.1991Z" fill="#D7F4F4"/>
<path fill-rule="evenodd" clip-rule="evenodd" d="M77.2481 72.0632C86.3151 63.4988 101.643 62.6087 112.7 70.0905C123.159 77.3077 128.34 90.7558 124.502 102.351C119.129 118.662 97.277 126.89 82.5012 118.157C67.0058 108.991 64.4632 84.1882 77.2481 72.0632Z" fill="#D7F4F4"/>
<path fill-rule="evenodd" clip-rule="evenodd" d="M212.247 94.557C210.179 88.2991 210.565 81.4863 213.326 75.5036C218.771 64.4372 232.515 59.313 244.077 61.406C250.015 62.2733 255.516 65.0362 259.766 69.2853C264.015 73.5344 266.787 79.0435 267.67 84.9963C268.553 90.949 267.5 97.0287 264.667 102.334C261.835 107.64 257.374 111.889 251.944 114.452C235.586 122.031 216.948 108.655 212.247 94.557Z" fill="#AFD9DB"/>
<path fill-rule="evenodd" clip-rule="evenodd" d="M152.948 64.9903C149.584 67.8776 147.01 71.578 145.469 75.7414C143.929 79.9049 143.473 84.3936 144.145 88.783C144.954 93.6495 147.093 98.1955 150.324 101.916C153.555 105.636 157.752 108.385 162.447 109.857C167.369 111.311 172.596 111.366 177.547 110.015C182.498 108.665 186.978 105.961 190.487 102.207C197.443 94.9898 201.161 83.2739 197.035 73.8193C190.415 58.6391 165.877 54.3569 152.948 64.9903Z" fill="#AFD9DB"/>
<path fill-rule="evenodd" clip-rule="evenodd" d="M80.368 68.4307C89.4349 59.8423 104.738 58.9521 115.82 66.458C126.278 73.6753 131.46 87.1233 127.622 98.719C122.249 115.03 100.397 123.257 85.6211 114.525C70.1257 105.335 67.5831 80.5557 80.368 68.4307Z" fill="#AFD9DB"/>
<path d="M97.5907 106.801C94.8958 106.809 92.2749 105.917 90.1412 104.266C88.0075 102.615 86.4823 100.299 85.8061 97.6822C85.1298 95.0658 85.341 92.2981 86.4064 89.8155C87.4717 87.3328 89.3306 85.2763 91.69 83.9702H91.8579C91.8766 84.0165 91.8766 84.0683 91.8579 84.1146L92.0738 86.8812C90.8747 87.7864 89.8987 88.9555 89.2209 90.2985C88.5431 91.6415 88.1815 93.1225 88.164 94.6276C88.1953 96.9452 89.083 99.1686 90.6552 100.867C92.2274 102.566 94.3722 103.619 96.6742 103.823C98.9762 104.026 101.272 103.366 103.116 101.97C104.96 100.573 106.222 98.5398 106.658 96.2635C106.668 96.2295 106.687 96.1985 106.712 96.1733C106.737 96.1481 106.768 96.1295 106.802 96.1192V96.1192C106.828 96.1064 106.856 96.0998 106.886 96.0998C106.915 96.0998 106.943 96.1064 106.97 96.1192L108.601 99.1745C107.729 101.399 106.216 103.312 104.255 104.671C102.294 106.029 99.9737 106.77 97.5907 106.801Z" fill="#F492D8"/>
<path d="M91.7824 84.164L91.9982 86.9306C90.6987 87.8407 89.6442 89.0595 88.9289 90.4781C88.2137 91.8967 87.86 93.4709 87.8995 95.0601C87.9389 96.6493 88.3703 98.2039 89.155 99.585C89.9398 100.966 91.0535 102.131 92.3966 102.975C93.7397 103.819 95.2704 104.316 96.8519 104.422C98.4334 104.528 100.016 104.239 101.459 103.582C102.903 102.924 104.161 101.919 105.122 100.654C106.083 99.3901 106.716 97.9068 106.966 96.337L108.597 99.3923C107.854 101.163 106.699 102.73 105.228 103.962C103.758 105.193 102.014 106.053 100.144 106.47C98.2741 106.887 96.3315 106.848 94.4793 106.358C92.627 105.867 90.9189 104.938 89.498 103.65C88.077 102.361 86.9845 100.75 86.312 98.9504C85.6395 97.1513 85.4065 95.2167 85.6325 93.3087C85.8586 91.4007 86.537 89.5747 87.6112 87.9837C88.6853 86.3927 90.1238 85.0829 91.8063 84.164H91.7824ZM91.8063 83.8031C91.7442 83.7811 91.6766 83.7811 91.6145 83.8031C89.9093 84.7597 88.4557 86.1098 87.374 87.7417C86.2923 89.3735 85.6136 91.2403 85.3941 93.1874C85.1746 95.1346 85.4205 97.1062 86.1115 98.9391C86.8025 100.772 87.9188 102.414 89.3679 103.728C90.8171 105.042 92.5575 105.992 94.4451 106.497C96.3327 107.003 98.3133 107.051 100.223 106.637C102.133 106.222 103.916 105.358 105.427 104.115C106.937 102.872 108.131 101.286 108.909 99.4885C108.932 99.4397 108.944 99.3863 108.944 99.3322C108.944 99.278 108.932 99.2246 108.909 99.1758L107.278 96.1205C107.238 96.0782 107.19 96.0454 107.136 96.0245C107.082 96.0037 107.024 95.9954 106.966 96.0002C106.895 96.0136 106.829 96.0483 106.777 96.0998C106.726 96.1513 106.691 96.2173 106.678 96.2889C106.409 97.7607 105.785 99.144 104.86 100.318C103.935 101.492 102.738 102.421 101.372 103.024C100.007 103.627 98.5152 103.886 97.0272 103.778C95.5392 103.669 94.1003 103.197 92.8361 102.403C91.572 101.608 90.5209 100.515 89.7749 99.2195C89.0288 97.9237 88.6104 96.4645 88.5561 94.9692C88.5019 93.4739 88.8134 91.988 89.4636 90.6413C90.1138 89.2945 91.0828 88.1279 92.2861 87.2433C92.3327 87.206 92.3699 87.1583 92.3949 87.104C92.4199 87.0497 92.4319 86.9903 92.43 86.9306L92.2141 84.164C92.2089 84.1036 92.1886 84.0455 92.155 83.995C92.1215 83.9445 92.0758 83.9034 92.0222 83.8753C91.9678 83.857 91.9088 83.857 91.8543 83.8753L91.8063 83.8031Z" fill="#F492D8"/>
<path d="M97.5907 106.801C94.8958 106.809 92.2749 105.917 90.1412 104.266C88.0075 102.615 86.4823 100.299 85.8061 97.6822C85.1298 95.0658 85.341 92.2981 86.4064 89.8155C87.4717 87.3328 89.3306 85.2763 91.69 83.9702H91.8579C91.8766 84.0165 91.8766 84.0683 91.8579 84.1146L92.0738 86.8812C90.8747 87.7864 89.8987 88.9555 89.2209 90.2985C88.5431 91.6415 88.1815 93.1225 88.164 94.6276C88.1953 96.9452 89.083 99.1686 90.6552 100.867C92.2274 102.566 94.3722 103.619 96.6742 103.823C98.9762 104.026 101.272 103.366 103.116 101.97C104.96 100.573 106.222 98.5398 106.658 96.2635C106.668 96.2295 106.687 96.1985 106.712 96.1733C106.737 96.1481 106.768 96.1295 106.802 96.1192V96.1192C106.828 96.1064 106.856 96.0998 106.886 96.0998C106.915 96.0998 106.943 96.1064 106.97 96.1192L108.601 99.1745C107.729 101.399 106.216 103.312 104.255 104.671C102.294 106.029 99.9737 106.77 97.5907 106.801Z" fill="#F492D8"/>
<path d="M91.7824 84.164L91.9982 86.9306C90.6987 87.8407 89.6442 89.0595 88.9289 90.4781C88.2137 91.8967 87.86 93.4709 87.8995 95.0601C87.9389 96.6493 88.3703 98.2039 89.155 99.585C89.9398 100.966 91.0535 102.131 92.3966 102.975C93.7397 103.819 95.2704 104.316 96.8519 104.422C98.4334 104.528 100.016 104.239 101.459 103.582C102.903 102.924 104.161 101.919 105.122 100.654C106.083 99.3901 106.716 97.9068 106.966 96.337L108.597 99.3923C107.854 101.163 106.699 102.73 105.228 103.962C103.758 105.193 102.014 106.053 100.144 106.47C98.2741 106.887 96.3315 106.848 94.4793 106.358C92.627 105.867 90.9189 104.938 89.498 103.65C88.077 102.361 86.9845 100.75 86.312 98.9504C85.6395 97.1513 85.4065 95.2167 85.6325 93.3087C85.8586 91.4007 86.537 89.5747 87.6112 87.9837C88.6853 86.3927 90.1238 85.0829 91.8063 84.164H91.7824ZM91.8063 83.8031C91.7442 83.7811 91.6766 83.7811 91.6145 83.8031C89.9093 84.7597 88.4557 86.1098 87.374 87.7417C86.2923 89.3735 85.6136 91.2403 85.3941 93.1874C85.1746 95.1346 85.4205 97.1062 86.1115 98.9391C86.8025 100.772 87.9188 102.414 89.3679 103.728C90.8171 105.042 92.5575 105.992 94.4451 106.497C96.3327 107.003 98.3133 107.051 100.223 106.637C102.133 106.222 103.916 105.358 105.427 104.115C106.937 102.872 108.131 101.286 108.909 99.4885C108.932 99.4397 108.944 99.3863 108.944 99.3322C108.944 99.278 108.932 99.2246 108.909 99.1758L107.278 96.1205C107.238 96.0782 107.19 96.0454 107.136 96.0245C107.082 96.0037 107.024 95.9954 106.966 96.0002C106.895 96.0136 106.829 96.0483 106.777 96.0998C106.726 96.1513 106.691 96.2173 106.678 96.2889C106.409 97.7607 105.785 99.144 104.86 100.318C103.935 101.492 102.738 102.421 101.372 103.024C100.007 103.627 98.5152 103.886 97.0272 103.778C95.5392 103.669 94.1003 103.197 92.8361 102.403C91.572 101.608 90.5209 100.515 89.7749 99.2195C89.0288 97.9237 88.6104 96.4645 88.5561 94.9692C88.5019 93.4739 88.8134 91.988 89.4636 90.6413C90.1138 89.2945 91.0828 88.1279 92.2861 87.2433C92.3327 87.206 92.3699 87.1583 92.3949 87.104C92.4199 87.0497 92.4319 86.9903 92.43 86.9306L92.2141 84.164C92.2089 84.1036 92.1886 84.0455 92.155 83.995C92.1215 83.9445 92.0758 83.9034 92.0222 83.8753C91.9678 83.857 91.9088 83.857 91.8543 83.8753L91.8063 83.8031Z" fill="#F492D8"/>
<path fill-rule="evenodd" clip-rule="evenodd" d="M111.764 102.856H111.644L106.607 91.1878L94.4696 91.5727C94.4251 91.5727 94.3824 91.5549 94.3509 91.5234C94.3194 91.4918 94.3017 91.4489 94.3017 91.4043L92.3588 75.5264V74.8288L91.927 73.6018V72.2787L92.3108 71.0999L93.0784 70.1857L94.0858 69.7045L95.1412 69.5361L96.3645 69.7045L97.252 70.2579L97.8757 71.2202L98.2835 72.3268V73.3372L98.0676 74.2033L97.6119 74.925L96.9402 75.4783L96.1966 75.8392H95.6929L96.5324 82.7917L104.952 82.5752C104.952 82.5752 105.12 82.5752 105.144 82.7677V85.4381C105.144 85.4827 105.126 85.5255 105.094 85.5571C105.063 85.5887 105.02 85.6065 104.976 85.6065L96.8923 85.9914L97.1081 88.3971L108.694 87.9881L113.179 98.6696L117.257 96.9375H117.401C117.411 96.9769 117.411 97.0183 117.401 97.0578L118.456 99.6559C118.472 99.6716 118.485 99.6904 118.494 99.711C118.502 99.7317 118.507 99.7538 118.507 99.7762C118.507 99.7986 118.502 99.8208 118.494 99.8415C118.485 99.8621 118.472 99.8809 118.456 99.8965L111.764 102.832V102.856Z" fill="#DB7028"/>
<path d="M95.1394 69.7046L96.3147 69.873L97.1303 70.4263L97.706 71.3165L98.0898 72.375V73.3373L97.8739 74.1552L97.4421 74.8288L96.7945 75.3581L96.0989 75.6708H95.4752L96.3147 82.888H104.926V85.5584L96.6266 85.9433L96.9144 88.6378L108.644 88.2288L113.033 98.9584L117.279 97.1541L118.335 99.7763L111.762 102.687L106.773 91.1878L94.4677 91.4525L92.5488 75.5746V74.8288L92.0931 73.5538V72.2788L92.4769 71.1481L93.2205 70.306L94.1799 69.873L95.1634 69.7046H95.1394ZM95.1634 69.3438L94.1559 69.5122L93.2205 69.9452H93.0765L92.3569 70.7872L91.9731 71.9179V73.1929L92.4049 74.4199V74.9972L94.3238 90.8992C94.3269 90.9434 94.3386 90.9867 94.3583 91.0264C94.3781 91.0661 94.4055 91.1015 94.4389 91.1305C94.4724 91.1596 94.5112 91.1817 94.5532 91.1957C94.5952 91.2097 94.6395 91.2152 94.6837 91.2119V91.2119L106.677 90.9473L111.474 102.35C111.529 102.432 111.603 102.498 111.69 102.543H111.834L118.574 99.5839C118.618 99.5681 118.658 99.5434 118.692 99.5114C118.726 99.4793 118.752 99.4405 118.77 99.3976C118.788 99.3546 118.797 99.3083 118.797 99.2617C118.796 99.2151 118.786 99.1692 118.766 99.1268L117.711 96.5045C117.711 96.5045 117.711 96.3361 117.519 96.3121H117.375H117.231L113.321 97.948L109.076 87.5552C109.043 87.4932 108.995 87.4408 108.936 87.4029C108.877 87.365 108.81 87.3429 108.74 87.3387V87.3387L97.3462 87.7236L97.1543 85.7509L105.046 85.39C105.095 85.3901 105.144 85.3801 105.189 85.3604C105.235 85.3408 105.275 85.3121 105.309 85.276C105.343 85.2399 105.369 85.1972 105.385 85.1506C105.402 85.104 105.409 85.0545 105.406 85.0051V82.3347C105.4 82.2433 105.359 82.1575 105.292 82.095C105.225 82.0324 105.137 81.9977 105.046 81.9979V81.9979H96.7465L96.0029 75.5506H96.3627L97.0823 75.2138L97.706 74.7085L98.1377 74.0349L98.3536 73.241V72.2788L97.9698 71.2202L97.3701 70.2339H97.2502L96.4347 69.6806H96.2908L95.1154 69.5122L95.1634 69.3438Z" fill="#DB7028"/>
<path fill-rule="evenodd" clip-rule="evenodd" d="M111.764 102.856H111.644L106.607 91.1878L94.4696 91.5727C94.4251 91.5727 94.3824 91.5549 94.3509 91.5234C94.3194 91.4918 94.3017 91.4489 94.3017 91.4043L92.3588 75.5264V74.8288L91.927 73.6018V72.2787L92.3108 71.0999L93.0784 70.1857L94.0858 69.7045L95.1412 69.5361L96.3645 69.7045L97.252 70.2579L97.8757 71.2202L98.2835 72.3268V73.3372L98.0676 74.2033L97.6119 74.925L96.9402 75.4783L96.1966 75.8392H95.6929L96.5324 82.7917L104.952 82.5752C104.952 82.5752 105.12 82.5752 105.144 82.7677V85.4381C105.144 85.4827 105.126 85.5255 105.094 85.5571C105.063 85.5887 105.02 85.6065 104.976 85.6065L96.8923 85.9914L97.1081 88.3971L108.694 87.9881L113.179 98.6696L117.257 96.9375H117.401C117.411 96.9769 117.411 97.0183 117.401 97.0578L118.456 99.6559C118.472 99.6716 118.485 99.6904 118.494 99.711C118.502 99.7317 118.507 99.7538 118.507 99.7762C118.507 99.7986 118.502 99.8208 118.494 99.8415C118.485 99.8621 118.472 99.8809 118.456 99.8965L111.764 102.832V102.856Z" fill="#DB7028"/>
<path d="M95.1394 69.7046L96.3147 69.873L97.1303 70.4263L97.706 71.3165L98.0898 72.375V73.3373L97.8739 74.1552L97.4421 74.8288L96.7945 75.3581L96.0989 75.6708H95.4752L96.3147 82.888H104.926V85.5584L96.6266 85.9433L96.9144 88.6378L108.644 88.2288L113.033 98.9584L117.279 97.1541L118.335 99.7763L111.762 102.687L106.773 91.1878L94.4677 91.4525L92.5488 75.5746V74.8288L92.0931 73.5538V72.2788L92.4769 71.1481L93.2205 70.306L94.1799 69.873L95.1634 69.7046H95.1394ZM95.1634 69.3438L94.1559 69.5122L93.2205 69.9452H93.0765L92.3569 70.7872L91.9731 71.9179V73.1929L92.4049 74.4199V74.9972L94.3238 90.8992C94.3269 90.9434 94.3386 90.9867 94.3583 91.0264C94.3781 91.0661 94.4055 91.1015 94.4389 91.1305C94.4724 91.1596 94.5112 91.1817 94.5532 91.1957C94.5952 91.2097 94.6395 91.2152 94.6837 91.2119V91.2119L106.677 90.9473L111.474 102.35C111.529 102.432 111.603 102.498 111.69 102.543H111.834L118.574 99.5839C118.618 99.5681 118.658 99.5434 118.692 99.5114C118.726 99.4793 118.752 99.4405 118.77 99.3976C118.788 99.3546 118.797 99.3083 118.797 99.2617C118.796 99.2151 118.786 99.1692 118.766 99.1268L117.711 96.5045C117.711 96.5045 117.711 96.3361 117.519 96.3121H117.375H117.231L113.321 97.948L109.076 87.5552C109.043 87.4932 108.995 87.4408 108.936 87.4029C108.877 87.365 108.81 87.3429 108.74 87.3387V87.3387L97.3462 87.7236L97.1543 85.7509L105.046 85.39C105.095 85.3901 105.144 85.3801 105.189 85.3604C105.235 85.3408 105.275 85.3121 105.309 85.276C105.343 85.2399 105.369 85.1972 105.385 85.1506C105.402 85.104 105.409 85.0545 105.406 85.0051V82.3347C105.4 82.2433 105.359 82.1575 105.292 82.095C105.225 82.0324 105.137 81.9977 105.046 81.9979V81.9979H96.7465L96.0029 75.5506H96.3627L97.0823 75.2138L97.706 74.7085L98.1377 74.0349L98.3536 73.241V72.2788L97.9698 71.2202L97.3701 70.2339H97.2502L96.4347 69.6806H96.2908L95.1154 69.5122L95.1634 69.3438Z" fill="#DB7028"/>
<path d="M168.256 69.6814C168.251 69.0571 168.431 68.4455 168.774 67.924C169.116 67.4026 169.605 66.9949 170.179 66.7527C170.752 66.5105 171.385 66.4446 171.996 66.5635C172.607 66.6824 173.169 66.9806 173.611 67.4204C174.053 67.8602 174.355 68.4217 174.478 69.0336C174.601 69.6456 174.54 70.2805 174.303 70.8578C174.066 71.435 173.663 71.9287 173.146 72.276C172.629 72.6234 172.02 72.8089 171.398 72.8089C170.569 72.8089 169.773 72.4802 169.184 71.8943C168.596 71.3085 168.262 70.5131 168.256 69.6814V69.6814Z" fill="#DB7028" stroke="#DB7028" stroke-width="0.25" stroke-miterlimit="10"/>
<path d="M168.256 69.6814C168.251 69.0571 168.431 68.4455 168.774 67.924C169.116 67.4026 169.605 66.9949 170.179 66.7527C170.752 66.5105 171.385 66.4446 171.996 66.5635C172.607 66.6824 173.169 66.9806 173.611 67.4204C174.053 67.8602 174.355 68.4217 174.478 69.0336C174.601 69.6456 174.54 70.2805 174.303 70.8578C174.066 71.435 173.663 71.9287 173.146 72.276C172.629 72.6234 172.02 72.8089 171.398 72.8089C170.569 72.8089 169.773 72.4802 169.184 71.8943C168.596 71.3085 168.262 70.5131 168.256 69.6814V69.6814Z" fill="#DB7028" stroke="#DB7028" stroke-width="0.25" stroke-linejoin="round"/>
<path d="M186.006 74.7578H156.623V76.2253H186.006V74.7578Z" fill="#D8600E" stroke="#DB7028" stroke-width="0.75" stroke-linejoin="round"/>
<path d="M174.942 76.2246H167.866V88.1571H174.942V76.2246Z" fill="#DB7028" stroke="#DB7028" stroke-width="0.75" stroke-linejoin="round"/>
<path d="M167.873 77.9542L167.639 103.31L169.103 103.323L169.336 77.9678L167.873 77.9542Z" fill="#D8600E" stroke="#DB7028" stroke-width="0.75" stroke-linecap="round" stroke-linejoin="round"/>
<path d="M174.871 77.6811L173.408 77.6831L173.444 103.641L174.907 103.639L174.871 77.6811Z" fill="#D8600E" stroke="#DB7028" stroke-width="0.75" stroke-linecap="round" stroke-linejoin="round"/>
<path d="M168.033 93.1382H169.592V96.8671H167.314V93.1382H168.033Z" fill="#F492D8" stroke="#F492D8" stroke-width="0.75" stroke-linejoin="round"/>
<path d="M244.866 76.9469C244.866 76.3236 245.051 75.7143 245.396 75.196C245.741 74.6778 246.232 74.2738 246.806 74.0353C247.38 73.7968 248.012 73.7344 248.622 73.856C249.231 73.9776 249.791 74.2777 250.231 74.7185C250.67 75.1592 250.969 75.7208 251.09 76.3321C251.212 76.9434 251.149 77.5771 250.912 78.153C250.674 78.7288 250.271 79.221 249.754 79.5673C249.238 79.9136 248.63 80.0984 248.009 80.0984C247.595 80.1016 247.185 80.0223 246.802 79.8651C246.42 79.7078 246.072 79.4758 245.78 79.1825C245.487 78.8892 245.256 78.5405 245.099 78.1567C244.942 77.7729 244.863 77.3617 244.866 76.9469V76.9469Z" fill="#DB7028" stroke="#DB7028" stroke-width="0.15" stroke-miterlimit="10"/>
<path d="M244.866 76.9469C244.866 76.3236 245.051 75.7143 245.396 75.196C245.741 74.6778 246.232 74.2738 246.806 74.0353C247.38 73.7968 248.012 73.7344 248.622 73.856C249.231 73.9776 249.791 74.2777 250.231 74.7185C250.67 75.1592 250.969 75.7208 251.09 76.3321C251.212 76.9434 251.149 77.5771 250.912 78.153C250.674 78.7288 250.271 79.221 249.754 79.5673C249.238 79.9136 248.63 80.0984 248.009 80.0984C247.595 80.1016 247.185 80.0223 246.802 79.8651C246.42 79.7078 246.072 79.4758 245.78 79.1825C245.487 78.8892 245.256 78.5405 245.099 78.1567C244.942 77.7729 244.863 77.3617 244.866 76.9469V76.9469Z" fill="#DB7028" stroke="#DB7028" stroke-width="0.15" stroke-linejoin="round"/>
<path d="M229.851 86.3772L235.871 80.1945L243.523 80.0742L249.376 85.7758L254.245 80.7719" stroke="#DB7028" stroke-width="1.5" stroke-linecap="round" stroke-linejoin="round"/>
<path d="M240.431 80.1222L232.707 88.3498L236.401 92.0787L244.869 83.0813L245.42 82.4798L243.046 80.0981L240.431 80.1222Z" fill="#DB7028" stroke="#DB7028" stroke-width="0.6" stroke-linejoin="round"/>
<path d="M219.82 93.3477L229.631 93.2034L232.245 90.509L233.325 89.4023" stroke="#DB7028" stroke-width="2" stroke-linecap="round" stroke-linejoin="round"/>
<path d="M237.421 91.0073L240.622 93.867L239.158 102.242" stroke="#DB7028" stroke-width="2" stroke-linecap="round" stroke-linejoin="round"/>
<path d="M61.8435 107.018L77.051 113.658L85.2065 122.439L102.045 121.693L110.776 129.199L121.019 124.123" stroke="#FCB854" stroke-width="1.2" stroke-miterlimit="10"/>
<path d="M59.4018 106.393C59.5375 105.946 59.7998 105.549 60.1568 105.249C60.5137 104.95 60.9498 104.761 61.412 104.705C61.8742 104.65 62.3424 104.731 62.7596 104.938C63.1768 105.145 63.525 105.469 63.7617 105.871C63.9983 106.273 64.1133 106.735 64.0925 107.202C64.0718 107.668 63.9162 108.118 63.6447 108.497C63.3733 108.877 62.9977 109.168 62.5637 109.337C62.1298 109.506 61.6562 109.544 61.2008 109.448C60.8753 109.379 60.5676 109.243 60.2973 109.048C60.027 108.854 59.8001 108.605 59.6309 108.318C59.4617 108.03 59.3539 107.711 59.3145 107.379C59.2751 107.048 59.3048 106.712 59.4018 106.393V106.393Z" fill="#C1E0DF"/>
<path d="M59.4018 106.393C59.5375 105.946 59.7998 105.549 60.1568 105.249C60.5137 104.95 60.9498 104.761 61.412 104.705C61.8742 104.65 62.3424 104.731 62.7596 104.938C63.1768 105.145 63.525 105.469 63.7617 105.871C63.9983 106.273 64.1133 106.735 64.0925 107.202C64.0718 107.668 63.9162 108.118 63.6447 108.497C63.3733 108.877 62.9977 109.168 62.5637 109.337C62.1298 109.506 61.6562 109.544 61.2008 109.448C60.8753 109.379 60.5676 109.243 60.2973 109.048C60.027 108.854 59.8001 108.605 59.6309 108.318C59.4617 108.03 59.3539 107.711 59.3145 107.379C59.2751 107.048 59.3048 106.712 59.4018 106.393V106.393Z" fill="#C1E0DF"/>
<path d="M74.6342 113.009C74.806 112.371 75.2234 111.828 75.7947 111.498C76.366 111.169 77.0444 111.081 77.6805 111.253C78.3167 111.425 78.8586 111.844 79.187 112.417C79.5154 112.99 79.6033 113.67 79.4316 114.308C79.3465 114.624 79.2003 114.92 79.0011 115.18C78.802 115.439 78.5539 115.656 78.2711 115.819C77.9882 115.982 77.676 116.088 77.3525 116.13C77.0289 116.172 76.7003 116.15 76.3853 116.065C76.0703 115.979 75.7751 115.833 75.5166 115.633C75.2581 115.433 75.0414 115.184 74.8788 114.901C74.7162 114.617 74.6109 114.304 74.569 113.979C74.527 113.655 74.5492 113.325 74.6342 113.009V113.009Z" fill="#C1E0DF"/>
<path d="M74.6342 113.009C74.806 112.371 75.2234 111.828 75.7947 111.498C76.366 111.169 77.0444 111.081 77.6805 111.253C78.3167 111.425 78.8586 111.844 79.187 112.417C79.5154 112.99 79.6033 113.67 79.4316 114.308C79.3465 114.624 79.2003 114.92 79.0011 115.18C78.802 115.439 78.5539 115.656 78.2711 115.819C77.9882 115.982 77.676 116.088 77.3525 116.13C77.0289 116.172 76.7003 116.15 76.3853 116.065C76.0703 115.979 75.7751 115.833 75.5166 115.633C75.2581 115.433 75.0414 115.184 74.8788 114.901C74.7162 114.617 74.6109 114.304 74.569 113.979C74.527 113.655 74.5492 113.325 74.6342 113.009V113.009Z" fill="#C1E0DF"/>
<path d="M82.7903 121.813C82.9272 121.366 83.191 120.968 83.5494 120.669C83.9078 120.37 84.3453 120.183 84.8085 120.129C85.2716 120.076 85.7403 120.159 86.1572 120.368C86.574 120.577 86.9211 120.904 87.1558 121.308C87.3905 121.712 87.5027 122.176 87.4787 122.643C87.4548 123.11 87.2956 123.559 87.0208 123.937C86.746 124.315 86.3674 124.604 85.9313 124.769C85.4952 124.935 85.0205 124.969 84.5653 124.868C84.2419 124.796 83.9368 124.658 83.6693 124.462C83.4017 124.266 83.1775 124.017 83.0107 123.73C82.844 123.443 82.7383 123.125 82.7004 122.795C82.6624 122.465 82.693 122.13 82.7903 121.813Z" fill="#C1E0DF"/>
<path d="M82.7903 121.813C82.9272 121.366 83.191 120.968 83.5494 120.669C83.9078 120.37 84.3453 120.183 84.8085 120.129C85.2716 120.076 85.7403 120.159 86.1572 120.368C86.574 120.577 86.9211 120.904 87.1558 121.308C87.3905 121.712 87.5027 122.176 87.4787 122.643C87.4548 123.11 87.2956 123.559 87.0208 123.937C86.746 124.315 86.3674 124.604 85.9313 124.769C85.4952 124.935 85.0205 124.969 84.5653 124.868C84.2419 124.796 83.9368 124.658 83.6693 124.462C83.4017 124.266 83.1775 124.017 83.0107 123.73C82.844 123.443 82.7383 123.125 82.7004 122.795C82.6624 122.465 82.693 122.13 82.7903 121.813Z" fill="#C1E0DF"/>
<path d="M118.598 123.473C118.739 123.028 119.005 122.635 119.365 122.34C119.725 122.044 120.163 121.86 120.625 121.81C121.087 121.76 121.554 121.845 121.969 122.056C122.383 122.267 122.728 122.594 122.961 122.998C123.193 123.401 123.304 123.864 123.279 124.33C123.255 124.795 123.095 125.244 122.821 125.62C122.547 125.997 122.17 126.285 121.735 126.451C121.301 126.616 120.827 126.651 120.373 126.552C120.047 126.481 119.739 126.342 119.47 126.145C119.2 125.947 118.974 125.696 118.807 125.406C118.64 125.116 118.535 124.794 118.499 124.461C118.463 124.129 118.497 123.792 118.598 123.473Z" fill="#C1E0DF"/>
<path d="M118.598 123.473C118.739 123.028 119.005 122.635 119.365 122.34C119.725 122.044 120.163 121.86 120.625 121.81C121.087 121.76 121.554 121.845 121.969 122.056C122.383 122.267 122.728 122.594 122.961 122.998C123.193 123.401 123.304 123.864 123.279 124.33C123.255 124.795 123.095 125.244 122.821 125.62C122.547 125.997 122.17 126.285 121.735 126.451C121.301 126.616 120.827 126.651 120.373 126.552C120.047 126.481 119.739 126.342 119.47 126.145C119.2 125.947 118.974 125.696 118.807 125.406C118.64 125.116 118.535 124.794 118.499 124.461C118.463 124.129 118.497 123.792 118.598 123.473Z" fill="#C1E0DF"/>
<path d="M108.358 128.573C108.499 128.129 108.766 127.735 109.126 127.44C109.485 127.145 109.923 126.961 110.385 126.911C110.847 126.86 111.314 126.946 111.729 127.156C112.144 127.367 112.488 127.694 112.721 128.098C112.954 128.502 113.064 128.965 113.04 129.43C113.015 129.896 112.856 130.344 112.582 130.721C112.307 131.097 111.93 131.386 111.495 131.551C111.061 131.717 110.588 131.752 110.133 131.653C109.807 131.581 109.499 131.443 109.23 131.245C108.96 131.048 108.735 130.796 108.568 130.506C108.401 130.216 108.296 129.895 108.26 129.562C108.224 129.229 108.257 128.892 108.358 128.573Z" fill="#C1E0DF"/>
<path d="M108.358 128.573C108.499 128.129 108.766 127.735 109.126 127.44C109.485 127.145 109.923 126.961 110.385 126.911C110.847 126.86 111.314 126.946 111.729 127.156C112.144 127.367 112.488 127.694 112.721 128.098C112.954 128.502 113.064 128.965 113.04 129.43C113.015 129.896 112.856 130.344 112.582 130.721C112.307 131.097 111.93 131.386 111.495 131.551C111.061 131.717 110.588 131.752 110.133 131.653C109.807 131.581 109.499 131.443 109.23 131.245C108.96 131.048 108.735 130.796 108.568 130.506C108.401 130.216 108.296 129.895 108.26 129.562C108.224 129.229 108.257 128.892 108.358 128.573Z" fill="#C1E0DF"/>
<path d="M99.6261 121.043C99.767 120.599 100.034 120.205 100.393 119.91C100.753 119.615 101.191 119.431 101.653 119.38C102.115 119.33 102.582 119.415 102.997 119.626C103.411 119.837 103.756 120.164 103.989 120.568C104.221 120.972 104.332 121.434 104.307 121.9C104.283 122.366 104.123 122.814 103.849 123.191C103.575 123.567 103.198 123.856 102.763 124.021C102.329 124.187 101.855 124.222 101.401 124.122C100.76 123.948 100.214 123.526 99.8816 122.949C99.5492 122.373 99.4573 121.687 99.6261 121.043V121.043Z" fill="#C1E0DF"/>
<path d="M99.6261 121.043C99.767 120.599 100.034 120.205 100.393 119.91C100.753 119.615 101.191 119.431 101.653 119.38C102.115 119.33 102.582 119.415 102.997 119.626C103.411 119.837 103.756 120.164 103.989 120.568C104.221 120.972 104.332 121.434 104.307 121.9C104.283 122.366 104.123 122.814 103.849 123.191C103.575 123.567 103.198 123.856 102.763 124.021C102.329 124.187 101.855 124.222 101.401 124.122C100.76 123.948 100.214 123.526 99.8816 122.949C99.5492 122.373 99.4573 121.687 99.6261 121.043V121.043Z" fill="#C1E0DF"/>
<path d="M179.457 54.7893L192.554 47.7886L206.202 56.4011L225.991 52.0467L242.398 64.4603" stroke="#F9C5F9" stroke-width="1.2" stroke-miterlimit="10"/>
<path d="M176.361 54.2367C176.402 53.8026 176.532 53.3816 176.743 53.0004C176.954 52.6192 177.242 52.2862 177.588 52.0222C177.934 51.7583 178.331 51.5693 178.753 51.4671C179.176 51.365 179.615 51.3519 180.043 51.4287C180.471 51.5055 180.879 51.6706 181.24 51.9134C181.601 52.1563 181.908 52.4717 182.141 52.8396C182.374 53.2076 182.529 53.6201 182.595 54.051C182.662 54.482 182.638 54.9221 182.526 55.3434C182.323 56.1069 181.841 56.7661 181.176 57.1902C180.511 57.6143 179.712 57.7724 178.936 57.6331C178.16 57.4939 177.465 57.0675 176.988 56.4384C176.511 55.8093 176.288 55.0235 176.361 54.2367V54.2367Z" fill="#D7F4F4"/>
<path d="M176.361 54.2367C176.402 53.8026 176.532 53.3816 176.743 53.0004C176.954 52.6192 177.242 52.2862 177.588 52.0222C177.934 51.7583 178.331 51.5693 178.753 51.4671C179.176 51.365 179.615 51.3519 180.043 51.4287C180.471 51.5055 180.879 51.6706 181.24 51.9134C181.601 52.1563 181.908 52.4717 182.141 52.8396C182.374 53.2076 182.529 53.6201 182.595 54.051C182.662 54.482 182.638 54.9221 182.526 55.3434C182.323 56.1069 181.841 56.7661 181.176 57.1902C180.511 57.6143 179.712 57.7724 178.936 57.6331C178.16 57.4939 177.465 57.0675 176.988 56.4384C176.511 55.8093 176.288 55.0235 176.361 54.2367V54.2367Z" fill="#D7F4F4"/>
<path d="M189.453 47.2356C189.605 46.4154 190.073 45.6882 190.755 45.211C191.437 44.7338 192.28 44.545 193.099 44.6855C193.711 44.795 194.277 45.084 194.725 45.516C195.173 45.9479 195.483 46.5033 195.616 47.1121C195.749 47.7208 195.7 48.3555 195.473 48.9359C195.247 49.5164 194.854 50.0164 194.344 50.3729C193.835 50.7294 193.231 50.9264 192.61 50.9388C191.989 50.9512 191.377 50.7787 190.854 50.4429C190.33 50.1071 189.918 49.6231 189.669 49.0522C189.419 48.4813 189.345 47.8491 189.453 47.2356V47.2356Z" fill="#D7F4F4"/>
<path d="M189.453 47.2356C189.605 46.4154 190.073 45.6882 190.755 45.211C191.437 44.7338 192.28 44.545 193.099 44.6855C193.711 44.795 194.277 45.084 194.725 45.516C195.173 45.9479 195.483 46.5033 195.616 47.1121C195.749 47.7208 195.7 48.3555 195.473 48.9359C195.247 49.5164 194.854 50.0164 194.344 50.3729C193.835 50.7294 193.231 50.9264 192.61 50.9388C191.989 50.9512 191.377 50.7787 190.854 50.4429C190.33 50.1071 189.918 49.6231 189.669 49.0522C189.419 48.4813 189.345 47.8491 189.453 47.2356V47.2356Z" fill="#D7F4F4"/>
<path d="M203.106 55.8485C203.216 55.235 203.504 54.6677 203.934 54.2184C204.365 53.7691 204.919 53.4579 205.526 53.3243C206.133 53.1906 206.766 53.2405 207.344 53.4675C207.923 53.6945 208.422 54.0886 208.777 54.5998C209.133 55.111 209.329 55.7164 209.341 56.3396C209.354 56.9627 209.182 57.5755 208.847 58.1005C208.512 58.6256 208.029 59.0392 207.46 59.2893C206.891 59.5393 206.261 59.6145 205.649 59.5052C205.242 59.4327 204.854 59.2805 204.507 59.0574C204.159 58.8344 203.858 58.5448 203.622 58.2052C203.386 57.8656 203.219 57.4827 203.13 57.0783C203.042 56.674 203.034 56.2561 203.106 55.8485V55.8485Z" fill="#D7F4F4"/>
<path d="M203.106 55.8485C203.216 55.235 203.504 54.6677 203.934 54.2184C204.365 53.7691 204.919 53.4579 205.526 53.3243C206.133 53.1906 206.766 53.2405 207.344 53.4675C207.923 53.6945 208.422 54.0886 208.777 54.5998C209.133 55.111 209.329 55.7164 209.341 56.3396C209.354 56.9627 209.182 57.5755 208.847 58.1005C208.512 58.6256 208.029 59.0392 207.46 59.2893C206.891 59.5393 206.261 59.6145 205.649 59.5052C205.242 59.4327 204.854 59.2805 204.507 59.0574C204.159 58.8344 203.858 58.5448 203.622 58.2052C203.386 57.8656 203.219 57.4827 203.13 57.0783C203.042 56.674 203.034 56.2561 203.106 55.8485V55.8485Z" fill="#D7F4F4"/>
<path d="M222.893 51.4929C223.096 50.7293 223.577 50.0702 224.242 49.6461C224.907 49.222 225.707 49.0639 226.482 49.2031C227.258 49.3424 227.953 49.7688 228.43 50.3978C228.907 51.0269 229.131 51.8127 229.057 52.5995C229.017 53.0337 228.887 53.4546 228.675 53.8358C228.464 54.217 228.177 54.5501 227.831 54.814C227.484 55.0779 227.088 55.267 226.665 55.3691C226.242 55.4713 225.803 55.4844 225.375 55.4075C224.947 55.3307 224.54 55.1656 224.179 54.9228C223.817 54.6799 223.511 54.3646 223.277 53.9966C223.044 53.6287 222.889 53.2162 222.823 52.7852C222.757 52.3542 222.781 51.9142 222.893 51.4929V51.4929Z" fill="#D7F4F4"/>
<path d="M222.893 51.4929C223.096 50.7293 223.577 50.0702 224.242 49.6461C224.907 49.222 225.707 49.0639 226.482 49.2031C227.258 49.3424 227.953 49.7688 228.43 50.3978C228.907 51.0269 229.131 51.8127 229.057 52.5995C229.017 53.0337 228.887 53.4546 228.675 53.8358C228.464 54.217 228.177 54.5501 227.831 54.814C227.484 55.0779 227.088 55.267 226.665 55.3691C226.242 55.4713 225.803 55.4844 225.375 55.4075C224.947 55.3307 224.54 55.1656 224.179 54.9228C223.817 54.6799 223.511 54.3646 223.277 53.9966C223.044 53.6287 222.889 53.2162 222.823 52.7852C222.757 52.3542 222.781 51.9142 222.893 51.4929V51.4929Z" fill="#D7F4F4"/>
<path d="M239.299 63.9071C239.34 63.473 239.47 63.052 239.681 62.6708C239.892 62.2897 240.18 61.9566 240.526 61.6926C240.872 61.4287 241.269 61.2397 241.691 61.1375C242.114 61.0354 242.553 61.0223 242.981 61.0991C243.409 61.1759 243.817 61.341 244.178 61.5839C244.539 61.8267 244.846 62.1421 245.079 62.51C245.312 62.878 245.467 63.2905 245.533 63.7214C245.599 64.1524 245.576 64.5925 245.464 65.0138C245.261 65.7773 244.779 66.4365 244.114 66.8606C243.449 67.2847 242.65 67.4428 241.874 67.3035C241.098 67.1643 240.403 66.7379 239.926 66.1088C239.449 65.4798 239.226 64.694 239.299 63.9071V63.9071Z" fill="#D7F4F4"/>
<path d="M239.299 63.9071C239.34 63.473 239.47 63.052 239.681 62.6708C239.892 62.2897 240.18 61.9566 240.526 61.6926C240.872 61.4287 241.269 61.2397 241.691 61.1375C242.114 61.0354 242.553 61.0223 242.981 61.0991C243.409 61.1759 243.817 61.341 244.178 61.5839C244.539 61.8267 244.846 62.1421 245.079 62.51C245.312 62.878 245.467 63.2905 245.533 63.7214C245.599 64.1524 245.576 64.5925 245.464 65.0138C245.261 65.7773 244.779 66.4365 244.114 66.8606C243.449 67.2847 242.65 67.4428 241.874 67.3035C241.098 67.1643 240.403 66.7379 239.926 66.1088C239.449 65.4798 239.226 64.694 239.299 63.9071V63.9071Z" fill="#D7F4F4"/>
<path d="M172.807 123.449C172.802 122.825 172.982 122.213 173.325 121.692C173.667 121.17 174.156 120.763 174.73 120.52C175.304 120.278 175.936 120.212 176.547 120.331C177.158 120.45 177.72 120.748 178.162 121.188C178.604 121.628 178.906 122.189 179.029 122.801C179.152 123.413 179.091 124.048 178.854 124.625C178.617 125.203 178.214 125.696 177.697 126.044C177.18 126.391 176.571 126.576 175.949 126.576C175.12 126.577 174.324 126.248 173.736 125.662C173.147 125.076 172.813 124.281 172.807 123.449V123.449Z" fill="#F7BA77"/>
<path d="M172.807 123.449C172.802 122.825 172.982 122.213 173.325 121.692C173.667 121.17 174.156 120.763 174.73 120.52C175.304 120.278 175.936 120.212 176.547 120.331C177.158 120.45 177.72 120.748 178.162 121.188C178.604 121.628 178.906 122.189 179.029 122.801C179.152 123.413 179.091 124.048 178.854 124.625C178.617 125.203 178.214 125.696 177.697 126.044C177.18 126.391 176.571 126.576 175.949 126.576C175.12 126.577 174.324 126.248 173.736 125.662C173.147 125.076 172.813 124.281 172.807 123.449V123.449Z" fill="#F7BA77"/>
<path d="M187.733 112.143C187.723 111.519 187.898 110.907 188.236 110.384C188.573 109.861 189.057 109.449 189.628 109.202C190.198 108.955 190.829 108.883 191.44 108.995C192.052 109.107 192.616 109.399 193.062 109.833C193.508 110.267 193.816 110.823 193.947 111.433C194.077 112.042 194.025 112.677 193.796 113.256C193.567 113.836 193.171 114.334 192.66 114.688C192.149 115.042 191.544 115.236 190.923 115.246C190.51 115.252 190.1 115.177 189.717 115.025C189.333 114.872 188.983 114.645 188.687 114.357C188.39 114.069 188.154 113.725 187.99 113.345C187.826 112.965 187.739 112.557 187.733 112.143V112.143Z" fill="#F7BA77"/>
<path d="M187.733 112.143C187.723 111.519 187.898 110.907 188.236 110.384C188.573 109.861 189.057 109.449 189.628 109.202C190.198 108.955 190.829 108.883 191.44 108.995C192.052 109.107 192.616 109.399 193.062 109.833C193.508 110.267 193.816 110.823 193.947 111.433C194.077 112.042 194.025 112.677 193.796 113.256C193.567 113.836 193.171 114.334 192.66 114.688C192.149 115.042 191.544 115.236 190.923 115.246C190.51 115.252 190.1 115.177 189.717 115.025C189.333 114.872 188.983 114.645 188.687 114.357C188.39 114.069 188.154 113.725 187.99 113.345C187.826 112.965 187.739 112.557 187.733 112.143V112.143Z" fill="#F7BA77"/>
<path d="M201.281 129.849C201.281 129.225 201.466 128.616 201.811 128.098C202.156 127.58 202.647 127.176 203.221 126.937C203.795 126.699 204.427 126.636 205.037 126.758C205.646 126.879 206.206 127.18 206.646 127.62C207.085 128.061 207.384 128.623 207.506 129.234C207.627 129.845 207.565 130.479 207.327 131.055C207.089 131.631 206.686 132.123 206.169 132.469C205.653 132.815 205.045 133 204.424 133C203.59 133 202.791 132.668 202.202 132.077C201.613 131.486 201.281 130.685 201.281 129.849V129.849Z" fill="#F7BA77"/>
<path d="M201.281 129.849C201.281 129.225 201.466 128.616 201.811 128.098C202.156 127.58 202.647 127.176 203.221 126.937C203.795 126.699 204.427 126.636 205.037 126.758C205.646 126.879 206.206 127.18 206.646 127.62C207.085 128.061 207.384 128.623 207.506 129.234C207.627 129.845 207.565 130.479 207.327 131.055C207.089 131.631 206.686 132.123 206.169 132.469C205.653 132.815 205.045 133 204.424 133C203.59 133 202.791 132.668 202.202 132.077C201.613 131.486 201.281 130.685 201.281 129.849V129.849Z" fill="#F7BA77"/>
<path d="M209.338 107.765C209.338 107.142 209.522 106.534 209.866 106.016C210.211 105.499 210.7 105.095 211.273 104.855C211.845 104.616 212.476 104.552 213.085 104.672C213.694 104.792 214.254 105.09 214.694 105.528C215.134 105.966 215.436 106.526 215.56 107.135C215.684 107.745 215.625 108.378 215.391 108.954C215.156 109.53 214.757 110.024 214.244 110.373C213.73 110.723 213.125 110.911 212.505 110.916C212.09 110.919 211.679 110.84 211.295 110.683C210.911 110.526 210.562 110.295 210.267 110.002C209.973 109.709 209.739 109.36 209.58 108.976C209.42 108.592 209.338 108.181 209.338 107.765Z" fill="#F7BA77"/>
<path d="M209.338 107.765C209.338 107.142 209.522 106.534 209.866 106.016C210.211 105.499 210.7 105.095 211.273 104.855C211.845 104.616 212.476 104.552 213.085 104.672C213.694 104.792 214.254 105.09 214.694 105.528C215.134 105.966 215.436 106.526 215.56 107.135C215.684 107.745 215.625 108.378 215.391 108.954C215.156 109.53 214.757 110.024 214.244 110.373C213.73 110.723 213.125 110.911 212.505 110.916C212.09 110.919 211.679 110.84 211.295 110.683C210.911 110.526 210.562 110.295 210.267 110.002C209.973 109.709 209.739 109.36 209.58 108.976C209.42 108.592 209.338 108.181 209.338 107.765Z" fill="#F7BA77"/>
<path d="M160.6 113.082C160.595 112.456 160.776 111.844 161.119 111.322C161.463 110.8 161.953 110.392 162.529 110.151C163.104 109.909 163.737 109.845 164.349 109.966C164.961 110.086 165.523 110.387 165.964 110.829C166.405 111.271 166.705 111.835 166.825 112.449C166.946 113.062 166.881 113.698 166.641 114.275C166.4 114.852 165.993 115.344 165.473 115.688C164.953 116.033 164.342 116.214 163.718 116.209C162.893 116.203 162.104 115.871 161.52 115.286C160.937 114.701 160.606 113.909 160.6 113.082V113.082Z" fill="#F7BA77"/>
<path d="M160.6 113.082C160.595 112.456 160.776 111.844 161.119 111.322C161.463 110.8 161.953 110.392 162.529 110.151C163.104 109.909 163.737 109.845 164.349 109.966C164.961 110.086 165.523 110.387 165.964 110.829C166.405 111.271 166.705 111.835 166.825 112.449C166.946 113.062 166.881 113.698 166.641 114.275C166.4 114.852 165.993 115.344 165.473 115.688C164.953 116.033 164.342 116.214 163.718 116.209C162.893 116.203 162.104 115.871 161.52 115.286C160.937 114.701 160.606 113.909 160.6 113.082V113.082Z" fill="#F7BA77"/>
<defs>
<filter id="filter0_d" x="85.8225" y="147.781" width="161.521" height="49.7187" filterUnits="userSpaceOnUse" color-interpolation-filters="sRGB">
<feFlood flood-opacity="0" result="BackgroundImageFix"/>
<feColorMatrix in="SourceAlpha" type="matrix" values="0 0 0 0 0 0 0 0 0 0 0 0 0 0 0 0 0 0 127 0"/>
<feOffset dy="4"/>
<feGaussianBlur stdDeviation="2"/>
<feColorMatrix type="matrix" values="0 0 0 0 0 0 0 0 0 0 0 0 0 0 0 0 0 0 0.25 0"/>
<feBlend mode="normal" in2="BackgroundImageFix" result="effect1_dropShadow"/>
<feBlend mode="normal" in="SourceGraphic" in2="effect1_dropShadow" result="shape"/>
</filter>
</defs>
</svg>
