<svg width="80" height="85" viewBox="0 0 80 85" fill="none" xmlns="http://www.w3.org/2000/svg">
<path fill-rule="evenodd" clip-rule="evenodd" d="M39.6178 0.854732C47.5632 0.55077 55.4829 2.18846 62.2493 6.72251C69.405 11.5174 76.0608 18.0972 78.4276 26.8605C80.7652 35.5158 78.0262 44.6706 74.7351 52.9519C71.6949 60.6016 66.6719 66.8321 60.5482 71.8498C54.3232 76.9506 47.3985 81.1703 39.6178 81.7268C31.485 82.3084 23.2011 80.1632 16.5844 74.994C9.94808 69.8095 5.93528 61.7811 3.31898 53.3689C0.676422 44.8723 -1.06574 35.6251 1.71367 27.1802C4.45408 18.8537 11.257 13.1743 18.1156 8.41091C24.6215 3.89238 31.9004 1.14997 39.6178 0.854732Z" fill="#FFFF99"/>
<path d="M41.9219 16.9094C41.9219 16.9094 28.7519 17.1194 28.5419 35.7294C28.5419 35.7294 21.4319 34.4694 27.5419 43.6694C27.5419 43.6694 28.1419 45.2494 30.0119 43.6694C31.8819 42.0894 28.2619 47.4594 36.7619 52.8294C36.7619 52.8294 36.8819 61.4494 34.7619 62.8294C32.6419 64.2094 46.3719 68.9494 48.6219 62.8294C47.1949 61.0681 46.4431 58.8555 46.5019 56.5894C46.5019 56.5894 55.9419 56.1094 55.9919 39.8494C56.0419 23.5894 51.5019 15.9094 41.9219 16.9094Z" fill="#CD9F94"/>
<path d="M23.3419 24.4094C23.3419 24.4094 14.6819 31.2194 20.3419 36.5794C20.3419 36.5794 15.3919 43.9994 23.3419 47.1594C23.3419 47.1594 23.8919 53.1594 29.9419 51.0094C29.9419 51.0094 35.3019 57.7394 38.1819 51.4894C38.1819 51.4894 33.6519 52.9294 29.9419 43.1694C29.9419 43.1694 27.0519 46.3994 26.3719 40.4594C25.6919 34.5194 27.7419 33.4594 29.2519 36.9894C30.7619 40.5194 31.4519 39.2794 31.4519 39.2794C31.4519 39.2794 31.4519 30.1194 33.3719 30.6694C35.2919 31.2194 35.1619 31.6694 37.5019 26.5394C37.5019 26.5394 40.3819 34.7894 47.6719 26.1294C47.6719 26.1294 49.0419 26.1294 51.3819 29.0194C53.7219 31.9094 53.1619 26.1294 57.5619 26.6794C61.9619 27.2294 61.9619 20.3594 59.6219 18.5694C59.6219 18.5694 61.6819 14.7294 59.4819 12.7994C57.2819 10.8694 50.5319 5.1694 48.3419 8.3694C46.1519 11.5694 42.8419 3.9094 34.3419 11.4294C34.3419 11.4294 22.2219 9.2294 23.3419 24.4094Z" fill="black"/>
<path d="M47.7809 61.484C42.0716 66.0515 36.5205 63.3871 34.4587 61.484C24.3626 61.0627 16.6129 76.6922 14 84.5596H70.6185C65.3849 74.9646 53.4902 56.9165 47.7809 61.484Z" fill="#F8F8C8"/>
</svg>
