<svg width="80" height="94" viewBox="0 0 80 94" fill="none" xmlns="http://www.w3.org/2000/svg">
<path fill-rule="evenodd" clip-rule="evenodd" d="M37.6568 0.840995C46.0034 0.662382 54.6039 1.51601 61.4941 6.45555C68.4975 11.4762 72.6697 19.5682 75.4819 27.9575C78.3524 36.5205 80.6457 45.9416 77.5754 54.4281C74.5631 62.7539 66.576 67.419 59.4501 72.2691C52.7042 76.8606 45.6754 80.9289 37.6568 81.598C29.1346 82.309 20.0181 81.5162 13.1873 76.1292C6.40532 70.7807 3.6405 61.7503 1.55648 53.128C-0.40784 45.001 -0.582812 36.6288 1.69772 28.5929C4.02515 20.3918 7.94219 12.5347 14.5166 7.46085C21.1161 2.36753 29.4623 1.01636 37.6568 0.840995Z" fill="#E06B65"/>
<path d="M41.7944 17.098C41.7944 17.098 28.6244 17.308 28.4144 35.908C28.4144 35.908 21.3044 34.658 27.4144 43.908C27.4144 43.908 28.0144 45.488 29.8844 43.908C31.7544 42.328 28.1344 47.698 36.6344 53.068C36.6344 53.068 36.7544 61.688 34.6344 63.068C32.5144 64.448 46.2544 69.188 48.4944 63.068C47.0453 61.2938 46.2823 59.0579 46.3444 56.768C46.3444 56.768 55.7844 56.288 55.8344 40.028C55.8844 23.768 51.3444 16.158 41.7944 17.098Z" fill="#F4D8BD"/>
<path d="M66.3444 67.548C66.3444 67.548 63.6844 51.438 64.9244 44.418C66.1644 37.398 52.7344 17.058 52.7344 17.058C52.7344 17.058 53.9644 8.26801 47.7344 10.908C47.7344 10.908 43.4644 14.008 35.7344 12.258C28.0044 10.508 23.3444 20.988 23.8944 24.478C23.8944 24.478 11.0944 29.138 14.9744 49.478C18.8544 69.818 18.8544 88.268 24.4744 91.178C30.0944 94.088 37.8644 95.478 43.3444 87.328C48.8244 79.178 54.9744 82.848 54.9744 82.848C54.9744 82.848 67.9244 87.718 66.3444 67.548ZM53.6344 51.028C51.1544 54.868 49.4844 56.348 47.0244 56.348C44.5644 56.348 48.1244 62.618 48.1244 62.618C41.5944 65.818 35.3244 62.088 35.3244 62.088C38.1544 60.088 37.3244 53.088 37.3244 53.088C33.8744 52.868 30.4144 43.618 30.4144 43.618C27.5844 45.838 26.3044 42.058 26.3044 42.058C23.8544 34.388 28.4544 35.928 28.4544 35.928C27.8344 26.928 37.9344 24.758 43.9744 23.528C50.0144 22.298 50.5044 19.708 50.5044 19.708C57.9344 28.368 56.1544 47.128 53.6344 51.028Z" fill="#DDB374"/>
<path d="M48.7676 61.484C43.0583 66.0515 37.5072 63.3871 35.4453 61.484C25.3493 61.0627 17.5995 76.6922 14.9867 84.5596H71.6052C66.3715 74.9646 54.4769 56.9165 48.7676 61.484Z" fill="#FFB6B3"/>
</svg>
