<svg width="80" height="88" viewBox="0 0 80 88" fill="none" xmlns="http://www.w3.org/2000/svg">
<path fill-rule="evenodd" clip-rule="evenodd" d="M38.7947 0.121239C47.112 -0.578627 55.4576 1.76903 62.4366 6.7106C69.6594 11.8249 75.6754 19.1217 78.2244 28.0403C80.7524 36.8854 79.2962 46.3968 76.2522 55.0498C73.3238 63.3739 68.4154 70.8439 61.4775 75.6451C54.7974 80.2678 46.7255 80.8814 38.7947 80.971C30.7805 81.0615 22.2542 81.2468 15.7649 76.1615C9.27258 71.0737 6.84567 62.23 4.36164 53.9873C1.87554 45.7378 -1.03414 37.0229 1.48775 28.786C4.00393 20.5679 11.1568 15.4911 17.6835 10.4764C24.1403 5.5153 30.8973 0.785774 38.7947 0.121239Z" fill="#99CC99"/>
<path d="M28.7386 45.841C28.7386 45.841 32.4486 55.8411 36.7386 54.0811C36.7386 54.0811 30.9686 50.3811 31.0186 44.9411C31.0186 44.6611 30.5186 45.001 30.3186 45.201C30.1228 45.4228 29.8782 45.596 29.604 45.7071C29.3298 45.8182 29.0336 45.864 28.7386 45.841Z" fill="#F0DAB8"/>
<path d="M42.3086 18.3911C42.3086 18.3911 29.1386 18.6011 28.9286 37.2011C28.9286 37.2011 21.8186 35.9511 27.8786 45.2011C27.8786 45.2011 28.4786 46.7811 30.3486 45.2011C32.2186 43.6211 28.5986 48.9811 37.0986 54.3611C37.0986 54.3611 37.2186 62.9811 35.0986 64.3611C32.9786 65.7411 46.7086 70.4811 48.9586 64.3611C47.5325 62.5954 46.781 60.38 46.8386 58.1111C46.8386 58.1111 56.2786 57.6411 56.3286 41.3711C56.3886 25.2011 51.8886 17.4511 42.3086 18.3911Z" fill="#E8C8B6"/>
<path d="M41.2486 16.6311C41.2486 16.6311 37.1686 5.84105 27.8486 10.3011C18.5286 14.7611 27.9086 29.8811 27.4786 26.5511C26.7286 20.7411 19.9786 32.0311 26.6486 37.4111C26.6486 36.3311 39.5886 40.1611 45.2186 24.4111C45.2186 24.4111 54.6486 34.2811 55.9686 32.8111C57.2886 31.3411 55.5286 15.7511 41.2486 16.6311Z" fill="#F0DAB8"/>
<path d="M47.7748 64.484C42.0655 69.0515 36.5145 66.3871 34.4526 64.484C24.3565 64.0627 16.6068 79.6922 13.9939 87.5596H70.6124C65.3788 77.9646 53.4842 59.9165 47.7748 64.484Z" fill="#CBF4CB"/>
</svg>
