<svg width="80" height="82" viewBox="0 0 80 82" fill="none" xmlns="http://www.w3.org/2000/svg">
<path fill-rule="evenodd" clip-rule="evenodd" d="M40.8262 0.901645C48.5256 0.800676 55.8693 4.13486 62.1055 9.17102C68.3489 14.2131 72.9526 21.1705 75.8102 29.1538C78.8313 37.5939 81.5025 47.0159 78.7074 55.5523C75.9459 63.9863 68.1801 68.571 61.3479 73.3228C54.9941 77.7419 48.3146 81.9447 40.8262 81.899C33.3624 81.8535 26.8547 77.3783 20.4669 73.0734C13.4592 68.3509 5.09521 64.3595 2.15519 55.8384C-0.829123 47.1889 1.9595 37.451 5.2379 28.9349C8.28766 21.0127 13.5924 14.6988 19.9074 9.72439C26.1491 4.80777 33.1846 1.00186 40.8262 0.901645Z" fill="#99CCFF"/>
<path d="M39.7891 12.8377C39.7891 12.8377 26.6191 13.0477 26.3791 31.6877C26.3791 31.6877 19.2691 30.4277 25.3791 39.6277C25.3791 39.6277 25.9691 41.2177 27.8391 39.6277C29.7091 38.0377 26.0891 43.4177 34.5891 48.7877C34.5891 48.7877 34.7091 57.4077 32.5891 58.7877C30.4691 60.1677 44.2091 64.9077 46.4491 58.7877C45.0229 57.0221 44.2714 54.8067 44.3291 52.5377C44.3291 52.5377 53.7691 52.0577 53.8191 35.7977C53.8691 19.5377 49.3791 11.8977 39.7891 12.8377Z" fill="#E3BAA3"/>
<path d="M21.2891 18.9277C21.2891 18.9277 17.8591 22.6777 22.1891 28.1477C22.0013 28.5362 21.8996 28.9607 21.8908 29.3921C21.882 29.8235 21.9664 30.2518 22.1382 30.6476C22.3101 31.0434 22.5652 31.3975 22.8864 31.6858C23.2075 31.974 23.5871 32.1895 23.9991 32.3177C23.9991 32.3177 26.1191 34.7377 26.9191 32.8177C27.7191 30.8977 29.1391 23.6577 32.3591 23.5577C32.3591 23.5577 31.5491 17.3177 36.4891 18.1277C36.4891 18.1277 37.4891 15.8077 39.6091 16.8177C41.7291 17.8277 43.2991 19.1577 45.2191 17.4477C47.1391 15.7377 48.6691 22.5977 51.4291 21.9177C52.9791 21.5277 52.7891 31.8177 53.7991 30.8077C54.8091 29.7977 56.9191 19.0277 51.5791 12.9977C51.5791 12.9977 47.3591 10.2777 45.8491 11.9977C45.8491 11.9977 44.4391 8.77771 41.1191 8.77771C37.7991 8.77771 36.1191 10.2877 34.4691 9.98772C32.8191 9.68772 29.9391 9.47772 28.5291 10.9877C28.5291 10.9777 20.2991 15.5477 21.2891 18.9277Z" fill="black"/>
<path d="M46.3791 11.6077C46.5736 10.9506 46.9873 10.3799 47.5513 9.99052C48.1153 9.60118 48.7957 9.41667 49.4791 9.46772" fill="black"/>
<path d="M45.2191 10.9577C45.2292 10.4654 45.4153 9.99306 45.7437 9.62617C46.072 9.25928 46.521 9.02213 47.0091 8.9577" fill="black"/>
<path d="M46.0069 58.6824C40.2976 63.2499 34.7465 60.5855 32.6847 58.6824C22.5886 58.2612 14.8389 73.8907 12.226 81.7581H68.8445C63.6109 72.1631 51.7162 54.1149 46.0069 58.6824Z" fill="#C3DDF7"/>
</svg>
