<svg width="82" height="84" viewBox="0 0 82 84" fill="none" xmlns="http://www.w3.org/2000/svg">
<path fill-rule="evenodd" clip-rule="evenodd" d="M40.3426 1.96113C48.262 1.59072 56.3729 2.81337 62.9493 7.65503C69.6716 12.6041 73.942 20.4399 76.7416 28.7587C79.6349 37.356 81.773 46.7951 79.0351 55.4531C76.3201 64.0383 69.1956 69.7141 62.2276 74.6546C55.5916 79.3597 48.2467 83.1458 40.3426 82.8869C32.5798 82.6325 25.4833 78.5189 19.3896 73.2511C13.495 68.1554 9.48698 61.2797 6.5803 53.7004C3.42912 45.4836 -0.349498 36.6012 2.07127 28.0931C4.50098 19.5536 12.163 14.4413 19.0978 9.70608C25.589 5.27382 32.6979 2.31869 40.3426 1.96113Z" fill="white" stroke="#DADADA" stroke-width="2"/>
<path d="M44.9001 13.1943C44.9001 13.1943 31.7301 13.4043 31.5201 32.0043C31.5201 32.0043 24.4101 30.7543 30.5201 40.0043C30.5201 40.0043 31.11 41.5843 32.98 40.0043C34.85 38.4243 31.2301 43.7843 39.7301 49.1643C39.7301 49.1643 39.85 57.7843 37.7301 59.1643C35.6101 60.5443 49.3501 65.2843 51.5901 59.1643C50.1639 57.3987 49.4124 55.1833 49.47 52.9143C49.47 52.9143 58.91 52.4443 58.97 36.1743C58.98 20.0043 54.4801 12.2543 44.9001 13.1943Z" fill="#E8C0B6"/>
<path d="M49.6501 12.9443C49.6501 12.9443 40.0601 8.94432 36.1501 11.8143C32.2401 14.6843 32.8701 17.4243 29.4001 17.3043C25.93 17.1843 16.3301 18.6443 19.1401 35.4143C19.1401 35.4143 28.2901 26.5743 27.4101 19.1943C27.4101 19.1943 28.2301 29.0443 25.8301 32.0643C23.4301 35.0843 18.3201 49.8043 27.6601 54.3443C37.0001 58.8843 39.7801 54.9143 39.7801 54.9143L40.2801 49.2343C40.2801 49.2343 34.0701 43.8543 33.5001 39.7543C33.0501 39.7543 30.2101 42.0443 28.9001 37.1043C27.64 32.3343 29.3601 30.7243 32.3301 32.8943C32.3301 32.8943 32.14 36.5543 32.9001 36.1743C33.6601 35.7943 35.0501 25.1743 37.4401 24.4343C39.8301 23.6943 50.1401 22.6443 49.6501 12.9443Z" fill="black"/>
<path d="M49.6201 15.2043C49.6201 15.2043 56.94 20.6443 58.47 27.6443C58.47 27.6443 61.2101 16.3143 53.2001 13.6443C53.2001 13.6443 48.2501 11.6443 49.6201 15.2043Z" fill="black"/>
<path d="M50.9775 59.6824C45.2682 64.2499 39.7171 61.5855 37.6552 59.6824C27.5591 59.2612 19.8094 74.8907 17.1965 82.7581H73.815C68.5814 73.1631 56.6868 55.1149 50.9775 59.6824Z" fill="#DADADA"/>
</svg>
