<svg width="230" height="165" viewBox="0 0 230 165" fill="none" xmlns="http://www.w3.org/2000/svg">
<rect width="230" height="165" rx="6.7" fill="white"/>
<path d="M85.2554 148.112C84.3701 148.112 83.5754 147.925 82.8714 147.552C82.1674 147.179 81.6181 146.661 81.2234 146C80.8288 145.328 80.6314 144.571 80.6314 143.728C80.6314 142.885 80.8288 142.133 81.2234 141.472C81.6181 140.811 82.1621 140.293 82.8554 139.92C83.5594 139.547 84.3594 139.36 85.2554 139.36C86.0981 139.36 86.8341 139.531 87.4634 139.872C88.1034 140.213 88.5834 140.704 88.9034 141.344L87.3674 142.24C87.1221 141.845 86.8128 141.552 86.4394 141.36C86.0768 141.157 85.6768 141.056 85.2394 141.056C84.4928 141.056 83.8741 141.301 83.3834 141.792C82.8928 142.272 82.6474 142.917 82.6474 143.728C82.6474 144.539 82.8874 145.189 83.3674 145.68C83.8581 146.16 84.4821 146.4 85.2394 146.4C85.6768 146.4 86.0768 146.304 86.4394 146.112C86.8128 145.909 87.1221 145.611 87.3674 145.216L88.9034 146.112C88.5728 146.752 88.0874 147.248 87.4474 147.6C86.8181 147.941 86.0874 148.112 85.2554 148.112ZM93.8963 139.36C95.155 139.36 96.115 139.664 96.7763 140.272C97.4483 140.869 97.7843 141.776 97.7843 142.992V148H95.8963V146.96C95.651 147.333 95.299 147.621 94.8403 147.824C94.3923 148.016 93.8483 148.112 93.2083 148.112C92.5683 148.112 92.0083 148.005 91.5283 147.792C91.0483 147.568 90.675 147.264 90.4083 146.88C90.1523 146.485 90.0243 146.043 90.0243 145.552C90.0243 144.784 90.307 144.171 90.8723 143.712C91.4483 143.243 92.3496 143.008 93.5763 143.008H95.7843V142.88C95.7843 142.283 95.603 141.824 95.2403 141.504C94.8883 141.184 94.3603 141.024 93.6563 141.024C93.1763 141.024 92.7016 141.099 92.2323 141.248C91.7736 141.397 91.3843 141.605 91.0643 141.872L90.2803 140.416C90.7283 140.075 91.267 139.813 91.8963 139.632C92.5256 139.451 93.1923 139.36 93.8963 139.36ZM93.6243 146.656C94.1256 146.656 94.5683 146.544 94.9523 146.32C95.347 146.085 95.6243 145.755 95.7843 145.328V144.336H93.7203C92.5683 144.336 91.9923 144.715 91.9923 145.472C91.9923 145.835 92.1363 146.123 92.4243 146.336C92.7123 146.549 93.1123 146.656 93.6243 146.656ZM105.487 147.536C105.252 147.728 104.964 147.872 104.623 147.968C104.292 148.064 103.94 148.112 103.567 148.112C102.628 148.112 101.903 147.867 101.391 147.376C100.879 146.885 100.623 146.171 100.623 145.232V141.12H99.2151V139.52H100.623V137.568H102.623V139.52H104.911V141.12H102.623V145.184C102.623 145.6 102.724 145.92 102.927 146.144C103.13 146.357 103.423 146.464 103.807 146.464C104.255 146.464 104.628 146.347 104.927 146.112L105.487 147.536ZM111.98 139.36C113.058 139.36 113.922 139.675 114.572 140.304C115.223 140.933 115.548 141.867 115.548 143.104V148H113.548V143.36C113.548 142.613 113.372 142.053 113.02 141.68C112.668 141.296 112.167 141.104 111.516 141.104C110.78 141.104 110.199 141.328 109.772 141.776C109.346 142.213 109.132 142.848 109.132 143.68V148H107.132V136.128H109.132V140.448C109.463 140.096 109.868 139.829 110.348 139.648C110.839 139.456 111.383 139.36 111.98 139.36ZM126.196 143.776C126.196 143.915 126.185 144.112 126.164 144.368H119.46C119.577 144.997 119.881 145.499 120.372 145.872C120.873 146.235 121.492 146.416 122.228 146.416C123.166 146.416 123.94 146.107 124.548 145.488L125.62 146.72C125.236 147.179 124.75 147.525 124.164 147.76C123.577 147.995 122.916 148.112 122.18 148.112C121.241 148.112 120.414 147.925 119.7 147.552C118.985 147.179 118.43 146.661 118.036 146C117.652 145.328 117.46 144.571 117.46 143.728C117.46 142.896 117.646 142.149 118.02 141.488C118.404 140.816 118.932 140.293 119.604 139.92C120.276 139.547 121.033 139.36 121.876 139.36C122.708 139.36 123.449 139.547 124.1 139.92C124.761 140.283 125.273 140.8 125.636 141.472C126.009 142.133 126.196 142.901 126.196 143.776ZM121.876 140.96C121.236 140.96 120.692 141.152 120.244 141.536C119.806 141.909 119.54 142.411 119.444 143.04H124.292C124.206 142.421 123.945 141.92 123.508 141.536C123.07 141.152 122.526 140.96 121.876 140.96ZM133.253 147.536C133.018 147.728 132.73 147.872 132.389 147.968C132.058 148.064 131.706 148.112 131.333 148.112C130.394 148.112 129.669 147.867 129.157 147.376C128.645 146.885 128.389 146.171 128.389 145.232V141.12H126.981V139.52H128.389V137.568H130.389V139.52H132.677V141.12H130.389V145.184C130.389 145.6 130.49 145.92 130.693 146.144C130.895 146.357 131.189 146.464 131.573 146.464C132.021 146.464 132.394 146.347 132.693 146.112L133.253 147.536ZM142.649 143.776C142.649 143.915 142.638 144.112 142.617 144.368H135.913C136.03 144.997 136.334 145.499 136.825 145.872C137.326 146.235 137.945 146.416 138.681 146.416C139.619 146.416 140.393 146.107 141.001 145.488L142.073 146.72C141.689 147.179 141.203 147.525 140.617 147.76C140.03 147.995 139.369 148.112 138.633 148.112C137.694 148.112 136.867 147.925 136.153 147.552C135.438 147.179 134.883 146.661 134.489 146C134.105 145.328 133.913 144.571 133.913 143.728C133.913 142.896 134.099 142.149 134.473 141.488C134.857 140.816 135.385 140.293 136.057 139.92C136.729 139.547 137.486 139.36 138.329 139.36C139.161 139.36 139.902 139.547 140.553 139.92C141.214 140.283 141.726 140.8 142.089 141.472C142.462 142.133 142.649 142.901 142.649 143.776ZM138.329 140.96C137.689 140.96 137.145 141.152 136.697 141.536C136.259 141.909 135.993 142.411 135.897 143.04H140.745C140.659 142.421 140.398 141.92 139.961 141.536C139.523 141.152 138.979 140.96 138.329 140.96ZM146.474 140.704C147.05 139.808 148.063 139.36 149.514 139.36V141.264C149.343 141.232 149.188 141.216 149.05 141.216C148.271 141.216 147.663 141.445 147.226 141.904C146.788 142.352 146.57 143.003 146.57 143.856V148H144.57V139.456H146.474V140.704Z" fill="black"/>
<path opacity="0.2" d="M86.2631 83.3698C84.7377 89.2032 81.4275 92.9532 77.553 97.2389C74.1392 100.991 70.2838 104.338 66.0667 107.209L64.8921 73.5336L65.1362 73.7567C66.0972 72.8341 72.3056 66.986 79.6886 68.3402C81.6995 68.5911 83.5701 69.4799 85.0123 70.8698C88.536 74.5305 87.0105 80.7062 86.2631 83.3698Z" fill="#D84B35"/>
<path opacity="0.2" d="M66.0654 107.268L65.9281 107.358C61.4223 104.766 57.3398 101.531 53.8164 97.7594C50.6283 94.3368 46.6774 89.9916 44.9537 83.2952C44.2368 80.4976 42.6046 74.0988 46.1588 70.6613C47.4084 69.5467 48.9797 68.8349 50.6588 68.6226C57.4011 67.3429 63.2892 72.1493 64.8909 73.5928L66.0654 107.268Z" fill="#F93E2B"/>
<path opacity="0.2" d="M138.875 76.093C137.349 81.9263 134.039 85.6763 130.165 89.962C126.751 93.7143 122.896 97.0608 118.678 99.9322L117.519 66.2567L117.763 66.48C118.724 65.5574 124.933 59.7091 132.316 61.0633C134.326 61.3143 136.197 62.2031 137.639 63.5931C141.209 67.2687 139.622 73.4293 138.875 76.093Z" fill="#D84B35"/>
<path opacity="0.2" d="M118.737 99.932L118.6 100.021C114.094 97.4297 110.011 94.1944 106.488 90.423C103.3 87.0004 99.3488 82.6553 97.6251 75.9588C96.9082 73.1612 95.276 66.7624 98.8302 63.3249C100.08 62.2103 101.651 61.4984 103.33 61.2862C110.072 60.0064 115.961 64.813 117.562 66.2565L118.737 99.932Z" fill="#F93E2B"/>
<path opacity="0.2" d="M189.044 83.3698C187.518 89.2032 184.208 92.9532 180.334 97.2389C176.92 100.991 173.065 104.338 168.847 107.209L167.673 73.5336L167.917 73.7567C168.878 72.8341 175.086 66.986 182.469 68.3402C184.48 68.5911 186.351 69.4799 187.793 70.8698C191.317 74.5305 189.73 80.7062 189.044 83.3698Z" fill="#D84B35"/>
<path opacity="0.2" d="M168.849 107.268L168.711 107.358C164.205 104.766 160.123 101.531 156.6 97.7594C153.411 94.3368 149.461 89.9916 147.737 83.2952C147.02 80.4976 145.388 74.0988 148.942 70.6613C150.212 69.5328 151.812 68.82 153.518 68.6226C160.261 67.3429 166.149 72.1493 167.75 73.5928L168.849 107.268Z" fill="#F93E2B"/>
<path opacity="0.4" d="M84.2792 79.8132C82.7538 85.6465 79.4437 89.3965 75.5691 93.6822C72.1553 97.4345 68.2999 100.781 64.0828 103.652L62.9082 69.9769L63.1523 70.2002C64.1133 69.2776 70.3217 63.4294 77.7047 64.7835C79.7156 65.0345 81.5862 65.9234 83.0284 67.3133C86.5521 70.9889 84.9657 77.1495 84.2792 79.8132Z" fill="#D84B35"/>
<path opacity="0.4" d="M64.1289 103.652L63.9916 103.741C59.4858 101.15 55.4032 97.9146 51.8799 94.1433C48.6917 90.7206 44.7409 86.3755 43.0172 79.6791C42.3003 76.8814 40.6681 70.4826 44.2223 67.0451C45.4924 65.9166 47.0925 65.2038 48.7985 65.0064C55.5408 63.7267 61.4289 68.5332 63.0306 69.9767L64.1289 103.652Z" fill="#F93E2B"/>
<path opacity="0.4" d="M136.95 72.5363C135.425 78.3697 132.115 82.1197 128.24 86.4054C124.826 90.1576 120.971 93.5041 116.754 96.3756L115.579 62.7001L115.823 62.9233C116.784 62.0007 122.993 56.1525 130.376 57.5067C132.386 57.7576 134.257 58.6465 135.699 60.0364C139.223 63.712 137.637 69.8727 136.95 72.5363Z" fill="#D84B35"/>
<path opacity="0.4" d="M116.755 96.3757L116.618 96.465C112.112 93.8735 108.03 90.6382 104.506 86.8668C101.318 83.4442 97.3674 79.099 95.6437 72.4026C94.9267 69.605 93.2945 63.2062 96.8488 59.7687C98.1189 58.6402 99.719 57.9274 101.425 57.73C108.167 56.4503 114.055 61.2568 115.657 62.7002L116.755 96.3757Z" fill="#F93E2B"/>
<path opacity="0.4" d="M187.078 79.8132C185.552 85.6465 182.242 89.3965 178.367 93.6822C174.954 97.4345 171.098 100.781 166.881 103.652L165.707 69.9769L165.951 70.2002C166.912 69.2776 173.12 63.4294 180.503 64.7835C182.514 65.0345 184.385 65.9234 185.827 67.3133C189.35 70.9889 187.764 77.1495 187.078 79.8132Z" fill="#D84B35"/>
<path opacity="0.4" d="M166.879 103.652L166.742 103.741C162.236 101.15 158.154 97.9146 154.63 94.1433C151.442 90.7206 147.491 86.3755 145.768 79.6791C145.051 76.8814 143.419 70.4826 146.973 67.0451C148.222 65.9305 149.794 65.2187 151.473 65.0064C158.215 63.7267 164.103 68.5332 165.705 69.9767L166.879 103.652Z" fill="#F93E2B"/>
<path d="M82.3124 76.093C80.787 81.9263 77.4769 85.6763 73.6023 89.962C70.1885 93.7143 66.3331 97.0608 62.116 99.9322L60.9414 66.2567L61.1855 66.48C62.1465 65.5574 68.3549 59.7091 75.7379 61.0633C77.7488 61.3143 79.6194 62.2031 81.0616 63.5931C84.5853 67.2687 82.9988 73.4293 82.3124 76.093Z" fill="#D84B35"/>
<path d="M62.1147 99.932L61.9774 100.021C57.4716 97.4297 53.3891 94.1944 49.8657 90.423C46.6776 87.0004 42.7268 82.6553 41.0031 75.9588C40.2861 73.1612 38.6539 66.7624 42.2081 63.3249C43.4783 62.1964 45.0784 61.4836 46.7844 61.2862C53.5267 60.0064 59.4148 64.813 61.0165 66.2565L62.1147 99.932Z" fill="#F93E2B"/>
<path d="M41.0635 58.98C45.9635 65.5733 50.2323 72.5919 53.8159 79.9472C56.9988 86.4382 59.6907 93.1475 61.8701 100.022C63.8184 93.7788 66.0994 87.6395 68.7039 81.6288C72.0627 73.8087 76.0037 66.2388 80.4953 58.98C76.4703 63.0435 72.8206 67.4455 69.5886 72.1347C66.8177 76.1514 64.3306 80.3476 62.1446 84.6942C59.5035 80.192 56.542 75.8758 53.282 71.7776C49.605 67.1677 45.5162 62.885 41.0635 58.98Z" fill="white"/>
<path d="M134.984 68.8161C133.458 74.6494 130.148 78.3994 126.274 82.6851C122.86 86.4374 119.005 89.7839 114.787 92.6554L113.613 58.9799L113.857 59.2031C114.818 58.2805 121.026 52.4323 128.409 53.7864C130.42 54.0374 132.291 54.9263 133.733 56.3162C137.257 59.9918 135.67 66.1524 134.984 68.8161Z" fill="#D84B35"/>
<path d="M114.786 92.6555L114.649 92.7448C110.143 90.1533 106.06 86.9179 102.537 83.1466C99.349 79.724 95.3982 75.3788 93.6744 68.6824C92.9575 65.8848 91.3253 59.486 94.8795 56.0485C96.1497 54.92 97.7497 54.2072 99.4558 54.0098C106.198 52.7301 112.086 57.5366 113.688 58.98L114.786 92.6555Z" fill="#F93E2B"/>
<path d="M93.7378 51.7031C98.6379 58.2965 102.907 65.3151 106.49 72.6704C109.673 79.1613 112.365 85.8706 114.544 92.7447C116.478 86.5028 118.743 80.3635 121.332 74.3519C124.691 66.5318 128.632 58.962 133.124 51.7031C129.099 55.7666 125.449 60.1686 122.217 64.8579C119.449 68.8765 116.962 73.0725 114.773 77.4174C112.125 72.9195 109.164 68.6038 105.911 64.5008C102.244 59.8959 98.1712 55.6136 93.7378 51.7031Z" fill="white"/>
<path d="M185.093 76.093C183.568 81.9263 180.258 85.6763 176.383 89.962C172.969 93.7143 169.114 97.0608 164.897 99.9322L163.722 66.2567L163.966 66.48C164.927 65.5574 171.136 59.7091 178.519 61.0633C180.53 61.3143 182.4 62.2031 183.842 63.5931C187.366 67.2687 185.78 73.4293 185.093 76.093Z" fill="#D84B35"/>
<path d="M164.898 99.932L164.761 100.021C160.255 97.4297 156.173 94.1944 152.649 90.423C149.461 87.0004 145.51 82.6553 143.787 75.9588C143.07 73.1612 141.438 66.7624 144.992 63.3249C146.262 62.1964 147.862 61.4836 149.568 61.2862C156.31 60.0064 162.198 64.813 163.8 66.2565L164.898 99.932Z" fill="#F93E2B"/>
<path d="M143.847 58.98C148.747 65.5761 153.021 72.5942 156.615 79.9472C159.793 86.4382 162.48 93.1476 164.654 100.022C166.594 93.7818 168.859 87.6429 171.442 81.6288C174.813 73.8142 178.754 66.2453 183.233 58.98C179.217 63.0511 175.568 67.4523 172.327 72.1347C169.561 76.1547 167.074 80.3506 164.883 84.6942C162.247 80.1887 159.285 75.8722 156.02 71.7776C152.362 67.1661 148.288 62.8831 143.847 58.98Z" fill="white"/>
</svg>
