<svg width="230" height="165" viewBox="0 0 230 165" fill="none" xmlns="http://www.w3.org/2000/svg">
<rect width="230" height="165" rx="6.7" fill="white"/>
<path d="M71.0445 148.112C70.1592 148.112 69.3645 147.925 68.6605 147.552C67.9565 147.179 67.4072 146.661 67.0125 146C66.6178 145.328 66.4205 144.571 66.4205 143.728C66.4205 142.885 66.6178 142.133 67.0125 141.472C67.4072 140.811 67.9512 140.293 68.6445 139.92C69.3485 139.547 70.1485 139.36 71.0445 139.36C71.8872 139.36 72.6232 139.531 73.2525 139.872C73.8925 140.213 74.3725 140.704 74.6925 141.344L73.1565 142.24C72.9112 141.845 72.6018 141.552 72.2285 141.36C71.8658 141.157 71.4658 141.056 71.0285 141.056C70.2818 141.056 69.6632 141.301 69.1725 141.792C68.6818 142.272 68.4365 142.917 68.4365 143.728C68.4365 144.539 68.6765 145.189 69.1565 145.68C69.6472 146.16 70.2712 146.4 71.0285 146.4C71.4658 146.4 71.8658 146.304 72.2285 146.112C72.6018 145.909 72.9112 145.611 73.1565 145.216L74.6925 146.112C74.3618 146.752 73.8765 147.248 73.2365 147.6C72.6072 147.941 71.8765 148.112 71.0445 148.112ZM80.1364 148.112C79.2724 148.112 78.4937 147.925 77.8004 147.552C77.107 147.179 76.563 146.661 76.1684 146C75.7844 145.328 75.5924 144.571 75.5924 143.728C75.5924 142.885 75.7844 142.133 76.1684 141.472C76.563 140.811 77.107 140.293 77.8004 139.92C78.4937 139.547 79.2724 139.36 80.1364 139.36C81.011 139.36 81.795 139.547 82.4884 139.92C83.1817 140.293 83.7204 140.811 84.1044 141.472C84.499 142.133 84.6964 142.885 84.6964 143.728C84.6964 144.571 84.499 145.328 84.1044 146C83.7204 146.661 83.1817 147.179 82.4884 147.552C81.795 147.925 81.011 148.112 80.1364 148.112ZM80.1364 146.4C80.8724 146.4 81.4804 146.155 81.9604 145.664C82.4404 145.173 82.6804 144.528 82.6804 143.728C82.6804 142.928 82.4404 142.283 81.9604 141.792C81.4804 141.301 80.8724 141.056 80.1364 141.056C79.4004 141.056 78.7924 141.301 78.3124 141.792C77.843 142.283 77.6084 142.928 77.6084 143.728C77.6084 144.528 77.843 145.173 78.3124 145.664C78.7924 146.155 79.4004 146.4 80.1364 146.4ZM91.4569 139.36C92.5342 139.36 93.3982 139.675 94.0489 140.304C94.6995 140.933 95.0249 141.867 95.0249 143.104V148H93.0249V143.36C93.0249 142.613 92.8489 142.053 92.4969 141.68C92.1449 141.296 91.6435 141.104 90.9929 141.104C90.2569 141.104 89.6755 141.328 89.2489 141.776C88.8222 142.213 88.6089 142.848 88.6089 143.68V148H86.6089V139.456H88.5129V140.56C88.8435 140.165 89.2595 139.867 89.7609 139.664C90.2622 139.461 90.8275 139.36 91.4569 139.36ZM101.56 148.112C100.675 148.112 99.8801 147.925 99.1761 147.552C98.4721 147.179 97.9228 146.661 97.5281 146C97.1335 145.328 96.9361 144.571 96.9361 143.728C96.9361 142.885 97.1335 142.133 97.5281 141.472C97.9228 140.811 98.4668 140.293 99.1601 139.92C99.8641 139.547 100.664 139.36 101.56 139.36C102.403 139.36 103.139 139.531 103.768 139.872C104.408 140.213 104.888 140.704 105.208 141.344L103.672 142.24C103.427 141.845 103.117 141.552 102.744 141.36C102.381 141.157 101.981 141.056 101.544 141.056C100.797 141.056 100.179 141.301 99.6881 141.792C99.1975 142.272 98.9521 142.917 98.9521 143.728C98.9521 144.539 99.1921 145.189 99.6721 145.68C100.163 146.16 100.787 146.4 101.544 146.4C101.981 146.4 102.381 146.304 102.744 146.112C103.117 145.909 103.427 145.611 103.672 145.216L105.208 146.112C104.877 146.752 104.392 147.248 103.752 147.6C103.123 147.941 102.392 148.112 101.56 148.112ZM111.707 139.36C112.784 139.36 113.648 139.675 114.299 140.304C114.95 140.933 115.275 141.867 115.275 143.104V148H113.275V143.36C113.275 142.613 113.099 142.053 112.747 141.68C112.395 141.296 111.894 141.104 111.243 141.104C110.507 141.104 109.926 141.328 109.499 141.776C109.072 142.213 108.859 142.848 108.859 143.68V148H106.859V136.128H108.859V140.448C109.19 140.096 109.595 139.829 110.075 139.648C110.566 139.456 111.11 139.36 111.707 139.36ZM121.076 139.36C122.335 139.36 123.295 139.664 123.956 140.272C124.628 140.869 124.964 141.776 124.964 142.992V148H123.076V146.96C122.831 147.333 122.479 147.621 122.02 147.824C121.572 148.016 121.028 148.112 120.388 148.112C119.748 148.112 119.188 148.005 118.708 147.792C118.228 147.568 117.855 147.264 117.588 146.88C117.332 146.485 117.204 146.043 117.204 145.552C117.204 144.784 117.487 144.171 118.052 143.712C118.628 143.243 119.529 143.008 120.756 143.008H122.964V142.88C122.964 142.283 122.783 141.824 122.42 141.504C122.068 141.184 121.54 141.024 120.836 141.024C120.356 141.024 119.881 141.099 119.412 141.248C118.953 141.397 118.564 141.605 118.244 141.872L117.46 140.416C117.908 140.075 118.447 139.813 119.076 139.632C119.705 139.451 120.372 139.36 121.076 139.36ZM120.804 146.656C121.305 146.656 121.748 146.544 122.132 146.32C122.527 146.085 122.804 145.755 122.964 145.328V144.336H120.9C119.748 144.336 119.172 144.715 119.172 145.472C119.172 145.835 119.316 146.123 119.604 146.336C119.892 146.549 120.292 146.656 120.804 146.656ZM131.953 136.128H133.953V148H131.953V136.128ZM139.842 139.36C141.1 139.36 142.06 139.664 142.722 140.272C143.394 140.869 143.73 141.776 143.73 142.992V148H141.842V146.96C141.596 147.333 141.244 147.621 140.786 147.824C140.338 148.016 139.794 148.112 139.154 148.112C138.514 148.112 137.954 148.005 137.474 147.792C136.994 147.568 136.62 147.264 136.354 146.88C136.098 146.485 135.97 146.043 135.97 145.552C135.97 144.784 136.252 144.171 136.818 143.712C137.394 143.243 138.295 143.008 139.522 143.008H141.73V142.88C141.73 142.283 141.548 141.824 141.186 141.504C140.834 141.184 140.306 141.024 139.602 141.024C139.122 141.024 138.647 141.099 138.178 141.248C137.719 141.397 137.33 141.605 137.01 141.872L136.226 140.416C136.674 140.075 137.212 139.813 137.842 139.632C138.471 139.451 139.138 139.36 139.842 139.36ZM139.57 146.656C140.071 146.656 140.514 146.544 140.898 146.32C141.292 146.085 141.57 145.755 141.73 145.328V144.336H139.666C138.514 144.336 137.938 144.715 137.938 145.472C137.938 145.835 138.082 146.123 138.37 146.336C138.658 146.549 139.058 146.656 139.57 146.656ZM151.032 139.36C151.864 139.36 152.606 139.541 153.256 139.904C153.918 140.267 154.435 140.779 154.808 141.44C155.182 142.101 155.368 142.864 155.368 143.728C155.368 144.592 155.182 145.36 154.808 146.032C154.435 146.693 153.918 147.205 153.256 147.568C152.606 147.931 151.864 148.112 151.032 148.112C150.446 148.112 149.907 148.011 149.416 147.808C148.936 147.605 148.531 147.301 148.2 146.896V148H146.296V136.128H148.296V140.496C148.638 140.123 149.038 139.84 149.496 139.648C149.966 139.456 150.478 139.36 151.032 139.36ZM150.808 146.4C151.544 146.4 152.147 146.155 152.616 145.664C153.096 145.173 153.336 144.528 153.336 143.728C153.336 142.928 153.096 142.283 152.616 141.792C152.147 141.301 151.544 141.056 150.808 141.056C150.328 141.056 149.896 141.168 149.512 141.392C149.128 141.605 148.824 141.915 148.6 142.32C148.376 142.725 148.264 143.195 148.264 143.728C148.264 144.261 148.376 144.731 148.6 145.136C148.824 145.541 149.128 145.856 149.512 146.08C149.896 146.293 150.328 146.4 150.808 146.4ZM159.905 148.112C159.212 148.112 158.534 148.021 157.873 147.84C157.212 147.659 156.684 147.429 156.289 147.152L157.057 145.632C157.441 145.888 157.9 146.096 158.433 146.256C158.977 146.405 159.51 146.48 160.033 146.48C161.228 146.48 161.825 146.165 161.825 145.536C161.825 145.237 161.67 145.029 161.361 144.912C161.062 144.795 160.577 144.683 159.905 144.576C159.201 144.469 158.625 144.347 158.177 144.208C157.74 144.069 157.356 143.829 157.025 143.488C156.705 143.136 156.545 142.651 156.545 142.032C156.545 141.221 156.881 140.576 157.553 140.096C158.236 139.605 159.153 139.36 160.305 139.36C160.892 139.36 161.478 139.429 162.065 139.568C162.652 139.696 163.132 139.872 163.505 140.096L162.737 141.616C162.012 141.189 161.196 140.976 160.289 140.976C159.702 140.976 159.254 141.067 158.945 141.248C158.646 141.419 158.497 141.648 158.497 141.936C158.497 142.256 158.657 142.485 158.977 142.624C159.308 142.752 159.814 142.875 160.497 142.992C161.18 143.099 161.74 143.221 162.177 143.36C162.614 143.499 162.988 143.733 163.297 144.064C163.617 144.395 163.777 144.864 163.777 145.472C163.777 146.272 163.43 146.912 162.737 147.392C162.044 147.872 161.1 148.112 159.905 148.112Z" fill="black"/>
<path d="M53.7706 85.6294V89.0335C53.3079 89.0335 52.8641 88.8542 52.5369 88.535C52.2097 88.2158 52.0259 87.7829 52.0259 87.3315C52.0259 86.8801 52.2097 86.4472 52.5369 86.128C52.8641 85.8088 53.3079 85.6294 53.7706 85.6294Z" fill="#F4E9B8"/>
<path d="M55.5428 87.274C55.5508 87.7268 55.3749 88.1644 55.0537 88.4913C54.7324 88.8182 54.2917 89.008 53.8276 89.0193V85.6152C54.2788 85.6189 54.7106 85.7944 55.0311 86.1043C55.3515 86.4142 55.5351 86.8339 55.5428 87.274Z" fill="#F4E9B8"/>
<path d="M57.1386 82.788V86.1776C56.897 86.1994 56.6533 86.1718 56.4233 86.0965C56.1932 86.0212 55.9818 85.9 55.8025 85.7405C55.6232 85.581 55.48 85.3867 55.382 85.1702C55.284 84.9536 55.2334 84.7195 55.2334 84.4828C55.2334 84.2461 55.284 84.012 55.382 83.7954C55.48 83.5789 55.6232 83.3846 55.8025 83.2251C55.9818 83.0656 56.1932 82.9444 56.4233 82.8691C56.6533 82.7938 56.897 82.7662 57.1386 82.788Z" fill="#9BB8CE"/>
<path d="M58.9152 84.3893C58.9211 84.6121 58.8817 84.8339 58.7993 85.0418C58.7168 85.2496 58.593 85.4395 58.4349 85.6004C58.2768 85.7614 58.0876 85.8902 57.8781 85.9794C57.6687 86.0686 57.4433 86.1164 57.2148 86.1202V82.7305C57.6634 82.7379 58.0915 82.915 58.4088 83.2245C58.726 83.534 58.9076 83.9516 58.9152 84.3893Z" fill="#9BB8CE"/>
<path d="M53.3253 80.4946V83.8988C52.8626 83.8988 52.4188 83.7195 52.0916 83.4003C51.7644 83.0811 51.5806 82.6481 51.5806 82.1967C51.5806 81.7453 51.7644 81.3123 52.0916 80.9931C52.4188 80.6739 52.8626 80.4946 53.3253 80.4946Z" fill="#FFDF5A"/>
<path d="M55.0995 82.1678C55.1034 82.3914 55.0621 82.6135 54.978 82.8214C54.8939 83.0294 54.7687 83.2192 54.6094 83.3799C54.4501 83.5407 54.26 83.6692 54.0498 83.7582C53.8395 83.8472 53.6134 83.895 53.3843 83.8988V80.4946C53.8368 80.502 54.2687 80.6807 54.5887 80.9929C54.9087 81.3051 55.0918 81.7264 55.0995 82.1678Z" fill="#FFDF5A"/>
<path d="M123.796 88.4856L121.342 86.0767C121.5 85.9016 121.693 85.76 121.909 85.6607C122.125 85.5614 122.36 85.5065 122.599 85.4993C122.838 85.4922 123.075 85.533 123.297 85.6192C123.52 85.7055 123.721 85.8353 123.89 86.0007C124.058 86.166 124.19 86.3634 124.277 86.5805C124.364 86.7976 124.404 87.0299 124.396 87.2629C124.387 87.4959 124.329 87.7246 124.226 87.9349C124.123 88.1452 123.977 88.3327 123.796 88.4856Z" fill="#F4E9B8"/>
<path d="M121.339 88.471C121.177 88.3142 121.049 88.1277 120.961 87.9222C120.874 87.7167 120.829 87.4964 120.829 87.2738C120.829 87.0513 120.874 86.831 120.961 86.6255C121.049 86.42 121.177 86.2335 121.339 86.0767L123.794 88.4855C123.633 88.6442 123.441 88.7699 123.23 88.8553C123.019 88.9406 122.792 88.9839 122.563 88.9826C122.335 88.9812 122.109 88.9353 121.898 88.8474C121.688 88.7596 121.498 88.6316 121.339 88.471Z" fill="#F4E9B8"/>
<path d="M123.384 92.813L120.944 90.4042C121.106 90.246 121.298 90.1206 121.51 90.035C121.722 89.9494 121.949 89.9053 122.178 89.9053C122.408 89.9053 122.635 89.9494 122.847 90.035C123.058 90.1206 123.251 90.246 123.413 90.4042C123.575 90.5624 123.704 90.7501 123.792 90.9568C123.879 91.1634 123.925 91.3849 123.925 91.6086C123.925 91.8323 123.879 92.0538 123.792 92.2604C123.704 92.4671 123.575 92.6549 123.413 92.813H123.384Z" fill="#9BB8CE"/>
<path d="M120.945 92.8126C120.782 92.6545 120.654 92.4668 120.566 92.2601C120.478 92.0535 120.433 91.8319 120.433 91.6082C120.433 91.3845 120.478 91.163 120.566 90.9563C120.654 90.7496 120.782 90.5619 120.945 90.4038L123.414 92.8126C123.252 92.9709 123.059 93.0966 122.847 93.1823C122.636 93.2679 122.409 93.312 122.179 93.312C121.95 93.312 121.723 93.2679 121.511 93.1823C121.299 93.0966 121.107 92.9709 120.945 92.8126Z" fill="#9BB8CE"/>
<path d="M127.759 91.8899L125.378 89.4811C125.539 89.3232 125.73 89.1979 125.941 89.1124C126.152 89.0269 126.378 88.9829 126.606 88.9829C126.834 88.9829 127.06 89.0269 127.27 89.1124C127.481 89.1979 127.672 89.3232 127.833 89.4811C127.99 89.6439 128.113 89.8353 128.195 90.0446C128.277 90.2538 128.315 90.4767 128.308 90.7005C128.301 90.9242 128.249 91.1444 128.155 91.3485C128.061 91.5527 127.926 91.7366 127.759 91.8899Z" fill="#FFDF5A"/>
<path d="M125.291 91.8898C125.127 91.7327 124.996 91.5453 124.907 91.3385C124.818 91.1317 124.772 90.9096 124.772 90.6854C124.772 90.4611 124.818 90.2391 124.907 90.0323C124.996 89.8255 125.127 89.6381 125.291 89.481L127.745 91.8898C127.418 92.2052 126.977 92.382 126.518 92.382C126.058 92.382 125.617 92.2052 125.291 91.8898Z" fill="#FFDF5A"/>
<path d="M109.572 85.6152L110.164 88.9617C109.931 89.0173 109.689 89.0257 109.453 88.9863C109.217 88.9469 108.992 88.8606 108.792 88.7326C108.592 88.6047 108.421 88.438 108.289 88.2427C108.158 88.0475 108.069 87.828 108.028 87.5978C107.988 87.3677 107.996 87.1318 108.053 86.905C108.109 86.6781 108.214 86.4651 108.358 86.2791C108.503 86.0931 108.686 85.9382 108.894 85.824C109.103 85.7098 109.334 85.6387 109.572 85.6152Z" fill="#F4E9B8"/>
<path d="M111.584 87.0001C111.624 87.2242 111.617 87.4538 111.564 87.6752C111.51 87.8966 111.412 88.1052 111.273 88.2884C111.135 88.4716 110.961 88.6257 110.76 88.7414C110.559 88.8572 110.337 88.9322 110.106 88.9619L109.514 85.6154C109.744 85.5675 109.981 85.5657 110.211 85.6102C110.442 85.6546 110.66 85.7443 110.854 85.8739C111.048 86.0035 111.212 86.1701 111.338 86.3637C111.463 86.5574 111.547 86.7739 111.584 87.0001Z" fill="#F4E9B8"/>
<path d="M112.454 82.2979L113.061 85.6443C112.829 85.6979 112.589 85.7049 112.355 85.6648C112.121 85.6247 111.898 85.5383 111.699 85.411C111.5 85.2837 111.33 85.1181 111.2 84.9244C111.069 84.7307 110.98 84.513 110.939 84.2846C110.897 84.0562 110.904 83.822 110.959 83.5964C111.014 83.3707 111.115 83.1583 111.257 82.9723C111.399 82.7862 111.578 82.6304 111.784 82.5145C111.99 82.3985 112.218 82.3248 112.454 82.2979Z" fill="#9BB8CE"/>
<path d="M114.481 83.6826C114.519 83.9065 114.511 84.1354 114.456 84.356C114.402 84.5766 114.303 84.7843 114.165 84.9671C114.028 85.1499 113.854 85.3039 113.654 85.4202C113.454 85.5365 113.233 85.6127 113.003 85.6443L112.396 82.2979C112.627 82.252 112.864 82.2516 113.095 82.2968C113.325 82.342 113.544 82.4317 113.739 82.5608C113.933 82.6899 114.099 82.8557 114.226 83.0484C114.354 83.241 114.441 83.4567 114.481 83.6826Z" fill="#9BB8CE"/>
<path d="M108.331 80.6099L108.923 83.9563C108.69 84.012 108.449 84.0203 108.213 83.9809C107.977 83.9415 107.752 83.8552 107.551 83.7273C107.351 83.5993 107.18 83.4326 107.048 83.2374C106.917 83.0421 106.828 82.8226 106.788 82.5924C106.747 82.3623 106.755 82.1265 106.812 81.8996C106.869 81.6727 106.973 81.4597 107.118 81.2737C107.262 81.0877 107.445 80.9329 107.654 80.8186C107.863 80.7044 108.093 80.6334 108.331 80.6099Z" fill="#FFDF5A"/>
<path d="M110.341 81.9949C110.379 82.2188 110.37 82.4477 110.316 82.6683C110.262 82.8889 110.163 83.0967 110.025 83.2794C109.887 83.4622 109.714 83.6162 109.514 83.7325C109.314 83.8488 109.093 83.925 108.862 83.9566L108.271 80.6102C108.5 80.5644 108.737 80.5642 108.967 80.6095C109.196 80.6548 109.414 80.7448 109.607 80.874C109.8 81.0032 109.965 81.1691 110.091 81.3617C110.217 81.5542 110.302 81.7696 110.341 81.9949Z" fill="#FFDF5A"/>
<path d="M79.5397 89.7261L81.6393 92.4522C81.2704 92.7231 80.8065 92.8403 80.3492 92.7781C79.8919 92.7159 79.4785 92.4794 79.1996 92.1205C78.9211 91.7583 78.8006 91.3034 78.8643 90.8549C78.928 90.4065 79.1708 90.0008 79.5397 89.7261Z" fill="#F4E9B8"/>
<path d="M82.0117 90.0721C82.2878 90.4337 82.4055 90.8875 82.339 91.3337C82.2725 91.7799 82.0271 92.1821 81.6569 92.4521L79.5425 89.7259C79.7277 89.5899 79.9386 89.4909 80.1632 89.4347C80.3877 89.3785 80.6214 89.3662 80.8509 89.3983C81.0803 89.4305 81.301 89.5066 81.5002 89.6222C81.6994 89.7378 81.8733 89.8907 82.0117 90.0721Z" fill="#F4E9B8"/>
<path d="M82.6315 86.0047L84.7311 88.7164C84.3605 88.9881 83.8945 89.1049 83.4356 89.0413C82.9767 88.9778 82.5625 88.739 82.284 88.3775C82.0056 88.016 81.8858 87.5613 81.951 87.1137C82.0161 86.666 82.2609 86.2618 82.6315 85.9902V86.0047Z" fill="#AA9BCC"/>
<path d="M85.0853 86.3367C85.3622 86.7007 85.4803 87.1567 85.4138 87.6053C85.3473 88.0538 85.1017 88.4586 84.7305 88.7311L82.6309 86.0049C83.0021 85.7333 83.4684 85.6157 83.9281 85.6779C84.3878 85.74 84.8038 85.9768 85.0853 86.3367Z" fill="#AA9BCC"/>
<path d="M78.1681 86.3223L80.2677 89.0485C79.8972 89.3201 79.4311 89.4369 78.9722 89.3734C78.5133 89.3098 78.0991 89.071 77.8206 88.7095C77.5422 88.348 77.4224 87.8934 77.4876 87.4457C77.5527 86.998 77.7975 86.5939 78.1681 86.3223Z" fill="#FFDF5A"/>
<path d="M80.6067 86.668C80.8843 87.0279 81.0045 87.4804 80.9407 87.9265C80.877 88.3726 80.6346 88.7759 80.2666 89.048L78.167 86.3218C78.5377 86.0525 79.0028 85.9377 79.4602 86.0026C79.9177 86.0675 80.33 86.3068 80.6067 86.668Z" fill="#FFDF5A"/>
<path d="M69.0463 83.8696L66.7693 86.4515C66.5955 86.3056 66.4529 86.1278 66.3495 85.9282C66.2462 85.7285 66.1842 85.511 66.167 85.288C66.1498 85.065 66.1779 84.8409 66.2495 84.6284C66.3211 84.416 66.435 84.2194 66.5845 84.0499C66.734 83.8803 66.9163 83.7412 67.1209 83.6404C67.3255 83.5395 67.5485 83.479 67.7771 83.4623C68.0057 83.4456 68.2355 83.4729 68.4533 83.5428C68.671 83.6126 68.8726 83.7237 69.0463 83.8696Z" fill="#F4E9B8"/>
<path d="M69.1918 86.2645C69.0441 86.4353 68.8631 86.5757 68.6593 86.6777C68.4555 86.7797 68.233 86.8412 68.0047 86.8586C67.7764 86.8761 67.5468 86.8491 67.3292 86.7793C67.1116 86.7095 66.9105 86.5983 66.7373 86.452L69.0144 83.8701C69.1883 84.0152 69.3311 84.1925 69.4343 84.3918C69.5375 84.5911 69.5991 84.8085 69.6156 85.0312C69.6321 85.2539 69.6032 85.4776 69.5304 85.6893C69.4577 85.901 69.3426 86.0965 69.1918 86.2645Z" fill="#F4E9B8"/>
<path d="M73.4918 83.9421L71.2296 86.5241C70.9129 86.2223 70.7257 85.8144 70.7059 85.383C70.686 84.9516 70.835 84.5289 71.1226 84.2007C71.4102 83.8724 71.815 83.6631 72.2549 83.615C72.6948 83.567 73.137 83.684 73.4918 83.9421Z" fill="#9BB8CE"/>
<path d="M73.6264 86.3363C73.4786 86.5071 73.2977 86.6475 73.0939 86.7495C72.8901 86.8515 72.6676 86.913 72.4393 86.9304C72.211 86.9479 71.9813 86.9209 71.7638 86.8511C71.5462 86.7813 71.345 86.6701 71.1719 86.5238L73.4341 83.9419C73.6092 84.086 73.7531 84.2625 73.8577 84.4613C73.9622 84.6601 74.0253 84.8772 74.0431 85.0999C74.061 85.3227 74.0334 85.5466 73.9618 85.7589C73.8903 85.9711 73.7763 86.1674 73.6264 86.3363Z" fill="#9BB8CE"/>
<path d="M72.1474 79.7445L69.8704 82.3265C69.5194 82.0319 69.3027 81.6134 69.2681 81.163C69.2334 80.7126 69.3836 80.2672 69.6855 79.9248C69.9875 79.5824 70.4165 79.3711 70.8782 79.3373C71.3399 79.3035 71.7964 79.45 72.1474 79.7445Z" fill="#FFDF5A"/>
<path d="M72.4004 82.1535C72.0952 82.4938 71.6646 82.7029 71.2023 82.7353C70.7399 82.7677 70.2831 82.6209 69.9312 82.3266L72.1491 79.7446C72.5088 80.0322 72.7372 80.4471 72.7843 80.8985C72.8314 81.3499 72.6934 81.8011 72.4004 82.1535Z" fill="#FFDF5A"/>
<path d="M57.8196 84.5044C58.7342 84.5044 59.4756 83.7812 59.4756 82.8889C59.4756 81.9967 58.7342 81.2734 57.8196 81.2734C56.905 81.2734 56.1636 81.9967 56.1636 82.8889C56.1636 83.7812 56.905 84.5044 57.8196 84.5044Z" stroke="#F7CE23" stroke-width="0.2" stroke-miterlimit="10" stroke-linecap="round"/>
<path d="M63.157 84.8218C64.0716 84.8218 64.813 84.0986 64.813 83.2063C64.813 82.3141 64.0716 81.5908 63.157 81.5908C62.2424 81.5908 61.501 82.3141 61.501 83.2063C61.501 84.0986 62.2424 84.8218 63.157 84.8218Z" stroke="#B8CCDD" stroke-width="0.2" stroke-miterlimit="10" stroke-linecap="round"/>
<path d="M60.8357 81.5044C61.7503 81.5044 62.4917 80.7812 62.4917 79.8889C62.4917 78.9967 61.7503 78.2734 60.8357 78.2734C59.9211 78.2734 59.1797 78.9967 59.1797 79.8889C59.1797 80.7812 59.9211 81.5044 60.8357 81.5044Z" stroke="#F4E9B8" stroke-width="0.2" stroke-miterlimit="10" stroke-linecap="round"/>
<path d="M104.235 88.6588C105.15 88.6588 105.891 87.9355 105.891 87.0432C105.891 86.151 105.15 85.4277 104.235 85.4277C103.321 85.4277 102.579 86.151 102.579 87.0432C102.579 87.9355 103.321 88.6588 104.235 88.6588Z" stroke="#F7CE23" stroke-width="0.2" stroke-miterlimit="10" stroke-linecap="round"/>
<path d="M109.558 88.1827C110.473 88.1827 111.214 87.4594 111.214 86.5672C111.214 85.675 110.473 84.9517 109.558 84.9517C108.644 84.9517 107.902 85.675 107.902 86.5672C107.902 87.4594 108.644 88.1827 109.558 88.1827Z" stroke="#B8CCDD" stroke-width="0.2" stroke-miterlimit="10" stroke-linecap="round"/>
<path d="M106.746 85.2403C107.66 85.2403 108.402 84.517 108.402 83.6248C108.402 82.7326 107.66 82.0093 106.746 82.0093C105.831 82.0093 105.09 82.7326 105.09 83.6248C105.09 84.517 105.831 85.2403 106.746 85.2403Z" stroke="#F4E9B8" stroke-width="0.2" stroke-miterlimit="10" stroke-linecap="round"/>
<path d="M121.844 91.3849C122.758 91.3849 123.5 90.6615 123.5 89.7693C123.5 88.8771 122.758 88.1538 121.844 88.1538C120.929 88.1538 120.188 88.8771 120.188 89.7693C120.188 90.6615 120.929 91.3849 121.844 91.3849Z" stroke="#F7CE23" stroke-width="0.2" stroke-miterlimit="10" stroke-linecap="round"/>
<path d="M116.935 89.3077C117.849 89.3077 118.591 88.5844 118.591 87.6922C118.591 86.8 117.849 86.0767 116.935 86.0767C116.02 86.0767 115.279 86.8 115.279 87.6922C115.279 88.5844 116.02 89.3077 116.935 89.3077Z" stroke="#B8CCDD" stroke-width="0.2" stroke-miterlimit="10" stroke-linecap="round"/>
<path d="M117.955 93.2022C118.87 93.2022 119.611 92.4789 119.611 91.5867C119.611 90.6945 118.87 89.9712 117.955 89.9712C117.041 89.9712 116.299 90.6945 116.299 91.5867C116.299 92.4789 117.041 93.2022 117.955 93.2022Z" stroke="#F4E9B8" stroke-width="0.2" stroke-miterlimit="10" stroke-linecap="round"/>
<path d="M73.3928 89.106C74.3074 89.106 75.0489 88.3827 75.0489 87.4905C75.0489 86.5983 74.3074 85.875 73.3928 85.875C72.4782 85.875 71.7368 86.5983 71.7368 87.4905C71.7368 88.3827 72.4782 89.106 73.3928 89.106Z" stroke="#F7CE23" stroke-width="0.2" stroke-miterlimit="10" stroke-linecap="round"/>
<path d="M78.1057 86.6392C79.0203 86.6392 79.7618 85.9159 79.7618 85.0237C79.7618 84.1315 79.0203 83.4082 78.1057 83.4082C77.1911 83.4082 76.4497 84.1315 76.4497 85.0237C76.4497 85.9159 77.1911 86.6392 78.1057 86.6392Z" stroke="#B8CCDD" stroke-width="0.2" stroke-miterlimit="10" stroke-linecap="round"/>
<path d="M74.3352 84.9952C75.2498 84.9952 75.9913 84.2719 75.9913 83.3797C75.9913 82.4874 75.2498 81.7642 74.3352 81.7642C73.4206 81.7642 72.6792 82.4874 72.6792 83.3797C72.6792 84.2719 73.4206 84.9952 74.3352 84.9952Z" stroke="#F4E9B8" stroke-width="0.2" stroke-miterlimit="10" stroke-linecap="round"/>
<path d="M84.7918 94.9766C85.7064 94.9766 86.4478 94.2533 86.4478 93.3611C86.4478 92.4689 85.7064 91.7456 84.7918 91.7456C83.8772 91.7456 83.1357 92.4689 83.1357 93.3611C83.1357 94.2533 83.8772 94.9766 84.7918 94.9766Z" stroke="#F7CE23" stroke-width="0.2" stroke-miterlimit="10" stroke-linecap="round"/>
<path d="M89.3172 92.193C90.2318 92.193 90.9732 91.4697 90.9732 90.5775C90.9732 89.6852 90.2318 88.9619 89.3172 88.9619C88.4026 88.9619 87.6611 89.6852 87.6611 90.5775C87.6611 91.4697 88.4026 92.193 89.3172 92.193Z" stroke="#AA9BCC" stroke-width="0.2" stroke-miterlimit="10" stroke-linecap="round"/>
<path d="M85.4412 90.8223C86.3558 90.8223 87.0972 90.099 87.0972 89.2068C87.0972 88.3146 86.3558 87.5913 85.4412 87.5913C84.5266 87.5913 83.7852 88.3146 83.7852 89.2068C83.7852 90.099 84.5266 90.8223 85.4412 90.8223Z" stroke="#F4E9B8" stroke-width="0.2" stroke-miterlimit="10" stroke-linecap="round"/>
<path d="M92.0201 83.9277L93.9127 86.8126C93.5206 87.0574 93.0448 87.1403 92.59 87.0429C92.1353 86.9455 91.7388 86.6759 91.4878 86.2933C91.2369 85.9108 91.1519 85.4466 91.2518 85.003C91.3516 84.5594 91.628 84.1726 92.0201 83.9277Z" fill="#F4E9B8"/>
<path d="M94.4464 84.3894C94.6963 84.7723 94.7806 85.2361 94.6808 85.6794C94.5811 86.1228 94.3054 86.5095 93.9141 86.755L92.0215 83.8702C92.415 83.6302 92.8892 83.5501 93.3425 83.6472C93.7958 83.7443 94.1921 84.0107 94.4464 84.3894Z" fill="#F4E9B8"/>
<path d="M93.3644 79.7734L95.257 82.6583C94.8648 82.9031 94.389 82.986 93.9343 82.8886C93.4795 82.7912 93.083 82.5216 92.8321 82.139C92.5811 81.7565 92.4962 81.2923 92.596 80.8487C92.6958 80.4051 92.9722 80.0183 93.3644 79.7734Z" fill="#AA9BCC"/>
<path d="M95.8047 80.2927C95.9307 80.4797 96.0173 80.6893 96.0595 80.9093C96.1017 81.1292 96.0986 81.3552 96.0504 81.574C96.0023 81.7928 95.91 82 95.7789 82.1837C95.6479 82.3674 95.4807 82.5238 95.2871 82.6439L93.3945 79.759C93.5886 79.6393 93.805 79.5582 94.0312 79.5202C94.2575 79.4823 94.4893 79.4883 94.7132 79.5378C94.9371 79.5874 95.1487 79.6796 95.336 79.8091C95.5233 79.9387 95.6826 80.103 95.8047 80.2927Z" fill="#AA9BCC"/>
<path d="M88.8868 79.7876L90.7794 82.6724C90.3873 82.9173 89.9115 83.0001 89.4567 82.9028C89.002 82.8054 88.6055 82.5357 88.3545 82.1532C88.1036 81.7706 88.0186 81.3065 88.1185 80.8629C88.2183 80.4192 88.4947 80.0324 88.8868 79.7876Z" fill="#FFDF5A"/>
<path d="M91.3701 80.2927C91.6214 80.6738 91.708 81.1363 91.611 81.5795C91.5141 82.0226 91.2414 82.4104 90.8526 82.6582L88.96 79.7734C89.3512 79.5341 89.8231 79.4545 90.274 79.5516C90.7249 79.6488 91.1185 79.9149 91.3701 80.2927Z" fill="#FFDF5A"/>
<path d="M94.2239 88.8897C95.1385 88.8897 95.8799 88.1664 95.8799 87.2742C95.8799 86.382 95.1385 85.6587 94.2239 85.6587C93.3093 85.6587 92.5679 86.382 92.5679 87.2742C92.5679 88.1664 93.3093 88.8897 94.2239 88.8897Z" stroke="#F7CE23" stroke-width="0.2" stroke-miterlimit="10" stroke-linecap="round"/>
<path d="M98.9426 86.423C99.8573 86.423 100.599 85.6997 100.599 84.8074C100.599 83.9152 99.8573 83.1919 98.9426 83.1919C98.028 83.1919 97.2866 83.9152 97.2866 84.8074C97.2866 85.6997 98.028 86.423 98.9426 86.423Z" stroke="#B8CCDD" stroke-width="0.2" stroke-miterlimit="10" stroke-linecap="round"/>
<path d="M95.1843 84.793C96.0989 84.793 96.8404 84.0697 96.8404 83.1775C96.8404 82.2853 96.0989 81.562 95.1843 81.562C94.2697 81.562 93.5283 82.2853 93.5283 83.1775C93.5283 84.0697 94.2697 84.793 95.1843 84.793Z" stroke="#F4E9B8" stroke-width="0.2" stroke-miterlimit="10" stroke-linecap="round"/>
<path d="M132.221 89.4807L132.295 86.091C132.054 86.0649 131.811 86.0879 131.58 86.1587C131.348 86.2295 131.135 86.3465 130.953 86.5022C130.77 86.658 130.623 86.8491 130.521 87.0633C130.419 87.2775 130.363 87.5101 130.358 87.7465C130.353 87.9828 130.398 88.2175 130.491 88.4357C130.584 88.654 130.723 88.851 130.898 89.0142C131.073 89.1773 131.281 89.3031 131.509 89.3834C131.737 89.4637 131.98 89.4969 132.221 89.4807Z" fill="#F4E9B8"/>
<path d="M133.999 87.8222C134.005 87.5994 133.966 87.3776 133.883 87.1697C133.801 86.9619 133.677 86.772 133.519 86.611C133.361 86.4501 133.172 86.3213 132.962 86.2321C132.753 86.1429 132.527 86.095 132.299 86.0913L132.225 89.481C132.454 89.4868 132.681 89.4483 132.894 89.3679C133.107 89.2875 133.302 89.1666 133.467 89.0124C133.632 88.8582 133.764 88.6736 133.855 88.4693C133.947 88.265 133.996 88.0451 133.999 87.8222Z" fill="#F4E9B8"/>
<path d="M135.608 92.3368V88.9327C135.38 88.9269 135.152 88.9654 134.939 89.0458C134.726 89.1263 134.531 89.2471 134.366 89.4013C134.202 89.5555 134.069 89.7402 133.978 89.9444C133.887 90.1487 133.838 90.3686 133.834 90.5915C133.83 90.8205 133.873 91.0481 133.96 91.2606C134.048 91.4732 134.178 91.6664 134.344 91.8291C134.509 91.9917 134.706 92.1205 134.923 92.2077C135.14 92.2949 135.373 92.3388 135.608 92.3368Z" fill="#9BB8CE"/>
<path d="M137.383 90.6635C137.387 90.44 137.346 90.2179 137.262 90.0099C137.178 89.802 137.052 89.6122 136.893 89.4515C136.734 89.2907 136.544 89.1622 136.333 89.0732C136.123 88.9841 135.897 88.9364 135.668 88.9326V92.3368C136.12 92.3293 136.552 92.1506 136.872 91.8385C137.192 91.5263 137.376 91.105 137.383 90.6635Z" fill="#9BB8CE"/>
<path d="M131.78 94.6158V91.2117C131.551 91.2079 131.323 91.2481 131.11 91.3301C130.897 91.4122 130.702 91.5343 130.537 91.6897C130.373 91.8451 130.241 92.0306 130.15 92.2357C130.058 92.4408 130.009 92.6614 130.005 92.8849C129.999 93.1138 130.041 93.3416 130.128 93.5543C130.215 93.767 130.346 93.9601 130.512 94.1221C130.678 94.284 130.876 94.4113 131.094 94.4961C131.312 94.581 131.545 94.6217 131.78 94.6158Z" fill="#FFDF5A"/>
<path d="M133.554 92.9572C133.56 92.7337 133.521 92.5112 133.439 92.3025C133.356 92.0938 133.233 91.9029 133.075 91.7408C132.917 91.5788 132.728 91.4486 132.518 91.3579C132.309 91.2671 132.083 91.2175 131.854 91.2119V94.616C132.303 94.6086 132.731 94.4315 133.048 94.122C133.365 93.8125 133.547 93.3949 133.554 92.9572Z" fill="#FFDF5A"/>
<path d="M202.267 86.625L199.797 89.0483C200.127 89.3677 200.573 89.5464 201.037 89.5451C201.502 89.5437 201.947 89.3624 202.274 89.0411C202.601 88.7197 202.785 88.2847 202.783 87.8316C202.782 87.3785 202.596 86.9444 202.267 86.625Z" fill="#F4E9B8"/>
<path d="M199.796 86.6395C199.634 86.7975 199.505 86.9853 199.417 87.1919C199.329 87.3986 199.284 87.6201 199.284 87.8439C199.284 88.0676 199.329 88.2891 199.417 88.4958C199.505 88.7025 199.634 88.8902 199.796 89.0483L202.265 86.625C202.102 86.4676 201.909 86.3432 201.697 86.2587C201.484 86.1743 201.257 86.1315 201.028 86.1328C200.798 86.1342 200.572 86.1796 200.36 86.2665C200.149 86.3535 199.957 86.4802 199.796 86.6395Z" fill="#F4E9B8"/>
<path d="M201.833 82.2979L199.379 84.7067C199.537 84.8818 199.73 85.0234 199.946 85.1227C200.162 85.2221 200.397 85.277 200.636 85.2841C200.875 85.2913 201.113 85.2504 201.335 85.1642C201.557 85.0779 201.758 84.9481 201.927 84.7828C202.095 84.6174 202.227 84.42 202.314 84.2029C202.401 83.9858 202.442 83.7536 202.433 83.5206C202.424 83.2876 202.366 83.0588 202.263 82.8485C202.16 82.6382 202.014 82.4507 201.833 82.2979Z" fill="#AA9BCC"/>
<path d="M199.311 82.2974C199.149 82.4555 199.02 82.6433 198.932 82.8499C198.845 83.0566 198.799 83.2781 198.799 83.5019C198.799 83.7256 198.845 83.9471 198.932 84.1538C199.02 84.3605 199.149 84.5482 199.311 84.7063L201.766 82.2974C201.439 81.9821 200.998 81.8052 200.538 81.8052C200.079 81.8052 199.638 81.9821 199.311 82.2974Z" fill="#AA9BCC"/>
<path d="M206.229 83.2207L203.745 85.644C204.075 85.9634 204.521 86.1421 204.985 86.1408C205.449 86.1394 205.894 85.9581 206.222 85.6367C206.549 85.3154 206.732 84.8803 206.731 84.4272C206.73 83.9741 206.544 83.5401 206.214 83.2207H206.229Z" fill="#FFDF5A"/>
<path d="M203.744 83.2349C203.582 83.393 203.453 83.5808 203.365 83.7874C203.277 83.9941 203.232 84.2156 203.232 84.4393C203.232 84.6631 203.277 84.8846 203.365 85.0913C203.453 85.2979 203.582 85.4857 203.744 85.6438L206.213 83.2205C206.051 83.0614 205.858 82.9354 205.646 82.8498C205.433 82.7643 205.205 82.7209 204.975 82.7222C204.745 82.7235 204.518 82.7696 204.307 82.8576C204.095 82.9456 203.904 83.0739 203.744 83.2349Z" fill="#FFDF5A"/>
<path d="M188.026 89.4956L188.632 86.1492C188.402 86.1123 188.166 86.1204 187.939 86.1732C187.712 86.226 187.498 86.3223 187.309 86.4565C187.121 86.5908 186.962 86.7602 186.841 86.9551C186.72 87.15 186.64 87.3663 186.606 87.5916C186.546 88.0262 186.66 88.4669 186.924 88.8216C187.189 89.1764 187.583 89.4178 188.026 89.4956Z" fill="#F4E9B8"/>
<path d="M190.053 88.125C190.092 87.9001 190.086 87.6697 190.032 87.4474C189.979 87.2251 189.881 87.0156 189.743 86.8312C189.605 86.6469 189.43 86.4915 189.229 86.3743C189.029 86.257 188.806 86.1804 188.574 86.1489L187.968 89.4954C188.197 89.5434 188.434 89.5458 188.665 89.5024C188.895 89.459 189.114 89.3707 189.309 89.2428C189.504 89.1148 189.67 88.9499 189.798 88.7579C189.925 88.5658 190.012 88.3506 190.053 88.125Z" fill="#F4E9B8"/>
<path d="M190.922 92.813L191.514 89.4665C191.281 89.4109 191.039 89.4025 190.803 89.4419C190.567 89.4813 190.342 89.5676 190.142 89.6956C189.942 89.8235 189.771 89.9902 189.639 90.1855C189.508 90.3807 189.419 90.6002 189.378 90.8303C189.338 91.0605 189.346 91.2963 189.403 91.5232C189.46 91.7501 189.564 91.9631 189.708 92.1491C189.853 92.3351 190.036 92.49 190.245 92.6042C190.453 92.7184 190.684 92.7895 190.922 92.813Z" fill="#9BB8CE"/>
<path d="M192.934 91.428C192.976 91.2037 192.971 90.9734 192.918 90.7512C192.866 90.529 192.767 90.3196 192.629 90.1359C192.49 89.9522 192.315 89.7981 192.113 89.6829C191.911 89.5678 191.688 89.494 191.456 89.4663L190.864 92.8128C191.094 92.8606 191.331 92.8624 191.562 92.818C191.792 92.7735 192.011 92.6838 192.204 92.5543C192.398 92.4247 192.563 92.258 192.688 92.0644C192.814 91.8708 192.897 91.6543 192.934 91.428Z" fill="#9BB8CE"/>
<path d="M186.784 94.4859L187.391 91.1394C187.159 91.0858 186.919 91.0788 186.685 91.1189C186.451 91.159 186.228 91.2454 186.029 91.3727C185.83 91.5 185.66 91.6656 185.53 91.8593C185.399 92.053 185.31 92.2707 185.269 92.4991C185.227 92.7275 185.234 92.9617 185.289 93.1874C185.344 93.4131 185.445 93.6254 185.587 93.8115C185.729 93.9975 185.909 94.1533 186.114 94.2693C186.32 94.3853 186.548 94.459 186.784 94.4859Z" fill="#FFDF5A"/>
<path d="M188.811 93.116C188.849 92.8921 188.841 92.6632 188.786 92.4426C188.732 92.222 188.633 92.0143 188.495 91.8315C188.358 91.6487 188.184 91.4946 187.984 91.3784C187.785 91.2621 187.563 91.1859 187.333 91.1543L186.727 94.5007C186.957 94.5487 187.195 94.5506 187.426 94.5063C187.658 94.462 187.877 94.3724 188.072 94.243C188.267 94.1136 188.433 93.947 188.56 93.7533C188.687 93.5596 188.773 93.3428 188.811 93.116Z" fill="#FFDF5A"/>
<path d="M160.067 84.8796L162.166 82.1534C161.796 81.8818 161.33 81.7649 160.871 81.8285C160.412 81.892 159.998 82.1308 159.719 82.4924C159.441 82.8539 159.321 83.3085 159.386 83.7561C159.451 84.2038 159.696 84.6079 160.067 84.8796Z" fill="#F4E9B8"/>
<path d="M162.505 84.5333C162.783 84.1734 162.903 83.7209 162.839 83.2748C162.775 82.8286 162.533 82.4254 162.165 82.1533L160.065 84.8795C160.436 85.1488 160.901 85.2636 161.359 85.1987C161.816 85.1338 162.228 84.8945 162.505 84.5333Z" fill="#F4E9B8"/>
<path d="M161.101 89.1058L163.201 86.3941C163.02 86.2438 162.809 86.1312 162.582 86.0632C162.355 85.9951 162.116 85.9731 161.879 85.9985C161.643 86.0238 161.415 86.0959 161.208 86.2104C161.001 86.3249 160.821 86.4795 160.678 86.6645C160.534 86.8495 160.431 87.0611 160.375 87.2863C160.319 87.5115 160.31 87.7456 160.35 87.9742C160.389 88.2028 160.476 88.4211 160.606 88.6157C160.735 88.8103 160.903 88.977 161.101 89.1058Z" fill="#9BB8CE"/>
<path d="M163.542 88.7164C163.82 88.3565 163.94 87.904 163.876 87.4579C163.813 87.0118 163.57 86.6085 163.202 86.3364L161.103 89.0482C161.471 89.3191 161.935 89.4362 162.393 89.374C162.85 89.3118 163.263 89.0754 163.542 88.7164Z" fill="#9BB8CE"/>
<path d="M156.622 88.7882L158.721 86.0621C158.351 85.7904 157.885 85.6736 157.426 85.7372C156.967 85.8007 156.553 86.0395 156.274 86.401C155.996 86.7625 155.876 87.2172 155.941 87.6648C156.006 88.1125 156.251 88.5166 156.622 88.7882Z" fill="#FFDF5A"/>
<path d="M159.073 88.4425C159.349 88.0808 159.467 87.6271 159.4 87.1809C159.334 86.7347 159.089 86.3324 158.718 86.0625L156.619 88.7887C156.992 89.0588 157.459 89.174 157.919 89.1091C158.379 89.0443 158.794 88.8046 159.073 88.4425Z" fill="#FFDF5A"/>
<path d="M147.559 91.2406L145.223 88.7163C144.874 89.0141 144.66 89.4341 144.627 89.8852C144.593 90.3362 144.744 90.7818 145.046 91.1252C145.199 91.2996 145.387 91.4416 145.599 91.5424C145.811 91.6433 146.042 91.7009 146.277 91.7117C146.512 91.7225 146.747 91.6863 146.968 91.6053C147.188 91.5243 147.39 91.4001 147.559 91.2406Z" fill="#F4E9B8"/>
<path d="M147.691 88.8461C147.386 88.507 146.957 88.2976 146.495 88.2625C146.034 88.2275 145.577 88.3696 145.222 88.6586L147.558 91.2405C147.899 90.9393 148.105 90.5186 148.13 90.0701C148.155 89.6215 147.997 89.1816 147.691 88.8461Z" fill="#F4E9B8"/>
<path d="M151.992 91.1684L149.715 88.5864C149.541 88.7323 149.399 88.9101 149.295 89.1097C149.192 89.3094 149.13 89.5269 149.113 89.7499C149.096 89.9729 149.124 90.197 149.195 90.4095C149.267 90.6219 149.381 90.8185 149.53 90.9881C149.68 91.1576 149.862 91.2967 150.067 91.3975C150.271 91.4984 150.494 91.5589 150.723 91.5756C150.952 91.5923 151.181 91.565 151.399 91.4951C151.617 91.4253 151.818 91.3142 151.992 91.1684Z" fill="#AA9BCC"/>
<path d="M152.142 88.7165C151.994 88.5457 151.813 88.4053 151.61 88.3033C151.406 88.2013 151.183 88.1398 150.955 88.1223C150.727 88.1049 150.497 88.1319 150.279 88.2017C150.062 88.2715 149.861 88.3827 149.688 88.5289L151.994 91.1686C152.175 91.0209 152.323 90.8387 152.429 90.6332C152.535 90.4278 152.597 90.2033 152.611 89.9737C152.624 89.744 152.59 89.514 152.509 89.2978C152.429 89.0816 152.304 88.8838 152.142 88.7165Z" fill="#AA9BCC"/>
<path d="M150.676 95.3661L148.399 92.7842C148.049 93.0774 147.832 93.4939 147.796 93.9427C147.76 94.3914 147.907 94.8358 148.207 95.1786C148.512 95.5178 148.941 95.7271 149.402 95.7622C149.863 95.7972 150.32 95.6551 150.676 95.3661Z" fill="#FFDF5A"/>
<path d="M150.857 92.9572C150.709 92.7875 150.527 92.6482 150.322 92.5476C150.118 92.4469 149.895 92.3867 149.667 92.3706C149.439 92.3545 149.21 92.3828 148.993 92.4538C148.775 92.5247 148.575 92.637 148.403 92.7841L150.68 95.366C151.029 95.0683 151.243 94.6483 151.276 94.1972C151.31 93.7462 151.159 93.3006 150.857 92.9572Z" fill="#FFDF5A"/>
<path d="M137.813 94.6734C138.727 94.6734 139.469 93.9502 139.469 93.0579C139.469 92.1657 138.727 91.4424 137.813 91.4424C136.898 91.4424 136.157 92.1657 136.157 93.0579C136.157 93.9502 136.898 94.6734 137.813 94.6734Z" stroke="#F7CE23" stroke-width="0.2" stroke-miterlimit="10" stroke-linecap="round"/>
<path d="M141.627 93.5055C142.541 93.5055 143.283 92.7821 143.283 91.8899C143.283 90.9977 142.541 90.2744 141.627 90.2744C140.712 90.2744 139.971 90.9977 139.971 91.8899C139.971 92.7821 140.712 93.5055 141.627 93.5055Z" stroke="#AA9BCC" stroke-width="0.2" stroke-miterlimit="10" stroke-linecap="round"/>
<path d="M139.305 96.8228C140.22 96.8228 140.961 96.0995 140.961 95.2073C140.961 94.3151 140.22 93.5918 139.305 93.5918C138.391 93.5918 137.649 94.3151 137.649 95.2073C137.649 96.0995 138.391 96.8228 139.305 96.8228Z" stroke="#F4E9B8" stroke-width="0.2" stroke-miterlimit="10" stroke-linecap="round"/>
<path d="M182.703 89.6686C183.617 89.6686 184.359 88.9453 184.359 88.0531C184.359 87.1608 183.617 86.4375 182.703 86.4375C181.788 86.4375 181.047 87.1608 181.047 88.0531C181.047 88.9453 181.788 89.6686 182.703 89.6686Z" stroke="#F7CE23" stroke-width="0.2" stroke-miterlimit="10" stroke-linecap="round"/>
<path d="M188.026 90.1588C188.941 90.1588 189.682 89.4355 189.682 88.5432C189.682 87.651 188.941 86.9277 188.026 86.9277C187.112 86.9277 186.37 87.651 186.37 88.5432C186.37 89.4355 187.112 90.1588 188.026 90.1588Z" stroke="#B8CCDD" stroke-width="0.2" stroke-miterlimit="10" stroke-linecap="round"/>
<path d="M185.216 93.087C186.131 93.087 186.872 92.3637 186.872 91.4715C186.872 90.5792 186.131 89.856 185.216 89.856C184.301 89.856 183.56 90.5792 183.56 91.4715C183.56 92.3637 184.301 93.087 185.216 93.087Z" stroke="#F4E9B8" stroke-width="0.2" stroke-miterlimit="10" stroke-linecap="round"/>
<path d="M200.297 86.9419C201.211 86.9419 201.953 86.2187 201.953 85.3264C201.953 84.4342 201.211 83.7109 200.297 83.7109C199.382 83.7109 198.641 84.4342 198.641 85.3264C198.641 86.2187 199.382 86.9419 200.297 86.9419Z" stroke="#F7CE23" stroke-width="0.2" stroke-miterlimit="10" stroke-linecap="round"/>
<path d="M196.705 88.2403C197.62 88.2403 198.361 87.517 198.361 86.6248C198.361 85.7326 197.62 85.0093 196.705 85.0093C195.791 85.0093 195.049 85.7326 195.049 86.6248C195.049 87.517 195.791 88.2403 196.705 88.2403Z" stroke="#AA9BCC" stroke-width="0.2" stroke-miterlimit="10" stroke-linecap="round"/>
<path d="M206.851 88.0528C207.765 88.0528 208.507 87.3295 208.507 86.4373C208.507 85.5451 207.765 84.8218 206.851 84.8218C205.936 84.8218 205.195 85.5451 205.195 86.4373C205.195 87.3295 205.936 88.0528 206.851 88.0528Z" stroke="#F4E9B8" stroke-width="0.2" stroke-miterlimit="10" stroke-linecap="round"/>
<path d="M151.846 89.2359C152.761 89.2359 153.502 88.5126 153.502 87.6204C153.502 86.7282 152.761 86.0049 151.846 86.0049C150.932 86.0049 150.19 86.7282 150.19 87.6204C150.19 88.5126 150.932 89.2359 151.846 89.2359Z" stroke="#F7CE23" stroke-width="0.2" stroke-miterlimit="10" stroke-linecap="round"/>
<path d="M156.563 91.7023C157.478 91.7023 158.219 90.9789 158.219 90.0867C158.219 89.1945 157.478 88.4712 156.563 88.4712C155.649 88.4712 154.907 89.1945 154.907 90.0867C154.907 90.9789 155.649 91.7023 156.563 91.7023Z" stroke="#B8CCDD" stroke-width="0.2" stroke-miterlimit="10" stroke-linecap="round"/>
<path d="M152.807 93.3321C153.722 93.3321 154.463 92.6088 154.463 91.7166C154.463 90.8244 153.722 90.1011 152.807 90.1011C151.892 90.1011 151.151 90.8244 151.151 91.7166C151.151 92.6088 151.892 93.3321 152.807 93.3321Z" stroke="#F4E9B8" stroke-width="0.2" stroke-miterlimit="10" stroke-linecap="round"/>
<path d="M163.26 83.3506C164.174 83.3506 164.916 82.6274 164.916 81.7351C164.916 80.8429 164.174 80.1196 163.26 80.1196C162.345 80.1196 161.604 80.8429 161.604 81.7351C161.604 82.6274 162.345 83.3506 163.26 83.3506Z" stroke="#F7CE23" stroke-width="0.2" stroke-miterlimit="10" stroke-linecap="round"/>
<path d="M167.785 86.149C168.7 86.149 169.441 85.4257 169.441 84.5335C169.441 83.6413 168.7 82.918 167.785 82.918C166.87 82.918 166.129 83.6413 166.129 84.5335C166.129 85.4257 166.87 86.149 167.785 86.149Z" stroke="#B8CCDD" stroke-width="0.2" stroke-miterlimit="10" stroke-linecap="round"/>
<path d="M163.911 87.5191C164.826 87.5191 165.567 86.7958 165.567 85.9036C165.567 85.0114 164.826 84.2881 163.911 84.2881C162.996 84.2881 162.255 85.0114 162.255 85.9036C162.255 86.7958 162.996 87.5191 163.911 87.5191Z" stroke="#F4E9B8" stroke-width="0.2" stroke-miterlimit="10" stroke-linecap="round"/>
<path d="M170.49 91.1828L172.383 88.2979C171.991 88.0531 171.515 87.9703 171.06 88.0677C170.606 88.1651 170.209 88.4347 169.958 88.8172C169.707 89.1998 169.622 89.6639 169.722 90.1076C169.822 90.5512 170.098 90.9379 170.49 91.1828Z" fill="#F4E9B8"/>
<path d="M172.901 90.6783C173.148 90.2984 173.232 89.8392 173.135 89.3995C173.038 88.9599 172.769 88.5748 172.384 88.3271L170.491 91.212C170.884 91.4499 171.357 91.5273 171.808 91.4274C172.26 91.3276 172.652 91.0584 172.901 90.6783Z" fill="#F4E9B8"/>
<path d="M171.835 95.3371L173.727 92.4522C173.335 92.2074 172.859 92.1246 172.405 92.222C171.95 92.3193 171.553 92.589 171.302 92.9715C171.051 93.3541 170.966 93.8182 171.066 94.2618C171.166 94.7055 171.442 95.0922 171.835 95.3371Z" fill="#9BB8CE"/>
<path d="M174.246 94.8323C174.493 94.4502 174.577 93.9888 174.481 93.5468C174.384 93.1047 174.114 92.7171 173.728 92.4668L171.835 95.3516C172.227 95.5909 172.699 95.6706 173.149 95.5734C173.6 95.4763 173.994 95.2101 174.246 94.8323Z" fill="#9BB8CE"/>
<path d="M167.356 95.3224L169.233 92.4376C169.039 92.3173 168.823 92.2355 168.596 92.1969C168.37 92.1583 168.137 92.1636 167.913 92.2124C167.688 92.2613 167.476 92.3529 167.288 92.4818C167.1 92.6108 166.939 92.7747 166.816 92.9641C166.693 93.1535 166.609 93.3648 166.569 93.5858C166.53 93.8068 166.535 94.0333 166.585 94.2523C166.635 94.4713 166.729 94.6785 166.861 94.8621C166.993 95.0458 167.161 95.2022 167.356 95.3224Z" fill="#FFDF5A"/>
<path d="M169.737 94.818C169.86 94.6295 169.944 94.4192 169.984 94.199C170.024 93.9788 170.019 93.7531 169.97 93.5348C169.921 93.3164 169.828 93.1097 169.696 92.9265C169.565 92.7432 169.398 92.587 169.204 92.4668L167.327 95.3516C167.72 95.5896 168.193 95.6669 168.644 95.5671C169.095 95.4672 169.488 95.1981 169.737 94.818Z" fill="#FFDF5A"/>
<path d="M172.677 89.4523C173.592 89.4523 174.333 88.7289 174.333 87.8367C174.333 86.9445 173.592 86.2212 172.677 86.2212C171.762 86.2212 171.021 86.9445 171.021 87.8367C171.021 88.7289 171.762 89.4523 172.677 89.4523Z" stroke="#F7CE23" stroke-width="0.2" stroke-miterlimit="10" stroke-linecap="round"/>
<path d="M177.398 91.9186C178.313 91.9186 179.054 91.1953 179.054 90.3031C179.054 89.4108 178.313 88.6875 177.398 88.6875C176.484 88.6875 175.742 89.4108 175.742 90.3031C175.742 91.1953 176.484 91.9186 177.398 91.9186Z" stroke="#B8CCDD" stroke-width="0.2" stroke-miterlimit="10" stroke-linecap="round"/>
<path d="M173.64 93.5485C174.555 93.5485 175.296 92.8251 175.296 91.9329C175.296 91.0407 174.555 90.3174 173.64 90.3174C172.725 90.3174 171.984 91.0407 171.984 91.9329C171.984 92.8251 172.725 93.5485 173.64 93.5485Z" stroke="#F4E9B8" stroke-width="0.2" stroke-miterlimit="10" stroke-linecap="round"/>
<path d="M29.1643 90.7793L29.2383 94.1834C29.0091 94.1873 28.7815 94.147 28.5683 94.065C28.3551 93.983 28.1606 93.8608 27.9958 93.7054C27.8311 93.55 27.6993 93.3645 27.608 93.1594C27.5168 92.9544 27.4678 92.7338 27.464 92.5102C27.4581 92.2874 27.4975 92.0656 27.5799 91.8577C27.6624 91.6498 27.7862 91.46 27.9443 91.299C28.1024 91.1381 28.2916 91.0093 28.501 90.9201C28.7104 90.8309 28.9359 90.783 29.1643 90.7793Z" fill="#F4E9B8"/>
<path d="M30.9532 92.4521C30.9571 92.6756 30.9158 92.8977 30.8317 93.1057C30.7477 93.3137 30.6224 93.5034 30.4631 93.6642C30.3039 93.8249 30.1137 93.9534 29.9035 94.0425C29.6933 94.1315 29.4671 94.1793 29.238 94.183L29.1641 90.7789C29.6271 90.7749 30.0734 90.9476 30.4077 91.2602C30.742 91.5729 30.9378 92.0006 30.9532 92.4521Z" fill="#F4E9B8"/>
<path d="M32.5524 87.9375V91.3416C32.0896 91.3416 31.6458 91.1623 31.3186 90.8431C30.9914 90.5239 30.8076 90.091 30.8076 89.6396C30.8076 89.1882 30.9914 88.7552 31.3186 88.436C31.6458 88.1168 32.0896 87.9375 32.5524 87.9375Z" fill="#AA9BCC"/>
<path d="M34.3245 89.6107C34.3285 89.8342 34.2872 90.0563 34.2031 90.2643C34.119 90.4723 33.9938 90.6621 33.8345 90.8228C33.6752 90.9835 33.4851 91.1121 33.2748 91.2011C33.0646 91.2901 32.8385 91.3379 32.6094 91.3416V87.9375C33.0619 87.9449 33.4937 88.1236 33.8138 88.4358C34.1338 88.748 34.3169 89.1693 34.3245 89.6107Z" fill="#AA9BCC"/>
<path d="M24.7447 86.9136V90.3177C24.282 90.3177 23.8382 90.1384 23.511 89.8192C23.1838 89.5 23 89.067 23 88.6156C23 88.1642 23.1838 87.7313 23.511 87.4121C23.8382 87.0929 24.282 86.9136 24.7447 86.9136Z" fill="#FFDF5A"/>
<path d="M26.5206 88.5724C26.5287 89.0203 26.3569 89.4536 26.042 89.7798C25.727 90.1059 25.2938 90.2989 24.835 90.3177V86.9136C25.281 86.9247 25.7053 87.1034 26.0194 87.4125C26.3335 87.7216 26.5131 88.1372 26.5206 88.5724Z" fill="#FFDF5A"/>
<path d="M44.4389 89.0194L42.1619 91.6014C41.9881 91.4555 41.8455 91.2777 41.7421 91.0781C41.6388 90.8784 41.5768 90.6609 41.5596 90.4379C41.5249 89.9875 41.6751 89.5421 41.977 89.1997C42.1266 89.0302 42.3088 88.8911 42.5135 88.7903C42.7181 88.6895 42.9411 88.6289 43.1697 88.6122C43.6314 88.5784 44.0879 88.7249 44.4389 89.0194Z" fill="#F4E9B8"/>
<path d="M44.6343 91.414C44.4853 91.5852 44.303 91.7259 44.098 91.8281C43.893 91.9303 43.6692 91.9918 43.4397 92.0093C43.2102 92.0267 42.9794 91.9996 42.7606 91.9296C42.5418 91.8597 42.3394 91.7481 42.165 91.6015L44.4421 89.0195C44.7922 89.3127 45.0089 89.7293 45.0449 90.178C45.081 90.6268 44.9333 91.0712 44.6343 91.414Z" fill="#F4E9B8"/>
<path d="M48.9067 89.0912L46.6296 91.6732C46.2787 91.3786 46.062 90.9601 46.0274 90.5097C45.9927 90.0593 46.1429 89.6139 46.4448 89.2716C46.7468 88.9292 47.1758 88.7178 47.6375 88.684C48.0992 88.6502 48.5557 88.7967 48.9067 89.0912Z" fill="#9BB8CE"/>
<path d="M49.0977 91.5001C48.7925 91.8405 48.3619 92.0496 47.8995 92.082C47.4372 92.1144 46.9804 91.9675 46.6284 91.6732L48.9055 89.0913C49.2531 89.3891 49.4678 89.8076 49.5037 90.2576C49.5396 90.7076 49.3939 91.1534 49.0977 91.5001Z" fill="#9BB8CE"/>
<path d="M47.6177 84.9086L45.3407 87.4905C44.9918 87.1928 44.7775 86.7727 44.7443 86.3217C44.7111 85.8707 44.8616 85.4251 45.1633 85.0817C45.312 84.912 45.4938 84.7727 45.6981 84.672C45.9024 84.5713 46.1252 84.5112 46.3535 84.4951C46.5818 84.479 46.8111 84.5073 47.0281 84.5783C47.2451 84.6492 47.4455 84.7615 47.6177 84.9086Z" fill="#FFDF5A"/>
<path d="M47.7943 87.2738C47.6466 87.4446 47.4656 87.585 47.2619 87.687C47.0581 87.789 46.8356 87.8505 46.6072 87.868C46.3789 87.8854 46.1493 87.8584 45.9317 87.7886C45.7142 87.7188 45.513 87.6076 45.3398 87.4613L47.6169 84.8794C47.7909 85.0245 47.9336 85.2019 48.0368 85.4012C48.14 85.6005 48.2017 85.8177 48.2182 86.0404C48.2347 86.2632 48.2057 86.4869 48.133 86.6986C48.0602 86.9103 47.9451 87.1058 47.7943 87.2738Z" fill="#FFDF5A"/>
<path d="M33.2346 89.6686C34.1492 89.6686 34.8907 88.9453 34.8907 88.0531C34.8907 87.1608 34.1492 86.4375 33.2346 86.4375C32.32 86.4375 31.5786 87.1608 31.5786 88.0531C31.5786 88.9453 32.32 89.6686 33.2346 89.6686Z" stroke="#F7CE23" stroke-width="0.2" stroke-miterlimit="10" stroke-linecap="round"/>
<path d="M37.1331 91.255C38.0477 91.255 38.7891 90.5317 38.7891 89.6394C38.7891 88.7472 38.0477 88.0239 37.1331 88.0239C36.2185 88.0239 35.4771 88.7472 35.4771 89.6394C35.4771 90.5317 36.2185 91.255 37.1331 91.255Z" stroke="#AA9BCC" stroke-width="0.2" stroke-miterlimit="10" stroke-linecap="round"/>
<path d="M35.8035 86.668C36.7181 86.668 37.4595 85.9448 37.4595 85.0525C37.4595 84.1603 36.7181 83.437 35.8035 83.437C34.8889 83.437 34.1475 84.1603 34.1475 85.0525C34.1475 85.9448 34.8889 86.668 35.8035 86.668Z" stroke="#F4E9B8" stroke-width="0.2" stroke-miterlimit="10" stroke-linecap="round"/>
<path d="M48.7854 94.2554C49.7 94.2554 50.4415 93.5322 50.4415 92.6399C50.4415 91.7477 49.7 91.0244 48.7854 91.0244C47.8708 91.0244 47.1294 91.7477 47.1294 92.6399C47.1294 93.5322 47.8708 94.2554 48.7854 94.2554Z" stroke="#F7CE23" stroke-width="0.2" stroke-miterlimit="10" stroke-linecap="round"/>
<path d="M49.7483 90.1588C50.6629 90.1588 51.4043 89.4355 51.4043 88.5432C51.4043 87.651 50.6629 86.9277 49.7483 86.9277C48.8337 86.9277 48.0923 87.651 48.0923 88.5432C48.0923 89.4355 48.8337 90.1588 49.7483 90.1588Z" stroke="#F4E9B8" stroke-width="0.2" stroke-miterlimit="10" stroke-linecap="round"/>
<path d="M162.226 63.6616L186.933 101.064C181.849 104.26 175.671 105.355 169.759 104.108C163.848 102.861 158.686 99.3739 155.409 94.4141C152.133 89.4543 151.01 83.4279 152.289 77.6607C153.567 71.8935 157.141 66.8579 162.226 63.6616Z" fill="#F4E9B8"/>
<path d="M193.748 70.3113C197.022 75.2718 198.143 81.2975 196.865 87.064C195.587 92.8305 192.014 97.866 186.932 101.064L162.224 63.6618C164.741 62.0784 167.554 60.9944 170.5 60.4717C173.447 59.9489 176.471 59.9977 179.398 60.6152C182.326 61.2327 185.1 62.4069 187.562 64.0706C190.024 65.7343 192.126 67.8549 193.748 70.3113Z" fill="#F4E9B8"/>
<path d="M105.448 63.0557L130.14 100.458C125.056 103.652 118.879 104.745 112.969 103.497C107.058 102.249 101.898 98.7608 98.624 93.8009C95.3496 88.8411 94.2289 82.8155 95.5086 77.0497C96.7883 71.2838 100.364 66.25 105.448 63.0557Z" fill="#AA9BCC"/>
<path d="M136.956 69.7053C138.579 72.1609 139.69 74.9044 140.226 77.7791C140.762 80.6538 140.712 83.6034 140.079 86.4592C139.446 89.3151 138.242 92.0212 136.537 94.4232C134.831 96.8251 132.657 98.8757 130.139 100.458L105.447 63.0557C107.963 61.4727 110.774 60.389 113.72 59.8665C116.665 59.3439 119.688 59.3928 122.614 60.0104C125.54 60.6279 128.313 61.802 130.774 63.4655C133.235 65.129 135.335 67.2494 136.956 69.7053Z" fill="#AA9BCC"/>
<path d="M130.302 86.2064V88.1393H131.292C131.447 87.7889 131.523 87.41 131.514 87.0286C131.501 86.7192 131.426 86.4153 131.292 86.1343L130.302 86.2064Z" fill="#EFCB5B"/>
<path d="M105.698 86.2786V88.2115H104.678C104.521 87.8622 104.45 87.4818 104.471 87.1008C104.488 86.7935 104.558 86.4912 104.678 86.2065L105.698 86.2786Z" fill="#EFCB5B"/>
<path d="M108.671 86.9855C106.852 86.5961 104.708 78.4897 108.508 73.4124C112.308 68.335 120.943 67.0801 125.808 71.4074C131.397 76.427 128.883 86.5961 126.488 87.274C126.14 87.3618 125.772 87.3376 125.439 87.2051C125.106 87.0725 124.825 86.8387 124.64 86.5384C124.433 85.8749 125.601 85.2691 126.429 84.1296C127.505 82.4014 127.855 80.3339 127.405 78.3599C127.22 77.0276 126.746 75.749 126.014 74.6098C125.282 73.4705 124.309 72.4968 123.161 71.7535C121.725 70.978 120.118 70.5545 118.477 70.5193C116.836 70.4841 115.212 70.8384 113.742 71.5516C113.55 71.6526 108.922 73.9749 108.316 78.4464C107.967 80.1356 108.234 81.8905 109.07 83.4084C109.691 84.3459 110.549 84.9517 110.356 85.7306C110.256 86.0914 110.036 86.4097 109.731 86.6366C109.427 86.8634 109.054 86.986 108.671 86.9855Z" fill="#F7CE23" stroke="#F7CE23" stroke-width="0.25" stroke-miterlimit="10"/>
<path d="M111.141 70.4987C111.065 70.5876 111.009 70.6918 110.979 70.804C110.948 70.9161 110.943 71.0335 110.964 71.1478C110.964 71.1478 110.964 71.2631 111.393 71.5661L111.747 71.8546C112.28 72.2152 114.054 70.9603 115.769 70.4121C116.532 70.1906 117.325 70.0884 118.12 70.1092C119.824 70.0509 121.517 70.4079 123.044 71.1478C123.902 71.6671 124.892 72.2729 125.232 72.0132C125.232 72.0132 125.336 71.869 125.425 71.6815C125.483 71.5417 125.528 71.3968 125.558 71.2488C125.574 71.0857 125.574 70.9214 125.558 70.7583C125.558 70.3256 124.907 69.864 124.523 69.6188C123.516 69.0124 122.426 68.5508 121.284 68.2485C120.382 68.061 118.519 67.9312 118.519 67.9312C118.194 67.9312 117.662 67.9312 117.337 67.9312C116.186 68.0127 115.052 68.2457 113.965 68.6235C112.871 68.9945 111.897 69.6414 111.141 70.4987Z" fill="#F4E9B8"/>
<path d="M107.932 84.3027C107.482 84.5519 106.972 84.6813 106.454 84.6778H105.508C105.239 85.4403 105.09 86.2376 105.064 87.0433C105.054 87.9417 105.204 88.835 105.508 89.683H106.617C107.009 89.6877 107.39 89.8084 107.711 90.0292L110.076 91.7457C110.294 91.8857 110.545 91.9673 110.805 91.9823C111.065 91.9973 111.324 91.945 111.557 91.8309C111.789 91.7167 111.987 91.5447 112.129 91.3321C112.272 91.1196 112.354 90.8742 112.368 90.6206C112.642 89.4766 112.771 88.3044 112.753 87.1299C112.745 86.0568 112.616 84.9878 112.368 83.9421C112.36 83.7251 112.298 83.5132 112.187 83.3248C112.076 83.1363 111.92 82.977 111.732 82.8603C111.541 82.7541 111.324 82.6982 111.104 82.6982C110.884 82.6982 110.667 82.7541 110.476 82.8603L107.932 84.3027Z" fill="#F4E9B8"/>
<path d="M128.086 84.3025C128.534 84.5591 129.046 84.689 129.565 84.6776H130.526C130.795 85.4392 130.94 86.2375 130.955 87.0431C130.976 87.941 130.831 88.8354 130.526 89.6828H129.402C129.015 89.6867 128.637 89.8076 128.323 90.029L125.942 91.7454C125.725 91.8855 125.474 91.9671 125.214 91.9821C124.954 91.9971 124.695 91.9448 124.462 91.8307C124.23 91.7165 124.032 91.5444 123.89 91.3319C123.747 91.1194 123.665 90.8739 123.651 90.6204C123.385 89.4751 123.256 88.3038 123.266 87.1297C123.282 86.057 123.41 84.9888 123.651 83.9419C123.659 83.7249 123.721 83.513 123.832 83.3245C123.943 83.1361 124.099 82.9767 124.286 82.8601C124.481 82.754 124.7 82.6982 124.922 82.6982C125.145 82.6982 125.364 82.754 125.558 82.8601L128.086 84.3025Z" fill="#F4E9B8"/>
<path d="M111.866 82.9466C112.236 83.163 112.798 83.7111 112.96 86.8123C113.123 90.1443 112.546 91.0386 112.132 91.4858C111.925 91.7021 111.541 92.0627 111.422 91.9906C111.304 91.9185 111.644 91.2549 111.91 90.2741C112.118 89.5012 112.232 88.7073 112.251 87.9085C112.269 87.1073 112.215 86.306 112.088 85.5141C112.057 85.0224 111.958 84.5371 111.792 84.0717C111.467 83.2784 110.979 82.8456 111.097 82.7014C111.215 82.5571 111.6 82.7591 111.866 82.9466Z" fill="#F7CE23"/>
<path d="M124.151 82.947C123.781 83.1634 123.219 83.7115 123.057 86.8127C122.894 90.1447 123.471 91.0534 123.87 91.4862C124.269 91.9189 124.476 92.0631 124.594 91.991C124.713 91.9189 124.372 91.2698 124.092 90.2745C123.88 89.5028 123.771 88.7078 123.766 87.9089C123.737 87.108 123.786 86.3062 123.914 85.5145C123.952 85.0224 124.056 84.5374 124.225 84.0721C124.55 83.2787 125.038 82.846 124.905 82.7018C124.772 82.5575 124.417 82.7883 124.151 82.947Z" fill="#F7CE23"/>
<path d="M103.527 89.7838C103.387 89.6862 103.279 89.5509 103.216 89.3944C102.959 88.763 102.804 88.0963 102.758 87.4183C102.74 86.6313 102.875 85.8481 103.157 85.1104C103.232 84.9195 103.355 84.7503 103.515 84.619C103.676 84.4877 103.868 84.3987 104.074 84.3604C103.901 84.6842 103.758 85.022 103.645 85.37C103.48 85.8363 103.376 86.3209 103.335 86.8124C103.276 87.2916 103.276 87.7757 103.335 88.2549C103.359 88.5457 103.424 88.8319 103.527 89.1059C103.651 89.4076 103.82 89.6895 104.03 89.9425C103.849 89.9426 103.673 89.887 103.527 89.7838Z" fill="#F7CE23"/>
<path d="M102.149 89.351C102.033 89.2738 101.945 89.1627 101.898 89.0337C101.687 88.5279 101.562 87.992 101.528 87.447C101.516 86.8089 101.621 86.1738 101.839 85.5719C101.903 85.4242 101.999 85.2915 102.12 85.1824C102.254 85.0747 102.41 84.996 102.578 84.9517C102.43 85.269 102.312 85.5574 102.238 85.7738C102.111 86.1481 102.026 86.5352 101.987 86.9278C101.945 87.3162 101.945 87.7077 101.987 88.0961C102.011 88.3279 102.066 88.5557 102.149 88.7741C102.244 89.0225 102.385 89.2521 102.563 89.452C102.418 89.4615 102.273 89.4262 102.149 89.351Z" fill="#F2D65F"/>
<path d="M101.053 88.8319C100.975 88.7763 100.914 88.7016 100.876 88.6155C100.557 87.8327 100.557 86.9607 100.876 86.1778C100.919 86.0741 100.984 85.9806 101.068 85.9038C101.168 85.8364 101.278 85.7831 101.393 85.7451C101.297 85.9371 101.213 86.1346 101.142 86.3365C101.06 86.5948 101.005 86.8606 100.979 87.1298C100.947 87.403 100.947 87.6789 100.979 87.952C100.999 88.1147 101.039 88.2744 101.097 88.428C101.165 88.6003 101.259 88.761 101.378 88.904C101.265 88.9168 101.15 88.8914 101.053 88.8319Z" fill="#F9E595"/>
<path d="M132.772 89.9714C132.911 89.8788 133.019 89.7484 133.083 89.5963C133.339 88.9645 133.493 88.298 133.541 87.6202C133.56 86.8332 133.424 86.0499 133.142 85.3124C133.069 85.1253 132.953 84.9573 132.802 84.8219C132.637 84.684 132.438 84.5896 132.225 84.5479C132.401 84.8754 132.544 85.2183 132.654 85.572C132.82 86.0379 132.925 86.5226 132.964 87.0144C133.022 87.4936 133.022 87.9777 132.964 88.4569C132.94 88.743 132.875 89.0245 132.772 89.2934C132.648 89.5951 132.479 89.8771 132.269 90.1301C132.45 90.1301 132.626 90.0746 132.772 89.9714Z" fill="#F7CE23"/>
<path d="M134.072 89.5532C134.185 89.4727 134.272 89.3627 134.324 89.2358C134.534 88.7249 134.659 88.1843 134.693 87.6348C134.705 86.9967 134.6 86.3618 134.383 85.7596C134.315 85.6139 134.22 85.4818 134.102 85.3702C133.971 85.2597 133.813 85.1851 133.644 85.1538C133.773 85.4211 133.887 85.6957 133.984 85.976C134.113 86.3448 134.198 86.7274 134.235 87.1155C134.285 87.5035 134.285 87.8959 134.235 88.2839C134.212 88.5206 134.157 88.7533 134.072 88.9762C133.974 89.223 133.834 89.4521 133.658 89.6542C133.803 89.6585 133.947 89.6235 134.072 89.5532Z" fill="#F2D65F"/>
<path d="M135.3 89.0628C135.379 89.0023 135.44 88.9227 135.478 88.832C135.624 88.4774 135.714 88.1028 135.744 87.7214C135.749 87.2746 135.674 86.8304 135.522 86.4088C135.473 86.3046 135.402 86.2113 135.315 86.1347C135.227 86.0568 135.12 86.0022 135.004 85.9761C135.108 86.2069 135.182 86.3944 135.241 86.553C135.335 86.814 135.394 87.0854 135.418 87.3608C135.452 87.6339 135.452 87.9099 135.418 88.183C135.398 88.3456 135.359 88.5054 135.3 88.659C135.232 88.8307 135.137 88.9912 135.019 89.135C135.118 89.1341 135.214 89.1093 135.3 89.0628Z" fill="#F9E595"/>
<path d="M152.984 83.3077C153.102 83.4087 154.566 84.678 155.542 84.5049C156.045 84.4039 156.222 83.9423 156.562 83.0625C156.711 82.3767 156.908 81.7019 157.154 81.0431C157.523 80.3363 158.189 79.6006 158.469 79.6006C158.75 79.6006 158.543 80.1488 158.322 82.3557C158.197 83.1119 158.248 83.8856 158.469 84.6203C158.573 84.9376 158.854 85.7887 159.194 85.7887C159.534 85.7887 160.096 84.2741 160.229 83.1057C160.421 81.3748 159.874 80.7113 160.51 79.341C160.761 78.8362 161.279 77.9996 161.619 78.0284C162.21 78.0284 162.033 80.6825 161.989 81.346C161.695 82.8376 161.596 84.3593 161.693 85.8752C161.796 86.5243 162.003 87.8513 162.565 87.8802C163.127 87.909 163.852 86.683 164.177 85.7021C164.302 85.3645 164.367 85.0083 164.369 84.6491C164.333 83.5623 164.169 82.483 163.881 81.4326C163.807 81.0575 163.157 77.4803 165.197 76.9178C165.454 76.849 165.724 76.849 165.981 76.9178C167.282 77.3072 165.877 80.7834 165.789 82.9038C165.756 83.3841 165.756 83.8659 165.789 84.3462C165.789 84.5914 165.789 84.7645 165.892 85.053C166.04 86.1637 165.892 86.38 166.025 87.0291C166.158 87.6782 166.321 88.5581 166.942 88.6158C167.563 88.6735 168.213 87.8658 168.509 87.2744C168.613 87.0855 168.683 86.8805 168.716 86.6685C168.662 85.4184 168.509 84.1742 168.258 82.9471C168.246 82.7453 168.246 82.543 168.258 82.3412C168.143 81.5954 168.143 80.8369 168.258 80.0911C168.48 79.1679 169.086 78.3025 169.337 78.3313C169.589 78.3602 169.455 78.3313 169.707 79.6006C169.707 79.8747 169.796 80.0045 169.796 80.0911C169.796 80.6103 169.796 81.0431 169.707 82.1538C169.707 82.3846 169.707 82.9903 169.796 84.1875C169.839 84.8659 169.994 85.5332 170.254 86.1637C170.49 86.7695 170.609 86.8416 170.698 86.8416C171.067 86.8416 171.526 85.8896 171.703 85.0674C171.816 84.2174 171.786 83.3551 171.614 82.5144C171.422 80.5671 171.481 80.1776 171.792 80.1199C172.023 80.1241 172.25 80.178 172.457 80.2777C172.664 80.3775 172.846 80.5206 172.989 80.6969C173.255 81.0287 173.078 81.2594 172.989 81.9374C172.901 82.6153 172.768 83.5096 173.27 83.6539C173.444 83.6868 173.622 83.6819 173.794 83.6396C173.965 83.5972 174.125 83.5183 174.261 83.4087C174.586 83.0913 174.098 82.8029 174.261 82.1538C174.261 81.8653 174.542 81.4181 174.897 81.3893C175.07 81.391 175.238 81.4522 175.37 81.5624C175.695 81.7932 175.68 82.0528 175.754 82.4134C175.828 82.774 175.932 83.3798 176.183 83.3942C176.434 83.4087 176.922 82.673 177.085 81.9518C177.085 81.7643 177.189 81.4037 177.233 81.1008C177.322 80.5815 177.336 80.2786 177.632 80.192C177.768 80.1558 177.911 80.1558 178.046 80.192C178.564 80.3363 178.505 81.1008 178.46 81.6345C178.371 82.5288 178.105 82.8461 178.46 83.3077C178.593 83.4952 178.874 83.7549 179.096 83.726C179.318 83.6972 179.436 83.2212 179.554 82.4711L179.643 81.8076C179.691 81.5454 179.721 81.2804 179.732 81.0142C179.732 80.6104 179.732 80.2065 179.732 79.9901C179.732 79.0814 179.732 78.9804 179.865 78.9227C180.104 78.7936 180.384 78.7575 180.648 78.8218C181.136 78.9516 181.136 79.5141 181.136 80.019C181.136 81.822 181.136 82.7163 181.136 82.8317C181.003 84.3463 180.885 85.0242 181.595 85.4136C181.726 85.5095 181.889 85.5556 182.053 85.5434C182.689 85.4569 182.704 83.9568 182.689 82.6586C182.689 81.9662 182.689 81.8941 182.689 80.9998C182.556 77.8842 182.955 77.3649 183.458 77.2062C183.628 77.1647 183.805 77.1647 183.975 77.2062C184.212 77.2783 184.271 77.4803 184.404 78.4035C184.404 78.6775 184.404 78.8218 184.404 78.8506C184.404 79.2689 184.404 79.6007 184.404 80.293C184.404 80.9854 184.404 81.0142 184.508 82.5288C184.508 83.1923 184.508 83.6827 184.508 84.3607C184.441 85.037 184.441 85.7181 184.508 86.3945C184.508 86.957 184.655 87.2743 184.966 87.3465C185.125 87.368 185.286 87.3586 185.441 87.319C185.595 87.2794 185.741 87.2103 185.868 87.1157C186.297 86.8128 186.164 86.4089 186.09 85.8464C186.03 84.8856 186.03 83.9223 186.09 82.9615C186.09 82.4567 186.09 82.1393 186.09 81.9806C186.09 81.3748 186.208 81.1008 186.238 79.9469C186.238 79.2401 186.238 78.8362 186.238 78.3025C186.238 77.7688 186.238 78.0284 186.238 77.6966C186.326 76.5283 186.238 76.0667 186.592 75.908C186.741 75.8575 186.902 75.8575 187.051 75.908C187.539 76.0234 187.539 76.7014 187.509 77.3505C187.509 78.6054 187.42 80.3507 187.42 81.2018C187.42 82.0528 187.42 81.7643 187.42 82.4855C187.509 85.8608 186.622 87.8802 187.42 88.0965C187.706 88.1264 187.992 88.0602 188.234 87.909C189.343 87.3753 188.899 86.2647 188.766 83.5818C188.766 82.1393 188.766 82.6874 188.766 80.8988C188.766 79.3266 188.589 78.2015 189.195 78.014C189.383 77.9975 189.573 78.0325 189.742 78.115C190.141 78.3169 190.052 78.7785 189.978 79.2112C189.905 79.6439 189.978 80.3219 189.978 80.87C189.978 81.4181 189.978 81.1729 189.978 83.3365C189.978 84.3895 189.978 84.779 190.422 84.9521C190.849 85.0944 191.316 85.0685 191.723 84.8799C192.182 84.5914 191.723 84.0866 191.546 82.4711C191.546 82.3557 191.546 82.4711 191.546 81.8797C191.398 80.3219 191.324 79.8747 191.797 79.6295C191.993 79.5147 192.221 79.4641 192.448 79.4853C192.965 79.6151 192.921 80.6104 193.113 82.4711C193.113 82.673 193.113 83.1058 193.512 83.1779C193.62 83.1989 193.73 83.1989 193.838 83.1779C194.606 82.9038 193.838 81.5047 194.459 81.2739C194.784 81.1585 195.124 81.4325 196.558 81.5912H197.09" fill="#AA9BCC"/>
<path d="M152.984 83.3077C153.102 83.4087 154.566 84.678 155.542 84.5049C156.045 84.4039 156.222 83.9423 156.562 83.0625C156.711 82.3767 156.908 81.7019 157.154 81.0431C157.523 80.3363 158.189 79.6006 158.469 79.6006C158.75 79.6006 158.543 80.1488 158.322 82.3557C158.197 83.1119 158.248 83.8856 158.469 84.6203C158.573 84.9376 158.854 85.7887 159.194 85.7887C159.534 85.7887 160.096 84.2741 160.229 83.1057C160.421 81.3748 159.874 80.7113 160.51 79.341C160.761 78.8362 161.279 77.9996 161.619 78.0284C162.21 78.0284 162.033 80.6825 161.989 81.346C161.695 82.8376 161.596 84.3593 161.693 85.8752C161.796 86.5243 162.003 87.8513 162.565 87.8802C163.127 87.909 163.852 86.683 164.177 85.7021C164.302 85.3645 164.367 85.0083 164.369 84.6491C164.333 83.5623 164.169 82.483 163.881 81.4326C163.807 81.0575 163.157 77.4803 165.197 76.9178C165.454 76.849 165.724 76.849 165.981 76.9178C167.282 77.3072 165.877 80.7834 165.789 82.9038C165.756 83.3841 165.756 83.8659 165.789 84.3462C165.789 84.5914 165.789 84.7645 165.892 85.053C166.04 86.1637 165.892 86.38 166.025 87.0291C166.158 87.6782 166.321 88.5581 166.942 88.6158C167.563 88.6735 168.213 87.8658 168.509 87.2744C168.613 87.0855 168.683 86.8805 168.716 86.6685C168.662 85.4184 168.509 84.1742 168.258 82.9471C168.246 82.7453 168.246 82.543 168.258 82.3412C168.143 81.5954 168.143 80.8369 168.258 80.0911C168.48 79.1679 169.086 78.3025 169.337 78.3313C169.589 78.3602 169.455 78.3313 169.707 79.6006C169.707 79.8747 169.796 80.0045 169.796 80.0911C169.796 80.6103 169.796 81.0431 169.707 82.1538C169.707 82.3846 169.707 82.9903 169.796 84.1875C169.839 84.8659 169.994 85.5332 170.254 86.1637C170.491 86.7695 170.609 86.8416 170.698 86.8416C171.067 86.8416 171.526 85.8896 171.703 85.0674C171.816 84.2174 171.786 83.3551 171.614 82.5144C171.422 80.5671 171.481 80.1776 171.792 80.1199C172.023 80.1241 172.25 80.178 172.457 80.2777C172.664 80.3775 172.846 80.5206 172.989 80.6969C173.255 81.0287 173.078 81.2594 172.989 81.9374C172.901 82.6153 172.768 83.5096 173.27 83.6539C173.444 83.6868 173.622 83.6819 173.794 83.6396C173.965 83.5972 174.125 83.5183 174.261 83.4087C174.586 83.0913 174.098 82.8029 174.261 82.1538C174.261 81.8653 174.542 81.4181 174.897 81.3893C175.07 81.391 175.238 81.4522 175.37 81.5624C175.695 81.7932 175.68 82.0528 175.754 82.4134C175.828 82.774 175.932 83.3798 176.183 83.3942C176.434 83.4087 176.922 82.673 177.085 81.9518C177.085 81.7643 177.189 81.4037 177.233 81.1008C177.322 80.5815 177.336 80.2786 177.632 80.192C177.768 80.1558 177.911 80.1558 178.046 80.192C178.564 80.3363 178.505 81.1008 178.46 81.6345C178.371 82.5288 178.105 82.8461 178.46 83.3077C178.593 83.4952 178.874 83.7549 179.096 83.726C179.318 83.6972 179.436 83.2212 179.554 82.4711L179.643 81.8076C179.691 81.5454 179.721 81.2804 179.732 81.0142C179.732 80.6104 179.732 80.2065 179.732 79.9901C179.732 79.0814 179.732 78.9804 179.865 78.9227C180.104 78.7936 180.384 78.7575 180.648 78.8218C181.136 78.9516 181.136 79.5141 181.136 80.019C181.136 81.822 181.136 82.7163 181.136 82.8317C181.003 84.3463 180.885 85.0242 181.595 85.4136C181.726 85.5095 181.889 85.5556 182.053 85.5434C182.689 85.4569 182.704 83.9568 182.689 82.6586C182.689 81.9662 182.689 81.8941 182.689 80.9998C182.556 77.8842 182.955 77.3649 183.458 77.2062C183.628 77.1647 183.805 77.1647 183.975 77.2062C184.212 77.2783 184.271 77.4803 184.404 78.4035C184.404 78.6775 184.404 78.8218 184.404 78.8506C184.404 79.2689 184.404 79.6007 184.404 80.293C184.404 80.9854 184.404 81.0142 184.508 82.5288C184.508 83.1923 184.508 83.6827 184.508 84.3607C184.441 85.037 184.441 85.7181 184.508 86.3945C184.508 86.957 184.655 87.2743 184.966 87.3465C185.125 87.368 185.286 87.3586 185.441 87.319C185.595 87.2794 185.741 87.2103 185.868 87.1157C186.297 86.8128 186.164 86.4089 186.09 85.8464C186.03 84.8856 186.03 83.9223 186.09 82.9615C186.09 82.4567 186.09 82.1393 186.09 81.9806C186.09 81.3748 186.208 81.1008 186.238 79.9469C186.238 79.2401 186.238 78.8362 186.238 78.3025C186.238 77.7688 186.238 78.0284 186.238 77.6966C186.326 76.5283 186.238 76.0667 186.592 75.908C186.741 75.8575 186.902 75.8575 187.051 75.908C187.539 76.0234 187.539 76.7014 187.509 77.3505C187.509 78.6054 187.42 80.3507 187.42 81.2018C187.42 82.0528 187.42 81.7643 187.42 82.4855C187.509 85.8608 186.622 87.8802 187.42 88.0965C187.706 88.1264 187.992 88.0602 188.234 87.909C189.343 87.3753 188.899 86.2647 188.766 83.5818C188.766 82.1393 188.766 82.6874 188.766 80.8988C188.766 79.3266 188.589 78.2015 189.195 78.014C189.383 77.9975 189.573 78.0325 189.742 78.115C190.141 78.3169 190.052 78.7785 189.978 79.2112C189.905 79.6439 189.978 80.3219 189.978 80.87C189.978 81.4181 189.978 81.1729 189.978 83.3365C189.978 84.3895 189.978 84.779 190.422 84.9521C190.849 85.0944 191.316 85.0685 191.723 84.8799C192.182 84.5914 191.723 84.0866 191.546 82.4711C191.546 82.3557 191.546 82.4711 191.546 81.8797C191.398 80.3219 191.324 79.8747 191.797 79.6295C191.993 79.5147 192.221 79.4641 192.448 79.4853C192.965 79.6151 192.921 80.6104 193.113 82.4711C193.113 82.673 193.113 83.1058 193.512 83.1779C193.62 83.1989 193.73 83.1989 193.838 83.1779C194.606 82.9038 193.838 81.5047 194.459 81.2739C194.784 81.1585 195.124 81.4325 196.558 81.5912H197.09" stroke="#AA9BCC" stroke-width="0.5" stroke-miterlimit="10"/>
<path d="M46.8199 63.2002L71.5272 100.602C66.443 103.799 60.2655 104.894 54.3537 103.647C48.4418 102.4 43.2799 98.9125 40.0035 93.9527C36.7271 88.9929 35.6046 82.9665 36.8829 77.1993C38.1612 71.432 41.7356 66.3964 46.8199 63.2002Z" fill="#FFDF5A"/>
<path d="M78.344 69.8494C81.618 74.8099 82.7392 80.8355 81.461 86.602C80.1829 92.3686 76.61 97.404 71.5277 100.602L46.8203 63.1998C51.9052 60.0059 58.082 58.9122 63.9931 60.1591C69.9042 61.406 75.066 64.8914 78.344 69.8494Z" fill="#FFDF5A"/>
<path d="M45.0619 79.2109H44.5148C44.1881 79.2109 43.9233 79.4692 43.9233 79.7879V85.8894C43.9233 86.208 44.1881 86.4663 44.5148 86.4663H45.0619C45.3885 86.4663 45.6533 86.208 45.6533 85.8894V79.7879C45.6533 79.4692 45.3885 79.2109 45.0619 79.2109Z" fill="#AA9BCC"/>
<path d="M47.9588 79.2109H47.4118C47.0851 79.2109 46.8203 79.4692 46.8203 79.7879V85.8894C46.8203 86.208 47.0851 86.4663 47.4118 86.4663H47.9588C48.2855 86.4663 48.5503 86.208 48.5503 85.8894V79.7879C48.5503 79.4692 48.2855 79.2109 47.9588 79.2109Z" fill="#AA9BCC"/>
<path d="M56.4032 79.2109H55.8561C55.5294 79.2109 55.2646 79.4692 55.2646 79.7879V85.8894C55.2646 86.208 55.5294 86.4663 55.8561 86.4663H56.4032C56.7298 86.4663 56.9946 86.208 56.9946 85.8894V79.7879C56.9946 79.4692 56.7298 79.2109 56.4032 79.2109Z" fill="#AA9BCC"/>
<path d="M58.845 79.4273C58.6232 79.1821 58.4458 79.2542 58.4458 79.5716V86.1058C58.4458 86.4231 58.6232 86.4952 58.845 86.2644L61.6248 83.2642C61.7328 83.1475 61.7927 82.9959 61.7927 82.8387C61.7927 82.6814 61.7328 82.5298 61.6248 82.4132L58.845 79.4273Z" fill="#AA9BCC"/>
<path d="M74.8846 82.9469C74.8846 83.8128 74.533 84.6434 73.9068 85.2571C73.2805 85.8707 72.4306 86.2174 71.543 86.2212V79.687C72.4292 79.687 73.2792 80.0305 73.9059 80.6418C74.5325 81.2532 74.8846 82.0823 74.8846 82.9469Z" fill="#AA9BCC"/>
<path d="M74.308 82.9464C74.308 83.6617 74.0166 84.3478 73.4981 84.8537C72.9796 85.3595 72.2763 85.6437 71.543 85.6437V80.249C72.2763 80.249 72.9796 80.5332 73.4981 81.039C74.0166 81.5449 74.308 82.231 74.308 82.9464Z" fill="#FFDF5A"/>
<path d="M68.6598 80.9129C68.3808 81.1541 68.0265 81.2964 67.6543 81.3168H67.5065C67.3496 81.3168 67.1992 81.3776 67.0883 81.4858C66.9774 81.594 66.915 81.7407 66.915 81.8937V83.7833C66.915 83.9363 66.9774 84.0831 67.0883 84.1913C67.1992 84.2995 67.3496 84.3603 67.5065 84.3603H67.7135C68.0857 84.3807 68.4399 84.523 68.7189 84.7642L70.582 86.5816C70.8038 86.798 70.996 86.7259 70.996 86.4085V79.2685C70.996 78.9512 70.8038 78.8791 70.582 79.1099L68.6598 80.9129Z" fill="#AA9BCC"/>
<path d="M73.4947 82.9467C73.4909 83.4505 73.284 83.9326 72.9188 84.2889C72.5536 84.6451 72.0594 84.8469 71.543 84.8507V81.0571C72.0581 81.0571 72.5523 81.2557 72.9179 81.6097C73.2835 81.9637 73.4908 82.4442 73.4947 82.9467Z" fill="#AA9BCC"/>
<path d="M72.96 82.9469C72.96 83.3295 72.8043 83.6963 72.527 83.9668C72.2497 84.2374 71.8736 84.3893 71.4814 84.3893V81.6055C71.8563 81.6046 72.2175 81.7426 72.492 81.9917C72.7665 82.2407 72.9338 82.5821 72.96 82.9469Z" fill="#FFDF5A"/>
<path d="M173.404 106.256C185.359 106.256 195.051 96.8017 195.051 85.139C195.051 73.4764 185.359 64.022 173.404 64.022C161.449 64.022 151.757 73.4764 151.757 85.139C151.757 96.8017 161.449 106.256 173.404 106.256Z" stroke="#F7CE23" stroke-width="0.5" stroke-miterlimit="10" stroke-linecap="round"/>
<path d="M57.4533 105.665C69.4085 105.665 79.1 96.2104 79.1 84.5477C79.1 72.8851 69.4085 63.4307 57.4533 63.4307C45.4982 63.4307 35.8066 72.8851 35.8066 84.5477C35.8066 96.2104 45.4982 105.665 57.4533 105.665Z" stroke="#AA9BCC" stroke-width="0.5" stroke-miterlimit="10" stroke-linecap="round"/>
<path d="M116.874 106.256C128.829 106.256 138.52 96.8017 138.52 85.139C138.52 73.4764 128.829 64.022 116.874 64.022C104.919 64.022 95.2271 73.4764 95.2271 85.139C95.2271 96.8017 104.919 106.256 116.874 106.256Z" stroke="#F4E9B8" stroke-width="0.5" stroke-miterlimit="10" stroke-linecap="round"/>
<path d="M212.484 88.2261L210.015 90.6493C210.344 90.9688 210.79 91.1475 211.255 91.1461C211.719 91.1448 212.164 90.9635 212.491 90.6421C212.819 90.3208 213.002 89.8857 213.001 89.4326C212.999 88.9795 212.813 88.5455 212.484 88.2261Z" fill="#AA9BCC"/>
<path d="M210.011 88.2406C209.849 88.3987 209.72 88.5864 209.633 88.7931C209.545 88.9997 209.5 89.2213 209.5 89.445C209.5 89.6687 209.545 89.8902 209.633 90.0969C209.72 90.3036 209.849 90.4913 210.011 90.6494L212.481 88.2261C212.318 88.0688 212.124 87.9443 211.912 87.8598C211.7 87.7754 211.472 87.7326 211.243 87.7339C211.014 87.7353 210.787 87.7807 210.576 87.8676C210.364 87.9546 210.173 88.0813 210.011 88.2406Z" fill="#AA9BCC"/>
</svg>
