<svg width="230" height="166" viewBox="0 0 230 166" fill="none" xmlns="http://www.w3.org/2000/svg">
<rect width="230" height="165.09" rx="6.7" fill="white"/>
<path d="M53.7347 136.128V148H51.8147V146.896C51.484 147.301 51.0734 147.605 50.5827 147.808C50.1027 148.011 49.5694 148.112 48.9827 148.112C48.1614 148.112 47.42 147.931 46.7587 147.568C46.108 147.205 45.596 146.693 45.2227 146.032C44.8494 145.36 44.6627 144.592 44.6627 143.728C44.6627 142.864 44.8494 142.101 45.2227 141.44C45.596 140.779 46.108 140.267 46.7587 139.904C47.42 139.541 48.1614 139.36 48.9827 139.36C49.548 139.36 50.0654 139.456 50.5347 139.648C51.004 139.84 51.404 140.128 51.7347 140.512V136.128H53.7347ZM49.2227 146.4C49.7027 146.4 50.1347 146.293 50.5187 146.08C50.9027 145.856 51.2067 145.541 51.4307 145.136C51.6547 144.731 51.7667 144.261 51.7667 143.728C51.7667 143.195 51.6547 142.725 51.4307 142.32C51.2067 141.915 50.9027 141.605 50.5187 141.392C50.1347 141.168 49.7027 141.056 49.2227 141.056C48.7427 141.056 48.3107 141.168 47.9267 141.392C47.5427 141.605 47.2387 141.915 47.0147 142.32C46.7907 142.725 46.6787 143.195 46.6787 143.728C46.6787 144.261 46.7907 144.731 47.0147 145.136C47.2387 145.541 47.5427 145.856 47.9267 146.08C48.3107 146.293 48.7427 146.4 49.2227 146.4ZM64.3831 143.776C64.3831 143.915 64.3724 144.112 64.3511 144.368H57.6471C57.7644 144.997 58.0684 145.499 58.5591 145.872C59.0604 146.235 59.6791 146.416 60.4151 146.416C61.3537 146.416 62.1271 146.107 62.7351 145.488L63.8071 146.72C63.4231 147.179 62.9377 147.525 62.3511 147.76C61.7644 147.995 61.1031 148.112 60.3671 148.112C59.4284 148.112 58.6017 147.925 57.8871 147.552C57.1724 147.179 56.6177 146.661 56.2231 146C55.8391 145.328 55.6471 144.571 55.6471 143.728C55.6471 142.896 55.8337 142.149 56.2071 141.488C56.5911 140.816 57.1191 140.293 57.7911 139.92C58.4631 139.547 59.2204 139.36 60.0631 139.36C60.8951 139.36 61.6364 139.547 62.2871 139.92C62.9484 140.283 63.4604 140.8 63.8231 141.472C64.1964 142.133 64.3831 142.901 64.3831 143.776ZM60.0631 140.96C59.4231 140.96 58.8791 141.152 58.4311 141.536C57.9937 141.909 57.7271 142.411 57.6311 143.04H62.4791C62.3937 142.421 62.1324 141.92 61.6951 141.536C61.2577 141.152 60.7137 140.96 60.0631 140.96ZM68.9442 148.112C68.2509 148.112 67.5735 148.021 66.9122 147.84C66.2509 147.659 65.7229 147.429 65.3282 147.152L66.0962 145.632C66.4802 145.888 66.9389 146.096 67.4722 146.256C68.0162 146.405 68.5495 146.48 69.0722 146.48C70.2669 146.48 70.8642 146.165 70.8642 145.536C70.8642 145.237 70.7095 145.029 70.4002 144.912C70.1015 144.795 69.6162 144.683 68.9442 144.576C68.2402 144.469 67.6642 144.347 67.2162 144.208C66.7789 144.069 66.3949 143.829 66.0642 143.488C65.7442 143.136 65.5842 142.651 65.5842 142.032C65.5842 141.221 65.9202 140.576 66.5922 140.096C67.2749 139.605 68.1922 139.36 69.3442 139.36C69.9309 139.36 70.5175 139.429 71.1042 139.568C71.6909 139.696 72.1709 139.872 72.5442 140.096L71.7762 141.616C71.0509 141.189 70.2349 140.976 69.3282 140.976C68.7415 140.976 68.2935 141.067 67.9842 141.248C67.6855 141.419 67.5362 141.648 67.5362 141.936C67.5362 142.256 67.6962 142.485 68.0162 142.624C68.3469 142.752 68.8535 142.875 69.5362 142.992C70.2189 143.099 70.7789 143.221 71.2162 143.36C71.6535 143.499 72.0269 143.733 72.3362 144.064C72.6562 144.395 72.8162 144.864 72.8162 145.472C72.8162 146.272 72.4695 146.912 71.7762 147.392C71.0829 147.872 70.1389 148.112 68.9442 148.112ZM74.5386 139.456H76.5386V148H74.5386V139.456ZM75.5466 138.048C75.1839 138.048 74.8799 137.936 74.6346 137.712C74.3892 137.477 74.2666 137.189 74.2666 136.848C74.2666 136.507 74.3892 136.224 74.6346 136C74.8799 135.765 75.1839 135.648 75.5466 135.648C75.9092 135.648 76.2132 135.76 76.4586 135.984C76.7039 136.197 76.8266 136.469 76.8266 136.8C76.8266 137.152 76.7039 137.451 76.4586 137.696C76.2239 137.931 75.9199 138.048 75.5466 138.048ZM87.6436 139.456V146.704C87.6436 149.712 86.1076 151.216 83.0356 151.216C82.2142 151.216 81.4356 151.109 80.6996 150.896C79.9636 150.693 79.3556 150.395 78.8756 150L79.7716 148.496C80.1449 148.805 80.6142 149.051 81.1796 149.232C81.7556 149.424 82.3369 149.52 82.9236 149.52C83.8622 149.52 84.5502 149.307 84.9876 148.88C85.4249 148.453 85.6436 147.803 85.6436 146.928V146.48C85.3022 146.853 84.8862 147.136 84.3956 147.328C83.9049 147.52 83.3662 147.616 82.7796 147.616C81.9689 147.616 81.2329 147.445 80.5716 147.104C79.9209 146.752 79.4036 146.261 79.0196 145.632C78.6462 145.003 78.4596 144.283 78.4596 143.472C78.4596 142.661 78.6462 141.947 79.0196 141.328C79.4036 140.699 79.9209 140.213 80.5716 139.872C81.2329 139.531 81.9689 139.36 82.7796 139.36C83.3982 139.36 83.9582 139.461 84.4596 139.664C84.9716 139.867 85.3982 140.176 85.7396 140.592V139.456H87.6436ZM83.0836 145.92C83.8409 145.92 84.4596 145.696 84.9396 145.248C85.4302 144.789 85.6756 144.197 85.6756 143.472C85.6756 142.757 85.4302 142.176 84.9396 141.728C84.4596 141.28 83.8409 141.056 83.0836 141.056C82.3156 141.056 81.6862 141.28 81.1956 141.728C80.7156 142.176 80.4756 142.757 80.4756 143.472C80.4756 144.197 80.7156 144.789 81.1956 145.248C81.6862 145.696 82.3156 145.92 83.0836 145.92ZM95.1209 139.36C96.1983 139.36 97.0623 139.675 97.7129 140.304C98.3636 140.933 98.6889 141.867 98.6889 143.104V148H96.6889V143.36C96.6889 142.613 96.5129 142.053 96.1609 141.68C95.8089 141.296 95.3076 141.104 94.6569 141.104C93.9209 141.104 93.3396 141.328 92.9129 141.776C92.4863 142.213 92.2729 142.848 92.2729 143.68V148H90.2729V139.456H92.1769V140.56C92.5076 140.165 92.9236 139.867 93.4249 139.664C93.9263 139.461 94.4916 139.36 95.1209 139.36ZM109.12 137.632C108.277 137.632 107.856 138.091 107.856 139.008V139.52H110.208V141.12H107.92V148H105.92V141.12H104.512V139.52H105.92V138.976C105.92 138.059 106.187 137.339 106.72 136.816C107.253 136.283 108.005 136.016 108.976 136.016C109.744 136.016 110.347 136.171 110.784 136.48L110.224 137.984C109.883 137.749 109.515 137.632 109.12 137.632ZM115.269 148.112C114.405 148.112 113.627 147.925 112.933 147.552C112.24 147.179 111.696 146.661 111.301 146C110.917 145.328 110.725 144.571 110.725 143.728C110.725 142.885 110.917 142.133 111.301 141.472C111.696 140.811 112.24 140.293 112.933 139.92C113.627 139.547 114.405 139.36 115.269 139.36C116.144 139.36 116.928 139.547 117.621 139.92C118.315 140.293 118.853 140.811 119.237 141.472C119.632 142.133 119.829 142.885 119.829 143.728C119.829 144.571 119.632 145.328 119.237 146C118.853 146.661 118.315 147.179 117.621 147.552C116.928 147.925 116.144 148.112 115.269 148.112ZM115.269 146.4C116.005 146.4 116.613 146.155 117.093 145.664C117.573 145.173 117.813 144.528 117.813 143.728C117.813 142.928 117.573 142.283 117.093 141.792C116.613 141.301 116.005 141.056 115.269 141.056C114.533 141.056 113.925 141.301 113.445 141.792C112.976 142.283 112.741 142.928 112.741 143.728C112.741 144.528 112.976 145.173 113.445 145.664C113.925 146.155 114.533 146.4 115.269 146.4ZM123.646 140.704C124.222 139.808 125.235 139.36 126.686 139.36V141.264C126.515 141.232 126.36 141.216 126.222 141.216C125.443 141.216 124.835 141.445 124.398 141.904C123.96 142.352 123.742 143.003 123.742 143.856V148H121.742V139.456H123.646V140.704ZM132.002 151.216C131.16 151.216 130.52 151.051 130.082 150.72L130.658 149.232C130.957 149.456 131.346 149.568 131.826 149.568C132.2 149.568 132.482 149.451 132.674 149.216C132.877 148.992 132.978 148.656 132.978 148.208V139.456H134.978V148.16C134.978 149.109 134.717 149.856 134.194 150.4C133.672 150.944 132.941 151.216 132.002 151.216ZM133.97 138.048C133.608 138.048 133.304 137.936 133.058 137.712C132.813 137.477 132.69 137.189 132.69 136.848C132.69 136.507 132.813 136.224 133.058 136C133.304 135.765 133.608 135.648 133.97 135.648C134.333 135.648 134.637 135.76 134.882 135.984C135.128 136.197 135.25 136.469 135.25 136.8C135.25 137.152 135.128 137.451 134.882 137.696C134.648 137.931 134.344 138.048 133.97 138.048ZM145.873 139.456V148H143.969V146.912C143.649 147.296 143.249 147.595 142.769 147.808C142.289 148.011 141.772 148.112 141.217 148.112C140.076 148.112 139.174 147.797 138.513 147.168C137.862 146.528 137.537 145.584 137.537 144.336V139.456H139.537V144.064C139.537 144.832 139.708 145.408 140.049 145.792C140.401 146.165 140.897 146.352 141.537 146.352C142.252 146.352 142.817 146.133 143.233 145.696C143.66 145.248 143.873 144.608 143.873 143.776V139.456H145.873ZM151.132 148.112C150.438 148.112 149.761 148.021 149.1 147.84C148.438 147.659 147.91 147.429 147.516 147.152L148.284 145.632C148.668 145.888 149.126 146.096 149.66 146.256C150.204 146.405 150.737 146.48 151.26 146.48C152.454 146.48 153.052 146.165 153.052 145.536C153.052 145.237 152.897 145.029 152.588 144.912C152.289 144.795 151.804 144.683 151.132 144.576C150.428 144.469 149.852 144.347 149.404 144.208C148.966 144.069 148.582 143.829 148.252 143.488C147.932 143.136 147.772 142.651 147.772 142.032C147.772 141.221 148.108 140.576 148.78 140.096C149.462 139.605 150.38 139.36 151.532 139.36C152.118 139.36 152.705 139.429 153.292 139.568C153.878 139.696 154.358 139.872 154.732 140.096L153.964 141.616C153.238 141.189 152.422 140.976 151.516 140.976C150.929 140.976 150.481 141.067 150.172 141.248C149.873 141.419 149.724 141.648 149.724 141.936C149.724 142.256 149.884 142.485 150.204 142.624C150.534 142.752 151.041 142.875 151.724 142.992C152.406 143.099 152.966 143.221 153.404 143.36C153.841 143.499 154.214 143.733 154.524 144.064C154.844 144.395 155.004 144.864 155.004 145.472C155.004 146.272 154.657 146.912 153.964 147.392C153.27 147.872 152.326 148.112 151.132 148.112ZM161.862 147.536C161.627 147.728 161.339 147.872 160.998 147.968C160.667 148.064 160.315 148.112 159.942 148.112C159.003 148.112 158.278 147.867 157.766 147.376C157.254 146.885 156.998 146.171 156.998 145.232V141.12H155.59V139.52H156.998V137.568H158.998V139.52H161.286V141.12H158.998V145.184C158.998 145.6 159.099 145.92 159.302 146.144C159.505 146.357 159.798 146.464 160.182 146.464C160.63 146.464 161.003 146.347 161.302 146.112L161.862 147.536ZM163.507 139.456H165.507V148H163.507V139.456ZM164.515 138.048C164.153 138.048 163.849 137.936 163.603 137.712C163.358 137.477 163.235 137.189 163.235 136.848C163.235 136.507 163.358 136.224 163.603 136C163.849 135.765 164.153 135.648 164.515 135.648C164.878 135.648 165.182 135.76 165.427 135.984C165.673 136.197 165.795 136.469 165.795 136.8C165.795 137.152 165.673 137.451 165.427 137.696C165.193 137.931 164.889 138.048 164.515 138.048ZM172.052 148.112C171.167 148.112 170.372 147.925 169.668 147.552C168.964 147.179 168.415 146.661 168.02 146C167.626 145.328 167.428 144.571 167.428 143.728C167.428 142.885 167.626 142.133 168.02 141.472C168.415 140.811 168.959 140.293 169.652 139.92C170.356 139.547 171.156 139.36 172.052 139.36C172.895 139.36 173.631 139.531 174.26 139.872C174.9 140.213 175.38 140.704 175.7 141.344L174.164 142.24C173.919 141.845 173.61 141.552 173.236 141.36C172.874 141.157 172.474 141.056 172.036 141.056C171.29 141.056 170.671 141.301 170.18 141.792C169.69 142.272 169.444 142.917 169.444 143.728C169.444 144.539 169.684 145.189 170.164 145.68C170.655 146.16 171.279 146.4 172.036 146.4C172.474 146.4 172.874 146.304 173.236 146.112C173.61 145.909 173.919 145.611 174.164 145.216L175.7 146.112C175.37 146.752 174.884 147.248 174.244 147.6C173.615 147.941 172.884 148.112 172.052 148.112ZM185.336 143.776C185.336 143.915 185.326 144.112 185.304 144.368H178.6C178.718 144.997 179.022 145.499 179.512 145.872C180.014 146.235 180.632 146.416 181.368 146.416C182.307 146.416 183.08 146.107 183.688 145.488L184.76 146.72C184.376 147.179 183.891 147.525 183.304 147.76C182.718 147.995 182.056 148.112 181.32 148.112C180.382 148.112 179.555 147.925 178.84 147.552C178.126 147.179 177.571 146.661 177.176 146C176.792 145.328 176.6 144.571 176.6 143.728C176.6 142.896 176.787 142.149 177.16 141.488C177.544 140.816 178.072 140.293 178.744 139.92C179.416 139.547 180.174 139.36 181.016 139.36C181.848 139.36 182.59 139.547 183.24 139.92C183.902 140.283 184.414 140.8 184.776 141.472C185.15 142.133 185.336 142.901 185.336 143.776ZM181.016 140.96C180.376 140.96 179.832 141.152 179.384 141.536C178.947 141.909 178.68 142.411 178.584 143.04H183.432C183.347 142.421 183.086 141.92 182.648 141.536C182.211 141.152 181.667 140.96 181.016 140.96Z" fill="black"/>
<path d="M134.034 69.3459C133.763 62.8794 141.044 55.7871 147.341 56.1765C152.072 56.4685 155.99 60.9325 157.315 62.3788C160.933 66.5508 160.079 68.8036 163.156 70.7227C165.664 72.3081 167.145 71.3624 174.554 71.8352C181.45 72.2663 184.898 72.4888 187.177 74.6165C188.735 76.2152 189.792 78.2154 190.224 80.3812C190.656 82.547 190.444 84.7881 189.614 86.8403C187.334 91.9579 181.991 90.5116 175.893 97.3397C172.688 100.928 173.728 101.818 170.465 105.308C167.829 108.089 162.572 113.652 155.747 112.609C149.364 111.566 144.349 105.086 143.979 99.4814C143.68 94.5724 147.17 93.9187 147.213 89.2739C147.17 80.4294 134.376 77.7176 134.034 69.3459Z" fill="#889DA3"/>
<path d="M135.501 68.1501C133.805 62.5875 137.168 60.0705 134.746 56.6356C131.768 52.4636 123.348 50.1273 117.649 53.0059C110.112 56.8024 111.651 67.3018 103.587 71.7102C101.043 73.0633 98.3766 74.1853 95.6222 75.0617C92.5732 75.9795 92.1743 75.7153 90.5358 76.4524C87.2304 77.843 83.1129 81.3057 82.7139 85.4916C82.258 90.4284 87.7718 95.4764 93.4566 97.2425C99.8109 99.2034 102.005 95.7267 110.554 96.9227C117.848 97.924 118.005 100.677 126.753 102.583C132.452 103.806 139.333 105.364 143.935 102.291C150.09 98.2299 150.318 87.2299 145.944 80.1932C142.325 74.2273 137.353 74.1578 135.501 68.1501Z" fill="#F7F0DF"/>
<path d="M79.5094 63.8945C74.5798 59.8477 67.1283 61.2245 59.5629 62.629C52.4392 63.9362 44.4036 65.4103 39.2602 72.2801C37.5505 74.5747 33.8889 79.4698 35.3279 84.3649C37.8212 92.8618 52.7383 91.0956 58.4231 102.235C60.8024 106.907 59.05 108.924 61.8567 111.538C67.5557 116.906 80.0508 113.026 86.4194 109.883C89.9386 108.131 100.524 102.93 100.268 96.0602C100.04 89.9275 91.3776 89.6771 85.6216 79.1777C81.2761 71.3762 83.9261 67.5241 79.5094 63.8945Z" fill="#FCD47C"/>
<path d="M51.0693 83.1411V93.724C51.0535 93.9174 51.1164 94.109 51.2444 94.2574C51.3725 94.4058 51.5553 94.499 51.7532 94.5167H54.161C54.4006 94.4954 54.6218 94.3827 54.7766 94.2029C54.9314 94.0232 55.0071 93.7911 54.9874 93.5571V83.1689C55.0033 82.9063 54.9142 82.6479 54.7388 82.4481C54.5634 82.2483 54.3154 82.1229 54.047 82.0981H51.9669C51.7073 82.1229 51.4679 82.2459 51.3001 82.4409C51.1323 82.6359 51.0494 82.8872 51.0693 83.1411Z" fill="#86A5AD"/>
<path d="M67.6401 83.1411V93.724C67.6303 93.8201 67.6404 93.9172 67.6697 94.0094C67.699 94.1017 67.7469 94.1873 67.8106 94.2612C67.8744 94.3351 67.9526 94.3957 68.0408 94.4396C68.129 94.4835 68.2253 94.5097 68.324 94.5167H70.7175C70.9571 94.4954 71.1784 94.3827 71.3331 94.2029C71.4879 94.0232 71.5637 93.7911 71.5439 93.5571V83.1689C71.5637 82.9076 71.4779 82.6492 71.3048 82.449C71.1316 82.2488 70.885 82.1229 70.6178 82.0981H68.4664C68.2183 82.136 67.9943 82.2652 67.8407 82.4591C67.687 82.6531 67.6152 82.8971 67.6401 83.1411Z" fill="#86A5AD"/>
<path d="M59.3185 83.1411V93.724C59.3087 93.8201 59.3188 93.9172 59.3481 94.0094C59.3773 94.1017 59.4253 94.1873 59.489 94.2612C59.5528 94.3351 59.631 94.3957 59.7192 94.4396C59.8074 94.4835 59.9036 94.5097 60.0024 94.5167H62.3959C62.6355 94.4954 62.8568 94.3827 63.0115 94.2029C63.1663 94.0232 63.2421 93.7911 63.2223 93.5571V83.1689C63.2421 82.9076 63.1563 82.6492 62.9831 82.449C62.81 82.2488 62.5634 82.1229 62.2962 82.0981H60.2161C60.0868 82.1086 59.9609 82.144 59.8457 82.2022C59.7305 82.2604 59.6282 82.3402 59.5448 82.4371C59.4613 82.5341 59.3984 82.6463 59.3596 82.7671C59.3207 82.8879 59.3068 83.015 59.3185 83.1411Z" fill="#86A5AD"/>
<path d="M75.5621 83.1411V93.724C75.5463 93.9174 75.6092 94.109 75.7373 94.2574C75.8653 94.4058 76.0481 94.499 76.246 94.5167H78.6396C78.7595 94.5079 78.8764 94.476 78.9836 94.4229C79.0908 94.3699 79.1862 94.2967 79.2644 94.2075C79.3425 94.1183 79.4018 94.0149 79.4388 93.9033C79.4759 93.7917 79.4899 93.6741 79.4802 93.5571V83.1689C79.4962 82.9063 79.407 82.6479 79.2316 82.4481C79.0562 82.2483 78.8082 82.1229 78.5399 82.0981H76.4597C76.3304 82.1086 76.2046 82.144 76.0894 82.2022C75.9741 82.2604 75.8719 82.3402 75.7884 82.4371C75.705 82.5341 75.642 82.6463 75.6032 82.7671C75.5644 82.8879 75.5504 83.015 75.5621 83.1411Z" fill="#86A5AD"/>
<path d="M46.271 98.1047V99.4119C46.3028 99.6187 46.4157 99.8054 46.5858 99.9325C46.7559 100.06 46.97 100.117 47.1828 100.093H83.8559C84.134 100.122 84.4128 100.046 84.6352 99.8802C84.8577 99.7147 85.007 99.4726 85.0527 99.2033V98.0908C85.0102 97.8163 84.8602 97.5686 84.6343 97.4C84.4084 97.2314 84.1242 97.1549 83.8416 97.1869H47.5105C47.222 97.1511 46.9305 97.2271 46.6988 97.3987C46.467 97.5703 46.3134 97.8238 46.271 98.1047Z" fill="#6F859B"/>
<path d="M42.5352 101.679V102.972C42.5352 103.348 43.0196 103.667 43.6322 103.667H87.5857C88.3836 103.667 89.0105 103.264 89.0105 102.764V101.665C89.0105 101.164 88.3551 100.747 87.5857 100.747H44.0026C43.1905 100.747 42.5352 101.164 42.5352 101.679Z" fill="#6F859B"/>
<path d="M58.4636 78.6077L65.3166 73.8795C65.4143 73.8051 65.5346 73.7646 65.6586 73.7646C65.7825 73.7646 65.9028 73.8051 66.0005 73.8795L72.6683 78.5382C72.7733 78.6072 72.8525 78.7075 72.894 78.8241C72.9355 78.9407 72.9371 79.0674 72.8986 79.185C72.86 79.3026 72.7834 79.4048 72.6802 79.4762C72.577 79.5477 72.4528 79.5846 72.3264 79.5812L58.8055 79.7202C58.6544 79.7645 58.4914 79.7484 58.3525 79.6753C58.2135 79.6023 58.11 79.4783 58.0646 79.3308C58.0193 79.1833 58.0359 79.0243 58.1107 78.8887C58.1855 78.7531 58.3124 78.652 58.4636 78.6077Z" fill="#6F859B"/>
<path d="M65.7748 75.5485L69.237 77.9821C69.277 78.0081 69.3062 78.0473 69.3189 78.0926C69.3317 78.1379 69.3272 78.1862 69.3064 78.2285C69.2856 78.2709 69.2498 78.3045 69.2056 78.3231C69.1614 78.3417 69.1118 78.3441 69.066 78.3298H62.0277C61.9871 78.328 61.9479 78.3141 61.9156 78.2899C61.8833 78.2657 61.8593 78.2325 61.8469 78.1947C61.8345 78.1568 61.8342 78.1161 61.8462 78.0781C61.8581 78.0401 61.8817 78.0067 61.9137 77.9821L65.4756 75.5067C65.523 75.4795 65.5783 75.4689 65.6327 75.4765C65.6871 75.4841 65.7372 75.5095 65.7748 75.5485Z" fill="#FFECB6"/>
<path d="M153.737 75.6318L191.336 68.3726C191.52 68.3146 191.719 68.3286 191.892 68.4117C192.065 68.4948 192.198 68.6404 192.262 68.8175L192.562 70.3055C192.562 70.6393 192.319 70.9731 191.892 71.0565L154.279 78.3296C154.095 78.3828 153.898 78.3646 153.728 78.2791C153.558 78.1936 153.429 78.0472 153.367 77.8707L153.125 76.3966C153.111 76.2176 153.167 76.0403 153.28 75.899C153.393 75.7576 153.556 75.6623 153.737 75.6318Z" fill="#FCD147"/>
<path d="M172.774 99.3145C180.368 99.3145 186.751 101.011 188.447 103.319C188.529 103.427 188.582 103.553 188.6 103.687C188.618 103.82 188.6 103.955 188.549 104.08C188.497 104.205 188.413 104.314 188.306 104.398C188.198 104.481 188.07 104.536 187.934 104.557H157.615C157.059 104.557 156.76 103.806 157.116 103.319C158.826 101.011 165.152 99.3145 172.774 99.3145Z" fill="#FCD147"/>
<path d="M169.653 72.7669L175.352 71.6544C175.328 71.2449 175.215 70.8451 175.019 70.4822C174.823 70.1192 174.55 69.8014 174.218 69.5504C173.885 69.2995 173.501 69.1211 173.092 69.0274C172.683 68.9337 172.258 68.9269 171.846 69.0073C171.434 69.0877 171.045 69.2536 170.704 69.4937C170.363 69.7338 170.079 70.0425 169.871 70.399C169.663 70.7554 169.536 71.1512 169.499 71.5598C169.461 71.9683 169.514 72.38 169.653 72.7669Z" fill="#FCD147"/>
<path d="M170.92 100.302V76.8278C170.92 76.5496 171.234 76.3271 171.633 76.3271H173.371C173.77 76.3271 174.083 76.5496 174.083 76.8278V100.302C174.083 100.58 173.77 100.803 173.371 100.803H171.647C171.234 100.803 170.92 100.58 170.92 100.302Z" fill="#FCD147"/>
<path d="M171.647 70.2358C171.614 70.3258 171.614 70.424 171.647 70.514C171.682 70.5943 171.735 70.6657 171.803 70.7226C171.523 70.8302 171.259 70.9752 171.02 71.1537C170.723 71.3807 170.472 71.6587 170.279 71.9742C170.307 71.5196 170.493 71.0879 170.806 70.7504C171.038 70.513 171.327 70.3361 171.647 70.2358Z" fill="white"/>
<path d="M163.354 101.178C163.354 101.178 163.796 101.247 163.853 101.456C163.91 101.664 163.625 102.04 163.055 102.221C162.23 102.339 161.412 102.501 160.605 102.707C159.898 102.964 159.168 103.155 158.425 103.278C158.425 103.139 159.379 102.429 160.519 101.887C161.42 101.505 162.377 101.266 163.354 101.178Z" fill="white"/>
<path d="M52.1092 82.877C52.0379 82.877 51.981 83.1272 51.981 83.4332V93.1677C51.981 93.4737 51.981 93.724 52.1092 93.724C52.2374 93.724 52.2517 93.4737 52.2517 93.1677V83.4332C52.2517 83.1272 52.1947 82.877 52.1092 82.877Z" fill="#FFECB6"/>
<path d="M53.976 82.877C53.8905 82.877 53.8335 83.1272 53.8335 83.4332V93.1677C53.8335 93.4737 53.8335 93.724 53.976 93.724C54.1184 93.724 54.1184 93.4737 54.1184 93.1677V83.4332C54.1184 83.1272 54.0472 82.877 53.976 82.877Z" fill="#FFECB6"/>
<path d="M53.036 82.8633C52.9505 82.8633 52.8936 83.1135 52.8936 83.4195V93.154C52.8936 93.46 52.8936 93.7103 53.036 93.7103C53.1785 93.7103 53.1643 93.46 53.1643 93.154V83.4195C53.1643 83.1135 53.1073 82.8633 53.036 82.8633Z" fill="#FFECB6"/>
<path d="M60.3466 82.8911C60.2753 82.8911 60.2041 83.1414 60.2041 83.4473V93.1819C60.2041 93.4878 60.2041 93.7382 60.3466 93.7382C60.489 93.7382 60.489 93.4878 60.489 93.1819V83.4473C60.5175 83.1414 60.4321 82.8911 60.3466 82.8911Z" fill="#FFECB6"/>
<path d="M62.1986 82.8911C62.1274 82.8911 62.0562 83.1414 62.0562 83.4473V93.1819C62.0562 93.4878 62.1274 93.7382 62.1986 93.7382C62.2699 93.7382 62.3411 93.4878 62.3411 93.1819V83.4473C62.3411 83.1414 62.2841 82.8911 62.1986 82.8911Z" fill="#FFECB6"/>
<path d="M61.2592 82.877C61.1879 82.877 61.1167 83.1272 61.1167 83.4332V93.1677C61.1167 93.4737 61.1167 93.724 61.2592 93.724C61.4016 93.724 61.4016 93.4737 61.4016 93.1677V83.4332C61.4016 83.1272 61.3447 82.877 61.2592 82.877Z" fill="#FFECB6"/>
<path d="M68.5922 82.9048C68.5067 82.9048 68.4497 83.1551 68.4497 83.4611V93.1956C68.4497 93.5016 68.4497 93.7519 68.5922 93.7519C68.7347 93.7519 68.7347 93.5016 68.7347 93.1956V83.4611C68.7347 83.1551 68.6634 82.9048 68.5922 82.9048Z" fill="#FFECB6"/>
<path d="M70.4882 82.9048C70.4882 82.9048 70.3457 83.1551 70.3457 83.4611V93.1956C70.3457 93.5016 70.4169 93.7519 70.4882 93.7519C70.5594 93.7519 70.6307 93.5016 70.6307 93.1956V83.4611C70.5879 83.1551 70.4882 82.9048 70.4882 82.9048Z" fill="#FFECB6"/>
<path d="M69.5067 82.8911C69.4213 82.8911 69.3643 83.1414 69.3643 83.4473V93.1819C69.3643 93.4878 69.3643 93.7382 69.5067 93.7382C69.6492 93.7382 69.6492 93.4878 69.6492 93.1819V83.4473C69.6492 83.1414 69.578 82.8911 69.5067 82.8911Z" fill="#FFECB6"/>
<path d="M76.5883 82.9048C76.517 82.9048 76.4458 83.1551 76.4458 83.4611V93.1956C76.4458 93.5016 76.4458 93.7519 76.5883 93.7519C76.7307 93.7519 76.7308 93.5016 76.7308 93.1956V83.4611C76.7308 83.1551 76.6738 82.9048 76.5883 82.9048Z" fill="#FFECB6"/>
<path d="M78.4407 82.9048C78.4407 82.9048 78.3125 83.1551 78.3125 83.4611V93.1956C78.3125 93.5016 78.3125 93.7519 78.4407 93.7519C78.569 93.7519 78.5832 93.5016 78.5832 93.1956V83.4611C78.5832 83.1551 78.5262 82.9048 78.4407 82.9048Z" fill="#FFECB6"/>
<path d="M77.4965 82.8911C77.4252 82.8911 77.354 83.1414 77.354 83.4473V93.1819C77.354 93.4878 77.354 93.7382 77.4965 93.7382C77.639 93.7382 77.639 93.4878 77.639 93.1819V83.4473C77.6105 83.1414 77.6105 82.8911 77.4965 82.8911Z" fill="#FFECB6"/>
<path d="M50.6416 81.7646V82.5852C51.4287 82.3906 52.2375 82.2924 53.0494 82.2931C53.8708 82.2922 54.6891 82.3903 55.4858 82.5852V81.7646H50.6416Z" fill="#86A5AD"/>
<path d="M50.644 83.4613C51.124 83.4613 51.5131 83.0815 51.5131 82.613C51.5131 82.1445 51.124 81.7646 50.644 81.7646C50.164 81.7646 49.7749 82.1445 49.7749 82.613C49.7749 83.0815 50.164 83.4613 50.644 83.4613Z" fill="#86A5AD"/>
<path d="M55.4438 83.4613C55.9238 83.4613 56.3129 83.0815 56.3129 82.613C56.3129 82.1445 55.9238 81.7646 55.4438 81.7646C54.9638 81.7646 54.5747 82.1445 54.5747 82.613C54.5747 83.0815 54.9638 83.4613 55.4438 83.4613Z" fill="#86A5AD"/>
<path d="M58.8936 81.7366V82.5014C59.6825 82.3183 60.4905 82.2249 61.3014 82.2233C62.122 82.2192 62.9402 82.3126 63.7377 82.5014V81.6948L58.8936 81.7366Z" fill="#86A5AD"/>
<path d="M58.8794 83.4192C59.3593 83.4192 59.7485 83.0394 59.7485 82.5709C59.7485 82.1024 59.3593 81.7227 58.8794 81.7227C58.3994 81.7227 58.0103 82.1024 58.0103 82.5709C58.0103 83.0394 58.3994 83.4192 58.8794 83.4192Z" fill="#86A5AD"/>
<path d="M63.6919 83.4192C64.1718 83.4192 64.561 83.0394 64.561 82.5709C64.561 82.1024 64.1718 81.7227 63.6919 81.7227C63.2119 81.7227 62.8228 82.1024 62.8228 82.5709C62.8228 83.0394 63.2119 83.4192 63.6919 83.4192Z" fill="#86A5AD"/>
<path d="M67.1123 81.7925V82.613C67.8994 82.4184 68.7082 82.3203 69.5201 82.3209C70.3462 82.3197 71.1692 82.4178 71.9707 82.613V81.7925H67.1123Z" fill="#86A5AD"/>
<path d="M67.1147 83.4891C67.5947 83.4891 67.9838 83.1093 67.9838 82.6408C67.9838 82.1723 67.5947 81.7925 67.1147 81.7925C66.6347 81.7925 66.2456 82.1723 66.2456 82.6408C66.2456 83.1093 66.6347 83.4891 67.1147 83.4891Z" fill="#86A5AD"/>
<path d="M71.9272 83.4891C72.4072 83.4891 72.7963 83.1093 72.7963 82.6408C72.7963 82.1723 72.4072 81.7925 71.9272 81.7925C71.4472 81.7925 71.0581 82.1723 71.0581 82.6408C71.0581 83.1093 71.4472 83.4891 71.9272 83.4891Z" fill="#86A5AD"/>
<path d="M75.0913 81.8203V82.6407C75.8831 82.4453 76.6967 82.3472 77.5134 82.3488C78.3347 82.3478 79.153 82.4459 79.9497 82.6407V81.8203H75.0913Z" fill="#86A5AD"/>
<path d="M75.0918 83.5169C75.5717 83.5169 75.9609 83.1371 75.9609 82.6686C75.9609 82.2001 75.5717 81.8203 75.0918 81.8203C74.6118 81.8203 74.2227 82.2001 74.2227 82.6686C74.2227 83.1371 74.6118 83.5169 75.0918 83.5169Z" fill="#86A5AD"/>
<path d="M79.9086 83.5169C80.3886 83.5169 80.7777 83.1371 80.7777 82.6686C80.7777 82.2001 80.3886 81.8203 79.9086 81.8203C79.4287 81.8203 79.0396 82.2001 79.0396 82.6686C79.0396 83.1371 79.4287 83.5169 79.9086 83.5169Z" fill="#86A5AD"/>
<path d="M67.127 94.9201V94.0996C67.919 94.2934 68.7325 94.3914 69.549 94.3916C70.3707 94.3991 71.1899 94.3009 71.9854 94.0996V94.9201H67.127Z" fill="#86A5AD"/>
<path d="M67.1274 94.9202C67.6074 94.9202 67.9965 94.5404 67.9965 94.0719C67.9965 93.6034 67.6074 93.2236 67.1274 93.2236C66.6474 93.2236 66.2583 93.6034 66.2583 94.0719C66.2583 94.5404 66.6474 94.9202 67.1274 94.9202Z" fill="#86A5AD"/>
<path d="M71.9438 94.9202C72.4238 94.9202 72.8129 94.5404 72.8129 94.0719C72.8129 93.6034 72.4238 93.2236 71.9438 93.2236C71.4638 93.2236 71.0747 93.6034 71.0747 94.0719C71.0747 94.5404 71.4638 94.9202 71.9438 94.9202Z" fill="#86A5AD"/>
<path d="M75.1206 95.0175V94.2109C75.9088 94.3996 76.7169 94.4977 77.5284 94.503C78.3498 94.5039 79.1681 94.4058 79.9648 94.2109V95.0175H75.1206Z" fill="#86A5AD"/>
<path d="M75.1064 94.9481C75.5864 94.9481 75.9755 94.5682 75.9755 94.0997C75.9755 93.6312 75.5864 93.2515 75.1064 93.2515C74.6264 93.2515 74.2373 93.6312 74.2373 94.0997C74.2373 94.5682 74.6264 94.9481 75.1064 94.9481Z" fill="#86A5AD"/>
<path d="M79.9233 94.9481C80.4033 94.9481 80.7924 94.5682 80.7924 94.0997C80.7924 93.6312 80.4033 93.2515 79.9233 93.2515C79.4433 93.2515 79.0542 93.6312 79.0542 94.0997C79.0542 94.5682 79.4433 94.9481 79.9233 94.9481Z" fill="#86A5AD"/>
<path d="M58.8501 94.9201V94.0996C59.6372 94.2942 60.446 94.3922 61.2579 94.3916C62.0844 94.3998 62.9083 94.3017 63.7085 94.0996V94.9201H58.8501Z" fill="#86A5AD"/>
<path d="M58.8481 94.9202C59.3281 94.9202 59.7172 94.5404 59.7172 94.0719C59.7172 93.6034 59.3281 93.2236 58.8481 93.2236C58.3681 93.2236 57.979 93.6034 57.979 94.0719C57.979 94.5404 58.3681 94.9202 58.8481 94.9202Z" fill="#86A5AD"/>
<path d="M63.665 94.9202C64.145 94.9202 64.5341 94.5404 64.5341 94.0719C64.5341 93.6034 64.145 93.2236 63.665 93.2236C63.185 93.2236 62.7959 93.6034 62.7959 94.0719C62.7959 94.5404 63.185 94.9202 63.665 94.9202Z" fill="#86A5AD"/>
<path d="M50.627 95.0173V94.1968C51.4138 94.3924 52.2228 94.4905 53.0348 94.4888C53.8561 94.4898 54.6744 94.3917 55.4711 94.1968V95.0173H50.627Z" fill="#86A5AD"/>
<path d="M50.6147 94.9758C51.0947 94.9758 51.4838 94.5961 51.4838 94.1276C51.4838 93.6591 51.0947 93.2793 50.6147 93.2793C50.1347 93.2793 49.7456 93.6591 49.7456 94.1276C49.7456 94.5961 50.1347 94.9758 50.6147 94.9758Z" fill="#86A5AD"/>
<path d="M55.4296 94.9758C55.9096 94.9758 56.2987 94.5961 56.2987 94.1276C56.2987 93.6591 55.9096 93.2793 55.4296 93.2793C54.9497 93.2793 54.5605 93.6591 54.5605 94.1276C54.5605 94.5961 54.9497 94.9758 55.4296 94.9758Z" fill="#86A5AD"/>
<path d="M66.3007 67.6914H65.2178C64.9031 67.6914 64.6479 67.9405 64.6479 68.2477V70.1946C64.6479 70.5019 64.9031 70.7509 65.2178 70.7509H66.3007C66.6154 70.7509 66.8706 70.5019 66.8706 70.1946V68.2477C66.8706 67.9405 66.6154 67.6914 66.3007 67.6914Z" fill="#86A5AD"/>
<path d="M68.4553 70.1575L67.7669 71.0789C67.5815 71.3271 67.6373 71.675 67.8916 71.856L68.7665 72.4788C69.0208 72.6598 69.3773 72.6053 69.5628 72.3571L70.2511 71.4357C70.4366 71.1875 70.3807 70.8395 70.1264 70.6585L69.2515 70.0358C68.9972 69.8547 68.6407 69.9093 68.4553 70.1575Z" fill="#86A5AD"/>
<path d="M71.3724 71.6205L70.4223 72.8719C70.2349 73.1188 70.288 73.4671 70.5409 73.6501L71.4109 74.2793C71.6638 74.4622 72.0207 74.4104 72.2081 74.1636L73.1581 72.9122C73.3455 72.6653 73.2925 72.317 73.0396 72.1341L72.1696 71.5048C71.9167 71.3219 71.5598 71.3737 71.3724 71.6205Z" fill="#86A5AD"/>
<path d="M74.0297 73.4341L73.0486 74.7837C72.8664 75.0342 72.9269 75.3815 73.1836 75.5592L74.0666 76.1708C74.3232 76.3486 74.679 76.2897 74.8612 76.0391L75.8423 74.6895C76.0245 74.439 75.964 74.0917 75.7073 73.9139L74.8243 73.3023C74.5677 73.1246 74.2119 73.1835 74.0297 73.4341Z" fill="#86A5AD"/>
<path d="M61.8192 69.3875L60.922 69.9792C60.6611 70.1511 60.5926 70.4969 60.7687 70.7515L61.8215 72.2726C61.9977 72.5272 62.3519 72.5941 62.6127 72.4221L63.51 71.8305C63.7708 71.6585 63.8394 71.3128 63.6633 71.0582L62.6105 69.5371C62.4343 69.2826 62.08 69.2156 61.8192 69.3875Z" fill="#86A5AD"/>
<path d="M59.0487 71.4181L58.154 72.0134C57.8939 72.1864 57.8268 72.5324 58.0041 72.7863L58.959 74.1537C59.1363 74.4075 59.4909 74.4731 59.7509 74.3L60.6456 73.7047C60.9057 73.5317 60.9728 73.1856 60.7955 72.9318L59.8406 71.5644C59.6633 71.3105 59.3088 71.245 59.0487 71.4181Z" fill="#86A5AD"/>
<path d="M56.2595 73.5331L55.3716 74.1356C55.1135 74.3107 55.0434 74.6479 55.2149 74.8888L56.1236 76.1648C56.2952 76.4057 56.6435 76.4591 56.9016 76.284L57.7895 75.6815C58.0476 75.5064 58.1177 75.1691 57.9462 74.9282L57.0375 73.6523C56.8659 73.4113 56.5176 73.358 56.2595 73.5331Z" fill="#86A5AD"/>
<path d="M64.1353 78.3296H66.9847C66.9847 77.9608 66.8346 77.6071 66.5675 77.3463C66.3003 77.0855 65.9379 76.939 65.56 76.939C65.1821 76.939 64.8197 77.0855 64.5526 77.3463C64.2854 77.6071 64.1353 77.9608 64.1353 78.3296Z" fill="#86A5AD"/>
<path d="M48.0522 78.7329V80.5408C48.0522 80.652 48.1805 80.7354 48.3372 80.7354H82.5312C82.8304 80.7354 83.0726 80.5686 83.0726 80.36V78.719C83.0726 78.5104 82.8304 78.3435 82.5169 78.3435H48.6221C48.3087 78.3296 48.0522 78.5104 48.0522 78.7329Z" fill="#6F859B"/>
<path d="M49.8036 96.1299C49.6063 96.1283 49.4113 96.1712 49.2337 96.2551L46.8687 97.312H84.482L81.889 96.2412C81.7177 96.1699 81.5338 96.1321 81.3476 96.1299H49.8036Z" fill="#A6B4BF"/>
<path d="M46.6813 99.69C46.4765 99.6906 46.2736 99.7283 46.0829 99.8013L43.2334 100.872H88.227L85.1353 99.8152C84.9127 99.7309 84.6759 99.6884 84.4372 99.69H46.6813Z" fill="#A6B4BF"/>
<path d="M53.8465 75.0003L52.9576 75.6038C52.6992 75.7792 52.6355 76.1259 52.8152 76.3781L53.767 77.7138C53.9467 77.966 54.3019 78.0283 54.5603 77.8529L55.4492 77.2494C55.7076 77.0739 55.7714 76.7273 55.5916 76.4751L54.6398 75.1393C54.4601 74.8871 54.1049 74.8249 53.8465 75.0003Z" fill="#86A5AD"/>
<path d="M48.1763 78.9416L49.2306 80.4296C49.2651 80.4619 49.3111 80.4799 49.3589 80.4799C49.4067 80.4799 49.4526 80.4619 49.4871 80.4296L66.8975 68.6786C66.9596 68.612 66.994 68.5252 66.994 68.4352C66.994 68.3452 66.9596 68.2584 66.8975 68.1919L65.9287 66.8012C65.904 66.7614 65.8713 66.7268 65.8326 66.6995C65.7939 66.6723 65.75 66.6529 65.7035 66.6425C65.657 66.6321 65.6088 66.631 65.5618 66.6392C65.5149 66.6473 65.47 66.6646 65.43 66.6899L48.1906 78.3297C48.1368 78.361 48.0921 78.4053 48.0606 78.4581C48.0291 78.5109 48.0118 78.5706 48.0103 78.6318C48.0089 78.6929 48.0234 78.7534 48.0524 78.8075C48.0815 78.8617 48.1241 78.9078 48.1763 78.9416Z" fill="#6F859B"/>
<path d="M76.5546 75.1943L75.5735 76.5439C75.3913 76.7945 75.4517 77.1417 75.7084 77.3194L76.5915 77.9311C76.8481 78.1089 77.2039 78.0499 77.3861 77.7994L78.3672 76.4498C78.5494 76.1992 78.4889 75.852 78.2323 75.6742L77.3492 75.0625C77.0925 74.8848 76.7368 74.9438 76.5546 75.1943Z" fill="#86A5AD"/>
<path d="M65.4871 66.9263L64.4043 68.4003C64.373 68.4376 64.356 68.4843 64.356 68.5325C64.356 68.5807 64.373 68.6273 64.4043 68.6646L81.2876 80.3461C81.3264 80.3712 81.3702 80.3882 81.4161 80.3962C81.4619 80.4041 81.509 80.4029 81.5544 80.3925C81.5997 80.3821 81.6424 80.3627 81.6799 80.3356C81.7173 80.3084 81.7486 80.2742 81.772 80.2348L82.7408 78.8442C82.8061 78.7792 82.8426 78.6918 82.8426 78.6008C82.8426 78.5098 82.8061 78.4224 82.7408 78.3575L66 66.7594C65.956 66.7336 65.9067 66.7175 65.8557 66.712C65.8046 66.7066 65.753 66.712 65.7043 66.7278C65.6555 66.7437 65.6109 66.7696 65.5734 66.8039C65.5359 66.8381 65.5065 66.8798 65.4871 66.9263Z" fill="#6F859B"/>
<path d="M102.689 83.892V76.9387C102.689 76.4838 102.874 76.0473 103.202 75.7243C103.53 75.4013 103.976 75.218 104.442 75.2144H120.855C121.298 75.218 121.722 75.3925 122.035 75.6999C122.347 76.0072 122.522 76.4225 122.522 76.8553V83.8086C122.522 84.2696 122.334 84.7118 122 85.0378C121.666 85.3638 121.213 85.5469 120.741 85.5469H113.518C113.229 85.545 112.943 85.5993 112.676 85.7068C112.41 85.8143 112.168 85.9727 111.965 86.1727L108.289 89.7605C108.241 89.8074 108.18 89.8393 108.113 89.8523C108.047 89.8652 107.978 89.8586 107.916 89.8333C107.853 89.8079 107.799 89.765 107.762 89.71C107.724 89.655 107.704 89.5903 107.705 89.5241V86.3396C107.705 86.128 107.62 85.925 107.468 85.7741C107.316 85.6232 107.109 85.5366 106.892 85.533L104.285 85.4495C103.865 85.439 103.466 85.2715 103.169 84.9817C102.872 84.6918 102.7 84.3018 102.689 83.892Z" fill="#7896A0"/>
<path d="M103.9 82.8215V75.8682C103.9 75.6424 103.946 75.4189 104.035 75.2104C104.124 75.002 104.254 74.8128 104.418 74.6538C104.582 74.4948 104.777 74.3691 104.992 74.284C105.206 74.1988 105.435 74.1559 105.667 74.1578H122.065C122.284 74.1578 122.501 74.1998 122.703 74.2816C122.906 74.3634 123.089 74.4833 123.244 74.6344C123.399 74.7855 123.522 74.9648 123.606 75.1622C123.689 75.3596 123.732 75.5711 123.732 75.7848V82.8076C123.732 83.2686 123.545 83.7108 123.211 84.0368C122.877 84.3628 122.424 84.5459 121.951 84.5459H114.728C114.144 84.5503 113.586 84.7804 113.175 85.1856L109.499 88.7596C109.451 88.8064 109.39 88.8383 109.324 88.8513C109.257 88.8642 109.189 88.8577 109.126 88.8323C109.063 88.807 109.01 88.7641 108.972 88.709C108.935 88.654 108.915 88.5893 108.915 88.5232V85.283C108.915 85.0701 108.831 84.8655 108.679 84.7124C108.527 84.5593 108.321 84.4697 108.103 84.4625L105.496 84.379C105.076 84.3685 104.676 84.201 104.379 83.9112C104.082 83.6213 103.911 83.2313 103.9 82.8215Z" fill="#FCD147"/>
<path d="M139.205 96.4775V89.5243C139.205 89.0693 139.021 88.6328 138.692 88.3098C138.364 87.9868 137.919 87.8035 137.452 87.7999H121.039C120.817 87.798 120.596 87.8396 120.39 87.9223C120.185 88.0049 119.998 88.127 119.841 88.2812C119.684 88.4354 119.561 88.6187 119.478 88.8203C119.395 89.0218 119.354 89.2376 119.358 89.4547V96.408C119.362 96.8703 119.553 97.3125 119.889 97.6381C120.225 97.9637 120.68 98.1463 121.153 98.1463H128.377C128.961 98.1507 129.519 98.3808 129.93 98.786L133.606 102.36C133.653 102.407 133.714 102.439 133.781 102.452C133.847 102.465 133.916 102.458 133.979 102.433C134.041 102.407 134.095 102.364 134.132 102.309C134.17 102.254 134.19 102.19 134.19 102.124V98.9529C134.19 98.74 134.274 98.5355 134.426 98.3824C134.577 98.2293 134.784 98.1396 135.002 98.1324L137.595 98.049C138.019 98.0384 138.422 97.8695 138.721 97.577C139.021 97.2846 139.194 96.891 139.205 96.4775Z" fill="#FCD147"/>
<path d="M138.422 95.7126V88.7593C138.422 88.3056 138.237 87.8706 137.909 87.5498C137.58 87.229 137.134 87.0488 136.669 87.0488H120.256C119.814 87.0488 119.39 87.2202 119.078 87.5253C118.765 87.8305 118.589 88.2443 118.589 88.6759V95.6986C118.593 96.1549 118.78 96.5914 119.111 96.914C119.441 97.2366 119.889 97.4194 120.356 97.423H127.58C128.163 97.4275 128.722 97.6575 129.133 98.0628L132.808 101.637C132.856 101.684 132.917 101.715 132.984 101.728C133.05 101.741 133.119 101.735 133.182 101.709C133.244 101.684 133.298 101.641 133.335 101.586C133.373 101.531 133.393 101.466 133.393 101.4V98.2296C133.392 98.0168 133.477 97.8122 133.629 97.6591C133.78 97.506 133.987 97.4163 134.205 97.4091L136.812 97.3257C137.244 97.3184 137.656 97.1448 137.957 96.8426C138.259 96.5405 138.426 96.1343 138.422 95.7126Z" fill="#7896A0"/>
<path d="M153.851 87.5914C153.68 88.2033 153.495 88.3702 153.367 88.398C153.239 88.4258 153.039 88.2589 152.569 88.1198L152.241 88.0364C152.455 87.5497 152.64 87.4246 152.783 87.3968C152.925 87.3689 153.139 87.5636 153.523 87.6053C153.633 87.6165 153.743 87.6118 153.851 87.5914Z" fill="#CC9966" stroke="#845F3D" stroke-width="0.1" stroke-miterlimit="10"/>
<path d="M153.538 88.3003C153.324 88.8844 153.139 89.0235 152.996 89.0374C152.854 89.0513 152.683 88.8426 152.227 88.634L151.899 88.5229C152.142 88.0639 152.341 87.9526 152.498 87.9526C152.655 87.9526 152.825 88.1752 153.21 88.2586C153.317 88.289 153.427 88.3031 153.538 88.3003Z" fill="#CC9966" stroke="#845F3D" stroke-width="0.1" stroke-miterlimit="10"/>
<path d="M154.45 86.1174C154.336 86.7432 154.166 86.9379 154.037 86.9935C153.909 87.0492 153.71 86.9101 153.225 86.8406H152.897C153.054 86.3121 153.239 86.1591 153.382 86.1174C153.524 86.0757 153.738 86.2148 154.137 86.1174C154.241 86.1287 154.346 86.1287 154.45 86.1174Z" fill="#CC9966" stroke="#845F3D" stroke-width="0.1" stroke-miterlimit="10"/>
<path d="M154.207 86.8685C154.05 87.4665 153.865 87.6472 153.722 87.6889C153.58 87.7306 153.395 87.5499 153.01 87.4943C152.865 87.459 152.713 87.459 152.568 87.4943C152.782 86.8824 152.982 86.7294 153.138 86.7016C153.295 86.6738 153.48 86.8546 153.879 86.8824C153.988 86.8927 154.099 86.888 154.207 86.8685Z" fill="#CC9966" stroke="#845F3D" stroke-width="0.1" stroke-miterlimit="10"/>
<path d="M155.078 84.9351C154.907 85.547 154.721 85.7 154.579 85.7417C154.436 85.7835 154.194 85.4775 153.781 85.4636C153.664 85.4322 153.541 85.4322 153.425 85.4636C153.653 84.8656 153.852 84.7126 154.009 84.6848C154.166 84.657 154.351 84.8517 154.75 84.8934C154.857 84.9222 154.967 84.9363 155.078 84.9351Z" fill="#CC9966" stroke="#845F3D" stroke-width="0.1" stroke-miterlimit="10"/>
<path d="M154.762 85.6447C154.534 86.2427 154.349 86.3679 154.207 86.3679C154.064 86.3679 153.964 86.2149 153.751 86.1453C153.636 86.1166 153.515 86.1168 153.401 86.146C153.286 86.1752 153.181 86.2324 153.095 86.3122C153.295 85.5752 153.48 85.3944 153.622 85.3805C153.765 85.3666 154.007 85.5891 154.306 85.6169H154.677L154.762 85.6447Z" fill="#CC9966" stroke="#845F3D" stroke-width="0.1" stroke-miterlimit="10"/>
<path d="M155.675 83.4475C155.561 84.0872 155.39 84.2819 155.262 84.3375C155.134 84.3931 154.92 84.2402 154.436 84.1845H154.108C154.279 83.6561 154.45 83.5031 154.592 83.4475C154.735 83.3918 154.963 83.5587 155.347 83.5309C155.461 83.5227 155.572 83.4944 155.675 83.4475Z" fill="#CC9966" stroke="#845F3D" stroke-width="0.1" stroke-miterlimit="10"/>
<path d="M155.419 84.2123C155.263 84.8102 155.077 84.9911 154.949 85.0328C154.821 85.0745 154.621 84.8937 154.222 84.8241C154.076 84.803 153.927 84.803 153.781 84.8241C153.994 84.2262 154.194 84.0732 154.351 84.0454C154.507 84.0176 154.693 84.1984 155.092 84.2262C155.201 84.2374 155.311 84.2327 155.419 84.2123Z" fill="#CC9966" stroke="#845F3D" stroke-width="0.1" stroke-miterlimit="10"/>
<path d="M156.529 79.7204C156.743 79.1224 156.956 78.9695 157.099 78.9416C157.241 78.9138 157.426 79.1085 157.925 79.2615C158.035 79.3058 158.15 79.3385 158.267 79.3588C158.011 79.8316 157.797 79.9568 157.64 79.9707C157.483 79.9846 157.284 79.776 156.871 79.7204H156.529Z" fill="#CC9966" stroke="#845F3D" stroke-width="0.1" stroke-miterlimit="10"/>
<path d="M156.899 78.9556C157.17 78.3854 157.384 78.2603 157.526 78.2603C157.669 78.2603 157.854 78.4688 158.324 78.6914L158.652 78.8304C158.367 79.2754 158.139 79.3727 157.982 79.3588C157.826 79.3449 157.64 79.1224 157.241 79.0112C157.131 78.9757 157.016 78.957 156.899 78.9556Z" fill="#CC9966" stroke="#845F3D" stroke-width="0.1" stroke-miterlimit="10"/>
<path d="M155.789 81.1112C155.96 80.4854 156.145 80.3046 156.288 80.2629C156.43 80.2212 156.644 80.3742 157.143 80.4576H157.499C157.285 80.9583 157.086 81.1112 156.929 81.153C156.772 81.1947 156.544 81.0278 156.131 81.0278C156.015 81.0448 155.9 81.0728 155.789 81.1112Z" fill="#CC9966" stroke="#845F3D" stroke-width="0.1" stroke-miterlimit="10"/>
<path d="M156.104 80.3461C156.317 79.7481 156.517 79.5951 156.673 79.5673C156.83 79.5395 157.001 79.7203 157.414 79.8037C157.57 79.8308 157.729 79.8308 157.884 79.8037C157.614 80.4017 157.386 80.5547 157.229 80.5686C157.072 80.5825 156.873 80.3878 156.46 80.3322L156.104 80.3461Z" fill="#CC9966" stroke="#845F3D" stroke-width="0.1" stroke-miterlimit="10"/>
<path d="M155.062 82.2376C155.276 81.6257 155.489 81.4866 155.632 81.4588C155.774 81.431 156.031 81.7369 156.458 81.7786C156.581 81.7954 156.706 81.7954 156.829 81.7786C156.558 82.3488 156.33 82.5018 156.173 82.5157C156.017 82.5296 155.817 82.321 155.404 82.2654L155.062 82.2376Z" fill="#CC9966" stroke="#845F3D" stroke-width="0.1" stroke-miterlimit="10"/>
<path d="M155.433 81.542C155.718 80.9579 155.918 80.8467 156.06 80.8467C156.202 80.8467 156.302 81.0135 156.53 81.097C156.648 81.1324 156.773 81.1395 156.895 81.1177C157.016 81.0959 157.131 81.0459 157.228 80.9719C156.986 81.6811 156.772 81.8479 156.616 81.8757C156.459 81.9036 156.231 81.6394 155.903 81.5838H155.533L155.433 81.542Z" fill="#CC9966" stroke="#845F3D" stroke-width="0.1" stroke-miterlimit="10"/>
<path d="M154.322 83.6699C154.493 83.0441 154.678 82.8633 154.821 82.8216C154.963 82.7798 155.177 82.9189 155.676 83.0163C155.789 83.0274 155.904 83.0274 156.018 83.0163C155.818 83.5308 155.619 83.6838 155.462 83.7255C155.305 83.7672 155.077 83.5864 154.664 83.6003C154.548 83.6129 154.434 83.6362 154.322 83.6699Z" fill="#CC9966" stroke="#845F3D" stroke-width="0.1" stroke-miterlimit="10"/>
<path d="M154.633 82.9329C154.847 82.3349 155.046 82.182 155.203 82.1402C155.359 82.0985 155.53 82.3071 155.944 82.3766C156.094 82.4023 156.249 82.4023 156.4 82.3766C156.143 82.9746 155.915 83.1137 155.758 83.1415C155.602 83.1694 155.402 82.9607 154.989 82.9051L154.633 82.9329Z" fill="#CC9966" stroke="#845F3D" stroke-width="0.1" stroke-miterlimit="10"/>
<path d="M163.168 87.7028C163.339 88.3147 163.525 88.4677 163.653 88.5094C163.781 88.5511 163.981 88.3703 164.451 88.2312L164.778 88.1478C164.565 87.6611 164.379 87.5359 164.237 87.5081C164.095 87.4803 163.881 87.675 163.496 87.7167C163.387 87.7279 163.276 87.7232 163.168 87.7028Z" fill="#CC9966" stroke="#845F3D" stroke-width="0.1" stroke-miterlimit="10"/>
<path d="M163.483 88.4121C163.697 88.9962 163.882 89.1214 164.024 89.1492C164.167 89.177 164.338 88.9545 164.794 88.7459L165.121 88.6346C164.879 88.1757 164.68 88.0645 164.523 88.0645C164.366 88.0645 164.195 88.2869 163.811 88.3704C163.704 88.4008 163.594 88.4149 163.483 88.4121Z" fill="#CC9966" stroke="#845F3D" stroke-width="0.1" stroke-miterlimit="10"/>
<path d="M162.57 86.2285C162.684 86.8543 162.855 87.049 162.983 87.1046C163.112 87.1602 163.311 87.0073 163.796 86.9516H164.123C163.967 86.4232 163.781 86.2702 163.639 86.2146C163.496 86.1589 163.283 86.3258 162.884 86.298C162.777 86.2864 162.672 86.2631 162.57 86.2285Z" fill="#CC9966" stroke="#845F3D" stroke-width="0.1" stroke-miterlimit="10"/>
<path d="M162.812 86.9795C162.969 87.5775 163.154 87.7583 163.296 87.8C163.439 87.8418 163.624 87.6609 164.009 87.5914C164.154 87.5618 164.305 87.5618 164.45 87.5914C164.237 86.9795 164.037 86.8266 163.881 86.7988C163.724 86.771 163.539 86.9517 163.14 86.9795C163.031 86.9944 162.921 86.9944 162.812 86.9795Z" fill="#CC9966" stroke="#845F3D" stroke-width="0.1" stroke-miterlimit="10"/>
<path d="M161.943 85.0467C162.114 85.6586 162.3 85.8115 162.442 85.8532C162.584 85.895 162.827 85.5891 163.24 85.5613C163.357 85.536 163.479 85.536 163.596 85.5613C163.368 84.9633 163.169 84.8103 163.012 84.7825C162.855 84.7547 162.67 84.9493 162.271 84.991L161.943 85.0467Z" fill="#CC9966" stroke="#845F3D" stroke-width="0.1" stroke-miterlimit="10"/>
<path d="M162.258 85.7561C162.486 86.354 162.671 86.4791 162.813 86.4791C162.956 86.4791 163.056 86.3262 163.269 86.2567C163.383 86.2298 163.502 86.2296 163.616 86.2562C163.73 86.2828 163.836 86.3354 163.925 86.4096C163.725 85.6865 163.54 85.5057 163.398 85.4918C163.255 85.4779 163.013 85.7004 162.714 85.7282H162.343L162.258 85.7561Z" fill="#CC9966" stroke="#845F3D" stroke-width="0.1" stroke-miterlimit="10"/>
<path d="M161.345 83.5585C161.459 84.1982 161.63 84.3929 161.758 84.4486C161.887 84.5042 162.1 84.3512 162.585 84.2955H162.912C162.741 83.7671 162.571 83.6002 162.428 83.5585C162.286 83.5168 162.058 83.6698 161.673 83.642C161.56 83.6286 161.45 83.6005 161.345 83.5585Z" fill="#CC9966" stroke="#845F3D" stroke-width="0.1" stroke-miterlimit="10"/>
<path d="M161.674 84.3235C161.831 84.9214 162.016 85.1022 162.144 85.1301C162.273 85.1579 162.472 85.0049 162.871 84.9353C163.018 84.9142 163.166 84.9142 163.313 84.9353C163.099 84.3374 162.9 84.1705 162.743 84.1566C162.586 84.1427 162.401 84.3096 162.002 84.3374C161.893 84.3486 161.782 84.3439 161.674 84.3235Z" fill="#CC9966" stroke="#845F3D" stroke-width="0.1" stroke-miterlimit="10"/>
<path d="M160.49 79.7206C160.276 79.1087 160.062 78.9696 159.92 78.9418C159.777 78.914 159.592 79.0948 159.093 79.2616C158.983 79.306 158.869 79.3387 158.751 79.359C159.008 79.8318 159.222 79.957 159.378 79.9709C159.535 79.9848 159.735 79.7762 160.148 79.7206H160.49Z" fill="#CC9966" stroke="#845F3D" stroke-width="0.1" stroke-miterlimit="10"/>
<path d="M160.121 79.0669C159.85 78.4967 159.636 78.3716 159.494 78.3716C159.351 78.3716 159.166 78.5802 158.696 78.8027L158.368 78.9417C158.653 79.3867 158.881 79.4841 159.038 79.4702C159.195 79.4563 159.38 79.2338 159.779 79.1225C159.889 79.0871 160.004 79.0683 160.121 79.0669Z" fill="#CC9966" stroke="#845F3D" stroke-width="0.1" stroke-miterlimit="10"/>
<path d="M161.234 81.1942C161.063 80.5684 160.878 80.3877 160.735 80.3459C160.593 80.3042 160.379 80.4572 159.881 80.5406H159.524C159.738 81.0413 159.938 81.1943 160.094 81.236C160.251 81.2777 160.479 81.1108 160.892 81.1108C161.009 81.1278 161.123 81.1558 161.234 81.1942Z" fill="#CC9966" stroke="#845F3D" stroke-width="0.1" stroke-miterlimit="10"/>
<path d="M160.918 80.4573C160.704 79.8593 160.505 79.7064 160.348 79.6646C160.192 79.6229 160.021 79.8315 159.607 79.9149C159.451 79.9351 159.293 79.9351 159.137 79.9149C159.408 80.5129 159.636 80.652 159.793 80.6798C159.949 80.7076 160.149 80.499 160.562 80.4434L160.918 80.4573Z" fill="#CC9966" stroke="#845F3D" stroke-width="0.1" stroke-miterlimit="10"/>
<path d="M161.958 82.3347C161.744 81.7367 161.531 81.5837 161.388 81.5698C161.246 81.5559 160.989 81.8479 160.562 81.8896C160.44 81.9144 160.314 81.9144 160.191 81.8896C160.462 82.4737 160.69 82.6266 160.847 82.6406C161.004 82.6545 161.203 82.4459 161.616 82.3903C161.728 82.3588 161.842 82.3402 161.958 82.3347Z" fill="#CC9966" stroke="#845F3D" stroke-width="0.1" stroke-miterlimit="10"/>
<path d="M161.589 81.6533C161.304 81.0692 161.104 80.958 160.962 80.9441C160.819 80.9302 160.72 81.1249 160.492 81.2083C160.373 81.2394 160.249 81.2442 160.128 81.2226C160.007 81.2009 159.893 81.1533 159.793 81.0831C160.036 81.7923 160.249 81.9592 160.406 81.9871C160.563 82.0149 160.791 81.7506 161.118 81.695H161.489L161.589 81.6533Z" fill="#CC9966" stroke="#845F3D" stroke-width="0.1" stroke-miterlimit="10"/>
<path d="M162.701 83.7812C162.53 83.1554 162.345 82.9746 162.202 82.9329C162.06 82.8912 161.846 83.0303 161.347 83.1276H160.991C161.205 83.6422 161.404 83.7951 161.561 83.8369C161.718 83.8786 161.946 83.6978 162.359 83.7117C162.475 83.7242 162.589 83.7475 162.701 83.7812Z" fill="#CC9966" stroke="#845F3D" stroke-width="0.1" stroke-miterlimit="10"/>
<path d="M162.387 83.0441C162.173 82.4461 161.974 82.2931 161.817 82.2514C161.66 82.2097 161.489 82.4043 161.076 82.4878C160.92 82.5132 160.762 82.5132 160.606 82.4878C160.877 83.0718 161.105 83.2249 161.261 83.2388C161.418 83.2527 161.618 83.0719 162.031 83.0162L162.387 83.0441Z" fill="#CC9966" stroke="#845F3D" stroke-width="0.1" stroke-miterlimit="10"/>
<path d="M164.782 88.4116H152.187C152.126 88.4134 152.066 88.4288 152.012 88.4568C151.958 88.4847 151.911 88.5245 151.875 88.5729C151.84 88.6213 151.816 88.677 151.805 88.7359C151.795 88.7947 151.799 88.855 151.816 88.9122C152.315 90.4419 155.122 91.5962 158.499 91.5962C161.875 91.5962 164.668 90.4002 165.166 88.8149C165.17 88.7633 165.163 88.7115 165.146 88.6627C165.128 88.6139 165.1 88.5691 165.064 88.5312C165.028 88.4933 164.984 88.4632 164.936 88.4426C164.887 88.422 164.835 88.4115 164.782 88.4116Z" fill="#FCD147"/>
<path d="M160.774 75.5483L155.004 76.6192C155.149 77.366 155.593 78.0259 156.237 78.4536C156.881 78.8813 157.672 79.0418 158.438 78.8998C159.203 78.7578 159.879 78.325 160.317 77.6964C160.755 77.0679 160.92 76.2952 160.774 75.5483Z" fill="#FCD147"/>
<path d="M183.699 82.0565C183.528 82.6684 183.343 82.8214 183.2 82.8631C183.058 82.9049 182.873 82.7101 182.402 82.5711C182.293 82.5636 182.184 82.5636 182.075 82.5711C182.288 82.0843 182.488 81.9453 182.63 81.9314C182.773 81.9175 182.972 82.0982 183.371 82.1261C183.482 82.1101 183.591 82.0869 183.699 82.0565Z" fill="#CC9966" stroke="#845F3D" stroke-width="0.1" stroke-miterlimit="10"/>
<path d="M183.388 82.7517C183.174 83.3497 182.975 83.4749 182.832 83.4888C182.69 83.5027 182.519 83.308 182.063 83.0994L181.75 82.9743C181.992 82.5153 182.191 82.418 182.334 82.418C182.476 82.418 182.676 82.6265 183.06 82.7239C183.167 82.7522 183.278 82.7616 183.388 82.7517Z" fill="#CC9966" stroke="#845F3D" stroke-width="0.1" stroke-miterlimit="10"/>
<path d="M184.298 80.5688C184.184 81.2085 184.013 81.4032 183.885 81.4588C183.757 81.5144 183.543 81.3615 183.059 81.3059C182.95 81.2936 182.84 81.2936 182.731 81.3059C182.902 80.7774 183.073 80.6105 183.215 80.5688C183.358 80.5271 183.586 80.68 183.97 80.6522C184.083 80.6388 184.193 80.6108 184.298 80.5688Z" fill="#CC9966" stroke="#845F3D" stroke-width="0.1" stroke-miterlimit="10"/>
<path d="M184.04 81.3333C183.884 81.9313 183.698 82.0982 183.57 82.1399C183.442 82.1816 183.242 82.0008 182.843 81.9452C182.702 81.9242 182.558 81.9242 182.416 81.9452C182.615 81.3472 182.815 81.1804 182.972 81.1526C183.128 81.1248 183.328 81.3194 183.713 81.3472C183.822 81.3585 183.932 81.3538 184.04 81.3333Z" fill="#CC9966" stroke="#845F3D" stroke-width="0.1" stroke-miterlimit="10"/>
<path d="M184.913 79.3866C184.742 79.9984 184.557 80.1653 184.428 80.1932C184.3 80.221 184.03 79.9428 183.631 79.915C183.513 79.8958 183.392 79.8958 183.274 79.915C183.488 79.3309 183.688 79.1641 183.844 79.1502C184.001 79.1363 184.186 79.317 184.585 79.3448C184.692 79.3746 184.802 79.3887 184.913 79.3866Z" fill="#CC9966" stroke="#845F3D" stroke-width="0.1" stroke-miterlimit="10"/>
<path d="M184.598 80.0961C184.384 80.6941 184.185 80.8192 184.057 80.8331C183.928 80.847 183.814 80.6802 183.586 80.6106C183.475 80.5837 183.358 80.5836 183.247 80.6103C183.135 80.6369 183.032 80.6895 182.945 80.7636C183.131 80.0404 183.33 79.8597 183.472 79.8319C183.615 79.804 183.843 80.0404 184.156 80.0822H184.598V80.0961Z" fill="#CC9966" stroke="#845F3D" stroke-width="0.1" stroke-miterlimit="10"/>
<path d="M185.508 77.9121C185.394 78.5518 185.223 78.7326 185.095 78.7882C184.967 78.8439 184.753 78.7047 184.283 78.6491C184.169 78.6375 184.055 78.6375 183.941 78.6491C184.112 78.1346 184.297 77.9677 184.44 77.926C184.582 77.8843 184.796 78.0373 185.18 78.0095C185.294 77.9916 185.404 77.9589 185.508 77.9121Z" fill="#CC9966" stroke="#845F3D" stroke-width="0.1" stroke-miterlimit="10"/>
<path d="M185.269 78.6632C185.113 79.2751 184.927 79.442 184.785 79.4838C184.642 79.5255 184.457 79.3447 184.073 79.289C183.926 79.2677 183.777 79.2677 183.631 79.289C183.845 78.6911 184.044 78.5242 184.201 78.4964C184.357 78.4686 184.543 78.6633 184.942 78.6911L185.269 78.6632Z" fill="#CC9966" stroke="#845F3D" stroke-width="0.1" stroke-miterlimit="10"/>
<path d="M186.366 74.1579C186.594 73.5599 186.794 73.4069 186.936 73.3791C187.079 73.3513 187.278 73.546 187.762 73.7129C187.873 73.7554 187.988 73.788 188.104 73.8102C187.848 74.2831 187.634 74.4082 187.478 74.4221C187.321 74.436 187.121 74.2274 186.722 74.1718C186.605 74.1542 186.485 74.1495 186.366 74.1579Z" fill="#CC9966" stroke="#845F3D" stroke-width="0.1" stroke-miterlimit="10"/>
<path d="M186.75 73.4207C187.02 72.8506 187.234 72.7255 187.376 72.7116C187.519 72.6977 187.69 72.9202 188.16 73.1566L188.502 73.2956C188.203 73.7406 187.989 73.8241 187.832 73.8241C187.676 73.8241 187.49 73.5876 187.091 73.4764C186.981 73.4419 186.866 73.4232 186.75 73.4207Z" fill="#CC9966" stroke="#845F3D" stroke-width="0.1" stroke-miterlimit="10"/>
<path d="M185.623 75.5486C185.794 74.9228 185.993 74.742 186.135 74.6864C186.278 74.6307 186.477 74.7977 186.99 74.895H187.332C187.119 75.4096 186.919 75.5625 186.762 75.6042C186.606 75.6459 186.392 75.4652 185.979 75.4791C185.857 75.4846 185.737 75.5081 185.623 75.5486Z" fill="#CC9966" stroke="#845F3D" stroke-width="0.1" stroke-miterlimit="10"/>
<path d="M185.896 74.8111C186.095 74.2131 186.309 74.0463 186.451 74.0185C186.594 73.9907 186.793 74.1715 187.192 74.2549C187.348 74.2803 187.507 74.2803 187.662 74.2549C187.406 74.839 187.178 74.9919 187.007 75.0058C186.836 75.0197 186.651 74.8251 186.237 74.7833L185.896 74.8111Z" fill="#CC9966" stroke="#845F3D" stroke-width="0.1" stroke-miterlimit="10"/>
<path d="M184.897 76.6887C185.125 76.0907 185.325 75.9377 185.467 75.9099C185.61 75.8821 185.866 76.2019 186.294 76.2437C186.421 76.2673 186.551 76.2673 186.678 76.2437C186.408 76.8277 186.18 76.9668 186.009 76.9807C185.838 76.9947 185.667 76.7999 185.254 76.7443C185.137 76.7129 185.018 76.6943 184.897 76.6887Z" fill="#CC9966" stroke="#845F3D" stroke-width="0.1" stroke-miterlimit="10"/>
<path d="M185.281 76.0076C185.551 75.4235 185.765 75.2983 185.908 75.2983C186.05 75.2983 186.15 75.4791 186.378 75.5626C186.497 75.5908 186.62 75.5943 186.741 75.5728C186.861 75.5512 186.975 75.505 187.076 75.4374C186.819 76.1466 186.606 76.3135 186.449 76.3274C186.292 76.3413 186.064 76.1049 185.751 76.0493H185.366L185.281 76.0076Z" fill="#CC9966" stroke="#845F3D" stroke-width="0.1" stroke-miterlimit="10"/>
<path d="M184.156 78.135C184.327 77.5092 184.526 77.3285 184.669 77.2728C184.811 77.2172 185.011 77.3841 185.524 77.4675H185.865C185.652 77.9821 185.452 78.1351 185.296 78.1629C185.139 78.1907 184.925 78.0377 184.512 78.0377C184.389 78.0515 184.268 78.0843 184.156 78.135Z" fill="#CC9966" stroke="#845F3D" stroke-width="0.1" stroke-miterlimit="10"/>
<path d="M184.47 77.3981C184.67 76.8001 184.883 76.6332 185.026 76.6054C185.168 76.5776 185.368 76.7584 185.767 76.8418C185.922 76.8672 186.081 76.8672 186.237 76.8418C185.98 77.4259 185.752 77.5788 185.582 77.5927C185.411 77.6066 185.225 77.412 184.812 77.3703C184.697 77.358 184.581 77.3675 184.47 77.3981Z" fill="#CC9966" stroke="#845F3D" stroke-width="0.1" stroke-miterlimit="10"/>
<path d="M193.021 82.154C193.191 82.7659 193.377 82.9328 193.519 82.9606C193.662 82.9884 193.847 82.8215 194.317 82.6825C194.426 82.675 194.536 82.675 194.645 82.6825C194.431 82.1958 194.232 82.0567 194.089 82.0428C193.947 82.0288 193.747 82.2097 193.348 82.2375C193.235 82.2251 193.125 82.197 193.021 82.154Z" fill="#CC9966" stroke="#845F3D" stroke-width="0.1" stroke-miterlimit="10"/>
<path d="M193.316 82.863C193.53 83.4471 193.729 83.5861 193.872 83.6C194.014 83.6139 194.185 83.4054 194.641 83.2107C194.742 83.1607 194.847 83.1188 194.954 83.0855C194.712 82.6266 194.513 82.5293 194.37 82.5293C194.228 82.5293 194.028 82.7379 193.644 82.8352C193.537 82.8635 193.426 82.8729 193.316 82.863Z" fill="#CC9966" stroke="#845F3D" stroke-width="0.1" stroke-miterlimit="10"/>
<path d="M192.404 80.6797C192.518 81.3194 192.689 81.5002 192.817 81.5558C192.945 81.6114 193.159 81.4723 193.643 81.4167C193.752 81.4056 193.862 81.4056 193.971 81.4167C193.8 80.9021 193.629 80.7353 193.487 80.6936C193.344 80.6519 193.116 80.8049 192.732 80.777C192.618 80.7592 192.508 80.7265 192.404 80.6797Z" fill="#CC9966" stroke="#845F3D" stroke-width="0.1" stroke-miterlimit="10"/>
<path d="M192.662 81.4308C192.819 82.0427 193.004 82.2096 193.132 82.2513C193.261 82.2931 193.46 82.1122 193.859 82.0566C194.005 82.0355 194.154 82.0355 194.301 82.0566C194.087 81.4586 193.887 81.2918 193.731 81.2639C193.574 81.2361 193.374 81.4308 192.99 81.4587L192.662 81.4308Z" fill="#CC9966" stroke="#845F3D" stroke-width="0.1" stroke-miterlimit="10"/>
<path d="M191.791 79.498C191.962 80.1099 192.147 80.2767 192.275 80.3045C192.404 80.3324 192.674 80.0403 193.073 80.0264C193.191 80.0007 193.312 80.0007 193.429 80.0264C193.216 79.4284 193.016 79.2755 192.86 79.2616C192.703 79.2477 192.518 79.4146 192.119 79.4563C192.012 79.486 191.902 79.5001 191.791 79.498Z" fill="#CC9966" stroke="#845F3D" stroke-width="0.1" stroke-miterlimit="10"/>
<path d="M192.105 80.2069C192.319 80.8049 192.519 80.9301 192.647 80.944C192.775 80.9579 192.889 80.7771 193.117 80.7215C193.229 80.6946 193.345 80.6945 193.457 80.7211C193.569 80.7478 193.672 80.8004 193.758 80.8745C193.573 80.1514 193.374 79.9705 193.231 79.9427C193.089 79.9149 192.861 80.1514 192.547 80.1931H192.105V80.2069Z" fill="#CC9966" stroke="#845F3D" stroke-width="0.1" stroke-miterlimit="10"/>
<path d="M191.193 78.0239C191.307 78.6636 191.478 78.8443 191.607 78.9C191.735 78.9556 191.948 78.8166 192.419 78.7609C192.532 78.7493 192.647 78.7493 192.761 78.7609C192.59 78.2464 192.404 78.0795 192.262 78.0378C192.119 77.996 191.906 78.149 191.521 78.1212C191.408 78.1034 191.298 78.0707 191.193 78.0239Z" fill="#CC9966" stroke="#845F3D" stroke-width="0.1" stroke-miterlimit="10"/>
<path d="M191.435 78.7746C191.606 79.3865 191.777 79.5533 191.919 79.595C192.062 79.6367 192.247 79.456 192.632 79.4004C192.778 79.379 192.927 79.379 193.074 79.4004C192.86 78.8024 192.66 78.6355 192.504 78.6077C192.347 78.5799 192.162 78.7746 191.763 78.8024L191.435 78.7746Z" fill="#CC9966" stroke="#845F3D" stroke-width="0.1" stroke-miterlimit="10"/>
<path d="M190.338 74.1579C190.11 73.5599 189.91 73.407 189.768 73.3791C189.625 73.3513 189.426 73.546 188.942 73.7129L188.6 73.7963C188.856 74.283 189.07 74.3943 189.226 74.4082C189.383 74.4221 189.583 74.2274 189.982 74.1718C190.099 74.1544 190.219 74.1498 190.338 74.1579Z" fill="#CC9966" stroke="#845F3D" stroke-width="0.1" stroke-miterlimit="10"/>
<path d="M189.954 73.5321C189.684 72.962 189.47 72.8368 189.328 72.8229C189.185 72.809 189.014 73.0315 188.544 73.2679L188.216 73.407C188.501 73.852 188.715 73.9355 188.872 73.9355C189.028 73.9355 189.214 73.6991 189.613 73.5878C189.723 73.5534 189.838 73.5346 189.954 73.5321Z" fill="#CC9966" stroke="#845F3D" stroke-width="0.1" stroke-miterlimit="10"/>
<path d="M191.08 75.6594C190.909 75.0337 190.709 74.8529 190.567 74.7973C190.424 74.7416 190.225 74.9084 189.712 74.9919H189.37C189.584 75.5064 189.783 75.6594 189.94 75.6872C190.097 75.715 190.31 75.5621 190.724 75.5621C190.845 75.5829 190.965 75.6156 191.08 75.6594Z" fill="#CC9966" stroke="#845F3D" stroke-width="0.1" stroke-miterlimit="10"/>
<path d="M190.754 74.9225C190.554 74.3245 190.34 74.1576 190.198 74.1298C190.055 74.102 189.856 74.2829 189.457 74.3663C189.301 74.3917 189.142 74.3917 188.987 74.3663C189.243 74.9504 189.471 75.1033 189.642 75.1172C189.813 75.1311 189.998 74.9365 190.412 74.8948C190.526 74.8825 190.642 74.8919 190.754 74.9225Z" fill="#CC9966" stroke="#845F3D" stroke-width="0.1" stroke-miterlimit="10"/>
<path d="M191.805 76.8C191.577 76.202 191.378 76.0491 191.235 76.0212C191.093 75.9934 190.837 76.3133 190.409 76.355C190.282 76.3787 190.151 76.3787 190.024 76.355C190.295 76.9391 190.523 77.0781 190.694 77.092C190.865 77.1059 191.036 76.9112 191.449 76.8417L191.805 76.8Z" fill="#CC9966" stroke="#845F3D" stroke-width="0.1" stroke-miterlimit="10"/>
<path d="M191.422 76.1045C191.151 75.5204 190.937 75.4092 190.795 75.4092C190.652 75.4092 190.553 75.59 190.325 75.6595C190.207 75.6925 190.083 75.6997 189.963 75.6804C189.842 75.6612 189.727 75.616 189.626 75.5482C189.883 76.2574 190.097 76.4243 190.253 76.4382C190.41 76.4521 190.638 76.2157 190.951 76.1601H191.336L191.422 76.1045Z" fill="#CC9966" stroke="#845F3D" stroke-width="0.1" stroke-miterlimit="10"/>
<path d="M192.547 78.2464C192.376 77.6067 192.176 77.4398 192.034 77.3842C191.891 77.3285 191.692 77.4954 191.179 77.5789H190.837C191.051 78.0934 191.25 78.2464 191.407 78.2742C191.564 78.302 191.777 78.149 192.19 78.149C192.314 78.1628 192.434 78.1957 192.547 78.2464Z" fill="#CC9966" stroke="#845F3D" stroke-width="0.1" stroke-miterlimit="10"/>
<path d="M192.22 77.5093C192.021 76.9114 191.807 76.7446 191.665 76.7167C191.522 76.6889 191.323 76.8697 190.924 76.9531C190.768 76.9718 190.61 76.9718 190.454 76.9531C190.71 77.5372 190.938 77.6901 191.109 77.704C191.28 77.718 191.465 77.5233 191.878 77.4677C191.994 77.4658 192.109 77.4798 192.22 77.5093Z" fill="#CC9966" stroke="#845F3D" stroke-width="0.1" stroke-miterlimit="10"/>
<path d="M194.63 82.8633H182.035C181.975 82.8628 181.915 82.8763 181.861 82.9026C181.806 82.9289 181.759 82.9674 181.723 83.0148C181.687 83.0622 181.663 83.1173 181.653 83.1756C181.643 83.2338 181.647 83.2936 181.665 83.35C182.163 84.8797 184.97 86.0478 188.333 86.0339C191.695 86.02 194.516 84.838 195 83.2526C195.002 83.2033 194.994 83.1542 194.977 83.1079C194.959 83.0616 194.932 83.0192 194.898 82.9831C194.863 82.9469 194.822 82.9176 194.776 82.8971C194.73 82.8765 194.68 82.8651 194.63 82.8633Z" fill="#FCD147"/>
<path d="M190.609 69.9858L184.91 71.0567C184.926 71.4689 185.034 71.8726 185.226 72.2404C185.417 72.6082 185.688 72.9312 186.019 73.1875C186.35 73.4439 186.734 73.6274 187.144 73.7255C187.555 73.8236 187.982 73.834 188.397 73.7561C188.812 73.6781 189.205 73.5135 189.549 73.2737C189.893 73.0338 190.179 72.7243 190.389 72.3663C190.599 72.0084 190.728 71.6104 190.766 71.1995C190.803 70.7887 190.75 70.3746 190.609 69.9858Z" fill="#FCD147"/>
<path d="M156.301 78.1071C156.301 78.1071 156.187 78.0097 156.201 77.9124C156.215 77.815 156.372 77.7177 156.586 77.7594C156.823 77.9911 157.097 78.1836 157.398 78.3296C157.765 78.4972 158.161 78.5963 158.566 78.6216C158.164 78.7217 157.743 78.7217 157.341 78.6216C156.959 78.5285 156.603 78.3526 156.301 78.1071Z" fill="white"/>
<path d="M186.063 72.3079C185.949 72.2244 185.949 72.1688 185.949 72.1549C185.949 72.141 186.134 72.002 186.377 72.002C186.583 72.2343 186.823 72.4358 187.089 72.5999C187.435 72.808 187.816 72.954 188.215 73.031C187.803 73.1022 187.38 73.0637 186.989 72.9197C186.638 72.7856 186.321 72.5765 186.063 72.3079Z" fill="white"/>
<path d="M152.61 89.3577C152.51 89.2743 152.396 89.177 152.425 89.1074C152.453 89.0379 152.767 89.0101 153.023 89.1074C153.28 89.2048 153.522 89.4968 153.978 89.914C154.434 90.3312 154.932 90.5954 154.904 90.651C154.875 90.7067 154.163 90.4425 153.65 90.1644C153.276 89.9314 152.927 89.6611 152.61 89.3577Z" fill="white"/>
<path d="M182.631 83.8922C182.532 83.8922 182.418 83.7253 182.432 83.6558C182.446 83.5862 182.788 83.5584 183.03 83.6558C183.272 83.7531 183.557 84.0313 184.013 84.4485C184.469 84.8657 184.996 85.102 184.954 85.1576C184.911 85.2132 184.227 84.9769 183.7 84.7127C183.313 84.4796 182.955 84.2043 182.631 83.8922Z" fill="white"/>
<path d="M134.089 69.5407V62.5874C134.089 62.3628 134.044 62.1404 133.956 61.9328C133.868 61.7253 133.739 61.5367 133.576 61.3779C133.413 61.2191 133.22 61.0931 133.007 61.0072C132.795 60.9212 132.567 60.877 132.337 60.877H115.924C115.482 60.877 115.058 61.0483 114.745 61.3535C114.432 61.6586 114.257 62.0725 114.257 62.504V69.4572C114.249 69.6937 114.291 69.9292 114.379 70.1494C114.468 70.3696 114.602 70.5699 114.773 70.7378C114.943 70.9058 115.147 71.0378 115.372 71.1261C115.597 71.2144 115.838 71.257 116.08 71.2512H123.204C123.494 71.2518 123.78 71.3088 124.047 71.4186C124.313 71.5285 124.555 71.689 124.757 71.8909L128.433 75.4649C128.481 75.5117 128.542 75.5436 128.608 75.5565C128.675 75.5695 128.744 75.5629 128.806 75.5376C128.869 75.5123 128.922 75.4693 128.96 75.4143C128.997 75.3592 129.017 75.2946 129.017 75.2285V72.0578C129.017 71.8449 129.102 71.6403 129.253 71.4872C129.405 71.3341 129.611 71.2445 129.829 71.2373L132.437 71.1539C132.654 71.1557 132.87 71.1152 133.071 71.0348C133.273 70.9544 133.456 70.8357 133.609 70.6855C133.763 70.5354 133.885 70.3568 133.967 70.1602C134.05 69.9637 134.091 69.753 134.089 69.5407Z" fill="#FCD147"/>
<path d="M133.322 68.7756V61.8223C133.322 61.5965 133.276 61.373 133.187 61.1645C133.098 60.9561 132.968 60.7669 132.803 60.6079C132.639 60.4489 132.444 60.3231 132.23 60.238C132.016 60.1529 131.786 60.11 131.555 60.1119H115.156C114.714 60.1119 114.29 60.2832 113.977 60.5884C113.665 60.8935 113.489 61.3074 113.489 61.7389V68.7617C113.489 69.2227 113.677 69.6649 114.011 69.9909C114.345 70.3169 114.798 70.5 115.27 70.5H122.494C123.075 70.5051 123.631 70.7294 124.047 71.1258L127.723 74.7137C127.77 74.7605 127.831 74.7924 127.898 74.8054C127.964 74.8183 128.033 74.8117 128.096 74.7864C128.158 74.761 128.212 74.7181 128.249 74.6631C128.287 74.6081 128.307 74.5434 128.307 74.4772V71.3066C128.307 71.0937 128.391 70.8891 128.543 70.736C128.694 70.5829 128.901 70.4933 129.119 70.4861L131.726 70.4026C132.157 70.3881 132.565 70.2099 132.863 69.9059C133.161 69.602 133.326 69.1964 133.322 68.7756Z" fill="#B6D1D8"/>
<path d="M119.917 64.57C120.187 64.57 120.4 64.6405 120.556 64.7815C120.715 64.9225 120.795 65.1235 120.795 65.3845C120.795 65.4565 120.784 65.551 120.763 65.668L120.498 67H119.935L120.196 65.6815C120.208 65.6215 120.214 65.56 120.214 65.497C120.214 65.206 120.054 65.0605 119.733 65.0605C119.526 65.0605 119.355 65.119 119.22 65.236C119.085 65.35 118.993 65.5225 118.945 65.7535L118.693 67H118.131L118.797 63.661H119.359L119.125 64.8355C119.332 64.6585 119.596 64.57 119.917 64.57ZM122.421 67.0315C122.187 67.0315 121.982 66.988 121.805 66.901C121.631 66.811 121.496 66.6865 121.4 66.5275C121.304 66.3685 121.256 66.184 121.256 65.974C121.256 65.707 121.316 65.467 121.436 65.254C121.559 65.041 121.728 64.8745 121.944 64.7545C122.163 64.6315 122.409 64.57 122.682 64.57C122.916 64.57 123.122 64.6135 123.299 64.7005C123.476 64.7875 123.612 64.9105 123.708 65.0695C123.804 65.2285 123.852 65.413 123.852 65.623C123.852 65.89 123.791 66.13 123.668 66.343C123.545 66.556 123.374 66.724 123.155 66.847C122.939 66.97 122.694 67.0315 122.421 67.0315ZM122.457 66.55C122.616 66.55 122.757 66.5125 122.88 66.4375C123.006 66.3595 123.105 66.253 123.177 66.118C123.249 65.98 123.285 65.824 123.285 65.65C123.285 65.461 123.23 65.314 123.119 65.209C123.008 65.101 122.852 65.047 122.651 65.047C122.492 65.047 122.349 65.086 122.223 65.164C122.1 65.239 122.003 65.3455 121.931 65.4835C121.859 65.6185 121.823 65.773 121.823 65.947C121.823 66.136 121.878 66.2845 121.989 66.3925C122.1 66.4975 122.256 66.55 122.457 66.55ZM124.799 63.661H125.362L124.696 67H124.133L124.799 63.661ZM128.26 64.597L127.783 67H127.248L127.297 66.7525C127.087 66.9385 126.826 67.0315 126.514 67.0315C126.316 67.0315 126.136 66.9895 125.974 66.9055C125.815 66.8215 125.689 66.7 125.596 66.541C125.503 66.379 125.457 66.19 125.457 65.974C125.457 65.707 125.515 65.467 125.632 65.254C125.752 65.038 125.914 64.87 126.118 64.75C126.325 64.63 126.556 64.57 126.811 64.57C127.195 64.57 127.468 64.6975 127.63 64.9525L127.698 64.597H128.26ZM126.658 66.55C126.817 66.55 126.958 66.5125 127.081 66.4375C127.207 66.3595 127.306 66.253 127.378 66.118C127.45 65.98 127.486 65.824 127.486 65.65C127.486 65.461 127.431 65.314 127.32 65.209C127.209 65.101 127.053 65.047 126.852 65.047C126.693 65.047 126.55 65.086 126.424 65.164C126.301 65.239 126.204 65.3455 126.132 65.4835C126.06 65.6185 126.024 65.773 126.024 65.947C126.024 66.136 126.079 66.2845 126.19 66.3925C126.301 66.4975 126.457 66.55 126.658 66.55Z" fill="white"/>
<path d="M109.917 78.57C110.187 78.57 110.4 78.6405 110.556 78.7815C110.715 78.9225 110.795 79.1235 110.795 79.3845C110.795 79.4565 110.784 79.551 110.763 79.668L110.498 81H109.935L110.196 79.6815C110.208 79.6215 110.214 79.56 110.214 79.497C110.214 79.206 110.054 79.0605 109.733 79.0605C109.526 79.0605 109.355 79.119 109.22 79.236C109.085 79.35 108.993 79.5225 108.945 79.7535L108.693 81H108.131L108.797 77.661H109.359L109.125 78.8355C109.332 78.6585 109.596 78.57 109.917 78.57ZM113.749 79.623C113.749 79.74 113.737 79.854 113.713 79.965H111.805C111.814 80.358 112.045 80.5545 112.498 80.5545C112.636 80.5545 112.765 80.5335 112.885 80.4915C113.005 80.4465 113.107 80.385 113.191 80.307L113.425 80.6985C113.302 80.8095 113.153 80.8935 112.979 80.9505C112.808 81.0045 112.628 81.0315 112.439 81.0315C112.199 81.0315 111.989 80.988 111.809 80.901C111.632 80.814 111.496 80.691 111.4 80.532C111.304 80.37 111.256 80.184 111.256 79.974C111.256 79.707 111.314 79.467 111.431 79.254C111.551 79.038 111.716 78.87 111.926 78.75C112.139 78.63 112.378 78.57 112.642 78.57C112.978 78.57 113.246 78.6645 113.447 78.8535C113.648 79.0395 113.749 79.296 113.749 79.623ZM112.615 79.02C112.426 79.02 112.264 79.071 112.129 79.173C111.997 79.275 111.905 79.4145 111.854 79.5915H113.231C113.234 79.4115 113.179 79.272 113.065 79.173C112.954 79.071 112.804 79.02 112.615 79.02ZM114.685 77.661H115.248L114.582 81H114.019L114.685 77.661ZM115.986 77.661H116.548L115.882 81H115.32L115.986 77.661ZM117.809 81.0315C117.575 81.0315 117.369 80.988 117.192 80.901C117.018 80.811 116.883 80.6865 116.787 80.5275C116.691 80.3685 116.643 80.184 116.643 79.974C116.643 79.707 116.703 79.467 116.823 79.254C116.946 79.041 117.116 78.8745 117.332 78.7545C117.551 78.6315 117.797 78.57 118.07 78.57C118.304 78.57 118.509 78.6135 118.686 78.7005C118.863 78.7875 119 78.9105 119.096 79.0695C119.192 79.2285 119.24 79.413 119.24 79.623C119.24 79.89 119.178 80.13 119.055 80.343C118.932 80.556 118.761 80.724 118.542 80.847C118.326 80.97 118.082 81.0315 117.809 81.0315ZM117.845 80.55C118.004 80.55 118.145 80.5125 118.268 80.4375C118.394 80.3595 118.493 80.253 118.565 80.118C118.637 79.98 118.673 79.824 118.673 79.65C118.673 79.461 118.617 79.314 118.506 79.209C118.395 79.101 118.239 79.047 118.038 79.047C117.879 79.047 117.737 79.086 117.611 79.164C117.488 79.239 117.39 79.3455 117.318 79.4835C117.246 79.6185 117.21 79.773 117.21 79.947C117.21 80.136 117.266 80.2845 117.377 80.3925C117.488 80.4975 117.644 80.55 117.845 80.55Z" fill="white"/>
<path d="M126.076 90.2065C125.851 90.8455 125.459 91.4845 125.054 91.8895C125.144 92.02 125.293 92.3125 125.342 92.4475C125.441 92.3395 125.545 92.218 125.644 92.083V94.3825H126.156V91.2865C126.323 90.9895 126.467 90.6745 126.584 90.364L126.076 90.2065ZM126.908 92.191C126.805 92.6905 126.616 93.199 126.359 93.514C126.49 93.5815 126.715 93.7165 126.818 93.802C127.07 93.4375 127.3 92.8705 127.43 92.299L126.908 92.191ZM128.78 91.489C128.758 91.687 128.731 91.876 128.708 92.0155L129.163 92.092C129.226 91.831 129.302 91.4125 129.356 91.048L128.978 90.976L128.893 90.994H127.345C127.426 90.7735 127.498 90.553 127.556 90.3235L127.034 90.2065C126.881 90.823 126.611 91.444 126.269 91.8265C126.391 91.9075 126.607 92.083 126.701 92.1775C126.85 91.9885 126.998 91.75 127.124 91.489H127.646V93.784C127.646 93.8425 127.624 93.8605 127.565 93.8605C127.502 93.8605 127.313 93.8605 127.124 93.856C127.205 94 127.286 94.2385 127.309 94.396C127.597 94.396 127.812 94.3735 127.97 94.288C128.132 94.198 128.177 94.0495 128.177 93.793V91.489H128.78ZM128.339 92.308C128.555 92.7715 128.744 93.388 128.794 93.7885L129.307 93.613C129.244 93.208 129.05 92.6095 128.816 92.146L128.339 92.308ZM130.909 91.5745C130.855 92.0335 130.769 92.4385 130.639 92.7895C130.526 92.7085 130.414 92.632 130.306 92.5645C130.378 92.2495 130.45 91.9165 130.522 91.5745H130.909ZM131.12 91.0705L131.03 91.084H130.625C130.684 90.7915 130.738 90.5035 130.783 90.238L130.279 90.193C130.238 90.4675 130.184 90.7735 130.126 91.084H129.68V91.5745H130.031C129.923 92.0965 129.811 92.6005 129.707 92.9695L130.148 93.199L130.184 93.0595C130.265 93.118 130.346 93.181 130.427 93.244C130.238 93.5725 129.995 93.8245 129.694 93.982C129.802 94.081 129.941 94.27 130.013 94.405C130.346 94.198 130.616 93.9325 130.832 93.5815C130.994 93.7345 131.134 93.883 131.228 94.009L131.552 93.577C131.44 93.433 131.264 93.271 131.066 93.109C131.273 92.5915 131.395 91.939 131.444 91.12L131.12 91.0705ZM133.856 91.9705H132.866V91.714C133.181 91.417 133.514 90.9985 133.753 90.6475L133.402 90.3865L133.294 90.4135H131.534V90.9085H132.934C132.808 91.0975 132.65 91.2955 132.502 91.4485H132.335V91.9705H131.386V92.4745H132.335V93.7885C132.335 93.8515 132.312 93.8695 132.236 93.8695C132.164 93.874 131.926 93.8695 131.696 93.8605C131.772 94.009 131.863 94.2385 131.89 94.387C132.218 94.3915 132.461 94.3735 132.641 94.288C132.817 94.207 132.866 94.063 132.866 93.793V92.4745H133.856V91.9705Z" fill="white"/>
</svg>
