<svg width="230" height="166" viewBox="0 0 230 166" fill="none" xmlns="http://www.w3.org/2000/svg">
<g clip-path="url(#clip0)">
<rect width="230" height="165.093" rx="6.7" fill="#202020"/>
<rect x="1" y="1" width="228" height="164" fill="white" stroke="white" stroke-width="2"/>
<path d="M59.8182 145.36C61.0769 145.36 62.0369 145.664 62.6982 146.272C63.3702 146.869 63.7062 147.776 63.7062 148.992V154H61.8182V152.96C61.5729 153.333 61.2209 153.621 60.7622 153.824C60.3142 154.016 59.7702 154.112 59.1302 154.112C58.4902 154.112 57.9302 154.005 57.4502 153.792C56.9702 153.568 56.5969 153.264 56.3302 152.88C56.0742 152.485 55.9462 152.043 55.9462 151.552C55.9462 150.784 56.2289 150.171 56.7942 149.712C57.3702 149.243 58.2715 149.008 59.4982 149.008H61.7062V148.88C61.7062 148.283 61.5249 147.824 61.1622 147.504C60.8102 147.184 60.2822 147.024 59.5782 147.024C59.0982 147.024 58.6235 147.099 58.1542 147.248C57.6955 147.397 57.3062 147.605 56.9862 147.872L56.2022 146.416C56.6502 146.075 57.1889 145.813 57.8182 145.632C58.4475 145.451 59.1142 145.36 59.8182 145.36ZM59.5462 152.656C60.0475 152.656 60.4902 152.544 60.8742 152.32C61.2689 152.085 61.5462 151.755 61.7062 151.328V150.336H59.6422C58.4902 150.336 57.9142 150.715 57.9142 151.472C57.9142 151.835 58.0582 152.123 58.3462 152.336C58.6342 152.549 59.0342 152.656 59.5462 152.656ZM66.2729 142.128H68.2729V154H66.2729V142.128ZM78.9299 149.776C78.9299 149.915 78.9193 150.112 78.8979 150.368H72.1939C72.3113 150.997 72.6153 151.499 73.1059 151.872C73.6073 152.235 74.2259 152.416 74.9619 152.416C75.9006 152.416 76.6739 152.107 77.2819 151.488L78.3539 152.72C77.9699 153.179 77.4846 153.525 76.8979 153.76C76.3113 153.995 75.6499 154.112 74.9139 154.112C73.9753 154.112 73.1486 153.925 72.4339 153.552C71.7193 153.179 71.1646 152.661 70.7699 152C70.3859 151.328 70.1939 150.571 70.1939 149.728C70.1939 148.896 70.3806 148.149 70.7539 147.488C71.1379 146.816 71.6659 146.293 72.3379 145.92C73.0099 145.547 73.7673 145.36 74.6099 145.36C75.4419 145.36 76.1833 145.547 76.8339 145.92C77.4953 146.283 78.0073 146.8 78.3699 147.472C78.7433 148.133 78.9299 148.901 78.9299 149.776ZM74.6099 146.96C73.9699 146.96 73.4259 147.152 72.9779 147.536C72.5406 147.909 72.2739 148.411 72.1779 149.04H77.0259C76.9406 148.421 76.6793 147.92 76.2419 147.536C75.8046 147.152 75.2606 146.96 74.6099 146.96ZM91.6351 145.36C92.7124 145.36 93.5657 145.675 94.1951 146.304C94.8244 146.923 95.1391 147.856 95.1391 149.104V154H93.1391V149.36C93.1391 148.613 92.9737 148.053 92.6431 147.68C92.3124 147.296 91.8377 147.104 91.2191 147.104C90.5471 147.104 90.0084 147.328 89.6031 147.776C89.1977 148.213 88.9951 148.843 88.9951 149.664V154H86.9951V149.36C86.9951 148.613 86.8297 148.053 86.4991 147.68C86.1684 147.296 85.6937 147.104 85.0751 147.104C84.3924 147.104 83.8484 147.323 83.4431 147.76C83.0484 148.197 82.8511 148.832 82.8511 149.664V154H80.8511V145.456H82.7551V146.544C83.0751 146.16 83.4751 145.867 83.9551 145.664C84.4351 145.461 84.9684 145.36 85.5551 145.36C86.1951 145.36 86.7604 145.483 87.2511 145.728C87.7524 145.963 88.1471 146.315 88.4351 146.784C88.7871 146.336 89.2404 145.989 89.7951 145.744C90.3497 145.488 90.9631 145.36 91.6351 145.36ZM100.959 145.36C102.217 145.36 103.177 145.664 103.839 146.272C104.511 146.869 104.847 147.776 104.847 148.992V154H102.959V152.96C102.713 153.333 102.361 153.621 101.903 153.824C101.455 154.016 100.911 154.112 100.271 154.112C99.6308 154.112 99.0708 154.005 98.5908 153.792C98.1108 153.568 97.7375 153.264 97.4708 152.88C97.2148 152.485 97.0868 152.043 97.0868 151.552C97.0868 150.784 97.3695 150.171 97.9348 149.712C98.5108 149.243 99.4121 149.008 100.639 149.008H102.847V148.88C102.847 148.283 102.665 147.824 102.303 147.504C101.951 147.184 101.423 147.024 100.719 147.024C100.239 147.024 99.7641 147.099 99.2948 147.248C98.8361 147.397 98.4468 147.605 98.1268 147.872L97.3428 146.416C97.7908 146.075 98.3295 145.813 98.9588 145.632C99.5881 145.451 100.255 145.36 100.959 145.36ZM100.687 152.656C101.188 152.656 101.631 152.544 102.015 152.32C102.409 152.085 102.687 151.755 102.847 151.328V150.336H100.783C99.6308 150.336 99.0548 150.715 99.0548 151.472C99.0548 151.835 99.1988 152.123 99.4868 152.336C99.7748 152.549 100.175 152.656 100.687 152.656ZM112.262 145.36C113.339 145.36 114.203 145.675 114.854 146.304C115.504 146.933 115.83 147.867 115.83 149.104V154H113.83V149.36C113.83 148.613 113.654 148.053 113.302 147.68C112.95 147.296 112.448 147.104 111.798 147.104C111.062 147.104 110.48 147.328 110.054 147.776C109.627 148.213 109.414 148.848 109.414 149.68V154H107.414V145.456H109.318V146.56C109.648 146.165 110.064 145.867 110.566 145.664C111.067 145.461 111.632 145.36 112.262 145.36ZM126.21 145.456L122.21 154.688C121.837 155.616 121.384 156.267 120.85 156.64C120.317 157.024 119.672 157.216 118.914 157.216C118.488 157.216 118.066 157.147 117.65 157.008C117.234 156.869 116.893 156.677 116.626 156.432L117.426 154.96C117.618 155.141 117.842 155.285 118.098 155.392C118.365 155.499 118.632 155.552 118.898 155.552C119.25 155.552 119.538 155.461 119.762 155.28C119.997 155.099 120.21 154.795 120.402 154.368L120.546 154.032L116.818 145.456H118.898L121.586 151.776L124.29 145.456H126.21ZM135.354 143.632C134.512 143.632 134.09 144.091 134.09 145.008V145.52H136.442V147.12H134.154V154H132.154V147.12H130.746V145.52H132.154V144.976C132.154 144.059 132.421 143.339 132.954 142.816C133.488 142.283 134.24 142.016 135.21 142.016C135.978 142.016 136.581 142.171 137.018 142.48L136.458 143.984C136.117 143.749 135.749 143.632 135.354 143.632ZM140.896 145.36C142.155 145.36 143.115 145.664 143.776 146.272C144.448 146.869 144.784 147.776 144.784 148.992V154H142.896V152.96C142.651 153.333 142.299 153.621 141.84 153.824C141.392 154.016 140.848 154.112 140.208 154.112C139.568 154.112 139.008 154.005 138.528 153.792C138.048 153.568 137.675 153.264 137.408 152.88C137.152 152.485 137.024 152.043 137.024 151.552C137.024 150.784 137.307 150.171 137.872 149.712C138.448 149.243 139.35 149.008 140.576 149.008H142.784V148.88C142.784 148.283 142.603 147.824 142.24 147.504C141.888 147.184 141.36 147.024 140.656 147.024C140.176 147.024 139.702 147.099 139.232 147.248C138.774 147.397 138.384 147.605 138.064 147.872L137.28 146.416C137.728 146.075 138.267 145.813 138.896 145.632C139.526 145.451 140.192 145.36 140.896 145.36ZM140.624 152.656C141.126 152.656 141.568 152.544 141.952 152.32C142.347 152.085 142.624 151.755 142.784 151.328V150.336H140.72C139.568 150.336 138.992 150.715 138.992 151.472C138.992 151.835 139.136 152.123 139.424 152.336C139.712 152.549 140.112 152.656 140.624 152.656ZM149.255 146.704C149.831 145.808 150.844 145.36 152.295 145.36V147.264C152.124 147.232 151.97 147.216 151.831 147.216C151.052 147.216 150.444 147.445 150.007 147.904C149.57 148.352 149.351 149.003 149.351 149.856V154H147.351V145.456H149.255V146.704ZM164.776 145.36C165.853 145.36 166.706 145.675 167.336 146.304C167.965 146.923 168.28 147.856 168.28 149.104V154H166.28V149.36C166.28 148.613 166.114 148.053 165.784 147.68C165.453 147.296 164.978 147.104 164.36 147.104C163.688 147.104 163.149 147.328 162.744 147.776C162.338 148.213 162.136 148.843 162.136 149.664V154H160.136V149.36C160.136 148.613 159.97 148.053 159.64 147.68C159.309 147.296 158.834 147.104 158.216 147.104C157.533 147.104 156.989 147.323 156.584 147.76C156.189 148.197 155.992 148.832 155.992 149.664V154H153.992V145.456H155.896V146.544C156.216 146.16 156.616 145.867 157.096 145.664C157.576 145.461 158.109 145.36 158.696 145.36C159.336 145.36 159.901 145.483 160.392 145.728C160.893 145.963 161.288 146.315 161.576 146.784C161.928 146.336 162.381 145.989 162.936 145.744C163.49 145.488 164.104 145.36 164.776 145.36ZM173.475 154.112C172.782 154.112 172.105 154.021 171.443 153.84C170.782 153.659 170.254 153.429 169.859 153.152L170.627 151.632C171.011 151.888 171.47 152.096 172.003 152.256C172.547 152.405 173.081 152.48 173.603 152.48C174.798 152.48 175.395 152.165 175.395 151.536C175.395 151.237 175.241 151.029 174.931 150.912C174.633 150.795 174.147 150.683 173.475 150.576C172.771 150.469 172.195 150.347 171.747 150.208C171.31 150.069 170.926 149.829 170.595 149.488C170.275 149.136 170.115 148.651 170.115 148.032C170.115 147.221 170.451 146.576 171.123 146.096C171.806 145.605 172.723 145.36 173.875 145.36C174.462 145.36 175.049 145.429 175.635 145.568C176.222 145.696 176.702 145.872 177.075 146.096L176.307 147.616C175.582 147.189 174.766 146.976 173.859 146.976C173.273 146.976 172.825 147.067 172.515 147.248C172.217 147.419 172.067 147.648 172.067 147.936C172.067 148.256 172.227 148.485 172.547 148.624C172.878 148.752 173.385 148.875 174.067 148.992C174.75 149.099 175.31 149.221 175.747 149.36C176.185 149.499 176.558 149.733 176.867 150.064C177.187 150.395 177.347 150.864 177.347 151.472C177.347 152.272 177.001 152.912 176.307 153.392C175.614 153.872 174.67 154.112 173.475 154.112Z" fill="black"/>
<path d="M117.857 116.604C114.054 115.856 110.4 114.452 107.052 112.449C104.448 110.682 103.856 109.488 101.844 109.172C98.0805 108.563 96.1158 112.108 91.6538 113.923C84.5526 116.835 73.9007 114.216 69.1665 108.928C65.391 104.7 68.125 101.801 63.3553 96.184C60.1834 92.4559 58.2661 92.8945 55.248 89.0323C52.5614 85.5843 49.4131 79.2854 51.9104 76.6051C55.0942 73.2302 65.2253 78.4326 68.2197 74.8262C69.6517 73.1205 67.7936 71.427 69.0126 68.3446C70.3974 64.8357 74.6463 62.2528 78.3981 61.4852C86.9552 59.6212 90.4348 67.2603 100.258 65.6764C102.495 65.3231 104.992 64.458 108.472 65.2621C110.637 65.8205 112.67 66.8234 114.449 68.2106C121.929 72.9134 134.427 69.1 136.12 68.5882C138.299 67.8742 140.395 66.914 142.369 65.7251C146.677 62.996 145.919 60.2181 148.854 59.3166C151.458 58.5246 154.204 60.0598 156.323 61.2537C157.465 61.8786 158.54 62.6259 159.53 63.4833C161.669 65.3641 163.581 67.5036 165.223 69.8553C170.146 76.5685 176.017 74.6557 177.697 79.0783C179.378 83.501 173.685 86.291 169.803 97.707C166.466 107.454 168.62 111.572 165.199 113.826C160.37 117.042 155.541 109.013 144.546 109.05C132.403 109.062 128.107 118.809 117.857 116.604Z" fill="#EADAC3"/>
<path opacity="0.8" d="M77.652 111.499L77.5573 111.596C77.508 111.594 77.4614 111.572 77.4265 111.536C77.3916 111.5 77.3707 111.452 77.3679 111.402C77.2732 110.657 77.2732 109.904 77.3679 109.16C77.4626 108.283 77.0839 107.941 77.5573 107.113C77.652 107.015 77.652 107.015 77.652 106.918V107.21C77.7943 108.636 77.7943 110.073 77.652 111.499Z" fill="#5B9635" stroke="#4F7536" stroke-width="0.3" stroke-miterlimit="3.86"/>
<path opacity="0.8" d="M79.356 111.499L79.2614 111.596C79.1667 111.596 79.1667 111.401 79.072 111.401C79.0303 110.45 79.126 109.497 79.356 108.575C79.2722 107.669 79.4362 106.758 79.8295 105.943C79.8833 105.892 79.917 105.823 79.9241 105.748V106.138C79.7348 106.857 79.5809 111.012 79.356 111.499Z" fill="#5B9635" stroke="#4F7536" stroke-width="0.3" stroke-miterlimit="3.86"/>
<path opacity="0.8" d="M77.0818 112.766C77.0818 112.766 77.0818 112.961 76.9871 112.961C76.8924 112.961 76.7977 112.766 76.7977 112.668C76.4363 111.394 76.1829 110.089 76.0403 108.77C75.6512 107.595 75.4904 106.353 75.5669 105.115C75.5669 105.017 75.5669 104.822 75.6615 104.822C75.7094 105.014 75.741 105.21 75.7562 105.407C76.3368 107.831 76.7794 110.289 77.0818 112.766Z" fill="#5B9635" stroke="#4F7536" stroke-width="0.3" stroke-miterlimit="3.86"/>
<path opacity="0.9" d="M80.6827 110.914L80.5881 111.011C80.5388 111.009 80.4922 110.987 80.4573 110.951C80.4224 110.915 80.4015 110.867 80.3987 110.817C80.304 110.072 80.304 109.319 80.3987 108.575C80.4934 107.698 80.1146 107.356 80.5881 106.528C80.6827 106.43 80.6827 106.43 80.6827 106.333V106.625C80.8251 108.051 80.8251 109.488 80.6827 110.914Z" fill="#5B9635" stroke="#4F7536" stroke-width="0.3" stroke-miterlimit="3.86"/>
<path opacity="0.9" d="M82.2891 110.914L82.1945 111.011C82.0998 111.011 82.0998 110.817 82.0051 110.817C81.9634 109.865 82.0591 108.912 82.2891 107.99C82.2053 107.084 82.3693 106.173 82.7626 105.358C82.8164 105.308 82.8501 105.238 82.8573 105.163V105.553C82.772 107.35 82.5823 109.14 82.2891 110.914Z" fill="#5B9635" stroke="#4F7536" stroke-width="0.3" stroke-miterlimit="3.86"/>
<path opacity="0.9" d="M80.114 112.181C80.114 112.181 80.114 112.376 80.0193 112.376C79.9246 112.376 79.83 112.181 79.83 112.084C79.4686 110.809 79.2152 109.505 79.0725 108.185C78.6835 107.01 78.5226 105.768 78.5991 104.53C78.5991 104.432 78.5991 104.238 78.6938 104.238C78.7416 104.429 78.7733 104.625 78.7884 104.822C79.369 107.247 79.8116 109.704 80.114 112.181Z" fill="#5B9635" stroke="#4F7536" stroke-width="0.3" stroke-miterlimit="3.86"/>
<path opacity="0.8" d="M133.8 108.477C133.8 108.477 133.705 108.672 133.61 108.672C133.516 108.672 133.421 108.477 133.421 108.38C133.279 107.248 133.279 106.101 133.421 104.969C133.516 103.75 133.137 103.019 133.705 101.85C133.8 101.752 133.8 101.655 133.894 101.557V102.044C133.894 102.922 134.084 107.893 133.8 108.477Z" fill="#5B9635" stroke="#4F7536" stroke-width="0.3" stroke-miterlimit="3.86"/>
<path opacity="0.8" d="M135.881 108.477C135.881 108.477 135.786 108.672 135.692 108.672C135.597 108.672 135.502 108.38 135.502 108.38C135.462 106.944 135.557 105.508 135.786 104.091C135.976 102.434 135.597 101.557 136.354 100.095C136.449 99.9 136.449 99.8025 136.544 99.7051V100.387C136.449 101.265 136.26 107.697 135.881 108.477Z" fill="#5B9635" stroke="#4F7536" stroke-width="0.3" stroke-miterlimit="3.86"/>
<path opacity="0.8" d="M133.135 110.427C133.135 110.524 133.135 110.719 133.04 110.719C132.946 110.719 132.756 110.427 132.756 110.329C132.326 108.369 132.01 106.383 131.81 104.384C131.525 102.044 130.957 101.07 131.147 98.8279C131.169 98.6637 131.201 98.501 131.241 98.3406C131.279 98.6383 131.342 98.9319 131.431 99.2178C131.656 100.485 133.23 109.294 133.135 110.427Z" fill="#5B9635" stroke="#4F7536" stroke-width="0.3" stroke-miterlimit="3.86"/>
<path opacity="0.9" d="M137.574 107.6C137.574 107.6 137.479 107.795 137.385 107.795C137.29 107.795 137.195 107.6 137.195 107.503C137.053 106.37 137.053 105.224 137.195 104.091C137.29 102.873 136.911 102.142 137.479 100.972C137.574 100.875 137.574 100.777 137.669 100.68V101.167C137.829 103.31 137.797 105.463 137.574 107.6Z" fill="#5B9635" stroke="#4F7536" stroke-width="0.3" stroke-miterlimit="3.86"/>
<path opacity="0.9" d="M139.763 107.6C139.763 107.6 139.668 107.795 139.574 107.795C139.479 107.795 139.384 107.503 139.384 107.503C139.343 106.067 139.439 104.631 139.668 103.214C139.858 101.557 139.479 100.68 140.236 99.218C140.331 99.0231 140.331 98.9256 140.426 98.8281V99.547C140.331 100.388 140.047 106.857 139.763 107.6Z" fill="#5B9635" stroke="#4F7536" stroke-width="0.3" stroke-miterlimit="3.86"/>
<path opacity="0.9" d="M136.924 109.549C136.924 109.647 136.924 109.842 136.829 109.842C136.735 109.842 136.545 109.549 136.545 109.452C136.115 107.491 135.799 105.506 135.599 103.506C135.315 101.167 134.746 100.192 134.936 97.9507C134.958 97.7865 134.99 97.6238 135.03 97.4634C135.068 97.7611 135.131 98.0547 135.22 98.3406C135.409 99.6077 137.019 108.38 136.924 109.549Z" fill="#5B9635" stroke="#4F7536" stroke-width="0.3" stroke-miterlimit="3.86"/>
<path opacity="0.8" d="M110.886 84.0127C110.981 85.3772 111.265 86.2545 110.791 86.8393C110.128 87.619 109.276 86.9367 108.14 87.7165C107.004 88.4962 107.477 89.3734 106.152 90.9329C105.731 91.5159 105.179 91.9843 104.542 92.2975C103.359 92.7848 102.554 92.1026 100.66 91.8102C99.6185 91.7127 97.5355 91.4203 96.2099 92.5899C94.8843 93.7595 95.3578 95.514 94.0322 96.0013C92.9907 96.3912 92.2332 95.4165 90.4816 95.8064C89.5347 96.0013 89.0613 96.4887 88.872 96.3912C88.5879 96.0988 89.6294 94.7342 91.1444 92.2C92.8487 89.276 92.5646 89.276 93.1327 88.6912C95.1211 86.8393 97.2041 88.2038 98.8137 86.4494C100.234 84.9874 99.1924 83.5253 100.518 82.1608C101.844 80.7962 103.548 81.576 106.862 81.0886C108.6 80.7734 110.288 80.216 111.88 79.4316C111.083 80.8106 110.735 82.4156 110.886 84.0127Z" fill="#61A03D" stroke="#61A03D" stroke-miterlimit="3.86"/>
<path opacity="0.8" d="M99.9964 73.2913C99.5247 74.445 99.3299 75.6987 99.4283 76.9463C99.6176 78.1647 99.9964 78.5058 100.186 79.8704C100.28 80.9425 100.47 82.4046 99.6176 83.3793C98.5761 84.5976 97.0612 83.7691 96.067 85.0362C95.5936 85.621 95.7829 86.0109 95.4042 87.083C94.8361 88.8375 93.6999 89.3248 92.7531 90.5919C90.67 93.321 91.5695 96.5375 90.9541 96.6837C90.3386 96.8299 88.3976 93.4672 89.0604 90.3483C89.5338 88.2039 90.8594 87.3267 90.8594 84.6951C90.8594 83.3305 90.4807 83.2331 90.67 82.1609C90.8594 81.0887 91.3328 79.8216 93.8893 77.5799C95.8034 75.975 97.8464 74.5403 99.9964 73.2913Z" fill="#729959" stroke="#729959" stroke-width="0.5" stroke-miterlimit="3.86"/>
<path opacity="0.8" d="M89.8676 97.1099C90.6251 96.6226 90.341 94.1859 89.6783 92.7239C89.1181 91.7947 88.4847 90.9146 87.7846 90.0922C86.0803 87.8504 85.8909 87.6555 85.8909 87.2656C85.6069 85.5112 87.0745 84.5365 86.6484 83.6106C86.0803 82.5384 83.7132 83.708 82.2929 82.246C81.4408 81.3688 82.0089 80.589 81.1094 79.6144C80.636 79.127 79.9259 78.7371 76.1859 78.6396C75.0023 78.6396 73.4401 78.6397 71.5464 78.7371C72.8509 79.7331 74.042 80.8774 75.097 82.1485C75.6041 82.6437 76.007 83.2409 76.2806 83.903C76.754 85.1213 76.3752 85.7549 76.754 87.0219C77.0642 87.943 77.6225 88.7543 78.3636 89.3612C79.3727 90.2958 80.5243 91.0531 81.7722 91.603C86.6839 93.5645 88.6367 97.7557 89.8676 97.1099Z" fill="#5B9635" stroke="#5B9635" stroke-width="0.5" stroke-miterlimit="3.86"/>
<path opacity="0.8" d="M107.761 91.2255C107.078 91.484 106.463 91.9009 105.962 92.4439C105.015 93.4185 105.205 94.1983 104.542 95.3679C103.69 96.9274 101.796 98.4869 100.281 98.1945C99.3342 97.9996 99.4288 97.1223 98.1033 96.4401C96.9423 95.8027 95.5936 95.6291 94.3159 95.9527C92.6116 96.3426 91.9488 96.7325 91.8541 96.5375C91.5701 96.2451 92.801 94.4907 95.2628 92.8824C96.392 92.1372 97.6431 91.6089 98.9554 91.3229C101.841 90.5641 104.861 90.5307 107.761 91.2255Z" fill="#729959" stroke="#729959" stroke-width="0.5" stroke-miterlimit="3.86"/>
<path opacity="0.8" d="M90.625 112.863C90.8144 113.546 91.0985 113.253 91.1931 112.668C92.0453 109.647 91.4772 94.9292 91.0985 94.9292C90.7197 94.9292 89.9623 110.329 90.625 112.863Z" fill="#5B9635" stroke="#4F7536" stroke-width="0.3" stroke-miterlimit="3.86"/>
<path opacity="0.8" d="M112.115 79.0418C107.286 85.5722 103.31 88.0089 100.564 88.9836C98.2886 89.6284 96.1847 90.7947 94.4093 92.395C93.2219 93.4448 92.1998 94.6778 91.3795 96.0501C91.2342 94.9179 91.2342 93.7709 91.3795 92.6387C91.6698 90.5364 92.2434 88.4861 93.0838 86.5469C93.2721 86.154 93.4303 85.7467 93.5572 85.3285C93.9359 84.2564 94.1253 83.3791 94.22 83.0867V82.9893C94.4093 82.307 95.9243 79.5779 100.138 73.2424" stroke="#4F7536" stroke-width="0.3" stroke-miterlimit="3.86"/>
<path opacity="0.8" d="M107.476 91.2256C104.779 91.5613 102.117 92.1485 99.5229 92.98C99.5229 92.98 94.694 94.1984 92.2323 96.099C92.1459 96.176 92.0505 96.2415 91.9482 96.2939L91.8535 96.3914" stroke="#4F7536" stroke-width="0.3" stroke-miterlimit="3.86"/>
<path opacity="0.8" d="M91.5704 112.279C91.6651 112.474 91.9492 112.864 92.2332 112.766C92.5173 112.669 92.5173 112.279 92.6119 112.181C92.8013 110.963 91.9492 100.29 91.5704 95.6116C91.2864 101.265 90.9077 111.304 91.5704 112.279Z" fill="#5B9635" stroke="#4F7536" stroke-width="0.3" stroke-miterlimit="3.86"/>
<path opacity="0.8" d="M89.7729 96.8787C89.5165 96.5809 89.2942 96.2539 89.1102 95.904C88.7554 95.3239 88.4694 94.7021 88.258 94.0521C87.6899 92.3951 85.6069 90.5432 83.6185 88.6913C81.2514 86.6445 80.778 86.6445 80.0679 85.3774C79.0264 83.8179 79.2157 82.9407 78.553 81.7223C77.7955 80.3577 75.9965 78.9932 71.5464 78.5059" stroke="#4F7536" stroke-width="0.3" stroke-miterlimit="3.86"/>
<path opacity="0.8" d="M90.1497 96.5861C90.1497 96.3912 89.8657 96.3912 89.1082 95.9039C87.4986 94.6855 87.5933 93.857 86.6464 93.3697C85.1315 92.6874 83.9006 94.588 82.3857 93.857C81.5335 93.4671 81.9122 92.7849 80.9654 92.1026C79.6398 91.1279 78.2196 92.1026 76.61 91.1279C75.9202 90.7598 75.3579 90.1811 75.0004 89.4709C74.5269 92.6874 75.1897 94.0519 75.9472 94.7342C77.4621 96.0988 80.0186 95.2216 81.4388 97.1709C82.0069 97.9507 81.7229 98.2431 82.291 98.7304C84.1846 100.68 90.2325 97.7558 90.1497 96.5861Z" fill="#6AA842" stroke="#61A03D" stroke-width="0.5" stroke-miterlimit="3.86"/>
<path opacity="0.8" d="M90.1504 96.5863C86.7418 97.2686 84.4694 96.7813 83.2385 96.099C82.2306 95.4818 81.1872 94.9284 80.1139 94.442C79.1217 94.1585 78.1676 93.7492 77.2734 93.2236C76.1915 92.2118 75.4324 90.8866 75.0957 89.4224" stroke="#4F7536" stroke-width="0.3" stroke-miterlimit="3.86"/>
<path opacity="0.9" d="M142.51 111.304C142.699 112.181 143.078 111.791 143.268 111.012C144.309 107.357 144.025 88.8862 143.552 88.8862C143.078 88.8862 141.753 108.075 142.51 111.304Z" fill="#5B9635" stroke="#4F7536" stroke-width="0.3" stroke-miterlimit="3.86"/>
<path opacity="0.9" d="M169.021 75.2405C169.116 76.8974 169.589 77.9696 168.926 78.8955C168.264 79.8215 166.938 78.993 165.612 79.9677C164.287 80.9424 164.76 82.0145 163.056 83.9639C162.507 84.6467 161.831 85.2099 161.068 85.6209C159.553 86.2057 158.606 85.3285 156.239 85.0361C154.913 84.8411 152.357 84.5488 150.652 86.0108C148.948 87.4728 149.469 89.6658 148.001 90.2994C146.676 90.7867 145.824 89.5197 143.551 90.007C142.368 90.2994 141.752 90.8842 141.563 90.6893C141.184 90.2994 142.51 88.6424 144.403 85.426C146.581 81.7709 146.202 81.7709 146.96 81.0399C149.516 78.7006 151.978 80.4551 154.061 78.3108C155.86 76.4589 154.44 74.6557 156.239 72.95C158.038 71.2443 160.026 72.2677 164.097 71.5854C166.272 71.2449 168.381 70.5541 170.347 69.5386C169.441 71.2922 168.984 73.2547 169.021 75.2405Z" fill="#61A03D" stroke="#61A03D" stroke-miterlimit="3.86"/>
<path opacity="0.9" d="M155.48 61.9849C154.847 63.4179 154.617 65.0051 154.817 66.5659C155.007 68.1254 155.575 68.5152 155.764 70.2209C155.954 71.5855 156.143 73.4374 155.101 74.607C153.918 76.0691 151.977 75.0944 150.651 76.6539C150.083 77.4336 150.273 77.8722 149.894 79.2855C149.136 81.5273 147.811 82.0146 146.58 83.6716C144.023 87.083 145.16 91.1767 144.308 91.2741C143.455 91.3716 141.088 87.2779 141.94 83.2817C142.509 80.5526 144.213 79.4805 144.213 76.264C144.213 74.607 143.739 74.4121 143.929 73.145C144.118 71.8779 144.781 70.2209 147.906 67.3943C150.165 65.2259 152.716 63.404 155.48 61.9849Z" fill="#729959" stroke="#729959" stroke-width="0.5" stroke-miterlimit="3.86"/>
<path opacity="0.9" d="M142.796 91.6152C143.837 91.0304 143.458 87.9602 142.512 86.157C141.813 84.9868 141.021 83.8783 140.145 82.8431C137.967 80.0165 137.872 79.8215 137.777 79.188C137.399 76.9462 139.292 75.7766 138.724 74.607C137.967 73.2424 135.032 74.8019 133.233 72.95C132.049 71.8779 132.854 70.8057 131.718 69.6361C131.15 69.0513 130.203 68.4177 125.563 68.4177C124.143 68.4177 122.155 68.4177 119.788 68.5152C121.443 69.7788 122.966 71.216 124.332 72.8038C124.973 73.4439 125.487 74.2051 125.847 75.0456C126.415 76.6051 125.942 77.3848 126.415 78.8469C126.819 79.9835 127.504 80.9916 128.404 81.7709C129.625 82.9752 131.076 83.9047 132.665 84.5C138.819 87.2291 141.375 92.4924 142.796 91.6152Z" fill="#5B9635" stroke="#5B9635" stroke-width="0.5" stroke-miterlimit="3.86"/>
<path opacity="0.9" d="M165.233 84.3051C164.367 84.6355 163.589 85.1695 162.96 85.8646C161.777 87.083 162.013 88.1064 161.161 89.5197C159.978 91.4691 157.611 93.4184 155.859 93.0286C154.676 92.7362 154.818 91.8102 153.113 90.7868C151.648 90.036 149.975 89.8294 148.379 90.202C146.201 90.6893 145.444 91.1767 145.254 90.9817C145.065 90.7868 146.438 88.4475 149.515 86.4007C150.94 85.4777 152.51 84.818 154.155 84.4513C157.779 83.4615 161.585 83.4113 165.233 84.3051Z" fill="#729959" stroke="#729959" stroke-width="0.5" stroke-miterlimit="3.86"/>
<path opacity="0.9" d="M143.741 111.304C143.93 112.084 144.309 111.791 144.498 111.012C145.54 107.21 144.877 88.8862 144.403 88.8862C143.93 88.8862 142.888 108.185 143.741 111.304Z" fill="#5B9635" stroke="#4F7536" stroke-width="0.3" stroke-miterlimit="3.86"/>
<path opacity="0.9" d="M170.632 69.0879C164.714 77.2752 159.649 80.2967 156.145 81.4664C153.311 82.2924 150.692 83.7574 148.476 85.755C146.979 87.0863 145.672 88.6286 144.594 90.336C144.449 88.9104 144.449 87.473 144.594 86.0474C145.003 83.4597 145.735 80.9371 146.772 78.5423C146.866 78.3474 147.056 77.7626 147.34 77.0803C147.651 76.1557 147.904 75.2116 148.097 74.2537V74.1562C148.287 73.279 150.18 69.8676 155.388 61.9727" stroke="#4F7536" stroke-width="0.3" stroke-miterlimit="3.86"/>
<path opacity="0.9" d="M164.796 84.3052C161.421 84.732 158.093 85.4825 154.854 86.5469C154.854 86.5469 148.794 88.009 145.764 90.4457C145.644 90.513 145.546 90.6145 145.48 90.7381L145.386 90.8356" stroke="#4F7536" stroke-width="0.3" stroke-miterlimit="3.86"/>
<path opacity="0.9" d="M144.971 110.719C145.065 110.914 145.444 111.401 145.728 111.304C146.012 111.206 146.107 110.719 146.107 110.524C146.391 109.062 145.255 95.6114 144.781 89.812C144.592 96.8785 144.118 109.452 144.971 110.719Z" fill="#5B9635" stroke="#4F7536" stroke-width="0.3" stroke-miterlimit="3.86"/>
<path opacity="0.9" d="M142.793 91.4203C142.604 91.1279 142.225 90.738 141.941 90.202C141.496 89.4722 141.146 88.6858 140.9 87.8627C140.237 85.8159 137.586 83.3792 134.982 81.2349C132.047 78.6032 131.431 78.6032 130.437 77.0437C129.111 74.9969 129.396 74.0222 128.543 72.5602C127.597 70.9032 125.324 69.1488 119.738 68.564" stroke="#4F7536" stroke-width="0.3" stroke-miterlimit="3.86"/>
<path opacity="0.9" d="M143.172 91.0184C143.172 90.726 142.794 90.726 141.989 90.1412C139.906 88.6792 140.095 87.5095 138.959 87.0222C137.065 86.145 135.408 88.5817 133.657 87.7045C132.615 87.2171 133.089 86.3399 131.858 85.4627C130.153 84.2443 128.449 85.3652 126.461 84.2443C125.62 83.7733 124.93 83.0626 124.472 82.1975C123.81 86.1937 124.662 87.9482 125.656 88.8254C127.55 90.5798 130.674 89.4102 132.473 91.8469C133.136 92.8216 132.852 93.2114 133.515 93.7963C135.787 96.1964 143.362 92.4926 143.172 91.0184Z" fill="#6AA842" stroke="#61A03D" stroke-width="0.5" stroke-miterlimit="3.86"/>
<path opacity="0.9" d="M143.171 91.0183C138.91 91.8955 136.07 91.2132 134.555 90.4335C133.315 89.6471 132.017 88.9627 130.673 88.3866C128.779 87.6069 128.116 87.7044 127.122 86.9246C125.786 85.6715 124.833 84.0463 124.376 82.2461" stroke="#4F7536" stroke-width="0.3" stroke-miterlimit="3.86"/>
<path d="M88.1596 111.401C88.7277 110.427 89.2011 109.257 89.8639 109.257C90.5267 109.257 90.9054 110.232 91.4735 110.037C92.0416 109.842 91.9469 109.062 92.4203 108.477C93.2725 107.6 94.1246 109.062 96.113 108.965C97.2965 108.965 97.4386 108.38 98.2907 108.672C99.1502 108.96 99.9079 109.502 100.468 110.232C101.794 111.596 101.794 112.279 102.646 112.474C103.498 112.668 103.498 112.084 104.35 112.279C105.119 112.541 105.784 113.054 106.244 113.741C106.623 114.228 106.907 114.715 107.096 114.959C103.972 115.154 100.752 115.251 97.4386 115.349C93.0831 115.446 88.8224 115.349 84.751 115.154C86.151 114.188 87.3171 112.904 88.1596 111.401Z" fill="#B56F35" stroke="#B56F35" stroke-width="2" stroke-miterlimit="3.86"/>
<path d="M115.432 107.795C115.148 108.867 114.769 108.38 114.485 107.503C113.159 102.824 113.538 79.8215 114.201 79.8215C114.863 79.8215 116.378 103.799 115.432 107.795Z" fill="#5B9635" stroke="#4F7536" stroke-width="0.3" stroke-miterlimit="3.86"/>
<path d="M82.195 62.7645C82.1003 64.8114 81.5322 66.1759 82.3844 67.2481C83.3312 68.4664 84.8462 67.443 86.5505 68.6126C88.2548 69.7823 87.592 71.1468 89.675 73.5835C90.3099 74.4735 91.1581 75.1787 92.1368 75.6304C94.0305 76.4101 95.2613 75.2405 98.0545 74.9481C99.6641 74.7532 102.883 74.3633 105.061 76.1665C107.239 77.9696 106.387 80.7475 108.375 81.5272C109.985 82.2095 111.121 80.5526 113.867 81.1374C115.382 81.5272 116.139 82.3557 116.328 82.0146C116.802 81.5272 115.145 79.4804 112.778 75.4842C110.032 70.9032 110.6 70.9031 109.653 70.0259C106.529 67.1993 103.309 69.2462 100.848 66.6145C98.6699 64.2753 100.28 62.0335 98.1965 59.8892C96.1135 57.7449 93.557 59.012 88.3494 58.1348C85.6281 57.6705 82.983 56.8175 80.4907 55.6006C81.6886 57.7815 82.2784 60.2606 82.195 62.7645Z" fill="#61A03D" stroke="#61A03D" stroke-miterlimit="3.86"/>
<path d="M99.145 46.0974C99.91 47.871 100.204 49.8218 99.9971 51.7506C99.7131 53.6999 99.0503 54.1873 98.8136 56.4291C98.6242 58.086 98.3402 60.4253 99.6657 61.8873C101.275 63.7392 103.642 62.4721 105.157 64.4215C105.915 65.3962 105.536 65.981 106.199 67.638C107.146 70.4645 108.85 71.1468 110.365 73.0962C113.584 77.3848 112.164 82.4532 113.205 82.5506C114.247 82.6481 117.182 77.5798 116.235 72.6089C115.573 69.1975 113.395 67.9304 113.395 63.8367C113.395 61.6924 113.963 61.5949 113.774 59.8405C113.584 58.086 112.732 56.1854 108.755 52.6278C105.76 50.1424 102.542 47.9558 99.145 46.0974Z" fill="#729959" stroke="#729959" stroke-width="0.5" stroke-miterlimit="3.86"/>
<path d="M115.088 83.1356C113.905 82.3558 114.331 78.6521 115.467 76.2153C116.366 74.7669 117.379 73.3977 118.497 72.1216C121.148 68.6128 121.432 68.3204 121.527 67.6381C122 64.909 119.633 63.3495 120.343 61.9849C121.29 60.328 124.983 62.1798 127.161 59.9381C128.486 58.5735 127.634 57.3064 128.96 55.8444C129.717 55.0647 130.853 54.3824 136.629 54.2849C138.428 54.2849 140.89 54.2849 143.825 54.4799C141.75 56.0523 139.846 57.8495 138.144 59.8406C137.382 60.6249 136.771 61.551 136.345 62.5697C135.587 64.5191 136.25 65.4938 135.682 67.3457C135.199 68.7714 134.348 70.0349 133.22 71.0008C131.678 72.4721 129.879 73.6296 127.918 74.4122C120.071 77.6774 116.852 84.3052 115.088 83.1356Z" fill="#5B9635" stroke="#5B9635" stroke-width="0.5" stroke-miterlimit="3.86"/>
<path d="M87.0249 74.071C88.1068 74.4831 89.0798 75.1508 89.8654 76.0204C91.2857 77.5799 91.049 78.7495 92.1378 80.6014C93.5581 83.0382 96.4933 85.4748 98.7657 84.9875C100.281 84.5976 100.091 83.3306 102.316 82.1609C104.145 81.2137 106.233 80.9385 108.234 81.3812C110.885 81.966 111.785 82.5996 112.116 82.3559C112.447 82.1122 110.601 79.2369 106.814 76.6052C105.011 75.4094 103.002 74.5821 100.896 74.1685C96.3398 73.0497 91.5956 73.0163 87.0249 74.071Z" fill="#729959" stroke="#729959" stroke-width="0.5" stroke-miterlimit="3.86"/>
<path d="M113.821 107.795C113.537 108.867 113.159 108.38 112.875 107.405C111.691 102.727 112.401 79.7241 113.064 79.7241C113.727 79.7241 114.958 103.896 113.821 107.795Z" fill="#5B9635" stroke="#4F7536" stroke-width="0.3" stroke-miterlimit="3.86"/>
<path d="M80.2075 55.0646C87.6875 65.2988 93.9366 69.0026 98.2921 70.5621C101.826 71.6205 105.113 73.4116 107.95 75.8254C109.822 77.491 111.449 79.4282 112.779 81.576C112.972 79.7946 112.972 77.9967 112.779 76.2153C112.279 72.9514 111.356 69.7714 110.033 66.7608C109.938 66.4684 109.654 65.8836 109.37 64.9089C108.802 63.1545 108.518 61.7899 108.423 61.4V61.3026C108.234 60.0842 105.772 55.9418 99.3336 46" stroke="#4F7536" stroke-width="0.3" stroke-miterlimit="3.86"/>
<path d="M87.498 74.0708C91.698 74.6304 95.8464 75.5431 99.9016 76.7999C99.9016 76.7999 107.476 78.5543 111.264 81.6733L111.642 82.0632L111.737 82.1607" stroke="#4F7536" stroke-width="0.3" stroke-miterlimit="3.86"/>
<path d="M112.117 106.857C112.023 107.052 111.928 107.442 111.739 107.442C111.549 107.442 111.265 106.759 111.171 106.467C110.508 104.323 111.265 96.1354 111.36 93.5037C111.549 88.4354 110.508 86.0961 112.212 81.4176C112.402 80.9303 112.496 80.6379 112.591 80.3455V82.2948C112.591 85.1823 112.875 104.481 112.117 106.857Z" fill="#5B9635" stroke="#4F7536" stroke-width="0.3" stroke-miterlimit="3.86"/>
<path d="M115.087 82.9405C115.494 82.5012 115.844 82.0098 116.128 81.4785C116.691 80.5668 117.137 79.5839 117.454 78.5544C118.306 76.0202 121.62 72.9987 124.745 70.2696C128.437 67.0531 129.1 67.0531 130.426 65.1038C132.035 62.5696 131.751 61.3025 132.793 59.5481C133.976 57.5012 136.769 55.2594 143.776 54.5771" stroke="#4F7536" stroke-width="0.3" stroke-miterlimit="3.86"/>
<path d="M98.6721 111.012C99.8556 109.452 100.66 107.795 102.081 107.698C103.501 107.6 104.448 109.16 105.631 108.77C106.673 108.477 106.389 107.21 107.525 106.431C109.229 105.212 111.218 107.21 115.478 107.113C118.035 107.015 118.224 106.236 120.307 106.528C122.104 106.898 123.791 107.7 125.231 108.867C128.261 110.817 128.45 111.889 130.249 112.181C132.048 112.474 132.048 111.596 134.036 111.889C135.639 112.221 137.135 112.957 138.392 114.033C139.812 115.105 140.57 115.593 140.475 115.983C140.285 117.542 130.344 116.86 119.644 116.957C103.359 117.152 92.423 119.102 92.0916 117.152C91.7602 115.885 95.3582 115.495 98.6721 111.012Z" fill="#D57D28" stroke="#D57D28" stroke-width="2" stroke-miterlimit="3.86"/>
<path d="M114.672 82.4897C114.766 82.0999 115.145 82.0999 116.281 81.2714C118.838 79.517 118.649 78.0549 120.069 77.3726C122.436 76.3005 124.424 79.322 126.697 78.1524C128.022 77.4701 127.454 76.4954 128.874 75.4233C131.052 73.8638 133.135 75.3258 135.692 73.9612C136.765 73.3464 137.651 72.4349 138.248 71.3296C139.005 76.398 137.964 78.5423 136.828 79.6144C134.461 81.7587 130.484 80.3942 128.306 83.2695C127.454 84.4879 127.833 84.9265 127.123 85.7062C123.856 88.8861 114.388 84.3051 114.672 82.4897Z" fill="#6AA842" stroke="#61A03D" stroke-width="0.5" stroke-miterlimit="3.86"/>
<path d="M114.674 82.4898C119.976 83.7081 123.479 82.7822 125.468 81.71C127.017 80.7207 128.631 79.8415 130.297 79.0784C132.664 78.1037 133.421 78.2012 134.747 77.324C136.385 75.7096 137.606 73.6993 138.297 71.4758" stroke="#4F7536" stroke-width="0.3" stroke-miterlimit="3.86"/>
<path d="M115.431 109.744C115.904 108.965 117.23 106.626 118.982 106.626C120.497 106.626 121.159 108.282 122.532 107.99C123.574 107.698 123.384 106.528 124.521 105.748C126.32 104.53 128.071 106.82 132.474 106.967C135.031 107.064 135.315 106.284 137.303 106.772C139.059 107.256 140.68 108.157 142.037 109.403C144.878 111.548 145.067 112.62 146.771 113.058C148.476 113.497 148.665 112.571 150.559 112.961C152.151 113.401 153.615 114.238 154.819 115.398C155.672 116.177 156.334 116.957 156.808 117.445C150.085 117.152 143.079 116.957 135.977 116.957C124.71 116.86 113.821 117.152 103.406 117.737C110.697 115.105 113.904 112.181 115.431 109.744Z" fill="#D68A4C" stroke="#D68A4C" stroke-width="2" stroke-miterlimit="3.86"/>
<path d="M72.5377 113.351C73.3898 112.132 74.0526 110.817 75.0941 110.719C76.1357 110.622 76.7984 111.938 77.7453 111.596C78.5027 111.304 78.4081 110.378 79.1655 109.745C80.4911 108.672 81.9113 110.427 85.0832 110.329C86.9769 110.329 87.1663 109.647 88.6339 109.939C89.9344 110.283 91.1463 110.915 92.1845 111.791C94.3622 113.448 94.5516 114.228 95.8772 114.521C97.2027 114.813 97.2027 114.033 98.7177 114.326C99.9105 114.64 101.014 115.241 101.937 116.08C102.316 116.47 102.884 116.957 103.452 117.639C98.4336 117.932 93.226 118.029 87.9238 118.127C80.8225 118.224 74.0053 118.224 67.3774 118.029C68.5119 117.314 69.5606 116.463 70.502 115.495C71.2333 114.836 71.9139 114.119 72.5377 113.351Z" fill="#D68A4C" stroke="#D68A4C" stroke-width="2" stroke-miterlimit="3.86"/>
<path d="M141.373 113.156C142.035 112.181 142.556 110.914 143.456 110.914C144.355 110.914 144.781 111.986 145.539 111.791C146.296 111.596 146.107 110.719 146.722 110.134C147.764 109.257 148.805 110.817 151.362 110.719C152.877 110.719 152.971 110.134 154.202 110.427C155.244 110.769 156.188 111.372 156.948 112.181C158.652 113.643 158.747 114.423 159.694 114.618C160.641 114.813 160.735 114.228 161.872 114.423C162.813 114.707 163.663 115.246 164.333 115.982C164.791 116.411 165.19 116.903 165.517 117.444C161.54 117.542 157.469 117.639 153.303 117.639C147.716 117.639 142.414 117.444 137.207 117.152C138.897 116.198 140.329 114.825 141.373 113.156Z" fill="#D57D28" stroke="#D57D28" stroke-width="2" stroke-miterlimit="3.86"/>
<path d="M121.679 113.448C122.247 112.474 122.721 111.304 123.383 111.304C124.046 111.304 124.425 112.279 124.993 112.084C125.561 111.889 125.466 111.109 125.94 110.524C126.792 109.647 127.644 111.109 129.633 111.012C130.816 111.012 130.958 110.427 131.81 110.719C132.67 111.006 133.427 111.549 133.988 112.279C135.314 113.643 135.314 114.325 136.166 114.52C137.018 114.715 137.018 114.131 137.87 114.325C138.639 114.588 139.303 115.101 139.764 115.787C140.142 116.275 140.426 116.762 140.616 117.006C137.491 117.201 134.272 117.298 130.958 117.396C126.603 117.493 122.342 117.396 118.271 117.201C119.676 116.242 120.844 114.957 121.679 113.448Z" fill="#B56F35" stroke="#B56F35" stroke-width="2" stroke-miterlimit="3.86"/>
<path d="M95.1679 119.491C95.2725 119.491 95.3573 119.448 95.3573 119.394C95.3573 119.34 95.2725 119.296 95.1679 119.296C95.0633 119.296 94.9785 119.34 94.9785 119.394C94.9785 119.448 95.0633 119.491 95.1679 119.491Z" fill="#B56F35" stroke="#B56F35" stroke-width="0.5" stroke-miterlimit="3.86" stroke-linecap="round"/>
<path d="M96.9651 119.041C96.9623 119.091 96.9414 119.139 96.9065 119.175C96.8716 119.211 96.8251 119.233 96.7758 119.235C96.6811 119.235 96.4917 119.235 96.4917 119.138" fill="#B56F35"/>
<path d="M96.9651 119.041C96.9623 119.091 96.9414 119.139 96.9065 119.175C96.8716 119.211 96.8251 119.233 96.7758 119.235C96.6811 119.235 96.4917 119.235 96.4917 119.138" stroke="#B56F35" stroke-width="0.5" stroke-miterlimit="3.86" stroke-linecap="round"/>
<path d="M94.0325 117.737C94.2417 117.737 94.4113 117.606 94.4113 117.445C94.4113 117.283 94.2417 117.152 94.0325 117.152C93.8234 117.152 93.6538 117.283 93.6538 117.445C93.6538 117.606 93.8234 117.737 94.0325 117.737Z" fill="#B56F35"/>
<path d="M94.9769 118.127C95.186 118.127 95.3556 117.996 95.3556 117.834C95.3556 117.673 95.186 117.542 94.9769 117.542C94.7677 117.542 94.5981 117.673 94.5981 117.834C94.5981 117.996 94.7677 118.127 94.9769 118.127Z" fill="#B56F35"/>
<path d="M96.5892 116.567C96.7983 116.567 96.9679 116.436 96.9679 116.275C96.9679 116.113 96.7983 115.982 96.5892 115.982C96.38 115.982 96.2104 116.113 96.2104 116.275C96.2104 116.436 96.38 116.567 96.5892 116.567Z" fill="#B56F35"/>
<path d="M97.2508 118.029C97.46 118.029 97.6295 117.898 97.6295 117.737C97.6295 117.575 97.46 117.445 97.2508 117.445C97.0416 117.445 96.8721 117.575 96.8721 117.737C96.8721 117.898 97.0416 118.029 97.2508 118.029Z" fill="#B56F35"/>
<path d="M97.8192 118.419C98.0283 118.419 98.1979 118.288 98.1979 118.127C98.1979 117.965 98.0283 117.834 97.8192 117.834C97.61 117.834 97.4404 117.965 97.4404 118.127C97.4404 118.288 97.61 118.419 97.8192 118.419Z" fill="#B56F35"/>
<path d="M97.8192 118.419C98.0283 118.419 98.1979 118.288 98.1979 118.127C98.1979 117.965 98.0283 117.834 97.8192 117.834C97.61 117.834 97.4404 117.965 97.4404 118.127C97.4404 118.288 97.61 118.419 97.8192 118.419Z" fill="#B56F35"/>
<path d="M103.027 119.394C103.184 119.394 103.311 119.307 103.311 119.199C103.311 119.091 103.184 119.004 103.027 119.004C102.87 119.004 102.743 119.091 102.743 119.199C102.743 119.307 102.87 119.394 103.027 119.394Z" fill="#B56F35" stroke="#B56F35" stroke-width="0.5" stroke-miterlimit="3.86" stroke-linecap="round"/>
<path d="M160.31 118.614C160.31 118.711 160.215 118.809 160.026 118.809C159.836 118.809 159.742 118.711 159.742 118.614" fill="#B56F35"/>
<path d="M160.31 118.614C160.31 118.711 160.215 118.809 160.026 118.809C159.836 118.809 159.742 118.711 159.742 118.614" stroke="#B56F35" stroke-width="0.5" stroke-miterlimit="3.86" stroke-linecap="round"/>
<path d="M101.228 115.495C101.437 115.495 101.607 115.364 101.607 115.203C101.607 115.041 101.437 114.91 101.228 114.91C101.019 114.91 100.849 115.041 100.849 115.203C100.849 115.364 101.019 115.495 101.228 115.495Z" fill="#B56F35"/>
<path d="M102.079 115.885C102.289 115.885 102.458 115.754 102.458 115.592C102.458 115.431 102.289 115.3 102.079 115.3C101.87 115.3 101.701 115.431 101.701 115.592C101.701 115.754 101.87 115.885 102.079 115.885Z" fill="#B56F35"/>
<path d="M103.785 114.326C103.994 114.326 104.164 114.195 104.164 114.033C104.164 113.872 103.994 113.741 103.785 113.741C103.576 113.741 103.406 113.872 103.406 114.033C103.406 114.195 103.576 114.326 103.785 114.326Z" fill="#B56F35"/>
<path d="M104.351 115.787C104.561 115.787 104.73 115.657 104.73 115.495C104.73 115.334 104.561 115.203 104.351 115.203C104.142 115.203 103.973 115.334 103.973 115.495C103.973 115.657 104.142 115.787 104.351 115.787Z" fill="#B56F35"/>
<path d="M105.015 116.177C105.224 116.177 105.394 116.046 105.394 115.885C105.394 115.723 105.224 115.593 105.015 115.593C104.806 115.593 104.636 115.723 104.636 115.885C104.636 116.046 104.806 116.177 105.015 116.177Z" fill="#B56F35"/>
<path d="M105.015 116.177C105.224 116.177 105.394 116.046 105.394 115.885C105.394 115.723 105.224 115.593 105.015 115.593C104.806 115.593 104.636 115.723 104.636 115.885C104.636 116.046 104.806 116.177 105.015 116.177Z" fill="#B56F35"/>
<path d="M141.762 117.764C141.913 117.722 142.014 117.603 141.986 117.499C141.959 117.395 141.814 117.345 141.662 117.388C141.511 117.43 141.41 117.549 141.438 117.653C141.466 117.757 141.611 117.807 141.762 117.764Z" fill="#B56F35" stroke="#B56F35" stroke-miterlimit="3.86" stroke-linecap="round"/>
<path d="M143.172 117.639C143.172 117.737 143.077 117.834 142.982 117.932C142.888 118.029 142.698 117.932 142.604 117.834" fill="#B56F35"/>
<path d="M143.172 117.639C143.172 117.737 143.077 117.834 142.982 117.932C142.888 118.029 142.698 117.932 142.604 117.834" stroke="#B56F35" stroke-miterlimit="3.86" stroke-linecap="round"/>
<path d="M141.225 119.016C141.427 118.959 141.557 118.787 141.516 118.631C141.475 118.475 141.278 118.395 141.076 118.451C140.874 118.508 140.744 118.68 140.785 118.836C140.826 118.992 141.023 119.072 141.225 119.016Z" fill="#B56F35"/>
<path d="M142.164 119.113C142.366 119.056 142.496 118.884 142.454 118.728C142.413 118.572 142.216 118.492 142.014 118.548C141.813 118.605 141.682 118.777 141.724 118.933C141.765 119.089 141.962 119.169 142.164 119.113Z" fill="#B56F35"/>
<path d="M105.488 118.711C105.697 118.711 105.867 118.581 105.867 118.419C105.867 118.258 105.697 118.127 105.488 118.127C105.279 118.127 105.109 118.258 105.109 118.419C105.109 118.581 105.279 118.711 105.488 118.711Z" fill="#B56F35"/>
<path d="M144.251 118.447C144.453 118.39 144.583 118.218 144.542 118.062C144.501 117.907 144.304 117.826 144.102 117.883C143.9 117.939 143.77 118.112 143.811 118.267C143.852 118.423 144.049 118.504 144.251 118.447Z" fill="#B56F35"/>
<path d="M145.006 118.629C145.207 118.572 145.337 118.4 145.296 118.244C145.255 118.088 145.058 118.008 144.856 118.064C144.654 118.121 144.524 118.293 144.565 118.449C144.607 118.605 144.804 118.685 145.006 118.629Z" fill="#B56F35"/>
<path d="M145.006 118.629C145.207 118.572 145.337 118.4 145.296 118.244C145.255 118.088 145.058 118.008 144.856 118.064C144.654 118.121 144.524 118.293 144.565 118.449C144.607 118.605 144.804 118.685 145.006 118.629Z" fill="#B56F35"/>
<path d="M117.704 114.715C117.704 114.813 117.609 114.91 117.42 114.91C117.23 114.91 117.136 114.813 117.136 114.715" fill="#B56F35"/>
<path d="M117.704 114.715C117.704 114.813 117.609 114.91 117.42 114.91C117.23 114.91 117.136 114.813 117.136 114.715" stroke="#B56F35" stroke-width="0.5" stroke-miterlimit="3.86" stroke-linecap="round"/>
<path d="M101.228 115.495C101.437 115.495 101.607 115.364 101.607 115.203C101.607 115.041 101.437 114.91 101.228 114.91C101.019 114.91 100.849 115.041 100.849 115.203C100.849 115.364 101.019 115.495 101.228 115.495Z" fill="#B56F35"/>
<path d="M102.079 115.885C102.289 115.885 102.458 115.754 102.458 115.592C102.458 115.431 102.289 115.3 102.079 115.3C101.87 115.3 101.701 115.431 101.701 115.592C101.701 115.754 101.87 115.885 102.079 115.885Z" fill="#B56F35"/>
<path d="M103.785 114.326C103.994 114.326 104.164 114.195 104.164 114.033C104.164 113.872 103.994 113.741 103.785 113.741C103.576 113.741 103.406 113.872 103.406 114.033C103.406 114.195 103.576 114.326 103.785 114.326Z" fill="#B56F35"/>
<path d="M104.351 115.787C104.561 115.787 104.73 115.657 104.73 115.495C104.73 115.334 104.561 115.203 104.351 115.203C104.142 115.203 103.973 115.334 103.973 115.495C103.973 115.657 104.142 115.787 104.351 115.787Z" fill="#B56F35"/>
<path d="M105.015 116.177C105.224 116.177 105.394 116.046 105.394 115.885C105.394 115.723 105.224 115.593 105.015 115.593C104.806 115.593 104.636 115.723 104.636 115.885C104.636 116.046 104.806 116.177 105.015 116.177Z" fill="#B56F35"/>
<path d="M105.015 116.177C105.224 116.177 105.394 116.046 105.394 115.885C105.394 115.723 105.224 115.593 105.015 115.593C104.806 115.593 104.636 115.723 104.636 115.885C104.636 116.046 104.806 116.177 105.015 116.177Z" fill="#B56F35"/>
<path d="M102.08 118.419C102.237 118.419 102.364 118.332 102.364 118.224C102.364 118.117 102.237 118.029 102.08 118.029C101.923 118.029 101.796 118.117 101.796 118.224C101.796 118.332 101.923 118.419 102.08 118.419Z" fill="#B56F35" stroke="#B56F35" stroke-width="0.5" stroke-miterlimit="3.86" stroke-linecap="round"/>
<path d="M101.608 118.614C101.608 118.711 101.513 118.809 101.324 118.809C101.134 118.809 101.04 118.711 101.04 118.614" fill="#B56F35"/>
<path d="M101.608 118.614C101.608 118.711 101.513 118.809 101.324 118.809C101.134 118.809 101.04 118.711 101.04 118.614" stroke="#B56F35" stroke-width="0.5" stroke-miterlimit="3.86" stroke-linecap="round"/>
<path d="M164.097 118.516C164.307 118.516 164.476 118.386 164.476 118.224C164.476 118.063 164.307 117.932 164.097 117.932C163.888 117.932 163.719 118.063 163.719 118.224C163.719 118.386 163.888 118.516 164.097 118.516Z" fill="#B56F35"/>
<path d="M164.951 118.907C165.16 118.907 165.33 118.776 165.33 118.614C165.33 118.453 165.16 118.322 164.951 118.322C164.742 118.322 164.572 118.453 164.572 118.614C164.572 118.776 164.742 118.907 164.951 118.907Z" fill="#B56F35"/>
<path d="M166.559 117.347C166.769 117.347 166.938 117.216 166.938 117.055C166.938 116.893 166.769 116.762 166.559 116.762C166.35 116.762 166.181 116.893 166.181 117.055C166.181 117.216 166.35 117.347 166.559 117.347Z" fill="#B56F35"/>
<path d="M167.223 118.809C167.432 118.809 167.602 118.678 167.602 118.517C167.602 118.355 167.432 118.224 167.223 118.224C167.014 118.224 166.844 118.355 166.844 118.517C166.844 118.678 167.014 118.809 167.223 118.809Z" fill="#B56F35"/>
<path d="M105.015 116.177C105.224 116.177 105.394 116.046 105.394 115.885C105.394 115.723 105.224 115.593 105.015 115.593C104.806 115.593 104.636 115.723 104.636 115.885C104.636 116.046 104.806 116.177 105.015 116.177Z" fill="#B56F35"/>
<path d="M167.791 119.199C168.001 119.199 168.17 119.068 168.17 118.906C168.17 118.745 168.001 118.614 167.791 118.614C167.582 118.614 167.413 118.745 167.413 118.906C167.413 119.068 167.582 119.199 167.791 119.199Z" fill="#B56F35"/>
<path d="M63.4505 119.101C63.6597 119.101 63.8292 118.97 63.8292 118.809C63.8292 118.648 63.6597 118.517 63.4505 118.517C63.2413 118.517 63.0718 118.648 63.0718 118.809C63.0718 118.97 63.2413 119.101 63.4505 119.101Z" fill="#B56F35"/>
<path d="M64.3001 119.491C64.5093 119.491 64.6789 119.36 64.6789 119.199C64.6789 119.037 64.5093 118.906 64.3001 118.906C64.0909 118.906 63.9214 119.037 63.9214 119.199C63.9214 119.36 64.0909 119.491 64.3001 119.491Z" fill="#B56F35"/>
<path d="M65.9124 117.932C66.1216 117.932 66.2912 117.801 66.2912 117.639C66.2912 117.478 66.1216 117.347 65.9124 117.347C65.7032 117.347 65.5337 117.478 65.5337 117.639C65.5337 117.801 65.7032 117.932 65.9124 117.932Z" fill="#B56F35"/>
<path d="M66.5735 119.394C66.7827 119.394 66.9523 119.263 66.9523 119.101C66.9523 118.94 66.7827 118.809 66.5735 118.809C66.3644 118.809 66.1948 118.94 66.1948 119.101C66.1948 119.263 66.3644 119.394 66.5735 119.394Z" fill="#B56F35"/>
<path d="M67.1419 119.784C67.3511 119.784 67.5207 119.653 67.5207 119.491C67.5207 119.33 67.3511 119.199 67.1419 119.199C66.9328 119.199 66.7632 119.33 66.7632 119.491C66.7632 119.653 66.9328 119.784 67.1419 119.784Z" fill="#B56F35"/>
<path d="M74.9061 120.076C75.1153 120.076 75.2848 119.945 75.2848 119.784C75.2848 119.622 75.1153 119.491 74.9061 119.491C74.6969 119.491 74.5273 119.622 74.5273 119.784C74.5273 119.945 74.6969 120.076 74.9061 120.076Z" fill="#B56F35"/>
<path d="M72.349 119.394C72.5581 119.394 72.7277 119.263 72.7277 119.101C72.7277 118.94 72.5581 118.809 72.349 118.809C72.1398 118.809 71.9702 118.94 71.9702 119.101C71.9702 119.263 72.1398 119.394 72.349 119.394Z" fill="#B56F35"/>
<path d="M67.0472 117.64C67.2564 117.64 67.4259 117.509 67.4259 117.347C67.4259 117.186 67.2564 117.055 67.0472 117.055C66.838 117.055 66.6685 117.186 66.6685 117.347C66.6685 117.509 66.838 117.64 67.0472 117.64Z" fill="#B56F35"/>
<path d="M75.3792 119.394C75.5884 119.394 75.758 119.263 75.758 119.101C75.758 118.94 75.5884 118.809 75.3792 118.809C75.17 118.809 75.0005 118.94 75.0005 119.101C75.0005 119.263 75.17 119.394 75.3792 119.394Z" fill="#B56F35"/>
<path d="M76.0408 119.491C76.25 119.491 76.4196 119.36 76.4196 119.199C76.4196 119.037 76.25 118.906 76.0408 118.906C75.8317 118.906 75.6621 119.037 75.6621 119.199C75.6621 119.36 75.8317 119.491 76.0408 119.491Z" fill="#B56F35"/>
<path d="M124.711 110.622C124.711 110.622 124.616 110.817 124.522 110.817C124.427 110.817 124.332 110.622 124.332 110.524C124.19 109.392 124.19 108.245 124.332 107.113C124.427 105.894 124.048 105.163 124.616 103.994C124.711 103.896 124.711 103.799 124.806 103.701V104.189C124.965 106.332 124.933 108.485 124.711 110.622Z" fill="#5B9635" stroke="#4F7536" stroke-width="0.3" stroke-miterlimit="3.86"/>
<path d="M126.922 110.512C126.922 110.512 126.827 110.707 126.733 110.707C126.638 110.707 126.543 110.414 126.543 110.414C126.503 108.979 126.598 107.543 126.827 106.126C127.017 104.469 126.638 103.592 127.395 102.13C127.49 101.935 127.49 101.837 127.585 101.74V102.422C127.455 103.409 127.265 109.842 126.922 110.512Z" fill="#5B9635" stroke="#4F7536" stroke-width="0.3" stroke-miterlimit="3.86"/>
<path d="M124.046 112.571C124.046 112.668 124.046 112.863 123.952 112.863C123.857 112.863 123.667 112.571 123.667 112.473C123.237 110.513 122.921 108.527 122.721 106.528C122.437 104.189 121.869 103.214 122.058 100.972C122.08 100.808 122.112 100.645 122.153 100.485C122.19 100.783 122.253 101.076 122.342 101.362C122.531 102.532 124.236 111.401 124.046 112.571Z" fill="#5B9635" stroke="#4F7536" stroke-width="0.3" stroke-miterlimit="3.86"/>
<path d="M82.1027 112.279L82.008 112.376C81.9133 112.376 81.9133 112.279 81.8186 112.181C81.7239 111.437 81.7239 110.683 81.8186 109.939C81.9133 109.062 81.5346 108.721 82.008 107.892C82.008 107.795 82.1027 107.795 82.1027 107.698V107.99C82.1973 108.672 82.3867 111.986 82.1027 112.279Z" fill="#5B9635" stroke="#4F7536" stroke-width="0.3" stroke-miterlimit="3.86"/>
<path d="M83.7117 112.571L83.617 112.669C83.5224 112.669 83.5224 112.474 83.4277 112.474C83.3964 111.56 83.4599 110.645 83.617 109.744C83.7117 108.672 83.5224 108.088 83.9958 107.21C84.0496 107.16 84.0833 107.09 84.0905 107.015V107.405C84.1524 109.136 84.0253 110.869 83.7117 112.571Z" fill="#5B9635" stroke="#4F7536" stroke-width="0.3" stroke-miterlimit="3.86"/>
<path d="M81.6277 113.448C81.6277 113.448 81.6277 113.643 81.533 113.643C81.4383 113.643 81.3436 113.448 81.3436 113.351C81.0596 112.668 80.7755 110.134 80.5862 109.354C80.3968 107.795 79.9234 107.015 80.1127 105.699C80.1127 105.602 80.1127 105.407 80.2074 105.407C80.2552 105.599 80.2869 105.794 80.3021 105.992C80.8712 108.451 81.3136 110.94 81.6277 113.448Z" fill="#5B9635" stroke="#4F7536" stroke-width="0.3" stroke-miterlimit="3.86"/>
<path d="M82.953 114.423C83.1621 114.423 83.3317 114.292 83.3317 114.131C83.3317 113.969 83.1621 113.838 82.953 113.838C82.7438 113.838 82.5742 113.969 82.5742 114.131C82.5742 114.292 82.7438 114.423 82.953 114.423Z" fill="#B56F35"/>
<path d="M85.7933 113.741C86.0025 113.741 86.172 113.61 86.172 113.448C86.172 113.287 86.0025 113.156 85.7933 113.156C85.5841 113.156 85.4146 113.287 85.4146 113.448C85.4146 113.61 85.5841 113.741 85.7933 113.741Z" fill="#B56F35"/>
<path d="M82.3865 113.741C82.5957 113.741 82.7653 113.61 82.7653 113.448C82.7653 113.287 82.5957 113.156 82.3865 113.156C82.1774 113.156 82.0078 113.287 82.0078 113.448C82.0078 113.61 82.1774 113.741 82.3865 113.741Z" fill="#B56F35"/>
<path d="M81.723 113.838C81.9321 113.838 82.1017 113.707 82.1017 113.546C82.1017 113.384 81.9321 113.253 81.723 113.253C81.5138 113.253 81.3442 113.384 81.3442 113.546C81.3442 113.707 81.5138 113.838 81.723 113.838Z" fill="#B56F35"/>
<path d="M160.309 115.3C160.309 115.3 160.404 115.495 160.499 115.495C160.593 115.495 160.688 115.3 160.688 115.203C160.83 114.07 160.83 112.924 160.688 111.791C160.593 110.573 160.972 109.842 160.404 108.672C160.309 108.575 160.309 108.477 160.215 108.38V108.867C160.215 109.744 160.061 114.715 160.309 115.3Z" fill="#5B9635" stroke="#4F7536" stroke-width="0.3" stroke-miterlimit="3.86"/>
<path d="M158.228 115.3C158.228 115.3 158.322 115.495 158.417 115.495C158.512 115.495 158.606 115.203 158.606 115.203C158.647 113.767 158.552 112.331 158.322 110.914C158.133 109.257 158.512 108.38 157.754 106.918C157.66 106.723 157.66 106.626 157.565 106.528V107.21C157.565 108.075 157.849 114.52 158.228 115.3Z" fill="#5B9635" stroke="#4F7536" stroke-width="0.3" stroke-miterlimit="3.86"/>
<path d="M160.974 117.249C160.974 117.347 160.974 117.542 161.068 117.542C161.163 117.542 161.352 117.249 161.352 117.152C161.783 115.191 162.099 113.206 162.299 111.206C162.583 108.867 163.151 107.892 162.962 105.651C162.94 105.486 162.908 105.324 162.867 105.163C162.83 105.461 162.767 105.755 162.678 106.041C162.489 107.308 160.879 116.08 160.974 117.249Z" fill="#5B9635" stroke="#4F7536" stroke-width="0.3" stroke-miterlimit="3.86"/>
<path d="M157.375 116.08L157.469 116.177C157.564 116.177 157.564 115.982 157.564 115.982C157.545 115.135 157.481 114.289 157.375 113.448C157.28 112.474 157.469 111.986 156.996 111.109C156.942 111.058 156.908 110.989 156.901 110.914V111.304C156.996 111.791 157.185 115.593 157.375 116.08Z" fill="#5B9635" stroke="#4F7536" stroke-width="0.3" stroke-miterlimit="3.86"/>
<path d="M155.956 116.177L156.05 116.275C156.145 116.275 156.145 116.08 156.145 115.983C156.08 114.898 155.922 113.822 155.672 112.766C155.685 111.73 155.491 110.701 155.103 109.745C155.067 109.706 155.04 109.66 155.023 109.61C155.007 109.559 155.002 109.505 155.009 109.452C155.002 109.62 155.035 109.787 155.103 109.939C155.235 112.038 155.52 114.123 155.956 116.177Z" fill="#5B9635" stroke="#4F7536" stroke-width="0.3" stroke-miterlimit="3.86"/>
<path d="M157.944 117.542C157.944 117.639 157.944 117.737 158.038 117.737C158.133 117.737 158.228 117.542 158.228 117.444C158.426 115.926 158.521 114.395 158.512 112.863C158.732 111.445 158.764 110.002 158.607 108.575C158.607 108.38 158.512 108.282 158.512 108.185C158.515 108.416 158.483 108.646 158.417 108.867C158.417 109.842 157.849 116.665 157.944 117.542Z" fill="#5B9635" stroke="#4F7536" stroke-width="0.3" stroke-miterlimit="3.86"/>
<path d="M159.174 117.542C159.383 117.542 159.552 117.455 159.552 117.347C159.552 117.239 159.383 117.152 159.174 117.152C158.964 117.152 158.795 117.239 158.795 117.347C158.795 117.455 158.964 117.542 159.174 117.542Z" fill="#B56F35"/>
<path d="M158.322 117.834C158.531 117.834 158.701 117.747 158.701 117.64C158.701 117.532 158.531 117.445 158.322 117.445C158.113 117.445 157.943 117.532 157.943 117.64C157.943 117.747 158.113 117.834 158.322 117.834Z" fill="#B56F35"/>
<path d="M156.712 116.567C156.921 116.567 157.09 116.48 157.09 116.372C157.09 116.265 156.921 116.177 156.712 116.177C156.503 116.177 156.333 116.265 156.333 116.372C156.333 116.48 156.503 116.567 156.712 116.567Z" fill="#B56F35"/>
<path d="M156.048 117.737C156.257 117.737 156.427 117.65 156.427 117.542C156.427 117.434 156.257 117.347 156.048 117.347C155.839 117.347 155.669 117.434 155.669 117.542C155.669 117.65 155.839 117.737 156.048 117.737Z" fill="#B56F35"/>
<path d="M155.387 118.029C155.596 118.029 155.766 117.942 155.766 117.834C155.766 117.727 155.596 117.639 155.387 117.639C155.178 117.639 155.008 117.727 155.008 117.834C155.008 117.942 155.178 118.029 155.387 118.029Z" fill="#B56F35"/>
</g>
<defs>
<clipPath id="clip0">
<rect width="230" height="165.093" rx="6.7" fill="white"/>
</clipPath>
</defs>
</svg>
