<svg width="230" height="165" viewBox="0 0 230 165" fill="none" xmlns="http://www.w3.org/2000/svg">
<rect width="230" height="164.907" rx="6.7" fill="white"/>
<path d="M60.5194 139.36C61.5967 139.36 62.4607 139.675 63.1114 140.304C63.762 140.933 64.0874 141.867 64.0874 143.104V148H62.0874V143.36C62.0874 142.613 61.9114 142.053 61.5594 141.68C61.2074 141.296 60.706 141.104 60.0554 141.104C59.3194 141.104 58.738 141.328 58.3114 141.776C57.8847 142.213 57.6714 142.848 57.6714 143.68V148H55.6714V136.128H57.6714V140.448C58.002 140.096 58.4074 139.829 58.8874 139.648C59.378 139.456 59.922 139.36 60.5194 139.36ZM69.8885 139.36C71.1472 139.36 72.1072 139.664 72.7685 140.272C73.4405 140.869 73.7765 141.776 73.7765 142.992V148H71.8885V146.96C71.6432 147.333 71.2912 147.621 70.8325 147.824C70.3845 148.016 69.8405 148.112 69.2005 148.112C68.5605 148.112 68.0005 148.005 67.5205 147.792C67.0405 147.568 66.6672 147.264 66.4005 146.88C66.1445 146.485 66.0165 146.043 66.0165 145.552C66.0165 144.784 66.2992 144.171 66.8645 143.712C67.4405 143.243 68.3418 143.008 69.5685 143.008H71.7765V142.88C71.7765 142.283 71.5952 141.824 71.2325 141.504C70.8805 141.184 70.3525 141.024 69.6485 141.024C69.1685 141.024 68.6938 141.099 68.2245 141.248C67.7658 141.397 67.3765 141.605 67.0565 141.872L66.2725 140.416C66.7205 140.075 67.2592 139.813 67.8885 139.632C68.5178 139.451 69.1845 139.36 69.8885 139.36ZM69.6165 146.656C70.1178 146.656 70.5605 146.544 70.9445 146.32C71.3392 146.085 71.6165 145.755 71.7765 145.328V144.336H69.7125C68.5605 144.336 67.9845 144.715 67.9845 145.472C67.9845 145.835 68.1285 146.123 68.4165 146.336C68.7045 146.549 69.1045 146.656 69.6165 146.656ZM81.1913 139.36C82.2686 139.36 83.1326 139.675 83.7833 140.304C84.4339 140.933 84.7593 141.867 84.7593 143.104V148H82.7593V143.36C82.7593 142.613 82.5833 142.053 82.2313 141.68C81.8793 141.296 81.3779 141.104 80.7273 141.104C79.9913 141.104 79.4099 141.328 78.9833 141.776C78.5566 142.213 78.3433 142.848 78.3433 143.68V148H76.3433V139.456H78.2473V140.56C78.5779 140.165 78.9939 139.867 79.4953 139.664C79.9966 139.461 80.5619 139.36 81.1913 139.36ZM89.9364 148.112C89.243 148.112 88.5657 148.021 87.9044 147.84C87.243 147.659 86.715 147.429 86.3204 147.152L87.0884 145.632C87.4724 145.888 87.931 146.096 88.4644 146.256C89.0084 146.405 89.5417 146.48 90.0644 146.48C91.259 146.48 91.8564 146.165 91.8564 145.536C91.8564 145.237 91.7017 145.029 91.3924 144.912C91.0937 144.795 90.6084 144.683 89.9364 144.576C89.2324 144.469 88.6564 144.347 88.2084 144.208C87.771 144.069 87.387 143.829 87.0564 143.488C86.7364 143.136 86.5764 142.651 86.5764 142.032C86.5764 141.221 86.9124 140.576 87.5844 140.096C88.267 139.605 89.1844 139.36 90.3364 139.36C90.923 139.36 91.5097 139.429 92.0964 139.568C92.683 139.696 93.163 139.872 93.5364 140.096L92.7684 141.616C92.043 141.189 91.227 140.976 90.3204 140.976C89.7337 140.976 89.2857 141.067 88.9764 141.248C88.6777 141.419 88.5284 141.648 88.5284 141.936C88.5284 142.256 88.6884 142.485 89.0084 142.624C89.339 142.752 89.8457 142.875 90.5284 142.992C91.211 143.099 91.771 143.221 92.2084 143.36C92.6457 143.499 93.019 143.733 93.3284 144.064C93.6484 144.395 93.8084 144.864 93.8084 145.472C93.8084 146.272 93.4617 146.912 92.7684 147.392C92.075 147.872 91.131 148.112 89.9364 148.112ZM104.801 139.36C105.878 139.36 106.742 139.675 107.393 140.304C108.043 140.933 108.369 141.867 108.369 143.104V148H106.369V143.36C106.369 142.613 106.193 142.053 105.841 141.68C105.489 141.296 104.987 141.104 104.337 141.104C103.601 141.104 103.019 141.328 102.593 141.776C102.166 142.213 101.953 142.848 101.953 143.68V148H99.9526V136.128H101.953V140.448C102.283 140.096 102.689 139.829 103.169 139.648C103.659 139.456 104.203 139.36 104.801 139.36ZM114.824 148.112C113.96 148.112 113.181 147.925 112.488 147.552C111.795 147.179 111.251 146.661 110.856 146C110.472 145.328 110.28 144.571 110.28 143.728C110.28 142.885 110.472 142.133 110.856 141.472C111.251 140.811 111.795 140.293 112.488 139.92C113.181 139.547 113.96 139.36 114.824 139.36C115.699 139.36 116.483 139.547 117.176 139.92C117.869 140.293 118.408 140.811 118.792 141.472C119.187 142.133 119.384 142.885 119.384 143.728C119.384 144.571 119.187 145.328 118.792 146C118.408 146.661 117.869 147.179 117.176 147.552C116.483 147.925 115.699 148.112 114.824 148.112ZM114.824 146.4C115.56 146.4 116.168 146.155 116.648 145.664C117.128 145.173 117.368 144.528 117.368 143.728C117.368 142.928 117.128 142.283 116.648 141.792C116.168 141.301 115.56 141.056 114.824 141.056C114.088 141.056 113.48 141.301 113 141.792C112.531 142.283 112.296 142.928 112.296 143.728C112.296 144.528 112.531 145.173 113 145.664C113.48 146.155 114.088 146.4 114.824 146.4ZM124.768 137.632C123.926 137.632 123.504 138.091 123.504 139.008V139.52H125.856V141.12H123.568V148H121.568V141.12H120.16V139.52H121.568V138.976C121.568 138.059 121.835 137.339 122.368 136.816C122.902 136.283 123.654 136.016 124.624 136.016C125.392 136.016 125.995 136.171 126.432 136.48L125.872 137.984C125.531 137.749 125.163 137.632 124.768 137.632ZM139.268 139.36C140.345 139.36 141.199 139.675 141.828 140.304C142.457 140.923 142.772 141.856 142.772 143.104V148H140.772V143.36C140.772 142.613 140.607 142.053 140.276 141.68C139.945 141.296 139.471 141.104 138.852 141.104C138.18 141.104 137.641 141.328 137.236 141.776C136.831 142.213 136.628 142.843 136.628 143.664V148H134.628V143.36C134.628 142.613 134.463 142.053 134.132 141.68C133.801 141.296 133.327 141.104 132.708 141.104C132.025 141.104 131.481 141.323 131.076 141.76C130.681 142.197 130.484 142.832 130.484 143.664V148H128.484V139.456H130.388V140.544C130.708 140.16 131.108 139.867 131.588 139.664C132.068 139.461 132.601 139.36 133.188 139.36C133.828 139.36 134.393 139.483 134.884 139.728C135.385 139.963 135.78 140.315 136.068 140.784C136.42 140.336 136.873 139.989 137.428 139.744C137.983 139.488 138.596 139.36 139.268 139.36ZM148.592 139.36C149.85 139.36 150.81 139.664 151.472 140.272C152.144 140.869 152.48 141.776 152.48 142.992V148H150.592V146.96C150.346 147.333 149.994 147.621 149.536 147.824C149.088 148.016 148.544 148.112 147.904 148.112C147.264 148.112 146.704 148.005 146.224 147.792C145.744 147.568 145.37 147.264 145.104 146.88C144.848 146.485 144.72 146.043 144.72 145.552C144.72 144.784 145.002 144.171 145.568 143.712C146.144 143.243 147.045 143.008 148.272 143.008H150.48V142.88C150.48 142.283 150.298 141.824 149.936 141.504C149.584 141.184 149.056 141.024 148.352 141.024C147.872 141.024 147.397 141.099 146.928 141.248C146.469 141.397 146.08 141.605 145.76 141.872L144.976 140.416C145.424 140.075 145.962 139.813 146.592 139.632C147.221 139.451 147.888 139.36 148.592 139.36ZM148.32 146.656C148.821 146.656 149.264 146.544 149.648 146.32C150.042 146.085 150.32 145.755 150.48 145.328V144.336H148.416C147.264 144.336 146.688 144.715 146.688 145.472C146.688 145.835 146.832 146.123 147.12 146.336C147.408 146.549 147.808 146.656 148.32 146.656ZM159.894 139.36C160.972 139.36 161.836 139.675 162.486 140.304C163.137 140.933 163.462 141.867 163.462 143.104V148H161.462V143.36C161.462 142.613 161.286 142.053 160.934 141.68C160.582 141.296 160.081 141.104 159.43 141.104C158.694 141.104 158.113 141.328 157.686 141.776C157.26 142.213 157.046 142.848 157.046 143.68V148H155.046V139.456H156.95V140.56C157.281 140.165 157.697 139.867 158.198 139.664C158.7 139.461 159.265 139.36 159.894 139.36ZM170.848 139.36C171.925 139.36 172.789 139.675 173.44 140.304C174.09 140.933 174.416 141.867 174.416 143.104V148H172.416V143.36C172.416 142.613 172.24 142.053 171.888 141.68C171.536 141.296 171.034 141.104 170.384 141.104C169.648 141.104 169.066 141.328 168.64 141.776C168.213 142.213 168 142.848 168 143.68V148H166V139.456H167.904V140.56C168.234 140.165 168.65 139.867 169.152 139.664C169.653 139.461 170.218 139.36 170.848 139.36Z" fill="black"/>
<path opacity="0.4" d="M83.5103 62.375H37.9595V106.786H83.5103V62.375Z" fill="#FC542D" stroke="#FC542D" stroke-miterlimit="10"/>
<path opacity="0.4" d="M139.257 62.375H93.7061V106.786H139.257V62.375Z" fill="#F9DC08" stroke="#F9DC08" stroke-miterlimit="10"/>
<path opacity="0.4" d="M195 106.772H149.449V62.375H157.72H195V106.772Z" fill="#088DF9" stroke="#088DF9" stroke-miterlimit="10"/>
<path d="M80.5508 59.3843H35V103.796H80.5508V59.3843Z" fill="#F9F0D4" stroke="#FC542D" stroke-miterlimit="10"/>
<path d="M136.294 59.3843H90.7432V103.796H136.294V59.3843Z" fill="#F9F0D4" stroke="#F9DC08" stroke-miterlimit="10"/>
<path d="M192.041 103.796H146.49V59.3843H154.761H192.041V103.796Z" fill="#F9F0D4" stroke="#088DF9" stroke-miterlimit="10"/>
<path d="M96.5875 73.8607C97.6497 73.4825 98.7683 73.2765 99.8989 73.2507C102.173 73.2507 102.646 74.2922 104.141 73.9649C105.972 73.5631 106.049 72.0307 107.651 71.8224C108.856 71.6587 109.436 72.4622 111.588 73.6822C115.25 75.7354 117.402 75.5419 117.433 76.3751C117.463 77.2083 114.67 78.5474 112.061 78.7259C110.047 78.8747 109.36 78.3093 105.957 77.8034C105.072 77.6844 104.782 77.6695 100.753 77.3868C92.4521 76.7917 91.4449 76.6876 91.3839 76.3007C91.1855 75.4229 96.0229 74.0244 96.5875 73.8607Z" fill="#F9DC08"/>
<path d="M131.595 94.3479C130.548 94.6101 129.472 94.7499 128.39 94.7645C126.193 94.7645 125.75 94.0503 124.301 94.2735C122.531 94.5413 122.454 95.5976 120.913 95.7613C119.738 95.8654 119.189 95.315 117.098 94.4818C113.558 93.0683 111.482 93.2023 111.452 92.622C111.421 92.0418 114.122 91.1342 116.64 91.0151C118.644 91.0689 120.639 91.2829 122.607 91.6549C123.461 91.7442 123.736 91.7442 127.643 91.9376C135.654 92.3393 136.631 92.4137 136.692 92.6815C136.829 93.2766 132.129 94.2289 131.595 94.3479Z" fill="#F9DC08"/>
<path d="M96.1153 74.6644C97.1732 74.2707 98.2945 74.0642 99.4267 74.0544C101.7 74.0544 102.158 75.081 103.654 74.7537C105.5 74.3668 105.561 72.8344 107.163 72.6261C108.384 72.4624 108.949 73.2659 111.101 74.471C114.763 76.5242 116.915 76.3308 116.945 77.1788C116.976 78.0269 114.198 79.351 111.589 79.5296C109.559 79.6783 108.873 79.113 105.409 78.6071C104.524 78.4732 104.249 78.4583 100.205 78.1756C91.9036 77.5954 90.8964 77.4913 90.8354 77.0896C90.6981 76.1522 95.5049 74.7983 96.1153 74.6644Z" fill="#DDB407"/>
<path d="M108.111 99.9572C109.349 100.221 110.612 100.361 111.88 100.374C114.459 100.374 114.932 99.6597 116.687 99.8828C118.777 100.166 118.854 101.207 120.67 101.371C122.058 101.475 122.699 100.924 125.156 100.091C129.307 98.6926 131.748 98.8265 131.794 98.2462C131.84 97.666 128.742 96.7584 125.69 96.6245C123.344 96.6924 121.004 96.9061 118.686 97.2643C117.679 97.3535 117.358 97.3536 112.765 97.5618C103.334 97.9636 102.175 98.0379 102.083 98.3058C101.961 98.8116 107.47 99.7787 108.111 99.9572Z" fill="#DDB407"/>
<path d="M131.107 95.1067C130.065 95.3737 128.994 95.5186 127.917 95.5382C125.72 95.5382 125.262 94.824 123.812 95.0472C122.042 95.315 121.981 96.3565 120.425 96.535C119.25 96.654 118.7 96.1035 116.61 95.2704C113.085 93.8569 111.009 93.9908 110.963 93.4106C110.918 92.8303 113.634 91.9227 116.152 91.8037C118.155 91.8573 120.15 92.0663 122.118 92.4286C122.973 92.5179 123.248 92.5328 127.154 92.7262C135.181 93.1279 136.158 93.2023 136.219 93.4701C136.341 94.0057 131.656 95.0025 131.107 95.1067Z" fill="#DDB407"/>
<path d="M120.561 73.5485C119.514 73.8107 118.438 73.9506 117.357 73.9651C115.159 73.9651 114.717 73.251 113.267 73.4742C111.482 73.7568 111.421 74.7983 109.879 74.962C108.704 75.0661 108.155 74.5156 106.064 73.6824C102.524 72.2839 100.449 72.4178 100.418 71.8375C100.388 71.2573 103.089 70.3497 105.607 70.2158C107.609 70.2846 109.603 70.4984 111.573 70.8556C112.428 70.9448 112.702 70.9449 116.609 71.1532C124.62 71.5549 125.597 71.6293 125.658 71.8971C125.795 72.4773 121.111 73.4295 120.561 73.5485Z" fill="#DDB407"/>
<path d="M119.342 82.3117C118.295 82.574 117.219 82.7138 116.137 82.7283C113.94 82.7283 113.498 82.0142 112.048 82.2373C110.262 82.52 110.201 83.5615 108.66 83.7251C107.485 83.8293 106.936 83.2788 104.845 82.4456C101.305 81.0471 99.2295 81.181 99.199 80.6007C99.1685 80.0205 101.869 79.1129 104.387 78.979C106.39 79.0401 108.385 79.254 110.354 79.6188C111.209 79.708 111.483 79.708 115.39 79.9163C123.401 80.318 124.378 80.3775 124.439 80.6454C124.576 81.2405 119.922 82.1927 119.342 82.3117Z" fill="#DDB407"/>
<path d="M119.831 81.538C118.785 81.8076 117.708 81.9475 116.626 81.9546C114.429 81.9546 113.986 81.2405 112.521 81.4785C110.751 81.7463 110.69 82.7878 109.134 82.9663C107.959 83.0854 107.409 82.5349 105.334 81.7017C101.794 80.2883 99.7183 80.4222 99.6878 79.8419C99.6572 79.2617 102.343 78.3541 104.876 78.2202C106.873 78.2892 108.863 78.503 110.827 78.86C111.682 78.9492 111.957 78.9641 115.863 79.1575C123.89 79.5592 124.867 79.6336 124.928 79.9014C125.05 80.4668 120.365 81.4339 119.831 81.538Z" fill="#F9DC08"/>
<path d="M108.584 99.1091C109.823 99.3754 111.086 99.52 112.354 99.5406C114.932 99.5406 115.406 98.8265 117.176 99.0496C119.266 99.3174 119.343 100.359 121.158 100.537C122.532 100.656 123.188 100.106 125.645 99.2728C129.796 97.8594 132.237 97.9933 132.283 97.413C132.329 96.8328 129.139 95.9252 126.179 95.8062C123.827 95.8601 121.482 96.0689 119.159 96.4311C118.168 96.5203 117.832 96.5352 113.239 96.7286C103.808 97.1303 102.663 97.2047 102.557 97.4725C102.435 98.0528 107.959 99.005 108.584 99.1091Z" fill="#F9DC08"/>
<path d="M121.05 72.7749C120.004 73.0444 118.927 73.1844 117.845 73.1915C115.648 73.1915 115.206 72.4922 113.741 72.7154C111.97 72.9832 111.909 74.0246 110.353 74.2032C109.178 74.3222 108.628 73.7717 106.553 72.9385C103.013 71.5251 100.938 71.659 100.907 71.0788C100.876 70.4985 103.562 69.5909 106.095 69.457C108.093 69.526 110.082 69.7398 112.047 70.0968C112.901 70.1861 113.176 70.2009 117.082 70.3944C125.109 70.7961 126.086 70.8705 126.147 71.1383C126.269 71.6888 121.584 72.6707 121.05 72.7749Z" fill="#F9DC08"/>
<path d="M93.6131 101.326C94.1344 101.525 94.6866 101.635 95.2459 101.653C96.3752 101.653 96.6041 101.103 97.3518 101.266C98.0995 101.43 98.2827 102.293 99.0762 102.397C99.8697 102.501 99.9612 102.07 101.029 101.43C102.845 100.344 103.898 100.448 103.929 99.9421C103.959 99.4363 102.555 98.7965 101.274 98.6924C100.24 98.7401 99.216 98.9049 98.2216 99.1834C97.7791 99.2578 97.6417 99.2578 95.6427 99.4066C91.5378 99.719 91.0647 99.7785 91.0647 99.9868C90.9274 100.508 93.3385 101.237 93.6131 101.326Z" fill="#F9DC08"/>
<path d="M110.933 90.5246C110.434 90.3942 109.922 90.3193 109.407 90.3014C108.323 90.3014 108.094 90.6883 107.377 90.5692C106.66 90.4502 106.477 89.87 105.698 89.7956C104.92 89.7212 104.844 90.0187 103.821 90.4651C102.067 91.209 101.044 91.1346 101.029 91.447C101.014 91.7595 102.341 92.2207 103.593 92.2951C104.582 92.2619 105.568 92.1474 106.538 91.9529C106.965 91.9529 107.102 91.9529 109.04 91.8041C112.993 91.5958 113.481 91.5512 113.512 91.4173C113.542 91.2834 111.192 90.5841 110.933 90.5246Z" fill="#F9DC08"/>
<path d="M93.3678 100.924C93.8928 101.127 94.4515 101.233 95.0159 101.237C96.1299 101.237 96.3588 100.701 97.1065 100.865C97.8543 101.029 98.0526 101.877 98.8462 101.996C99.6397 102.115 99.7312 101.653 100.799 101.014C102.6 99.9276 103.668 100.032 103.684 99.5259C103.699 99.02 102.325 98.3803 101.028 98.291C99.9949 98.3387 98.9707 98.5035 97.9763 98.782C97.5338 98.8564 97.3965 98.8564 95.3974 99.0051C91.2925 99.3176 90.8194 99.3771 90.8194 99.5705C90.6974 100.106 93.0932 100.835 93.3678 100.924Z" fill="#DDB407"/>
<path d="M110.766 90.1228C110.267 89.9915 109.755 89.9165 109.24 89.8996C108.156 89.8996 107.943 90.2715 107.225 90.1525C106.508 90.0335 106.31 89.4681 105.547 89.3937C104.784 89.3193 104.692 89.6169 103.655 90.0633C101.915 90.8072 100.877 90.7328 100.862 91.0303C100.847 91.3279 102.174 91.8189 103.426 91.8932C104.42 91.8526 105.41 91.7382 106.386 91.5511C106.798 91.5511 106.935 91.5511 108.873 91.4023C112.841 91.1791 113.329 91.1494 113.345 91.0006C113.36 90.8518 110.964 90.1823 110.766 90.1228Z" fill="#DDB407"/>
<path d="M105.47 101.445C104.971 101.315 104.459 101.24 103.944 101.222C102.86 101.222 102.647 101.609 101.914 101.49C101.182 101.371 101.014 100.79 100.251 100.716C99.4878 100.642 99.3963 100.939 98.3586 101.385C96.6037 102.129 95.5813 102.055 95.566 102.353C95.5508 102.65 96.8784 103.141 98.1297 103.216C99.124 103.175 100.114 103.06 101.09 102.873C101.502 102.873 101.639 102.873 103.577 102.725C107.545 102.501 108.018 102.472 108.049 102.323C108.079 102.174 105.744 101.549 105.47 101.445Z" fill="#DDB407"/>
<path d="M105.103 97.2792C104.605 97.1487 104.093 97.0738 103.577 97.056C102.494 97.056 102.28 97.4279 101.563 97.3089C100.846 97.1899 100.647 96.6245 99.8841 96.5353C99.1211 96.446 99.0296 96.7733 97.9919 97.2048C96.237 97.9487 95.2146 97.8892 95.1993 98.1867C95.1841 98.4843 96.5117 98.9753 97.763 99.0348C98.7576 99.0086 99.7481 98.8991 100.723 98.7075C101.135 98.7075 101.273 98.7074 103.211 98.5438C107.178 98.3355 107.651 98.3058 107.682 98.157C107.712 98.0082 105.378 97.3387 105.103 97.2792Z" fill="#F9DC08"/>
<path d="M105.714 101.891C105.215 101.761 104.704 101.686 104.188 101.668C103.104 101.668 102.876 102.055 102.158 101.936C101.441 101.817 101.243 101.237 100.48 101.162C99.7167 101.088 99.6252 101.385 98.6027 101.832C96.8479 102.576 95.8254 102.501 95.8102 102.814C95.7949 103.126 97.1225 103.602 98.3739 103.662C99.3637 103.629 100.349 103.514 101.319 103.32C101.746 103.32 101.884 103.32 103.806 103.171C107.774 102.963 108.262 102.918 108.293 102.784C108.323 102.65 105.973 101.951 105.714 101.891Z" fill="#F9DC08"/>
<path d="M130.344 70.3943C129.886 70.2445 129.407 70.1691 128.924 70.1711C127.948 70.1711 127.749 70.5579 127.108 70.4389C126.468 70.3199 126.284 69.7099 125.582 69.6355C124.881 69.5611 124.819 69.8735 123.889 70.3199C122.363 71.0935 121.386 71.0192 121.371 71.3316C121.355 71.6441 122.561 72.1499 123.675 72.2094C124.57 72.1841 125.459 72.0695 126.33 71.8672C126.712 71.8672 126.834 71.8672 128.573 71.7036C132.144 71.4804 132.572 71.4506 132.602 71.3018C132.633 71.153 130.603 70.4538 130.344 70.3943Z" fill="#F9DC08"/>
<path d="M119.921 67.3889C120.462 67.2386 121.022 67.1635 121.584 67.1657C122.744 67.1657 122.973 67.5526 123.736 67.4186C124.499 67.2847 124.697 66.7045 125.506 66.6301C126.315 66.5557 126.406 66.8681 127.49 67.3145C129.351 68.0882 130.435 68.0138 130.45 68.3262C130.465 68.6386 129.061 69.1296 127.734 69.204C126.709 69.1608 125.69 69.0465 124.682 68.8618C124.239 68.8618 124.087 68.8618 122.042 68.6981C117.845 68.475 117.342 68.4452 117.311 68.2965C117.281 68.1477 119.616 67.4484 119.921 67.3889Z" fill="#DDB407"/>
<path d="M130.129 69.9778C129.671 69.8279 129.192 69.7526 128.71 69.7546C127.733 69.7546 127.535 70.1414 126.894 70.0075C126.253 69.8736 126.07 69.2934 125.368 69.219C124.666 69.1446 124.605 69.457 123.674 69.9034C122.148 70.677 121.171 70.6027 121.156 70.9151C121.141 71.2275 122.346 71.7185 123.46 71.7929C124.354 71.7523 125.242 71.6379 126.115 71.4507C126.497 71.4507 126.619 71.4507 128.359 71.2871C131.929 71.0639 132.357 71.0341 132.387 70.8853C132.418 70.7365 130.373 70.0373 130.129 69.9778Z" fill="#DDB407"/>
<path d="M120.12 67.8054C120.661 67.6552 121.221 67.58 121.784 67.5822C122.944 67.5822 123.172 67.9691 123.935 67.8352C124.698 67.7013 124.897 67.121 125.706 67.0466C126.514 66.9722 126.606 67.2846 127.705 67.731C129.551 68.5047 130.635 68.4303 130.65 68.7427C130.665 69.0551 129.261 69.5461 127.934 69.6205C126.909 69.5773 125.889 69.463 124.882 69.2783C124.439 69.2783 124.286 69.2783 122.242 69.1147C118.06 68.8915 117.542 68.8617 117.511 68.713C117.481 68.5642 119.831 67.8649 120.12 67.8054Z" fill="#F9DC08"/>
<path d="M115.433 74.5751C114.915 74.7537 115.006 74.8281 114.38 75.0513C113.521 75.3102 112.624 75.4308 111.725 75.4083C109.97 75.4083 109.467 75.2744 109.36 75.5125C109.253 75.7505 110.031 76.7622 111.069 77.0003C111.74 77.1491 112.198 76.9259 113.251 76.6283C114.302 76.3185 115.38 76.1043 116.471 75.9886C118.806 75.8101 120.24 76.8218 120.454 76.4498C120.667 76.0779 119.767 75.2446 118.836 74.7834C117.772 74.2894 116.553 74.2148 115.433 74.5751Z" fill="#FFF097"/>
<path d="M115.527 78.1008C115.023 78.3537 115.176 78.7852 114.581 79.3059C113.619 80.1391 112.353 79.7969 112.292 80.1391C112.231 80.4813 113.207 81.1359 114.092 80.9723C114.978 80.8086 115.145 79.5589 116.381 79.1125C117.617 78.6662 118.304 79.291 118.365 79.1125C118.426 78.934 116.58 77.5503 115.527 78.1008Z" fill="#FFF097"/>
<path d="M97.0304 78.9344C98.709 78.6518 99.3194 78.7857 100.449 78.5625C102.097 78.2649 101.883 77.774 103.195 77.5508C104.896 77.5625 106.577 77.9065 108.14 78.5625C110.291 79.232 110.505 79.4105 110.505 79.5891C110.505 80.1247 108.75 80.7793 107.087 80.8835C105.423 80.9876 105.271 80.5115 103.775 80.6008C101.898 80.7198 101.73 81.4786 100.159 81.6274C97.6103 81.8506 95.0771 80.1396 95.2297 79.4998C95.2297 79.2469 95.8248 79.1279 97.0304 78.9344Z" fill="#F2DC72"/>
<path d="M115.496 74.9615C114.977 75.1252 115.069 75.2145 114.443 75.4228C113.586 75.6894 112.688 75.8151 111.788 75.7947C110.033 75.7947 109.53 75.6459 109.423 75.884C109.316 76.122 110.094 77.1338 111.132 77.3718C111.803 77.5206 112.261 77.2974 113.314 76.9998C114.366 76.6903 115.443 76.4712 116.534 76.3452C118.869 76.1667 120.303 77.1784 120.517 76.8064C120.73 76.4345 119.83 75.6013 118.899 75.1401C117.831 74.6558 116.612 74.5919 115.496 74.9615Z" fill="#F2DC72"/>
<path d="M115.586 78.4733C115.083 78.7262 115.235 79.1577 114.64 79.6784C113.679 80.5116 112.412 80.1842 112.351 80.5116C112.29 80.8389 113.267 81.5084 114.167 81.3447C115.068 81.1811 115.205 79.9313 116.441 79.4999C117.677 79.0684 118.364 79.6635 118.425 79.4999C118.486 79.3362 116.639 77.9228 115.586 78.4733Z" fill="#F2DC72"/>
<path d="M123.506 76.3157L122.484 76.9257C121.248 77.6845 121.172 77.744 120.958 77.7738C120.088 77.9226 119.615 77.3274 119.234 77.625C119.084 77.7654 118.99 77.9526 118.968 78.1539C118.945 78.3552 118.996 78.5577 119.112 78.726C119.112 78.8153 119.417 79.0236 121.462 78.726C121.959 78.5872 122.471 78.5073 122.988 78.488C123.796 78.5623 124.04 78.9194 124.742 78.8748C125.444 78.8301 125.338 78.6218 125.963 78.4135C127.108 78.0416 127.489 78.5623 129.183 78.3392C130.404 78.1755 130.709 77.8333 130.709 77.7292C130.836 77.5553 130.904 77.3473 130.904 77.134C130.904 76.9207 130.836 76.7127 130.709 76.5389C130.328 76.2265 129.732 76.7472 128.512 76.8513C127.866 76.8511 127.221 76.7863 126.589 76.6579C124.681 76.3306 124.254 76.033 123.506 76.3157Z" fill="#F2DC72"/>
<path d="M96.9259 78.3095C98.6045 78.0119 99.1996 78.1607 100.344 77.9375C101.992 77.6251 101.779 77.149 103.091 76.9258C104.792 76.9375 106.473 77.2816 108.035 77.9375C110.187 78.5922 110.4 78.7707 110.4 78.9641C110.4 79.4997 108.645 80.1544 106.982 80.2585C105.319 80.3627 105.166 79.8866 103.655 79.9758C101.794 80.0949 101.626 80.8536 100.054 80.9875C97.5058 81.2256 94.9726 79.4997 95.1252 78.86C95.171 78.6219 95.7661 78.5178 96.9259 78.3095Z" fill="#FFF097"/>
<path d="M123.447 75.8098L122.424 76.4199C121.188 77.1786 121.112 77.2382 120.898 77.2679C120.029 77.4167 119.556 76.8216 119.174 77.1191C119.024 77.2595 118.93 77.4467 118.908 77.648C118.886 77.8493 118.937 78.0518 119.052 78.2201C119.052 78.3094 119.357 78.5177 121.402 78.2201C121.899 78.0814 122.411 78.0014 122.928 77.9821C123.737 78.0565 123.981 78.4135 124.683 78.3689C125.385 78.3243 125.263 78.116 125.904 77.9077C127.048 77.5357 127.43 78.0565 129.123 77.8333C130.344 77.6696 130.649 77.3274 130.649 77.2233C130.776 77.0495 130.844 76.8415 130.844 76.6282C130.844 76.4149 130.776 76.2069 130.649 76.0331C130.268 75.7206 129.673 76.2413 128.452 76.3455C127.806 76.3459 127.162 76.2811 126.529 76.1521C124.607 75.8247 124.195 75.5272 123.447 75.8098Z" fill="#FFF097"/>
<path d="M132.769 65.916C133.059 66.1392 132.983 66.5111 133.334 66.9723C133.898 67.7013 134.646 67.4038 134.677 67.7014C134.622 67.9299 134.483 68.1306 134.286 68.2651C134.088 68.3997 133.847 68.4585 133.608 68.4304C132.998 68.2519 132.998 67.1955 132.265 66.8087C131.533 66.4218 131.121 66.9575 131.09 66.8087C131.06 66.6599 132.128 65.425 132.769 65.916Z" fill="#F9E258"/>
<path d="M132.785 63.1636C133.09 63.3123 133.044 63.3719 133.41 63.5653C133.888 63.7824 134.409 63.8942 134.936 63.8926C135.974 63.8926 136.279 63.7587 136.34 63.967C136.401 64.1753 135.943 65.068 135.333 65.2614C134.723 65.4548 134.662 65.2614 134.036 64.949C133.429 64.6749 132.788 64.4798 132.128 64.3687C130.74 64.2199 129.885 65.1126 129.763 64.7853C129.641 64.458 130.175 63.7289 130.725 63.2975C131.019 63.0847 131.369 62.959 131.734 62.9353C132.1 62.9115 132.464 62.9908 132.785 63.1636Z" fill="#F2DC72"/>
<path d="M132.74 66.2429C133.03 66.4661 132.938 66.838 133.289 67.2992C133.869 68.0283 134.617 67.7456 134.648 68.0283C134.596 68.2585 134.458 68.4613 134.26 68.5964C134.062 68.7315 133.819 68.7889 133.579 68.7573C132.954 68.5788 132.954 67.5224 132.221 67.1356C131.489 66.7488 131.092 67.2844 131.046 67.1356C131 66.9868 132.13 65.737 132.74 66.2429Z" fill="#F2DC72"/>
<path d="M128.04 64.3535L128.651 64.8891C129.383 65.5438 129.429 65.5884 129.551 65.633C130.07 65.7521 130.345 65.2462 130.573 65.4843C130.653 65.6364 130.694 65.8047 130.694 65.9753C130.694 66.1459 130.653 66.314 130.573 66.4662C130.573 66.5406 130.39 66.7192 129.17 66.4662C128.498 66.3026 128.498 66.2282 128.269 66.2579C127.781 66.2579 127.644 66.6299 127.216 66.6001C126.789 66.5704 126.881 66.377 126.499 66.1984C125.828 65.8711 125.568 66.3175 124.592 66.1241C123.874 65.9901 123.737 65.6777 123.691 65.5884C123.615 65.4248 123.576 65.2472 123.576 65.0677C123.576 64.8881 123.615 64.7106 123.691 64.547C123.92 64.2792 124.271 64.7255 125.004 64.8148C125.387 64.8209 125.768 64.7656 126.133 64.6511C127.354 64.3684 127.552 64.1006 128.04 64.3535Z" fill="#F2DC72"/>
<path d="M128.072 63.9072L128.682 64.4429C129.414 65.0975 129.46 65.1422 129.582 65.1868C130.101 65.3058 130.376 64.8 130.605 65.0529C130.688 65.2013 130.731 65.3675 130.731 65.5364C130.731 65.7053 130.688 65.8716 130.605 66.02C130.605 66.0944 130.422 66.2878 129.216 66.02C128.529 65.8563 128.529 65.7819 128.3 65.8116C127.827 65.8116 127.675 66.1836 127.263 66.1539C126.851 66.1241 126.912 65.9307 126.546 65.7522C125.859 65.4248 125.615 65.8712 124.638 65.6777C123.921 65.5438 123.768 65.2463 123.723 65.1422C123.646 64.9788 123.606 64.8011 123.606 64.6214C123.606 64.4417 123.646 64.264 123.723 64.1007C123.936 63.8329 124.287 64.2792 125.02 64.3685C125.408 64.3741 125.794 64.3189 126.164 64.2048C127.385 63.9221 127.644 63.6543 128.072 63.9072Z" fill="#F9E258"/>
<path d="M132.831 62.7617C133.136 62.9105 133.075 62.9848 133.441 63.1634C133.915 63.3924 134.438 63.5048 134.967 63.4907C136.005 63.4907 136.31 63.3717 136.371 63.58C136.432 63.7883 135.974 64.681 135.364 64.8744C134.753 65.0678 134.692 64.8744 134.067 64.5471C133.457 64.2842 132.816 64.0943 132.159 63.9817C130.77 63.8329 129.931 64.7107 129.794 64.3834C129.656 64.0561 130.206 63.327 130.755 62.8956C131.052 62.6816 131.405 62.5552 131.773 62.5314C132.141 62.5077 132.508 62.5876 132.831 62.7617Z" fill="#F9E258"/>
<path d="M97.9164 68.2222C97.6723 68.3412 97.718 68.4007 97.4128 68.5495C97.0032 68.7386 96.5535 68.8304 96.1005 68.8173C95.2459 68.8173 94.9865 68.7132 94.9407 68.8173C94.895 68.9215 95.2765 69.7249 95.78 69.8737C96.2836 70.0224 96.3294 69.8736 96.8482 69.6207C97.334 69.4024 97.847 69.2474 98.3742 69.1595C99.5187 69.0256 100.221 69.7546 100.327 69.4868C100.434 69.219 99.9918 68.6239 99.534 68.2966C99.2987 68.1374 99.0222 68.0461 98.7361 68.0329C98.4501 68.0197 98.166 68.0854 97.9164 68.2222Z" fill="#F2DC72"/>
<path d="M102.097 69.189L101.593 69.6354C100.983 70.171 100.952 70.2007 100.846 70.2305C100.418 70.3346 100.189 69.9181 99.9911 70.1264C99.9229 70.2472 99.8872 70.3828 99.8872 70.5206C99.8872 70.6585 99.9229 70.7941 99.9911 70.9149C99.9911 70.9149 100.144 71.1232 101.151 70.9149C101.715 70.781 101.715 70.7364 101.899 70.7512C102.311 70.7512 102.417 71.0637 102.768 71.0339C103.119 71.0042 103.058 70.8405 103.363 70.6917C103.928 70.4388 104.142 70.7959 104.889 70.6917C105.637 70.5876 105.607 70.3346 105.637 70.2454C105.698 70.1119 105.73 69.9674 105.73 69.8213C105.73 69.6752 105.698 69.5308 105.637 69.3973C105.454 69.189 105.164 69.5461 104.554 69.6205C104.233 69.6246 103.914 69.5794 103.608 69.4866C102.662 69.2039 102.463 68.9956 102.097 69.189Z" fill="#F2DC72"/>
<path d="M101.822 68.8319L101.319 69.2634C100.708 69.799 100.678 69.8436 100.571 69.8734C100.144 69.9775 99.9148 69.5609 99.7317 69.7544C99.6636 69.8778 99.6279 70.0158 99.6279 70.1561C99.6279 70.2963 99.6636 70.4343 99.7317 70.5577C99.7317 70.5577 99.8843 70.766 100.891 70.5577C101.441 70.4238 101.441 70.3644 101.639 70.3941C101.838 70.4239 102.158 70.6917 102.509 70.6619C102.86 70.6321 102.784 70.4834 103.104 70.3346C103.669 70.0668 103.867 70.4387 104.63 70.3346C105.393 70.2304 105.347 69.9775 105.393 69.9031C105.458 69.7707 105.492 69.6259 105.492 69.4791C105.492 69.3324 105.458 69.1875 105.393 69.0551C105.21 68.8319 104.92 69.2039 104.325 69.2782C104.004 69.2823 103.685 69.2372 103.379 69.1443C102.402 68.8468 102.189 68.6236 101.822 68.8319Z" fill="#F9E258"/>
<path d="M97.8866 67.9541C97.6425 68.0731 97.6883 68.1326 97.3831 68.2814C96.9734 68.4705 96.5237 68.5623 96.0707 68.5493C95.2161 68.5493 94.9567 68.4451 94.911 68.5493C94.8652 68.6534 95.2467 69.4419 95.7502 69.6056C96.2538 69.7693 96.2996 69.6056 96.8184 69.3378C97.3091 69.1324 97.8206 68.9778 98.3444 68.8765C99.4889 68.7575 100.191 69.4717 100.298 69.2187C100.405 68.9658 99.962 68.3558 99.5042 68.0285C99.2689 67.8694 98.9924 67.778 98.7064 67.7648C98.4203 67.7517 98.1362 67.8173 97.8866 67.9541Z" fill="#F9E258"/>
<path d="M134.587 91.9973C133.213 92.3246 132.71 92.1758 131.779 92.4139C130.421 92.771 130.604 93.3214 129.505 93.5744C128.681 93.7678 127.582 93.3214 125.446 92.4139C123.661 91.67 123.493 91.4617 123.493 91.2534C123.493 90.6434 125.019 89.8995 126.301 89.7656C127.582 89.6317 127.826 90.1821 129.047 90.078C130.573 89.9441 130.726 89.0811 132.008 88.9175C134.114 88.6497 136.189 90.6136 136.082 91.3426C136.036 91.6551 135.548 91.7592 134.587 91.9973Z" fill="#F2DC72"/>
<path d="M112.733 94.9728L113.573 94.2735C114.595 93.4255 114.656 93.366 114.839 93.3213C115.556 93.1577 115.938 93.8123 116.258 93.4999C116.385 93.315 116.46 93.1011 116.476 92.8794C116.492 92.6576 116.449 92.4356 116.35 92.2352C116.35 92.1311 116.106 91.893 114.412 92.2352C113.481 92.4435 113.481 92.5328 113.161 92.4882C112.489 92.4138 112.275 92.012 111.635 92.0567C110.994 92.1013 111.161 92.3394 110.643 92.5774C109.697 93.0089 109.346 92.4138 107.987 92.6667C106.98 92.8452 106.782 93.2321 106.721 93.366C106.614 93.5736 106.558 93.8029 106.558 94.0355C106.558 94.268 106.614 94.4973 106.721 94.705C107.041 95.0621 107.53 94.4818 108.537 94.3628C109.054 94.361 109.569 94.4363 110.063 94.586C111.772 94.958 112.123 95.2852 112.733 94.9728Z" fill="#F2DC72"/>
<path d="M134.646 92.7114C133.258 93.0387 132.769 92.8899 131.823 93.128C130.465 93.4851 130.648 94.0356 129.565 94.2885C128.725 94.4819 127.642 94.0356 125.49 93.128C123.72 92.3841 123.537 92.1758 123.537 91.9675C123.537 91.3575 124.987 90.6136 126.36 90.4797C127.734 90.3458 127.886 90.9111 129.092 90.807C130.618 90.6731 130.77 89.8102 132.067 89.6465C134.158 89.3787 136.249 91.3426 136.127 92.0568C136.081 92.3692 135.608 92.518 134.646 92.7114Z" fill="#FFF097"/>
<path d="M112.795 95.4937C112.795 95.4937 113.085 95.2556 113.635 94.7944C114.657 93.9315 114.718 93.872 114.886 93.8422C115.603 93.6637 115.985 94.3332 116.305 94.0059C116.434 93.8252 116.512 93.6145 116.531 93.395C116.55 93.1755 116.509 92.9551 116.412 92.7561C116.412 92.652 116.152 92.4139 114.474 92.7561C113.528 92.9793 113.528 93.0685 113.207 93.0239C112.536 93.0239 112.337 92.5329 111.758 92.5924C111.178 92.6519 111.269 92.8751 110.75 93.1132C109.804 93.5297 109.453 92.9495 108.095 93.2024C107.103 93.381 106.89 93.7678 106.844 93.8869C106.734 94.0964 106.677 94.3284 106.677 94.5638C106.677 94.7992 106.734 95.0311 106.844 95.2407C107.149 95.5978 107.637 95.0176 108.645 94.8986C109.161 94.8959 109.675 94.9661 110.171 95.1068C111.834 95.4937 112.17 95.8656 112.795 95.4937Z" fill="#FFF097"/>
<path d="M96.6804 97.5022C96.1616 97.3386 96.2531 97.2642 95.6275 97.0559C94.7668 96.8033 93.871 96.6829 92.9723 96.6988C91.2174 96.6988 90.7138 96.8327 90.607 96.6095C90.5002 96.3864 91.2784 95.3895 92.3161 95.1217C93.0641 95.062 93.8154 95.1901 94.4983 95.4937C95.5518 95.7889 96.6288 95.998 97.7181 96.1186C100.068 96.2822 101.503 95.3002 101.701 95.6722C101.899 96.0442 101.014 96.8327 100.099 97.2791C99.0318 97.782 97.8065 97.862 96.6804 97.5022Z" fill="#FFF097"/>
<path d="M93.8734 94.2739C93.3851 94.0358 93.5225 93.6193 92.9273 93.1134C91.966 92.2951 90.7146 92.6224 90.6536 92.31C90.5926 91.9975 91.5692 91.328 92.4543 91.4917C93.3393 91.6553 93.4919 92.8605 94.728 93.2919C95.964 93.7234 96.666 93.1283 96.727 93.2919C96.3997 93.7071 95.9559 94.0208 95.4495 94.1951C94.943 94.3694 94.3955 94.3968 93.8734 94.2739Z" fill="#FFF097"/>
<path d="M96.74 97.1454C96.2212 96.9817 96.3127 96.9073 95.7023 96.699C94.8392 96.4329 93.9369 96.3072 93.0318 96.3271C91.2769 96.3271 90.7734 96.4759 90.6665 96.2378C90.5597 95.9998 91.338 95.0178 92.3757 94.75C93.1227 94.6758 93.8765 94.7991 94.5578 95.1071C95.6095 95.4098 96.6872 95.619 97.7777 95.732C100.128 95.9105 101.562 94.9285 101.776 95.2856C101.989 95.6427 101.074 96.461 100.158 96.9073C99.0875 97.3934 97.8707 97.4781 96.74 97.1454Z" fill="#F2DC72"/>
<path d="M93.9809 93.9167C93.4925 93.6638 93.6299 93.2472 93.0348 92.7413C92.0734 91.9379 90.8221 92.2503 90.761 91.9379C90.7 91.6255 91.6766 90.956 92.5617 91.1196C93.4468 91.2833 93.5994 92.5033 94.8354 92.9199C96.0715 93.3365 96.7734 92.7562 96.8345 92.9199C96.5065 93.3348 96.0633 93.6493 95.5575 93.826C95.0517 94.0027 94.5045 94.0342 93.9809 93.9167Z" fill="#F2DC72"/>
<path d="M41.8829 65.99C41.4124 66.2599 41.0128 66.6331 40.7161 67.0799C40.4195 67.5267 40.2338 68.0349 40.1738 68.5639C40.1936 69.4211 40.5302 70.2424 41.1219 70.8767C41.7136 71.511 42.5203 71.9155 43.3937 72.0157C45.8353 72.224 48.0785 69.3227 47.4223 67.463C46.7661 65.6032 43.8057 64.9188 41.8829 65.99Z" fill="white" stroke="#FC542D" stroke-width="0.25" stroke-miterlimit="10"/>
<path d="M42.6135 67.4186C42.1401 67.6868 41.7376 68.0592 41.4382 68.5061C41.1388 68.953 40.9508 69.4621 40.8892 69.9925C40.913 70.8493 41.2535 71.6689 41.8479 72.3005C42.4423 72.932 43.2507 73.3329 44.1243 73.4294C44.7125 73.433 45.2947 73.3129 45.831 73.0772C46.3673 72.8415 46.8451 72.4958 47.2318 72.0636C47.6186 71.6315 47.9052 71.123 48.072 70.573C48.2389 70.023 48.2821 69.4444 48.1987 68.8766C47.5577 67.2251 44.5363 66.3325 42.6135 67.4186Z" stroke="#FC542D" stroke-width="0.25" stroke-miterlimit="10"/>
<path d="M43.424 69.0257C42.9572 69.2999 42.5607 69.6742 42.2646 70.1202C41.9684 70.5662 41.7804 71.0722 41.7148 71.5996C41.7377 72.4558 42.0755 73.2755 42.6666 73.9091C43.2576 74.5428 44.0626 74.9482 44.9347 75.0514C47.3763 75.2597 49.6195 72.3584 48.9633 70.4986C48.3071 68.6389 45.3467 67.9544 43.424 69.0257Z" stroke="#FC542D" stroke-width="0.25" stroke-miterlimit="10"/>
<path d="M53.5724 65.5437C53.1018 65.8136 52.7023 66.1868 52.4056 66.6336C52.1089 67.0805 51.9232 67.5886 51.8633 68.1177C51.8798 68.9758 52.2154 69.7988 52.8077 70.4337C53.3999 71.0686 54.2085 71.4722 55.0831 71.5694C57.5247 71.7777 59.7679 68.8764 59.1117 67.0167C58.4556 65.1569 55.4951 64.4725 53.5724 65.5437Z" fill="#FCAB75" stroke="#FC542D" stroke-width="0.25" stroke-miterlimit="10"/>
<path d="M54.303 66.9722C53.8296 67.2403 53.4271 67.6128 53.1276 68.0597C52.8282 68.5066 52.6402 69.0157 52.5786 69.5461C52.6029 70.4052 52.9455 71.2267 53.5431 71.8585C54.1406 72.4904 54.9527 72.8898 55.829 72.983C56.4147 72.9823 56.9934 72.8591 57.526 72.6215C58.0586 72.3839 58.5326 72.0376 58.916 71.6059C59.2994 71.1743 59.5833 70.6674 59.7484 70.1195C59.9134 69.5716 59.9559 68.9955 59.8728 68.4302C59.2319 66.7341 56.2257 65.886 54.303 66.9722Z" stroke="#FC542D" stroke-width="0.25" stroke-miterlimit="10"/>
<path d="M55.1134 68.5788C54.6444 68.8505 54.2461 69.2241 53.9496 69.6706C53.6532 70.1171 53.4665 70.6243 53.4043 71.1528C53.406 72.0211 53.735 72.8586 54.3286 73.506C54.9223 74.1534 55.7392 74.5655 56.6241 74.664C59.0657 74.8723 61.3089 71.971 60.6527 70.1113C59.9966 68.2515 57.0362 67.5076 55.1134 68.5788Z" stroke="#FC542D" stroke-width="0.25" stroke-miterlimit="10"/>
<path d="M65.4885 65.9009C65.0151 66.169 64.6126 66.5415 64.3132 66.9884C64.0138 67.4353 63.8258 67.9444 63.7642 68.4748C63.788 69.3316 64.1285 70.1512 64.7229 70.7827C65.3173 71.4142 66.1257 71.8152 66.9993 71.9117C67.5888 71.9175 68.1726 71.7989 68.7108 71.5642C69.249 71.3294 69.7287 70.984 70.1171 70.5516C70.5056 70.1192 70.7935 69.61 70.9613 69.0589C71.129 68.5079 71.1725 67.928 71.0889 67.3589C70.4327 65.648 67.4113 64.8148 65.4885 65.9009Z" fill="#F78A4D" stroke="#FC542D" stroke-width="0.25" stroke-miterlimit="10"/>
<path d="M66.2067 67.3145C65.7361 67.5844 65.3366 67.9576 65.0399 68.4044C64.7432 68.8512 64.5575 69.3594 64.4976 69.8885C64.5141 70.7465 64.8497 71.5695 65.4419 72.2045C66.0342 72.8394 66.8428 73.243 67.7174 73.3402C70.159 73.5485 72.4022 70.6472 71.746 68.7874C71.0898 66.9277 68.1294 66.2284 66.2067 67.3145Z" stroke="#FC542D" stroke-width="0.25" stroke-miterlimit="10"/>
<path d="M67.0295 68.9361C66.5561 69.2043 66.1536 69.5767 65.8542 70.0236C65.5548 70.4706 65.3668 70.9796 65.3052 71.51C65.3258 72.3678 65.6652 73.1891 66.2602 73.8213C66.8553 74.4534 67.6655 74.8534 68.5403 74.9469C70.9819 75.1552 73.2251 72.2688 72.5689 70.3942C71.9127 68.5195 68.9523 67.85 67.0295 68.9361Z" stroke="#FC542D" stroke-width="0.25" stroke-miterlimit="10"/>
<path d="M43.2693 79.5294C42.7959 79.7975 42.3934 80.17 42.0939 80.6169C41.7945 81.0638 41.6065 81.5729 41.5449 82.1033C41.5688 82.9601 41.9092 83.7797 42.5037 84.4112C43.0981 85.0427 43.9065 85.4436 44.78 85.5402C47.2216 85.7485 49.4648 82.8621 48.8086 80.9874C48.1525 79.1128 45.1463 78.4432 43.2693 79.5294Z" fill="#FCFCFC" stroke="#FC542D" stroke-width="0.25" stroke-miterlimit="10"/>
<path d="M44.095 81.1365C43.6239 81.4073 43.2232 81.7805 42.9241 82.2269C42.6251 82.6733 42.4356 83.181 42.3706 83.7104C42.3935 84.5666 42.7313 85.3863 43.3223 86.02C43.9134 86.6536 44.7184 87.059 45.5904 87.1622C48.0473 87.3705 50.2752 84.4692 49.6343 82.6094C48.9934 80.7497 46.0177 80.0653 44.095 81.1365Z" stroke="#FC542D" stroke-width="0.25" stroke-miterlimit="10"/>
<path d="M54.9587 79.1278C54.4853 79.396 54.0828 79.7684 53.7834 80.2154C53.484 80.6623 53.296 81.1713 53.2344 81.7018C53.2725 82.5482 53.6194 83.3534 54.2125 83.9726C54.8056 84.5918 55.606 84.9842 56.4695 85.0791C57.0451 85.0747 57.6132 84.952 58.1368 84.7188C58.6604 84.4857 59.1276 84.1474 59.5079 83.726C59.8881 83.3047 60.1729 82.8099 60.3435 82.2739C60.5142 81.7379 60.5668 81.1728 60.4981 80.6156C59.903 78.8451 56.8815 77.9971 54.9587 79.1278Z" fill="#FCAB75" stroke="#FC542D" stroke-width="0.25" stroke-miterlimit="10"/>
<path d="M55.8287 80.6897C55.362 80.9639 54.9655 81.3383 54.6693 81.7843C54.3732 82.2303 54.1852 82.7362 54.1196 83.2637C54.143 84.1221 54.4829 84.9437 55.0771 85.5776C55.6713 86.2116 56.4799 86.6155 57.3547 86.7154C59.7963 86.9237 62.0395 84.0225 61.3833 82.1627C60.7272 80.3029 57.6904 79.6185 55.8287 80.6897Z" stroke="#FC542D" stroke-width="0.25" stroke-miterlimit="10"/>
<path d="M66.8624 79.4253C66.3942 79.6979 65.9965 80.0717 65.7001 80.5181C65.4038 80.9644 65.2167 81.4712 65.1533 81.9992C65.1762 82.8555 65.514 83.6751 66.105 84.3088C66.6961 84.9424 67.5011 85.3478 68.3732 85.451C70.8147 85.6593 73.0579 82.7581 72.4018 80.8983C71.7456 79.0385 68.7852 78.3392 66.8624 79.4253Z" fill="#F78A4D" stroke="#FC542D" stroke-width="0.25" stroke-miterlimit="10"/>
<path d="M67.6881 81.0471C67.2198 81.3123 66.8214 81.6803 66.5247 82.122C66.228 82.5637 66.0412 83.0668 65.979 83.5913C65.9927 84.4487 66.3277 85.2715 66.9209 85.9046C67.514 86.5378 68.3243 86.9374 69.1988 87.0281C71.6404 87.2364 73.8836 84.3501 73.2275 82.4754C72.5713 80.6008 69.5651 79.961 67.6881 81.0471Z" stroke="#FC542D" stroke-width="0.25" stroke-miterlimit="10"/>
<path d="M42.5387 78.1011C42.0779 78.3676 41.6849 78.7322 41.3889 79.1676C41.093 79.603 40.9018 80.0979 40.8296 80.6155C40.8525 81.4717 41.1902 82.2914 41.7813 82.925C42.3724 83.5587 43.1774 83.9641 44.0494 84.0673C46.491 84.2756 48.7342 81.3743 48.078 79.5145C47.4219 77.6548 44.4614 77.0299 42.5387 78.1011Z" stroke="#FC542D" stroke-width="0.25" stroke-miterlimit="10"/>
<path d="M54.3029 77.6397C53.8323 77.9095 53.4328 78.2827 53.1361 78.7296C52.8394 79.1764 52.6537 79.6845 52.5938 80.2136C52.6103 81.0717 52.9459 81.8947 53.5381 82.5296C54.1304 83.1645 54.939 83.5681 55.8136 83.6653C58.2552 83.8736 60.4984 80.9724 59.8422 79.1126C59.186 77.2528 56.1493 76.5833 54.3029 77.6397Z" stroke="#FC542D" stroke-width="0.25" stroke-miterlimit="10"/>
<path d="M66.1443 78.0118C65.667 78.2828 65.2621 78.6599 64.9624 79.1124C64.6628 79.5648 64.4769 80.0798 64.4199 80.6154C64.4438 81.4723 64.7842 82.2919 65.3787 82.9234C65.9731 83.5549 66.7815 83.9558 67.655 84.0523C70.0966 84.2606 72.3398 81.3742 71.6836 79.4996C71.0275 77.6249 68.0365 76.9256 66.1443 78.0118Z" stroke="#FC542D" stroke-width="0.25" stroke-miterlimit="10"/>
<path d="M48.0467 99.3621C48.5155 99.0859 48.9114 98.7066 49.2029 98.2545C49.4944 97.8024 49.6733 97.2901 49.7253 96.7585C49.6884 95.9019 49.3339 95.0874 48.7277 94.4663C48.1216 93.8452 47.3048 93.4596 46.4292 93.3811C43.9723 93.2174 41.8512 96.1484 42.4921 98.0082C43.133 99.868 46.1545 100.478 48.0467 99.3621Z" fill="white" stroke="#FC542D" stroke-width="0.25" stroke-miterlimit="10"/>
<path d="M47.2987 97.9634C47.7646 97.6855 48.1576 97.3054 48.4463 96.8534C48.7351 96.4014 48.9117 95.89 48.962 95.3597C48.9223 94.5025 48.5674 93.6878 47.9621 93.0649C47.3568 92.442 46.5417 92.0524 45.6659 91.9675C43.2243 91.8038 41.0879 94.7497 41.7288 96.5946C42.3697 98.4395 45.4065 99.0793 47.2987 97.9634Z" stroke="#FC542D" stroke-width="0.25" stroke-miterlimit="10"/>
<path d="M46.4448 96.3567C46.9131 96.0816 47.308 95.7022 47.5971 95.2496C47.8862 94.7971 48.0613 94.2842 48.1081 93.753C48.0716 92.8988 47.7193 92.0862 47.1162 91.4655C46.5132 90.8447 45.7001 90.4576 44.8272 90.3757C42.3704 90.2121 40.2492 93.1431 40.8749 95.0029C41.5006 96.8626 44.5525 97.4726 46.4448 96.3567Z" stroke="#FC542D" stroke-width="0.25" stroke-miterlimit="10"/>
<path d="M60.6361 99.0198C61.1044 98.7446 61.4993 98.3653 61.7884 97.9127C62.0775 97.4602 62.2526 96.9473 62.2994 96.4161C62.2661 95.5609 61.9149 94.7466 61.3112 94.1252C60.7075 93.5037 59.8927 93.1176 59.0185 93.0388C56.5617 92.8751 54.4406 95.8061 55.0815 97.6659C55.7224 99.5257 58.7439 100.136 60.6361 99.0198Z" fill="#FCAB75" stroke="#FC542D" stroke-width="0.25" stroke-miterlimit="10"/>
<path d="M59.888 97.6211C60.354 97.3432 60.7469 96.9632 61.0357 96.5111C61.3244 96.0591 61.501 95.5477 61.5514 95.0174C61.5117 94.1602 61.1567 93.3456 60.5514 92.7227C59.9461 92.0997 59.131 91.7101 58.2552 91.6252C55.8136 91.4615 53.6773 94.4074 54.3182 96.2523C54.9591 98.0972 57.9806 98.737 59.888 97.6211Z" stroke="#FC542D" stroke-width="0.25" stroke-miterlimit="10"/>
<path d="M59.0356 96.0145C59.5039 95.7393 59.8988 95.3599 60.1879 94.9074C60.477 94.4549 60.6521 93.942 60.6989 93.4108C60.6607 92.5472 60.2998 91.727 59.6842 91.1048C59.0686 90.4827 58.2409 90.1016 57.357 90.0334C54.9002 89.8698 52.779 92.8008 53.4047 94.6606C54.0303 96.5203 57.1434 97.1304 59.0356 96.0145Z" stroke="#FC542D" stroke-width="0.25" stroke-miterlimit="10"/>
<path d="M71.6704 98.648C72.1363 98.3701 72.5293 97.9901 72.818 97.5381C73.1068 97.0861 73.2834 96.5746 73.3337 96.0443C73.2968 95.1877 72.9423 94.3733 72.3362 93.7522C71.73 93.1311 70.9133 92.7455 70.0376 92.667C69.4535 92.6808 68.8792 92.8166 68.3534 93.065C67.8276 93.3135 67.3625 93.6689 66.9895 94.1073C66.6164 94.5458 66.344 95.0571 66.1907 95.6068C66.0374 96.1565 66.0066 96.7318 66.1005 97.2941C66.7262 98.9902 69.7629 99.7639 71.6704 98.648Z" fill="#F78A4D" stroke="#FC542D" stroke-width="0.25" stroke-miterlimit="10"/>
<path d="M70.921 97.2495C71.3906 96.9692 71.7876 96.5871 72.0814 96.133C72.3751 95.6789 72.5577 95.165 72.6149 94.631C72.5716 93.7764 72.2151 92.9653 71.6101 92.3455C71.0051 91.7256 70.192 91.3381 69.3187 91.2536C66.8771 91.0899 64.7407 94.0359 65.3817 95.8808C66.0226 97.7257 69.0135 98.3654 70.921 97.2495Z" stroke="#FC542D" stroke-width="0.25" stroke-miterlimit="10"/>
<path d="M70.0668 95.6424C70.5327 95.3645 70.9256 94.9844 71.2144 94.5324C71.5032 94.0804 71.6797 93.569 71.7301 93.0387C71.6904 92.1815 71.3354 91.3669 70.7301 90.7439C70.1249 90.121 69.3097 89.7314 68.4339 89.6465C67.8491 89.6624 67.2746 89.8001 66.7488 90.0502C66.223 90.3003 65.7581 90.6571 65.3853 91.0967C65.0125 91.5362 64.7404 92.0484 64.5871 92.5989C64.4339 93.1494 64.4031 93.7255 64.4969 94.2885C65.1225 95.9697 68.1593 96.7583 70.0668 95.6424Z" stroke="#FC542D" stroke-width="0.25" stroke-miterlimit="10"/>
<path d="M156.986 60.3364H155.338V98.1271H156.986V60.3364Z" fill="#088DF9" stroke="#088DF9" stroke-miterlimit="10"/>
<path d="M166.539 75.6909H164.891V102.844H166.539V75.6909Z" fill="#088DF9" stroke="#088DF9" stroke-miterlimit="10"/>
<path d="M171.791 60.3364H170.143V98.1271H171.791V60.3364Z" fill="#088DF9" stroke="#088DF9" stroke-miterlimit="10"/>
<path d="M160.445 87.9112L160.438 89.5181L191.583 89.6559L191.591 88.049L160.445 87.9112Z" fill="#088DF9" stroke="#088DF9" stroke-miterlimit="10"/>
<path d="M186.224 99.0049H147.464V100.612H186.224V99.0049Z" fill="#529DD1" stroke="#529DD1" stroke-width="0.5" stroke-miterlimit="10"/>
<path d="M191.077 89.6914H170.98V91.2982H191.077V89.6914Z" fill="#529DD1" stroke="#529DD1" stroke-width="0.5" stroke-miterlimit="10"/>
<path d="M186.224 84.5732H147.464V86.1801H186.224V84.5732Z" fill="#529DD1" stroke="#529DD1" stroke-width="0.5" stroke-miterlimit="10"/>
<path d="M175.851 65.3092L175.71 95.6753L177.358 95.6826L177.499 65.3165L175.851 65.3092Z" fill="#529DD1" stroke="#529DD1" stroke-width="0.5" stroke-miterlimit="10"/>
<path d="M191.306 67.7158H152.546V69.3227H191.306V67.7158Z" fill="#79AECC"/>
<path d="M174.98 77.0298H147.13V78.6366H174.98V77.0298Z" fill="#79AECC"/>
<path d="M191.261 80.7793H149.068V82.3862H191.261V80.7793Z" fill="#79AECC"/>
<path d="M160.845 72.6925L160.704 103.059L162.352 103.066L162.493 72.6998L160.845 72.6925Z" fill="#79AECC"/>
<path d="M152.79 60.1133H151.142V97.9039H152.79V60.1133Z" fill="#92CDF4"/>
<path d="M161.26 76.0479H159.612V103.037H161.26V76.0479Z" fill="#92CDF4"/>
<path d="M167.594 60.1133H165.946V97.9039H167.594V60.1133Z" fill="#92CDF4"/>
<path d="M156.246 87.6871L156.239 89.2939L187.384 89.4317L187.391 87.8249L156.246 87.6871Z" fill="#92CDF4"/>
<path d="M191.383 61.6822L165.121 61.7671L165.125 63.002L191.387 62.917L191.383 61.6822Z" fill="#088DF9"/>
<path d="M180.739 68.8579L161.863 68.9189L161.867 70.1538L180.743 70.0928L180.739 68.8579Z" fill="#088DF9"/>
<path d="M191.419 72.7364L173.916 72.793L173.92 74.0279L191.423 73.9713L191.419 72.7364Z" fill="#088DF9"/>
<path d="M181.587 79.6631L181.572 103.037H180.458L180.473 79.6631H181.587Z" fill="#088DF9"/>
</svg>
