<svg width="230" height="165" viewBox="0 0 230 165" fill="none" xmlns="http://www.w3.org/2000/svg">
<rect width="230" height="165" rx="6.7" fill="white"/>
<path d="M67.2375 144.336L65.7495 145.744V148H63.7495V136.128H65.7495V143.296L69.8935 139.456H72.2935L68.7255 143.04L72.6295 148H70.1975L67.2375 144.336ZM73.8433 139.456H75.8433V148H73.8433V139.456ZM74.8513 138.048C74.4886 138.048 74.1846 137.936 73.9393 137.712C73.6939 137.477 73.5713 137.189 73.5713 136.848C73.5713 136.507 73.6939 136.224 73.9393 136C74.1846 135.765 74.4886 135.648 74.8513 135.648C75.2139 135.648 75.5179 135.76 75.7633 135.984C76.0086 136.197 76.1313 136.469 76.1313 136.8C76.1313 137.152 76.0086 137.451 75.7633 137.696C75.5286 137.931 75.2246 138.048 74.8513 138.048ZM83.3163 139.36C84.3936 139.36 85.2576 139.675 85.9083 140.304C86.5589 140.933 86.8843 141.867 86.8843 143.104V148H84.8843V143.36C84.8843 142.613 84.7083 142.053 84.3563 141.68C84.0043 141.296 83.5029 141.104 82.8523 141.104C82.1163 141.104 81.5349 141.328 81.1083 141.776C80.6816 142.213 80.4683 142.848 80.4683 143.68V148H78.4683V139.456H80.3723V140.56C80.7029 140.165 81.1189 139.867 81.6203 139.664C82.1216 139.461 82.6869 139.36 83.3163 139.36ZM97.5315 143.776C97.5315 143.915 97.5208 144.112 97.4995 144.368H90.7955C90.9128 144.997 91.2168 145.499 91.7075 145.872C92.2088 146.235 92.8275 146.416 93.5635 146.416C94.5022 146.416 95.2755 146.107 95.8835 145.488L96.9555 146.72C96.5715 147.179 96.0862 147.525 95.4995 147.76C94.9128 147.995 94.2515 148.112 93.5155 148.112C92.5768 148.112 91.7502 147.925 91.0355 147.552C90.3208 147.179 89.7662 146.661 89.3715 146C88.9875 145.328 88.7955 144.571 88.7955 143.728C88.7955 142.896 88.9822 142.149 89.3555 141.488C89.7395 140.816 90.2675 140.293 90.9395 139.92C91.6115 139.547 92.3688 139.36 93.2115 139.36C94.0435 139.36 94.7848 139.547 95.4355 139.92C96.0968 140.283 96.6088 140.8 96.9715 141.472C97.3448 142.133 97.5315 142.901 97.5315 143.776ZM93.2115 140.96C92.5715 140.96 92.0275 141.152 91.5795 141.536C91.1422 141.909 90.8755 142.411 90.7795 143.04H95.6275C95.5422 142.421 95.2808 141.92 94.8435 141.536C94.4062 141.152 93.8622 140.96 93.2115 140.96ZM104.589 147.536C104.354 147.728 104.066 147.872 103.725 147.968C103.394 148.064 103.042 148.112 102.669 148.112C101.73 148.112 101.005 147.867 100.493 147.376C99.9806 146.885 99.7246 146.171 99.7246 145.232V141.12H98.3166V139.52H99.7246V137.568H101.725V139.52H104.013V141.12H101.725V145.184C101.725 145.6 101.826 145.92 102.029 146.144C102.231 146.357 102.525 146.464 102.909 146.464C103.357 146.464 103.73 146.347 104.029 146.112L104.589 147.536ZM106.234 139.456H108.234V148H106.234V139.456ZM107.242 138.048C106.879 138.048 106.575 137.936 106.33 137.712C106.085 137.477 105.962 137.189 105.962 136.848C105.962 136.507 106.085 136.224 106.33 136C106.575 135.765 106.879 135.648 107.242 135.648C107.605 135.648 107.909 135.76 108.154 135.984C108.399 136.197 108.522 136.469 108.522 136.8C108.522 137.152 108.399 137.451 108.154 137.696C107.919 137.931 107.615 138.048 107.242 138.048ZM114.779 148.112C113.894 148.112 113.099 147.925 112.395 147.552C111.691 147.179 111.142 146.661 110.747 146C110.352 145.328 110.155 144.571 110.155 143.728C110.155 142.885 110.352 142.133 110.747 141.472C111.142 140.811 111.686 140.293 112.379 139.92C113.083 139.547 113.883 139.36 114.779 139.36C115.622 139.36 116.358 139.531 116.987 139.872C117.627 140.213 118.107 140.704 118.427 141.344L116.891 142.24C116.646 141.845 116.336 141.552 115.963 141.36C115.6 141.157 115.2 141.056 114.763 141.056C114.016 141.056 113.398 141.301 112.907 141.792C112.416 142.272 112.171 142.917 112.171 143.728C112.171 144.539 112.411 145.189 112.891 145.68C113.382 146.16 114.006 146.4 114.763 146.4C115.2 146.4 115.6 146.304 115.963 146.112C116.336 145.909 116.646 145.611 116.891 145.216L118.427 146.112C118.096 146.752 117.611 147.248 116.971 147.6C116.342 147.941 115.611 148.112 114.779 148.112ZM135.362 139.36C136.439 139.36 137.292 139.675 137.922 140.304C138.551 140.923 138.866 141.856 138.866 143.104V148H136.866V143.36C136.866 142.613 136.7 142.053 136.37 141.68C136.039 141.296 135.564 141.104 134.946 141.104C134.274 141.104 133.735 141.328 133.33 141.776C132.924 142.213 132.722 142.843 132.722 143.664V148H130.722V143.36C130.722 142.613 130.556 142.053 130.226 141.68C129.895 141.296 129.42 141.104 128.802 141.104C128.119 141.104 127.575 141.323 127.17 141.76C126.775 142.197 126.578 142.832 126.578 143.664V148H124.578V139.456H126.482V140.544C126.802 140.16 127.202 139.867 127.682 139.664C128.162 139.461 128.695 139.36 129.282 139.36C129.922 139.36 130.487 139.483 130.978 139.728C131.479 139.963 131.874 140.315 132.162 140.784C132.514 140.336 132.967 139.989 133.522 139.744C134.076 139.488 134.69 139.36 135.362 139.36ZM144.685 139.36C145.944 139.36 146.904 139.664 147.565 140.272C148.237 140.869 148.573 141.776 148.573 142.992V148H146.685V146.96C146.44 147.333 146.088 147.621 145.629 147.824C145.181 148.016 144.637 148.112 143.997 148.112C143.357 148.112 142.797 148.005 142.317 147.792C141.837 147.568 141.464 147.264 141.197 146.88C140.941 146.485 140.813 146.043 140.813 145.552C140.813 144.784 141.096 144.171 141.661 143.712C142.237 143.243 143.139 143.008 144.365 143.008H146.573V142.88C146.573 142.283 146.392 141.824 146.029 141.504C145.677 141.184 145.149 141.024 144.445 141.024C143.965 141.024 143.491 141.099 143.021 141.248C142.563 141.397 142.173 141.605 141.853 141.872L141.069 140.416C141.517 140.075 142.056 139.813 142.685 139.632C143.315 139.451 143.981 139.36 144.685 139.36ZM144.413 146.656C144.915 146.656 145.357 146.544 145.741 146.32C146.136 146.085 146.413 145.755 146.573 145.328V144.336H144.509C143.357 144.336 142.781 144.715 142.781 145.472C142.781 145.835 142.925 146.123 143.213 146.336C143.501 146.549 143.901 146.656 144.413 146.656ZM156.276 147.536C156.041 147.728 155.753 147.872 155.412 147.968C155.081 148.064 154.729 148.112 154.356 148.112C153.417 148.112 152.692 147.867 152.18 147.376C151.668 146.885 151.412 146.171 151.412 145.232V141.12H150.004V139.52H151.412V137.568H153.412V139.52H155.7V141.12H153.412V145.184C153.412 145.6 153.513 145.92 153.716 146.144C153.919 146.357 154.212 146.464 154.596 146.464C155.044 146.464 155.417 146.347 155.716 146.112L156.276 147.536ZM162.769 139.36C163.847 139.36 164.711 139.675 165.361 140.304C166.012 140.933 166.337 141.867 166.337 143.104V148H164.337V143.36C164.337 142.613 164.161 142.053 163.809 141.68C163.457 141.296 162.956 141.104 162.305 141.104C161.569 141.104 160.988 141.328 160.561 141.776C160.135 142.213 159.921 142.848 159.921 143.68V148H157.921V136.128H159.921V140.448C160.252 140.096 160.657 139.829 161.137 139.648C161.628 139.456 162.172 139.36 162.769 139.36Z" fill="black"/>
<g opacity="0.4">
<path opacity="0.4" d="M108.511 63.0028L102.776 72.4169C102.711 72.5243 102.619 72.6133 102.508 72.6752C102.397 72.737 102.272 72.7696 102.145 72.7696C102.017 72.7696 101.892 72.737 101.781 72.6752C101.67 72.6133 101.578 72.5243 101.514 72.4169L96.0075 62.9049C95.9452 62.7968 95.9128 62.6747 95.9136 62.5507C95.9144 62.4267 95.9483 62.3051 96.012 62.1977C96.0757 62.0904 96.1669 62.0011 96.2768 61.9387C96.3866 61.8763 96.5113 61.8429 96.6384 61.8418L107.837 61.9537C107.967 61.944 108.098 61.9694 108.215 62.0268C108.331 62.0843 108.43 62.1717 108.499 62.2797C108.568 62.3877 108.606 62.5122 108.608 62.6396C108.61 62.767 108.577 62.8926 108.511 63.0028Z" fill="#7CB5E5"/>
</g>
<g opacity="0.4">
<path opacity="0.4" d="M174.601 87.5242H185.929C186.049 87.5255 186.167 87.5576 186.27 87.6171C186.374 87.6766 186.459 87.7615 186.519 87.8633C186.578 87.9652 186.609 88.0804 186.609 88.1976C186.609 88.3148 186.577 88.4298 186.517 88.5313L180.867 98.0993C180.805 98.2007 180.716 98.2845 180.611 98.3428C180.505 98.401 180.386 98.4317 180.265 98.4317C180.144 98.4317 180.024 98.401 179.919 98.3428C179.813 98.2845 179.725 98.2007 179.663 98.0993L173.927 88.5313C173.862 88.4235 173.829 88.3003 173.832 88.1753C173.835 88.0503 173.874 87.9286 173.944 87.824C174.014 87.7193 174.113 87.6358 174.229 87.5828C174.345 87.5298 174.474 87.5095 174.601 87.5242Z" fill="#FCD147"/>
</g>
<g opacity="0.4">
<path opacity="0.4" d="M171.676 85.2721L166.141 75.914C166.073 75.801 166.036 75.6723 166.035 75.541C166.034 75.4097 166.069 75.2805 166.136 75.1667C166.203 75.0529 166.3 74.9585 166.417 74.8932C166.534 74.8278 166.666 74.794 166.801 74.7949H177.885C178.018 74.7964 178.149 74.8321 178.264 74.8984C178.378 74.9647 178.473 75.0594 178.539 75.1728C178.604 75.2862 178.638 75.4144 178.636 75.5445C178.635 75.6746 178.598 75.802 178.53 75.914L172.995 85.2721C172.929 85.3855 172.833 85.4797 172.717 85.5452C172.601 85.6108 172.47 85.6452 172.336 85.6452C172.202 85.6452 172.07 85.6108 171.954 85.5452C171.839 85.4797 171.743 85.3855 171.676 85.2721Z" fill="#7CB5E5"/>
</g>
<g opacity="0.4">
<path opacity="0.4" d="M163.776 72.4451L158.269 63.115C158.202 63.0009 158.166 62.8717 158.166 62.74C158.165 62.6083 158.2 62.4787 158.267 62.3642C158.333 62.2497 158.429 62.1541 158.546 62.0871C158.662 62.02 158.794 61.9838 158.929 61.9819H170.027C170.162 61.9854 170.293 62.0224 170.409 62.0895C170.525 62.1565 170.621 62.2513 170.689 62.3649C170.756 62.4785 170.793 62.607 170.795 62.7383C170.797 62.8696 170.765 62.9993 170.701 63.115L165.166 72.4451C165.103 72.572 165.004 72.679 164.881 72.7539C164.758 72.8287 164.616 72.8683 164.471 72.8683C164.326 72.8683 164.184 72.8287 164.061 72.7539C163.938 72.679 163.839 72.572 163.776 72.4451Z" fill="#B77DF9"/>
</g>
<g opacity="0.4">
<path opacity="0.4" d="M133.331 98.2952L127.595 88.5034C127.54 88.41 127.511 88.304 127.511 88.1961C127.511 88.0882 127.54 87.9821 127.595 87.8886C127.65 87.7951 127.73 87.7174 127.825 87.6632C127.921 87.6091 128.03 87.5805 128.14 87.5802H139.611C139.723 87.578 139.834 87.6048 139.931 87.6579C140.029 87.711 140.111 87.7885 140.167 87.8824C140.224 87.9764 140.255 88.0834 140.255 88.1925C140.256 88.3017 140.227 88.4089 140.171 88.5034L134.435 98.2253C134.391 98.3291 134.318 98.4188 134.224 98.4842C134.131 98.5496 134.02 98.5881 133.905 98.5954C133.79 98.6027 133.676 98.5784 133.574 98.5254C133.473 98.4723 133.388 98.3926 133.331 98.2952Z" fill="#63C678"/>
</g>
<g opacity="0.4">
<path opacity="0.4" d="M121.475 49.5601H132.286C132.432 49.5606 132.575 49.5985 132.701 49.6699C132.827 49.7414 132.932 49.8439 133.004 49.9671C133.077 50.0903 133.115 50.23 133.115 50.3722C133.115 50.5143 133.076 50.6539 133.003 50.777L127.612 59.9113C127.536 60.0298 127.43 60.1275 127.305 60.1953C127.179 60.263 127.038 60.2985 126.895 60.2985C126.752 60.2985 126.611 60.263 126.485 60.1953C126.36 60.1275 126.254 60.0298 126.178 59.9113L120.772 50.777C120.7 50.6549 120.661 50.5166 120.661 50.3756C120.66 50.2346 120.697 50.0959 120.768 49.9731C120.839 49.8502 120.941 49.7475 121.065 49.6751C121.189 49.6027 121.33 49.563 121.475 49.5601Z" fill="#FCD147"/>
</g>
<g opacity="0.4">
<path opacity="0.4" d="M113.114 62.0796H124.227C124.36 62.0782 124.491 62.1115 124.606 62.1761C124.722 62.2407 124.817 62.3342 124.883 62.4469C124.949 62.5597 124.982 62.6875 124.981 62.8172C124.979 62.9469 124.941 63.0738 124.872 63.1847L119.323 72.5708C119.256 72.6809 119.16 72.7721 119.046 72.8354C118.931 72.8987 118.802 72.9319 118.671 72.9319C118.539 72.9319 118.41 72.8987 118.295 72.8354C118.181 72.7721 118.086 72.6809 118.018 72.5708L112.469 63.1847C112.404 63.0731 112.371 62.9471 112.371 62.819C112.371 62.691 112.406 62.5651 112.471 62.4538C112.536 62.3426 112.629 62.2496 112.742 62.184C112.855 62.1184 112.983 62.0825 113.114 62.0796Z" fill="#63C678"/>
</g>
<g opacity="0.4">
<path opacity="0.4" d="M115.969 74.9069H105.029C104.485 74.9042 103.949 75.0427 103.478 75.3082C103.007 75.5736 102.617 75.9566 102.347 76.4177L96.8984 85.6639C96.6238 86.1223 96.479 86.6436 96.479 87.1746C96.479 87.7056 96.6238 88.227 96.8984 88.6854L102.376 97.9315C102.645 98.3927 103.036 98.7756 103.507 99.0411C103.978 99.3065 104.513 99.445 105.057 99.4423H115.998C116.542 99.4436 117.076 99.3045 117.547 99.0391C118.018 98.7738 118.409 98.3917 118.679 97.9315L124.157 88.6854C124.432 88.227 124.576 87.7056 124.576 87.1746C124.576 86.6436 124.432 86.1223 124.157 85.6639L118.679 76.4177C118.406 75.9534 118.011 75.5686 117.535 75.303C117.058 75.0374 116.518 74.9007 115.969 74.9069Z" fill="#B77DF9"/>
</g>
<g opacity="0.4">
<path opacity="0.4" d="M104.668 100.38H116.326C116.431 100.378 116.534 100.403 116.625 100.453C116.717 100.503 116.793 100.576 116.845 100.665C116.898 100.753 116.926 100.854 116.925 100.956C116.924 101.059 116.896 101.159 116.842 101.247L111.006 111.039C110.954 111.126 110.88 111.198 110.791 111.248C110.701 111.299 110.6 111.325 110.497 111.325C110.394 111.325 110.292 111.299 110.203 111.248C110.114 111.198 110.039 111.126 109.988 111.039L104.152 101.247C104.098 101.159 104.069 101.059 104.069 100.956C104.068 100.854 104.096 100.753 104.148 100.665C104.201 100.576 104.277 100.503 104.368 100.453C104.46 100.403 104.563 100.378 104.668 100.38Z" fill="#FCD147"/>
</g>
<g opacity="0.4">
<path opacity="0.4" d="M154.385 62.0659H143.903C143.287 62.0642 142.682 62.2211 142.148 62.5208C141.614 62.8204 141.171 63.2522 140.863 63.7725L135.615 72.683C135.305 73.2009 135.142 73.7898 135.142 74.3896C135.142 74.9893 135.305 75.5782 135.615 76.0961L140.849 84.9646C141.159 85.483 141.602 85.9132 142.136 86.2126C142.669 86.512 143.273 86.6701 143.888 86.6712H154.37C154.984 86.6704 155.586 86.5124 156.117 86.2129C156.648 85.9133 157.089 85.4829 157.396 84.9646L162.644 76.0961C162.947 75.5759 163.106 74.9878 163.106 74.3896C163.106 73.7913 162.947 73.2032 162.644 72.683L157.396 63.8285C157.1 63.3 156.665 62.858 156.136 62.5482C155.606 62.2384 155.002 62.0719 154.385 62.0659Z" fill="#FCD147"/>
</g>
<path d="M117.357 74.0815H106.402C105.859 74.0817 105.325 74.2214 104.854 74.4866C104.383 74.7518 103.993 75.1331 103.721 75.5923L98.2434 84.8385C97.9757 85.2992 97.835 85.8197 97.835 86.3492C97.835 86.8787 97.9757 87.3993 98.2434 87.86L103.721 97.1061C103.992 97.567 104.382 97.9504 104.853 98.2179C105.323 98.4855 105.858 98.6279 106.402 98.6309H117.357C117.902 98.6279 118.436 98.4855 118.907 98.2179C119.377 97.9504 119.768 97.567 120.039 97.1061L125.516 87.86C125.784 87.3993 125.925 86.8787 125.925 86.3492C125.925 85.8197 125.784 85.2992 125.516 84.8385L120.039 75.5923C119.767 75.1331 119.376 74.7518 118.905 74.4866C118.435 74.2214 117.901 74.0817 117.357 74.0815Z" fill="#B77DF9"/>
<path d="M97.9282 110.325L103.664 100.743C103.722 100.641 103.808 100.556 103.911 100.497C104.014 100.438 104.132 100.407 104.252 100.407C104.371 100.407 104.489 100.438 104.592 100.497C104.696 100.556 104.781 100.641 104.84 100.743L110.575 110.325C110.636 110.428 110.668 110.544 110.667 110.662C110.667 110.781 110.635 110.897 110.574 110.999C110.513 111.101 110.425 111.186 110.319 111.245C110.214 111.303 110.094 111.333 109.973 111.332H98.6308C98.5013 111.353 98.3684 111.337 98.2477 111.287C98.1271 111.236 98.0237 111.153 97.9498 111.048C97.876 110.942 97.8347 110.817 97.8309 110.689C97.827 110.561 97.8608 110.435 97.9282 110.325Z" fill="#63C678"/>
<path d="M101.73 109.178C101.415 109.178 101.286 108.954 101.443 108.688L103.91 104.492C103.929 104.432 103.967 104.381 104.019 104.344C104.07 104.307 104.133 104.288 104.196 104.288C104.26 104.288 104.322 104.307 104.374 104.344C104.425 104.381 104.464 104.432 104.483 104.492L106.949 108.688C107.107 108.954 106.949 109.178 106.663 109.178H101.73Z" fill="#63C678"/>
<path d="M106.046 99.5962H117.718C117.821 99.5967 117.923 99.624 118.012 99.6752C118.102 99.7264 118.176 99.7997 118.227 99.8878C118.278 99.9758 118.304 100.075 118.303 100.177C118.301 100.278 118.273 100.377 118.22 100.463L112.398 110.255C112.347 110.346 112.273 110.421 112.182 110.474C112.091 110.526 111.987 110.554 111.882 110.554C111.776 110.554 111.672 110.526 111.582 110.474C111.491 110.421 111.416 110.346 111.366 110.255L105.544 100.463C105.491 100.377 105.462 100.278 105.461 100.177C105.46 100.075 105.486 99.9758 105.537 99.8878C105.588 99.7997 105.662 99.7264 105.751 99.6752C105.84 99.624 105.942 99.5967 106.046 99.5962Z" fill="#FCD147"/>
<path d="M90.5597 99.624H102.16C102.267 99.6235 102.373 99.6509 102.466 99.7036C102.559 99.7563 102.635 99.8322 102.688 99.9235C102.741 100.015 102.767 100.118 102.765 100.223C102.763 100.328 102.732 100.43 102.676 100.519L96.9406 110.311C96.8891 110.405 96.8126 110.483 96.7191 110.537C96.6257 110.592 96.5189 110.621 96.4101 110.621C96.3012 110.621 96.1944 110.592 96.101 110.537C96.0076 110.483 95.931 110.405 95.8795 110.311L90.1439 100.519C90.0939 100.436 90.0651 100.343 90.0599 100.246C90.0547 100.15 90.0733 100.054 90.114 99.9665C90.1548 99.8788 90.2165 99.8019 90.2941 99.7423C90.3717 99.6827 90.4627 99.6421 90.5597 99.624Z" fill="#7CB5E5"/>
<path d="M93.6118 102.267C93.454 101.988 93.6118 101.778 93.8986 101.778H98.8168C99.1323 101.778 99.2614 101.988 99.1036 102.267L96.6373 106.464C96.6179 106.523 96.5796 106.575 96.528 106.612C96.4765 106.648 96.4143 106.668 96.3505 106.668C96.2867 106.668 96.2245 106.648 96.173 106.612C96.1214 106.575 96.0832 106.523 96.0638 106.464L93.6118 102.267Z" fill="#7CB5E5"/>
<path d="M121.102 98.8127C120.787 98.8127 120.658 98.5889 120.815 98.3231L127.096 87.7201C127.254 87.4403 127.512 87.4403 127.669 87.7201L133.95 98.3371C134.108 98.6029 133.95 98.8127 133.663 98.8127H121.102Z" fill="#FC6238"/>
<path d="M124.917 96.6588C124.601 96.6588 124.472 96.435 124.63 96.1692L127.096 91.9727C127.116 91.9134 127.154 91.8617 127.205 91.825C127.257 91.7883 127.319 91.7686 127.383 91.7686C127.447 91.7686 127.509 91.7883 127.56 91.825C127.612 91.8617 127.65 91.9134 127.67 91.9727L130.136 96.1692C130.294 96.449 130.136 96.6588 129.849 96.6588H124.917Z" fill="#FC6238"/>
<path d="M134.723 97.5255L128.988 87.7338C128.933 87.6403 128.903 87.5343 128.903 87.4264C128.903 87.3185 128.932 87.2125 128.987 87.1189C129.043 87.0254 129.122 86.9477 129.218 86.8935C129.314 86.8394 129.422 86.8108 129.533 86.8105H141.004C141.115 86.8108 141.223 86.8394 141.319 86.8935C141.415 86.9477 141.494 87.0254 141.549 87.1189C141.604 87.2125 141.633 87.3185 141.633 87.4264C141.633 87.5343 141.604 87.6403 141.549 87.7338L135.813 97.5255C135.758 97.6184 135.678 97.6955 135.583 97.749C135.487 97.8026 135.379 97.8307 135.268 97.8307C135.158 97.8307 135.05 97.8026 134.954 97.749C134.859 97.6955 134.779 97.6184 134.723 97.5255Z" fill="#63C678"/>
<path d="M128.944 85.0203L134.68 75.2286C134.733 75.1354 134.811 75.0578 134.906 75.0039C135 74.9499 135.108 74.9214 135.217 74.9214C135.327 74.9214 135.435 74.9499 135.529 75.0039C135.624 75.0578 135.702 75.1354 135.755 75.2286L141.491 85.0203C141.547 85.1117 141.576 85.2159 141.578 85.3222C141.579 85.4285 141.551 85.5332 141.497 85.6256C141.443 85.718 141.365 85.7948 141.271 85.8482C141.176 85.9016 141.069 85.9297 140.96 85.9296H129.389C129.287 85.9163 129.19 85.8785 129.108 85.8196C129.025 85.7607 128.958 85.6826 128.914 85.5923C128.87 85.5021 128.85 85.4025 128.855 85.3026C128.86 85.2027 128.891 85.1057 128.944 85.0203Z" fill="#7CB5E5"/>
<path d="M132.816 83.761C132.5 83.761 132.371 83.5512 132.529 83.2854L134.981 79.0889C135 79.0297 135.038 78.9779 135.09 78.9412C135.142 78.9045 135.204 78.8848 135.268 78.8848C135.331 78.8848 135.393 78.9045 135.445 78.9412C135.497 78.9779 135.535 79.0297 135.554 79.0889L138.021 83.2854C138.178 83.5512 138.021 83.775 137.734 83.775L132.816 83.761Z" fill="#7CB5E5"/>
<path d="M155.76 61.2824H145.278C144.664 61.2832 144.062 61.4412 143.531 61.7408C143 62.0403 142.559 62.4707 142.252 62.989L137.047 71.8575C136.744 72.3777 136.585 72.9658 136.585 73.5641C136.585 74.1624 136.744 74.7504 137.047 75.2706L142.295 84.1252C142.602 84.6434 143.043 85.0739 143.574 85.3734C144.105 85.6729 144.707 85.831 145.321 85.8317H155.803C156.418 85.8306 157.022 85.6725 157.555 85.3732C158.089 85.0738 158.532 84.6435 158.842 84.1252L164.076 75.2706C164.386 74.7527 164.549 74.1638 164.549 73.5641C164.549 72.9644 164.386 72.3754 164.076 71.8575L158.842 62.989C158.529 62.4644 158.078 62.0302 157.537 61.7305C156.995 61.4307 156.382 61.2762 155.76 61.2824Z" fill="#FCD147"/>
<path d="M159.574 84.9364L165.31 75.3685C165.372 75.2671 165.46 75.1832 165.566 75.125C165.671 75.0667 165.791 75.0361 165.912 75.0361C166.033 75.0361 166.152 75.0667 166.258 75.125C166.363 75.1832 166.452 75.2671 166.514 75.3685L172.164 84.9364C172.224 85.0379 172.256 85.153 172.256 85.2702C172.256 85.3874 172.225 85.5026 172.166 85.6044C172.106 85.7063 172.021 85.7912 171.917 85.8507C171.814 85.9102 171.696 85.9422 171.576 85.9436H160.248C160.121 85.9582 159.992 85.9379 159.876 85.8849C159.76 85.832 159.661 85.7485 159.591 85.6438C159.521 85.5391 159.482 85.4174 159.479 85.2925C159.476 85.1675 159.509 85.0442 159.574 84.9364Z" fill="#FC6238"/>
<path d="M163.377 83.7892C163.061 83.7892 162.932 83.5653 163.09 83.2996L165.556 79.1031C165.576 79.0438 165.614 78.9921 165.665 78.9554C165.717 78.9187 165.779 78.8989 165.843 78.8989C165.907 78.8989 165.969 78.9187 166.02 78.9554C166.072 78.9921 166.11 79.0438 166.13 79.1031L168.582 83.2996C168.739 83.5653 168.582 83.7892 168.295 83.7892H163.377Z" fill="#FC6238"/>
<path d="M173.066 84.4606L167.531 75.1025C167.463 74.9895 167.426 74.8608 167.425 74.7295C167.424 74.5982 167.459 74.4691 167.526 74.3552C167.594 74.2414 167.69 74.147 167.807 74.0817C167.924 74.0164 168.056 73.9824 168.191 73.9834H179.261C179.393 73.9839 179.523 74.0181 179.638 74.0827C179.753 74.1473 179.848 74.2401 179.915 74.3517C179.981 74.4634 180.017 74.5902 180.018 74.7194C180.019 74.8486 179.985 74.9759 179.92 75.0885L174.328 84.4606C174.261 84.5647 174.168 84.6503 174.057 84.7098C173.947 84.7692 173.823 84.8003 173.697 84.8003C173.571 84.8003 173.447 84.7692 173.337 84.7098C173.226 84.6503 173.133 84.5647 173.066 84.4606Z" fill="#7CB5E5"/>
<path d="M167.517 71.9416L173.066 62.5694C173.132 62.4561 173.228 62.3619 173.344 62.2964C173.46 62.2308 173.592 62.1963 173.725 62.1963C173.859 62.1963 173.991 62.2308 174.107 62.2964C174.223 62.3619 174.319 62.4561 174.385 62.5694L179.92 71.9416C179.985 72.0542 180.019 72.1814 180.018 72.3106C180.017 72.4399 179.981 72.5666 179.914 72.6783C179.848 72.79 179.752 72.8827 179.638 72.9473C179.523 73.0119 179.393 73.0462 179.26 73.0466H168.176C168.044 73.0462 167.914 73.0119 167.799 72.9473C167.684 72.8827 167.589 72.79 167.522 72.6783C167.455 72.5666 167.42 72.4399 167.419 72.3106C167.418 72.1814 167.452 72.0542 167.517 71.9416Z" fill="#63C678"/>
<path d="M171.259 70.8922C170.943 70.8922 170.814 70.6684 170.972 70.4026L173.438 66.2062C173.596 65.9404 173.854 65.9404 174.012 66.2062L176.464 70.4026C176.622 70.6684 176.464 70.8782 176.177 70.8782L171.259 70.8922Z" fill="#63C678"/>
<path d="M175.304 84.9505L180.954 75.4106C181.018 75.3094 181.108 75.2258 181.214 75.1679C181.321 75.11 181.441 75.0796 181.563 75.0796C181.685 75.0796 181.805 75.11 181.912 75.1679C182.018 75.2258 182.108 75.3094 182.172 75.4106L187.808 84.9505C187.867 85.0541 187.898 85.171 187.898 85.2898C187.897 85.4086 187.865 85.5252 187.804 85.6282C187.743 85.7311 187.656 85.8169 187.551 85.8771C187.446 85.9374 187.327 85.9699 187.205 85.9717H175.906C175.784 85.9699 175.665 85.9374 175.56 85.8771C175.455 85.8169 175.368 85.7311 175.307 85.6282C175.247 85.5252 175.214 85.4086 175.214 85.2898C175.213 85.171 175.244 85.0541 175.304 84.9505Z" fill="#B77DF9"/>
<path d="M179.103 83.8732C178.787 83.8732 178.658 83.6493 178.816 83.3836L181.268 79.1871C181.287 79.1278 181.326 79.0761 181.377 79.0394C181.429 79.0027 181.491 78.9829 181.555 78.9829C181.618 78.9829 181.681 79.0027 181.732 79.0394C181.784 79.0761 181.822 79.1278 181.841 79.1871L184.308 83.3836C184.465 83.6493 184.308 83.8592 184.021 83.8592L179.103 83.8732Z" fill="#B77DF9"/>
<path d="M167.643 97.3017L173.235 87.8317C173.3 87.7243 173.392 87.6353 173.503 87.5734C173.613 87.5116 173.738 87.479 173.866 87.479C173.994 87.479 174.119 87.5116 174.23 87.5734C174.34 87.6353 174.432 87.7243 174.497 87.8317L180.089 97.3017C180.153 97.4087 180.186 97.5302 180.185 97.6538C180.185 97.7775 180.151 97.8988 180.087 98.0054C180.023 98.112 179.931 98.2002 179.82 98.2608C179.71 98.3215 179.585 98.3526 179.458 98.3508H168.259C168.134 98.3501 168.011 98.3172 167.903 98.2555C167.794 98.1939 167.704 98.1055 167.642 97.9993C167.579 97.8931 167.547 97.7728 167.547 97.6503C167.547 97.5279 167.58 97.4077 167.643 97.3017Z" fill="#7CB5E5"/>
<path d="M171.46 96.211C171.144 96.211 171.015 95.9872 171.173 95.7214L173.639 91.525C173.659 91.4657 173.697 91.414 173.748 91.3773C173.8 91.3406 173.862 91.3208 173.926 91.3208C173.99 91.3208 174.052 91.3406 174.103 91.3773C174.155 91.414 174.193 91.4657 174.213 91.525L176.665 95.7214C176.822 95.9872 176.665 96.211 176.378 96.211H171.46Z" fill="#7CB5E5"/>
<path d="M175.991 86.7409H187.305C187.426 86.7399 187.545 86.7701 187.651 86.8286C187.756 86.8871 187.844 86.9718 187.905 87.074C187.966 87.1763 187.999 87.2925 187.999 87.4109C187.999 87.5293 187.967 87.6456 187.907 87.7481L182.171 97.316C182.111 97.4177 182.024 97.502 181.919 97.5606C181.815 97.6193 181.697 97.6501 181.576 97.6501C181.456 97.6501 181.337 97.6193 181.233 97.5606C181.128 97.502 181.042 97.4177 180.981 97.316L175.317 87.7481C175.252 87.6403 175.219 87.5171 175.222 87.3921C175.225 87.2671 175.264 87.1454 175.334 87.0408C175.404 86.9361 175.503 86.8526 175.619 86.7996C175.735 86.7466 175.864 86.7263 175.991 86.7409Z" fill="#FCD147"/>
<path d="M165.167 71.6614L159.647 62.3313C159.579 62.2162 159.543 62.0856 159.543 61.9528C159.543 61.8199 159.579 61.6894 159.648 61.5745C159.716 61.4596 159.814 61.3642 159.932 61.2982C160.05 61.2321 160.184 61.1977 160.321 61.1982H171.362C171.497 61.2001 171.629 61.2363 171.745 61.3034C171.861 61.3704 171.957 61.466 172.024 61.5805C172.091 61.695 172.126 61.8246 172.125 61.9563C172.125 62.088 172.089 62.2172 172.021 62.3313L166.501 71.6475C166.434 71.7613 166.337 71.8561 166.221 71.9224C166.105 71.9888 165.973 72.0244 165.838 72.0258C165.703 72.0272 165.571 71.9943 165.453 71.9304C165.335 71.8665 165.237 71.7738 165.167 71.6614Z" fill="#B77DF9"/>
<path d="M105.775 72.0674L111.51 62.4854C111.571 62.3838 111.658 62.2995 111.762 62.2408C111.866 62.1822 111.985 62.1514 112.105 62.1514C112.226 62.1514 112.344 62.1822 112.449 62.2408C112.553 62.2995 112.64 62.3838 112.7 62.4854L118.364 72.0674C118.424 72.1688 118.456 72.2839 118.457 72.4011C118.457 72.5183 118.426 72.6335 118.366 72.7354C118.307 72.8372 118.221 72.9221 118.118 72.9816C118.014 73.0411 117.897 73.0731 117.776 73.0745H106.434C106.308 73.0862 106.181 73.0638 106.067 73.0097C105.953 72.9555 105.857 72.8718 105.789 72.7676C105.721 72.6635 105.683 72.543 105.681 72.4194C105.678 72.2959 105.711 72.174 105.775 72.0674Z" fill="#FCD147"/>
<path d="M109.587 70.92C109.272 70.92 109.142 70.6963 109.3 70.4305L111.752 66.234C111.772 66.1747 111.81 66.123 111.861 66.0863C111.913 66.0496 111.975 66.0298 112.039 66.0298C112.103 66.0298 112.165 66.0496 112.217 66.0863C112.268 66.123 112.306 66.1747 112.326 66.234L114.792 70.4305C114.95 70.6963 114.792 70.92 114.505 70.92H109.587Z" fill="#FCD147"/>
<path d="M114.505 61.3103H125.575C125.706 61.3104 125.835 61.3441 125.948 61.408C126.061 61.4718 126.155 61.5637 126.221 61.6742C126.286 61.7848 126.32 61.9102 126.32 62.0378C126.32 62.1655 126.286 62.2909 126.22 62.4014L120.657 71.7875C120.591 71.8978 120.497 71.9895 120.384 72.0532C120.271 72.1169 120.142 72.1504 120.012 72.1504C119.881 72.1504 119.753 72.1169 119.639 72.0532C119.526 71.9895 119.432 71.8978 119.366 71.7875L113.803 62.4014C113.734 62.2867 113.699 62.1559 113.702 62.0232C113.704 61.8905 113.744 61.7609 113.816 61.6485C113.888 61.5362 113.991 61.4452 114.112 61.3856C114.234 61.326 114.37 61.3 114.505 61.3103Z" fill="#63C678"/>
<path d="M113.73 59.4495L119.465 49.6578C119.519 49.5646 119.597 49.487 119.691 49.4331C119.786 49.3791 119.894 49.3506 120.003 49.3506C120.113 49.3506 120.22 49.3791 120.315 49.4331C120.409 49.487 120.487 49.5646 120.541 49.6578L126.276 59.4495C126.332 59.5409 126.362 59.645 126.363 59.7514C126.364 59.8577 126.336 59.9624 126.282 60.0548C126.229 60.1472 126.15 60.224 126.056 60.2774C125.962 60.3308 125.855 60.3589 125.746 60.3588H114.174C114.073 60.3455 113.976 60.3077 113.893 60.2488C113.81 60.1899 113.744 60.1118 113.7 60.0215C113.656 59.9312 113.635 59.8317 113.64 59.7318C113.646 59.6319 113.676 59.5349 113.73 59.4495Z" fill="#FC6238"/>
<path d="M117.599 58.1907C117.284 58.1907 117.155 57.9809 117.312 57.7151L119.764 53.5186C119.784 53.4593 119.822 53.4076 119.874 53.3709C119.925 53.3342 119.987 53.3145 120.051 53.3145C120.115 53.3145 120.177 53.3342 120.229 53.3709C120.28 53.4076 120.319 53.4593 120.338 53.5186L122.804 57.7151C122.962 57.9809 122.804 58.2047 122.518 58.2047L117.599 58.1907Z" fill="#FC6238"/>
<path d="M122.864 48.7769H133.662C133.809 48.7778 133.954 48.8162 134.081 48.8884C134.208 48.9606 134.314 49.064 134.388 49.1883C134.462 49.3127 134.501 49.4537 134.502 49.5975C134.503 49.7412 134.465 49.8827 134.393 50.0078L128.987 59.1281C128.914 59.25 128.809 59.351 128.683 59.4212C128.557 59.4914 128.415 59.5283 128.27 59.5283C128.125 59.5283 127.983 59.4914 127.857 59.4212C127.731 59.351 127.627 59.25 127.553 59.1281L122.147 50.0078C122.076 49.8837 122.038 49.7435 122.038 49.6009C122.038 49.4583 122.076 49.3182 122.149 49.1942C122.221 49.0703 122.325 48.9666 122.45 48.8935C122.576 48.8203 122.718 48.7802 122.864 48.7769Z" fill="#FCD147"/>
<path d="M130.091 59.3378L135.741 49.8119C135.803 49.7105 135.891 49.6266 135.997 49.5684C136.102 49.5101 136.222 49.4795 136.343 49.4795C136.464 49.4795 136.583 49.5101 136.689 49.5684C136.794 49.6266 136.883 49.7105 136.945 49.8119L142.58 59.3518C142.645 59.4547 142.679 59.5725 142.681 59.693C142.683 59.8134 142.651 59.9321 142.589 60.0365C142.528 60.141 142.439 60.2273 142.331 60.2865C142.223 60.3457 142.102 60.3756 141.978 60.373H130.693C130.569 60.3726 130.448 60.3403 130.341 60.2794C130.234 60.2184 130.145 60.131 130.084 60.0259C130.023 59.9208 129.992 59.8018 129.993 59.681C129.994 59.5601 130.028 59.4418 130.091 59.3378Z" fill="#7CB5E5"/>
<path d="M133.878 58.2189C133.562 58.2189 133.433 57.995 133.591 57.7293L136.057 53.5328C136.077 53.4735 136.115 53.4218 136.166 53.3851C136.218 53.3484 136.28 53.3286 136.344 53.3286C136.408 53.3286 136.47 53.3484 136.521 53.3851C136.573 53.4218 136.611 53.4735 136.631 53.5328L139.083 57.7293C139.24 57.995 139.083 58.2049 138.796 58.2049L133.878 58.2189Z" fill="#7CB5E5"/>
<path d="M90.1853 97.8614L96.093 87.8598C96.1406 87.7784 96.2095 87.7107 96.2926 87.6636C96.3757 87.6166 96.47 87.5918 96.5661 87.5918C96.6622 87.5918 96.7566 87.6166 96.8397 87.6636C96.9228 87.7107 96.9917 87.7784 97.0393 87.8598L102.947 97.8614C102.995 97.9423 103.02 98.034 103.02 98.1274C103.02 98.2209 102.995 98.3126 102.947 98.3935C102.899 98.4743 102.83 98.5414 102.747 98.588C102.664 98.6345 102.57 98.6589 102.474 98.6587H90.6585C90.5627 98.6589 90.4686 98.6345 90.3856 98.588C90.3026 98.5414 90.2336 98.4743 90.1856 98.3935C90.1376 98.3126 90.1124 98.2209 90.1123 98.1274C90.1122 98.034 90.1374 97.9423 90.1853 97.8614Z" fill="#FC6238"/>
<path d="M94.1016 96.4625C93.7862 96.4625 93.6572 96.2387 93.8149 95.9729L96.2812 91.7764C96.3007 91.7172 96.3389 91.6654 96.3905 91.6287C96.442 91.592 96.5041 91.5723 96.568 91.5723C96.6318 91.5723 96.6939 91.592 96.7455 91.6287C96.797 91.6654 96.8353 91.7172 96.8548 91.7764L99.3067 95.9729C99.4644 96.2387 99.3067 96.4625 99.02 96.4625H94.1016Z" fill="#FC6238"/>
<g opacity="0.4">
<path opacity="0.4" d="M96.5521 111.108L102.216 101.526C102.276 101.425 102.363 101.34 102.468 101.282C102.572 101.223 102.691 101.192 102.811 101.192C102.932 101.192 103.05 101.223 103.154 101.282C103.259 101.34 103.346 101.425 103.406 101.526L109.07 111.108C109.131 111.209 109.164 111.323 109.165 111.44C109.165 111.557 109.134 111.672 109.074 111.773C109.014 111.874 108.928 111.958 108.824 112.016C108.72 112.073 108.602 112.103 108.482 112.102H97.14C97.0202 112.103 96.9023 112.073 96.7982 112.016C96.6941 111.958 96.6077 111.874 96.5479 111.773C96.488 111.672 96.4568 111.557 96.4575 111.44C96.4583 111.323 96.4909 111.209 96.5521 111.108Z" fill="#63C678"/>
</g>
<g opacity="0.4">
<path opacity="0.4" d="M89.1674 100.407H100.768C100.874 100.406 100.979 100.432 101.072 100.483C101.165 100.534 101.242 100.608 101.296 100.697C101.35 100.787 101.379 100.889 101.379 100.993C101.379 101.096 101.351 101.199 101.298 101.289L95.4909 111.08C95.4383 111.17 95.3622 111.245 95.2702 111.298C95.1783 111.35 95.0739 111.377 94.9675 111.377C94.8612 111.377 94.7568 111.35 94.6649 111.298C94.5729 111.245 94.4968 111.17 94.4442 111.08L88.6368 101.289C88.5836 101.199 88.5558 101.096 88.5562 100.993C88.5565 100.889 88.5852 100.787 88.6391 100.697C88.693 100.608 88.7703 100.534 88.8631 100.483C88.9559 100.432 89.0609 100.406 89.1674 100.407Z" fill="#7CB5E5"/>
</g>
<g opacity="0.4">
<path opacity="0.4" d="M119.71 99.582C119.395 99.582 119.266 99.3722 119.423 99.1064L125.718 88.4893C125.738 88.43 125.776 88.3783 125.827 88.3416C125.879 88.3049 125.941 88.2852 126.005 88.2852C126.069 88.2852 126.131 88.3049 126.182 88.3416C126.234 88.3783 126.272 88.43 126.292 88.4893L132.558 99.1064C132.716 99.3722 132.558 99.596 132.271 99.596L119.71 99.582Z" fill="#FC6238"/>
</g>
<g opacity="0.4">
<path opacity="0.4" d="M127.569 85.7894L133.304 75.9977C133.359 75.9078 133.437 75.8333 133.53 75.7816C133.623 75.7298 133.728 75.7026 133.835 75.7026C133.942 75.7026 134.047 75.7298 134.14 75.7816C134.233 75.8333 134.311 75.9078 134.366 75.9977L140.101 85.7894C140.153 85.8804 140.18 85.9831 140.18 86.0874C140.179 86.1917 140.15 86.294 140.097 86.3843C140.043 86.4746 139.967 86.5497 139.874 86.6024C139.782 86.655 139.677 86.6834 139.571 86.6847H127.999C127.901 86.6685 127.808 86.6292 127.729 86.5704C127.649 86.5116 127.586 86.4349 127.544 86.3469C127.501 86.2589 127.482 86.1622 127.486 86.0651C127.49 85.9681 127.519 85.8734 127.569 85.7894Z" fill="#7CB5E5"/>
</g>
<g opacity="0.4">
<path opacity="0.4" d="M158.196 85.7057L163.86 76.1377C163.921 76.0361 164.008 75.9518 164.112 75.8932C164.217 75.8346 164.335 75.8037 164.455 75.8037C164.576 75.8037 164.694 75.8346 164.799 75.8932C164.903 75.9518 164.99 76.0361 165.051 76.1377L170.786 85.7197C170.847 85.8222 170.879 85.9386 170.878 86.0569C170.878 86.1753 170.846 86.2915 170.785 86.3937C170.723 86.496 170.636 86.5807 170.53 86.6392C170.425 86.6977 170.305 86.7279 170.184 86.7268H158.856C158.728 86.7405 158.598 86.7186 158.482 86.6639C158.366 86.6092 158.268 86.5238 158.199 86.4173C158.13 86.3109 158.094 86.1877 158.093 86.0619C158.093 85.9361 158.129 85.8126 158.196 85.7057Z" fill="#FC6238"/>
</g>
<g opacity="0.4">
<path opacity="0.4" d="M166.14 72.6827L171.689 63.3246C171.756 63.2145 171.852 63.1233 171.966 63.06C172.081 62.9967 172.21 62.9634 172.341 62.9634C172.473 62.9634 172.602 62.9967 172.716 63.06C172.831 63.1233 172.926 63.2145 172.994 63.3246L178.543 72.6967C178.608 72.8093 178.642 72.9365 178.641 73.0658C178.64 73.195 178.604 73.3217 178.537 73.4334C178.471 73.5451 178.375 73.6379 178.261 73.7025C178.146 73.7671 178.016 73.8013 177.883 73.8017H166.799C166.666 73.7986 166.537 73.7621 166.422 73.6958C166.308 73.6295 166.213 73.5356 166.147 73.4231C166.081 73.3107 166.045 73.1835 166.044 73.0538C166.043 72.9241 166.076 72.7963 166.14 72.6827Z" fill="#63C678"/>
</g>
<g opacity="0.4">
<path opacity="0.4" d="M173.925 85.7195L179.575 76.1935C179.634 76.0886 179.721 76.0011 179.827 75.9402C179.933 75.8793 180.054 75.8472 180.177 75.8472C180.3 75.8472 180.42 75.8793 180.526 75.9402C180.632 76.0011 180.719 76.0886 180.779 76.1935L186.429 85.7335C186.489 85.8381 186.52 85.9563 186.519 86.0762C186.517 86.1962 186.484 86.3137 186.421 86.4171C186.359 86.5205 186.27 86.6061 186.163 86.6653C186.056 86.7245 185.935 86.7553 185.812 86.7546H174.527C174.402 86.7589 174.277 86.7295 174.167 86.6696C174.058 86.6098 173.967 86.5217 173.905 86.415C173.843 86.3084 173.812 86.1871 173.815 86.0645C173.819 85.9419 173.857 85.8226 173.925 85.7195Z" fill="#B77DF9"/>
</g>
<g opacity="0.4">
<path opacity="0.4" d="M166.257 98.0714L171.849 88.6154C171.914 88.508 172.006 88.419 172.117 88.3571C172.227 88.2953 172.353 88.2627 172.48 88.2627C172.608 88.2627 172.733 88.2953 172.844 88.3571C172.954 88.419 173.047 88.508 173.111 88.6154L178.718 98.0714C178.78 98.1795 178.812 98.3016 178.811 98.4256C178.811 98.5496 178.777 98.6713 178.713 98.7786C178.649 98.8859 178.558 98.9752 178.448 99.0376C178.338 99.1 178.214 99.1334 178.087 99.1345H166.888C166.761 99.1334 166.636 99.1 166.526 99.0376C166.416 98.9752 166.325 98.8859 166.261 98.7786C166.198 98.6713 166.164 98.5496 166.163 98.4256C166.162 98.3016 166.195 98.1795 166.257 98.0714Z" fill="#7CB5E5"/>
</g>
<g opacity="0.4">
<path opacity="0.4" d="M104.4 72.8505L110.064 63.2686C110.125 63.167 110.211 63.0827 110.316 63.024C110.42 62.9654 110.539 62.9346 110.659 62.9346C110.78 62.9346 110.898 62.9654 111.002 63.024C111.107 63.0827 111.194 63.167 111.254 63.2686L116.918 72.8505C116.979 72.951 117.012 73.0655 117.013 73.1823C117.013 73.2991 116.982 73.4139 116.922 73.5151C116.862 73.6162 116.776 73.7 116.672 73.7578C116.568 73.8155 116.45 73.8452 116.33 73.8437H104.988C104.868 73.8452 104.75 73.8155 104.646 73.7578C104.542 73.7 104.456 73.6162 104.396 73.5151C104.336 73.4139 104.305 73.2991 104.306 73.1823C104.306 73.0655 104.339 72.951 104.4 72.8505Z" fill="#FCD147"/>
</g>
<g opacity="0.4">
<path opacity="0.4" d="M112.354 60.2194L118.09 50.4277C118.142 50.3341 118.218 50.2559 118.312 50.2014C118.405 50.147 118.512 50.1182 118.621 50.1182C118.729 50.1182 118.836 50.147 118.93 50.2014C119.023 50.2559 119.1 50.3341 119.151 50.4277L124.887 60.2194C124.939 60.3104 124.966 60.4131 124.965 60.5174C124.965 60.6217 124.936 60.724 124.883 60.8143C124.829 60.9046 124.752 60.9797 124.66 61.0324C124.568 61.085 124.463 61.1134 124.356 61.1147H112.785C112.686 61.0985 112.594 61.0592 112.514 61.0004C112.435 60.9416 112.372 60.8649 112.329 60.7769C112.287 60.6889 112.267 60.5922 112.272 60.4951C112.276 60.3981 112.304 60.3034 112.354 60.2194Z" fill="#FC6238"/>
</g>
<g opacity="0.4">
<path opacity="0.4" d="M128.703 60.0934L134.352 50.5674C134.414 50.4628 134.503 50.3759 134.61 50.3154C134.717 50.255 134.838 50.2231 134.962 50.2231C135.086 50.2231 135.207 50.255 135.314 50.3154C135.421 50.3759 135.51 50.4628 135.571 50.5674L141.207 60.0934C141.27 60.1984 141.304 60.318 141.305 60.4401C141.305 60.5621 141.273 60.682 141.21 60.7876C141.147 60.8931 141.056 60.9803 140.947 61.0403C140.838 61.1002 140.715 61.1307 140.59 61.1285H129.319C129.194 61.1307 129.071 61.1002 128.962 61.0403C128.853 60.9803 128.762 60.8931 128.7 60.7876C128.637 60.682 128.604 60.5621 128.604 60.4401C128.605 60.318 128.639 60.1984 128.703 60.0934Z" fill="#7CB5E5"/>
</g>
<g opacity="0.4">
<path opacity="0.4" d="M88.7952 98.6451L94.7172 88.6575C94.7657 88.5793 94.8341 88.5147 94.9158 88.4698C94.9974 88.4249 95.0895 88.4014 95.1832 88.4014C95.2769 88.4014 95.369 88.4249 95.4506 88.4698C95.5323 88.5147 95.6007 88.5793 95.6492 88.6575L101.571 98.6451C101.619 98.726 101.644 98.8177 101.644 98.9111C101.644 99.0046 101.619 99.0963 101.571 99.1772C101.523 99.258 101.454 99.3251 101.371 99.3717C101.288 99.4182 101.194 99.4426 101.098 99.4424H89.2683C89.1726 99.4426 89.0785 99.4182 88.9954 99.3717C88.9124 99.3251 88.8434 99.258 88.7955 99.1772C88.7475 99.0963 88.7222 99.0046 88.7222 98.9111C88.7221 98.8177 88.7473 98.726 88.7952 98.6451Z" fill="#FC6238"/>
</g>
<g opacity="0.4">
<path opacity="0.4" d="M100.149 73.5222L88.8213 73.4103C88.7007 73.4108 88.5821 73.3797 88.4779 73.3202C88.3738 73.2607 88.288 73.1751 88.2294 73.0722C88.1708 72.9692 88.1415 72.8529 88.1448 72.7352C88.148 72.6175 88.1836 72.5028 88.2478 72.4031L93.9834 62.8912C94.0439 62.7895 94.1308 62.7052 94.2352 62.6466C94.3396 62.588 94.458 62.5571 94.5785 62.5571C94.699 62.5571 94.8173 62.588 94.9217 62.6466C95.0262 62.7052 95.113 62.7895 95.1735 62.8912L100.751 72.5011C100.811 72.6046 100.842 72.7215 100.842 72.8403C100.841 72.9591 100.809 73.0757 100.748 73.1787C100.687 73.2816 100.6 73.3674 100.495 73.4277C100.39 73.4879 100.271 73.5205 100.149 73.5222Z" fill="#FCD147"/>
</g>
<path d="M101.745 74.7392L96.0098 84.2232C95.9503 84.3281 95.863 84.4156 95.7571 84.4765C95.6512 84.5375 95.5305 84.5696 95.4075 84.5696C95.2846 84.5696 95.1639 84.5375 95.058 84.4765C94.9521 84.4156 94.8648 84.3281 94.8053 84.2232L89.2561 74.6412C89.1959 74.5366 89.1648 74.4185 89.1661 74.2985C89.1673 74.1785 89.2008 74.061 89.2632 73.9576C89.3257 73.8543 89.4148 73.7687 89.5217 73.7095C89.6287 73.6502 89.7497 73.6194 89.8727 73.6201L101.157 73.732C101.278 73.7334 101.395 73.7655 101.499 73.8249C101.602 73.8844 101.688 73.9693 101.747 74.0711C101.807 74.173 101.838 74.2882 101.838 74.4054C101.837 74.5226 101.805 74.6377 101.745 74.7392Z" fill="#B77DF9"/>
<path d="M97.9448 75.8301C98.2602 75.8301 98.3893 76.0539 98.2315 76.3197L95.7222 80.5161C95.5645 80.7819 95.3064 80.7819 95.1486 80.5161L92.7397 76.3197C92.582 76.0539 92.7397 75.8441 93.0264 75.8441L97.9448 75.8301Z" fill="#B77DF9"/>
<path d="M109.528 62.4712L103.793 71.8713C103.728 71.9786 103.636 72.0676 103.526 72.1295C103.415 72.1914 103.289 72.2239 103.162 72.2239C103.034 72.2239 102.909 72.1914 102.798 72.1295C102.688 72.0676 102.595 71.9786 102.531 71.8713L97.0248 62.3592C96.9614 62.2522 96.9283 62.1307 96.9287 62.0071C96.9291 61.8835 96.9632 61.7622 97.0273 61.6556C97.0914 61.5489 97.1834 61.4608 97.2938 61.4001C97.4041 61.3394 97.529 61.3084 97.6557 61.3101L108.855 61.4081C108.985 61.4016 109.115 61.4295 109.231 61.4888C109.347 61.5481 109.445 61.6367 109.514 61.7453C109.582 61.8539 109.62 61.9786 109.623 62.1062C109.625 62.2339 109.593 62.36 109.528 62.4712Z" fill="#7CB5E5"/>
<path d="M101.085 72.9483L89.7715 72.8364C89.6513 72.835 89.5337 72.803 89.4302 72.7435C89.3267 72.684 89.2409 72.5991 89.1815 72.4973C89.1221 72.3954 89.0909 72.2802 89.0913 72.163C89.0917 72.0458 89.1235 71.9308 89.1836 71.8293L94.9192 62.3033C94.9797 62.2017 95.0665 62.1173 95.171 62.0587C95.2754 62.0001 95.3938 61.9692 95.5142 61.9692C95.6347 61.9692 95.7531 62.0001 95.8575 62.0587C95.962 62.1173 96.0488 62.2017 96.1093 62.3033L101.687 71.9272C101.747 72.0307 101.778 72.1477 101.777 72.2665C101.777 72.3853 101.744 72.5019 101.684 72.6048C101.623 72.7078 101.536 72.7936 101.431 72.8538C101.326 72.914 101.207 72.9466 101.085 72.9483Z" fill="#FCD147"/>
<g opacity="0.4">
<path opacity="0.4" d="M100.982 75.8437L95.2461 85.3417C95.1837 85.4431 95.0953 85.527 94.9898 85.5852C94.8843 85.6434 94.7651 85.674 94.6438 85.674C94.5226 85.674 94.4034 85.6434 94.2979 85.5852C94.1924 85.527 94.1041 85.4431 94.0416 85.3417L88.4924 75.7458C88.4322 75.6412 88.4011 75.523 88.4024 75.403C88.4036 75.2831 88.4372 75.1655 88.4996 75.0622C88.562 74.9588 88.6511 74.8732 88.7581 74.814C88.865 74.7548 88.986 74.7239 89.109 74.7246L100.394 74.8366C100.514 74.8379 100.632 74.8699 100.735 74.9294C100.839 74.9889 100.924 75.0738 100.984 75.1757C101.043 75.2775 101.074 75.3928 101.074 75.51C101.074 75.6272 101.042 75.7422 100.982 75.8437Z" fill="#B77DF9"/>
</g>
<g opacity="0.4">
<path opacity="0.4" d="M78.6126 63.5767L84.3482 73.3684C84.4035 73.4619 84.4327 73.5679 84.4328 73.6758C84.4328 73.7838 84.4038 73.8898 84.3486 73.9833C84.2934 74.0768 84.214 74.1546 84.1183 74.2087C84.0226 74.2628 83.9139 74.2914 83.8033 74.2917H72.3321C72.2206 74.2904 72.1114 74.2603 72.0156 74.2045C71.9199 74.1486 71.841 74.069 71.7871 73.9738C71.7332 73.8785 71.7061 73.771 71.7087 73.6622C71.7112 73.5534 71.7432 73.4472 71.8016 73.3545L77.5372 63.6466C77.5841 63.5497 77.6567 63.4667 77.7475 63.4063C77.8384 63.3459 77.9441 63.3102 78.0538 63.3031C78.1635 63.296 78.2731 63.3176 78.3714 63.3657C78.4696 63.4138 78.5529 63.4866 78.6126 63.5767Z" fill="#63C678"/>
</g>
<path d="M93.4811 61.4923C93.7965 61.4923 93.9256 61.7161 93.7679 61.9819L87.4587 72.585C87.2866 72.8507 87.0285 72.8507 86.8851 72.585L80.619 61.9539C80.4756 61.6741 80.619 61.4644 80.9201 61.4644L93.4811 61.4923Z" fill="#FC6238"/>
<path d="M89.728 63.6323C90.0434 63.6323 90.1725 63.8421 90.0148 64.1079L87.5341 68.3044C87.5146 68.3637 87.4764 68.4154 87.4248 68.4521C87.3733 68.4888 87.3111 68.5086 87.2473 68.5086C87.1835 68.5086 87.1214 68.4888 87.0698 68.4521C87.0183 68.4154 86.98 68.3637 86.9605 68.3044L84.5229 64.1079C84.3652 63.8421 84.5229 63.6323 84.8097 63.6323H89.728Z" fill="#FC6238"/>
<path d="M79.6907 62.891L85.4263 72.6828C85.4816 72.7762 85.5107 72.8822 85.5108 72.9901C85.5109 73.0981 85.4819 73.2041 85.4267 73.2976C85.3715 73.3912 85.292 73.4689 85.1963 73.523C85.1006 73.5771 84.992 73.6058 84.8814 73.606H73.4102C73.2995 73.6058 73.1909 73.5771 73.0952 73.523C72.9995 73.4689 72.9201 73.3912 72.8649 73.2976C72.8097 73.2041 72.7807 73.0981 72.7808 72.9901C72.7808 72.8822 72.8099 72.7762 72.8653 72.6828L78.6009 62.961C78.6499 62.8642 78.7241 62.7817 78.8161 62.7218C78.9081 62.6618 79.0147 62.6266 79.1251 62.6195C79.2355 62.6124 79.3459 62.6338 79.4451 62.6814C79.5444 62.7291 79.6291 62.8014 79.6907 62.891Z" fill="#63C678"/>
<g opacity="0.4">
<path opacity="0.4" d="M92.7522 61.9399C93.0676 61.9399 93.1823 62.1497 93.0246 62.4155L86.7154 73.0186C86.696 73.0779 86.6577 73.1296 86.6062 73.1663C86.5546 73.203 86.4925 73.2227 86.4287 73.2227C86.3649 73.2227 86.3027 73.203 86.2511 73.1663C86.1996 73.1296 86.1613 73.0779 86.1419 73.0186L79.8901 62.3875C79.7324 62.1218 79.8901 61.8979 80.1768 61.8979L92.7522 61.9399Z" fill="#FC6238"/>
</g>
<g opacity="0.4">
<path opacity="0.4" d="M67.2 50.1897H56.7469C56.1327 50.188 55.5288 50.3434 54.9954 50.6403C54.4621 50.9373 54.0178 51.3655 53.707 51.8822L48.4733 60.7508C48.1633 61.2687 48 61.8576 48 62.4573C48 63.057 48.1633 63.646 48.4733 64.1639L53.707 73.0184C54.0149 73.5387 54.4581 73.9705 54.9919 74.2701C55.5257 74.5698 56.131 74.7267 56.7469 74.725H67.2287C67.8427 74.7271 68.4463 74.5703 68.9778 74.2704C69.5093 73.9706 69.9498 73.5386 70.2542 73.0184L75.5023 64.1639C75.8052 63.6437 75.9645 63.0556 75.9645 62.4573C75.9645 61.859 75.8052 61.271 75.5023 60.7508L70.2542 51.8822C69.9444 51.3615 69.4984 50.9304 68.9617 50.633C68.4251 50.3357 67.8172 50.1827 67.2 50.1897Z" fill="#7CB5E5"/>
</g>
<path d="M68.5943 49.4063H58.0981C57.4844 49.4056 56.8814 49.5631 56.3501 49.8628C55.8189 50.1624 55.3781 50.5936 55.0725 51.1128L49.8245 59.9674C49.5216 60.4876 49.3623 61.0756 49.3623 61.6739C49.3623 62.2722 49.5216 62.8603 49.8245 63.3805L55.0725 72.249C55.381 72.7647 55.8228 73.1923 56.3537 73.4893C56.8846 73.7863 57.4861 73.9423 58.0981 73.9416H68.5943C69.2063 73.9423 69.8077 73.7863 70.3386 73.4893C70.8695 73.1923 71.3113 72.7647 71.6198 72.249L76.8535 63.3805C77.1634 62.8626 77.3268 62.2737 77.3268 61.6739C77.3268 61.0742 77.1634 60.4853 76.8535 59.9674L71.6198 51.1128C71.3142 50.5936 70.8735 50.1624 70.3422 49.8628C69.8109 49.5631 69.208 49.4056 68.5943 49.4063Z" fill="#7CB5E5"/>
</svg>
