<svg xmlns="http://www.w3.org/2000/svg" xmlns:xlink="http://www.w3.org/1999/xlink" viewBox="0 0 230 166"><defs><style>.cls-1,.cls-11,.cls-16,.cls-23,.cls-29,.cls-31{fill:none;}.cls-2{clip-path:url(#clip-path);}.cls-3{fill:#202020;}.cls-4{fill:#fff;stroke:#fff;}.cls-18,.cls-24,.cls-26,.cls-4{stroke-width:2px;}.cls-5{fill:#eadac3;}.cls-10,.cls-15,.cls-19,.cls-22,.cls-6,.cls-7{fill:#5b9635;}.cls-11,.cls-16,.cls-19,.cls-23,.cls-6,.cls-7{stroke:#4f7536;stroke-width:0.3px;}.cls-10,.cls-11,.cls-12,.cls-13,.cls-14,.cls-15,.cls-16,.cls-17,.cls-18,.cls-19,.cls-20,.cls-21,.cls-22,.cls-23,.cls-24,.cls-25,.cls-26,.cls-27,.cls-29,.cls-30,.cls-31,.cls-6,.cls-7,.cls-8,.cls-9{stroke-miterlimit:3.86;}.cls-10,.cls-11,.cls-12,.cls-6,.cls-8,.cls-9{opacity:0.8;}.cls-10,.cls-11,.cls-12,.cls-13,.cls-14,.cls-15,.cls-16,.cls-17,.cls-6,.cls-7,.cls-8,.cls-9{isolation:isolate;}.cls-13,.cls-14,.cls-15,.cls-16,.cls-17,.cls-7{opacity:0.9;}.cls-13,.cls-20,.cls-8{fill:#61a03d;}.cls-12,.cls-13,.cls-17,.cls-20,.cls-25,.cls-8{stroke:#61a03d;}.cls-14,.cls-21,.cls-9{fill:#729959;stroke:#729959;}.cls-10,.cls-12,.cls-14,.cls-15,.cls-17,.cls-21,.cls-22,.cls-25,.cls-27,.cls-29,.cls-9{stroke-width:0.5px;}.cls-10,.cls-15,.cls-22{stroke:#5b9635;}.cls-12,.cls-17,.cls-25{fill:#6aa842;}.cls-18,.cls-27,.cls-28,.cls-30{fill:#b56f35;}.cls-18,.cls-27,.cls-29,.cls-30,.cls-31{stroke:#b56f35;}.cls-24{fill:#d57d28;stroke:#d57d28;}.cls-26{fill:#d68a4c;stroke:#d68a4c;}.cls-27,.cls-29,.cls-30,.cls-31{stroke-linecap:round;}</style><clipPath id="clip-path"><rect class="cls-1" width="230" height="165.09" rx="6.7" ry="6.7"/></clipPath></defs><title>Asset 1</title><g id="Layer_2" data-name="Layer 2"><g id="Layer_1-2" data-name="Layer 1"><g class="cls-2"><rect class="cls-3" width="230" height="165.09" rx="6.7" ry="6.7"/><rect class="cls-4" x="1" y="1" width="228" height="164"/><path d="M59.82,145.36a4.1,4.1,0,0,1,2.88.91,3.47,3.47,0,0,1,1,2.72v5H61.82v-1a2.4,2.4,0,0,1-1.06.86,4.65,4.65,0,0,1-3.31,0,2.75,2.75,0,0,1-1.12-.91,2.35,2.35,0,0,1-.38-1.33,2.26,2.26,0,0,1,.84-1.84,4.27,4.27,0,0,1,2.71-.7h2.21v-.13a1.76,1.76,0,0,0-.55-1.38,2.28,2.28,0,0,0-1.58-.48,4.7,4.7,0,0,0-1.43.23,3.48,3.48,0,0,0-1.16.62l-.79-1.45a4.71,4.71,0,0,1,1.62-.79A7.21,7.21,0,0,1,59.82,145.36Zm-.27,7.3a2.59,2.59,0,0,0,1.32-.34,1.86,1.86,0,0,0,.84-1v-1H59.64c-1.15,0-1.73.37-1.73,1.13a1,1,0,0,0,.44.87A2,2,0,0,0,59.55,152.66Zm6.72-10.53h2V154h-2Zm12.66,7.65c0,.13,0,.33,0,.59H72.19a2.37,2.37,0,0,0,.92,1.5,3,3,0,0,0,1.85.55,3.11,3.11,0,0,0,2.32-.93l1.07,1.23a3.65,3.65,0,0,1-1.45,1,5.43,5.43,0,0,1-2,.35,5.24,5.24,0,0,1-2.48-.56A4.08,4.08,0,0,1,70.77,152a4.75,4.75,0,0,1,0-4.51,4.13,4.13,0,0,1,1.59-1.57,4.63,4.63,0,0,1,2.27-.56,4.41,4.41,0,0,1,2.22.56,3.71,3.71,0,0,1,1.54,1.55A4.65,4.65,0,0,1,78.93,149.78ZM74.61,147a2.39,2.39,0,0,0-1.63.58,2.31,2.31,0,0,0-.8,1.5H77A2.36,2.36,0,0,0,74.61,147Zm17-1.6a3.51,3.51,0,0,1,2.56.94,3.82,3.82,0,0,1,.94,2.8V154h-2v-4.64a2.46,2.46,0,0,0-.5-1.68,1.78,1.78,0,0,0-1.42-.58,2.09,2.09,0,0,0-1.62.68,2.67,2.67,0,0,0-.6,1.88V154H87v-4.64a2.46,2.46,0,0,0-.5-1.68,1.79,1.79,0,0,0-1.42-.58,2.12,2.12,0,0,0-1.64.66,2.77,2.77,0,0,0-.59,1.9V154h-2v-8.54h1.91v1.08a3.23,3.23,0,0,1,1.2-.88,4.11,4.11,0,0,1,1.6-.3,3.66,3.66,0,0,1,1.69.37,2.75,2.75,0,0,1,1.19,1.05,3.56,3.56,0,0,1,1.36-1A4.39,4.39,0,0,1,91.64,145.36Zm9.32,0a4.1,4.1,0,0,1,2.88.91,3.47,3.47,0,0,1,1,2.72v5H103v-1a2.4,2.4,0,0,1-1.06.86,4.65,4.65,0,0,1-3.31,0,2.75,2.75,0,0,1-1.12-.91,2.35,2.35,0,0,1-.38-1.33,2.26,2.26,0,0,1,.84-1.84,4.27,4.27,0,0,1,2.71-.7h2.21v-.13a1.72,1.72,0,0,0-.55-1.38,2.28,2.28,0,0,0-1.58-.48,4.7,4.7,0,0,0-1.43.23,3.48,3.48,0,0,0-1.16.62l-.79-1.45a4.71,4.71,0,0,1,1.62-.79A7.21,7.21,0,0,1,101,145.36Zm-.27,7.3a2.59,2.59,0,0,0,1.32-.34,1.86,1.86,0,0,0,.84-1v-1h-2.07c-1.15,0-1.73.37-1.73,1.13a1,1,0,0,0,.44.87A2,2,0,0,0,100.69,152.66Zm11.57-7.3a3.6,3.6,0,0,1,2.59.94,3.74,3.74,0,0,1,1,2.8V154h-2v-4.64a2.37,2.37,0,0,0-.53-1.68,1.94,1.94,0,0,0-1.5-.58,2.3,2.3,0,0,0-1.75.68,2.63,2.63,0,0,0-.64,1.9V154h-2v-8.54h1.91v1.1a3.1,3.1,0,0,1,1.25-.9A4.5,4.5,0,0,1,112.26,145.36Zm13.95.1-4,9.23a4.2,4.2,0,0,1-1.36,1.95,3.25,3.25,0,0,1-1.94.58,4,4,0,0,1-1.26-.21,2.65,2.65,0,0,1-1-.58l.8-1.47a2.17,2.17,0,0,0,1.47.59,1.32,1.32,0,0,0,.86-.27,2.31,2.31,0,0,0,.64-.91l.15-.34-3.73-8.57h2.08l2.69,6.32,2.7-6.32Zm9.14-1.83q-1.26,0-1.26,1.38v.51h2.35v1.6h-2.29V154h-2v-6.88h-1.4v-1.6h1.4V145a2.89,2.89,0,0,1,.8-2.16,3,3,0,0,1,2.26-.8,3.09,3.09,0,0,1,1.81.46l-.56,1.5A2,2,0,0,0,135.35,143.63Zm5.55,1.73a4.11,4.11,0,0,1,2.88.91,3.47,3.47,0,0,1,1,2.72v5H142.9v-1a2.4,2.4,0,0,1-1.06.86,4.65,4.65,0,0,1-3.31,0,2.75,2.75,0,0,1-1.12-.91,2.36,2.36,0,0,1-.39-1.33,2.26,2.26,0,0,1,.85-1.84,4.27,4.27,0,0,1,2.71-.7h2.2v-.13a1.75,1.75,0,0,0-.54-1.38,2.28,2.28,0,0,0-1.58-.48,4.7,4.7,0,0,0-1.43.23,3.43,3.43,0,0,0-1.17.62l-.78-1.45a4.71,4.71,0,0,1,1.62-.79A7.21,7.21,0,0,1,140.9,145.36Zm-.28,7.3a2.6,2.6,0,0,0,1.33-.34,1.84,1.84,0,0,0,.83-1v-1h-2.06c-1.15,0-1.73.37-1.73,1.13a1,1,0,0,0,.43.87A2,2,0,0,0,140.62,152.66Zm8.64-6a3.32,3.32,0,0,1,3-1.34v1.9a2.6,2.6,0,0,0-.46,0,2.41,2.41,0,0,0-1.82.68,2.69,2.69,0,0,0-.66,2V154h-2v-8.54h1.91Zm15.52-1.34a3.51,3.51,0,0,1,2.56.94,3.82,3.82,0,0,1,.94,2.8V154h-2v-4.64a2.46,2.46,0,0,0-.5-1.68,1.78,1.78,0,0,0-1.42-.58,2.09,2.09,0,0,0-1.62.68,2.67,2.67,0,0,0-.6,1.88V154h-2v-4.64a2.46,2.46,0,0,0-.5-1.68,1.79,1.79,0,0,0-1.42-.58,2.12,2.12,0,0,0-1.64.66,2.77,2.77,0,0,0-.59,1.9V154h-2v-8.54h1.91v1.08a3.23,3.23,0,0,1,1.2-.88,4.11,4.11,0,0,1,1.6-.3,3.66,3.66,0,0,1,1.69.37,2.75,2.75,0,0,1,1.19,1.05,3.56,3.56,0,0,1,1.36-1A4.39,4.39,0,0,1,164.78,145.36Zm8.7,8.75a7.72,7.72,0,0,1-2-.27,5,5,0,0,1-1.58-.69l.77-1.52a5,5,0,0,0,1.37.63,6.48,6.48,0,0,0,1.6.22c1.2,0,1.8-.32,1.8-.94a.64.64,0,0,0-.47-.63,7,7,0,0,0-1.45-.33,12.34,12.34,0,0,1-1.73-.37,2.74,2.74,0,0,1-1.15-.72,2,2,0,0,1-.48-1.46,2.25,2.25,0,0,1,1-1.93,4.58,4.58,0,0,1,2.76-.74,7.48,7.48,0,0,1,1.75.21,4.62,4.62,0,0,1,1.44.53l-.76,1.52a4.72,4.72,0,0,0-2.45-.64,2.73,2.73,0,0,0-1.35.27.78.78,0,0,0-.44.69.69.69,0,0,0,.48.68,7.61,7.61,0,0,0,1.52.37,12.09,12.09,0,0,1,1.68.37,2.63,2.63,0,0,1,1.12.7,2,2,0,0,1,.48,1.41,2.24,2.24,0,0,1-1,1.92A4.92,4.92,0,0,1,173.48,154.11Z"/><path class="cls-5" d="M117.86,116.6a33.58,33.58,0,0,1-10.81-4.15c-2.6-1.77-3.19-3-5.21-3.28-3.76-.61-5.72,2.94-10.19,4.75-7.1,2.91-17.75.3-22.48-5-3.78-4.23-1-7.13-5.81-12.75-3.18-3.72-5.09-3.29-8.11-7.15-2.69-3.45-5.84-9.74-3.34-12.42,3.18-3.38,13.32,1.82,16.31-1.78,1.43-1.71-.43-3.4.79-6.49,1.39-3.5,5.64-6.09,9.39-6.85,8.56-1.87,12,5.77,21.86,4.19,2.24-.36,4.73-1.22,8.21-.42a16.34,16.34,0,0,1,6,2.95c7.48,4.7,20,.89,21.67.38a31.24,31.24,0,0,0,6.25-2.86c4.31-2.73,3.55-5.51,6.48-6.41,2.61-.8,5.35.74,7.47,1.93a19.18,19.18,0,0,1,3.21,2.23,35.3,35.3,0,0,1,5.69,6.38c4.93,6.71,10.8,4.8,12.48,9.22s-4,7.21-7.9,18.63c-3.33,9.74-1.18,13.86-4.6,16.12-4.83,3.21-9.66-4.82-20.65-4.78C132.4,109.06,128.11,118.81,117.86,116.6Z"/><path class="cls-6" d="M77.65,111.5l-.09.1a.26.26,0,0,1-.13-.06.2.2,0,0,1-.06-.14,8.4,8.4,0,0,1,0-2.24c.09-.88-.29-1.22.19-2,.09-.1.09-.1.09-.19v.29A22,22,0,0,1,77.65,111.5Z"/><path class="cls-6" d="M79.36,111.5l-.1.1c-.09,0-.09-.2-.19-.2a10,10,0,0,1,.29-2.83,5,5,0,0,1,.47-2.63.28.28,0,0,0,.09-.19v.39C79.73,106.86,79.58,111,79.36,111.5Z"/><path class="cls-6" d="M77.08,112.77s0,.19-.09.19-.19-.19-.19-.29a23.58,23.58,0,0,1-.76-3.9,9.64,9.64,0,0,1-.47-3.66c0-.09,0-.29.09-.29a3.83,3.83,0,0,1,.1.59A65.17,65.17,0,0,1,77.08,112.77Z"/><path class="cls-7" d="M80.68,110.91l-.09.1a.21.21,0,0,1-.19-.19,8.48,8.48,0,0,1,0-2.25c.09-.87-.29-1.21.19-2,.09-.1.09-.1.09-.2v.29A20.51,20.51,0,0,1,80.68,110.91Z"/><path class="cls-7" d="M82.29,110.91l-.1.1c-.09,0-.09-.19-.18-.19a9.59,9.59,0,0,1,.28-2.83,5,5,0,0,1,.47-2.63.3.3,0,0,0,.1-.2v.39A48,48,0,0,1,82.29,110.91Z"/><path class="cls-7" d="M80.11,112.18s0,.2-.09.2-.19-.2-.19-.3a24.44,24.44,0,0,1-.76-3.9,9.59,9.59,0,0,1-.47-3.65c0-.1,0-.29.09-.29a3.7,3.7,0,0,1,.1.58A65.58,65.58,0,0,1,80.11,112.18Z"/><path class="cls-6" d="M133.8,108.48s-.09.19-.19.19-.19-.19-.19-.29a13.9,13.9,0,0,1,0-3.41c.1-1.22-.28-2,.29-3.12.09-.1.09-.2.18-.29V102C133.89,102.92,134.08,107.89,133.8,108.48Z"/><path class="cls-6" d="M135.88,108.48s-.09.19-.19.19-.19-.29-.19-.29a22.81,22.81,0,0,1,.29-4.29c.19-1.66-.19-2.53.56-4,.1-.2.1-.3.19-.39v.68C136.45,101.26,136.26,107.7,135.88,108.48Z"/><path class="cls-6" d="M133.13,110.43c0,.09,0,.29-.09.29s-.28-.29-.28-.39a51.89,51.89,0,0,1-.95-6c-.29-2.34-.85-3.31-.66-5.55a3.86,3.86,0,0,1,.09-.49,5.31,5.31,0,0,0,.19.88C131.66,100.49,133.23,109.29,133.13,110.43Z"/><path class="cls-7" d="M137.57,107.6s-.09.19-.19.19-.18-.19-.18-.29a13,13,0,0,1,0-3.41c.09-1.22-.29-2,.28-3.12.09-.09.09-.19.19-.29v.49A35.42,35.42,0,0,1,137.57,107.6Z"/><path class="cls-7" d="M139.76,107.6s-.09.19-.19.19-.19-.29-.19-.29a22.87,22.87,0,0,1,.29-4.29c.19-1.65-.19-2.53.57-4,.09-.2.09-.29.19-.39v.72C140.33,100.39,140.05,106.86,139.76,107.6Z"/><path class="cls-7" d="M136.92,109.55c0,.1,0,.29-.09.29s-.29-.29-.29-.39a54,54,0,0,1-.94-5.94c-.28-2.34-.85-3.32-.66-5.56a4.21,4.21,0,0,1,.09-.49,5.31,5.31,0,0,0,.19.88C135.41,99.61,137,108.38,136.92,109.55Z"/><path class="cls-8" d="M110.89,84c.09,1.37.37,2.24-.1,2.83-.66.78-1.51.1-2.65.88s-.66,1.65-2,3.21a4.34,4.34,0,0,1-1.61,1.37c-1.18.48-2-.2-3.88-.49-1-.1-3.12-.39-4.45.78S95.36,95.51,94,96c-1,.39-1.8-.58-3.55-.19-1,.19-1.42.68-1.61.58-.28-.29.76-1.66,2.27-4.19,1.71-2.92,1.42-2.92,2-3.51,2-1.85,4.07-.49,5.68-2.24,1.42-1.46.38-2.92,1.71-4.29s3-.58,6.34-1.07a19,19,0,0,0,5-1.66A7.7,7.7,0,0,0,110.89,84Z"/><path class="cls-9" d="M100,73.29A7.88,7.88,0,0,0,99.43,77c.19,1.21.57,1.56.76,2.92.09,1.07.28,2.53-.57,3.51-1,1.22-2.56.39-3.55,1.66-.48.58-.29,1-.67,2-.56,1.76-1.7,2.24-2.65,3.51-2.08,2.73-1.18,6-1.8,6.09s-2.55-3.21-1.89-6.33c.47-2.15,1.8-3,1.8-5.65,0-1.37-.38-1.47-.19-2.54s.66-2.34,3.22-4.58A43,43,0,0,1,100,73.29Z"/><path class="cls-10" d="M89.87,97.11c.76-.49.47-2.92-.19-4.39a19.76,19.76,0,0,0-1.9-2.63c-1.7-2.24-1.89-2.43-1.89-2.82-.28-1.76,1.18-2.73.76-3.66-.57-1.07-2.94.1-4.36-1.36-.85-.88-.28-1.66-1.18-2.64-.47-.48-1.18-.87-4.92-1-1.19,0-2.75,0-4.64.1a22,22,0,0,1,3.55,3.41,5.25,5.25,0,0,1,1.18,1.75c.47,1.22.1,1.85.47,3.12a5.17,5.17,0,0,0,1.61,2.34,12.21,12.21,0,0,0,3.41,2.24C86.68,93.56,88.64,97.76,89.87,97.11Z"/><path class="cls-9" d="M107.76,91.23a4.66,4.66,0,0,0-1.8,1.21c-.95,1-.75,1.76-1.42,2.93-.85,1.56-2.74,3.12-4.26,2.82-1-.19-.85-1.07-2.18-1.75A5.19,5.19,0,0,0,94.32,96c-1.71.39-2.37.78-2.47.59-.28-.29,1-2.05,3.41-3.66A11.09,11.09,0,0,1,99,91.32,18,18,0,0,1,107.76,91.23Z"/><path class="cls-6" d="M90.62,112.86c.19.69.48.39.57-.19.86-3,.29-17.74-.09-17.74S90,110.33,90.62,112.86Z"/><path class="cls-11" d="M112.11,79c-4.82,6.53-8.8,9-11.55,9.94a15.9,15.9,0,0,0-9.18,7.07,13,13,0,0,1,0-3.41,23.37,23.37,0,0,1,1.7-6.09,9.08,9.08,0,0,0,.48-1.22c.38-1.07.57-2,.66-2.24V83c.19-.68,1.7-3.41,5.92-9.75"/><path class="cls-11" d="M107.48,91.23a43.53,43.53,0,0,0-8,1.75s-4.83,1.22-7.29,3.12a1.07,1.07,0,0,1-.28.19l-.1.1"/><path class="cls-6" d="M91.57,112.28c.1.19.38.58.66.49s.29-.49.38-.59c.19-1.22-.66-11.89-1-16.57C91.29,101.26,90.91,111.3,91.57,112.28Z"/><path class="cls-11" d="M89.77,96.88a5.43,5.43,0,0,1-.66-1,8.86,8.86,0,0,1-.85-1.85c-.57-1.65-2.65-3.51-4.64-5.36-2.37-2-2.84-2-3.55-3.31-1-1.56-.85-2.44-1.52-3.66S76,79,71.55,78.51"/><path class="cls-12" d="M90.15,96.59c0-.2-.28-.2-1-.69-1.61-1.21-1.52-2-2.46-2.53-1.52-.68-2.75,1.22-4.26.49-.86-.39-.48-1.08-1.42-1.76-1.33-1-2.75,0-4.36-1A3.85,3.85,0,0,1,75,89.47c-.47,3.22.19,4.58,1,5.26,1.51,1.37,4.07.49,5.49,2.44.57.78.28,1.07.85,1.56C84.18,100.68,90.23,97.76,90.15,96.59Z"/><path class="cls-11" d="M90.15,96.59c-3.41.68-5.68.19-6.91-.49a28.37,28.37,0,0,0-3.13-1.66,12.06,12.06,0,0,1-2.84-1.22,7.42,7.42,0,0,1-2.17-3.8"/><path class="cls-7" d="M142.51,111.3c.19.88.57.49.76-.29,1-3.65.75-22.12.28-22.12S141.75,108.07,142.51,111.3Z"/><path class="cls-13" d="M169,75.24c.1,1.66.57,2.73-.09,3.66s-2,.09-3.32,1.07-.85,2-2.55,4a6.47,6.47,0,0,1-2,1.66c-1.52.59-2.46-.29-4.83-.58-1.33-.2-3.88-.49-5.59,1s-1.18,3.66-2.65,4.29c-1.32.49-2.18-.78-4.45-.29-1.18.29-1.8.87-2,.68-.38-.39.95-2,2.84-5.26,2.18-3.66,1.8-3.66,2.56-4.39,2.56-2.34,5-.58,7.1-2.73,1.8-1.85.38-3.65,2.18-5.36s3.79-.68,7.86-1.36a21,21,0,0,0,6.25-2A11.84,11.84,0,0,0,169,75.24Z"/><path class="cls-14" d="M155.48,62a8.7,8.7,0,0,0-.66,4.59c.19,1.56.75,2,.94,3.65.19,1.37.38,3.22-.66,4.39-1.18,1.46-3.12.48-4.45,2-.57.78-.38,1.22-.76,2.64-.75,2.24-2.08,2.72-3.31,4.38-2.56,3.41-1.42,7.51-2.27,7.6s-3.22-4-2.37-8c.57-2.73,2.27-3.8,2.27-7,0-1.65-.47-1.85-.28-3.12s.85-2.92,4-5.75A32.28,32.28,0,0,1,155.48,62Z"/><path class="cls-15" d="M142.8,91.62c1-.59.66-3.66-.29-5.46a25.9,25.9,0,0,0-2.36-3.32c-2.18-2.82-2.28-3-2.37-3.65-.38-2.24,1.51-3.41.94-4.58-.75-1.37-3.69.19-5.49-1.66-1.18-1.07-.38-2.14-1.51-3.31-.57-.59-1.52-1.22-6.16-1.22-1.42,0-3.41,0-5.77.1a30.14,30.14,0,0,1,4.54,4.28,7.21,7.21,0,0,1,1.52,2.25c.57,1.56.09,2.33.57,3.8a6.91,6.91,0,0,0,2,2.92,12.19,12.19,0,0,0,4.26,2.73C138.82,87.23,141.38,92.49,142.8,91.62Z"/><path class="cls-14" d="M165.23,84.31A6,6,0,0,0,163,85.86c-1.18,1.22-1,2.25-1.8,3.66-1.18,2-3.55,3.9-5.3,3.51-1.18-.29-1-1.22-2.75-2.24a6.92,6.92,0,0,0-4.73-.59c-2.18.49-2.94,1-3.13.78s1.19-2.53,4.26-4.58a14.46,14.46,0,0,1,4.64-2A22,22,0,0,1,165.23,84.31Z"/><path class="cls-7" d="M143.74,111.3c.19.78.57.49.76-.29,1-3.8.38-22.12-.1-22.12S142.89,108.18,143.74,111.3Z"/><path class="cls-16" d="M170.63,69.09c-5.92,8.19-11,11.21-14.48,12.38a19.6,19.6,0,0,0-7.67,4.28,21.67,21.67,0,0,0-3.89,4.59,22,22,0,0,1,0-4.29,31.56,31.56,0,0,1,2.18-7.51c.1-.19.29-.78.57-1.46a24.57,24.57,0,0,0,.76-2.83v-.09c.19-.88,2.08-4.29,7.29-12.19"/><path class="cls-16" d="M164.8,84.31a52.27,52.27,0,0,0-10,2.24s-6.06,1.46-9.09,3.9a.66.66,0,0,0-.28.29l-.09.1"/><path class="cls-7" d="M145,110.72c.1.19.47.68.76.58s.38-.58.38-.78c.28-1.46-.85-14.91-1.33-20.71C144.59,96.88,144.12,109.45,145,110.72Z"/><path class="cls-16" d="M142.79,91.42a11.91,11.91,0,0,1-.85-1.22,10.24,10.24,0,0,1-1-2.34c-.66-2-3.31-4.48-5.92-6.63-2.93-2.63-3.55-2.63-4.54-4.19-1.33-2-1-3-1.9-4.48-.94-1.66-3.22-3.41-8.8-4"/><path class="cls-17" d="M143.17,91c0-.29-.38-.29-1.18-.88-2.08-1.46-1.89-2.63-3-3.12-1.89-.88-3.55,1.56-5.3.68-1-.48-.57-1.36-1.8-2.24-1.71-1.22-3.41-.09-5.4-1.22a5.08,5.08,0,0,1-2-2c-.66,4,.19,5.75,1.19,6.63,1.89,1.75,5,.58,6.81,3,.67,1,.38,1.36,1,2C135.79,96.2,143.36,92.49,143.17,91Z"/><path class="cls-16" d="M143.17,91c-4.26.88-7.1.19-8.62-.59a26.54,26.54,0,0,0-3.88-2c-1.89-.78-2.55-.69-3.55-1.47a9.61,9.61,0,0,1-2.74-4.67"/><path class="cls-18" d="M88.16,111.4c.57-1,1-2.14,1.7-2.14s1,1,1.61.78.48-1,1-1.56c.85-.88,1.7.58,3.69.48,1.19,0,1.33-.58,2.18-.29a4.6,4.6,0,0,1,2.18,1.56c1.32,1.37,1.32,2,2.18,2.24s.85-.39,1.7-.19a3.69,3.69,0,0,1,1.89,1.46c.38.49.67,1,.86,1.22-3.13.19-6.35.29-9.66.39-4.36.1-8.62,0-12.69-.2A11.16,11.16,0,0,0,88.16,111.4Z"/><path class="cls-19" d="M115.43,107.79c-.28,1.08-.66.59-.94-.29-1.33-4.68-.95-27.68-.29-27.68S116.38,103.8,115.43,107.79Z"/><path class="cls-20" d="M82.19,62.76c-.09,2.05-.66,3.42.19,4.49,1,1.22,2.47.19,4.17,1.36s1,2.54,3.13,5a6.19,6.19,0,0,0,2.46,2c1.89.78,3.12-.39,5.91-.68,1.61-.2,4.83-.59,7,1.22s1.33,4.58,3.32,5.36c1.61.68,2.74-1,5.49-.39,1.51.39,2.27,1.22,2.46.87.47-.48-1.19-2.53-3.55-6.53C110,70.9,110.6,70.9,109.65,70c-3.12-2.83-6.34-.78-8.8-3.42-2.18-2.33-.57-4.58-2.65-6.72s-4.64-.88-9.85-1.76a28.77,28.77,0,0,1-7.86-2.53A13.83,13.83,0,0,1,82.19,62.76Z"/><path class="cls-21" d="M99.14,46.1a11.26,11.26,0,0,1,.86,5.65c-.29,2-1,2.44-1.19,4.68-.19,1.66-.47,4,.86,5.46,1.61,1.85,4,.58,5.49,2.53.76,1,.38,1.56,1,3.22,1,2.82,2.65,3.51,4.16,5.46,3.22,4.28,1.8,9.35,2.85,9.45s4-5,3-9.94c-.67-3.41-2.85-4.68-2.85-8.77,0-2.15.57-2.25.38-4s-1-3.65-5-7.21A60,60,0,0,0,99.14,46.1Z"/><path class="cls-22" d="M115.09,83.14c-1.19-.78-.76-4.49.38-6.92a31.22,31.22,0,0,1,3-4.1c2.65-3.51,2.93-3.8,3-4.48.47-2.73-1.9-4.29-1.19-5.66,1-1.65,4.64.2,6.82-2,1.33-1.37.47-2.63,1.8-4.1.76-.78,1.89-1.46,7.67-1.56,1.8,0,4.26,0,7.19.2a36.9,36.9,0,0,0-5.68,5.36,8.62,8.62,0,0,0-1.79,2.73c-.76,1.95-.1,2.92-.67,4.78A8.32,8.32,0,0,1,133.22,71a16.55,16.55,0,0,1-5.3,3.41C120.07,77.68,116.85,84.31,115.09,83.14Z"/><path class="cls-21" d="M87,74.07a7.34,7.34,0,0,1,2.85,2c1.42,1.56,1.18,2.73,2.27,4.58C93.56,83,96.49,85.47,98.77,85c1.51-.39,1.32-1.66,3.55-2.83a8.71,8.71,0,0,1,5.91-.78c2.66.59,3.56,1.22,3.89,1s-1.52-3.12-5.31-5.75a16.29,16.29,0,0,0-5.91-2.44A30,30,0,0,0,87,74.07Z"/><path class="cls-19" d="M113.82,107.79c-.28,1.08-.66.59-.94-.39-1.19-4.67-.48-27.68.18-27.68S115,103.9,113.82,107.79Z"/><path class="cls-23" d="M80.21,55.06C87.69,65.3,93.94,69,98.29,70.56A26.68,26.68,0,0,1,108,75.83a25.93,25.93,0,0,1,4.83,5.75,25.27,25.27,0,0,0,0-5.36A37.37,37.37,0,0,0,110,66.76c-.09-.29-.38-.88-.66-1.85-.57-1.76-.85-3.12-1-3.51v-.1c-.19-1.22-2.65-5.36-9.09-15.3"/><path class="cls-23" d="M87.5,74.07A75.2,75.2,0,0,1,99.9,76.8s7.58,1.75,11.36,4.87l.38.39.1.1"/><path class="cls-19" d="M112.12,106.86c-.1.19-.19.58-.38.58s-.48-.68-.57-1c-.66-2.15.09-10.33.19-13,.19-5.06-.85-7.4.85-12.08.19-.49.29-.78.38-1.07v1.94C112.59,85.18,112.88,104.48,112.12,106.86Z"/><path class="cls-23" d="M115.09,82.94a7.58,7.58,0,0,0,1-1.46,12.47,12.47,0,0,0,1.32-2.93c.86-2.53,4.17-5.55,7.3-8.28,3.69-3.22,4.35-3.22,5.68-5.17,1.61-2.53,1.32-3.8,2.36-5.55,1.19-2,4-4.29,11-5"/><path class="cls-24" d="M98.67,111c1.19-1.56,2-3.22,3.41-3.31s2.37,1.46,3.55,1.07.76-1.56,1.9-2.34c1.7-1.22,3.69.78,8,.68,2.56-.1,2.74-.87,4.83-.58a11.5,11.5,0,0,1,4.92,2.34c3,1.95,3.22,3,5,3.31s1.8-.58,3.79-.29a9.78,9.78,0,0,1,4.35,2.14c1.42,1.08,2.18,1.56,2.09,2-.19,1.56-10.14.88-20.84,1-16.28.19-27.22,2.14-27.55.19C91.76,115.89,95.36,115.5,98.67,111Z"/><path class="cls-25" d="M114.67,82.49c.1-.39.47-.39,1.61-1.22,2.56-1.75,2.37-3.22,3.79-3.9,2.37-1.07,4.35,1.95,6.63.78,1.32-.68.75-1.65,2.17-2.73,2.18-1.56,4.26-.09,6.82-1.46a6.74,6.74,0,0,0,2.56-2.63c.76,5.07-.29,7.21-1.42,8.28-2.37,2.15-6.35.78-8.52,3.66-.86,1.22-.48,1.66-1.19,2.44C123.86,88.89,114.39,84.31,114.67,82.49Z"/><path class="cls-23" d="M114.67,82.49c5.31,1.22,8.81.29,10.8-.78a38.92,38.92,0,0,1,4.83-2.63c2.36-1,3.12-.88,4.45-1.76a14.11,14.11,0,0,0,3.55-5.84"/><path class="cls-26" d="M115.43,109.74c.47-.78,1.8-3.11,3.55-3.11,1.52,0,2.18,1.65,3.55,1.36,1-.29.85-1.46,2-2.24,1.8-1.22,3.55,1.07,8,1.22,2.56.09,2.85-.69,4.83-.2A11.68,11.68,0,0,1,142,109.4c2.84,2.15,3,3.22,4.73,3.66s1.89-.49,3.79-.1a10,10,0,0,1,4.26,2.44c.85.78,1.51,1.56,2,2-6.72-.29-13.73-.48-20.83-.48-11.27-.1-22.16.19-32.57.78C110.7,115.11,113.9,112.18,115.43,109.74Z"/><path class="cls-26" d="M72.54,113.35c.85-1.22,1.51-2.53,2.55-2.63s1.71,1.22,2.66.88c.75-.3.66-1.22,1.42-1.85,1.32-1.08,2.74.68,5.91.58,1.9,0,2.09-.68,3.55-.39a9.09,9.09,0,0,1,3.55,1.85c2.18,1.66,2.37,2.44,3.7,2.73s1.32-.49,2.84-.19a7.7,7.7,0,0,1,3.22,1.75c.38.39.94.88,1.51,1.56-5,.29-10.22.39-15.53.49-7.1.09-13.91.09-20.54-.1a17.63,17.63,0,0,0,3.12-2.53A19.78,19.78,0,0,0,72.54,113.35Z"/><path class="cls-24" d="M141.37,113.16c.67-1,1.19-2.25,2.09-2.25s1.32,1.08,2.08.88.57-1.07,1.18-1.66c1-.87,2.08.69,4.64.59,1.52,0,1.61-.59,2.84-.29a6.58,6.58,0,0,1,2.75,1.75c1.7,1.46,1.8,2.24,2.74,2.44s1.05-.39,2.18-.2a5.58,5.58,0,0,1,2.46,1.56,7,7,0,0,1,1.19,1.46c-4,.1-8.05.2-12.22.2-5.58,0-10.89-.2-16.09-.49A11.69,11.69,0,0,0,141.37,113.16Z"/><path class="cls-18" d="M121.68,113.45c.57-1,1-2.15,1.7-2.15s1.05,1,1.61.78.48-1,1-1.56c.85-.87,1.7.59,3.69.49,1.19,0,1.33-.58,2.18-.29a4.6,4.6,0,0,1,2.18,1.56c1.32,1.36,1.32,2,2.18,2.24s.85-.39,1.7-.2a3.76,3.76,0,0,1,1.89,1.47c.38.49.67,1,.86,1.22-3.13.19-6.35.29-9.66.39-4.36.09-8.62,0-12.69-.2A11,11,0,0,0,121.68,113.45Z"/><path class="cls-27" d="M95.17,119.49c.1,0,.19,0,.19-.1s-.09-.09-.19-.09-.19,0-.19.09S95.06,119.49,95.17,119.49Z"/><path class="cls-28" d="M97,119a.35.35,0,0,1-.06.14.31.31,0,0,1-.13.06c-.1,0-.29,0-.29-.1"/><path class="cls-29" d="M97,119a.35.35,0,0,1-.06.14.31.31,0,0,1-.13.06c-.1,0-.29,0-.29-.1"/><path class="cls-28" d="M94,117.74a.3.3,0,1,0-.38-.3A.34.34,0,0,0,94,117.74Z"/><path class="cls-28" d="M95,118.13a.3.3,0,1,0-.38-.3A.34.34,0,0,0,95,118.13Z"/><path class="cls-28" d="M96.59,116.57a.3.3,0,1,0-.38-.29A.34.34,0,0,0,96.59,116.57Z"/><path class="cls-28" d="M97.25,118a.3.3,0,1,0-.38-.29A.34.34,0,0,0,97.25,118Z"/><path class="cls-28" d="M97.82,118.42a.3.3,0,1,0-.38-.29A.34.34,0,0,0,97.82,118.42Z"/><path class="cls-28" d="M97.82,118.42a.3.3,0,1,0-.38-.29A.34.34,0,0,0,97.82,118.42Z"/><path class="cls-27" d="M103,119.39c.15,0,.28-.08.28-.19s-.13-.2-.28-.2-.29.09-.29.2S102.87,119.39,103,119.39Z"/><path class="cls-28" d="M160.31,118.61c0,.1-.1.2-.28.2s-.29-.1-.29-.2"/><path class="cls-29" d="M160.31,118.61c0,.1-.1.2-.28.2s-.29-.1-.29-.2"/><path class="cls-28" d="M101.23,115.5a.35.35,0,0,0,.38-.3.39.39,0,0,0-.76,0A.35.35,0,0,0,101.23,115.5Z"/><path class="cls-28" d="M102.08,115.89a.35.35,0,0,0,.38-.3.39.39,0,0,0-.76,0A.35.35,0,0,0,102.08,115.89Z"/><path class="cls-28" d="M103.79,114.33a.35.35,0,0,0,.37-.3.34.34,0,0,0-.37-.29.34.34,0,0,0-.38.29A.35.35,0,0,0,103.79,114.33Z"/><path class="cls-28" d="M104.35,115.79a.3.3,0,1,0-.38-.29A.34.34,0,0,0,104.35,115.79Z"/><path class="cls-28" d="M105,116.18a.3.3,0,1,0,0-.59.3.3,0,1,0,0,.59Z"/><path class="cls-28" d="M105,116.18a.3.3,0,1,0,0-.59.3.3,0,1,0,0,.59Z"/><path class="cls-30" d="M141.76,117.76c.15,0,.25-.16.23-.26s-.18-.15-.33-.11-.25.16-.22.26S141.61,117.81,141.76,117.76Z"/><path class="cls-28" d="M143.17,117.64c0,.1-.09.19-.19.29s-.28,0-.38-.1"/><path class="cls-31" d="M143.17,117.64c0,.1-.09.19-.19.29s-.28,0-.38-.1"/><path class="cls-28" d="M141.23,119a.36.36,0,0,0,.29-.39.33.33,0,0,0-.44-.18c-.21.06-.34.23-.29.39A.35.35,0,0,0,141.23,119Z"/><path class="cls-28" d="M142.16,119.11c.21,0,.34-.23.29-.38a.33.33,0,0,0-.44-.18c-.2.06-.33.23-.29.38A.33.33,0,0,0,142.16,119.11Z"/><path class="cls-28" d="M105.49,118.71a.3.3,0,1,0-.38-.29A.34.34,0,0,0,105.49,118.71Z"/><path class="cls-28" d="M144.25,118.45a.36.36,0,0,0,.29-.39.35.35,0,0,0-.44-.18.36.36,0,0,0-.29.39A.35.35,0,0,0,144.25,118.45Z"/><path class="cls-28" d="M145,118.63a.36.36,0,0,0,.29-.39.35.35,0,0,0-.44-.18c-.21.06-.34.23-.29.39S144.8,118.68,145,118.63Z"/><path class="cls-28" d="M145,118.63a.36.36,0,0,0,.29-.39.35.35,0,0,0-.44-.18c-.21.06-.34.23-.29.39S144.8,118.68,145,118.63Z"/><path class="cls-28" d="M117.7,114.71c0,.1-.09.2-.28.2s-.28-.1-.28-.2"/><path class="cls-29" d="M117.7,114.71c0,.1-.09.2-.28.2s-.28-.1-.28-.2"/><path class="cls-28" d="M101.23,115.5a.35.35,0,0,0,.38-.3.39.39,0,0,0-.76,0A.35.35,0,0,0,101.23,115.5Z"/><path class="cls-28" d="M102.08,115.89a.35.35,0,0,0,.38-.3.39.39,0,0,0-.76,0A.35.35,0,0,0,102.08,115.89Z"/><path class="cls-28" d="M103.79,114.33a.35.35,0,0,0,.37-.3.34.34,0,0,0-.37-.29.34.34,0,0,0-.38.29A.35.35,0,0,0,103.79,114.33Z"/><path class="cls-28" d="M104.35,115.79a.3.3,0,1,0-.38-.29A.34.34,0,0,0,104.35,115.79Z"/><path class="cls-28" d="M105,116.18a.3.3,0,1,0,0-.59.3.3,0,1,0,0,.59Z"/><path class="cls-28" d="M105,116.18a.3.3,0,1,0,0-.59.3.3,0,1,0,0,.59Z"/><path class="cls-27" d="M102.08,118.42c.16,0,.28-.09.28-.2s-.12-.19-.28-.19-.28.09-.28.19S101.92,118.42,102.08,118.42Z"/><path class="cls-28" d="M101.61,118.61c0,.1-.1.2-.29.2s-.28-.1-.28-.2"/><path class="cls-29" d="M101.61,118.61c0,.1-.1.2-.29.2s-.28-.1-.28-.2"/><path class="cls-28" d="M164.1,118.52a.3.3,0,1,0-.38-.3A.34.34,0,0,0,164.1,118.52Z"/><path class="cls-28" d="M165,118.91a.3.3,0,1,0-.38-.3A.34.34,0,0,0,165,118.91Z"/><path class="cls-28" d="M166.56,117.35a.3.3,0,1,0-.38-.29A.34.34,0,0,0,166.56,117.35Z"/><path class="cls-28" d="M167.22,118.81a.34.34,0,0,0,.38-.29.39.39,0,0,0-.76,0A.34.34,0,0,0,167.22,118.81Z"/><path class="cls-28" d="M105,116.18a.3.3,0,1,0,0-.59.3.3,0,1,0,0,.59Z"/><path class="cls-28" d="M167.79,119.2a.34.34,0,0,0,.38-.29.39.39,0,0,0-.76,0A.34.34,0,0,0,167.79,119.2Z"/><path class="cls-28" d="M63.45,119.1a.3.3,0,1,0-.38-.29A.34.34,0,0,0,63.45,119.1Z"/><path class="cls-28" d="M64.3,119.49a.3.3,0,1,0-.38-.29A.34.34,0,0,0,64.3,119.49Z"/><path class="cls-28" d="M65.91,117.93a.3.3,0,1,0-.38-.29A.34.34,0,0,0,65.91,117.93Z"/><path class="cls-28" d="M66.57,119.39a.3.3,0,1,0-.38-.29A.34.34,0,0,0,66.57,119.39Z"/><path class="cls-28" d="M67.14,119.78a.3.3,0,1,0-.38-.29A.34.34,0,0,0,67.14,119.78Z"/><path class="cls-28" d="M74.91,120.08a.34.34,0,0,0,.37-.3.33.33,0,0,0-.37-.29.34.34,0,0,0-.38.29A.35.35,0,0,0,74.91,120.08Z"/><path class="cls-28" d="M72.35,119.39a.3.3,0,1,0-.38-.29A.34.34,0,0,0,72.35,119.39Z"/><path class="cls-28" d="M67.05,117.64a.3.3,0,1,0-.38-.29A.34.34,0,0,0,67.05,117.64Z"/><path class="cls-28" d="M75.38,119.39a.3.3,0,1,0-.38-.29A.34.34,0,0,0,75.38,119.39Z"/><path class="cls-28" d="M76,119.49a.3.3,0,1,0-.38-.29A.34.34,0,0,0,76,119.49Z"/><path class="cls-19" d="M124.71,110.62s-.09.2-.19.2-.19-.2-.19-.3a13.9,13.9,0,0,1,0-3.41c.1-1.22-.28-2,.29-3.12.09-.09.09-.19.19-.29v.49A37.31,37.31,0,0,1,124.71,110.62Z"/><path class="cls-19" d="M126.92,110.51s-.09.2-.19.2-.19-.3-.19-.3a22.71,22.71,0,0,1,.29-4.28c.19-1.66-.19-2.54.56-4,.1-.2.1-.29.19-.39v.68C127.46,103.41,127.26,109.84,126.92,110.51Z"/><path class="cls-19" d="M124.05,112.57c0,.1,0,.29-.1.29s-.28-.29-.28-.39a51.72,51.72,0,0,1-1-5.94c-.28-2.34-.85-3.32-.66-5.56a3.7,3.7,0,0,1,.09-.48,5.19,5.19,0,0,0,.19.87C122.53,102.53,124.24,111.4,124.05,112.57Z"/><path class="cls-19" d="M82.1,112.28l-.09.1c-.1,0-.1-.1-.19-.2a8.4,8.4,0,0,1,0-2.24c.09-.88-.29-1.22.19-2,0-.1.09-.1.09-.19V108C82.2,108.67,82.39,112,82.1,112.28Z"/><path class="cls-19" d="M83.71,112.57l-.09.1c-.1,0-.1-.2-.19-.2a13.16,13.16,0,0,1,.19-2.73c.09-1.07-.1-1.65.38-2.53a.34.34,0,0,0,.09-.2v.39A23.53,23.53,0,0,1,83.71,112.57Z"/><path class="cls-19" d="M81.63,113.45s0,.19-.1.19-.19-.19-.19-.29c-.28-.68-.56-3.22-.75-4-.19-1.56-.67-2.34-.48-3.65,0-.1,0-.29.1-.29a2.8,2.8,0,0,1,.09.58A75.14,75.14,0,0,1,81.63,113.45Z"/><path class="cls-28" d="M83,114.42a.3.3,0,1,0-.38-.29A.34.34,0,0,0,83,114.42Z"/><path class="cls-28" d="M85.79,113.74a.3.3,0,1,0-.38-.29A.34.34,0,0,0,85.79,113.74Z"/><path class="cls-28" d="M82.39,113.74a.3.3,0,1,0-.38-.29A.34.34,0,0,0,82.39,113.74Z"/><path class="cls-28" d="M81.72,113.84a.3.3,0,1,0-.38-.29A.34.34,0,0,0,81.72,113.84Z"/><path class="cls-19" d="M160.31,115.3s.09.2.19.2.19-.2.19-.3a13.9,13.9,0,0,0,0-3.41c-.1-1.22.28-2-.29-3.12-.09-.1-.09-.19-.19-.29v.49C160.21,109.74,160.06,114.71,160.31,115.3Z"/><path class="cls-19" d="M158.23,115.3s.09.2.19.2.19-.3.19-.3a22.87,22.87,0,0,0-.29-4.29c-.19-1.65.19-2.53-.57-4-.09-.2-.09-.29-.18-.39v.68C157.57,108.07,157.85,114.52,158.23,115.3Z"/><path class="cls-19" d="M161,117.25c0,.1,0,.29.1.29s.28-.29.28-.39a51.72,51.72,0,0,0,1-5.94c.28-2.34.85-3.32.66-5.56a4.21,4.21,0,0,0-.09-.49,5.31,5.31,0,0,1-.19.88C162.49,107.31,160.88,116.08,161,117.25Z"/><path class="cls-19" d="M157.38,116.08l.09.1c.09,0,.09-.2.09-.2,0-.84-.08-1.69-.18-2.53a5,5,0,0,0-.38-2.34.3.3,0,0,1-.1-.2v.39C157,111.79,157.18,115.59,157.38,116.08Z"/><path class="cls-19" d="M156,116.18l.09.1c.1,0,.1-.2.1-.3a19.28,19.28,0,0,0-.48-3.21,7.76,7.76,0,0,0-.57-3,.64.64,0,0,1-.08-.14.43.43,0,0,1,0-.16,1.16,1.16,0,0,0,.09.49A43.76,43.76,0,0,0,156,116.18Z"/><path class="cls-19" d="M157.94,117.54c0,.1,0,.2.1.2s.19-.2.19-.3a33.33,33.33,0,0,0,.28-4.58,16.65,16.65,0,0,0,.1-4.29c0-.19-.1-.29-.1-.39a2.61,2.61,0,0,1-.09.69C158.42,109.84,157.85,116.67,157.94,117.54Z"/><path class="cls-28" d="M159.17,117.54c.21,0,.38-.08.38-.19s-.17-.2-.38-.2-.38.09-.38.2S159,117.54,159.17,117.54Z"/><path class="cls-28" d="M158.32,117.83c.21,0,.38-.08.38-.19s-.17-.2-.38-.2-.38.09-.38.2S158.11,117.83,158.32,117.83Z"/><path class="cls-28" d="M156.71,116.57c.21,0,.38-.09.38-.2s-.17-.19-.38-.19-.38.08-.38.19S156.5,116.57,156.71,116.57Z"/><path class="cls-28" d="M156.05,117.74c.21,0,.38-.09.38-.2s-.17-.19-.38-.19-.38.08-.38.19S155.84,117.74,156.05,117.74Z"/><path class="cls-28" d="M155.39,118c.21,0,.38-.09.38-.2s-.17-.19-.38-.19-.38.09-.38.19S155.18,118,155.39,118Z"/></g></g></g></svg>