<svg width="230" height="165" viewBox="0 0 230 165" fill="none" xmlns="http://www.w3.org/2000/svg">
<rect width="230" height="164.983" rx="6.7" fill="white"/>
<path d="M24.3114 147.312C23.618 147.312 22.9407 147.222 22.2794 147.04C21.618 146.859 21.09 146.63 20.6954 146.352L21.4634 144.832C21.8474 145.088 22.306 145.296 22.8394 145.456C23.3834 145.606 23.9167 145.68 24.4394 145.68C25.634 145.68 26.2314 145.366 26.2314 144.736C26.2314 144.438 26.0767 144.23 25.7674 144.112C25.4687 143.995 24.9834 143.883 24.3114 143.776C23.6074 143.67 23.0314 143.547 22.5834 143.408C22.146 143.27 21.762 143.03 21.4314 142.688C21.1114 142.336 20.9514 141.851 20.9514 141.232C20.9514 140.422 21.2874 139.776 21.9594 139.296C22.642 138.806 23.5594 138.56 24.7114 138.56C25.298 138.56 25.8847 138.63 26.4714 138.768C27.058 138.896 27.538 139.072 27.9114 139.296L27.1434 140.816C26.418 140.39 25.602 140.176 24.6954 140.176C24.1087 140.176 23.6607 140.267 23.3514 140.448C23.0527 140.619 22.9034 140.848 22.9034 141.136C22.9034 141.456 23.0634 141.686 23.3834 141.824C23.714 141.952 24.2207 142.075 24.9034 142.192C25.586 142.299 26.146 142.422 26.5834 142.56C27.0207 142.699 27.394 142.934 27.7034 143.264C28.0234 143.595 28.1834 144.064 28.1834 144.672C28.1834 145.472 27.8367 146.112 27.1434 146.592C26.45 147.072 25.506 147.312 24.3114 147.312ZM35.0418 146.736C34.8071 146.928 34.5191 147.072 34.1778 147.168C33.8471 147.264 33.4951 147.312 33.1218 147.312C32.1831 147.312 31.4578 147.067 30.9457 146.576C30.4338 146.086 30.1778 145.371 30.1778 144.432V140.32H28.7698V138.72H30.1778V136.768H32.1778V138.72H34.4658V140.32H32.1778V144.384C32.1778 144.8 32.2791 145.12 32.4818 145.344C32.6844 145.558 32.9778 145.664 33.3618 145.664C33.8098 145.664 34.1831 145.547 34.4818 145.312L35.0418 146.736ZM44.959 138.656V147.2H43.055V146.112C42.735 146.496 42.335 146.795 41.855 147.008C41.375 147.211 40.8577 147.312 40.303 147.312C39.1617 147.312 38.2603 146.998 37.599 146.368C36.9483 145.728 36.623 144.784 36.623 143.536V138.656H38.623V143.264C38.623 144.032 38.7937 144.608 39.135 144.992C39.487 145.366 39.983 145.552 40.623 145.552C41.3377 145.552 41.903 145.334 42.319 144.896C42.7457 144.448 42.959 143.808 42.959 142.976V138.656H44.959ZM55.9456 135.328V147.2H54.0256V146.096C53.695 146.502 53.2843 146.806 52.7936 147.008C52.3136 147.211 51.7803 147.312 51.1936 147.312C50.3723 147.312 49.631 147.131 48.9696 146.768C48.319 146.406 47.807 145.894 47.4336 145.232C47.0603 144.56 46.8736 143.792 46.8736 142.928C46.8736 142.064 47.0603 141.302 47.4336 140.64C47.807 139.979 48.319 139.467 48.9696 139.104C49.631 138.742 50.3723 138.56 51.1936 138.56C51.759 138.56 52.2763 138.656 52.7456 138.848C53.215 139.04 53.615 139.328 53.9456 139.712V135.328H55.9456ZM51.4336 145.6C51.9136 145.6 52.3456 145.494 52.7296 145.28C53.1136 145.056 53.4176 144.742 53.6416 144.336C53.8656 143.931 53.9776 143.462 53.9776 142.928C53.9776 142.395 53.8656 141.926 53.6416 141.52C53.4176 141.115 53.1136 140.806 52.7296 140.592C52.3456 140.368 51.9136 140.256 51.4336 140.256C50.9536 140.256 50.5216 140.368 50.1376 140.592C49.7536 140.806 49.4496 141.115 49.2256 141.52C49.0016 141.926 48.8896 142.395 48.8896 142.928C48.8896 143.462 49.0016 143.931 49.2256 144.336C49.4496 144.742 49.7536 145.056 50.1376 145.28C50.5216 145.494 50.9536 145.6 51.4336 145.6ZM66.594 142.976C66.594 143.115 66.5833 143.312 66.562 143.568H59.858C59.9753 144.198 60.2793 144.699 60.77 145.072C61.2713 145.435 61.89 145.616 62.626 145.616C63.5647 145.616 64.338 145.307 64.946 144.688L66.018 145.92C65.634 146.379 65.1487 146.726 64.562 146.96C63.9753 147.195 63.314 147.312 62.578 147.312C61.6393 147.312 60.8127 147.126 60.098 146.752C59.3833 146.379 58.8287 145.862 58.434 145.2C58.05 144.528 57.858 143.771 57.858 142.928C57.858 142.096 58.0447 141.35 58.418 140.688C58.802 140.016 59.33 139.494 60.002 139.12C60.674 138.747 61.4313 138.56 62.274 138.56C63.106 138.56 63.8473 138.747 64.498 139.12C65.1593 139.483 65.6713 140 66.034 140.672C66.4073 141.334 66.594 142.102 66.594 142.976ZM62.274 140.16C61.634 140.16 61.09 140.352 60.642 140.736C60.2047 141.11 59.938 141.611 59.842 142.24H64.69C64.6047 141.622 64.3433 141.12 63.906 140.736C63.4687 140.352 62.9247 140.16 62.274 140.16ZM73.3631 138.56C74.4405 138.56 75.3045 138.875 75.9551 139.504C76.6058 140.134 76.9311 141.067 76.9311 142.304V147.2H74.9311V142.56C74.9311 141.814 74.7551 141.254 74.4031 140.88C74.0511 140.496 73.5498 140.304 72.8991 140.304C72.1631 140.304 71.5818 140.528 71.1551 140.976C70.7285 141.414 70.5151 142.048 70.5151 142.88V147.2H68.5151V138.656H70.4191V139.76C70.7498 139.366 71.1658 139.067 71.6671 138.864C72.1685 138.662 72.7338 138.56 73.3631 138.56ZM84.6043 146.736C84.3696 146.928 84.0816 147.072 83.7403 147.168C83.4096 147.264 83.0576 147.312 82.6843 147.312C81.7456 147.312 81.0203 147.067 80.5082 146.576C79.9963 146.086 79.7403 145.371 79.7403 144.432V140.32H78.3323V138.72H79.7403V136.768H81.7403V138.72H84.0283V140.32H81.7403V144.384C81.7403 144.8 81.8416 145.12 82.0443 145.344C82.2469 145.558 82.5403 145.664 82.9243 145.664C83.3723 145.664 83.7456 145.547 84.0443 145.312L84.6043 146.736ZM94.1434 136.832C93.3007 136.832 92.8794 137.291 92.8794 138.208V138.72H95.2314V140.32H92.9434V147.2H90.9434V140.32H89.5354V138.72H90.9434V138.176C90.9434 137.259 91.21 136.539 91.7434 136.016C92.2767 135.483 93.0287 135.216 93.9994 135.216C94.7674 135.216 95.37 135.371 95.8074 135.68L95.2474 137.184C94.906 136.95 94.538 136.832 94.1434 136.832ZM100.293 147.312C99.4286 147.312 98.65 147.126 97.9566 146.752C97.2633 146.379 96.7193 145.862 96.3246 145.2C95.9406 144.528 95.7486 143.771 95.7486 142.928C95.7486 142.086 95.9406 141.334 96.3246 140.672C96.7193 140.011 97.2633 139.494 97.9566 139.12C98.65 138.747 99.4286 138.56 100.293 138.56C101.167 138.56 101.951 138.747 102.645 139.12C103.338 139.494 103.877 140.011 104.261 140.672C104.655 141.334 104.853 142.086 104.853 142.928C104.853 143.771 104.655 144.528 104.261 145.2C103.877 145.862 103.338 146.379 102.645 146.752C101.951 147.126 101.167 147.312 100.293 147.312ZM100.293 145.6C101.029 145.6 101.637 145.355 102.117 144.864C102.597 144.374 102.837 143.728 102.837 142.928C102.837 142.128 102.597 141.483 102.117 140.992C101.637 140.502 101.029 140.256 100.293 140.256C99.5566 140.256 98.9486 140.502 98.4686 140.992C97.9993 141.483 97.7646 142.128 97.7646 142.928C97.7646 143.728 97.9993 144.374 98.4686 144.864C98.9486 145.355 99.5566 145.6 100.293 145.6ZM110.605 147.312C109.741 147.312 108.962 147.126 108.269 146.752C107.576 146.379 107.032 145.862 106.637 145.2C106.253 144.528 106.061 143.771 106.061 142.928C106.061 142.086 106.253 141.334 106.637 140.672C107.032 140.011 107.576 139.494 108.269 139.12C108.962 138.747 109.741 138.56 110.605 138.56C111.48 138.56 112.264 138.747 112.957 139.12C113.65 139.494 114.189 140.011 114.573 140.672C114.968 141.334 115.165 142.086 115.165 142.928C115.165 143.771 114.968 144.528 114.573 145.2C114.189 145.862 113.65 146.379 112.957 146.752C112.264 147.126 111.48 147.312 110.605 147.312ZM110.605 145.6C111.341 145.6 111.949 145.355 112.429 144.864C112.909 144.374 113.149 143.728 113.149 142.928C113.149 142.128 112.909 141.483 112.429 140.992C111.949 140.502 111.341 140.256 110.605 140.256C109.869 140.256 109.261 140.502 108.781 140.992C108.312 141.483 108.077 142.128 108.077 142.928C108.077 143.728 108.312 144.374 108.781 144.864C109.261 145.355 109.869 145.6 110.605 145.6ZM125.446 135.328V147.2H123.526V146.096C123.195 146.502 122.784 146.806 122.294 147.008C121.814 147.211 121.28 147.312 120.694 147.312C119.872 147.312 119.131 147.131 118.47 146.768C117.819 146.406 117.307 145.894 116.934 145.232C116.56 144.56 116.374 143.792 116.374 142.928C116.374 142.064 116.56 141.302 116.934 140.64C117.307 139.979 117.819 139.467 118.47 139.104C119.131 138.742 119.872 138.56 120.694 138.56C121.259 138.56 121.776 138.656 122.246 138.848C122.715 139.04 123.115 139.328 123.446 139.712V135.328H125.446ZM120.934 145.6C121.414 145.6 121.846 145.494 122.23 145.28C122.614 145.056 122.918 144.742 123.142 144.336C123.366 143.931 123.478 143.462 123.478 142.928C123.478 142.395 123.366 141.926 123.142 141.52C122.918 141.115 122.614 140.806 122.23 140.592C121.846 140.368 121.414 140.256 120.934 140.256C120.454 140.256 120.022 140.368 119.638 140.592C119.254 140.806 118.95 141.115 118.726 141.52C118.502 141.926 118.39 142.395 118.39 142.928C118.39 143.462 118.502 143.931 118.726 144.336C118.95 144.742 119.254 145.056 119.638 145.28C120.022 145.494 120.454 145.6 120.934 145.6ZM136.404 147.312C135.519 147.312 134.724 147.126 134.02 146.752C133.316 146.379 132.767 145.862 132.372 145.2C131.977 144.528 131.78 143.771 131.78 142.928C131.78 142.086 131.977 141.334 132.372 140.672C132.767 140.011 133.311 139.494 134.004 139.12C134.708 138.747 135.508 138.56 136.404 138.56C137.247 138.56 137.983 138.731 138.612 139.072C139.252 139.414 139.732 139.904 140.052 140.544L138.516 141.44C138.271 141.046 137.961 140.752 137.588 140.56C137.225 140.358 136.825 140.256 136.388 140.256C135.641 140.256 135.023 140.502 134.532 140.992C134.041 141.472 133.796 142.118 133.796 142.928C133.796 143.739 134.036 144.39 134.516 144.88C135.007 145.36 135.631 145.6 136.388 145.6C136.825 145.6 137.225 145.504 137.588 145.312C137.961 145.11 138.271 144.811 138.516 144.416L140.052 145.312C139.721 145.952 139.236 146.448 138.596 146.8C137.967 147.142 137.236 147.312 136.404 147.312ZM145.496 147.312C144.632 147.312 143.853 147.126 143.16 146.752C142.466 146.379 141.922 145.862 141.528 145.2C141.144 144.528 140.952 143.771 140.952 142.928C140.952 142.086 141.144 141.334 141.528 140.672C141.922 140.011 142.466 139.494 143.16 139.12C143.853 138.747 144.632 138.56 145.496 138.56C146.37 138.56 147.154 138.747 147.848 139.12C148.541 139.494 149.08 140.011 149.464 140.672C149.858 141.334 150.056 142.086 150.056 142.928C150.056 143.771 149.858 144.528 149.464 145.2C149.08 145.862 148.541 146.379 147.848 146.752C147.154 147.126 146.37 147.312 145.496 147.312ZM145.496 145.6C146.232 145.6 146.84 145.355 147.32 144.864C147.8 144.374 148.04 143.728 148.04 142.928C148.04 142.128 147.8 141.483 147.32 140.992C146.84 140.502 146.232 140.256 145.496 140.256C144.76 140.256 144.152 140.502 143.672 140.992C143.202 141.483 142.968 142.128 142.968 142.928C142.968 143.728 143.202 144.374 143.672 144.864C144.152 145.355 144.76 145.6 145.496 145.6ZM151.968 135.328H153.968V147.2H151.968V135.328ZM156.593 135.328H158.593V147.2H156.593V135.328ZM169.25 142.976C169.25 143.115 169.24 143.312 169.218 143.568H162.514C162.632 144.198 162.936 144.699 163.426 145.072C163.928 145.435 164.546 145.616 165.282 145.616C166.221 145.616 166.994 145.307 167.602 144.688L168.674 145.92C168.29 146.379 167.805 146.726 167.218 146.96C166.632 147.195 165.97 147.312 165.234 147.312C164.296 147.312 163.469 147.126 162.754 146.752C162.04 146.379 161.485 145.862 161.09 145.2C160.706 144.528 160.514 143.771 160.514 142.928C160.514 142.096 160.701 141.35 161.074 140.688C161.458 140.016 161.986 139.494 162.658 139.12C163.33 138.747 164.088 138.56 164.93 138.56C165.762 138.56 166.504 138.747 167.154 139.12C167.816 139.483 168.328 140 168.69 140.672C169.064 141.334 169.25 142.102 169.25 142.976ZM164.93 140.16C164.29 140.16 163.746 140.352 163.298 140.736C162.861 141.11 162.594 141.611 162.498 142.24H167.346C167.261 141.622 167 141.12 166.562 140.736C166.125 140.352 165.581 140.16 164.93 140.16ZM175.091 147.312C174.206 147.312 173.411 147.126 172.707 146.752C172.003 146.379 171.454 145.862 171.059 145.2C170.665 144.528 170.467 143.771 170.467 142.928C170.467 142.086 170.665 141.334 171.059 140.672C171.454 140.011 171.998 139.494 172.691 139.12C173.395 138.747 174.195 138.56 175.091 138.56C175.934 138.56 176.67 138.731 177.299 139.072C177.939 139.414 178.419 139.904 178.739 140.544L177.203 141.44C176.958 141.046 176.649 140.752 176.275 140.56C175.913 140.358 175.513 140.256 175.075 140.256C174.329 140.256 173.71 140.502 173.219 140.992C172.729 141.472 172.483 142.118 172.483 142.928C172.483 143.739 172.723 144.39 173.203 144.88C173.694 145.36 174.318 145.6 175.075 145.6C175.513 145.6 175.913 145.504 176.275 145.312C176.649 145.11 176.958 144.811 177.203 144.416L178.739 145.312C178.409 145.952 177.923 146.448 177.283 146.8C176.654 147.142 175.923 147.312 175.091 147.312ZM185.714 146.736C185.479 146.928 185.191 147.072 184.85 147.168C184.519 147.264 184.167 147.312 183.794 147.312C182.855 147.312 182.13 147.067 181.618 146.576C181.106 146.086 180.85 145.371 180.85 144.432V140.32H179.442V138.72H180.85V136.768H182.85V138.72H185.138V140.32H182.85V144.384C182.85 144.8 182.951 145.12 183.154 145.344C183.356 145.558 183.65 145.664 184.034 145.664C184.482 145.664 184.855 145.547 185.154 145.312L185.714 146.736ZM187.359 138.656H189.359V147.2H187.359V138.656ZM188.367 137.248C188.004 137.248 187.7 137.136 187.455 136.912C187.21 136.678 187.087 136.39 187.087 136.048C187.087 135.707 187.21 135.424 187.455 135.2C187.7 134.966 188.004 134.848 188.367 134.848C188.73 134.848 189.034 134.96 189.279 135.184C189.524 135.398 189.647 135.67 189.647 136C189.647 136.352 189.524 136.651 189.279 136.896C189.044 137.131 188.74 137.248 188.367 137.248ZM199.984 138.656L196.32 147.2H194.256L190.592 138.656H192.672L195.328 144.992L198.064 138.656H199.984ZM209.032 142.976C209.032 143.115 209.021 143.312 209 143.568H202.296C202.413 144.198 202.717 144.699 203.208 145.072C203.709 145.435 204.328 145.616 205.064 145.616C206.002 145.616 206.776 145.307 207.384 144.688L208.456 145.92C208.072 146.379 207.586 146.726 207 146.96C206.413 147.195 205.752 147.312 205.016 147.312C204.077 147.312 203.25 147.126 202.536 146.752C201.821 146.379 201.266 145.862 200.872 145.2C200.488 144.528 200.296 143.771 200.296 142.928C200.296 142.096 200.482 141.35 200.856 140.688C201.24 140.016 201.768 139.494 202.44 139.12C203.112 138.747 203.869 138.56 204.712 138.56C205.544 138.56 206.285 138.747 206.936 139.12C207.597 139.483 208.109 140 208.472 140.672C208.845 141.334 209.032 142.102 209.032 142.976ZM204.712 140.16C204.072 140.16 203.528 140.352 203.08 140.736C202.642 141.11 202.376 141.611 202.28 142.24H207.128C207.042 141.622 206.781 141.12 206.344 140.736C205.906 140.352 205.362 140.16 204.712 140.16Z" fill="black"/>
<path d="M116.164 53.1183C112.603 53.5149 109.733 55.1973 105.076 57.9252C96.6617 62.8281 96.6494 65.9286 91.7954 67.9474C82.4448 71.853 74.6341 62.1312 67.4517 65.544C61.5259 68.38 65.4189 75.3019 58.0517 81.3825C51.4237 86.8503 44.3522 84.4829 41.6665 89.422C38.7221 94.8297 44.9189 101.836 45.3624 102.28C45.8059 102.725 51.165 108.661 56.6965 107.952C58.5075 107.724 59.5054 106.895 61.723 107.075C63.7423 107.344 65.6381 108.179 67.1806 109.478C74.2029 114.141 86.1037 103.891 100.037 106.438C102.864 107.146 105.825 107.167 108.661 106.498C110.902 105.813 112.974 104.684 114.747 103.182C122.324 98.0022 135.494 101.367 137.268 101.812C149.045 104.828 148.355 111.425 155.525 111.353C164.864 111.185 167.919 99.7687 179.869 98.9515C181.545 98.8314 184.797 98.8314 186.029 97.0889C187.384 95.1301 185.401 92.1498 184.797 91.1765C178.366 80.6495 188.259 66.0848 182.087 61.2659C175.188 55.8823 160.047 72.0813 142.799 66.9861C130.405 63.3088 126.697 51.9407 116.164 53.1183Z" fill="#DCF4D7"/>
<path opacity="0.69" d="M30 77.4049C34.3659 78.8035 39.0058 79.1903 43.5517 78.5345C46.2251 78.1379 49.0463 77.7053 49.921 75.9028C51.2885 73.0547 47.802 68.0916 45.7816 68.368C43.022 68.7526 40.287 79.3156 44.9561 83.81C46.3113 85.1078 48.2455 85.8409 56.5367 86.0692C72.3675 86.4898 76.3222 84.1104 80.1166 86.8143C85.3895 90.5756 85.4511 100.61 82.1864 102.256C79.7224 103.458 74.1539 100.646 73.9198 97.7378C73.5379 93.2554 85.5989 86.3696 95.4301 88.701C101.688 90.1911 107.035 95.4185 106.185 96.9807C105.335 98.543 98.9781 97.7859 98.3252 95.8511C97.4751 93.3396 106.493 88.761 110.325 86.8143C129.309 77.2006 143.588 78.0778 144.253 73.259C144.561 70.8556 141.383 67.8753 138.869 67.9955C136.356 68.1157 133.942 71.3363 134.496 73.8358C135.1 76.9482 140.151 78.9671 144.105 78.5225C148.972 77.9817 149.575 73.98 156.918 68.8127C161.082 65.8685 169.09 61.3981 171.504 63.3088C173.919 65.2196 171.098 73.0066 168.474 73.1869C166.774 73.295 164.507 70.1946 165.271 68.4882C166.207 66.4213 171.899 65.7243 174.523 67.8393C177.147 69.9543 174.523 73.6075 177.196 78.198C177.344 78.4504 180.584 83.7379 186.448 84.0383C188.75 84.059 191.011 83.4465 192.972 82.2712C194.933 81.0958 196.515 79.405 197.536 77.3929" stroke="#4B964B" stroke-width="0.3" stroke-miterlimit="10"/>
<path d="M31.1436 76.5877C35.4928 77.9642 40.1075 78.3506 44.6336 77.7173C47.307 77.3087 50.1282 76.8881 51.0029 75.0735C52.3704 72.2255 48.884 67.2624 46.8635 67.5508C44.1162 67.9234 41.3689 78.4984 46.0381 82.9808C47.4056 84.2906 49.3275 85.0237 57.6186 85.24C73.4495 85.6606 77.4164 83.2932 81.2109 85.9971C86.4714 89.7464 86.533 99.7807 83.2806 101.427C80.8167 102.629 75.2482 99.8287 75.0018 96.9086C74.6199 92.4382 86.6932 85.5404 96.512 87.8718C102.77 89.3619 108.117 94.6013 107.267 96.1635C106.417 97.7258 100.06 96.9687 99.4072 95.0339C98.5694 92.5103 107.587 87.9318 111.407 85.9971C130.391 76.3834 144.67 77.2486 145.335 72.4418C145.643 70.0384 142.465 67.0461 139.951 67.1663C137.438 67.2865 135.097 70.5191 135.578 73.0066C136.182 76.119 141.245 78.1499 145.187 77.7053C150.054 77.1645 150.657 73.1508 158 67.9835C162.176 65.0513 170.172 60.5809 172.586 62.4796C175.001 64.3783 172.18 72.1894 169.568 72.3577C167.856 72.4778 165.589 69.3654 166.365 67.659C167.289 65.6041 172.993 64.9071 175.617 67.0221C178.241 69.1371 175.617 72.7783 178.278 77.3808C178.426 77.6332 181.666 82.9207 187.53 83.2091C189.831 83.2323 192.091 82.6222 194.053 81.4489C196.014 80.2755 197.596 78.5865 198.618 76.5757" stroke="#76A576" stroke-width="0.5" stroke-miterlimit="10"/>
<path d="M32.5254 75.3017C36.872 76.691 41.4897 77.0777 46.0155 76.4313C48.6889 76.0348 51.5101 75.6142 52.3848 73.7996C53.7523 70.9516 50.2658 65.9885 48.2454 66.2649C45.4981 66.6494 42.7508 77.2245 47.4199 81.7069C48.7751 83.0167 50.7093 83.7498 59.0005 83.9661C74.8313 84.3867 78.786 82.0193 82.5804 84.7231C87.8533 88.4725 87.9149 98.5068 84.6501 100.153C82.1862 101.355 76.63 98.5548 76.3836 95.6347C76.0017 91.1523 88.0627 84.2665 97.8938 86.5978C104.152 88.0879 109.499 93.3154 108.649 94.8896C107.799 96.4638 101.442 95.6947 100.789 93.76C99.9512 91.2364 108.969 86.6579 112.788 84.7231C131.773 75.1095 146.052 75.9747 146.717 71.1679C147.025 68.7644 143.846 65.7722 141.333 65.8924C138.82 66.0125 136.467 69.2331 136.96 71.7327C137.563 74.8451 142.627 76.864 146.569 76.4313C151.435 75.8786 152.039 71.8769 159.382 66.7095C163.558 63.7774 171.553 59.307 173.968 61.2057C176.383 63.1044 173.562 70.9035 170.938 71.0837C169.237 71.2039 166.971 68.0915 167.747 66.3851C168.671 64.3301 174.362 63.6332 176.999 65.7361C179.635 67.8391 176.999 71.5043 179.66 76.1069C179.808 76.3472 183.048 81.6348 188.912 81.9352C191.214 81.9573 193.476 81.3454 195.437 80.1699C197.398 78.9943 198.98 77.3028 200 75.2897" stroke="#4B964B" stroke-width="0.5" stroke-miterlimit="10"/>
<path d="M176.53 79.1592C176.652 79.1592 176.752 79.1108 176.752 79.051C176.752 78.9913 176.652 78.9429 176.53 78.9429C176.407 78.9429 176.308 78.9913 176.308 79.051C176.308 79.1108 176.407 79.1592 176.53 79.1592Z" fill="#B56F35" stroke="#B56F35" stroke-width="0.5" stroke-miterlimit="3.86" stroke-linecap="round"/>
<path d="M175.201 77.2124C175.446 77.2124 175.645 77.0671 175.645 76.8879C175.645 76.7087 175.446 76.5635 175.201 76.5635C174.956 76.5635 174.758 76.7087 174.758 76.8879C174.758 77.0671 174.956 77.2124 175.201 77.2124Z" fill="#B56F35"/>
<path d="M176.31 77.645C176.555 77.645 176.753 77.4997 176.753 77.3205C176.753 77.1413 176.555 76.9961 176.31 76.9961C176.065 76.9961 175.866 77.1413 175.866 77.3205C175.866 77.4997 176.065 77.645 176.31 77.645Z" fill="#B56F35"/>
<path d="M178.194 75.9145C178.439 75.9145 178.638 75.7693 178.638 75.5901C178.638 75.4109 178.439 75.2656 178.194 75.2656C177.949 75.2656 177.75 75.4109 177.75 75.5901C177.75 75.7693 177.949 75.9145 178.194 75.9145Z" fill="#B56F35"/>
<path d="M178.97 77.5371C179.215 77.5371 179.413 77.3918 179.413 77.2127C179.413 77.0335 179.215 76.8882 178.97 76.8882C178.725 76.8882 178.526 77.0335 178.526 77.2127C178.526 77.3918 178.725 77.5371 178.97 77.5371Z" fill="#B56F35"/>
<path d="M179.634 77.9697C179.879 77.9697 180.077 77.8245 180.077 77.6453C180.077 77.4661 179.879 77.3208 179.634 77.3208C179.389 77.3208 179.19 77.4661 179.19 77.6453C179.19 77.8245 179.389 77.9697 179.634 77.9697Z" fill="#B56F35"/>
<path d="M174.806 70.0983C171.406 72.7781 171.923 72.6699 171.11 73.0665C168.277 74.5446 166.527 73.2468 161.957 74.7849C160.638 75.2176 159.493 75.6261 159.493 76.239C159.493 77.2725 162.708 78.4381 165.394 78.7145C167.052 78.9462 168.74 78.853 170.361 78.4404C171.981 78.0277 173.501 77.3038 174.831 76.3111C178.724 73.1987 179.759 67.8391 178.884 67.3103C178.576 67.118 177.307 68.1275 174.806 70.0983Z" fill="#FCC332" stroke="#FFCF03" stroke-width="0.5" stroke-miterlimit="10"/>
<path d="M177.837 67.6352C175.792 69.0893 178.009 72.6583 175.903 75.6626C174.891 76.8769 173.518 77.7546 171.973 78.1742C170.551 78.6551 169.087 79.0091 167.599 79.2317C164.692 79.7725 164.026 79.7003 163.829 80.181C163.46 81.1184 165.332 82.9329 167.279 83.7862C168.742 84.3637 170.34 84.5383 171.899 84.2909C173.439 84.1347 177.369 83.7501 179.29 80.866C180.042 79.7244 180.177 78.5587 180.449 76.2394C180.646 74.6291 180.375 75.0377 180.338 70.6034C180.338 68.6687 180.338 67.6833 179.722 67.3227C179.406 67.2134 179.067 67.1847 178.737 67.2394C178.407 67.2941 178.097 67.4304 177.837 67.6352Z" fill="#FCC332" stroke="#FFCF03" stroke-width="0.5" stroke-miterlimit="10"/>
<path d="M180.868 68.1278C180.4 68.272 180.462 69.8222 180.536 71.6728C180.634 74.2084 181.139 74.5809 181.028 76.3114C181.021 77.974 180.425 79.583 179.341 80.8659C178.158 81.8195 176.888 82.6643 175.546 83.3895C173.563 84.6513 173.316 84.8435 173.329 85.1199C173.329 86.1534 176.877 87.5234 179.932 86.7663C184.01 85.7689 185.648 81.4187 185.735 81.1904C187.989 74.8093 181.829 67.8153 180.868 68.1278Z" fill="#FCC332" stroke="#FFCF03" stroke-width="0.5" stroke-miterlimit="10"/>
<path d="M178.576 67.1181C178.576 66.2769 178.576 65.4357 178.576 64.5945L179.808 64.3662L180.03 65.4477L180.264 64.4023L181.36 64.5465C181.225 65.652 181.077 66.7696 180.942 67.8752L179.34 68.5482L178.576 67.1181Z" fill="#BC902E" stroke="#A07C22" stroke-width="0.25" stroke-miterlimit="10"/>
<path opacity="0.5" d="M174.277 84.9759C174.372 84.9759 174.449 84.9382 174.449 84.8917C174.449 84.8453 174.372 84.8076 174.277 84.8076C174.182 84.8076 174.104 84.8453 174.104 84.8917C174.104 84.9382 174.182 84.9759 174.277 84.9759Z" fill="#B56F35" stroke="#B56F35" stroke-width="0.25" stroke-miterlimit="3.86" stroke-linecap="round"/>
<path opacity="0.5" d="M181.2 85.1196C181.397 85.1196 181.557 85.0012 181.557 84.8552C181.557 84.7092 181.397 84.5908 181.2 84.5908C181.003 84.5908 180.843 84.7092 180.843 84.8552C180.843 85.0012 181.003 85.1196 181.2 85.1196Z" fill="#B56F35"/>
<path opacity="0.5" d="M182.088 85.4565C182.286 85.4565 182.445 85.3381 182.445 85.1921C182.445 85.0461 182.286 84.9277 182.088 84.9277C181.891 84.9277 181.731 85.0461 181.731 85.1921C181.731 85.3381 181.891 85.4565 182.088 85.4565Z" fill="#B56F35"/>
<path opacity="0.5" d="M183.603 84.0742C183.8 84.0742 183.96 83.9558 183.96 83.8098C183.96 83.6638 183.8 83.5454 183.603 83.5454C183.406 83.5454 183.246 83.6638 183.246 83.8098C183.246 83.9558 183.406 84.0742 183.603 84.0742Z" fill="#B56F35"/>
<path opacity="0.5" d="M176.223 83.6899C176.421 83.6899 176.581 83.5715 176.581 83.4255C176.581 83.2795 176.421 83.1611 176.223 83.1611C176.026 83.1611 175.866 83.2795 175.866 83.4255C175.866 83.5715 176.026 83.6899 176.223 83.6899Z" fill="#B56F35"/>
<path opacity="0.5" d="M176.753 84.0385C176.95 84.0385 177.11 83.9202 177.11 83.7741C177.11 83.6281 176.95 83.5098 176.753 83.5098C176.555 83.5098 176.396 83.6281 176.396 83.7741C176.396 83.9202 176.555 84.0385 176.753 84.0385Z" fill="#B56F35"/>
<path opacity="0.5" d="M182.667 77.8976C182.755 77.8976 182.827 77.8653 182.827 77.8255C182.827 77.7857 182.755 77.7534 182.667 77.7534C182.579 77.7534 182.507 77.7857 182.507 77.8255C182.507 77.8653 182.579 77.8976 182.667 77.8976Z" fill="#B56F35" stroke="#B56F35" stroke-width="0.25" stroke-miterlimit="3.86" stroke-linecap="round"/>
<path opacity="0.5" d="M181.729 76.5397C181.899 76.5397 182.037 76.4374 182.037 76.3113C182.037 76.1852 181.899 76.083 181.729 76.083C181.559 76.083 181.421 76.1852 181.421 76.3113C181.421 76.4374 181.559 76.5397 181.729 76.5397Z" fill="#B56F35"/>
<path opacity="0.5" d="M182.508 76.84C182.678 76.84 182.816 76.7377 182.816 76.6116C182.816 76.4855 182.678 76.3833 182.508 76.3833C182.338 76.3833 182.2 76.4855 182.2 76.6116C182.2 76.7377 182.338 76.84 182.508 76.84Z" fill="#B56F35"/>
<path opacity="0.5" d="M183.821 75.6266C183.991 75.6266 184.129 75.5244 184.129 75.3983C184.129 75.2721 183.991 75.1699 183.821 75.1699C183.651 75.1699 183.513 75.2721 183.513 75.3983C183.513 75.5244 183.651 75.6266 183.821 75.6266Z" fill="#B56F35"/>
<path opacity="0.5" d="M177.726 71.6485C177.897 71.6485 178.034 71.5463 178.034 71.4202C178.034 71.2941 177.897 71.1919 177.726 71.1919C177.556 71.1919 177.418 71.2941 177.418 71.4202C177.418 71.5463 177.556 71.6485 177.726 71.6485Z" fill="#B56F35"/>
<path opacity="0.5" d="M178.355 72.1773C178.525 72.1773 178.663 72.0751 178.663 71.949C178.663 71.8229 178.525 71.7207 178.355 71.7207C178.185 71.7207 178.047 71.8229 178.047 71.949C178.047 72.0751 178.185 72.1773 178.355 72.1773Z" fill="#B56F35"/>
<path opacity="0.5" d="M170.1 79.1593C170.188 79.1593 170.26 79.1271 170.26 79.0872C170.26 79.0474 170.188 79.0151 170.1 79.0151C170.011 79.0151 169.939 79.0474 169.939 79.0872C169.939 79.1271 170.011 79.1593 170.1 79.1593Z" fill="#B56F35" stroke="#B56F35" stroke-width="0.25" stroke-miterlimit="3.86" stroke-linecap="round"/>
<path opacity="0.5" d="M169.164 77.8014C169.334 77.8014 169.472 77.6992 169.472 77.5731C169.472 77.447 169.334 77.3447 169.164 77.3447C168.994 77.3447 168.856 77.447 168.856 77.5731C168.856 77.6992 168.994 77.8014 169.164 77.8014Z" fill="#B56F35"/>
<path opacity="0.5" d="M169.938 78.1017C170.108 78.1017 170.246 77.9994 170.246 77.8733C170.246 77.7472 170.108 77.645 169.938 77.645C169.768 77.645 169.63 77.7472 169.63 77.8733C169.63 77.9994 169.768 78.1017 169.938 78.1017Z" fill="#B56F35"/>
<path opacity="0.5" d="M171.258 76.9C171.428 76.9 171.566 76.7978 171.566 76.6717C171.566 76.5456 171.428 76.4434 171.258 76.4434C171.088 76.4434 170.95 76.5456 170.95 76.6717C170.95 76.7978 171.088 76.9 171.258 76.9Z" fill="#B56F35"/>
<path opacity="0.5" d="M171.8 78.0299C171.97 78.0299 172.108 77.9277 172.108 77.8016C172.108 77.6755 171.97 77.5732 171.8 77.5732C171.63 77.5732 171.492 77.6755 171.492 77.8016C171.492 77.9277 171.63 78.0299 171.8 78.0299Z" fill="#B56F35"/>
<path opacity="0.5" d="M172.271 78.3302C172.441 78.3302 172.579 78.228 172.579 78.1019C172.579 77.9758 172.441 77.8735 172.271 77.8735C172.101 77.8735 171.963 77.9758 171.963 78.1019C171.963 78.228 172.101 78.3302 172.271 78.3302Z" fill="#B56F35"/>
<path opacity="0.5" d="M165.504 75.0737C165.627 75.0737 165.726 75.0037 165.726 74.9174C165.726 74.8312 165.627 74.7612 165.504 74.7612C165.382 74.7612 165.283 74.8312 165.283 74.9174C165.283 75.0037 165.382 75.0737 165.504 75.0737Z" fill="#B56F35"/>
<path opacity="0.5" d="M166.048 75.2778C166.17 75.2778 166.27 75.2078 166.27 75.1215C166.27 75.0353 166.17 74.9653 166.048 74.9653C165.925 74.9653 165.826 75.0353 165.826 75.1215C165.826 75.2078 165.925 75.2778 166.048 75.2778Z" fill="#B56F35"/>
<path opacity="0.5" d="M167.354 75.2299C167.476 75.2299 167.575 75.16 167.575 75.0737C167.575 74.9874 167.476 74.9175 167.354 74.9175C167.231 74.9175 167.132 74.9874 167.132 75.0737C167.132 75.16 167.231 75.2299 167.354 75.2299Z" fill="#B56F35"/>
<path opacity="0.5" d="M167.686 75.4462C167.808 75.4462 167.907 75.3763 167.907 75.29C167.907 75.2037 167.808 75.1338 167.686 75.1338C167.563 75.1338 167.464 75.2037 167.464 75.29C167.464 75.3763 167.563 75.4462 167.686 75.4462Z" fill="#B56F35"/>
<path opacity="0.5" d="M168.611 83.8165C168.731 83.7943 168.815 83.7076 168.799 83.6228C168.782 83.538 168.671 83.4873 168.551 83.5096C168.431 83.5318 168.346 83.6185 168.363 83.7033C168.379 83.7881 168.49 83.8388 168.611 83.8165Z" fill="#B56F35"/>
<path opacity="0.5" d="M169.177 83.9279C169.298 83.9057 169.382 83.8189 169.365 83.7342C169.349 83.6494 169.238 83.5987 169.118 83.6209C168.997 83.6431 168.913 83.7299 168.93 83.8146C168.946 83.8994 169.057 83.9501 169.177 83.9279Z" fill="#B56F35"/>
<path opacity="0.5" d="M170.456 83.6427C170.576 83.6205 170.66 83.5338 170.644 83.449C170.627 83.3642 170.516 83.3135 170.396 83.3357C170.276 83.358 170.192 83.4447 170.208 83.5295C170.224 83.6143 170.335 83.665 170.456 83.6427Z" fill="#B56F35"/>
<path opacity="0.5" d="M170.823 83.7892C170.943 83.767 171.027 83.6803 171.011 83.5955C170.995 83.5107 170.884 83.46 170.763 83.4822C170.643 83.5044 170.559 83.5912 170.575 83.676C170.592 83.7607 170.703 83.8114 170.823 83.7892Z" fill="#B56F35"/>
<path opacity="0.5" d="M179.306 74.2667C179.327 74.149 179.273 74.0416 179.186 74.0268C179.099 74.012 179.011 74.0955 178.99 74.2132C178.969 74.3309 179.023 74.4382 179.11 74.453C179.197 74.4678 179.285 74.3844 179.306 74.2667Z" fill="#B56F35"/>
<path opacity="0.5" d="M179.613 73.7803C179.634 73.6626 179.58 73.5553 179.493 73.5405C179.406 73.5257 179.318 73.6091 179.297 73.7268C179.276 73.8445 179.33 73.9519 179.417 73.9667C179.504 73.9815 179.592 73.898 179.613 73.7803Z" fill="#B56F35"/>
<path opacity="0.5" d="M180.398 70.6442C180.419 70.5259 180.365 70.4181 180.277 70.4034C180.19 70.3888 180.102 70.4728 180.081 70.591C180.06 70.7093 180.114 70.8171 180.202 70.8317C180.29 70.8464 180.377 70.7624 180.398 70.6442Z" fill="#B56F35"/>
<path opacity="0.5" d="M180.059 72.2374C180.08 72.1197 180.026 72.0123 179.939 71.9975C179.852 71.9827 179.765 72.0662 179.744 72.1839C179.723 72.3016 179.776 72.409 179.863 72.4237C179.951 72.4385 180.038 72.3551 180.059 72.2374Z" fill="#B56F35"/>
<path opacity="0.5" d="M172.053 82.8847C172.069 82.8 171.985 82.7132 171.865 82.6909C171.744 82.6686 171.633 82.7193 171.617 82.804C171.6 82.8888 171.684 82.9756 171.805 82.9979C171.925 83.0202 172.036 82.9695 172.053 82.8847Z" fill="#B56F35"/>
<path opacity="0.5" d="M172.547 83.2036C172.563 83.1188 172.479 83.0321 172.359 83.0098C172.238 82.9875 172.127 83.0382 172.111 83.1229C172.094 83.2077 172.179 83.2944 172.299 83.3167C172.419 83.339 172.53 83.2884 172.547 83.2036Z" fill="#B56F35"/>
<path opacity="0.5" d="M173.845 83.3798C173.862 83.2951 173.778 83.2083 173.657 83.186C173.537 83.1637 173.426 83.2144 173.41 83.2992C173.393 83.3839 173.477 83.4707 173.598 83.493C173.718 83.5153 173.829 83.4646 173.845 83.3798Z" fill="#B56F35"/>
<path opacity="0.5" d="M174.114 83.6499C174.13 83.5651 174.046 83.4783 173.926 83.456C173.805 83.4337 173.694 83.4844 173.678 83.5692C173.661 83.6539 173.745 83.7407 173.866 83.763C173.986 83.7853 174.097 83.7346 174.114 83.6499Z" fill="#B56F35"/>
<path opacity="0.5" d="M179.444 86.2642C179.563 86.2354 179.642 86.1442 179.62 86.0604C179.599 85.9767 179.485 85.9322 179.367 85.961C179.248 85.9898 179.169 86.0811 179.19 86.1648C179.211 86.2485 179.325 86.293 179.444 86.2642Z" fill="#B56F35"/>
<path opacity="0.5" d="M180.027 86.3541C180.146 86.3253 180.225 86.234 180.203 86.1503C180.182 86.0665 180.068 86.022 179.95 86.0508C179.831 86.0797 179.752 86.1709 179.773 86.2546C179.794 86.3384 179.908 86.3829 180.027 86.3541Z" fill="#B56F35"/>
<path opacity="0.5" d="M181.268 85.9874C181.387 85.9585 181.466 85.8673 181.445 85.7836C181.423 85.6998 181.31 85.6553 181.191 85.6841C181.072 85.713 180.993 85.8042 181.014 85.8879C181.036 85.9717 181.149 86.0162 181.268 85.9874Z" fill="#B56F35"/>
<path opacity="0.5" d="M181.633 86.125C181.752 86.0962 181.831 86.005 181.81 85.9213C181.789 85.8375 181.675 85.793 181.556 85.8218C181.437 85.8507 181.358 85.9419 181.379 86.0256C181.401 86.1093 181.514 86.1539 181.633 86.125Z" fill="#B56F35"/>
<path opacity="0.5" d="M178.412 80.6937C178.473 80.5897 178.459 80.471 178.382 80.4286C178.305 80.3862 178.194 80.4361 178.133 80.5401C178.073 80.6442 178.087 80.7629 178.164 80.8053C178.241 80.8477 178.352 80.7978 178.412 80.6937Z" fill="#B56F35"/>
<path opacity="0.5" d="M178.867 80.3334C178.927 80.2293 178.914 80.1106 178.836 80.0682C178.759 80.0258 178.648 80.0758 178.588 80.1798C178.528 80.2838 178.541 80.4025 178.618 80.4449C178.695 80.4873 178.807 80.4374 178.867 80.3334Z" fill="#B56F35"/>
<path opacity="0.5" d="M179.469 79.204C179.529 79.0999 179.515 78.9812 179.438 78.9388C179.361 78.8964 179.25 78.9464 179.19 79.0504C179.129 79.1544 179.143 79.2731 179.22 79.3156C179.297 79.358 179.408 79.308 179.469 79.204Z" fill="#B56F35"/>
<path opacity="0.5" d="M179.822 79.0326C179.882 78.9285 179.868 78.8098 179.791 78.7674C179.714 78.725 179.603 78.775 179.543 78.879C179.482 78.9831 179.496 79.1018 179.573 79.1442C179.65 79.1866 179.761 79.1366 179.822 79.0326Z" fill="#B56F35"/>
<path opacity="0.5" d="M175.897 70.1239C175.988 70.0437 176.013 69.9268 175.954 69.8629C175.894 69.7989 175.773 69.8121 175.682 69.8924C175.591 69.9726 175.566 70.0894 175.625 70.1534C175.685 70.2173 175.806 70.2041 175.897 70.1239Z" fill="#B56F35"/>
<path opacity="0.5" d="M176.455 69.9305C176.546 69.8503 176.571 69.7334 176.512 69.6695C176.453 69.6056 176.331 69.6188 176.24 69.699C176.149 69.7792 176.124 69.8961 176.183 69.96C176.243 70.0239 176.364 70.0107 176.455 69.9305Z" fill="#B56F35"/>
<path opacity="0.5" d="M177.381 69.0389C177.472 68.9587 177.497 68.8418 177.438 68.7779C177.378 68.714 177.257 68.7272 177.166 68.8074C177.075 68.8876 177.05 69.0045 177.109 69.0684C177.168 69.1323 177.29 69.1192 177.381 69.0389Z" fill="#B56F35"/>
<path opacity="0.5" d="M177.767 68.9764C177.857 68.8962 177.883 68.7794 177.823 68.7154C177.764 68.6515 177.642 68.6647 177.552 68.7449C177.461 68.8251 177.435 68.942 177.495 69.0059C177.554 69.0698 177.676 69.0566 177.767 68.9764Z" fill="#B56F35"/>
<path opacity="0.5" d="M162.205 77.8012C162.327 77.8012 162.426 77.7313 162.426 77.645C162.426 77.5587 162.327 77.4888 162.205 77.4888C162.082 77.4888 161.983 77.5587 161.983 77.645C161.983 77.7313 162.082 77.8012 162.205 77.8012Z" fill="#B56F35"/>
<path opacity="0.5" d="M165.504 78.5463C165.627 78.5463 165.726 78.4764 165.726 78.3901C165.726 78.3038 165.627 78.2339 165.504 78.2339C165.382 78.2339 165.283 78.3038 165.283 78.3901C165.283 78.4764 165.382 78.5463 165.504 78.5463Z" fill="#B56F35"/>
<path opacity="0.5" d="M166.812 78.4863C166.934 78.4863 167.033 78.4163 167.033 78.3301C167.033 78.2438 166.934 78.1738 166.812 78.1738C166.689 78.1738 166.59 78.2438 166.59 78.3301C166.59 78.4163 166.689 78.4863 166.812 78.4863Z" fill="#B56F35"/>
<path opacity="0.5" d="M166.268 78.0536C166.391 78.0536 166.49 77.9837 166.49 77.8974C166.49 77.8112 166.391 77.7412 166.268 77.7412C166.146 77.7412 166.046 77.8112 166.046 77.8974C166.046 77.9837 166.146 78.0536 166.268 78.0536Z" fill="#B56F35"/>
<path opacity="0.5" d="M179.497 80.1124C179.518 79.9947 179.464 79.8873 179.377 79.8725C179.29 79.8577 179.202 79.9412 179.181 80.0589C179.16 80.1766 179.214 80.284 179.301 80.2987C179.388 80.3135 179.476 80.2301 179.497 80.1124Z" fill="#B56F35"/>
<path opacity="0.5" d="M175.096 78.5836C175.117 78.4653 175.063 78.3576 174.975 78.3429C174.888 78.3283 174.8 78.4122 174.779 78.5305C174.758 78.6488 174.812 78.7565 174.9 78.7712C174.987 78.7859 175.075 78.7019 175.096 78.5836Z" fill="#B56F35"/>
<path opacity="0.5" d="M181.429 70.3579C181.45 70.2402 181.396 70.1329 181.309 70.1181C181.222 70.1033 181.134 70.1867 181.113 70.3044C181.092 70.4221 181.146 70.5296 181.233 70.5443C181.32 70.5591 181.408 70.4756 181.429 70.3579Z" fill="#B56F35"/>
<path opacity="0.5" d="M183.526 71.2232C183.547 71.1055 183.494 70.9981 183.407 70.9834C183.319 70.9686 183.232 71.052 183.211 71.1697C183.19 71.2874 183.244 71.3948 183.331 71.4096C183.418 71.4243 183.505 71.3409 183.526 71.2232Z" fill="#B56F35"/>
<path opacity="0.5" d="M183.164 70.564C183.185 70.4463 183.131 70.3389 183.044 70.3242C182.957 70.3094 182.869 70.3928 182.848 70.5105C182.827 70.6282 182.881 70.7356 182.968 70.7504C183.055 70.7652 183.143 70.6817 183.164 70.564Z" fill="#B56F35"/>
<path opacity="0.5" d="M184.572 74.9971C184.593 74.8794 184.54 74.7721 184.452 74.7573C184.365 74.7425 184.278 74.8259 184.257 74.9436C184.236 75.0613 184.289 75.1687 184.377 75.1835C184.464 75.1983 184.551 75.1148 184.572 74.9971Z" fill="#B56F35"/>
<path opacity="0.5" d="M185.801 79.2815C185.831 79.1658 185.786 79.0546 185.701 79.0331C185.615 79.0116 185.521 79.0879 185.49 79.2036C185.46 79.3193 185.505 79.4305 185.59 79.452C185.676 79.4736 185.77 79.3972 185.801 79.2815Z" fill="#B56F35"/>
<path opacity="0.5" d="M185.464 79.7361C185.495 79.6204 185.45 79.5092 185.364 79.4877C185.279 79.4662 185.184 79.5425 185.154 79.6582C185.123 79.7739 185.168 79.8851 185.254 79.9066C185.339 79.9281 185.434 79.8518 185.464 79.7361Z" fill="#B56F35"/>
<path opacity="0.5" d="M185.186 80.9861C185.217 80.8704 185.172 80.7592 185.086 80.7377C185.001 80.7162 184.907 80.7925 184.876 80.9082C184.846 81.0239 184.89 81.1351 184.976 81.1566C185.062 81.1781 185.156 81.1018 185.186 80.9861Z" fill="#B56F35"/>
<path opacity="0.5" d="M184.894 81.2439C184.924 81.1282 184.88 81.017 184.794 80.9955C184.708 80.974 184.614 81.0503 184.584 81.166C184.553 81.2817 184.598 81.3929 184.683 81.4144C184.769 81.436 184.863 81.3596 184.894 81.2439Z" fill="#B56F35"/>
<path opacity="0.5" d="M171.058 73.8744C171.148 73.7941 171.174 73.6773 171.114 73.6134C171.055 73.5494 170.933 73.5626 170.843 73.6428C170.752 73.723 170.726 73.8399 170.786 73.9039C170.845 73.9678 170.967 73.9546 171.058 73.8744Z" fill="#B56F35"/>
<path opacity="0.5" d="M171.682 73.9188C171.773 73.8386 171.798 73.7218 171.739 73.6578C171.68 73.5939 171.558 73.6071 171.467 73.6873C171.376 73.7675 171.351 73.8844 171.41 73.9483C171.47 74.0122 171.591 73.999 171.682 73.9188Z" fill="#B56F35"/>
<path opacity="0.5" d="M172.625 73.0189C172.715 72.9387 172.741 72.8219 172.681 72.7579C172.622 72.694 172.5 72.7072 172.409 72.7874C172.319 72.8676 172.293 72.9845 172.353 73.0484C172.412 73.1123 172.534 73.0991 172.625 73.0189Z" fill="#B56F35"/>
<path opacity="0.5" d="M172.218 73.1503C172.309 73.0701 172.334 72.9532 172.275 72.8893C172.215 72.8253 172.093 72.8385 172.003 72.9187C171.912 72.9989 171.887 73.1158 171.946 73.1797C172.005 73.2437 172.127 73.2305 172.218 73.1503Z" fill="#B56F35"/>
<path d="M143.304 74.1962L144.413 70.5911H144.758L145.201 72.1413C145.201 71.6246 145.312 71.0958 145.362 70.5791H146.47H147.197L148.589 74.1842L146.273 75.3859L143.304 74.1962Z" fill="#9E7646" stroke="#9E7646" stroke-width="0.25" stroke-miterlimit="10"/>
<path d="M143.28 73.2712C142.769 73.3203 142.266 73.4209 141.777 73.5717C139.855 74.2206 139.054 80.1931 139.054 80.1931C138.438 84.7596 138.167 87.4875 139.904 89.5785C140.816 90.672 142.27 91.4291 142.824 90.9604C143.378 90.4917 142.504 88.8334 142.307 85.3364C142.211 83.7717 142.277 82.2016 142.504 80.6497C143.157 76.588 144.968 73.7639 144.302 73.2712C144.179 73.1871 143.883 73.2112 143.28 73.2712Z" fill="#E58910" stroke="#C67409" stroke-width="0.3" stroke-miterlimit="10"/>
<path d="M143.725 90.6117C142.74 89.9748 142.703 88.2083 142.493 84.8315C142.378 83.3083 142.469 81.7768 142.765 80.277C142.94 79.4566 143.187 78.6525 143.504 77.8735C143.504 77.8735 143.762 76.6718 144.415 74.5568C144.785 73.3551 144.896 73.0787 145.155 73.0066C145.783 72.8504 146.805 73.9079 147.347 75.0015C148.074 76.5156 147.594 77.465 147.717 80.5774C147.76 81.6675 147.863 82.7546 148.025 83.834C148.641 87.7396 149.836 89.2297 148.974 90.2151C148.604 90.6477 148.05 90.7439 146.966 90.9121C145.883 91.1932 144.734 91.0866 143.725 90.6117Z" fill="#E58910" stroke="#C67409" stroke-width="0.3" stroke-miterlimit="10"/>
<path d="M146.681 73.3068C146.274 73.9678 147.913 74.7729 147.975 76.7077C147.975 77.1763 147.888 78.7626 147.975 79.3875C148.061 80.0124 148.048 80.2888 148.061 80.481C148.738 86.2613 148.664 89.6501 150.02 90.0947C150.771 90.3351 151.781 89.59 152.262 88.893C153.075 87.6913 152.422 86.5978 151.72 82.4398C151.362 80.3008 151.215 79.2193 151.042 77.8613C150.71 75.3618 150.488 74.1 150.007 73.6433C148.96 72.6819 147.063 72.694 146.681 73.3068Z" fill="#E58910" stroke="#C67409" stroke-width="0.3" stroke-miterlimit="10"/>
<path d="M150.758 75.266C151.08 76.3322 151.29 77.4273 151.386 78.5347C151.633 80.3613 151.522 80.6497 151.793 82.0557C152.015 83.1612 152.101 83.1612 152.323 84.1466C153 87.2711 152.409 88.8574 153.234 89.2059C153.838 89.4582 154.651 88.9535 155.033 88.617C155.368 88.2551 155.625 87.8317 155.79 87.3715C155.955 86.9114 156.024 86.4238 155.994 85.9372C156.129 80.3012 156.216 75.7948 153.16 73.9201C152.039 73.2111 150.45 72.8506 150.105 73.2952C149.76 73.7398 150.327 74.0523 150.758 75.266Z" fill="#E58910" stroke="#C67409" stroke-width="0.3" stroke-miterlimit="10"/>
<path d="M140.521 73.7516C140.866 74.1121 140.386 74.725 139.511 77.4649C138.948 79.1724 138.568 80.9323 138.378 82.7163C138.357 83.0525 138.357 83.3896 138.378 83.7258C138.378 85.8288 138.378 87.3309 139.289 88.821C139.56 89.2777 140.139 89.8425 139.942 90.2751C139.745 90.7077 138.71 90.876 138.168 90.7678C135.088 90.1189 132.624 78.2099 137.146 74.6649C138.218 73.7876 140.004 73.2349 140.521 73.7516Z" fill="#E58910" stroke="#C67409" stroke-width="0.3" stroke-miterlimit="10"/>
<path d="M56.4377 87.8595C54.9716 87.6673 52.5816 87.3548 52.0272 85.8046C51.4728 84.2544 53.4316 82.1394 53.6164 81.9712C53.4741 81.5958 53.4414 81.1892 53.5218 80.7967C53.6023 80.4042 53.7929 80.0412 54.0723 79.748C54.2824 79.5457 54.5331 79.3879 54.8087 79.2845C55.0843 79.1811 55.3789 79.1343 55.6738 79.1472C55.0629 78.3685 54.7107 77.4263 54.6644 76.4468C54.6182 75.4673 54.8801 74.4975 55.4151 73.6674C55.917 73.1189 56.532 72.6802 57.2199 72.3799C57.9078 72.0796 58.6531 71.9245 59.4067 71.9249C60.0972 71.8977 60.7877 71.9789 61.4518 72.1652C61.3624 71.9411 61.3624 71.6924 61.4518 71.4682C61.53 71.2595 61.6703 71.0783 61.8546 70.9478C62.0389 70.8172 62.259 70.7432 62.4866 70.7352C62.9238 69.9831 63.5182 69.3291 64.2314 68.8156C64.9445 68.3022 65.7604 67.9408 66.6261 67.755C69.9154 67.2022 72.3301 70.0022 72.7859 70.579C73.42 71.3657 73.8851 72.2689 74.1534 73.2347C74.3434 72.9471 74.6385 72.7409 74.9788 72.6579C75.9151 72.4536 77.1717 73.415 77.9109 75.1575C78.0989 75.0157 78.3174 74.9172 78.5499 74.8693C78.7825 74.8214 79.0231 74.8255 79.2538 74.8811C80.4858 75.4099 80.8553 79.3755 78.9951 81.2261C77.874 82.3557 76.7036 81.9351 73.7345 82.7643C71.2706 83.4373 71.1597 83.966 68.0551 85.348C64.6672 86.8141 60.8235 88.4484 56.4377 87.8595Z" fill="#5DAF67" stroke="#5A9E61" stroke-width="0.25" stroke-miterlimit="10"/>
<path d="M62.203 85.805C63.3906 87.4198 64.2672 89.2318 64.7901 91.1526L65.8989 93.6882L67.0077 93.556L67.1555 91.0324C67.5497 91.8616 67.944 92.6908 68.3875 93.5079L69.9644 93.3036C69.2511 91.8334 68.9983 90.1906 69.2375 88.5809C69.5702 86.502 70.7405 85.2882 71.6029 81.6591C71.7261 81.1183 71.8124 80.6737 71.874 80.3853C71.6388 80.8707 71.2847 81.2923 70.8429 81.6125C70.4011 81.9328 69.8852 82.142 69.3408 82.2216C68.7964 82.3012 68.2403 82.2487 67.7217 82.0689C67.203 81.889 66.7378 81.5873 66.367 81.1904C66.4927 81.4855 66.5327 81.8086 66.4827 82.1244C66.4327 82.4402 66.2947 82.7365 66.0837 82.981C65.8881 83.1523 65.6572 83.2806 65.4064 83.3573C65.1556 83.434 64.8908 83.4573 64.63 83.4256C64.0405 83.3965 63.4756 83.1861 63.0161 82.8247C63.1393 83.2934 63.0161 83.4857 62.9422 83.5818C62.8682 83.6779 62.1907 83.69 60.934 83.3895L59.2832 83.029C60.4092 83.788 61.3963 84.7264 62.203 85.805Z" fill="#548E58" stroke="#548E58" stroke-width="0.75" stroke-miterlimit="10"/>
<path d="M55.9108 85.949C55.5113 85.7552 55.2028 85.4199 55.0484 85.0116C54.9377 84.5756 54.9902 84.1154 55.1962 83.7138C55.2906 83.5004 55.4105 83.2987 55.5535 83.1129C55.7118 82.9155 55.8985 82.7414 56.1079 82.5962C55.715 83.0626 55.4842 83.6386 55.4488 84.2412C55.4134 84.8438 55.5752 85.4418 55.9108 85.949Z" fill="#5A9E61" stroke="#5A9E61" stroke-width="0.12" stroke-miterlimit="10"/>
<path d="M60.1592 76.3595C60.3059 75.8586 60.6401 75.4298 61.0955 75.1577C61.3795 75.0054 61.6957 74.9191 62.0195 74.9054C62.0968 74.5874 62.2486 74.2913 62.463 74.0401C62.6689 73.7945 62.9346 73.6031 63.2359 73.4834C63.5372 73.3638 63.8644 73.3197 64.1877 73.3552C64.6593 73.4679 65.0664 73.7571 65.3211 74.1603C65.4681 74.0567 65.6449 74.0009 65.8262 74.0009C66.0076 74.0009 66.1844 74.0567 66.3314 74.1603C66.4764 74.2882 66.5684 74.4635 66.5901 74.653C66.4819 74.5168 66.3368 74.4127 66.1712 74.3526C66.0336 74.3124 65.8889 74.3012 65.7465 74.3198C65.6042 74.3385 65.4676 74.3865 65.3458 74.4608C65.0767 74.1237 64.6916 73.8932 64.2616 73.8118C64.0341 73.7562 63.7963 73.7533 63.5674 73.8034C63.3385 73.8535 63.1248 73.9552 62.9434 74.1002C62.6733 74.33 62.5054 74.6532 62.4753 75.0015C62.093 75.1122 61.7251 75.2655 61.3788 75.4582C60.9303 75.7003 60.5196 76.0038 60.1592 76.3595Z" fill="#5A9E61" stroke="#5A9E61" stroke-width="0.12" stroke-miterlimit="10"/>
<path d="M69.0178 76.792C69.3459 76.6989 69.6864 76.6543 70.0281 76.6598C70.5295 76.5996 71.0371 76.7054 71.4695 76.9603C71.5268 77.0253 71.5803 77.0935 71.6296 77.1645C71.7147 77.3011 71.7732 77.4519 71.8021 77.6092C71.8717 77.4188 71.8717 77.2108 71.8021 77.0203C71.5557 76.2753 69.8926 75.8907 68.9193 76.5156C68.7103 76.649 68.5336 76.8254 68.4019 77.0324C68.5969 76.9291 68.8036 76.8484 69.0178 76.792Z" fill="#5A9E61" stroke="#5A9E61" stroke-width="0.12" stroke-miterlimit="10"/>
<path d="M75.8781 76.6238C76.0429 76.7321 76.1921 76.8614 76.3216 77.0084C76.6176 77.3507 76.8096 77.7669 76.876 78.2101C76.9855 78.0013 77.0477 77.772 77.0584 77.5377C77.069 77.3033 77.0278 77.0696 76.9376 76.8522C76.5187 76.035 75.2744 76.071 75.1266 76.071C74.9044 76.0822 74.6847 76.1226 74.4736 76.1912C74.9761 76.1924 75.4661 76.3433 75.8781 76.6238Z" fill="#5A9E61" stroke="#5A9E61" stroke-width="0.12" stroke-miterlimit="10"/>
<path d="M62.2033 79.7123C62.1749 79.5119 62.2185 79.3081 62.3265 79.1355C62.464 78.9543 62.6662 78.8299 62.8932 78.787C63.0119 78.7733 63.1318 78.7733 63.2504 78.787C63.373 78.7702 63.4974 78.7702 63.62 78.787C63.3093 78.7781 63.004 78.8684 62.7505 79.044C62.4971 79.2197 62.3093 79.4712 62.2156 79.7604L62.2033 79.7123Z" fill="#5A9E61" stroke="#5A9E61" stroke-width="0.12" stroke-miterlimit="10"/>
<path d="M92.4261 82.7403L89.2969 78.8828C89.7932 78.8085 90.2701 78.6412 90.7013 78.3901C91.1464 78.1284 91.5321 77.7808 91.8347 77.3687L92.4261 82.7403Z" fill="#7C6745" stroke="#685130" stroke-width="0.25" stroke-miterlimit="10"/>
<path d="M92.7593 83.2932C92.0654 82.708 91.2463 82.2812 90.3618 82.0442C89.4772 81.8072 88.5496 81.7659 87.6466 81.9233C86.4115 82.3122 85.3403 83.0835 84.5954 84.1202C83.8506 85.1569 83.4728 86.4023 83.5195 87.6674C83.5195 88.8692 84.8377 90.4314 87.3879 93.5438C90.2214 96.9807 91.2809 97.7257 92.1186 97.4974C92.9564 97.2691 93.2644 95.827 94.2623 95.791C95.2602 95.7549 95.4943 96.8605 96.2581 96.8725C97.0219 96.8845 97.9212 95.3944 98.9931 93.2674C101.703 87.9438 101.974 88.1722 102.098 86.9584C102.098 86.5018 102.578 81.9713 99.7569 80.6374C97.7365 79.7001 94.6812 80.6735 92.7593 83.2932Z" fill="#F97253" stroke="#E56A55" stroke-width="0.25" stroke-miterlimit="10"/>
<path d="M92.9676 81.3587C93.1494 80.3753 93.6872 79.4883 94.483 78.8591C95.1726 78.2294 96.024 77.7934 96.9469 77.5973C97.3997 77.5007 97.8645 77.4683 98.3267 77.5012C98.3352 78.1767 98.2042 78.8469 97.9415 79.472C97.6789 80.097 97.29 80.6641 96.798 81.1395C96.306 81.615 95.721 81.9889 95.0778 82.2392C94.4345 82.4895 93.7463 82.611 93.0539 82.5965C92.952 82.1918 92.9228 81.773 92.9676 81.3587Z" fill="#5DAF67" stroke="#5DAF67" stroke-width="0.75" stroke-miterlimit="10"/>
<path d="M92.6968 82.8486C93.7285 82.0568 94.7002 81.1934 95.6042 80.2649C96.6218 79.3114 97.5765 78.2959 98.4624 77.2246C97.4585 78.0045 96.5079 78.8475 95.6166 79.7482C94.8897 80.4452 94.2491 81.1422 93.9041 81.5027C93.5592 81.8632 92.6722 82.8366 92.6968 82.8486Z" fill="#5A9E61" stroke="#5A9E61" stroke-width="0.1" stroke-miterlimit="10"/>
<path d="M91.1805 78.0537L92.1537 81.9593C91.4885 80.8176 90.8109 79.688 90.1333 78.5464" stroke="#60492C" stroke-width="0.2" stroke-miterlimit="10"/>
<path d="M85.9428 85.0479C86.0964 85.2361 86.3081 85.3709 86.5465 85.4324C86.7474 85.4912 86.9616 85.4912 87.1625 85.4324C86.9622 86.1083 86.8586 86.8079 86.8545 87.5114C86.8442 88.4013 87.0029 89.2855 87.3226 90.1191C86.4941 89.3765 85.9398 88.3881 85.7457 87.3071C85.6258 86.5494 85.6934 85.7748 85.9428 85.0479Z" fill="white"/>
<path d="M118.309 69.9785C117.249 70.7548 116.27 71.6324 115.389 72.5982L117.323 75.0978L114.44 73.7879C112.707 75.349 111.58 77.4461 111.25 79.7244C111.086 81.0275 111.203 82.3497 111.594 83.6059L115.389 84.6634L112.137 84.9758C112.623 86.0163 113.236 86.9965 113.96 87.896C114.652 88.7865 115.45 89.5933 116.338 90.2994C116.782 90.1783 117.199 89.9787 117.57 89.7106C117.915 89.4589 118.208 89.1448 118.432 88.7852L117.496 87.8118L119.467 87.8839C119.775 87.6076 120.083 87.3071 120.391 86.9947C121.932 85.4035 123.235 83.6071 124.259 81.6591L120.44 80.0007L124.641 79.6282C124.692 77.5835 124.358 75.547 123.655 73.6197C122.968 71.757 121.942 70.0308 120.625 68.5244C119.818 68.9547 119.044 69.4406 118.309 69.9785Z" fill="#992E11" stroke="#992E11" stroke-width="0.75" stroke-miterlimit="10"/>
<path d="M120.588 68.3201C120.108 65.3639 119.356 64.4866 118.642 64.2583C118.432 64.1862 117.816 64.03 116.412 63.5974L115.747 63.3931C115.726 63.6089 115.726 63.8262 115.747 64.042C115.808 64.7893 116.09 65.5032 116.56 66.0969C117.615 67.2506 119.031 68.0321 120.588 68.3201Z" fill="#2E6031" stroke="#336D33" stroke-width="0.15" stroke-miterlimit="10"/>
<path d="M120.525 68.0916C120.512 67.4615 120.652 66.8372 120.932 66.2693C121.212 65.7014 121.626 65.206 122.139 64.823C122.603 64.5223 123.137 64.3405 123.691 64.2942C123.916 64.2646 124.144 64.2646 124.369 64.2942C124.284 64.3301 124.205 64.3787 124.135 64.4385C123.507 64.9312 123.642 65.8204 123.507 66.3251C123.371 66.8298 122.694 67.623 120.525 68.0916Z" fill="#447F49" stroke="#357235" stroke-width="0.15" stroke-miterlimit="10"/>
<path d="M120.614 68.5004C119.944 67.5302 118.923 66.8432 117.756 66.5777C116.97 66.3949 116.146 66.4451 115.39 66.7219C115.19 66.8433 114.969 66.9287 114.737 66.9743C114.438 67.0442 114.125 67.0442 113.826 66.9743C114.202 67.2865 114.616 67.5528 115.058 67.7674C115.918 68.1267 116.834 68.3421 117.768 68.4043C118.713 68.5042 119.664 68.5363 120.614 68.5004Z" fill="#468C48" stroke="#336D33" stroke-width="0.15" stroke-miterlimit="10"/>
<path d="M120.711 68.2237C121.34 67.9797 121.992 67.7985 122.658 67.6829C123.024 67.5898 123.405 67.5694 123.779 67.6228C124.317 67.8278 124.814 68.1248 125.245 68.5L125.553 68.7284C125.394 68.8457 125.225 68.9502 125.048 69.0408C124.509 69.2757 123.925 69.3946 123.336 69.3893C122.344 69.3276 121.41 68.9128 120.711 68.2237Z" fill="#2E6031" stroke="#336D33" stroke-width="0.15" stroke-miterlimit="10"/>
<path d="M123.691 73.5354C123.322 73.5122 122.952 73.5122 122.583 73.5354C122.305 73.469 122.033 73.3806 121.77 73.271C121.99 73.517 122.276 73.6998 122.595 73.7997C122.957 73.9309 123.347 73.9681 123.728 73.9079C123.728 73.9079 124.16 73.8478 124.135 73.7517C124.11 73.6555 123.753 73.5474 123.691 73.5354Z" fill="#681F0F"/>
<path d="M124.618 78.8949C124.261 78.872 123.903 78.872 123.546 78.8949C123.275 78.8383 123.01 78.7537 122.757 78.6426C122.965 78.8895 123.244 79.0696 123.558 79.1593C123.907 79.2908 124.286 79.3281 124.655 79.2675C124.655 79.2675 125.061 79.1954 125.049 79.1112C125.036 79.0271 124.667 78.907 124.618 78.8949Z" fill="#681F0F"/>
<path d="M120.058 86.9585C119.454 86.6941 119.22 86.8263 118.69 86.634C118.356 86.479 118.035 86.2982 117.729 86.0933C117.729 86.0933 118.074 86.61 118.629 86.9585C119.046 87.2184 119.526 87.3675 120.021 87.3911C120.095 87.3911 120.575 87.3911 120.575 87.307C120.575 87.2229 120.132 86.9825 120.058 86.9585Z" fill="#681F0F"/>
<path d="M123.851 74.3285C123.398 74.2619 122.941 74.2217 122.483 74.2084C122.136 74.1223 121.798 74.0057 121.473 73.8599C121.763 74.153 122.123 74.3717 122.52 74.4968C122.963 74.6659 123.439 74.7357 123.912 74.7011C123.986 74.7011 124.442 74.7011 124.405 74.5569C124.368 74.4127 123.925 74.3285 123.851 74.3285Z" fill="#681F0F"/>
<path d="M116.449 81.815C117.077 81.9952 117.175 82.1034 117.681 82.2716C118.186 82.4399 118.752 82.5 118.752 82.524C118.337 82.5132 117.923 82.4567 117.52 82.3558C117.062 82.2594 116.616 82.1143 116.19 81.9232C116.19 81.9232 115.746 81.7189 115.82 81.6948C116.033 81.7171 116.243 81.7573 116.449 81.815Z" fill="#681F0F"/>
<path d="M114.835 80.3368C115.5 80.6132 115.574 80.7935 116.067 81.0578C116.559 81.3222 117.212 81.3943 117.212 81.4424C116.75 81.4373 116.292 81.3561 115.857 81.202C115.357 81.0521 114.886 80.8205 114.465 80.517C114.404 80.517 114.022 80.2046 114.12 80.1566C114.219 80.1085 114.761 80.2527 114.835 80.3368Z" fill="#681F0F"/>
<path d="M116.163 72.009C116.73 72.3455 116.755 72.5498 117.223 72.8622C117.534 73.0503 117.859 73.215 118.196 73.3549C117.763 73.3272 117.342 73.2039 116.964 72.9944C116.531 72.7862 116.139 72.5055 115.806 72.1652C115.806 72.1652 115.461 71.7927 115.56 71.7567C115.658 71.7206 116.102 71.9249 116.163 72.009Z" fill="#681F0F"/>
<path d="M112.48 76.5398C113.096 76.7682 113.17 76.9845 113.712 77.2008C114.061 77.324 114.419 77.4204 114.784 77.4892C114.373 77.5597 113.951 77.535 113.552 77.4171C113.076 77.3133 112.63 77.1081 112.246 76.8163C112.246 76.8163 111.839 76.4918 111.913 76.4197C111.987 76.3476 112.406 76.5158 112.48 76.5398Z" fill="#681F0F"/>
<path d="M115.659 87.391C115.528 87.3674 115.4 87.3312 115.277 87.2828C114.981 87.1987 114.956 87.2107 114.833 87.1627C114.716 87.1137 114.605 87.0533 114.5 86.9824C114.637 87.1428 114.81 87.2703 115.006 87.3549C115.193 87.432 115.393 87.4768 115.597 87.4871H115.72C115.814 87.4767 115.905 87.4524 115.991 87.415C115.88 87.4182 115.768 87.4101 115.659 87.391Z" fill="#681F0F"/>
<path d="M116.043 87.343H116.179H116.302C116.395 87.3615 116.492 87.3615 116.585 87.343C116.452 87.3286 116.328 87.274 116.228 87.1868L116.13 87.1027C115.976 87.0307 115.807 86.9976 115.637 87.0066C115.45 86.9767 115.279 86.883 115.156 86.7422C115.276 86.9155 115.431 87.0628 115.612 87.1748C115.748 87.2491 115.893 87.3056 116.043 87.343Z" fill="#681F0F"/>
<path d="M120.232 86.8022C120.102 86.7786 119.974 86.7423 119.85 86.694C119.699 86.6636 119.55 86.6194 119.407 86.5618C119.289 86.521 119.177 86.4644 119.074 86.3936C119.215 86.5503 119.387 86.6771 119.579 86.7661C119.767 86.8432 119.967 86.8879 120.171 86.8983H120.294C120.39 86.8904 120.482 86.8617 120.565 86.8142C120.454 86.8286 120.342 86.8245 120.232 86.8022Z" fill="#681F0F"/>
<path d="M120.636 86.7542H120.771H120.894C120.988 86.7726 121.084 86.7726 121.178 86.7542C121.046 86.7338 120.923 86.6799 120.82 86.598L120.722 86.5138C120.568 86.4418 120.399 86.4087 120.229 86.4177C120.042 86.3879 119.872 86.2942 119.749 86.1533C119.868 86.3267 120.023 86.474 120.204 86.5859C120.34 86.6602 120.485 86.7168 120.636 86.7542Z" fill="#681F0F"/>
<path d="M117.15 73.7519L116.768 73.6437L116.337 73.5115C116.216 73.4677 116.101 73.4113 115.992 73.3433C116.135 73.4972 116.306 73.6236 116.497 73.7158C116.685 73.7921 116.885 73.8329 117.089 73.836H117.224C117.316 73.8284 117.405 73.7996 117.483 73.7519H117.15Z" fill="#681F0F"/>
<path d="M117.533 73.6915H117.668H117.767C117.857 73.7029 117.948 73.7029 118.038 73.6915C117.907 73.669 117.785 73.6154 117.681 73.5353L117.582 73.4511C117.434 73.331 117.262 73.379 117.089 73.355C116.903 73.3235 116.736 73.2249 116.621 73.0786C116.731 73.2588 116.883 73.4111 117.065 73.5232C117.211 73.6013 117.369 73.658 117.533 73.6915Z" fill="#681F0F"/>
<path d="M121.068 80.5895L121.413 80.7817C121.539 80.8627 121.67 80.935 121.807 80.998L122.164 81.1182C121.953 81.1247 121.743 81.0879 121.548 81.0101C121.358 80.9383 121.186 80.8277 121.043 80.6856L120.957 80.6015C120.9 80.5239 120.854 80.4389 120.821 80.3491C120.894 80.4381 120.976 80.5188 121.068 80.5895Z" fill="#681F0F"/>
<path d="M120.846 80.3372L120.723 80.2651L120.625 80.181C120.559 80.1136 120.505 80.0365 120.464 79.9526C120.567 80.0335 120.691 80.0837 120.822 80.0969H120.957C121.154 80.0969 121.24 80.2771 121.376 80.3732C121.526 80.4871 121.717 80.5389 121.906 80.5174C121.725 80.5557 121.538 80.5584 121.356 80.5254C121.174 80.4924 121.001 80.4243 120.846 80.3252V80.3372Z" fill="#681F0F"/>
<path d="M112.84 77.5369C112.95 77.6092 113.065 77.6735 113.184 77.7292L113.591 77.9575C113.705 78.0088 113.825 78.0452 113.948 78.0657C113.734 78.0789 113.52 78.046 113.32 77.9695C113.134 77.8894 112.964 77.7797 112.815 77.6451L112.729 77.5489C112.68 77.4727 112.639 77.3922 112.605 77.3086C112.674 77.3936 112.752 77.4703 112.84 77.5369Z" fill="#681F0F"/>
<path d="M122.521 73.307L122.139 73.1989L121.695 73.0667C121.579 73.0209 121.468 72.9646 121.363 72.8984C121.501 73.0544 121.674 73.1777 121.868 73.259C122.056 73.336 122.256 73.3808 122.459 73.3911H122.582C122.677 73.3777 122.768 73.3493 122.853 73.307H122.521Z" fill="#681F0F"/>
<path d="M122.902 73.2472C122.947 73.2543 122.992 73.2543 123.037 73.2472H123.16C123.254 73.2674 123.35 73.2674 123.444 73.2472C123.314 73.2217 123.192 73.1683 123.086 73.0909C123.086 73.0909 123.086 73.0308 122.988 73.0068C122.889 72.9828 122.655 72.9347 122.495 72.9107C122.31 72.869 122.142 72.7725 122.015 72.6343C122.134 72.8076 122.29 72.9549 122.47 73.0669C122.602 73.151 122.748 73.212 122.902 73.2472Z" fill="#681F0F"/>
<path d="M120.772 81.0462L120.341 80.926C120.178 80.8936 120.017 80.8495 119.861 80.7938C119.73 80.7452 119.606 80.6806 119.491 80.6016C119.641 80.7809 119.831 80.9248 120.046 81.0222C120.253 81.1067 120.474 81.1515 120.699 81.1543H120.834C120.942 81.1357 121.046 81.0992 121.142 81.0462C121.019 81.0594 120.895 81.0594 120.772 81.0462Z" fill="#681F0F"/>
<path d="M121.191 80.962C121.244 80.9691 121.298 80.9691 121.351 80.962H121.462C121.567 80.9591 121.671 80.9388 121.77 80.902C121.631 80.8751 121.5 80.8176 121.388 80.7337L121.277 80.6256C121.104 80.4934 120.92 80.5535 120.735 80.5414C120.528 80.5042 120.344 80.3927 120.217 80.229C120.338 80.4295 120.502 80.6018 120.698 80.7337C120.85 80.8323 121.016 80.9092 121.191 80.962Z" fill="#681F0F"/>
<path d="M115.842 88.7488L115.707 88.6887H115.596C115.527 88.6276 115.465 88.5591 115.411 88.4844C115.522 88.5489 115.652 88.5783 115.781 88.5685H115.916C116.113 88.5685 116.224 88.7127 116.372 88.7848C116.539 88.8704 116.732 88.8918 116.914 88.8449C116.714 88.9197 116.499 88.9485 116.286 88.929C116.131 88.8881 115.981 88.8275 115.842 88.7488Z" fill="#681F0F"/>
<path d="M115.895 89.5422C115.747 89.5545 115.599 89.5545 115.451 89.5422H114.959C114.821 89.5116 114.689 89.4631 114.564 89.3979C114.74 89.5555 114.951 89.6707 115.18 89.7344C115.396 89.7772 115.618 89.7772 115.833 89.7344H115.981C116.083 89.6956 116.178 89.643 116.265 89.5782C116.14 89.583 116.016 89.5708 115.895 89.5422Z" fill="#681F0F"/>
<path d="M116.299 89.4101H116.594C116.698 89.3894 116.798 89.3529 116.89 89.3019C116.747 89.3014 116.607 89.2641 116.484 89.1938L116.36 89.1097C116.176 89.0015 115.991 89.1097 115.806 89.1097C115.595 89.1038 115.393 89.0226 115.239 88.8813C115.391 89.0641 115.585 89.2085 115.806 89.3019C115.964 89.3621 116.13 89.3985 116.299 89.4101Z" fill="#681F0F"/>
<path d="M119.86 69.726L119.478 69.6179L118.998 69.5218C118.877 69.478 118.761 69.4216 118.653 69.3535C118.801 69.507 118.976 69.6332 119.17 69.726C119.358 69.8023 119.558 69.8431 119.762 69.8462H119.885C119.98 69.8383 120.073 69.8096 120.156 69.7621C120.056 69.7592 119.957 69.7471 119.86 69.726Z" fill="#681F0F"/>
<path d="M120.229 69.6656H120.377H120.5C120.59 69.677 120.681 69.677 120.771 69.6656C120.644 69.6427 120.525 69.589 120.426 69.5094C120.388 69.4875 120.355 69.459 120.327 69.4253C120.167 69.3051 119.995 69.3532 119.834 69.3291C119.643 69.3017 119.471 69.2025 119.354 69.0527C119.469 69.2329 119.625 69.3849 119.81 69.4974C119.94 69.5734 120.081 69.6301 120.229 69.6656Z" fill="#681F0F"/>
<path d="M119.823 70.2067L120.168 70.3989C120.439 70.5431 120.439 70.5672 120.562 70.6152C120.682 70.6644 120.806 70.7045 120.932 70.7354C120.717 70.7433 120.503 70.7064 120.303 70.6273C120.115 70.5524 119.943 70.4422 119.798 70.3028L119.712 70.2187C119.653 70.1441 119.611 70.058 119.589 69.9663C119.656 70.0556 119.735 70.1364 119.823 70.2067Z" fill="#681F0F"/>
<path d="M119.599 69.8943L119.488 69.8222L119.39 69.7381C119.316 69.6772 119.261 69.5984 119.229 69.5098C119.331 69.5926 119.455 69.6429 119.587 69.654H119.71C119.907 69.654 120.006 69.8342 120.129 69.9304C120.281 70.0399 120.47 70.0912 120.659 70.0746C120.451 70.1163 120.238 70.1163 120.03 70.0746C119.879 70.0332 119.734 69.9726 119.599 69.8943Z" fill="#681F0F"/>
<path d="M113.046 83.9421C112.86 83.9245 112.675 83.8964 112.492 83.8579C112.073 83.7738 112.048 83.7858 111.864 83.7378C111.688 83.6978 111.515 83.6456 111.346 83.5815C111.837 83.881 112.405 84.0393 112.985 84.0382H113.157C113.276 84.0227 113.393 83.9903 113.502 83.9421C113.351 83.9558 113.198 83.9558 113.046 83.9421Z" fill="#681F0F"/>
<path d="M113.539 83.942H113.737H113.909C114.035 83.9392 114.159 83.919 114.279 83.8819C114.095 83.8657 113.915 83.8169 113.749 83.7377L113.589 83.6656C113.368 83.5862 113.132 83.5574 112.899 83.5814C112.635 83.5588 112.381 83.472 112.16 83.3291C112.386 83.5072 112.639 83.6491 112.911 83.7497C113.113 83.8341 113.324 83.8985 113.539 83.942Z" fill="#681F0F"/>
<path d="M112.369 83.4737C112.239 83.455 112.111 83.4227 111.987 83.3776L111.556 83.2454C111.436 83.1992 111.321 83.1429 111.211 83.0771C111.352 83.2303 111.524 83.3531 111.716 83.4377C111.904 83.5148 112.104 83.5595 112.307 83.5699H112.443C112.533 83.5567 112.621 83.5282 112.702 83.4857C112.591 83.4988 112.479 83.4948 112.369 83.4737Z" fill="#681F0F"/>
<path d="M112.754 83.4254C112.799 83.4326 112.844 83.4326 112.889 83.4254H113.025C113.114 83.445 113.207 83.445 113.296 83.4254C113.166 83.3999 113.044 83.3465 112.939 83.2692C112.939 83.2692 112.939 83.2091 112.84 83.185C112.741 83.161 112.507 83.1129 112.347 83.0889C112.162 83.0472 111.994 82.9507 111.867 82.8125C111.99 82.9828 112.145 83.1295 112.323 83.2451C112.456 83.3265 112.601 83.3873 112.754 83.4254Z" fill="#681F0F"/>
</svg>
