<svg width="230" height="165" viewBox="0 0 230 165" fill="none" xmlns="http://www.w3.org/2000/svg">
<rect width="230" height="164.983" rx="6.7" fill="white"/>
<path d="M23.1964 138.56C24.0284 138.56 24.7698 138.742 25.4204 139.104C26.0818 139.467 26.5991 139.979 26.9724 140.64C27.3458 141.302 27.5324 142.064 27.5324 142.928C27.5324 143.792 27.3458 144.56 26.9724 145.232C26.5991 145.894 26.0818 146.406 25.4204 146.768C24.7698 147.131 24.0284 147.312 23.1964 147.312C22.6098 147.312 22.0711 147.211 21.5804 147.008C21.1004 146.806 20.6951 146.502 20.3644 146.096V147.2H18.4604V135.328H20.4604V139.696C20.8018 139.323 21.2018 139.04 21.6604 138.848C22.1298 138.656 22.6418 138.56 23.1964 138.56ZM22.9724 145.6C23.7084 145.6 24.3111 145.355 24.7804 144.864C25.2604 144.374 25.5004 143.728 25.5004 142.928C25.5004 142.128 25.2604 141.483 24.7804 140.992C24.3111 140.502 23.7084 140.256 22.9724 140.256C22.4924 140.256 22.0604 140.368 21.6764 140.592C21.2924 140.806 20.9884 141.115 20.7644 141.52C20.5404 141.926 20.4284 142.395 20.4284 142.928C20.4284 143.462 20.5404 143.931 20.7644 144.336C20.9884 144.742 21.2924 145.056 21.6764 145.28C22.0604 145.494 22.4924 145.6 22.9724 145.6ZM37.4612 142.976C37.4612 143.115 37.4505 143.312 37.4292 143.568H30.7252C30.8425 144.198 31.1465 144.699 31.6372 145.072C32.1385 145.435 32.7572 145.616 33.4932 145.616C34.4319 145.616 35.2052 145.307 35.8132 144.688L36.8852 145.92C36.5012 146.379 36.0159 146.726 35.4292 146.96C34.8425 147.195 34.1812 147.312 33.4452 147.312C32.5065 147.312 31.6799 147.126 30.9652 146.752C30.2505 146.379 29.6959 145.862 29.3012 145.2C28.9172 144.528 28.7252 143.771 28.7252 142.928C28.7252 142.096 28.9119 141.35 29.2852 140.688C29.6692 140.016 30.1972 139.494 30.8692 139.12C31.5412 138.747 32.2985 138.56 33.1412 138.56C33.9732 138.56 34.7145 138.747 35.3652 139.12C36.0265 139.483 36.5385 140 36.9012 140.672C37.2745 141.334 37.4612 142.102 37.4612 142.976ZM33.1412 140.16C32.5012 140.16 31.9572 140.352 31.5092 140.736C31.0719 141.11 30.8052 141.611 30.7092 142.24H35.5572C35.4719 141.622 35.2105 141.12 34.7732 140.736C34.3359 140.352 33.7919 140.16 33.1412 140.16ZM41.2863 139.904C41.8623 139.008 42.8756 138.56 44.3263 138.56V140.464C44.1556 140.432 44.001 140.416 43.8623 140.416C43.0836 140.416 42.4756 140.646 42.0383 141.104C41.601 141.552 41.3823 142.203 41.3823 143.056V147.2H39.3823V138.656H41.2863V139.904ZM49.5109 143.536L48.0229 144.944V147.2H46.0229V135.328H48.0229V142.496L52.1669 138.656H54.5669L50.9989 142.24L54.9029 147.2H52.4709L49.5109 143.536ZM63.8674 142.976C63.8674 143.115 63.8568 143.312 63.8354 143.568H57.1314C57.2488 144.198 57.5528 144.699 58.0434 145.072C58.5448 145.435 59.1634 145.616 59.8994 145.616C60.8381 145.616 61.6114 145.307 62.2194 144.688L63.2914 145.92C62.9074 146.379 62.4221 146.726 61.8354 146.96C61.2488 147.195 60.5874 147.312 59.8514 147.312C58.9128 147.312 58.0861 147.126 57.3714 146.752C56.6568 146.379 56.1021 145.862 55.7074 145.2C55.3234 144.528 55.1314 143.771 55.1314 142.928C55.1314 142.096 55.3181 141.35 55.6914 140.688C56.0754 140.016 56.6034 139.494 57.2754 139.12C57.9474 138.747 58.7048 138.56 59.5474 138.56C60.3794 138.56 61.1208 138.747 61.7714 139.12C62.4328 139.483 62.9448 140 63.3074 140.672C63.6808 141.334 63.8674 142.102 63.8674 142.976ZM59.5474 140.16C58.9074 140.16 58.3634 140.352 57.9154 140.736C57.4781 141.11 57.2114 141.611 57.1154 142.24H61.9634C61.8781 141.622 61.6168 141.12 61.1794 140.736C60.7421 140.352 60.1981 140.16 59.5474 140.16ZM65.7886 135.328H67.7886V147.2H65.7886V135.328ZM78.4456 142.976C78.4456 143.115 78.4349 143.312 78.4136 143.568H71.7096C71.8269 144.198 72.1309 144.699 72.6216 145.072C73.1229 145.435 73.7416 145.616 74.4776 145.616C75.4162 145.616 76.1896 145.307 76.7976 144.688L77.8696 145.92C77.4856 146.379 77.0002 146.726 76.4136 146.96C75.8269 147.195 75.1656 147.312 74.4296 147.312C73.4909 147.312 72.6642 147.126 71.9496 146.752C71.2349 146.379 70.6802 145.862 70.2856 145.2C69.9016 144.528 69.7096 143.771 69.7096 142.928C69.7096 142.096 69.8962 141.35 70.2696 140.688C70.6536 140.016 71.1816 139.494 71.8536 139.12C72.5256 138.747 73.2829 138.56 74.1256 138.56C74.9576 138.56 75.6989 138.747 76.3496 139.12C77.0109 139.483 77.5229 140 77.8856 140.672C78.2589 141.334 78.4456 142.102 78.4456 142.976ZM74.1256 140.16C73.4856 140.16 72.9416 140.352 72.4936 140.736C72.0562 141.11 71.7896 141.611 71.6936 142.24H76.5416C76.4562 141.622 76.1949 141.12 75.7576 140.736C75.3202 140.352 74.7762 140.16 74.1256 140.16ZM88.2104 138.656L84.2104 147.888C83.8371 148.816 83.3838 149.467 82.8504 149.84C82.3171 150.224 81.6718 150.416 80.9144 150.416C80.4878 150.416 80.0664 150.347 79.6504 150.208C79.2344 150.07 78.8931 149.878 78.6264 149.632L79.4264 148.16C79.6184 148.342 79.8424 148.486 80.0984 148.592C80.3651 148.699 80.6318 148.752 80.8984 148.752C81.2504 148.752 81.5384 148.662 81.7624 148.48C81.9971 148.299 82.2104 147.995 82.4024 147.568L82.5464 147.232L78.8184 138.656H80.8984L83.5864 144.976L86.2904 138.656H88.2104ZM97.3543 136.832C96.5116 136.832 96.0903 137.291 96.0903 138.208V138.72H98.4423V140.32H96.1543V147.2H94.1543V140.32H92.7463V138.72H94.1543V138.176C94.1543 137.259 94.421 136.539 94.9543 136.016C95.4876 135.483 96.2396 135.216 97.2103 135.216C97.9783 135.216 98.581 135.371 99.0183 135.68L98.4583 137.184C98.117 136.95 97.749 136.832 97.3543 136.832ZM103.504 147.312C102.64 147.312 101.861 147.126 101.168 146.752C100.474 146.379 99.9302 145.862 99.5356 145.2C99.1516 144.528 98.9596 143.771 98.9596 142.928C98.9596 142.086 99.1516 141.334 99.5356 140.672C99.9302 140.011 100.474 139.494 101.168 139.12C101.861 138.747 102.64 138.56 103.504 138.56C104.378 138.56 105.162 138.747 105.856 139.12C106.549 139.494 107.088 140.011 107.472 140.672C107.866 141.334 108.064 142.086 108.064 142.928C108.064 143.771 107.866 144.528 107.472 145.2C107.088 145.862 106.549 146.379 105.856 146.752C105.162 147.126 104.378 147.312 103.504 147.312ZM103.504 145.6C104.24 145.6 104.848 145.355 105.328 144.864C105.808 144.374 106.048 143.728 106.048 142.928C106.048 142.128 105.808 141.483 105.328 140.992C104.848 140.502 104.24 140.256 103.504 140.256C102.768 140.256 102.16 140.502 101.68 140.992C101.21 141.483 100.976 142.128 100.976 142.928C100.976 143.728 101.21 144.374 101.68 144.864C102.16 145.355 102.768 145.6 103.504 145.6ZM113.816 147.312C112.952 147.312 112.173 147.126 111.48 146.752C110.787 146.379 110.243 145.862 109.848 145.2C109.464 144.528 109.272 143.771 109.272 142.928C109.272 142.086 109.464 141.334 109.848 140.672C110.243 140.011 110.787 139.494 111.48 139.12C112.173 138.747 112.952 138.56 113.816 138.56C114.691 138.56 115.475 138.747 116.168 139.12C116.861 139.494 117.4 140.011 117.784 140.672C118.179 141.334 118.376 142.086 118.376 142.928C118.376 143.771 118.179 144.528 117.784 145.2C117.4 145.862 116.861 146.379 116.168 146.752C115.475 147.126 114.691 147.312 113.816 147.312ZM113.816 145.6C114.552 145.6 115.16 145.355 115.64 144.864C116.12 144.374 116.36 143.728 116.36 142.928C116.36 142.128 116.12 141.483 115.64 140.992C115.16 140.502 114.552 140.256 113.816 140.256C113.08 140.256 112.472 140.502 111.992 140.992C111.523 141.483 111.288 142.128 111.288 142.928C111.288 143.728 111.523 144.374 111.992 144.864C112.472 145.355 113.08 145.6 113.816 145.6ZM128.657 135.328V147.2H126.737V146.096C126.406 146.502 125.995 146.806 125.505 147.008C125.025 147.211 124.491 147.312 123.905 147.312C123.083 147.312 122.342 147.131 121.681 146.768C121.03 146.406 120.518 145.894 120.145 145.232C119.771 144.56 119.585 143.792 119.585 142.928C119.585 142.064 119.771 141.302 120.145 140.64C120.518 139.979 121.03 139.467 121.681 139.104C122.342 138.742 123.083 138.56 123.905 138.56C124.47 138.56 124.987 138.656 125.457 138.848C125.926 139.04 126.326 139.328 126.657 139.712V135.328H128.657ZM124.145 145.6C124.625 145.6 125.057 145.494 125.441 145.28C125.825 145.056 126.129 144.742 126.353 144.336C126.577 143.931 126.689 143.462 126.689 142.928C126.689 142.395 126.577 141.926 126.353 141.52C126.129 141.115 125.825 140.806 125.441 140.592C125.057 140.368 124.625 140.256 124.145 140.256C123.665 140.256 123.233 140.368 122.849 140.592C122.465 140.806 122.161 141.115 121.937 141.52C121.713 141.926 121.601 142.395 121.601 142.928C121.601 143.462 121.713 143.931 121.937 144.336C122.161 144.742 122.465 145.056 122.849 145.28C123.233 145.494 123.665 145.6 124.145 145.6ZM139.615 147.312C138.729 147.312 137.935 147.126 137.231 146.752C136.527 146.379 135.977 145.862 135.583 145.2C135.188 144.528 134.991 143.771 134.991 142.928C134.991 142.086 135.188 141.334 135.583 140.672C135.977 140.011 136.521 139.494 137.215 139.12C137.919 138.747 138.719 138.56 139.615 138.56C140.457 138.56 141.193 138.731 141.823 139.072C142.463 139.414 142.943 139.904 143.263 140.544L141.727 141.44C141.481 141.046 141.172 140.752 140.799 140.56C140.436 140.358 140.036 140.256 139.599 140.256C138.852 140.256 138.233 140.502 137.743 140.992C137.252 141.472 137.007 142.118 137.007 142.928C137.007 143.739 137.247 144.39 137.727 144.88C138.217 145.36 138.841 145.6 139.599 145.6C140.036 145.6 140.436 145.504 140.799 145.312C141.172 145.11 141.481 144.811 141.727 144.416L143.263 145.312C142.932 145.952 142.447 146.448 141.807 146.8C141.177 147.142 140.447 147.312 139.615 147.312ZM148.707 147.312C147.843 147.312 147.064 147.126 146.371 146.752C145.677 146.379 145.133 145.862 144.739 145.2C144.355 144.528 144.163 143.771 144.163 142.928C144.163 142.086 144.355 141.334 144.739 140.672C145.133 140.011 145.677 139.494 146.371 139.12C147.064 138.747 147.843 138.56 148.707 138.56C149.581 138.56 150.365 138.747 151.059 139.12C151.752 139.494 152.291 140.011 152.675 140.672C153.069 141.334 153.267 142.086 153.267 142.928C153.267 143.771 153.069 144.528 152.675 145.2C152.291 145.862 151.752 146.379 151.059 146.752C150.365 147.126 149.581 147.312 148.707 147.312ZM148.707 145.6C149.443 145.6 150.051 145.355 150.531 144.864C151.011 144.374 151.251 143.728 151.251 142.928C151.251 142.128 151.011 141.483 150.531 140.992C150.051 140.502 149.443 140.256 148.707 140.256C147.971 140.256 147.363 140.502 146.883 140.992C146.413 141.483 146.179 142.128 146.179 142.928C146.179 143.728 146.413 144.374 146.883 144.864C147.363 145.355 147.971 145.6 148.707 145.6ZM155.179 135.328H157.179V147.2H155.179V135.328ZM159.804 135.328H161.804V147.2H159.804V135.328ZM172.461 142.976C172.461 143.115 172.451 143.312 172.429 143.568H165.725C165.843 144.198 166.147 144.699 166.637 145.072C167.139 145.435 167.757 145.616 168.493 145.616C169.432 145.616 170.205 145.307 170.813 144.688L171.885 145.92C171.501 146.379 171.016 146.726 170.429 146.96C169.843 147.195 169.181 147.312 168.445 147.312C167.507 147.312 166.68 147.126 165.965 146.752C165.251 146.379 164.696 145.862 164.301 145.2C163.917 144.528 163.725 143.771 163.725 142.928C163.725 142.096 163.912 141.35 164.285 140.688C164.669 140.016 165.197 139.494 165.869 139.12C166.541 138.747 167.299 138.56 168.141 138.56C168.973 138.56 169.715 138.747 170.365 139.12C171.027 139.483 171.539 140 171.901 140.672C172.275 141.334 172.461 142.102 172.461 142.976ZM168.141 140.16C167.501 140.16 166.957 140.352 166.509 140.736C166.072 141.11 165.805 141.611 165.709 142.24H170.557C170.472 141.622 170.211 141.12 169.773 140.736C169.336 140.352 168.792 140.16 168.141 140.16ZM178.302 147.312C177.417 147.312 176.622 147.126 175.918 146.752C175.214 146.379 174.665 145.862 174.27 145.2C173.876 144.528 173.678 143.771 173.678 142.928C173.678 142.086 173.876 141.334 174.27 140.672C174.665 140.011 175.209 139.494 175.902 139.12C176.606 138.747 177.406 138.56 178.302 138.56C179.145 138.56 179.881 138.731 180.51 139.072C181.15 139.414 181.63 139.904 181.95 140.544L180.414 141.44C180.169 141.046 179.86 140.752 179.486 140.56C179.124 140.358 178.724 140.256 178.286 140.256C177.54 140.256 176.921 140.502 176.43 140.992C175.94 141.472 175.694 142.118 175.694 142.928C175.694 143.739 175.934 144.39 176.414 144.88C176.905 145.36 177.529 145.6 178.286 145.6C178.724 145.6 179.124 145.504 179.486 145.312C179.86 145.11 180.169 144.811 180.414 144.416L181.95 145.312C181.62 145.952 181.134 146.448 180.494 146.8C179.865 147.142 179.134 147.312 178.302 147.312ZM188.925 146.736C188.69 146.928 188.402 147.072 188.061 147.168C187.73 147.264 187.378 147.312 187.005 147.312C186.066 147.312 185.341 147.067 184.829 146.576C184.317 146.086 184.061 145.371 184.061 144.432V140.32H182.653V138.72H184.061V136.768H186.061V138.72H188.349V140.32H186.061V144.384C186.061 144.8 186.162 145.12 186.365 145.344C186.567 145.558 186.861 145.664 187.245 145.664C187.693 145.664 188.066 145.547 188.365 145.312L188.925 146.736ZM190.57 138.656H192.57V147.2H190.57V138.656ZM191.578 137.248C191.215 137.248 190.911 137.136 190.666 136.912C190.42 136.678 190.298 136.39 190.298 136.048C190.298 135.707 190.42 135.424 190.666 135.2C190.911 134.966 191.215 134.848 191.578 134.848C191.94 134.848 192.244 134.96 192.49 135.184C192.735 135.398 192.858 135.67 192.858 136C192.858 136.352 192.735 136.651 192.49 136.896C192.255 137.131 191.951 137.248 191.578 137.248ZM203.195 138.656L199.531 147.2H197.467L193.803 138.656H195.883L198.539 144.992L201.275 138.656H203.195ZM212.242 142.976C212.242 143.115 212.232 143.312 212.21 143.568H205.506C205.624 144.198 205.928 144.699 206.418 145.072C206.92 145.435 207.538 145.616 208.274 145.616C209.213 145.616 209.986 145.307 210.594 144.688L211.666 145.92C211.282 146.379 210.797 146.726 210.21 146.96C209.624 147.195 208.962 147.312 208.226 147.312C207.288 147.312 206.461 147.126 205.746 146.752C205.032 146.379 204.477 145.862 204.082 145.2C203.698 144.528 203.506 143.771 203.506 142.928C203.506 142.096 203.693 141.35 204.066 140.688C204.45 140.016 204.978 139.494 205.65 139.12C206.322 138.747 207.08 138.56 207.922 138.56C208.754 138.56 209.496 138.747 210.146 139.12C210.808 139.483 211.32 140 211.682 140.672C212.056 141.334 212.242 142.102 212.242 142.976ZM207.922 140.16C207.282 140.16 206.738 140.352 206.29 140.736C205.853 141.11 205.586 141.611 205.49 142.24H210.338C210.253 141.622 209.992 141.12 209.554 140.736C209.117 140.352 208.573 140.16 207.922 140.16Z" fill="black"/>
<path d="M116.164 53.1181C112.603 53.5147 109.733 55.197 105.076 57.9249C96.6617 62.8279 96.6494 65.9283 91.7954 67.9472C82.4448 71.8527 74.6341 62.1309 67.4517 65.5438C61.5259 68.3798 65.4189 75.3016 58.0517 81.3823C51.4237 86.8501 44.3522 84.4827 41.6665 89.4217C38.7221 94.8294 44.9189 101.835 45.3624 102.28C45.8059 102.725 51.165 108.661 56.6965 107.952C58.5075 107.724 59.5054 106.895 61.723 107.075C63.7423 107.344 65.6381 108.179 67.1806 109.478C74.2029 114.141 86.1037 103.89 100.037 106.438C102.864 107.146 105.825 107.166 108.661 106.498C110.902 105.812 112.974 104.683 114.747 103.181C122.324 98.0019 135.494 101.367 137.268 101.811C149.045 104.828 148.355 111.425 155.525 111.353C164.864 111.185 167.919 99.7684 179.869 98.9513C181.545 98.8311 184.797 98.8311 186.029 97.0886C187.384 95.1298 185.401 92.1496 184.797 91.1762C178.366 80.6492 188.259 66.0845 182.087 61.2657C175.188 55.882 160.047 72.0811 142.799 66.9858C130.405 63.3086 126.697 51.9404 116.164 53.1181Z" fill="#DCF4D7"/>
<path opacity="0.69" d="M30 77.4046C34.3659 78.8033 39.0058 79.1901 43.5517 78.5343C46.2251 78.1377 49.0463 77.7051 49.921 75.9025C51.2885 73.0545 47.802 68.0914 45.7816 68.3678C43.022 68.7523 40.287 79.3154 44.9561 83.8098C46.3113 85.1076 48.2455 85.8407 56.5367 86.069C72.3675 86.4896 76.3222 84.1102 80.1166 86.814C85.3895 90.5754 85.4511 100.61 82.1864 102.256C79.7224 103.458 74.1539 100.646 73.9198 97.7376C73.5379 93.2552 85.5989 86.3694 95.4301 88.7007C101.688 90.1908 107.035 95.4183 106.185 96.9805C105.335 98.5427 98.9781 97.7856 98.3252 95.8509C97.4751 93.3393 106.493 88.7608 110.325 86.814C129.309 77.2004 143.588 78.0776 144.253 73.2588C144.561 70.8553 141.383 67.8751 138.869 67.9953C136.356 68.1154 133.942 71.336 134.496 73.8356C135.1 76.948 140.151 78.9669 144.105 78.5222C148.972 77.9815 149.575 73.9798 156.918 68.8124C161.082 65.8682 169.09 61.3979 171.504 63.3086C173.919 65.2193 171.098 73.0064 168.474 73.1867C166.774 73.2948 164.507 70.1944 165.271 68.488C166.207 66.421 171.899 65.724 174.523 67.839C177.147 69.9541 174.523 73.6072 177.196 78.1978C177.344 78.4501 180.584 83.7377 186.448 84.0381C188.75 84.0588 191.011 83.4463 192.972 82.2709C194.933 81.0955 196.515 79.4048 197.536 77.3926" stroke="#4B964B" stroke-width="0.3" stroke-miterlimit="10"/>
<path d="M31.1436 76.5875C35.4928 77.964 40.1075 78.3504 44.6336 77.7171C47.307 77.3085 50.1282 76.8879 51.0029 75.0733C52.3704 72.2252 48.884 67.2622 46.8635 67.5506C44.1162 67.9231 41.3689 78.4982 46.0381 82.9805C47.4056 84.2904 49.3275 85.0235 57.6186 85.2398C73.4495 85.6604 77.4164 83.293 81.2109 85.9968C86.4714 89.7462 86.533 99.7804 83.2806 101.427C80.8167 102.628 75.2482 99.8285 75.0018 96.9084C74.6199 92.438 86.6932 85.5402 96.512 87.8715C102.77 89.3616 108.117 94.6011 107.267 96.1633C106.417 97.7255 100.06 96.9684 99.4072 95.0337C98.5694 92.5101 107.587 87.9316 111.407 85.9968C130.391 76.3832 144.67 77.2484 145.335 72.4415C145.643 70.0381 142.465 67.0459 139.951 67.166C137.438 67.2862 135.097 70.5188 135.578 73.0063C136.182 76.1188 141.245 78.1497 145.187 77.705C150.054 77.1643 150.657 73.1506 158 67.9832C162.176 65.051 170.172 60.5807 172.586 62.4794C175.001 64.3781 172.18 72.1892 169.568 72.3574C167.856 72.4776 165.589 69.3652 166.365 67.6587C167.289 65.6038 172.993 64.9068 175.617 67.0218C178.241 69.1368 175.617 72.778 178.278 77.3806C178.426 77.6329 181.666 82.9205 187.53 83.2089C189.831 83.2321 192.091 82.622 194.053 81.4486C196.014 80.2753 197.596 78.5863 198.618 76.5754" stroke="#76A576" stroke-width="0.5" stroke-miterlimit="10"/>
<path d="M32.5254 75.3017C36.872 76.691 41.4897 77.0777 46.0155 76.4313C48.6889 76.0348 51.5101 75.6142 52.3848 73.7996C53.7523 70.9516 50.2658 65.9885 48.2454 66.2649C45.4981 66.6494 42.7508 77.2245 47.4199 81.7069C48.7751 83.0167 50.7093 83.7498 59.0005 83.9661C74.8313 84.3867 78.786 82.0193 82.5804 84.7231C87.8533 88.4725 87.9149 98.5068 84.6501 100.153C82.1862 101.355 76.63 98.5548 76.3836 95.6347C76.0017 91.1523 88.0627 84.2665 97.8938 86.5978C104.152 88.0879 109.499 93.3154 108.649 94.8896C107.799 96.4638 101.442 95.6947 100.789 93.76C99.9512 91.2364 108.969 86.6579 112.788 84.7231C131.773 75.1095 146.052 75.9747 146.717 71.1679C147.025 68.7644 143.846 65.7722 141.333 65.8924C138.82 66.0125 136.467 69.2331 136.96 71.7327C137.563 74.8451 142.627 76.864 146.569 76.4313C151.435 75.8786 152.039 71.8769 159.382 66.7095C163.558 63.7774 171.553 59.307 173.968 61.2057C176.383 63.1044 173.562 70.9035 170.938 71.0837C169.237 71.2039 166.971 68.0915 167.747 66.3851C168.671 64.3301 174.362 63.6332 176.999 65.7361C179.635 67.8391 176.999 71.5043 179.66 76.1069C179.808 76.3472 183.048 81.6348 188.912 81.9352C191.214 81.9573 193.476 81.3454 195.437 80.1699C197.398 78.9943 198.98 77.3028 200 75.2897" stroke="#4B964B" stroke-width="0.5" stroke-miterlimit="10"/>
<path d="M176.53 79.1592C176.652 79.1592 176.752 79.1108 176.752 79.051C176.752 78.9913 176.652 78.9429 176.53 78.9429C176.407 78.9429 176.308 78.9913 176.308 79.051C176.308 79.1108 176.407 79.1592 176.53 79.1592Z" fill="#B56F35" stroke="#B56F35" stroke-width="0.5" stroke-miterlimit="3.86" stroke-linecap="round"/>
<path d="M175.201 77.2124C175.446 77.2124 175.645 77.0671 175.645 76.8879C175.645 76.7087 175.446 76.5635 175.201 76.5635C174.956 76.5635 174.758 76.7087 174.758 76.8879C174.758 77.0671 174.956 77.2124 175.201 77.2124Z" fill="#B56F35"/>
<path d="M176.31 77.645C176.555 77.645 176.753 77.4997 176.753 77.3205C176.753 77.1413 176.555 76.9961 176.31 76.9961C176.065 76.9961 175.866 77.1413 175.866 77.3205C175.866 77.4997 176.065 77.645 176.31 77.645Z" fill="#B56F35"/>
<path d="M178.194 75.9145C178.439 75.9145 178.638 75.7693 178.638 75.5901C178.638 75.4109 178.439 75.2656 178.194 75.2656C177.949 75.2656 177.75 75.4109 177.75 75.5901C177.75 75.7693 177.949 75.9145 178.194 75.9145Z" fill="#B56F35"/>
<path d="M178.97 77.5369C179.215 77.5369 179.413 77.3916 179.413 77.2124C179.413 77.0332 179.215 76.8879 178.97 76.8879C178.725 76.8879 178.526 77.0332 178.526 77.2124C178.526 77.3916 178.725 77.5369 178.97 77.5369Z" fill="#B56F35"/>
<path d="M179.634 77.9695C179.879 77.9695 180.077 77.8242 180.077 77.645C180.077 77.4658 179.879 77.3206 179.634 77.3206C179.389 77.3206 179.19 77.4658 179.19 77.645C179.19 77.8242 179.389 77.9695 179.634 77.9695Z" fill="#B56F35"/>
<path d="M174.806 70.0983C171.406 72.7781 171.923 72.6699 171.11 73.0665C168.277 74.5446 166.527 73.2468 161.957 74.7849C160.638 75.2176 159.493 75.6261 159.493 76.239C159.493 77.2725 162.708 78.4381 165.394 78.7145C167.052 78.9462 168.74 78.853 170.361 78.4404C171.981 78.0277 173.501 77.3038 174.831 76.3111C178.724 73.1987 179.759 67.8391 178.884 67.3103C178.576 67.118 177.307 68.1275 174.806 70.0983Z" fill="#FCC332" stroke="#FFCF03" stroke-width="0.5" stroke-miterlimit="10"/>
<path d="M177.837 67.6347C175.792 69.0888 178.009 72.6579 175.903 75.6621C174.891 76.8764 173.518 77.7541 171.973 78.1737C170.551 78.6547 169.087 79.0086 167.599 79.2312C164.692 79.772 164.026 79.6999 163.829 80.1805C163.46 81.1179 165.332 82.9325 167.279 83.7857C168.742 84.3632 170.34 84.5378 171.899 84.2904C173.439 84.1342 177.369 83.7496 179.29 80.8655C180.042 79.7239 180.177 78.5582 180.449 76.2389C180.646 74.6286 180.375 75.0372 180.338 70.6029C180.338 68.6682 180.338 67.6828 179.722 67.3223C179.406 67.2129 179.067 67.1842 178.737 67.2389C178.407 67.2936 178.097 67.4299 177.837 67.6347Z" fill="#FCC332" stroke="#FFCF03" stroke-width="0.5" stroke-miterlimit="10"/>
<path d="M180.868 68.1275C180.4 68.2717 180.462 69.8219 180.536 71.6726C180.634 74.2082 181.139 74.5807 181.028 76.3112C181.021 77.9737 180.425 79.5827 179.341 80.8656C178.158 81.8193 176.888 82.6641 175.546 83.3892C173.563 84.651 173.316 84.8433 173.329 85.1197C173.329 86.1532 176.877 87.5231 179.932 86.766C184.01 85.7686 185.648 81.4184 185.735 81.1901C187.989 74.809 181.829 67.8151 180.868 68.1275Z" fill="#FCC332" stroke="#FFCF03" stroke-width="0.5" stroke-miterlimit="10"/>
<path d="M178.576 67.1181C178.576 66.2769 178.576 65.4357 178.576 64.5945L179.808 64.3662L180.03 65.4477L180.264 64.4023L181.36 64.5465C181.225 65.652 181.077 66.7696 180.942 67.8752L179.34 68.5482L178.576 67.1181Z" fill="#BC902E" stroke="#A07C22" stroke-width="0.25" stroke-miterlimit="10"/>
<path opacity="0.5" d="M174.277 84.9754C174.372 84.9754 174.449 84.9377 174.449 84.8912C174.449 84.8448 174.372 84.8071 174.277 84.8071C174.182 84.8071 174.104 84.8448 174.104 84.8912C174.104 84.9377 174.182 84.9754 174.277 84.9754Z" fill="#B56F35" stroke="#B56F35" stroke-width="0.25" stroke-miterlimit="3.86" stroke-linecap="round"/>
<path opacity="0.5" d="M181.2 85.1196C181.397 85.1196 181.557 85.0012 181.557 84.8552C181.557 84.7092 181.397 84.5908 181.2 84.5908C181.003 84.5908 180.843 84.7092 180.843 84.8552C180.843 85.0012 181.003 85.1196 181.2 85.1196Z" fill="#B56F35"/>
<path opacity="0.5" d="M182.088 85.456C182.286 85.456 182.445 85.3376 182.445 85.1916C182.445 85.0456 182.286 84.9272 182.088 84.9272C181.891 84.9272 181.731 85.0456 181.731 85.1916C181.731 85.3376 181.891 85.456 182.088 85.456Z" fill="#B56F35"/>
<path opacity="0.5" d="M183.603 84.0742C183.8 84.0742 183.96 83.9558 183.96 83.8098C183.96 83.6638 183.8 83.5454 183.603 83.5454C183.406 83.5454 183.246 83.6638 183.246 83.8098C183.246 83.9558 183.406 84.0742 183.603 84.0742Z" fill="#B56F35"/>
<path opacity="0.5" d="M176.223 83.6894C176.421 83.6894 176.581 83.571 176.581 83.425C176.581 83.279 176.421 83.1606 176.223 83.1606C176.026 83.1606 175.866 83.279 175.866 83.425C175.866 83.571 176.026 83.6894 176.223 83.6894Z" fill="#B56F35"/>
<path opacity="0.5" d="M176.753 84.038C176.95 84.038 177.11 83.9197 177.11 83.7737C177.11 83.6276 176.95 83.5093 176.753 83.5093C176.555 83.5093 176.396 83.6276 176.396 83.7737C176.396 83.9197 176.555 84.038 176.753 84.038Z" fill="#B56F35"/>
<path opacity="0.5" d="M182.667 77.8974C182.755 77.8974 182.827 77.8651 182.827 77.8253C182.827 77.7855 182.755 77.7532 182.667 77.7532C182.579 77.7532 182.507 77.7855 182.507 77.8253C182.507 77.8651 182.579 77.8974 182.667 77.8974Z" fill="#B56F35" stroke="#B56F35" stroke-width="0.25" stroke-miterlimit="3.86" stroke-linecap="round"/>
<path opacity="0.5" d="M181.729 76.5394C181.899 76.5394 182.037 76.4372 182.037 76.3111C182.037 76.185 181.899 76.0828 181.729 76.0828C181.559 76.0828 181.421 76.185 181.421 76.3111C181.421 76.4372 181.559 76.5394 181.729 76.5394Z" fill="#B56F35"/>
<path opacity="0.5" d="M182.508 76.8397C182.678 76.8397 182.816 76.7375 182.816 76.6114C182.816 76.4853 182.678 76.3831 182.508 76.3831C182.338 76.3831 182.2 76.4853 182.2 76.6114C182.2 76.7375 182.338 76.8397 182.508 76.8397Z" fill="#B56F35"/>
<path opacity="0.5" d="M183.821 75.6261C183.991 75.6261 184.129 75.5239 184.129 75.3978C184.129 75.2717 183.991 75.1694 183.821 75.1694C183.651 75.1694 183.513 75.2717 183.513 75.3978C183.513 75.5239 183.651 75.6261 183.821 75.6261Z" fill="#B56F35"/>
<path opacity="0.5" d="M177.726 71.6485C177.897 71.6485 178.034 71.5463 178.034 71.4202C178.034 71.2941 177.897 71.1919 177.726 71.1919C177.556 71.1919 177.418 71.2941 177.418 71.4202C177.418 71.5463 177.556 71.6485 177.726 71.6485Z" fill="#B56F35"/>
<path opacity="0.5" d="M178.355 72.1771C178.525 72.1771 178.663 72.0749 178.663 71.9488C178.663 71.8227 178.525 71.7205 178.355 71.7205C178.185 71.7205 178.047 71.8227 178.047 71.9488C178.047 72.0749 178.185 72.1771 178.355 72.1771Z" fill="#B56F35"/>
<path opacity="0.5" d="M170.1 79.1591C170.188 79.1591 170.26 79.1268 170.26 79.087C170.26 79.0472 170.188 79.0149 170.1 79.0149C170.011 79.0149 169.939 79.0472 169.939 79.087C169.939 79.1268 170.011 79.1591 170.1 79.1591Z" fill="#B56F35" stroke="#B56F35" stroke-width="0.25" stroke-miterlimit="3.86" stroke-linecap="round"/>
<path opacity="0.5" d="M169.164 77.8011C169.334 77.8011 169.472 77.6989 169.472 77.5728C169.472 77.4467 169.334 77.3445 169.164 77.3445C168.994 77.3445 168.856 77.4467 168.856 77.5728C168.856 77.6989 168.994 77.8011 169.164 77.8011Z" fill="#B56F35"/>
<path opacity="0.5" d="M169.938 78.1017C170.108 78.1017 170.246 77.9994 170.246 77.8733C170.246 77.7472 170.108 77.645 169.938 77.645C169.768 77.645 169.63 77.7472 169.63 77.8733C169.63 77.9994 169.768 78.1017 169.938 78.1017Z" fill="#B56F35"/>
<path opacity="0.5" d="M171.258 76.9C171.428 76.9 171.566 76.7978 171.566 76.6717C171.566 76.5456 171.428 76.4434 171.258 76.4434C171.088 76.4434 170.95 76.5456 170.95 76.6717C170.95 76.7978 171.088 76.9 171.258 76.9Z" fill="#B56F35"/>
<path opacity="0.5" d="M171.8 78.0294C171.97 78.0294 172.108 77.9272 172.108 77.8011C172.108 77.675 171.97 77.5728 171.8 77.5728C171.63 77.5728 171.492 77.675 171.492 77.8011C171.492 77.9272 171.63 78.0294 171.8 78.0294Z" fill="#B56F35"/>
<path opacity="0.5" d="M172.271 78.33C172.441 78.33 172.579 78.2277 172.579 78.1016C172.579 77.9755 172.441 77.8733 172.271 77.8733C172.101 77.8733 171.963 77.9755 171.963 78.1016C171.963 78.2277 172.101 78.33 172.271 78.33Z" fill="#B56F35"/>
<path opacity="0.5" d="M165.504 75.0732C165.627 75.0732 165.726 75.0032 165.726 74.9169C165.726 74.8307 165.627 74.7607 165.504 74.7607C165.382 74.7607 165.283 74.8307 165.283 74.9169C165.283 75.0032 165.382 75.0732 165.504 75.0732Z" fill="#B56F35"/>
<path opacity="0.5" d="M166.048 75.2775C166.17 75.2775 166.27 75.2076 166.27 75.1213C166.27 75.035 166.17 74.9651 166.048 74.9651C165.925 74.9651 165.826 75.035 165.826 75.1213C165.826 75.2076 165.925 75.2775 166.048 75.2775Z" fill="#B56F35"/>
<path opacity="0.5" d="M167.354 75.2294C167.476 75.2294 167.575 75.1595 167.575 75.0732C167.575 74.9869 167.476 74.917 167.354 74.917C167.231 74.917 167.132 74.9869 167.132 75.0732C167.132 75.1595 167.231 75.2294 167.354 75.2294Z" fill="#B56F35"/>
<path opacity="0.5" d="M167.686 75.4457C167.808 75.4457 167.907 75.3758 167.907 75.2895C167.907 75.2032 167.808 75.1333 167.686 75.1333C167.563 75.1333 167.464 75.2032 167.464 75.2895C167.464 75.3758 167.563 75.4457 167.686 75.4457Z" fill="#B56F35"/>
<path opacity="0.5" d="M168.611 83.8163C168.731 83.7941 168.815 83.7073 168.799 83.6226C168.782 83.5378 168.671 83.4871 168.551 83.5093C168.431 83.5315 168.346 83.6183 168.363 83.703C168.379 83.7878 168.49 83.8385 168.611 83.8163Z" fill="#B56F35"/>
<path opacity="0.5" d="M169.177 83.9279C169.298 83.9057 169.382 83.8189 169.365 83.7342C169.349 83.6494 169.238 83.5987 169.118 83.6209C168.997 83.6431 168.913 83.7299 168.93 83.8146C168.946 83.8994 169.057 83.9501 169.177 83.9279Z" fill="#B56F35"/>
<path opacity="0.5" d="M170.456 83.6425C170.576 83.6203 170.66 83.5335 170.644 83.4488C170.627 83.364 170.516 83.3133 170.396 83.3355C170.276 83.3577 170.192 83.4445 170.208 83.5292C170.224 83.614 170.335 83.6647 170.456 83.6425Z" fill="#B56F35"/>
<path opacity="0.5" d="M170.823 83.789C170.943 83.7667 171.027 83.68 171.011 83.5952C170.995 83.5105 170.884 83.4598 170.763 83.482C170.643 83.5042 170.559 83.5909 170.575 83.6757C170.592 83.7605 170.703 83.8112 170.823 83.789Z" fill="#B56F35"/>
<path opacity="0.5" d="M179.306 74.2667C179.327 74.149 179.273 74.0416 179.186 74.0268C179.099 74.012 179.011 74.0955 178.99 74.2132C178.969 74.3309 179.023 74.4382 179.11 74.453C179.197 74.4678 179.285 74.3844 179.306 74.2667Z" fill="#B56F35"/>
<path opacity="0.5" d="M179.613 73.7801C179.634 73.6624 179.58 73.555 179.493 73.5402C179.406 73.5255 179.318 73.6089 179.297 73.7266C179.276 73.8443 179.33 73.9517 179.417 73.9665C179.504 73.9812 179.592 73.8978 179.613 73.7801Z" fill="#B56F35"/>
<path opacity="0.5" d="M180.398 70.6439C180.419 70.5256 180.365 70.4179 180.277 70.4032C180.19 70.3885 180.102 70.4725 180.081 70.5908C180.06 70.7091 180.114 70.8168 180.202 70.8315C180.29 70.8462 180.377 70.7622 180.398 70.6439Z" fill="#B56F35"/>
<path opacity="0.5" d="M180.059 72.2374C180.08 72.1197 180.026 72.0123 179.939 71.9975C179.852 71.9827 179.765 72.0662 179.744 72.1839C179.723 72.3016 179.776 72.409 179.863 72.4237C179.951 72.4385 180.038 72.3551 180.059 72.2374Z" fill="#B56F35"/>
<path opacity="0.5" d="M172.053 82.8845C172.069 82.7997 171.985 82.7129 171.865 82.6907C171.744 82.6684 171.633 82.719 171.617 82.8038C171.6 82.8886 171.684 82.9753 171.805 82.9976C171.925 83.0199 172.036 82.9692 172.053 82.8845Z" fill="#B56F35"/>
<path opacity="0.5" d="M172.547 83.2036C172.563 83.1188 172.479 83.0321 172.359 83.0098C172.238 82.9875 172.127 83.0382 172.111 83.1229C172.094 83.2077 172.179 83.2944 172.299 83.3167C172.419 83.339 172.53 83.2884 172.547 83.2036Z" fill="#B56F35"/>
<path opacity="0.5" d="M173.845 83.3796C173.862 83.2948 173.778 83.2081 173.657 83.1858C173.537 83.1635 173.426 83.2141 173.41 83.2989C173.393 83.3837 173.477 83.4705 173.598 83.4927C173.718 83.515 173.829 83.4644 173.845 83.3796Z" fill="#B56F35"/>
<path opacity="0.5" d="M174.114 83.6496C174.13 83.5649 174.046 83.4781 173.926 83.4558C173.805 83.4335 173.694 83.4842 173.678 83.5689C173.661 83.6537 173.745 83.7405 173.866 83.7628C173.986 83.785 174.097 83.7344 174.114 83.6496Z" fill="#B56F35"/>
<path opacity="0.5" d="M179.444 86.264C179.563 86.2351 179.642 86.1439 179.62 86.0602C179.599 85.9765 179.485 85.9319 179.367 85.9608C179.248 85.9896 179.169 86.0808 179.19 86.1646C179.211 86.2483 179.325 86.2928 179.444 86.264Z" fill="#B56F35"/>
<path opacity="0.5" d="M180.027 86.3536C180.146 86.3248 180.225 86.2335 180.203 86.1498C180.182 86.0661 180.068 86.0215 179.95 86.0504C179.831 86.0792 179.752 86.1704 179.773 86.2542C179.794 86.3379 179.908 86.3824 180.027 86.3536Z" fill="#B56F35"/>
<path opacity="0.5" d="M181.268 85.9874C181.387 85.9585 181.466 85.8673 181.445 85.7836C181.423 85.6998 181.31 85.6553 181.191 85.6841C181.072 85.713 180.993 85.8042 181.014 85.8879C181.036 85.9717 181.149 86.0162 181.268 85.9874Z" fill="#B56F35"/>
<path opacity="0.5" d="M181.633 86.1248C181.752 86.096 181.831 86.0047 181.81 85.921C181.789 85.8373 181.675 85.7928 181.556 85.8216C181.437 85.8504 181.358 85.9416 181.379 86.0254C181.401 86.1091 181.514 86.1536 181.633 86.1248Z" fill="#B56F35"/>
<path opacity="0.5" d="M178.412 80.6935C178.473 80.5894 178.459 80.4707 178.382 80.4283C178.305 80.3859 178.194 80.4359 178.133 80.5399C178.073 80.6439 178.087 80.7626 178.164 80.805C178.241 80.8475 178.352 80.7975 178.412 80.6935Z" fill="#B56F35"/>
<path opacity="0.5" d="M178.867 80.3334C178.927 80.2293 178.914 80.1106 178.836 80.0682C178.759 80.0258 178.648 80.0758 178.588 80.1798C178.528 80.2838 178.541 80.4025 178.618 80.4449C178.695 80.4873 178.807 80.4374 178.867 80.3334Z" fill="#B56F35"/>
<path opacity="0.5" d="M179.469 79.2037C179.529 79.0997 179.515 78.981 179.438 78.9386C179.361 78.8962 179.25 78.9461 179.19 79.0502C179.129 79.1542 179.143 79.2729 179.22 79.3153C179.297 79.3577 179.408 79.3078 179.469 79.2037Z" fill="#B56F35"/>
<path opacity="0.5" d="M179.822 79.0321C179.882 78.9281 179.868 78.8094 179.791 78.7669C179.714 78.7245 179.603 78.7745 179.543 78.8785C179.482 78.9826 179.496 79.1013 179.573 79.1437C179.65 79.1861 179.761 79.1361 179.822 79.0321Z" fill="#B56F35"/>
<path opacity="0.5" d="M175.897 70.1234C175.988 70.0432 176.013 69.9263 175.954 69.8624C175.894 69.7985 175.773 69.8117 175.682 69.8919C175.591 69.9721 175.566 70.0889 175.625 70.1529C175.685 70.2168 175.806 70.2036 175.897 70.1234Z" fill="#B56F35"/>
<path opacity="0.5" d="M176.455 69.9303C176.546 69.8501 176.571 69.7332 176.512 69.6693C176.453 69.6053 176.331 69.6185 176.24 69.6988C176.149 69.779 176.124 69.8958 176.183 69.9598C176.243 70.0237 176.364 70.0105 176.455 69.9303Z" fill="#B56F35"/>
<path opacity="0.5" d="M177.381 69.0387C177.472 68.9585 177.497 68.8416 177.438 68.7777C177.378 68.7137 177.257 68.7269 177.166 68.8072C177.075 68.8874 177.05 69.0042 177.109 69.0682C177.168 69.1321 177.29 69.1189 177.381 69.0387Z" fill="#B56F35"/>
<path opacity="0.5" d="M177.767 68.9764C177.857 68.8962 177.883 68.7794 177.823 68.7154C177.764 68.6515 177.642 68.6647 177.552 68.7449C177.461 68.8251 177.435 68.942 177.495 69.0059C177.554 69.0698 177.676 69.0566 177.767 68.9764Z" fill="#B56F35"/>
<path opacity="0.5" d="M162.205 77.8012C162.327 77.8012 162.426 77.7313 162.426 77.645C162.426 77.5587 162.327 77.4888 162.205 77.4888C162.082 77.4888 161.983 77.5587 161.983 77.645C161.983 77.7313 162.082 77.8012 162.205 77.8012Z" fill="#B56F35"/>
<path opacity="0.5" d="M165.504 78.5463C165.627 78.5463 165.726 78.4764 165.726 78.3901C165.726 78.3038 165.627 78.2339 165.504 78.2339C165.382 78.2339 165.283 78.3038 165.283 78.3901C165.283 78.4764 165.382 78.5463 165.504 78.5463Z" fill="#B56F35"/>
<path opacity="0.5" d="M166.812 78.4863C166.934 78.4863 167.033 78.4163 167.033 78.3301C167.033 78.2438 166.934 78.1738 166.812 78.1738C166.689 78.1738 166.59 78.2438 166.59 78.3301C166.59 78.4163 166.689 78.4863 166.812 78.4863Z" fill="#B56F35"/>
<path opacity="0.5" d="M166.268 78.0536C166.391 78.0536 166.49 77.9837 166.49 77.8974C166.49 77.8112 166.391 77.7412 166.268 77.7412C166.146 77.7412 166.046 77.8112 166.046 77.8974C166.046 77.9837 166.146 78.0536 166.268 78.0536Z" fill="#B56F35"/>
<path opacity="0.5" d="M179.497 80.1124C179.518 79.9947 179.464 79.8873 179.377 79.8725C179.29 79.8577 179.202 79.9412 179.181 80.0589C179.16 80.1766 179.214 80.284 179.301 80.2987C179.388 80.3135 179.476 80.2301 179.497 80.1124Z" fill="#B56F35"/>
<path opacity="0.5" d="M175.096 78.5836C175.117 78.4653 175.063 78.3576 174.975 78.3429C174.888 78.3283 174.8 78.4122 174.779 78.5305C174.758 78.6488 174.812 78.7565 174.9 78.7712C174.987 78.7859 175.075 78.7019 175.096 78.5836Z" fill="#B56F35"/>
<path opacity="0.5" d="M181.429 70.3577C181.45 70.24 181.396 70.1326 181.309 70.1178C181.222 70.1031 181.134 70.1865 181.113 70.3042C181.092 70.4219 181.146 70.5293 181.233 70.5441C181.32 70.5589 181.408 70.4754 181.429 70.3577Z" fill="#B56F35"/>
<path opacity="0.5" d="M183.526 71.2232C183.547 71.1055 183.494 70.9981 183.407 70.9834C183.319 70.9686 183.232 71.052 183.211 71.1697C183.19 71.2874 183.244 71.3948 183.331 71.4096C183.418 71.4243 183.505 71.3409 183.526 71.2232Z" fill="#B56F35"/>
<path opacity="0.5" d="M183.164 70.5638C183.185 70.4461 183.131 70.3387 183.044 70.3239C182.957 70.3092 182.869 70.3926 182.848 70.5103C182.827 70.628 182.881 70.7354 182.968 70.7501C183.055 70.7649 183.143 70.6815 183.164 70.5638Z" fill="#B56F35"/>
<path opacity="0.5" d="M184.572 74.9966C184.593 74.8789 184.54 74.7716 184.452 74.7568C184.365 74.742 184.278 74.8254 184.257 74.9431C184.236 75.0608 184.289 75.1682 184.377 75.183C184.464 75.1978 184.551 75.1143 184.572 74.9966Z" fill="#B56F35"/>
<path opacity="0.5" d="M185.801 79.2813C185.831 79.1656 185.786 79.0544 185.701 79.0329C185.615 79.0114 185.521 79.0877 185.49 79.2034C185.46 79.3191 185.505 79.4303 185.59 79.4518C185.676 79.4733 185.77 79.397 185.801 79.2813Z" fill="#B56F35"/>
<path opacity="0.5" d="M185.464 79.7359C185.495 79.6202 185.45 79.509 185.364 79.4875C185.279 79.4659 185.184 79.5423 185.154 79.658C185.123 79.7737 185.168 79.8849 185.254 79.9064C185.339 79.9279 185.434 79.8516 185.464 79.7359Z" fill="#B56F35"/>
<path opacity="0.5" d="M185.186 80.9856C185.217 80.8699 185.172 80.7587 185.086 80.7372C185.001 80.7157 184.907 80.792 184.876 80.9077C184.846 81.0234 184.89 81.1346 184.976 81.1561C185.062 81.1777 185.156 81.1013 185.186 80.9856Z" fill="#B56F35"/>
<path opacity="0.5" d="M184.894 81.2437C184.924 81.128 184.88 81.0168 184.794 80.9953C184.708 80.9738 184.614 81.0501 184.584 81.1658C184.553 81.2815 184.598 81.3927 184.683 81.4142C184.769 81.4357 184.863 81.3594 184.894 81.2437Z" fill="#B56F35"/>
<path opacity="0.5" d="M171.058 73.8739C171.148 73.7937 171.174 73.6768 171.114 73.6129C171.055 73.5489 170.933 73.5621 170.843 73.6423C170.752 73.7226 170.726 73.8394 170.786 73.9034C170.845 73.9673 170.967 73.9541 171.058 73.8739Z" fill="#B56F35"/>
<path opacity="0.5" d="M171.682 73.9186C171.773 73.8384 171.798 73.7215 171.739 73.6576C171.68 73.5936 171.558 73.6068 171.467 73.687C171.376 73.7673 171.351 73.8841 171.41 73.948C171.47 74.012 171.591 73.9988 171.682 73.9186Z" fill="#B56F35"/>
<path opacity="0.5" d="M172.625 73.0189C172.715 72.9387 172.741 72.8219 172.681 72.7579C172.622 72.694 172.5 72.7072 172.409 72.7874C172.319 72.8676 172.293 72.9845 172.353 73.0484C172.412 73.1123 172.534 73.0991 172.625 73.0189Z" fill="#B56F35"/>
<path opacity="0.5" d="M172.218 73.1498C172.309 73.0696 172.334 72.9527 172.275 72.8888C172.215 72.8248 172.093 72.838 172.003 72.9182C171.912 72.9985 171.887 73.1153 171.946 73.1792C172.005 73.2432 172.127 73.23 172.218 73.1498Z" fill="#B56F35"/>
<path d="M143.304 74.196L144.413 70.5909H144.758L145.201 72.1411C145.201 71.6243 145.312 71.0956 145.362 70.5789H146.47H147.197L148.589 74.184L146.273 75.3857L143.304 74.196Z" fill="#9E7646" stroke="#9E7646" stroke-width="0.25" stroke-miterlimit="10"/>
<path d="M143.28 73.2708C142.769 73.3198 142.266 73.4205 141.777 73.5712C139.855 74.2201 139.054 80.1926 139.054 80.1926C138.438 84.7591 138.167 87.487 139.904 89.578C140.816 90.6715 142.27 91.4286 142.824 90.9599C143.378 90.4913 142.504 88.8329 142.307 85.3359C142.211 83.7712 142.277 82.2011 142.504 80.6493C143.157 76.5875 144.968 73.7635 144.302 73.2708C144.179 73.1866 143.883 73.2107 143.28 73.2708Z" fill="#E58910" stroke="#C67409" stroke-width="0.3" stroke-miterlimit="10"/>
<path d="M143.725 90.6114C142.74 89.9745 142.703 88.208 142.493 84.8312C142.378 83.308 142.469 81.7766 142.765 80.2767C142.94 79.4564 143.187 78.6523 143.504 77.8733C143.504 77.8733 143.762 76.6716 144.415 74.5566C144.785 73.3549 144.896 73.0785 145.155 73.0064C145.783 72.8502 146.805 73.9077 147.347 75.0012C148.074 76.5154 147.594 77.4647 147.717 80.5771C147.76 81.6672 147.863 82.7543 148.025 83.8338C148.641 87.7393 149.836 89.2295 148.974 90.2149C148.604 90.6475 148.05 90.7436 146.966 90.9118C145.883 91.1929 144.734 91.0863 143.725 90.6114Z" fill="#E58910" stroke="#C67409" stroke-width="0.3" stroke-miterlimit="10"/>
<path d="M146.681 73.3068C146.274 73.9678 147.913 74.7729 147.975 76.7077C147.975 77.1763 147.888 78.7626 147.975 79.3875C148.061 80.0124 148.048 80.2888 148.061 80.481C148.738 86.2613 148.664 89.6501 150.02 90.0947C150.771 90.3351 151.781 89.59 152.262 88.893C153.075 87.6913 152.422 86.5978 151.72 82.4398C151.362 80.3008 151.215 79.2193 151.042 77.8613C150.71 75.3618 150.488 74.1 150.007 73.6433C148.96 72.6819 147.063 72.694 146.681 73.3068Z" fill="#E58910" stroke="#C67409" stroke-width="0.3" stroke-miterlimit="10"/>
<path d="M150.758 75.2655C151.08 76.3317 151.29 77.4268 151.386 78.5342C151.633 80.3608 151.522 80.6492 151.793 82.0552C152.015 83.1608 152.101 83.1608 152.323 84.1462C153 87.2706 152.409 88.8569 153.234 89.2054C153.838 89.4577 154.651 88.953 155.033 88.6165C155.368 88.2546 155.625 87.8312 155.79 87.3711C155.955 86.9109 156.024 86.4233 155.994 85.9367C156.129 80.3007 156.216 75.7943 153.16 73.9196C152.039 73.2106 150.45 72.8501 150.105 73.2947C149.76 73.7394 150.327 74.0518 150.758 75.2655Z" fill="#E58910" stroke="#C67409" stroke-width="0.3" stroke-miterlimit="10"/>
<path d="M140.521 73.7514C140.866 74.1119 140.386 74.7247 139.511 77.4646C138.948 79.1721 138.568 80.932 138.378 82.7161C138.357 83.0523 138.357 83.3894 138.378 83.7256C138.378 85.8285 138.378 87.3307 139.289 88.8208C139.56 89.2774 140.139 89.8423 139.942 90.2749C139.745 90.7075 138.71 90.8757 138.168 90.7676C135.088 90.1186 132.624 78.2097 137.146 74.6646C138.218 73.7874 140.004 73.2346 140.521 73.7514Z" fill="#E58910" stroke="#C67409" stroke-width="0.3" stroke-miterlimit="10"/>
<path d="M56.4377 87.8595C54.9716 87.6673 52.5816 87.3548 52.0272 85.8046C51.4728 84.2544 53.4316 82.1394 53.6164 81.9712C53.4741 81.5958 53.4414 81.1892 53.5218 80.7967C53.6023 80.4042 53.7929 80.0412 54.0723 79.748C54.2824 79.5457 54.5331 79.3879 54.8087 79.2845C55.0843 79.1811 55.3789 79.1343 55.6738 79.1472C55.0629 78.3685 54.7107 77.4263 54.6644 76.4468C54.6182 75.4673 54.8801 74.4975 55.4151 73.6674C55.917 73.1189 56.532 72.6802 57.2199 72.3799C57.9078 72.0796 58.6531 71.9245 59.4067 71.9249C60.0972 71.8977 60.7877 71.9789 61.4518 72.1652C61.3624 71.9411 61.3624 71.6924 61.4518 71.4682C61.53 71.2595 61.6703 71.0783 61.8546 70.9478C62.0389 70.8172 62.259 70.7432 62.4866 70.7352C62.9238 69.9831 63.5182 69.3291 64.2314 68.8156C64.9445 68.3022 65.7604 67.9408 66.6261 67.755C69.9154 67.2022 72.3301 70.0022 72.7859 70.579C73.42 71.3657 73.8851 72.2689 74.1534 73.2347C74.3434 72.9471 74.6385 72.7409 74.9788 72.6579C75.9151 72.4536 77.1717 73.415 77.9109 75.1575C78.0989 75.0157 78.3174 74.9172 78.5499 74.8693C78.7825 74.8214 79.0231 74.8255 79.2538 74.8811C80.4858 75.4099 80.8553 79.3755 78.9951 81.2261C77.874 82.3557 76.7036 81.9351 73.7345 82.7643C71.2706 83.4373 71.1597 83.966 68.0551 85.348C64.6672 86.8141 60.8235 88.4484 56.4377 87.8595Z" fill="#5DAF67" stroke="#5A9E61" stroke-width="0.25" stroke-miterlimit="10"/>
<path d="M62.203 85.8045C63.3906 87.4193 64.2672 89.2313 64.7901 91.1521L65.8989 93.6877L67.0077 93.5555L67.1555 91.0319C67.5497 91.8611 67.944 92.6903 68.3875 93.5075L69.9644 93.3032C69.2511 91.8329 68.9983 90.1901 69.2375 88.5804C69.5702 86.5015 70.7405 85.2878 71.6029 81.6586C71.7261 81.1178 71.8124 80.6732 71.874 80.3848C71.6388 80.8703 71.2847 81.2918 70.8429 81.612C70.4011 81.9323 69.8852 82.1415 69.3408 82.2211C68.7964 82.3007 68.2403 82.2482 67.7217 82.0684C67.203 81.8885 66.7378 81.5868 66.367 81.1899C66.4927 81.485 66.5327 81.8081 66.4827 82.1239C66.4327 82.4397 66.2947 82.736 66.0837 82.9805C65.8881 83.1518 65.6572 83.2801 65.4064 83.3568C65.1556 83.4336 64.8908 83.4568 64.63 83.4251C64.0405 83.396 63.4756 83.1856 63.0161 82.8243C63.1393 83.2929 63.0161 83.4852 62.9422 83.5813C62.8682 83.6775 62.1907 83.6895 60.934 83.389L59.2832 83.0285C60.4092 83.7875 61.3963 84.7259 62.203 85.8045Z" fill="#548E58" stroke="#548E58" stroke-width="0.75" stroke-miterlimit="10"/>
<path d="M55.9108 85.9487C55.5113 85.755 55.2028 85.4197 55.0484 85.0114C54.9377 84.5754 54.9902 84.1152 55.1962 83.7135C55.2906 83.5002 55.4105 83.2985 55.5535 83.1127C55.7118 82.9152 55.8985 82.7412 56.1079 82.5959C55.715 83.0623 55.4842 83.6383 55.4488 84.241C55.4134 84.8436 55.5752 85.4416 55.9108 85.9487Z" fill="#5A9E61" stroke="#5A9E61" stroke-width="0.12" stroke-miterlimit="10"/>
<path d="M60.1592 76.3592C60.3059 75.8584 60.6401 75.4295 61.0955 75.1575C61.3795 75.0052 61.6957 74.9188 62.0195 74.9051C62.0968 74.5872 62.2486 74.291 62.463 74.0399C62.6689 73.7942 62.9346 73.6028 63.2359 73.4832C63.5372 73.3635 63.8644 73.3194 64.1877 73.3549C64.6593 73.4677 65.0664 73.7569 65.3211 74.1601C65.4681 74.0565 65.6449 74.0007 65.8262 74.0007C66.0076 74.0007 66.1844 74.0565 66.3314 74.1601C66.4764 74.288 66.5684 74.4633 66.5901 74.6528C66.4819 74.5166 66.3368 74.4125 66.1712 74.3524C66.0336 74.3121 65.8889 74.3009 65.7465 74.3196C65.6042 74.3382 65.4676 74.3863 65.3458 74.4605C65.0767 74.1235 64.6916 73.8929 64.2616 73.8116C64.0341 73.756 63.7963 73.7531 63.5674 73.8032C63.3385 73.8533 63.1248 73.9549 62.9434 74.1C62.6733 74.3297 62.5054 74.6529 62.4753 75.0013C62.093 75.112 61.7251 75.2652 61.3788 75.4579C60.9303 75.7 60.5196 76.0036 60.1592 76.3592Z" fill="#5A9E61" stroke="#5A9E61" stroke-width="0.12" stroke-miterlimit="10"/>
<path d="M69.0178 76.7918C69.3459 76.6986 69.6864 76.6541 70.0281 76.6596C70.5295 76.5994 71.0371 76.7052 71.4695 76.96C71.5268 77.0251 71.5803 77.0933 71.6296 77.1643C71.7147 77.3009 71.7732 77.4516 71.8021 77.6089C71.8717 77.4185 71.8717 77.2105 71.8021 77.0201C71.5557 76.275 69.8926 75.8905 68.9193 76.5154C68.7103 76.6488 68.5336 76.8251 68.4019 77.0321C68.5969 76.9288 68.8036 76.8482 69.0178 76.7918Z" fill="#5A9E61" stroke="#5A9E61" stroke-width="0.12" stroke-miterlimit="10"/>
<path d="M75.8781 76.6236C76.0429 76.7318 76.1921 76.8611 76.3216 77.0081C76.6176 77.3505 76.8096 77.7667 76.876 78.2098C76.9855 78.0011 77.0477 77.7717 77.0584 77.5374C77.069 77.3031 77.0278 77.0693 76.9376 76.8519C76.5187 76.0348 75.2744 76.0708 75.1266 76.0708C74.9044 76.0819 74.6847 76.1223 74.4736 76.191C74.9761 76.1921 75.4661 76.3431 75.8781 76.6236Z" fill="#5A9E61" stroke="#5A9E61" stroke-width="0.12" stroke-miterlimit="10"/>
<path d="M62.2033 79.7118C62.1749 79.5114 62.2185 79.3077 62.3265 79.135C62.464 78.9538 62.6662 78.8294 62.8932 78.7865C63.0119 78.7728 63.1318 78.7728 63.2504 78.7865C63.373 78.7697 63.4974 78.7697 63.62 78.7865C63.3093 78.7776 63.004 78.8679 62.7505 79.0435C62.4971 79.2192 62.3093 79.4707 62.2156 79.7599L62.2033 79.7118Z" fill="#5A9E61" stroke="#5A9E61" stroke-width="0.12" stroke-miterlimit="10"/>
<path d="M92.4261 82.7403L89.2969 78.8828C89.7932 78.8085 90.2701 78.6412 90.7013 78.3901C91.1464 78.1284 91.5321 77.7808 91.8347 77.3687L92.4261 82.7403Z" fill="#7C6745" stroke="#685130" stroke-width="0.25" stroke-miterlimit="10"/>
<path d="M92.7593 83.293C92.0654 82.7077 91.2463 82.281 90.3618 82.044C89.4772 81.807 88.5496 81.7656 87.6466 81.923C86.4115 82.3119 85.3403 83.0833 84.5954 84.12C83.8506 85.1567 83.4728 86.4021 83.5195 87.6672C83.5195 88.8689 84.8377 90.4311 87.3879 93.5436C90.2214 96.9804 91.2809 97.7255 92.1186 97.4972C92.9564 97.2688 93.2644 95.8268 94.2623 95.7907C95.2602 95.7547 95.4943 96.8603 96.2581 96.8723C97.0219 96.8843 97.9212 95.3942 98.9931 93.2672C101.703 87.9436 101.974 88.1719 102.098 86.9582C102.098 86.5015 102.578 81.9711 99.7569 80.6372C97.7365 79.6999 94.6812 80.6733 92.7593 83.293Z" fill="#F97253" stroke="#E56A55" stroke-width="0.25" stroke-miterlimit="10"/>
<path d="M92.9676 81.3582C93.1494 80.3748 93.6872 79.4878 94.483 78.8587C95.1726 78.229 96.024 77.793 96.9469 77.5969C97.3997 77.5002 97.8645 77.4678 98.3267 77.5007C98.3352 78.1762 98.2042 78.8464 97.9415 79.4715C97.6789 80.0965 97.29 80.6636 96.798 81.1391C96.306 81.6145 95.721 81.9884 95.0778 82.2387C94.4345 82.489 93.7463 82.6105 93.0539 82.596C92.952 82.1913 92.9228 81.7726 92.9676 81.3582Z" fill="#5DAF67" stroke="#5DAF67" stroke-width="0.75" stroke-miterlimit="10"/>
<path d="M92.6968 82.8484C93.7285 82.0566 94.7002 81.1931 95.6042 80.2647C96.6218 79.3111 97.5765 78.2956 98.4624 77.2244C97.4585 78.0042 96.5079 78.8472 95.6166 79.7479C94.8897 80.4449 94.2491 81.1419 93.9041 81.5024C93.5592 81.863 92.6722 82.8363 92.6968 82.8484Z" fill="#5A9E61" stroke="#5A9E61" stroke-width="0.1" stroke-miterlimit="10"/>
<path d="M91.1805 78.0535L92.1537 81.959C91.4885 80.8174 90.8109 79.6878 90.1333 78.5462" stroke="#60492C" stroke-width="0.2" stroke-miterlimit="10"/>
<path d="M85.9428 85.0474C86.0964 85.2356 86.3081 85.3704 86.5465 85.4319C86.7474 85.4907 86.9616 85.4907 87.1625 85.4319C86.9622 86.1078 86.8586 86.8074 86.8545 87.5109C86.8442 88.4008 87.0029 89.285 87.3226 90.1186C86.4941 89.376 85.9398 88.3876 85.7457 87.3066C85.6258 86.549 85.6934 85.7743 85.9428 85.0474Z" fill="white"/>
<path d="M118.309 69.978C117.249 70.7543 116.27 71.6319 115.389 72.5977L117.323 75.0973L114.44 73.7874C112.707 75.3486 111.58 77.4456 111.25 79.7239C111.086 81.027 111.203 82.3492 111.594 83.6054L115.389 84.6629L112.137 84.9753C112.623 86.0158 113.236 86.9961 113.96 87.8955C114.652 88.786 115.45 89.5928 116.338 90.2989C116.782 90.1778 117.199 89.9782 117.57 89.7101C117.915 89.4584 118.208 89.1443 118.432 88.7847L117.496 87.8114L119.467 87.8835C119.775 87.6071 120.083 87.3066 120.391 86.9942C121.932 85.403 123.235 83.6066 124.259 81.6586L120.44 80.0003L124.641 79.6277C124.692 77.583 124.358 75.5465 123.655 73.6192C122.968 71.7565 121.942 70.0303 120.625 68.5239C119.818 68.9542 119.044 69.4401 118.309 69.978Z" fill="#992E11" stroke="#992E11" stroke-width="0.75" stroke-miterlimit="10"/>
<path d="M120.588 68.3196C120.108 65.3634 119.356 64.4861 118.642 64.2578C118.432 64.1857 117.816 64.0295 116.412 63.5969L115.747 63.3926C115.726 63.6084 115.726 63.8257 115.747 64.0415C115.808 64.7889 116.09 65.5028 116.56 66.0964C117.615 67.2501 119.031 68.0316 120.588 68.3196Z" fill="#2E6031" stroke="#336D33" stroke-width="0.15" stroke-miterlimit="10"/>
<path d="M120.525 68.0914C120.512 67.4612 120.652 66.8369 120.932 66.2691C121.212 65.7012 121.626 65.2057 122.139 64.8227C122.603 64.5221 123.137 64.3403 123.691 64.294C123.916 64.2643 124.144 64.2643 124.369 64.294C124.284 64.3298 124.205 64.3785 124.135 64.4382C123.507 64.9309 123.642 65.8202 123.507 66.3249C123.371 66.8296 122.694 67.6227 120.525 68.0914Z" fill="#447F49" stroke="#357235" stroke-width="0.15" stroke-miterlimit="10"/>
<path d="M120.614 68.5C119.944 67.5297 118.923 66.8428 117.756 66.5772C116.97 66.3944 116.146 66.4446 115.39 66.7214C115.19 66.8428 114.969 66.9282 114.737 66.9738C114.438 67.0437 114.125 67.0437 113.826 66.9738C114.202 67.286 114.616 67.5523 115.058 67.7669C115.918 68.1263 116.834 68.3416 117.768 68.4038C118.713 68.5037 119.664 68.5359 120.614 68.5Z" fill="#468C48" stroke="#336D33" stroke-width="0.15" stroke-miterlimit="10"/>
<path d="M120.711 68.2237C121.34 67.9797 121.992 67.7985 122.658 67.6829C123.024 67.5898 123.405 67.5694 123.779 67.6228C124.317 67.8278 124.814 68.1248 125.245 68.5L125.553 68.7284C125.394 68.8457 125.225 68.9502 125.048 69.0408C124.509 69.2757 123.925 69.3946 123.336 69.3893C122.344 69.3276 121.41 68.9128 120.711 68.2237Z" fill="#2E6031" stroke="#336D33" stroke-width="0.15" stroke-miterlimit="10"/>
<path d="M123.691 73.5351C123.322 73.5119 122.952 73.5119 122.583 73.5351C122.305 73.4688 122.033 73.3804 121.77 73.2708C121.99 73.5168 122.276 73.6995 122.595 73.7995C122.957 73.9306 123.347 73.9679 123.728 73.9076C123.728 73.9076 124.16 73.8476 124.135 73.7514C124.11 73.6553 123.753 73.5471 123.691 73.5351Z" fill="#681F0F"/>
<path d="M124.618 78.8947C124.261 78.8717 123.903 78.8717 123.546 78.8947C123.275 78.838 123.01 78.7534 122.757 78.6423C122.965 78.8893 123.244 79.0694 123.558 79.1591C123.907 79.2905 124.286 79.3279 124.655 79.2672C124.655 79.2672 125.061 79.1951 125.049 79.111C125.036 79.0269 124.667 78.9067 124.618 78.8947Z" fill="#681F0F"/>
<path d="M120.058 86.9582C119.454 86.6939 119.22 86.8261 118.69 86.6338C118.356 86.4788 118.035 86.2979 117.729 86.093C117.729 86.093 118.074 86.6097 118.629 86.9582C119.046 87.2182 119.526 87.3673 120.021 87.3909C120.095 87.3909 120.575 87.3909 120.575 87.3067C120.575 87.2226 120.132 86.9823 120.058 86.9582Z" fill="#681F0F"/>
<path d="M123.851 74.3283C123.398 74.2616 122.941 74.2215 122.483 74.2081C122.136 74.1221 121.798 74.0054 121.473 73.8596C121.763 74.1527 122.123 74.3715 122.52 74.4965C122.963 74.6657 123.439 74.7355 123.912 74.7008C123.986 74.7008 124.442 74.7008 124.405 74.5566C124.368 74.4124 123.925 74.3283 123.851 74.3283Z" fill="#681F0F"/>
<path d="M116.449 81.815C117.077 81.9952 117.175 82.1034 117.681 82.2716C118.186 82.4399 118.752 82.5 118.752 82.524C118.337 82.5132 117.923 82.4567 117.52 82.3558C117.062 82.2594 116.616 82.1143 116.19 81.9232C116.19 81.9232 115.746 81.7189 115.82 81.6948C116.033 81.7171 116.243 81.7573 116.449 81.815Z" fill="#681F0F"/>
<path d="M114.835 80.3368C115.5 80.6132 115.574 80.7935 116.067 81.0578C116.559 81.3222 117.212 81.3943 117.212 81.4424C116.75 81.4373 116.292 81.3561 115.857 81.202C115.357 81.0521 114.886 80.8205 114.465 80.517C114.404 80.517 114.022 80.2046 114.12 80.1566C114.219 80.1085 114.761 80.2527 114.835 80.3368Z" fill="#681F0F"/>
<path d="M116.163 72.009C116.73 72.3455 116.755 72.5498 117.223 72.8622C117.534 73.0503 117.859 73.215 118.196 73.3549C117.763 73.3272 117.342 73.2039 116.964 72.9944C116.531 72.7862 116.139 72.5055 115.806 72.1652C115.806 72.1652 115.461 71.7927 115.56 71.7567C115.658 71.7206 116.102 71.9249 116.163 72.009Z" fill="#681F0F"/>
<path d="M112.48 76.5394C113.096 76.7677 113.17 76.984 113.712 77.2003C114.061 77.3235 114.419 77.4199 114.784 77.4887C114.373 77.5592 113.951 77.5345 113.552 77.4166C113.076 77.3128 112.63 77.1076 112.246 76.8158C112.246 76.8158 111.839 76.4913 111.913 76.4192C111.987 76.3471 112.406 76.5153 112.48 76.5394Z" fill="#681F0F"/>
<path d="M115.659 87.3908C115.528 87.3672 115.4 87.331 115.277 87.2826C114.981 87.1985 114.956 87.2105 114.833 87.1624C114.716 87.1134 114.605 87.0531 114.5 86.9822C114.637 87.1426 114.81 87.27 115.006 87.3547C115.193 87.4318 115.393 87.4765 115.597 87.4869H115.72C115.814 87.4765 115.905 87.4522 115.991 87.4148C115.88 87.4179 115.768 87.4099 115.659 87.3908Z" fill="#681F0F"/>
<path d="M116.043 87.3428H116.179H116.302C116.395 87.3612 116.492 87.3612 116.585 87.3428C116.452 87.3284 116.328 87.2737 116.228 87.1866L116.13 87.1025C115.976 87.0304 115.807 86.9974 115.637 87.0063C115.45 86.9765 115.279 86.8828 115.156 86.7419C115.276 86.9153 115.431 87.0626 115.612 87.1746C115.748 87.2488 115.893 87.3054 116.043 87.3428Z" fill="#681F0F"/>
<path d="M120.232 86.8019C120.102 86.7783 119.974 86.7421 119.85 86.6937C119.699 86.6634 119.55 86.6191 119.407 86.5616C119.289 86.5208 119.177 86.4641 119.074 86.3933C119.215 86.55 119.387 86.6769 119.579 86.7659C119.767 86.8429 119.967 86.8877 120.171 86.898H120.294C120.39 86.8902 120.482 86.8614 120.565 86.8139C120.454 86.8283 120.342 86.8243 120.232 86.8019Z" fill="#681F0F"/>
<path d="M120.636 86.7539H120.771H120.894C120.988 86.7724 121.084 86.7724 121.178 86.7539C121.046 86.7335 120.923 86.6797 120.82 86.5977L120.722 86.5136C120.568 86.4416 120.399 86.4085 120.229 86.4174C120.042 86.3876 119.872 86.2939 119.749 86.1531C119.868 86.3264 120.023 86.4737 120.204 86.5857C120.34 86.6599 120.485 86.7165 120.636 86.7539Z" fill="#681F0F"/>
<path d="M117.15 73.7514L116.768 73.6432L116.337 73.511C116.216 73.4673 116.101 73.4108 115.992 73.3428C116.135 73.4967 116.306 73.6231 116.497 73.7153C116.685 73.7916 116.885 73.8324 117.089 73.8355H117.224C117.316 73.8279 117.405 73.7991 117.483 73.7514H117.15Z" fill="#681F0F"/>
<path d="M117.533 73.6912H117.668H117.767C117.857 73.7027 117.948 73.7027 118.038 73.6912C117.907 73.6688 117.785 73.6151 117.681 73.535L117.582 73.4509C117.434 73.3307 117.262 73.3788 117.089 73.3548C116.903 73.3233 116.736 73.2246 116.621 73.0784C116.731 73.2585 116.883 73.4108 117.065 73.523C117.211 73.6011 117.369 73.6578 117.533 73.6912Z" fill="#681F0F"/>
<path d="M121.068 80.5892L121.413 80.7815C121.539 80.8625 121.67 80.9347 121.807 80.9978L122.164 81.118C121.953 81.1245 121.743 81.0876 121.548 81.0098C121.358 80.9381 121.186 80.8274 121.043 80.6854L120.957 80.6012C120.9 80.5236 120.854 80.4387 120.821 80.3489C120.894 80.4379 120.976 80.5185 121.068 80.5892Z" fill="#681F0F"/>
<path d="M120.846 80.3367L120.723 80.2646L120.625 80.1805C120.559 80.1131 120.505 80.036 120.464 79.9521C120.567 80.033 120.691 80.0832 120.822 80.0964H120.957C121.154 80.0964 121.24 80.2766 121.376 80.3728C121.526 80.4867 121.717 80.5384 121.906 80.517C121.725 80.5552 121.538 80.5579 121.356 80.5249C121.174 80.4919 121.001 80.4238 120.846 80.3247V80.3367Z" fill="#681F0F"/>
<path d="M112.84 77.5367C112.95 77.609 113.065 77.6732 113.184 77.729L113.591 77.9573C113.705 78.0086 113.825 78.0449 113.948 78.0654C113.734 78.0786 113.52 78.0458 113.32 77.9693C113.134 77.8891 112.964 77.7795 112.815 77.6448L112.729 77.5487C112.68 77.4724 112.639 77.392 112.605 77.3083C112.674 77.3933 112.752 77.47 112.84 77.5367Z" fill="#681F0F"/>
<path d="M122.521 73.3068L122.139 73.1986L121.695 73.0664C121.579 73.0207 121.468 72.9643 121.363 72.8982C121.501 73.0542 121.674 73.1775 121.868 73.2587C122.056 73.3358 122.256 73.3805 122.459 73.3909H122.582C122.677 73.3775 122.768 73.349 122.853 73.3068H122.521Z" fill="#681F0F"/>
<path d="M122.902 73.2467C122.947 73.2538 122.992 73.2538 123.037 73.2467H123.16C123.254 73.2669 123.35 73.2669 123.444 73.2467C123.314 73.2212 123.192 73.1678 123.086 73.0904C123.086 73.0904 123.086 73.0304 122.988 73.0063C122.889 72.9823 122.655 72.9342 122.495 72.9102C122.31 72.8685 122.142 72.772 122.015 72.6338C122.134 72.8071 122.29 72.9544 122.47 73.0664C122.602 73.1505 122.748 73.2115 122.902 73.2467Z" fill="#681F0F"/>
<path d="M120.772 81.0457L120.341 80.9255C120.178 80.8932 120.017 80.849 119.861 80.7934C119.73 80.7447 119.606 80.6801 119.491 80.6011C119.641 80.7804 119.831 80.9243 120.046 81.0217C120.253 81.1062 120.474 81.151 120.699 81.1539H120.834C120.942 81.1353 121.046 81.0987 121.142 81.0457C121.019 81.0589 120.895 81.0589 120.772 81.0457Z" fill="#681F0F"/>
<path d="M121.191 80.9616C121.244 80.9686 121.298 80.9686 121.351 80.9616H121.462C121.567 80.9586 121.671 80.9383 121.77 80.9015C121.631 80.8747 121.5 80.8171 121.388 80.7332L121.277 80.6251C121.104 80.4929 120.92 80.553 120.735 80.541C120.528 80.5038 120.344 80.3922 120.217 80.2285C120.338 80.4291 120.502 80.6013 120.698 80.7332C120.85 80.8318 121.016 80.9087 121.191 80.9616Z" fill="#681F0F"/>
<path d="M115.842 88.7488L115.707 88.6887H115.596C115.527 88.6276 115.465 88.5591 115.411 88.4844C115.522 88.5489 115.652 88.5783 115.781 88.5685H115.916C116.113 88.5685 116.224 88.7127 116.372 88.7848C116.539 88.8704 116.732 88.8918 116.914 88.8449C116.714 88.9197 116.499 88.9485 116.286 88.929C116.131 88.8881 115.981 88.8275 115.842 88.7488Z" fill="#681F0F"/>
<path d="M115.895 89.5417C115.747 89.554 115.599 89.554 115.451 89.5417H114.959C114.821 89.5112 114.689 89.4626 114.564 89.3975C114.74 89.555 114.951 89.6703 115.18 89.734C115.396 89.7767 115.618 89.7767 115.833 89.734H115.981C116.083 89.6952 116.178 89.6426 116.265 89.5777C116.14 89.5825 116.016 89.5703 115.895 89.5417Z" fill="#681F0F"/>
<path d="M116.299 89.4096H116.594C116.698 89.3889 116.798 89.3524 116.89 89.3015C116.747 89.3009 116.607 89.2636 116.484 89.1933L116.36 89.1092C116.176 89.001 115.991 89.1092 115.806 89.1092C115.595 89.1034 115.393 89.0221 115.239 88.8809C115.391 89.0637 115.585 89.208 115.806 89.3015C115.964 89.3616 116.13 89.3981 116.299 89.4096Z" fill="#681F0F"/>
<path d="M119.86 69.7256L119.478 69.6174L118.998 69.5213C118.877 69.4775 118.761 69.4211 118.653 69.353C118.801 69.5065 118.976 69.6327 119.17 69.7256C119.358 69.8018 119.558 69.8426 119.762 69.8457H119.885C119.98 69.8379 120.073 69.8091 120.156 69.7616C120.056 69.7587 119.957 69.7466 119.86 69.7256Z" fill="#681F0F"/>
<path d="M120.229 69.6656H120.377H120.5C120.59 69.677 120.681 69.677 120.771 69.6656C120.644 69.6427 120.525 69.589 120.426 69.5094C120.388 69.4875 120.355 69.459 120.327 69.4253C120.167 69.3051 119.995 69.3532 119.834 69.3291C119.643 69.3017 119.471 69.2025 119.354 69.0527C119.469 69.2329 119.625 69.3849 119.81 69.4974C119.94 69.5734 120.081 69.6301 120.229 69.6656Z" fill="#681F0F"/>
<path d="M119.823 70.2064L120.168 70.3987C120.439 70.5429 120.439 70.5669 120.562 70.615C120.682 70.6641 120.806 70.7043 120.932 70.7352C120.717 70.743 120.503 70.7061 120.303 70.627C120.115 70.5522 119.943 70.442 119.798 70.3025L119.712 70.2184C119.653 70.1438 119.611 70.0578 119.589 69.9661C119.656 70.0554 119.735 70.1361 119.823 70.2064Z" fill="#681F0F"/>
<path d="M119.599 69.8938L119.488 69.8217L119.39 69.7376C119.316 69.6767 119.261 69.5979 119.229 69.5093C119.331 69.5921 119.455 69.6424 119.587 69.6535H119.71C119.907 69.6535 120.006 69.8337 120.129 69.9299C120.281 70.0394 120.47 70.0907 120.659 70.0741C120.451 70.1159 120.238 70.1159 120.03 70.0741C119.879 70.0327 119.734 69.9721 119.599 69.8938Z" fill="#681F0F"/>
<path d="M113.046 83.9421C112.86 83.9245 112.675 83.8964 112.492 83.8579C112.073 83.7738 112.048 83.7858 111.864 83.7378C111.688 83.6978 111.515 83.6456 111.346 83.5815C111.837 83.881 112.405 84.0393 112.985 84.0382H113.157C113.276 84.0227 113.393 83.9903 113.502 83.9421C113.351 83.9558 113.198 83.9558 113.046 83.9421Z" fill="#681F0F"/>
<path d="M113.539 83.942H113.737H113.909C114.035 83.9392 114.159 83.919 114.279 83.8819C114.095 83.8657 113.915 83.8169 113.749 83.7377L113.589 83.6656C113.368 83.5862 113.132 83.5574 112.899 83.5814C112.635 83.5588 112.381 83.472 112.16 83.3291C112.386 83.5072 112.639 83.6491 112.911 83.7497C113.113 83.8341 113.324 83.8985 113.539 83.942Z" fill="#681F0F"/>
<path d="M112.369 83.4732C112.239 83.4545 112.111 83.4222 111.987 83.3771L111.556 83.2449C111.436 83.1988 111.321 83.1425 111.211 83.0767C111.352 83.2298 111.524 83.3526 111.716 83.4372C111.904 83.5143 112.104 83.559 112.307 83.5694H112.443C112.533 83.5562 112.621 83.5277 112.702 83.4852C112.591 83.4984 112.479 83.4943 112.369 83.4732Z" fill="#681F0F"/>
<path d="M112.754 83.4251C112.799 83.4323 112.844 83.4323 112.889 83.4251H113.025C113.114 83.4448 113.207 83.4448 113.296 83.4251C113.166 83.3997 113.044 83.3463 112.939 83.2689C112.939 83.2689 112.939 83.2088 112.84 83.1848C112.741 83.1608 112.507 83.1127 112.347 83.0886C112.162 83.047 111.994 82.9505 111.867 82.8123C111.99 82.9826 112.145 83.1293 112.323 83.2449C112.456 83.3263 112.601 83.3871 112.754 83.4251Z" fill="#681F0F"/>
</svg>
