<svg width="230" height="165" viewBox="0 0 230 165" fill="none" xmlns="http://www.w3.org/2000/svg">
<rect width="230" height="165" rx="6.7" fill="white"/>
<path d="M51.8883 149.311C51.0029 149.311 50.2083 149.124 49.5043 148.751C48.8003 148.377 48.2509 147.86 47.8563 147.199C47.4616 146.527 47.2643 145.769 47.2643 144.927C47.2643 144.084 47.4616 143.332 47.8563 142.671C48.2509 142.009 48.7949 141.492 49.4883 141.119C50.1923 140.745 50.9923 140.559 51.8883 140.559C52.7309 140.559 53.4669 140.729 54.0963 141.071C54.7363 141.412 55.2163 141.903 55.5363 142.543L54.0003 143.439C53.7549 143.044 53.4456 142.751 53.0723 142.559C52.7096 142.356 52.3096 142.255 51.8723 142.255C51.1256 142.255 50.5069 142.5 50.0163 142.991C49.5256 143.471 49.2803 144.116 49.2803 144.927C49.2803 145.737 49.5203 146.388 50.0003 146.879C50.4909 147.359 51.1149 147.599 51.8723 147.599C52.3096 147.599 52.7096 147.503 53.0723 147.311C53.4456 147.108 53.7549 146.809 54.0003 146.415L55.5363 147.311C55.2056 147.951 54.7203 148.447 54.0803 148.799C53.4509 149.14 52.7203 149.311 51.8883 149.311ZM60.9801 149.311C60.1161 149.311 59.3375 149.124 58.6441 148.751C57.9508 148.377 57.4068 147.86 57.0121 147.199C56.6281 146.527 56.4361 145.769 56.4361 144.927C56.4361 144.084 56.6281 143.332 57.0121 142.671C57.4068 142.009 57.9508 141.492 58.6441 141.119C59.3375 140.745 60.1161 140.559 60.9801 140.559C61.8548 140.559 62.6388 140.745 63.3321 141.119C64.0255 141.492 64.5641 142.009 64.9481 142.671C65.3428 143.332 65.5401 144.084 65.5401 144.927C65.5401 145.769 65.3428 146.527 64.9481 147.199C64.5641 147.86 64.0255 148.377 63.3321 148.751C62.6388 149.124 61.8548 149.311 60.9801 149.311ZM60.9801 147.599C61.7161 147.599 62.3241 147.353 62.8041 146.863C63.2841 146.372 63.5241 145.727 63.5241 144.927C63.5241 144.127 63.2841 143.481 62.8041 142.991C62.3241 142.5 61.7161 142.255 60.9801 142.255C60.2441 142.255 59.6361 142.5 59.1561 142.991C58.6868 143.481 58.4521 144.127 58.4521 144.927C58.4521 145.727 58.6868 146.372 59.1561 146.863C59.6361 147.353 60.2441 147.599 60.9801 147.599ZM78.2366 140.559C79.314 140.559 80.1673 140.873 80.7966 141.503C81.426 142.121 81.7406 143.055 81.7406 144.303V149.199H79.7406V144.559C79.7406 143.812 79.5753 143.252 79.2446 142.879C78.914 142.495 78.4393 142.303 77.8206 142.303C77.1486 142.303 76.61 142.527 76.2046 142.975C75.7993 143.412 75.5966 144.041 75.5966 144.863V149.199H73.5966V144.559C73.5966 143.812 73.4313 143.252 73.1006 142.879C72.77 142.495 72.2953 142.303 71.6766 142.303C70.994 142.303 70.45 142.521 70.0446 142.959C69.65 143.396 69.4526 144.031 69.4526 144.863V149.199H67.4526V140.655H69.3566V141.743C69.6766 141.359 70.0766 141.065 70.5566 140.863C71.0366 140.66 71.57 140.559 72.1566 140.559C72.7966 140.559 73.362 140.681 73.8526 140.927C74.354 141.161 74.7486 141.513 75.0366 141.983C75.3886 141.535 75.842 141.188 76.3966 140.943C76.9513 140.687 77.5646 140.559 78.2366 140.559ZM95.0804 140.559C96.1577 140.559 97.011 140.873 97.6404 141.503C98.2697 142.121 98.5844 143.055 98.5844 144.303V149.199H96.5844V144.559C96.5844 143.812 96.419 143.252 96.0884 142.879C95.7577 142.495 95.283 142.303 94.6644 142.303C93.9924 142.303 93.4537 142.527 93.0484 142.975C92.643 143.412 92.4404 144.041 92.4404 144.863V149.199H90.4404V144.559C90.4404 143.812 90.275 143.252 89.9444 142.879C89.6137 142.495 89.139 142.303 88.5204 142.303C87.8377 142.303 87.2937 142.521 86.8884 142.959C86.4937 143.396 86.2964 144.031 86.2964 144.863V149.199H84.2964V140.655H86.2004V141.743C86.5204 141.359 86.9204 141.065 87.4004 140.863C87.8804 140.66 88.4137 140.559 89.0004 140.559C89.6404 140.559 90.2057 140.681 90.6964 140.927C91.1977 141.161 91.5924 141.513 91.8804 141.983C92.2324 141.535 92.6857 141.188 93.2404 140.943C93.795 140.687 94.4084 140.559 95.0804 140.559ZM109.412 140.655V149.199H107.508V148.111C107.188 148.495 106.788 148.793 106.308 149.007C105.828 149.209 105.311 149.311 104.756 149.311C103.615 149.311 102.713 148.996 102.052 148.367C101.401 147.727 101.076 146.783 101.076 145.535V140.655H103.076V145.263C103.076 146.031 103.247 146.607 103.588 146.991C103.94 147.364 104.436 147.551 105.076 147.551C105.791 147.551 106.356 147.332 106.772 146.895C107.199 146.447 107.412 145.807 107.412 144.975V140.655H109.412ZM116.879 140.559C117.956 140.559 118.82 140.873 119.471 141.503C120.121 142.132 120.447 143.065 120.447 144.303V149.199H118.447V144.559C118.447 143.812 118.271 143.252 117.919 142.879C117.567 142.495 117.065 142.303 116.415 142.303C115.679 142.303 115.097 142.527 114.671 142.975C114.244 143.412 114.031 144.047 114.031 144.879V149.199H112.031V140.655H113.935V141.759C114.265 141.364 114.681 141.065 115.183 140.863C115.684 140.66 116.249 140.559 116.879 140.559ZM122.984 140.655H124.984V149.199H122.984V140.655ZM123.992 139.247C123.629 139.247 123.325 139.135 123.08 138.911C122.835 138.676 122.712 138.388 122.712 138.047C122.712 137.705 122.835 137.423 123.08 137.199C123.325 136.964 123.629 136.847 123.992 136.847C124.355 136.847 124.659 136.959 124.904 137.183C125.149 137.396 125.272 137.668 125.272 137.999C125.272 138.351 125.149 138.649 124.904 138.895C124.669 139.129 124.365 139.247 123.992 139.247ZM132.745 148.735C132.51 148.927 132.222 149.071 131.881 149.167C131.55 149.263 131.198 149.311 130.825 149.311C129.886 149.311 129.161 149.065 128.649 148.575C128.137 148.084 127.881 147.369 127.881 146.431V142.319H126.473V140.719H127.881V138.767H129.881V140.719H132.169V142.319H129.881V146.383C129.881 146.799 129.982 147.119 130.185 147.343C130.388 147.556 130.681 147.663 131.065 147.663C131.513 147.663 131.886 147.545 132.185 147.311L132.745 148.735ZM142.234 140.655L138.234 149.887C137.861 150.815 137.407 151.465 136.874 151.839C136.341 152.223 135.695 152.415 134.938 152.415C134.511 152.415 134.09 152.345 133.674 152.207C133.258 152.068 132.917 151.876 132.65 151.631L133.45 150.159C133.642 150.34 133.866 150.484 134.122 150.591C134.389 150.697 134.655 150.751 134.922 150.751C135.274 150.751 135.562 150.66 135.786 150.479C136.021 150.297 136.234 149.993 136.426 149.567L136.57 149.231L132.842 140.655H134.922L137.61 146.975L140.314 140.655H142.234ZM151.826 149.311C150.94 149.311 150.146 149.124 149.442 148.751C148.738 148.377 148.188 147.86 147.794 147.199C147.399 146.527 147.202 145.769 147.202 144.927C147.202 144.084 147.399 143.332 147.794 142.671C148.188 142.009 148.732 141.492 149.426 141.119C150.13 140.745 150.93 140.559 151.826 140.559C152.668 140.559 153.404 140.729 154.034 141.071C154.674 141.412 155.154 141.903 155.474 142.543L153.938 143.439C153.692 143.044 153.383 142.751 153.01 142.559C152.647 142.356 152.247 142.255 151.81 142.255C151.063 142.255 150.444 142.5 149.954 142.991C149.463 143.471 149.218 144.116 149.218 144.927C149.218 145.737 149.458 146.388 149.938 146.879C150.428 147.359 151.052 147.599 151.81 147.599C152.247 147.599 152.647 147.503 153.01 147.311C153.383 147.108 153.692 146.809 153.938 146.415L155.474 147.311C155.143 147.951 154.658 148.447 154.018 148.799C153.388 149.14 152.658 149.311 151.826 149.311ZM160.467 140.559C161.725 140.559 162.685 140.863 163.347 141.471C164.019 142.068 164.355 142.975 164.355 144.191V149.199H162.467V148.159C162.221 148.532 161.869 148.82 161.411 149.023C160.963 149.215 160.419 149.311 159.779 149.311C159.139 149.311 158.579 149.204 158.099 148.991C157.619 148.767 157.245 148.463 156.979 148.079C156.723 147.684 156.595 147.241 156.595 146.751C156.595 145.983 156.877 145.369 157.443 144.911C158.019 144.441 158.92 144.207 160.147 144.207H162.355V144.079C162.355 143.481 162.173 143.023 161.811 142.703C161.459 142.383 160.931 142.223 160.227 142.223C159.747 142.223 159.272 142.297 158.803 142.447C158.344 142.596 157.955 142.804 157.635 143.071L156.851 141.615C157.299 141.273 157.837 141.012 158.467 140.831C159.096 140.649 159.763 140.559 160.467 140.559ZM160.195 147.855C160.696 147.855 161.139 147.743 161.523 147.519C161.917 147.284 162.195 146.953 162.355 146.527V145.535H160.291C159.139 145.535 158.563 145.913 158.563 146.671C158.563 147.033 158.707 147.321 158.995 147.535C159.283 147.748 159.683 147.855 160.195 147.855ZM170.393 138.831C169.551 138.831 169.129 139.289 169.129 140.207V140.719H171.481V142.319H169.193V149.199H167.193V142.319H165.785V140.719H167.193V140.175C167.193 139.257 167.46 138.537 167.993 138.015C168.527 137.481 169.279 137.215 170.249 137.215C171.017 137.215 171.62 137.369 172.057 137.679L171.497 139.183C171.156 138.948 170.788 138.831 170.393 138.831ZM180.735 144.975C180.735 145.113 180.724 145.311 180.703 145.567H173.999C174.116 146.196 174.42 146.697 174.911 147.071C175.412 147.433 176.031 147.615 176.767 147.615C177.705 147.615 178.479 147.305 179.087 146.687L180.159 147.919C179.775 148.377 179.289 148.724 178.703 148.959C178.116 149.193 177.455 149.311 176.719 149.311C175.78 149.311 174.953 149.124 174.239 148.751C173.524 148.377 172.969 147.86 172.575 147.199C172.191 146.527 171.999 145.769 171.999 144.927C171.999 144.095 172.185 143.348 172.559 142.687C172.943 142.015 173.471 141.492 174.143 141.119C174.815 140.745 175.572 140.559 176.415 140.559C177.247 140.559 177.988 140.745 178.639 141.119C179.3 141.481 179.812 141.999 180.175 142.671C180.548 143.332 180.735 144.1 180.735 144.975ZM176.415 142.159C175.775 142.159 175.231 142.351 174.783 142.735C174.345 143.108 174.079 143.609 173.983 144.239H178.831C178.745 143.62 178.484 143.119 178.047 142.735C177.609 142.351 177.065 142.159 176.415 142.159Z" fill="black"/>
<path d="M83.7499 121.125C83.2589 121.123 82.7738 121.021 82.3246 120.828C81.8754 120.634 81.4718 120.353 81.1389 120.001C80.806 119.649 80.5509 119.233 80.3893 118.781C80.2278 118.329 80.1634 117.849 80.2 117.371L83.6557 73.3471L80.6084 72.3971C79.497 71.9672 78.5113 71.2768 77.7387 70.3867C76.9661 69.4967 76.4303 68.4346 76.1788 67.2944L75.6133 64.6894C75.3024 63.3053 75.2492 61.878 75.4563 60.4755L77.7653 44.8457C77.78 44.7535 77.8273 44.6693 77.899 44.6077C77.9708 44.5461 78.0624 44.511 78.158 44.5085H80.9068C81.011 44.5085 81.1108 44.5489 81.1845 44.6207C81.2581 44.6926 81.2995 44.79 81.2995 44.8916V61.4409C81.2995 61.7146 81.4099 61.9773 81.6068 62.1723C81.8037 62.3673 82.0714 62.4788 82.3519 62.4829H83.2944C83.5249 62.4788 83.7447 62.3867 83.9062 62.2262C84.0678 62.0657 84.1583 61.8497 84.1583 61.6248L85.3207 43.344C85.3286 43.2478 85.3734 43.158 85.4462 43.0927C85.519 43.0273 85.6144 42.9912 85.7134 42.9915H88.2266C88.2774 42.9895 88.3281 42.9974 88.3757 43.015C88.4232 43.0326 88.4667 43.0593 88.5034 43.0937C88.5401 43.128 88.5692 43.1693 88.5892 43.2149C88.6091 43.2606 88.6193 43.3097 88.6193 43.3593L89.2476 61.211C89.2455 61.3491 89.2716 61.4863 89.3243 61.6145C89.3771 61.7427 89.4554 61.8594 89.5548 61.9577C89.6542 62.0561 89.7727 62.1343 89.9033 62.1876C90.0339 62.2409 90.1741 62.2683 90.3157 62.2683H90.8655C90.9769 62.2704 91.0876 62.251 91.1913 62.2112C91.295 62.1715 91.3897 62.1123 91.4699 62.0368C91.5501 61.9614 91.6143 61.8713 91.6589 61.7717C91.7034 61.6721 91.7274 61.5649 91.7294 61.4562L92.2635 45.1062C92.2675 45.0072 92.3107 44.9137 92.3839 44.8451C92.4571 44.7766 92.5547 44.7383 92.6561 44.7384H94.7453C94.8386 44.7402 94.9284 44.7731 94.9999 44.8317C95.0713 44.8902 95.12 44.9709 95.138 45.0602L97.5884 60.2456C97.8295 61.731 97.7547 63.2489 97.3684 64.7048L96.5831 67.5855C96.3495 68.4701 95.9128 69.2912 95.306 69.9867C94.6991 70.6823 93.938 71.234 93.0803 71.6003L89.5303 73.1326L92.3263 117.754C92.3541 118.186 92.2912 118.619 92.1413 119.026C91.9914 119.433 91.7577 119.806 91.4547 120.121C91.1516 120.437 90.7855 120.689 90.3789 120.862C89.9724 121.034 89.5339 121.124 89.0905 121.125H83.7499Z" fill="#E8EAEA"/>
<path d="M88.2104 43.3746L88.8387 61.2264C88.8387 61.6043 88.9926 61.9668 89.2666 62.234C89.5405 62.5013 89.9121 62.6514 90.2995 62.6514H90.8493C91.0122 62.6535 91.174 62.6242 91.3254 62.5652C91.4767 62.5062 91.6147 62.4187 91.7314 62.3077C91.848 62.1968 91.9412 62.0644 92.0055 61.9183C92.0697 61.7722 92.1039 61.6152 92.1059 61.4562L92.64 45.1215H94.7448L97.1952 60.307C97.4291 61.7365 97.3542 63.1979 96.9753 64.5975L96.2056 67.4936C95.983 68.3323 95.5674 69.1104 94.9904 69.7689C94.4134 70.4274 93.6901 70.9489 92.8756 71.2938L89.0743 72.8262L91.886 117.724C91.9118 118.103 91.8574 118.484 91.7262 118.842C91.5949 119.2 91.3896 119.527 91.123 119.805C90.8563 120.082 90.5341 120.303 90.1763 120.454C89.8184 120.605 89.4327 120.682 89.0429 120.681H83.7494C83.312 120.683 82.879 120.595 82.4781 120.424C82.0773 120.253 81.7175 120.003 81.4218 119.688C81.126 119.374 80.9008 119.003 80.7607 118.598C80.6206 118.194 80.5685 117.766 80.6079 117.341L84.095 73.01L80.765 71.9681C79.7192 71.5616 78.7923 70.9099 78.0663 70.0706C77.3402 69.2314 76.8374 68.2305 76.6024 67.1565L75.8956 64.5975C75.6499 63.2649 75.6499 61.9001 75.8956 60.5675L78.2046 44.9376H80.9535V61.4869C80.9534 61.8622 81.1052 62.2223 81.3757 62.4892C81.6463 62.756 82.0138 62.9079 82.3986 62.9119H83.341C83.6757 62.9079 83.9953 62.7754 84.2305 62.543C84.4658 62.3107 84.5976 61.9973 84.5976 61.6708L85.7757 43.4206H88.2889L88.2104 43.3746ZM88.2889 42.6544H85.7757C85.5795 42.6541 85.3905 42.7268 85.2475 42.8579C85.1044 42.9889 85.018 43.1683 85.006 43.3593L83.7494 61.5788C83.7537 61.7104 83.7053 61.8385 83.6144 61.9357C83.5234 62.033 83.3972 62.0919 83.2625 62.0998H82.32C82.232 62.0998 82.1449 62.0827 82.0639 62.0494C81.9828 62.0161 81.9094 61.9673 81.8479 61.9059C81.7864 61.8445 81.7381 61.7718 81.7059 61.6919C81.6737 61.612 81.6582 61.5267 81.6603 61.4409V44.8917C81.6563 44.6897 81.5722 44.4971 81.4258 44.3542C81.2794 44.2114 81.0819 44.1294 80.8749 44.1255H78.1261C77.9382 44.1273 77.7572 44.1948 77.616 44.3157C77.4748 44.4366 77.3827 44.6029 77.3564 44.7844L75.0474 60.4142C74.8279 61.8615 74.8758 63.3353 75.1887 64.7661L75.7699 67.371C76.0363 68.5767 76.6067 69.6986 77.4295 70.6351C78.2523 71.5715 79.3016 72.293 80.4822 72.7342L83.2782 73.6077L79.8382 117.341C79.795 117.869 79.8639 118.4 80.0404 118.902C80.217 119.403 80.4974 119.864 80.8644 120.255C81.2313 120.646 81.6768 120.959 82.1731 121.174C82.6695 121.39 83.206 121.504 83.7494 121.509H89.09C89.587 121.51 90.0789 121.411 90.5352 121.219C90.9916 121.027 91.4026 120.745 91.7428 120.392C92.083 120.038 92.3451 119.621 92.513 119.164C92.6808 118.708 92.7508 118.223 92.7185 117.739L89.9382 73.3012L93.2368 71.8914C94.1474 71.5026 94.9556 70.9171 95.6005 70.1792C96.2454 69.4413 96.7101 68.5702 96.9596 67.6315L97.745 64.7354C98.1502 63.2357 98.2305 61.6701 97.9806 60.1384L95.5145 44.9529C95.4848 44.7743 95.3912 44.6116 95.2503 44.4938C95.1094 44.376 94.9303 44.3107 94.7448 44.3094H92.6871C92.4827 44.3131 92.2875 44.393 92.1415 44.5326C91.9955 44.6722 91.9097 44.8609 91.9017 45.0602L91.3676 61.3949C91.3677 61.4546 91.3554 61.5137 91.3315 61.5686C91.3077 61.6235 91.2727 61.6732 91.2287 61.7147C91.1847 61.7562 91.1326 61.7886 91.0755 61.81C91.0185 61.8314 90.9575 61.8414 90.8964 61.8393H90.3466C90.2579 61.8393 90.1701 61.8223 90.0882 61.7892C90.0062 61.756 89.9318 61.7075 89.869 61.6463C89.8063 61.5851 89.7566 61.5125 89.7226 61.4326C89.6887 61.3526 89.6712 61.2669 89.6712 61.1804L89.0429 43.298C89.0348 43.1002 88.9485 42.9131 88.802 42.776C88.6556 42.6388 88.4605 42.5623 88.2575 42.5625L88.2889 42.6544Z" fill="#E8EAEA"/>
<path d="M149.895 49.0902C150.869 50.9291 151.152 53.2735 151.733 57.9625C152.161 61.7445 151.916 65.5702 151.01 69.2711C150.785 70.0983 150.374 70.866 149.806 71.5181C149.238 72.1703 148.528 72.6905 147.727 73.0407L143.926 74.665L146.738 119.562C146.761 119.941 146.705 120.321 146.573 120.678C146.441 121.035 146.236 121.362 145.969 121.639C145.703 121.916 145.382 122.137 145.025 122.288C144.668 122.44 144.284 122.518 143.895 122.52H138.554C138.117 122.522 137.684 122.434 137.283 122.263C136.882 122.092 136.522 121.841 136.226 121.527C135.931 121.213 135.705 120.841 135.565 120.437C135.425 120.033 135.373 119.604 135.412 119.179L138.9 74.8488L135.585 73.8069C134.566 73.3602 133.651 72.7134 132.899 71.9068C131.328 70.2212 130.59 67.9074 130.716 62.3143C130.857 55.4341 130.936 52.0017 132.962 48.5233C134.014 46.7764 136.763 42.1794 141.052 42.0262C146.109 41.9036 149.439 48.2168 149.895 49.0902Z" fill="#E8EAEA" stroke="#E8EAEA" stroke-width="0.5" stroke-linecap="round" stroke-linejoin="round"/>
<path d="M116.059 41.9495C114.488 41.7349 105.802 65.3329 104.247 72.7801C104.199 73.0102 104.203 73.2479 104.259 73.4764C104.315 73.7049 104.421 73.9187 104.571 74.1027C104.721 74.2867 104.91 74.4365 105.125 74.5416C105.34 74.6466 105.577 74.7044 105.818 74.7108L108.456 75.2471C109.635 75.4852 110.686 76.1317 111.413 77.067C112.141 78.0022 112.497 79.163 112.415 80.3345L109.823 118.796C109.784 119.221 109.836 119.65 109.976 120.054C110.116 120.458 110.341 120.829 110.637 121.144C110.933 121.458 111.292 121.709 111.693 121.88C112.094 122.051 112.527 122.138 112.965 122.137H118.305C118.694 122.135 119.079 122.056 119.436 121.905C119.792 121.753 120.114 121.532 120.38 121.256C120.646 120.979 120.852 120.652 120.984 120.295C121.116 119.938 121.172 119.558 121.148 119.179L118.305 74.3584L115.996 42.0107" fill="#E8EAEA"/>
<path d="M116.059 41.9495C114.488 41.7349 105.802 65.3329 104.247 72.7801C104.199 73.0102 104.203 73.2479 104.259 73.4764C104.315 73.7049 104.421 73.9187 104.571 74.1027C104.721 74.2867 104.91 74.4365 105.125 74.5416C105.34 74.6466 105.577 74.7044 105.818 74.7108L108.456 75.2471C109.635 75.4852 110.686 76.1317 111.413 77.067C112.141 78.0022 112.497 79.163 112.415 80.3345L109.823 118.796C109.784 119.221 109.836 119.65 109.976 120.054C110.116 120.458 110.341 120.829 110.637 121.144C110.933 121.458 111.292 121.709 111.693 121.88C112.094 122.051 112.527 122.138 112.965 122.137H118.305C118.694 122.135 119.079 122.056 119.436 121.905C119.792 121.753 120.114 121.532 120.38 121.256C120.646 120.979 120.852 120.652 120.984 120.295C121.116 119.938 121.172 119.558 121.148 119.179L118.305 74.3584L115.996 42.0107" stroke="#E8EAEA" stroke-width="0.5" stroke-linecap="round" stroke-linejoin="round"/>
<path d="M59.1824 97.8951C65.337 100.834 72.2401 101.948 79.0369 101.098C85.9844 100.563 92.6951 98.391 98.593 94.7691C104.876 90.8157 104.452 88.6397 109.683 84.5944C123.819 73.7301 143.407 76.8407 144.239 76.9327C154.591 78.7255 155.91 82.9854 166.733 83.8895C172.834 84.3577 178.969 83.6122 184.765 81.6982C179.837 82.0823 174.878 81.757 170.047 80.7329C165.146 79.6909 162.979 78.4497 157.874 76.7948C151.566 74.5522 144.957 73.2153 138.255 72.826C129.944 72.3795 121.657 74.0481 114.206 77.6682C112.463 78.5416 108.505 81.2998 100.572 86.8622C91.1475 93.4206 91.0533 93.865 88.5872 94.8764C81.7229 97.6959 75.3456 97.2208 68.8898 96.7305C63.3186 96.2997 57.825 95.1877 52.5381 93.4206C54.5464 95.1847 56.7796 96.6886 59.1824 97.8951Z" fill="#D3B78D" stroke="#D3B78D" stroke-width="0.5" stroke-linecap="round" stroke-linejoin="round"/>
<path d="M67.6482 86.4485C75.502 83.2152 76.2088 82.2958 80.6384 81.4684C88.1467 80.0893 95.812 80.8401 104.875 81.7289C114.96 82.7096 114.724 83.583 120.175 83.583C129.301 83.583 129.803 81.1619 143.548 79.1086C152.539 77.8811 161.597 77.175 170.675 76.994C176.518 76.7948 181.45 76.7794 185 76.8101C182.361 77.469 178.309 78.465 173.267 79.6143C161.769 82.2039 159.24 82.5104 154.229 83.9661C146.516 86.1727 149.187 87.6131 141.82 90.0954C132.517 93.0549 122.698 94.1546 112.949 93.3287C101.954 92.3173 102.472 89.3139 91.8851 88.8542C85.4764 88.5784 83.2459 89.5438 68.2136 90.8463C61.5536 91.4132 56.0245 91.735 52.3018 91.9189C55.9459 90.831 61.4279 88.9768 67.6482 86.4485Z" fill="#F9EDB2" stroke="#F9EDB2" stroke-width="0.5" stroke-linecap="round" stroke-linejoin="round"/>
<path d="M60.3307 86.5252C68.1845 83.0774 68.9071 82.0814 73.3209 81.2233C80.8449 79.6909 88.4945 80.5337 97.5579 81.4838C107.658 82.5411 107.422 83.4605 112.857 83.4758C121.983 83.4758 122.486 80.8862 136.23 78.6949C145.212 77.3675 154.274 76.615 163.357 76.4424C169.216 76.2125 174.148 76.1972 177.698 76.2279C175.06 76.9327 171.007 78.0054 165.965 79.2925C154.467 82.0507 151.922 82.3572 146.911 83.8896C139.215 86.2647 141.885 87.797 134.502 90.5246C125.249 93.682 115.409 94.863 105.647 93.9877C94.6519 92.8997 95.1546 89.6971 84.5833 89.2068C78.1746 88.9003 75.9441 89.9423 60.9119 91.3214C54.2518 91.9343 48.707 92.2868 45 92.4706C48.6442 91.2141 54.1261 89.2374 60.3307 86.5252Z" stroke="#EFD686" stroke-width="0.5" stroke-linecap="round" stroke-linejoin="round"/>
<path d="M82.3507 122.428C81.8578 122.429 81.37 122.331 80.9184 122.138C80.4667 121.945 80.0612 121.663 79.7275 121.309C79.3987 120.957 79.147 120.543 78.9876 120.092C78.8283 119.642 78.7647 119.164 78.8007 118.689L82.2564 74.6496L79.2248 73.6995C78.1131 73.2746 77.1266 72.5875 76.3536 71.6997C75.5807 70.812 75.0452 69.7511 74.7953 68.6121L74.2298 65.9918C73.9185 64.6078 73.8653 63.1804 74.0727 61.7779L76.3817 46.1481C76.3968 46.0574 76.4447 45.9751 76.5168 45.916C76.5889 45.8569 76.6803 45.8251 76.7744 45.8263H79.5076C79.6117 45.8263 79.7116 45.8666 79.7852 45.9385C79.8589 46.0103 79.9003 46.1078 79.9003 46.2094V62.7586C79.9044 63.0323 80.0187 63.2934 80.2186 63.4855C80.4185 63.6776 80.6878 63.7853 80.9684 63.7853H81.8951C82.1284 63.7853 82.3522 63.6949 82.5171 63.5339C82.6821 63.373 82.7748 63.1548 82.7748 62.9272L83.9528 44.6464C83.9608 44.5502 84.0056 44.4604 84.0784 44.3951C84.1512 44.3298 84.2466 44.2936 84.3455 44.2939H86.8902C86.9917 44.2939 87.0892 44.3321 87.1624 44.4007C87.2357 44.4692 87.2788 44.5628 87.2829 44.6617L87.9112 62.5288C87.9091 62.6669 87.9352 62.804 87.9879 62.9322C88.0407 63.0604 88.119 63.1771 88.2184 63.2755C88.3178 63.3739 88.4363 63.452 88.5669 63.5053C88.6975 63.5586 88.8377 63.5861 88.9793 63.5861H89.529C89.7555 63.5861 89.9729 63.4994 90.1345 63.3447C90.296 63.1899 90.3889 62.9795 90.393 62.7586L90.9271 46.4239C90.9271 46.3223 90.9684 46.2249 91.0421 46.153C91.1157 46.0812 91.2156 46.0408 91.3197 46.0408H93.3774C93.4712 46.0438 93.5608 46.0795 93.6299 46.1413C93.6991 46.2031 93.7432 46.2871 93.7544 46.3779L96.2205 61.5481C96.457 63.0344 96.3768 64.5524 95.9849 66.0072L95.2152 68.9033C94.9744 69.7846 94.5349 70.6023 93.9289 71.2968C93.3229 71.9914 92.5657 72.5452 91.7124 72.918L88.1625 74.4504L90.9585 119.087C90.9841 119.518 90.9195 119.949 90.7686 120.354C90.6177 120.759 90.3837 121.13 90.0808 121.445C89.778 121.759 89.4127 122.009 89.0072 122.181C88.6018 122.353 88.1647 122.442 87.7227 122.443L82.3507 122.428Z" fill="#8C9998"/>
<path d="M86.8923 44.677L87.5206 62.5441C87.5206 62.922 87.6746 63.2845 87.9485 63.5517C88.2225 63.819 88.594 63.9691 88.9815 63.9691H89.5312C89.8579 63.9654 90.1706 63.8392 90.4046 63.6167C90.6385 63.3942 90.7757 63.0924 90.7878 62.7739L91.3219 46.4392H93.3796L95.83 61.6093C96.0638 63.044 95.9889 64.5104 95.6101 65.9152L94.7462 68.796C94.5385 69.6109 94.1493 70.3711 93.6064 71.0226C93.0634 71.6741 92.38 72.2009 91.6046 72.5655L87.8034 74.1898L90.615 119.087C90.6386 119.466 90.5826 119.846 90.4505 120.203C90.3183 120.56 90.1129 120.887 89.8467 121.164C89.5806 121.441 89.2593 121.661 88.9025 121.813C88.5458 121.964 88.1611 122.043 87.772 122.045H82.4314C81.9939 122.046 81.5609 121.959 81.1601 121.788C80.7592 121.617 80.3994 121.366 80.1037 121.052C79.8079 120.737 79.5828 120.366 79.4426 119.962C79.3025 119.558 79.2505 119.129 79.2898 118.704L82.667 74.3584L79.3369 73.3317C78.2923 72.9192 77.3669 72.2637 76.6414 71.4224C75.9158 70.5811 75.4122 69.5795 75.1744 68.5048L74.6089 65.8999C74.311 64.5605 74.2632 63.1798 74.4676 61.8239L76.7766 46.194H79.5097V62.7433C79.5139 63.1185 79.6696 63.4771 79.9431 63.7411C80.2166 64.005 80.5858 64.153 80.9705 64.153H81.8973C82.2347 64.153 82.5584 64.0222 82.797 63.7895C83.0356 63.5567 83.1696 63.241 83.1696 62.9118L84.3477 44.6617H86.8923V44.677ZM86.8923 43.8955H84.3791C84.1787 43.8952 83.9858 43.9695 83.8398 44.1034C83.6938 44.2373 83.6057 44.4206 83.5937 44.6157L82.4156 62.8658C82.4199 62.9315 82.4105 62.9973 82.3882 63.0594C82.3658 63.1214 82.3309 63.1785 82.2854 63.2271C82.24 63.2757 82.185 63.3149 82.1237 63.3423C82.0624 63.3698 81.9961 63.3849 81.9287 63.3868H81.002C80.914 63.3889 80.8265 63.3738 80.7447 63.3423C80.6628 63.3109 80.5882 63.2638 80.5253 63.2038C80.4623 63.1439 80.4123 63.0722 80.3782 62.9931C80.3441 62.914 80.3265 62.8291 80.3265 62.7433V46.2093C80.3265 46.0061 80.2438 45.8113 80.0965 45.6676C79.9492 45.5239 79.7495 45.4432 79.5412 45.4432H76.808C76.6183 45.4445 76.4353 45.5115 76.2915 45.6321C76.1476 45.7528 76.0524 45.9193 76.0226 46.1021L73.7136 61.7319C73.5065 63.1753 73.5597 64.6429 73.8707 66.0684L74.4519 68.6887C74.7061 69.8814 75.2575 70.9946 76.0575 71.93C76.8574 72.8654 77.8813 73.5942 79.0385 74.0519L81.8188 74.9253L78.4102 118.658C78.3691 119.188 78.4406 119.72 78.62 120.222C78.7995 120.724 79.0831 121.184 79.4532 121.573C79.8233 121.963 80.2718 122.274 80.7707 122.487C81.2696 122.7 81.8082 122.81 82.3528 122.811H87.6934C88.1881 122.809 88.6771 122.709 89.1308 122.516C89.5845 122.324 89.9933 122.044 90.3323 121.692C90.6755 121.341 90.9406 120.924 91.1109 120.468C91.2812 120.011 91.353 119.526 91.3219 119.041L88.5416 74.6802L91.8402 73.2551C92.7508 72.8663 93.559 72.2808 94.2039 71.5429C94.8488 70.805 95.3135 69.9338 95.563 68.9952L96.3326 66.0991C96.7383 64.5995 96.8186 63.0337 96.5683 61.5021L94.1179 46.3319C94.0912 46.1519 93.9985 45.9874 93.857 45.8691C93.7154 45.7507 93.5346 45.6865 93.3482 45.6883H91.2905C91.1894 45.6863 91.0889 45.7037 90.9947 45.7396C90.9005 45.7755 90.8145 45.8291 90.7416 45.8974C90.6687 45.9657 90.6102 46.0473 90.5696 46.1377C90.5291 46.228 90.5071 46.3253 90.5051 46.4239L90.0339 62.7433C90.0339 62.8652 89.9842 62.9821 89.8958 63.0683C89.8075 63.1545 89.6876 63.203 89.5626 63.203H89.0129C88.8337 63.203 88.6619 63.1335 88.5353 63.01C88.4086 62.8864 88.3374 62.7188 88.3374 62.5441L87.7091 44.6464C87.701 44.4485 87.6147 44.2614 87.4683 44.1243C87.3219 43.9872 87.1267 43.9107 86.9238 43.9108L86.8923 43.8955Z" fill="#8C9998"/>
<path d="M148.543 50.3927C149.517 52.2468 149.8 54.5913 150.381 59.2802C150.8 63.0632 150.551 66.8883 149.643 70.5889C149.414 71.4095 149.007 72.1725 148.449 72.8261C147.879 73.4827 147.165 74.0063 146.36 74.3584L142.575 75.998L145.386 120.896C145.408 121.274 145.349 121.654 145.215 122.01C145.081 122.366 144.874 122.692 144.607 122.967C144.339 123.243 144.016 123.462 143.659 123.612C143.301 123.761 142.916 123.838 142.527 123.838H137.155C136.719 123.839 136.288 123.752 135.888 123.582C135.488 123.412 135.129 123.163 134.834 122.85C134.538 122.537 134.313 122.168 134.172 121.765C134.031 121.363 133.977 120.936 134.014 120.512L137.501 76.1819L134.171 75.1399C133.153 74.6832 132.235 74.0378 131.469 73.2398C129.898 71.5389 129.176 69.2404 129.302 63.6321C129.443 56.7672 129.521 53.3194 131.548 49.841C132.616 48.0329 135.38 43.3746 139.684 43.2673C144.758 43.206 148.151 49.5192 148.543 50.3927Z" fill="#8C9998" stroke="#8C9998" stroke-width="0.5" stroke-linecap="round" stroke-linejoin="round"/>
<path d="M114.711 43.2673C113.14 43.0528 104.438 66.6508 102.899 74.098C102.838 74.3284 102.832 74.5696 102.883 74.8024C102.934 75.0352 103.04 75.2532 103.193 75.4391C103.345 75.625 103.54 75.7736 103.762 75.8733C103.983 75.973 104.226 76.021 104.469 76.0134L107.108 76.5497C108.284 76.7936 109.33 77.4416 110.057 78.3755C110.784 79.3094 111.142 80.4669 111.067 81.6371L108.475 120.129C108.438 120.553 108.492 120.98 108.633 121.382C108.774 121.785 109 122.154 109.295 122.467C109.591 122.78 109.95 123.029 110.349 123.199C110.749 123.369 111.18 123.456 111.616 123.455H116.941C117.337 123.466 117.731 123.397 118.097 123.252C118.464 123.107 118.796 122.889 119.072 122.613C119.348 122.336 119.563 122.007 119.701 121.645C119.84 121.284 119.901 120.898 119.879 120.512L117.067 75.615L114.758 43.2673" fill="#8C9998"/>
<path d="M114.711 43.2673C113.14 43.0528 104.438 66.6508 102.899 74.098C102.838 74.3284 102.832 74.5696 102.883 74.8024C102.934 75.0352 103.04 75.2532 103.193 75.4391C103.345 75.625 103.54 75.7736 103.762 75.8733C103.983 75.973 104.226 76.021 104.469 76.0134L107.108 76.5497C108.284 76.7936 109.33 77.4416 110.057 78.3755C110.784 79.3094 111.142 80.4669 111.067 81.6371L108.475 120.129C108.438 120.553 108.492 120.98 108.633 121.382C108.774 121.785 109 122.154 109.295 122.467C109.591 122.78 109.95 123.029 110.349 123.199C110.749 123.369 111.18 123.456 111.616 123.455H116.941C117.337 123.466 117.731 123.397 118.097 123.252C118.464 123.107 118.796 122.889 119.072 122.613C119.348 122.336 119.563 122.007 119.701 121.645C119.84 121.284 119.901 120.898 119.879 120.512L117.067 75.615L114.758 43.2673" stroke="#8C9998" stroke-width="0.5" stroke-linecap="round" stroke-linejoin="round"/>
<path d="M75.6914 65.7927C75.7788 67.2317 76.2558 68.6223 77.0737 69.8228C77.9693 71.1235 79.2853 72.0945 80.8121 72.581C80.5461 72.0467 80.2361 71.5342 79.8853 71.0486C79.3546 70.3494 78.7491 69.7074 78.079 69.1332C77.0718 68.1787 76.2613 67.0447 75.6914 65.7927Z" fill="white" stroke="white" stroke-width="0.25" stroke-miterlimit="10"/>
<path d="M146.801 52.6451C146.587 51.2124 145.992 49.8596 145.073 48.7223C144.567 48.1241 143.968 47.6071 143.298 47.19C142.625 46.7651 141.881 46.4591 141.099 46.2859C141.411 46.7776 141.763 47.2439 142.152 47.6803C142.745 48.3348 143.408 48.9256 144.131 49.4425C145.225 50.3313 146.132 51.419 146.801 52.6451Z" fill="white" stroke="white" stroke-width="0.25" stroke-miterlimit="10"/>
<path d="M83.4354 76.2124L81.7075 119.715" stroke="#B1B5B5" stroke-width="0.25" stroke-linecap="round" stroke-linejoin="round"/>
<path d="M85.1471 76.1973L85.1157 119.731" stroke="#B1B5B5" stroke-width="0.25" stroke-linecap="round" stroke-linejoin="round"/>
<path d="M87.0796 76.2124L88.7917 119.715" stroke="#B1B5B5" stroke-width="0.25" stroke-linecap="round" stroke-linejoin="round"/>
<path d="M112.323 78.1279L110.595 121.631" stroke="#B1B5B5" stroke-width="0.25" stroke-linecap="round" stroke-linejoin="round"/>
<path d="M114.035 78.1125L114.003 121.646" stroke="#B1B5B5" stroke-width="0.25" stroke-linecap="round" stroke-linejoin="round"/>
<path d="M115.967 78.1279L117.679 121.631" stroke="#B1B5B5" stroke-width="0.25" stroke-linecap="round" stroke-linejoin="round"/>
<path d="M137.909 78.1433L136.181 121.662" stroke="#B1B5B5" stroke-width="0.25" stroke-linecap="round" stroke-linejoin="round"/>
<path d="M139.637 78.1279L139.574 121.677" stroke="#B1B5B5" stroke-width="0.25" stroke-linecap="round" stroke-linejoin="round"/>
<path d="M141.568 78.1584L143.249 121.662" stroke="#B1B5B5" stroke-width="0.25" stroke-linecap="round" stroke-linejoin="round"/>
<path d="M91.1337 111.211H78.6304V113.295H91.1337V111.211Z" fill="#F9E46E" stroke="#F9E46E" stroke-width="0.5" stroke-linecap="round" stroke-linejoin="round"/>
<path d="M119.829 111.211H108.457V113.295H119.829V111.211Z" fill="#F9E46E" stroke="#F9E46E" stroke-width="0.5" stroke-linecap="round" stroke-linejoin="round"/>
<path d="M145.403 111.211H134.015V113.295H145.403V111.211Z" fill="#F9E46E" stroke="#F9E46E" stroke-width="0.5" stroke-linecap="round" stroke-linejoin="round"/>
<path d="M114.96 122.014C115.521 122.099 116.094 122.061 116.638 121.902C117.182 121.743 117.682 121.467 118.102 121.095C118.605 120.497 118.605 119.562 118.605 118.03C118.611 117.006 118.548 115.982 118.416 114.965C118.29 115.548 118.071 116.498 117.835 117.647C117.754 118.51 117.525 119.354 117.16 120.145C116.655 120.985 115.883 121.642 114.96 122.014Z" fill="white" stroke="white" stroke-width="0.25" stroke-miterlimit="10"/>
</svg>
