<svg width="280" height="216" viewBox="0 0 280 216" fill="none" xmlns="http://www.w3.org/2000/svg">
<g filter="url(#filter0_d)">
<g clip-path="url(#clip0)">
<rect x="25" y="25.0168" width="230" height="165.09" rx="6.7" fill="#202020"/>
<rect x="26" y="26.0168" width="228" height="164" fill="white" stroke="white" stroke-width="2"/>
<path d="M87.2233 102.572L85.7336 102.267L83.4035 104.211L78.5397 101.225L79.3291 98.4684L78.476 96.7534L75.6621 96.1944L75 90.5792L77.5338 89.3088L78.3359 87.5556L76.9736 85.0656L81.3154 80.8733L83.9383 82.3724L85.6572 81.8388L87.2233 79.1201L93.0421 80.7971L92.5838 83.3252L93.7424 84.3415L97.0275 83.6428L99.7268 89.0166L97.8933 90.6046L97.6132 92.434L99.8541 94.1871L97.384 99.6499L95.6269 99.2942L94.0607 100.603L94.4173 102.445L88.7513 104.757L87.2233 102.572Z" fill="#65CBE4" stroke="#65CBE4" stroke-miterlimit="10" stroke-linecap="round"/>
<path d="M87.7585 103.614L86.2561 103.309L83.9387 105.252L79.0621 102.267L79.8515 99.5102L78.9985 97.8078L76.1845 97.2361L75.5225 91.6209L78.0562 90.3505L78.8584 88.6101L77.496 86.1074L81.8378 81.915L84.4607 83.4141L86.1797 82.8805L87.7458 80.1619L93.5773 81.8388L93.1062 84.3669L94.2649 85.3832L97.5499 84.6845L100.249 90.0583L98.4284 91.6463L98.1356 93.4757L100.377 95.2416L97.9064 100.692L96.1493 100.336L94.5832 101.644L94.9397 103.487L89.2737 105.799L87.7585 103.614Z" fill="#F7E326" stroke="#F7E326" stroke-miterlimit="10" stroke-linecap="round"/>
<path d="M87.8736 99.612C91.5584 99.612 94.5455 96.6316 94.5455 92.955C94.5455 89.2785 91.5584 86.2981 87.8736 86.2981C84.1888 86.2981 81.2017 89.2785 81.2017 92.955C81.2017 96.6316 84.1888 99.612 87.8736 99.612Z" fill="white"/>
<path d="M86.3813 99.4466C86.986 99.587 87.608 99.6383 88.2276 99.5991C88.8258 99.5708 89.4172 99.4597 89.9847 99.2688C90.9622 98.9457 91.8543 98.4073 92.5949 97.6935C93.047 97.2323 93.4326 96.7107 93.7408 96.1436C93.3021 96.6063 92.825 97.0312 92.3148 97.414C91.9127 97.7146 91.4869 97.9823 91.0415 98.2143C90.5341 98.4797 90.0008 98.6926 89.4499 98.8495C89.0321 98.9836 88.607 99.0939 88.1767 99.1798C87.5834 99.3004 86.9841 99.3895 86.3813 99.4466Z" fill="#66CBE4"/>
<path d="M93.7426 96.1309C93.3039 96.5936 92.8269 97.0185 92.3166 97.4013C91.9145 97.7019 91.4887 97.9696 91.0433 98.2016C90.5359 98.467 90.0026 98.6799 89.4518 98.8368C89.0339 98.9709 88.6088 99.0811 88.1785 99.1671C87.5981 99.2906 87.0116 99.3839 86.4214 99.4466C86.9101 99.5579 87.4098 99.6133 87.9111 99.6118H88.2676C88.8658 99.5835 89.4572 99.4724 90.0247 99.2815C90.9897 98.9496 91.8684 98.407 92.5967 97.6935C93.0488 97.2323 93.4345 96.7107 93.7426 96.1436V96.1309Z" fill="#66CBE4"/>
<path d="M181.228 102.14L180.528 100.577L177.218 99.739L176.759 93.3362L179.815 92.2563L180.821 90.338L179.497 87.4161L184.195 83.1221L187.022 84.6085L189.161 84.1892L190.549 81.3054L197.246 82.525L197.59 85.8916L199.194 87.1239L202.708 86.7555L204.987 93.1837L202.377 94.416L202.199 96.1311L205 98.6719L201.843 104.668L199.194 104.033L197.335 104.973L197.182 108.162L190.561 109.496L189.747 107.666L187.506 107.082L186.067 108.619L180.223 104.96L181.228 102.14Z" fill="#65CBE4" stroke="#65CBE4" stroke-miterlimit="10" stroke-linecap="round"/>
<path d="M180.617 103.309L179.917 101.733L176.606 100.895L176.148 94.4922L179.191 93.4123L180.21 91.5067L178.885 88.5721L183.584 84.2908L186.41 85.7645L188.55 85.3579L189.937 82.4741L196.635 83.6937L196.979 87.0603L198.583 88.2926L202.097 87.9242L204.389 94.3397L201.766 95.5847L201.588 97.2998L204.389 99.8406L201.231 105.824L198.583 105.189L196.724 106.129L196.571 109.331L189.95 110.652L189.122 108.822L186.894 108.251L185.443 109.788L179.611 106.129L180.617 103.309Z" fill="#F7E326" stroke="#F7E326" stroke-miterlimit="10" stroke-linecap="round"/>
<path d="M190.46 103.919C194.602 103.919 197.96 100.568 197.96 96.4358C197.96 92.3032 194.602 88.9531 190.46 88.9531C186.319 88.9531 182.961 92.3032 182.961 96.4358C182.961 100.568 186.319 103.919 190.46 103.919Z" fill="white"/>
<path d="M183.532 99.3196C183.804 99.9595 184.164 100.558 184.602 101.098C185.02 101.631 185.514 102.102 186.066 102.496C187.011 103.156 188.096 103.591 189.236 103.766C189.954 103.879 190.684 103.879 191.401 103.766C190.689 103.675 189.986 103.522 189.3 103.309C188.766 103.144 188.247 102.936 187.747 102.686C187.17 102.393 186.625 102.044 186.117 101.644C185.582 101.238 185.213 100.908 184.933 100.654C184.653 100.399 184.054 99.904 183.532 99.3196Z" fill="#66CBE4"/>
<path d="M183.532 99.3196C183.804 99.9595 184.164 100.558 184.602 101.098C185.02 101.631 185.514 102.102 186.066 102.496C187.011 103.156 188.096 103.591 189.236 103.766C189.954 103.867 190.683 103.867 191.401 103.766C190.689 103.675 189.986 103.522 189.3 103.309C188.766 103.144 188.247 102.936 187.747 102.686C187.17 102.393 186.625 102.044 186.117 101.644C185.582 101.238 185.213 100.908 184.933 100.654C184.653 100.399 184.054 99.8151 183.532 99.2307V99.3196Z" fill="#66CBE4"/>
<path d="M129.447 108.479L130.631 106.98L129.753 103.309L135.826 99.5484L138.462 101.975H140.868L143.071 99.1672L149.73 101.568V105.1L151.245 106.98L154.798 106.853L157.064 114.056L153.919 116.14L153.55 118.35L155.727 121.615L150.57 127.167L147.998 125.249L146.216 125.96L145.159 130.013H137.621L136.87 127.091L134.986 125.744L131.764 127.256L127.028 121.45L128.416 119.684L127.83 117.207L125.563 116.572L126.149 108.962L129.447 108.479Z" fill="#F766D8" stroke="#F766D8" stroke-miterlimit="10" stroke-linecap="round"/>
<path d="M127.981 108.479L129.165 106.98L128.286 103.309L134.36 99.5484L136.995 101.975H139.402L141.605 99.1672L148.264 101.568V105.1L149.779 106.98L153.344 106.853L155.598 114.056L152.453 116.14L152.083 118.35L154.261 121.615L149.104 127.167L146.532 125.249L144.749 125.96L143.693 130.013H136.155L135.404 127.091L133.519 125.744L130.298 127.256L125.561 121.45L126.949 119.684L126.364 117.207L124.097 116.572L124.683 108.962L127.981 108.479Z" fill="#F7E326" stroke="#F7E326" stroke-miterlimit="10" stroke-linecap="round"/>
<path d="M139.849 122.911C144.455 122.911 148.189 119.186 148.189 114.59C148.189 109.994 144.455 106.269 139.849 106.269C135.243 106.269 131.509 109.994 131.509 114.59C131.509 119.186 135.243 122.911 139.849 122.911Z" fill="white"/>
<path d="M133.455 109.127C132.94 109.716 132.512 110.375 132.182 111.084C131.875 111.767 131.665 112.49 131.558 113.231C131.358 114.507 131.459 115.811 131.851 117.042C132.101 117.808 132.466 118.532 132.933 119.189C132.659 118.442 132.455 117.673 132.322 116.889C132.206 116.278 132.142 115.657 132.131 115.035C132.148 114.33 132.229 113.629 132.373 112.938C132.469 112.377 132.597 111.822 132.755 111.274C132.945 110.545 133.179 109.828 133.455 109.127Z" fill="#F766D8"/>
<path d="M133.455 109.127C132.94 109.716 132.512 110.375 132.182 111.084C131.875 111.767 131.665 112.49 131.558 113.231C131.358 114.507 131.459 115.811 131.851 117.042C132.101 117.808 132.466 118.532 132.933 119.189C132.659 118.442 132.455 117.673 132.322 116.889C132.206 116.278 132.142 115.657 132.131 115.035C132.148 114.33 132.229 113.629 132.373 112.938C132.469 112.377 132.597 111.822 132.755 111.274C132.942 110.558 133.172 109.854 133.442 109.165L133.455 109.127Z" fill="#F766D8"/>
<path d="M157.43 124.906C157.049 125.3 156.784 125.793 156.666 126.329C156.557 126.85 156.596 127.391 156.781 127.891C156.547 128.026 156.344 128.209 156.186 128.428C156.028 128.647 155.918 128.897 155.864 129.162C155.812 129.555 155.898 129.954 156.106 130.292C155.779 130.712 155.592 131.222 155.571 131.753C155.568 132.277 155.709 132.791 155.979 133.24C155.651 133.673 155.465 134.196 155.444 134.739C155.438 135.179 155.539 135.615 155.737 136.009L168.966 138.093C169.311 137.702 169.548 137.23 169.654 136.721C169.765 136.215 169.739 135.688 169.577 135.196C169.938 134.838 170.183 134.38 170.28 133.882C170.378 133.384 170.324 132.868 170.125 132.401C170.377 132.067 170.563 131.687 170.672 131.283C170.785 130.759 170.75 130.213 170.57 129.708C170.871 129.261 171.051 128.745 171.092 128.209C171.108 127.776 171.039 127.345 170.889 126.938L157.43 124.906Z" fill="#FFEC61"/>
<path d="M156.119 127.472L170.927 129.695" stroke="white" stroke-width="0.3" stroke-linecap="round" stroke-linejoin="round"/>
<path d="M155.687 130.368L170.482 132.591" stroke="white" stroke-width="0.3" stroke-linecap="round" stroke-linejoin="round"/>
<path d="M155.444 133.519L169.857 135.679" stroke="white" stroke-width="0.3" stroke-linecap="round" stroke-linejoin="round"/>
<path d="M156.999 123.737L171.425 125.909C172.698 124.181 174.417 121.742 176.518 118.782C181.764 111.312 182.324 110.194 182.757 109.089C183.839 106.383 185.851 101.34 183.483 96.0928C180.554 89.5756 173.067 87.5557 171.909 87.2C171.425 87.0729 161.939 84.8243 155.063 90.9096C153.171 92.6289 151.714 94.7708 150.811 97.16C149.909 99.5491 149.585 102.118 149.869 104.655C150.098 106.752 150.658 107.438 153.688 115.06C155.14 118.757 156.273 121.755 156.999 123.737Z" fill="#F766D8" stroke="white" stroke-width="0.3" stroke-linecap="round" stroke-linejoin="round"/>
<path d="M157.838 92.1926C157.35 92.5872 156.886 93.0115 156.45 93.463C156.158 93.7679 155.852 94.111 155.521 94.5302C154.202 96.0029 153.251 97.7659 152.745 99.6753C152.561 100.51 152.472 101.362 152.478 102.216C152.859 101.533 153.284 100.875 153.751 100.247C154.535 99.2072 155.422 98.2495 156.399 97.3886C159.735 94.3523 161.493 94.1618 161.582 92.7008C161.624 92.2789 161.534 91.8543 161.325 91.4856C161.115 91.1168 160.795 90.8223 160.41 90.6427C159.977 90.4776 159.239 91.0493 157.838 92.1926Z" fill="white" stroke="white" stroke-width="0.3" stroke-linecap="round" stroke-linejoin="round"/>
<path d="M111.009 112.443C110.799 112.949 110.733 113.503 110.818 114.044C110.909 114.568 111.138 115.059 111.48 115.466C111.318 115.677 111.2 115.919 111.134 116.177C111.069 116.434 111.056 116.703 111.098 116.966C111.197 117.346 111.415 117.684 111.722 117.931C111.56 118.435 111.56 118.977 111.722 119.481C111.896 119.978 112.205 120.418 112.613 120.751C112.481 121.268 112.481 121.81 112.613 122.327C112.732 122.747 112.94 123.137 113.224 123.47L126.377 120.65C126.422 120.385 126.447 120.118 126.454 119.849C126.467 119.625 126.467 119.4 126.454 119.176C126.336 118.639 126.056 118.151 125.651 117.779C125.858 117.253 125.898 116.676 125.766 116.127C125.65 115.703 125.437 115.311 125.142 114.984C125.284 114.523 125.308 114.034 125.212 113.561C125.117 113.089 124.904 112.648 124.595 112.278C124.705 111.755 124.679 111.212 124.518 110.702C124.389 110.291 124.177 109.911 123.894 109.584L111.009 112.443Z" fill="#FFEC61" stroke="white" stroke-width="0.2" stroke-linecap="round" stroke-linejoin="round"/>
<path d="M109.774 115.517L124.391 112.265" stroke="white" stroke-width="0.3" stroke-linecap="round" stroke-linejoin="round"/>
<path d="M111.366 118.16L124.913 115.047" stroke="white" stroke-width="0.3" stroke-linecap="round" stroke-linejoin="round"/>
<path d="M112.28 121.183L125.42 117.88" stroke="white" stroke-width="0.3" stroke-linecap="round" stroke-linejoin="round"/>
<path d="M110.204 111.503L124.439 108.34C124.974 106.294 125.712 103.372 126.603 99.866C128.806 90.9731 128.908 89.7027 128.921 88.5848C128.921 85.6628 128.997 80.2509 124.897 76.1983C119.804 71.1802 112.101 71.9932 110.891 72.133C110.408 72.133 100.705 73.505 96.529 81.6483C95.3851 83.932 94.8002 86.4537 94.8224 89.0066C94.8445 91.5594 95.473 94.0707 96.6564 96.3342C97.624 98.2144 98.4007 98.6591 103.99 104.668C106.664 107.539 108.803 109.928 110.204 111.503Z" fill="#65CBE4" stroke="white" stroke-width="0.3" stroke-linecap="round" stroke-linejoin="round"/>
<path d="M100.276 82.4488C99.9517 82.9756 99.6625 83.523 99.4101 84.0876C99.227 84.5025 99.0655 84.9265 98.9263 85.358C98.2657 87.2178 98.0519 89.2065 98.3024 91.1638C98.4247 91.9948 98.6426 92.809 98.9517 93.5902C99.0778 92.8116 99.2435 92.0399 99.4483 91.2781C99.8075 90.027 100.289 88.8142 100.887 87.6574C102.899 83.6557 104.452 82.868 104.032 81.4197C103.931 81.0188 103.71 80.6581 103.398 80.3857C103.087 80.1133 102.699 79.9422 102.288 79.8953C101.74 79.908 101.256 80.7718 100.276 82.4488Z" fill="white" stroke="white" stroke-width="0.3" stroke-linecap="round" stroke-linejoin="round"/>
<path d="M115.363 107.857C115.803 105.344 115.315 102.758 113.988 100.577C113.797 100.26 112.498 98.2399 111.772 98.4813C111.047 98.7226 110.856 100.654 111.772 101.632C112.982 102.902 116.063 102.191 117.884 101.124C118.521 100.755 120.902 99.3705 120.927 97.16C120.927 95.2417 119.208 93.425 118.381 93.6664C117.553 93.9078 117.477 96.2072 117.451 97.5412C117.444 100.798 118.259 104.005 119.819 106.866L115.363 107.857Z" stroke="#B2F4F7" stroke-width="0.3" stroke-linecap="round" stroke-linejoin="round"/>
<path d="M114.814 108.454C115.247 105.941 114.758 103.358 113.439 101.174C113.236 100.857 111.937 98.8369 111.224 99.0783C110.511 99.3197 110.307 101.263 111.224 102.229C112.433 103.499 115.515 102.788 117.336 101.721C117.959 101.365 120.353 99.9676 120.379 97.7571C120.379 95.8515 118.66 94.0221 117.832 94.2635C117.004 94.5048 116.928 96.8043 116.903 98.1509C116.899 101.408 117.713 104.614 119.271 107.476L114.814 108.454Z" stroke="white" stroke-width="0.3" stroke-linecap="round" stroke-linejoin="round"/>
<path d="M166.193 122.555C165.589 120.075 165.897 117.461 167.059 115.187C167.237 114.869 168.396 112.76 169.122 112.951C169.848 113.142 170.191 115.06 169.351 116.102C168.231 117.486 165.098 116.94 163.214 116.013C162.565 115.695 160.082 114.476 159.903 112.202C159.738 110.296 161.355 108.39 162.233 108.543C163.112 108.695 163.316 111.02 163.43 112.354C163.671 115.606 163.084 118.866 161.724 121.831L166.193 122.555Z" stroke="#FCBBF7" stroke-width="0.3" stroke-linecap="round" stroke-linejoin="round"/>
<path d="M166.752 122.975C166.148 120.494 166.455 117.88 167.618 115.606C167.796 115.289 168.955 113.18 169.68 113.371C170.406 113.561 170.75 115.479 169.91 116.521C168.789 117.906 165.657 117.36 163.772 116.432C163.123 116.115 160.64 114.895 160.462 112.621C160.296 110.715 161.914 108.81 162.792 108.962C163.671 109.115 163.874 111.439 163.989 112.773C164.227 116.025 163.64 119.285 162.283 122.251L166.752 122.975Z" stroke="white" stroke-width="0.3" stroke-linecap="round" stroke-linejoin="round"/>
</g>
</g>
<path d="M73.096 162.664C74.1733 162.664 75.0267 162.979 75.656 163.608C76.2853 164.227 76.6 165.16 76.6 166.408V171.304H74.6V166.664C74.6 165.918 74.4347 165.358 74.104 164.984C73.7733 164.6 73.2987 164.408 72.68 164.408C72.008 164.408 71.4693 164.632 71.064 165.08C70.6587 165.518 70.456 166.147 70.456 166.968V171.304H68.456V166.664C68.456 165.918 68.2907 165.358 67.96 164.984C67.6293 164.6 67.1547 164.408 66.536 164.408C65.8533 164.408 65.3093 164.627 64.904 165.064C64.5093 165.502 64.312 166.136 64.312 166.968V171.304H62.312V162.76H64.216V163.848C64.536 163.464 64.936 163.171 65.416 162.968C65.896 162.766 66.4293 162.664 67.016 162.664C67.656 162.664 68.2213 162.787 68.712 163.032C69.2133 163.267 69.608 163.619 69.896 164.088C70.248 163.64 70.7013 163.294 71.256 163.048C71.8107 162.792 72.424 162.664 73.096 162.664ZM83.0739 171.416C82.2099 171.416 81.4312 171.23 80.7379 170.856C80.0445 170.483 79.5005 169.966 79.1059 169.304C78.7219 168.632 78.5299 167.875 78.5299 167.032C78.5299 166.19 78.7219 165.438 79.1059 164.776C79.5005 164.115 80.0445 163.598 80.7379 163.224C81.4312 162.851 82.2099 162.664 83.0739 162.664C83.9485 162.664 84.7325 162.851 85.4259 163.224C86.1192 163.598 86.6579 164.115 87.0419 164.776C87.4365 165.438 87.6339 166.19 87.6339 167.032C87.6339 167.875 87.4365 168.632 87.0419 169.304C86.6579 169.966 86.1192 170.483 85.4259 170.856C84.7325 171.23 83.9485 171.416 83.0739 171.416ZM83.0739 169.704C83.8099 169.704 84.4179 169.459 84.8979 168.968C85.3779 168.478 85.6179 167.832 85.6179 167.032C85.6179 166.232 85.3779 165.587 84.8979 165.096C84.4179 164.606 83.8099 164.36 83.0739 164.36C82.3379 164.36 81.7299 164.606 81.2499 165.096C80.7805 165.587 80.5459 166.232 80.5459 167.032C80.5459 167.832 80.7805 168.478 81.2499 168.968C81.7299 169.459 82.3379 169.704 83.0739 169.704ZM93.0184 160.936C92.1757 160.936 91.7544 161.395 91.7544 162.312V162.824H94.1064V164.424H91.8184V171.304H89.8184V164.424H88.4104V162.824H89.8184V162.28C89.8184 161.363 90.085 160.643 90.6184 160.12C91.1517 159.587 91.9037 159.32 92.8744 159.32C93.6424 159.32 94.245 159.475 94.6824 159.784L94.1224 161.288C93.781 161.054 93.413 160.936 93.0184 160.936ZM98.9246 160.936C98.082 160.936 97.6606 161.395 97.6606 162.312V162.824H100.013V164.424H97.7246V171.304H95.7246V164.424H94.3166V162.824H95.7246V162.28C95.7246 161.363 95.9913 160.643 96.5246 160.12C97.058 159.587 97.81 159.32 98.7806 159.32C99.5486 159.32 100.151 159.475 100.589 159.784L100.029 161.288C99.6873 161.054 99.3193 160.936 98.9246 160.936ZM102.637 162.76H104.637V171.304H102.637V162.76ZM103.645 161.352C103.282 161.352 102.978 161.24 102.733 161.016C102.487 160.782 102.365 160.494 102.365 160.152C102.365 159.811 102.487 159.528 102.733 159.304C102.978 159.07 103.282 158.952 103.645 158.952C104.007 158.952 104.311 159.064 104.557 159.288C104.802 159.502 104.925 159.774 104.925 160.104C104.925 160.456 104.802 160.755 104.557 161C104.322 161.235 104.018 161.352 103.645 161.352ZM112.401 170.84C112.166 171.032 111.878 171.176 111.537 171.272C111.206 171.368 110.854 171.416 110.481 171.416C109.542 171.416 108.817 171.171 108.305 170.68C107.793 170.19 107.537 169.475 107.537 168.536V164.424H106.129V162.824H107.537V160.872H109.537V162.824H111.825V164.424H109.537V168.488C109.537 168.904 109.638 169.224 109.841 169.448C110.044 169.662 110.337 169.768 110.721 169.768C111.169 169.768 111.542 169.651 111.841 169.416L112.401 170.84ZM118.979 170.84C118.745 171.032 118.457 171.176 118.115 171.272C117.785 171.368 117.433 171.416 117.059 171.416C116.121 171.416 115.395 171.171 114.883 170.68C114.371 170.19 114.115 169.475 114.115 168.536V164.424H112.707V162.824H114.115V160.872H116.115V162.824H118.403V164.424H116.115V168.488C116.115 168.904 116.217 169.224 116.419 169.448C116.622 169.662 116.915 169.768 117.299 169.768C117.747 169.768 118.121 169.651 118.419 169.416L118.979 170.84ZM135.83 162.664C136.908 162.664 137.761 162.979 138.39 163.608C139.02 164.227 139.334 165.16 139.334 166.408V171.304H137.334V166.664C137.334 165.918 137.169 165.358 136.838 164.984C136.508 164.6 136.033 164.408 135.414 164.408C134.742 164.408 134.204 164.632 133.798 165.08C133.393 165.518 133.19 166.147 133.19 166.968V171.304H131.19V166.664C131.19 165.918 131.025 165.358 130.694 164.984C130.364 164.6 129.889 164.408 129.27 164.408C128.588 164.408 128.044 164.627 127.638 165.064C127.244 165.502 127.046 166.136 127.046 166.968V171.304H125.046V162.76H126.95V163.848C127.27 163.464 127.67 163.171 128.15 162.968C128.63 162.766 129.164 162.664 129.75 162.664C130.39 162.664 130.956 162.787 131.446 163.032C131.948 163.267 132.342 163.619 132.63 164.088C132.982 163.64 133.436 163.294 133.99 163.048C134.545 162.792 135.158 162.664 135.83 162.664ZM145.154 162.664C146.413 162.664 147.373 162.968 148.034 163.576C148.706 164.174 149.042 165.08 149.042 166.296V171.304H147.154V170.264C146.909 170.638 146.557 170.926 146.098 171.128C145.65 171.32 145.106 171.416 144.466 171.416C143.826 171.416 143.266 171.31 142.786 171.096C142.306 170.872 141.933 170.568 141.666 170.184C141.41 169.79 141.282 169.347 141.282 168.856C141.282 168.088 141.565 167.475 142.13 167.016C142.706 166.547 143.607 166.312 144.834 166.312H147.042V166.184C147.042 165.587 146.861 165.128 146.498 164.808C146.146 164.488 145.618 164.328 144.914 164.328C144.434 164.328 143.959 164.403 143.49 164.552C143.031 164.702 142.642 164.91 142.322 165.176L141.538 163.72C141.986 163.379 142.525 163.118 143.154 162.936C143.783 162.755 144.45 162.664 145.154 162.664ZM144.882 169.96C145.383 169.96 145.826 169.848 146.21 169.624C146.605 169.39 146.882 169.059 147.042 168.632V167.64H144.978C143.826 167.64 143.25 168.019 143.25 168.776C143.25 169.139 143.394 169.427 143.682 169.64C143.97 169.854 144.37 169.96 144.882 169.96ZM155.097 167.64L153.609 169.048V171.304H151.609V159.432H153.609V166.6L157.753 162.76H160.153L156.585 166.344L160.489 171.304H158.057L155.097 167.64ZM169.453 167.08C169.453 167.219 169.443 167.416 169.421 167.672H162.717C162.835 168.302 163.139 168.803 163.629 169.176C164.131 169.539 164.749 169.72 165.485 169.72C166.424 169.72 167.197 169.411 167.805 168.792L168.877 170.024C168.493 170.483 168.008 170.83 167.421 171.064C166.835 171.299 166.173 171.416 165.437 171.416C164.499 171.416 163.672 171.23 162.957 170.856C162.243 170.483 161.688 169.966 161.293 169.304C160.909 168.632 160.717 167.875 160.717 167.032C160.717 166.2 160.904 165.454 161.277 164.792C161.661 164.12 162.189 163.598 162.861 163.224C163.533 162.851 164.291 162.664 165.133 162.664C165.965 162.664 166.707 162.851 167.357 163.224C168.019 163.587 168.531 164.104 168.893 164.776C169.267 165.438 169.453 166.206 169.453 167.08ZM165.133 164.264C164.493 164.264 163.949 164.456 163.501 164.84C163.064 165.214 162.797 165.715 162.701 166.344H167.549C167.464 165.726 167.203 165.224 166.765 164.84C166.328 164.456 165.784 164.264 165.133 164.264ZM173.279 164.008C173.855 163.112 174.868 162.664 176.319 162.664V164.568C176.148 164.536 175.993 164.52 175.855 164.52C175.076 164.52 174.468 164.75 174.031 165.208C173.593 165.656 173.375 166.307 173.375 167.16V171.304H171.375V162.76H173.279V164.008ZM180.686 171.416C179.993 171.416 179.316 171.326 178.654 171.144C177.993 170.963 177.465 170.734 177.07 170.456L177.838 168.936C178.222 169.192 178.681 169.4 179.214 169.56C179.758 169.71 180.292 169.784 180.814 169.784C182.009 169.784 182.606 169.47 182.606 168.84C182.606 168.542 182.452 168.334 182.142 168.216C181.844 168.099 181.358 167.987 180.686 167.88C179.982 167.774 179.406 167.651 178.958 167.512C178.521 167.374 178.137 167.134 177.806 166.792C177.486 166.44 177.326 165.955 177.326 165.336C177.326 164.526 177.662 163.88 178.334 163.4C179.017 162.91 179.934 162.664 181.086 162.664C181.673 162.664 182.26 162.734 182.846 162.872C183.433 163 183.913 163.176 184.286 163.4L183.518 164.92C182.793 164.494 181.977 164.28 181.07 164.28C180.484 164.28 180.036 164.371 179.726 164.552C179.428 164.723 179.278 164.952 179.278 165.24C179.278 165.56 179.438 165.79 179.758 165.928C180.089 166.056 180.596 166.179 181.278 166.296C181.961 166.403 182.521 166.526 182.958 166.664C183.396 166.803 183.769 167.038 184.078 167.368C184.398 167.699 184.558 168.168 184.558 168.776C184.558 169.576 184.212 170.216 183.518 170.696C182.825 171.176 181.881 171.416 180.686 171.416ZM191.017 162.664C191.849 162.664 192.59 162.846 193.241 163.208C193.902 163.571 194.419 164.083 194.793 164.744C195.166 165.406 195.353 166.168 195.353 167.032C195.353 167.896 195.166 168.664 194.793 169.336C194.419 169.998 193.902 170.51 193.241 170.872C192.59 171.235 191.849 171.416 191.017 171.416C189.865 171.416 188.953 171.032 188.281 170.264V174.408H186.281V162.76H188.185V163.88C188.515 163.475 188.921 163.171 189.401 162.968C189.891 162.766 190.43 162.664 191.017 162.664ZM190.793 169.704C191.529 169.704 192.131 169.459 192.601 168.968C193.081 168.478 193.321 167.832 193.321 167.032C193.321 166.232 193.081 165.587 192.601 165.096C192.131 164.606 191.529 164.36 190.793 164.36C190.313 164.36 189.881 164.472 189.497 164.696C189.113 164.91 188.809 165.219 188.585 165.624C188.361 166.03 188.249 166.499 188.249 167.032C188.249 167.566 188.361 168.035 188.585 168.44C188.809 168.846 189.113 169.16 189.497 169.384C189.881 169.598 190.313 169.704 190.793 169.704ZM200.404 162.664C201.663 162.664 202.623 162.968 203.284 163.576C203.956 164.174 204.292 165.08 204.292 166.296V171.304H202.404V170.264C202.159 170.638 201.807 170.926 201.348 171.128C200.9 171.32 200.356 171.416 199.716 171.416C199.076 171.416 198.516 171.31 198.036 171.096C197.556 170.872 197.183 170.568 196.916 170.184C196.66 169.79 196.532 169.347 196.532 168.856C196.532 168.088 196.815 167.475 197.38 167.016C197.956 166.547 198.857 166.312 200.084 166.312H202.292V166.184C202.292 165.587 202.111 165.128 201.748 164.808C201.396 164.488 200.868 164.328 200.164 164.328C199.684 164.328 199.209 164.403 198.74 164.552C198.281 164.702 197.892 164.91 197.572 165.176L196.788 163.72C197.236 163.379 197.775 163.118 198.404 162.936C199.033 162.755 199.7 162.664 200.404 162.664ZM200.132 169.96C200.633 169.96 201.076 169.848 201.46 169.624C201.855 169.39 202.132 169.059 202.292 168.632V167.64H200.228C199.076 167.64 198.5 168.019 198.5 168.776C198.5 169.139 198.644 169.427 198.932 169.64C199.22 169.854 199.62 169.96 200.132 169.96ZM210.857 171.416C209.972 171.416 209.177 171.23 208.473 170.856C207.769 170.483 207.22 169.966 206.825 169.304C206.43 168.632 206.233 167.875 206.233 167.032C206.233 166.19 206.43 165.438 206.825 164.776C207.22 164.115 207.764 163.598 208.457 163.224C209.161 162.851 209.961 162.664 210.857 162.664C211.7 162.664 212.436 162.835 213.065 163.176C213.705 163.518 214.185 164.008 214.505 164.648L212.969 165.544C212.724 165.15 212.414 164.856 212.041 164.664C211.678 164.462 211.278 164.36 210.841 164.36C210.094 164.36 209.476 164.606 208.985 165.096C208.494 165.576 208.249 166.222 208.249 167.032C208.249 167.843 208.489 168.494 208.969 168.984C209.46 169.464 210.084 169.704 210.841 169.704C211.278 169.704 211.678 169.608 212.041 169.416C212.414 169.214 212.724 168.915 212.969 168.52L214.505 169.416C214.174 170.056 213.689 170.552 213.049 170.904C212.42 171.246 211.689 171.416 210.857 171.416ZM224.141 167.08C224.141 167.219 224.13 167.416 224.109 167.672H217.405C217.522 168.302 217.826 168.803 218.317 169.176C218.818 169.539 219.437 169.72 220.173 169.72C221.112 169.72 221.885 169.411 222.493 168.792L223.565 170.024C223.181 170.483 222.696 170.83 222.109 171.064C221.522 171.299 220.861 171.416 220.125 171.416C219.186 171.416 218.36 171.23 217.645 170.856C216.93 170.483 216.376 169.966 215.981 169.304C215.597 168.632 215.405 167.875 215.405 167.032C215.405 166.2 215.592 165.454 215.965 164.792C216.349 164.12 216.877 163.598 217.549 163.224C218.221 162.851 218.978 162.664 219.821 162.664C220.653 162.664 221.394 162.851 222.045 163.224C222.706 163.587 223.218 164.104 223.581 164.776C223.954 165.438 224.141 166.206 224.141 167.08ZM219.821 164.264C219.181 164.264 218.637 164.456 218.189 164.84C217.752 165.214 217.485 165.715 217.389 166.344H222.237C222.152 165.726 221.89 165.224 221.453 164.84C221.016 164.456 220.472 164.264 219.821 164.264Z" fill="black"/>
<defs>
<filter id="filter0_d" x="0" y="0.0168457" width="280" height="215.09" filterUnits="userSpaceOnUse" color-interpolation-filters="sRGB">
<feFlood flood-opacity="0" result="BackgroundImageFix"/>
<feColorMatrix in="SourceAlpha" type="matrix" values="0 0 0 0 0 0 0 0 0 0 0 0 0 0 0 0 0 0 127 0"/>
<feOffset/>
<feGaussianBlur stdDeviation="12.5"/>
<feColorMatrix type="matrix" values="0 0 0 0 0 0 0 0 0 0 0 0 0 0 0 0 0 0 0.14 0"/>
<feBlend mode="normal" in2="BackgroundImageFix" result="effect1_dropShadow"/>
<feBlend mode="normal" in="SourceGraphic" in2="effect1_dropShadow" result="shape"/>
</filter>
<clipPath id="clip0">
<rect x="25" y="25.0168" width="230" height="165.09" rx="6.7" fill="white"/>
</clipPath>
</defs>
</svg>
