<svg width="230" height="165" viewBox="0 0 230 165" fill="none" xmlns="http://www.w3.org/2000/svg">
<rect width="230" height="165" rx="6.7" fill="white"/>
<path d="M71.4803 139.36C72.5576 139.36 73.4216 139.675 74.0723 140.304C74.723 140.933 75.0483 141.867 75.0483 143.104V148H73.0483V143.36C73.0483 142.613 72.8723 142.053 72.5203 141.68C72.1683 141.296 71.667 141.104 71.0163 141.104C70.2803 141.104 69.699 141.328 69.2723 141.776C68.8456 142.213 68.6323 142.848 68.6323 143.68V148H66.6323V139.456H68.5363V140.56C68.867 140.165 69.283 139.867 69.7843 139.664C70.2856 139.461 70.851 139.36 71.4803 139.36ZM85.6956 143.776C85.6956 143.915 85.6849 144.112 85.6636 144.368H78.9596C79.0769 144.997 79.3809 145.499 79.8716 145.872C80.3729 146.235 80.9916 146.416 81.7276 146.416C82.6662 146.416 83.4396 146.107 84.0476 145.488L85.1196 146.72C84.7356 147.179 84.2502 147.525 83.6636 147.76C83.0769 147.995 82.4156 148.112 81.6796 148.112C80.7409 148.112 79.9142 147.925 79.1996 147.552C78.4849 147.179 77.9302 146.661 77.5356 146C77.1516 145.328 76.9596 144.571 76.9596 143.728C76.9596 142.896 77.1462 142.149 77.5196 141.488C77.9036 140.816 78.4316 140.293 79.1036 139.92C79.7756 139.547 80.5329 139.36 81.3756 139.36C82.2076 139.36 82.9489 139.547 83.5996 139.92C84.2609 140.283 84.7729 140.8 85.1356 141.472C85.5089 142.133 85.6956 142.901 85.6956 143.776ZM81.3756 140.96C80.7356 140.96 80.1916 141.152 79.7436 141.536C79.3062 141.909 79.0396 142.411 78.9436 143.04H83.7916C83.7062 142.421 83.4449 141.92 83.0076 141.536C82.5702 141.152 82.0262 140.96 81.3756 140.96ZM92.7527 147.536C92.518 147.728 92.23 147.872 91.8887 147.968C91.558 148.064 91.206 148.112 90.8327 148.112C89.894 148.112 89.1687 147.867 88.6567 147.376C88.1447 146.885 87.8887 146.171 87.8887 145.232V141.12H86.4807V139.52H87.8887V137.568H89.8887V139.52H92.1767V141.12H89.8887V145.184C89.8887 145.6 89.99 145.92 90.1927 146.144C90.3954 146.357 90.6887 146.464 91.0727 146.464C91.5207 146.464 91.894 146.347 92.1927 146.112L92.7527 147.536ZM94.3979 139.456H96.3979V148H94.3979V139.456ZM95.4059 138.048C95.0433 138.048 94.7393 137.936 94.4939 137.712C94.2486 137.477 94.1259 137.189 94.1259 136.848C94.1259 136.507 94.2486 136.224 94.4939 136C94.7393 135.765 95.0433 135.648 95.4059 135.648C95.7686 135.648 96.0726 135.76 96.3179 135.984C96.5633 136.197 96.6859 136.469 96.6859 136.8C96.6859 137.152 96.5633 137.451 96.3179 137.696C96.0833 137.931 95.7793 138.048 95.4059 138.048ZM102.943 148.112C102.058 148.112 101.263 147.925 100.559 147.552C99.8549 147.179 99.3056 146.661 98.9109 146C98.5163 145.328 98.3189 144.571 98.3189 143.728C98.3189 142.885 98.5163 142.133 98.9109 141.472C99.3056 140.811 99.8496 140.293 100.543 139.92C101.247 139.547 102.047 139.36 102.943 139.36C103.786 139.36 104.522 139.531 105.151 139.872C105.791 140.213 106.271 140.704 106.591 141.344L105.055 142.24C104.81 141.845 104.5 141.552 104.127 141.36C103.764 141.157 103.364 141.056 102.927 141.056C102.18 141.056 101.562 141.301 101.071 141.792C100.58 142.272 100.335 142.917 100.335 143.728C100.335 144.539 100.575 145.189 101.055 145.68C101.546 146.16 102.17 146.4 102.927 146.4C103.364 146.4 103.764 146.304 104.127 146.112C104.5 145.909 104.81 145.611 105.055 145.216L106.591 146.112C106.26 146.752 105.775 147.248 105.135 147.6C104.506 147.941 103.775 148.112 102.943 148.112ZM117.59 139.36C118.667 139.36 119.531 139.675 120.182 140.304C120.832 140.933 121.158 141.867 121.158 143.104V148H119.158V143.36C119.158 142.613 118.982 142.053 118.63 141.68C118.278 141.296 117.776 141.104 117.126 141.104C116.39 141.104 115.808 141.328 115.382 141.776C114.955 142.213 114.742 142.848 114.742 143.68V148H112.742V136.128H114.742V140.448C115.072 140.096 115.478 139.829 115.958 139.648C116.448 139.456 116.992 139.36 117.59 139.36ZM131.805 143.776C131.805 143.915 131.794 144.112 131.773 144.368H125.069C125.186 144.997 125.49 145.499 125.981 145.872C126.482 146.235 127.101 146.416 127.837 146.416C128.776 146.416 129.549 146.107 130.157 145.488L131.229 146.72C130.845 147.179 130.36 147.525 129.773 147.76C129.186 147.995 128.525 148.112 127.789 148.112C126.85 148.112 126.024 147.925 125.309 147.552C124.594 147.179 124.04 146.661 123.645 146C123.261 145.328 123.069 144.571 123.069 143.728C123.069 142.896 123.256 142.149 123.629 141.488C124.013 140.816 124.541 140.293 125.213 139.92C125.885 139.547 126.642 139.36 127.485 139.36C128.317 139.36 129.058 139.547 129.709 139.92C130.37 140.283 130.882 140.8 131.245 141.472C131.618 142.133 131.805 142.901 131.805 143.776ZM127.485 140.96C126.845 140.96 126.301 141.152 125.853 141.536C125.416 141.909 125.149 142.411 125.053 143.04H129.901C129.816 142.421 129.554 141.92 129.117 141.536C128.68 141.152 128.136 140.96 127.485 140.96ZM136.756 139.36C138.014 139.36 138.974 139.664 139.636 140.272C140.308 140.869 140.644 141.776 140.644 142.992V148H138.756V146.96C138.51 147.333 138.158 147.621 137.7 147.824C137.252 148.016 136.708 148.112 136.068 148.112C135.428 148.112 134.868 148.005 134.388 147.792C133.908 147.568 133.534 147.264 133.268 146.88C133.012 146.485 132.884 146.043 132.884 145.552C132.884 144.784 133.166 144.171 133.732 143.712C134.308 143.243 135.209 143.008 136.436 143.008H138.644V142.88C138.644 142.283 138.462 141.824 138.1 141.504C137.748 141.184 137.22 141.024 136.516 141.024C136.036 141.024 135.561 141.099 135.092 141.248C134.633 141.397 134.244 141.605 133.924 141.872L133.14 140.416C133.588 140.075 134.126 139.813 134.756 139.632C135.385 139.451 136.052 139.36 136.756 139.36ZM136.484 146.656C136.985 146.656 137.428 146.544 137.812 146.32C138.206 146.085 138.484 145.755 138.644 145.328V144.336H136.58C135.428 144.336 134.852 144.715 134.852 145.472C134.852 145.835 134.996 146.123 135.284 146.336C135.572 146.549 135.972 146.656 136.484 146.656ZM143.21 136.128H145.21V148H143.21V136.128ZM153.393 147.536C153.159 147.728 152.871 147.872 152.529 147.968C152.199 148.064 151.847 148.112 151.473 148.112C150.535 148.112 149.809 147.867 149.297 147.376C148.785 146.885 148.529 146.171 148.529 145.232V141.12H147.121V139.52H148.529V137.568H150.529V139.52H152.817V141.12H150.529V145.184C150.529 145.6 150.631 145.92 150.833 146.144C151.036 146.357 151.329 146.464 151.713 146.464C152.161 146.464 152.535 146.347 152.833 146.112L153.393 147.536ZM159.887 139.36C160.964 139.36 161.828 139.675 162.479 140.304C163.129 140.933 163.455 141.867 163.455 143.104V148H161.455V143.36C161.455 142.613 161.279 142.053 160.927 141.68C160.575 141.296 160.073 141.104 159.423 141.104C158.687 141.104 158.105 141.328 157.679 141.776C157.252 142.213 157.039 142.848 157.039 143.68V148H155.039V136.128H157.039V140.448C157.369 140.096 157.775 139.829 158.255 139.648C158.745 139.456 159.289 139.36 159.887 139.36Z" fill="black"/>
<path d="M79.1147 89.6436C79.23 88.7788 79.4762 87.9354 79.8452 87.1411" stroke="#9AC1C0" stroke-width="0.75" stroke-miterlimit="10"/>
<path d="M96.7666 98.1455C94.8512 99.6815 92.4506 100.525 89.9712 100.532" stroke="#9AC1C0" stroke-width="0.75" stroke-miterlimit="10"/>
<path d="M100.317 88.699C100.538 89.7062 100.589 90.7416 100.47 91.765" stroke="#9AC1C0" stroke-width="0.75" stroke-miterlimit="10"/>
<path d="M92.1279 80.8267C93.6804 81.2354 95.1275 81.9582 96.3751 82.948" stroke="#9AC1C0" stroke-width="0.75" stroke-miterlimit="10"/>
<path d="M81.2549 84.8043C81.9253 83.6507 82.8474 82.6549 83.9561 81.8875" stroke="#9AC1C0" stroke-width="0.75" stroke-miterlimit="10"/>
<path d="M86.5737 80.9263C87.5085 80.7551 88.4617 80.6995 89.4108 80.7606" stroke="#9AC1C0" stroke-width="0.75" stroke-miterlimit="10"/>
<path d="M83.0233 98.0461C81.1262 96.6094 79.8575 94.525 79.4727 92.2124" stroke="#9AC1C0" stroke-width="0.75" stroke-miterlimit="10"/>
<path d="M87.9981 100.3C86.887 100.105 85.8111 99.7536 84.8042 99.2559" stroke="#9AC1C0" stroke-width="0.75" stroke-miterlimit="10"/>
<path d="M100.028 93.2068C99.7863 94.684 99.2056 96.0889 98.3296 97.3169" stroke="#9AC1C0" stroke-width="0.75" stroke-miterlimit="10"/>
<path d="M97.3442 83.9922C98.3751 84.821 99.2048 85.8625 99.7736 87.0416" stroke="#9AC1C0" stroke-width="0.75" stroke-miterlimit="10"/>
<path d="M173.045 93.1074C173.198 92.0264 173.507 90.9719 173.962 89.9751" stroke="#F9C7F7" stroke-width="0.75" stroke-miterlimit="10"/>
<path d="M195.267 103.73C192.828 105.663 189.778 106.711 186.637 106.697" stroke="#F9C7F7" stroke-width="0.75" stroke-miterlimit="10"/>
<path d="M199.733 91.8477C200.008 93.1055 200.071 94.3984 199.92 95.676" stroke="#F9C7F7" stroke-width="0.75" stroke-miterlimit="10"/>
<path d="M189.421 82.0698C191.371 82.5908 193.192 83.493 194.773 84.7215" stroke="#F9C7F7" stroke-width="0.75" stroke-miterlimit="10"/>
<path d="M175.725 87.0415C176.573 85.6001 177.732 84.3559 179.122 83.3955" stroke="#F9C7F7" stroke-width="0.75" stroke-miterlimit="10"/>
<path d="M182.421 82.2189C183.603 82.0065 184.806 81.9342 186.005 82.0035" stroke="#F9C7F7" stroke-width="0.75" stroke-miterlimit="10"/>
<path d="M177.954 103.615C175.574 101.831 173.982 99.229 173.503 96.3391" stroke="#F9C7F7" stroke-width="0.75" stroke-miterlimit="10"/>
<path d="M184.222 106.498C182.829 106.256 181.479 105.821 180.212 105.206" stroke="#F9C7F7" stroke-width="0.75" stroke-miterlimit="10"/>
<path d="M199.374 97.5654C199.053 99.4126 198.316 101.167 197.216 102.703" stroke="#F9C7F7" stroke-width="0.75" stroke-miterlimit="10"/>
<path d="M195.998 86.0471C197.301 87.1078 198.345 88.4382 199.056 89.9417" stroke="#F9C7F7" stroke-width="0.75" stroke-miterlimit="10"/>
<path d="M30 62.5138C30.1841 61.1869 30.5438 59.8889 31.0703 58.6523" stroke="#F9BF87" stroke-width="0.75" stroke-miterlimit="10"/>
<path d="M55.8039 75.6228C53.0199 77.9856 49.4538 79.2865 45.7637 79.2854" stroke="#F9BF87" stroke-width="0.75" stroke-miterlimit="10"/>
<path d="M61.02 60.9558C61.3424 62.51 61.4112 64.104 61.2239 65.6791" stroke="#F9BF87" stroke-width="0.75" stroke-miterlimit="10"/>
<path d="M49.0093 48.9238C51.3037 49.5879 53.4283 50.7175 55.2441 52.2384" stroke="#F9BF87" stroke-width="0.75" stroke-miterlimit="10"/>
<path d="M33.0762 55.056C34.0557 53.3027 35.4117 51.7764 37.0515 50.5813" stroke="#F9BF87" stroke-width="0.75" stroke-miterlimit="10"/>
<path d="M40.8564 49.0565C42.234 48.8084 43.6374 48.7249 45.0356 48.8079" stroke="#F9BF87" stroke-width="0.75" stroke-miterlimit="10"/>
<path d="M35.6721 75.4405C32.8517 73.1835 30.9976 69.9798 30.4736 66.458" stroke="#F9BF87" stroke-width="0.75" stroke-miterlimit="10"/>
<path d="M42.9468 79.0369C41.3201 78.711 39.7515 78.1526 38.292 77.3796" stroke="#F9BF87" stroke-width="0.75" stroke-miterlimit="10"/>
<path d="M60.5802 68.0159C60.2183 70.2779 59.3607 72.4373 58.0659 74.3467" stroke="#F9BF87" stroke-width="0.75" stroke-miterlimit="10"/>
<path d="M56.6738 53.7964C58.2044 55.125 59.4166 56.7658 60.2244 58.6025" stroke="#F9BF87" stroke-width="0.75" stroke-miterlimit="10"/>
<path d="M147.205 93.4885L141.497 108.702L131.898 96.5048L121.178 104.51L112.667 97.1346" stroke="#F7C2F9" stroke-miterlimit="10"/>
<path d="M132.917 73.1369C130.22 71.1911 128.395 68.3066 127.82 65.0825" stroke="#9AC1C0" stroke-width="0.75" stroke-miterlimit="10"/>
<path d="M157.548 66.458C157.174 68.5098 156.32 70.4496 155.051 72.1259" stroke="#9AC1C0" stroke-width="0.75" stroke-miterlimit="10"/>
<path d="M71.4863 89.2956C71.7197 87.542 72.188 85.8258 72.8794 84.1912" stroke="#FCC3FC" stroke-width="0.75" stroke-miterlimit="10"/>
<path d="M111.664 87.2571C112.086 89.3079 112.177 91.4102 111.936 93.4885" stroke="#FCC3FC" stroke-width="0.75" stroke-miterlimit="10"/>
<path d="M75.5479 79.4348C76.7852 77.1151 78.5241 75.0851 80.6444 73.4851" stroke="#FCC3FC" stroke-width="0.75" stroke-miterlimit="10"/>
<path d="M106.039 77.7773C108.029 79.5475 109.6 81.7192 110.643 84.1413" stroke="#FCC3FC" stroke-width="0.75" stroke-miterlimit="10"/>
<path fill-rule="evenodd" clip-rule="evenodd" d="M145.132 86.8925C143.667 82.5887 143.934 77.9022 145.88 73.7834C149.736 66.1433 159.471 62.6298 167.676 64.0716C171.853 64.694 175.716 66.6052 178.698 69.525C181.681 72.4449 183.626 76.2198 184.249 80.2967C184.872 84.3735 184.14 88.5379 182.16 92.1794C180.181 95.8209 177.058 98.7482 173.248 100.532C161.662 105.835 148.462 96.6208 145.132 86.8925Z" fill="#D7F4F4"/>
<path fill-rule="evenodd" clip-rule="evenodd" d="M103.188 66.922C100.808 68.9166 98.9864 71.469 97.8958 74.3392C96.8051 77.2094 96.4807 80.303 96.953 83.3292C97.5207 86.6738 99.0256 89.8 101.301 92.3622C103.577 94.9244 106.535 96.8227 109.847 97.847C113.333 98.8488 117.036 98.8865 120.542 97.9559C124.049 97.0254 127.222 95.1632 129.707 92.5769C134.634 87.605 137.267 79.534 134.345 73.0208C129.724 62.5633 112.345 59.6134 103.188 66.922Z" fill="#D7F4F4"/>
<path fill-rule="evenodd" clip-rule="evenodd" d="M51.4238 68.8944C57.8455 62.9944 68.7011 62.3812 76.5329 67.5354C83.9398 72.5072 87.6094 81.7715 84.8912 89.7596C81.0858 100.996 65.6092 106.664 55.1443 100.648C44.1697 94.3338 42.3689 77.2471 51.4238 68.8944Z" fill="#D7F4F4"/>
<path fill-rule="evenodd" clip-rule="evenodd" d="M147.035 84.3899C145.571 80.0789 145.844 75.3856 147.8 71.2641C151.656 63.6406 161.391 60.1106 169.579 61.5524C173.785 62.1499 177.681 64.0533 180.691 66.9804C183.7 69.9076 185.663 73.7027 186.289 77.8036C186.914 81.9044 186.168 86.0926 184.162 89.7476C182.156 93.4026 178.997 96.3299 175.151 98.0957C163.565 103.316 150.365 94.1016 147.035 84.3899Z" fill="#AFD9DB"/>
<path fill-rule="evenodd" clip-rule="evenodd" d="M105.039 64.022C102.656 66.011 100.833 68.5602 99.7423 71.4283C98.6513 74.2965 98.3284 77.3887 98.8042 80.4126C99.3776 83.765 100.893 86.8968 103.181 89.4597C105.469 92.0226 108.441 93.9163 111.767 94.9304C115.252 95.9321 118.955 95.9698 122.461 95.0393C125.968 94.1087 129.141 92.2465 131.626 89.6602C136.553 84.6884 139.186 76.6174 136.264 70.1042C131.575 59.6467 114.196 56.6967 105.039 64.022Z" fill="#AFD9DB"/>
<path fill-rule="evenodd" clip-rule="evenodd" d="M53.6328 66.3918C60.0545 60.4753 70.8931 59.8621 78.7418 65.0328C86.1488 70.0047 89.8184 79.2689 87.1002 87.2571C83.2948 98.4935 67.8182 104.161 57.3533 98.1455C46.3787 91.8146 44.5779 74.7445 53.6328 66.3918Z" fill="#AFD9DB"/>
<path d="M65.831 92.8256C63.9223 92.8311 62.0661 92.2167 60.5549 91.0794C59.0437 89.942 57.9634 88.3464 57.4845 86.544C57.0056 84.7416 57.1552 82.8349 57.9097 81.1246C58.6642 79.4143 59.9808 77.9976 61.6518 77.0979H61.7707C61.784 77.1298 61.784 77.1654 61.7707 77.1973L61.9236 79.1032C61.0744 79.7268 60.3831 80.5322 59.9031 81.4574C59.423 82.3825 59.1669 83.4028 59.1545 84.4397C59.1767 86.0362 59.8054 87.5679 60.9189 88.7381C62.0324 89.9084 63.5514 90.6339 65.1818 90.7742C66.8122 90.9144 68.438 90.4595 69.7442 89.4975C71.0505 88.5354 71.9443 87.1347 72.2526 85.5667C72.2599 85.5432 72.2731 85.5218 72.2909 85.5045C72.3086 85.4871 72.3305 85.4743 72.3546 85.4672C72.3731 85.4584 72.3934 85.4539 72.414 85.4539C72.4346 85.4539 72.455 85.4584 72.4735 85.4672L73.6287 87.572C73.0111 89.1044 71.9395 90.4225 70.5507 91.3582C69.1618 92.2939 67.5187 92.8048 65.831 92.8256Z" fill="#F492D8"/>
<path d="M61.7183 77.2304L61.8712 79.1363C60.9508 79.7633 60.204 80.6029 59.6974 81.5801C59.1908 82.5574 58.9403 83.6419 58.9683 84.7366C58.9962 85.8314 59.3017 86.9024 59.8576 87.8538C60.4134 88.8053 61.2021 89.6076 62.1534 90.1891C63.1047 90.7705 64.1888 91.1131 65.3088 91.186C66.4289 91.259 67.5501 91.0601 68.5721 90.6072C69.5942 90.1543 70.4853 89.4614 71.1659 88.5905C71.8464 87.7196 72.2952 86.6977 72.4721 85.6163L73.6273 87.7211C73.1011 88.9412 72.2831 90.0205 71.2415 90.8688C70.1999 91.7171 68.9651 92.3097 67.6406 92.5969C66.3161 92.884 64.9403 92.8575 63.6284 92.5195C62.3166 92.1815 61.1068 91.5418 60.1004 90.654C59.094 89.7662 58.3203 88.6561 57.844 87.4167C57.3677 86.1772 57.2027 84.8445 57.3628 83.5301C57.5228 82.2157 58.0034 80.9578 58.7641 79.8618C59.5249 78.7658 60.5437 77.8635 61.7353 77.2304H61.7183ZM61.7353 76.9818C61.6914 76.9667 61.6434 76.9667 61.5994 76.9818C60.3917 77.6408 59.3622 78.5709 58.5961 79.695C57.83 80.8192 57.3494 82.1052 57.1939 83.4466C57.0384 84.788 57.2126 86.1462 57.702 87.4089C58.1914 88.6715 58.982 89.8024 60.0083 90.7078C61.0347 91.6132 62.2673 92.2672 63.6042 92.6157C64.9411 92.9641 66.3438 92.997 67.6963 92.7116C69.0488 92.4262 70.3123 91.8307 71.382 90.9744C72.4518 90.1181 73.2971 89.0256 73.8482 87.7874C73.8647 87.7537 73.8733 87.7169 73.8733 87.6796C73.8733 87.6423 73.8647 87.6055 73.8482 87.5719L72.6929 85.4672C72.6649 85.438 72.6305 85.4154 72.5922 85.401C72.554 85.3867 72.5129 85.381 72.4721 85.3843C72.4215 85.3935 72.3749 85.4174 72.3386 85.4529C72.3022 85.4884 72.2777 85.5338 72.2682 85.5832C72.0777 86.597 71.6355 87.55 70.9805 88.3588C70.3255 89.1676 69.4774 89.8077 68.5104 90.2231C67.5434 90.6385 66.4868 90.8167 65.433 90.7421C64.3791 90.6674 63.36 90.3422 62.4647 89.7949C61.5693 89.2475 60.8249 88.4946 60.2965 87.602C59.7682 86.7094 59.4718 85.7041 59.4334 84.674C59.395 83.6439 59.6156 82.6203 60.0761 81.6926C60.5366 80.7648 61.2229 79.9612 62.0751 79.3518C62.1081 79.326 62.1345 79.2932 62.1522 79.2558C62.1698 79.2184 62.1784 79.1775 62.177 79.1363L62.0241 77.2304C62.0205 77.1888 62.006 77.1488 61.9823 77.114C61.9585 77.0792 61.9262 77.0509 61.8882 77.0315C61.8497 77.0189 61.8079 77.0189 61.7693 77.0315L61.7353 76.9818Z" fill="#F492D8"/>
<path d="M65.831 92.8256C63.9223 92.8311 62.0661 92.2167 60.5549 91.0794C59.0437 89.942 57.9634 88.3464 57.4845 86.544C57.0056 84.7416 57.1552 82.8349 57.9097 81.1246C58.6642 79.4143 59.9808 77.9976 61.6518 77.0979H61.7707C61.784 77.1298 61.784 77.1654 61.7707 77.1973L61.9236 79.1032C61.0744 79.7268 60.3831 80.5322 59.9031 81.4574C59.423 82.3825 59.1669 83.4028 59.1545 84.4397C59.1767 86.0362 59.8054 87.5679 60.9189 88.7381C62.0324 89.9084 63.5514 90.6339 65.1818 90.7742C66.8122 90.9144 68.438 90.4595 69.7442 89.4975C71.0505 88.5354 71.9443 87.1347 72.2526 85.5667C72.2599 85.5432 72.2731 85.5218 72.2909 85.5045C72.3086 85.4871 72.3305 85.4743 72.3546 85.4672C72.3731 85.4584 72.3934 85.4539 72.414 85.4539C72.4346 85.4539 72.455 85.4584 72.4735 85.4672L73.6287 87.572C73.0111 89.1044 71.9395 90.4225 70.5507 91.3582C69.1618 92.2939 67.5187 92.8048 65.831 92.8256Z" fill="#F492D8"/>
<path d="M61.7183 77.2304L61.8712 79.1363C60.9508 79.7633 60.204 80.6029 59.6974 81.5801C59.1908 82.5574 58.9403 83.6419 58.9683 84.7366C58.9962 85.8314 59.3017 86.9024 59.8576 87.8538C60.4134 88.8053 61.2021 89.6076 62.1534 90.1891C63.1047 90.7705 64.1888 91.1131 65.3088 91.186C66.4289 91.259 67.5501 91.0601 68.5721 90.6072C69.5942 90.1543 70.4853 89.4614 71.1659 88.5905C71.8464 87.7196 72.2952 86.6977 72.4721 85.6163L73.6273 87.7211C73.1011 88.9412 72.2831 90.0205 71.2415 90.8688C70.1999 91.7171 68.9651 92.3097 67.6406 92.5969C66.3161 92.884 64.9403 92.8575 63.6284 92.5195C62.3166 92.1815 61.1068 91.5418 60.1004 90.654C59.094 89.7662 58.3203 88.6561 57.844 87.4167C57.3677 86.1772 57.2027 84.8445 57.3628 83.5301C57.5228 82.2157 58.0034 80.9578 58.7641 79.8618C59.5249 78.7658 60.5437 77.8635 61.7353 77.2304H61.7183ZM61.7353 76.9818C61.6914 76.9667 61.6434 76.9667 61.5994 76.9818C60.3917 77.6408 59.3622 78.5709 58.5961 79.695C57.83 80.8192 57.3494 82.1052 57.1939 83.4466C57.0384 84.788 57.2126 86.1462 57.702 87.4089C58.1914 88.6715 58.982 89.8024 60.0083 90.7078C61.0347 91.6132 62.2673 92.2672 63.6042 92.6157C64.9411 92.9641 66.3438 92.997 67.6963 92.7116C69.0488 92.4262 70.3123 91.8307 71.382 90.9744C72.4518 90.1181 73.2971 89.0256 73.8482 87.7874C73.8647 87.7537 73.8733 87.7169 73.8733 87.6796C73.8733 87.6423 73.8647 87.6055 73.8482 87.5719L72.6929 85.4672C72.6649 85.438 72.6305 85.4154 72.5922 85.401C72.554 85.3867 72.5129 85.381 72.4721 85.3843C72.4215 85.3935 72.3749 85.4174 72.3386 85.4529C72.3022 85.4884 72.2777 85.5338 72.2682 85.5832C72.0777 86.597 71.6355 87.55 70.9805 88.3588C70.3255 89.1676 69.4774 89.8077 68.5104 90.2231C67.5434 90.6385 66.4868 90.8167 65.433 90.7421C64.3791 90.6674 63.36 90.3422 62.4647 89.7949C61.5693 89.2475 60.8249 88.4946 60.2965 87.602C59.7682 86.7094 59.4718 85.7041 59.4334 84.674C59.395 83.6439 59.6156 82.6203 60.0761 81.6926C60.5366 80.7648 61.2229 79.9612 62.0751 79.3518C62.1081 79.326 62.1345 79.2932 62.1522 79.2558C62.1698 79.2184 62.1784 79.1775 62.177 79.1363L62.0241 77.2304C62.0205 77.1888 62.006 77.1488 61.9823 77.114C61.9585 77.0792 61.9262 77.0509 61.8882 77.0315C61.8497 77.0189 61.8079 77.0189 61.7693 77.0315L61.7353 76.9818Z" fill="#F492D8"/>
<path fill-rule="evenodd" clip-rule="evenodd" d="M75.8689 90.1075H75.7839L72.2163 82.0697L63.6201 82.3348C63.5886 82.3348 63.5584 82.3226 63.536 82.3009C63.5137 82.2791 63.5012 82.2496 63.5012 82.2188L62.1251 71.2807V70.8001L61.8193 69.9549V69.0434L62.0912 68.2313L62.6348 67.6015L63.3483 67.2701L64.0958 67.1541L64.9622 67.2701L65.5908 67.6512L66.0325 68.3142L66.3213 69.0765V69.7726L66.1684 70.3692L65.8456 70.8664L65.37 71.2476L64.8433 71.4962H64.4865L65.0811 76.2857L71.0441 76.1366C71.0441 76.1366 71.163 76.1366 71.18 76.2691V78.1087C71.18 78.1395 71.1675 78.169 71.1452 78.1908C71.1229 78.2125 71.0926 78.2248 71.0611 78.2248L65.336 78.4899L65.4889 80.1472L73.6943 79.8655L76.8712 87.2238L79.7592 86.0306H79.8612C79.8684 86.0578 79.8684 86.0863 79.8612 86.1135L80.6086 87.9033C80.6199 87.9141 80.6289 87.927 80.6351 87.9413C80.6412 87.9555 80.6443 87.9708 80.6443 87.9862C80.6443 88.0016 80.6412 88.0169 80.6351 88.0311C80.6289 88.0454 80.6199 88.0583 80.6086 88.0691L75.8689 90.0909V90.1075Z" fill="#DB7028"/>
<path d="M64.096 67.2701L64.9284 67.3861L65.506 67.7673L65.9138 68.3805L66.1856 69.1097V69.7726L66.0327 70.3361L65.7269 70.8001L65.2682 71.1647L64.7755 71.3802H64.3339L64.9284 76.352H71.0273V78.1916L65.1493 78.4568L65.3531 80.313L73.6605 80.0312L76.7694 87.4227L79.7764 86.1798L80.5239 87.9862L75.8691 89.9915L72.3354 82.0697L63.6203 82.252L62.2612 71.3139V70.8001L61.9385 69.9217V69.0434L62.2103 68.2645L62.7369 67.6844L63.4165 67.3861L64.113 67.2701H64.096ZM64.113 67.0215L63.3995 67.1375L62.7369 67.4358H62.635L62.1253 68.0159L61.8535 68.7948V69.6732L62.1593 70.5184V70.9161L63.5184 81.8708C63.5205 81.9013 63.5288 81.9311 63.5428 81.9584C63.5568 81.9858 63.5762 82.0102 63.5999 82.0302C63.6236 82.0502 63.6511 82.0655 63.6808 82.0751C63.7106 82.0847 63.742 82.0885 63.7732 82.0863L72.2675 81.904L75.6652 89.7595C75.7038 89.8157 75.7564 89.8613 75.8181 89.8921H75.92L80.6938 87.8536C80.7248 87.8428 80.7531 87.8258 80.777 87.8037C80.8009 87.7816 80.8199 87.7549 80.8326 87.7253C80.8454 87.6957 80.8517 87.6638 80.8512 87.6317C80.8507 87.5996 80.8434 87.568 80.8297 87.5387L80.0822 85.7323C80.0822 85.7323 80.0822 85.6163 79.9463 85.5997H79.8444H79.7424L76.9733 86.7267L73.9663 79.5672C73.9431 79.5245 73.9091 79.4884 73.8674 79.4623C73.8258 79.4361 73.7779 79.4209 73.7285 79.418L65.659 79.6832L65.523 78.3242L71.1123 78.0756C71.1472 78.0757 71.1818 78.0688 71.2139 78.0552C71.246 78.0417 71.2748 78.0219 71.2987 77.997C71.3226 77.9722 71.341 77.9428 71.3528 77.9107C71.3646 77.8786 71.3694 77.8445 71.3671 77.8104V75.9709C71.3628 75.9078 71.334 75.8488 71.2867 75.8057C71.2394 75.7626 71.177 75.7387 71.1123 75.7388H65.2342L64.7076 71.2973H64.9624L65.4721 71.0653L65.9138 70.7172L66.2196 70.2532L66.3725 69.7063V69.0434L66.1006 68.3142L65.6759 67.6347H65.591L65.0134 67.2535H64.9115L64.079 67.1375L64.113 67.0215Z" fill="#DB7028"/>
<path fill-rule="evenodd" clip-rule="evenodd" d="M75.8689 90.1075H75.7839L72.2163 82.0697L63.6201 82.3348C63.5886 82.3348 63.5584 82.3226 63.536 82.3009C63.5137 82.2791 63.5012 82.2496 63.5012 82.2188L62.1251 71.2807V70.8001L61.8193 69.9549V69.0434L62.0912 68.2313L62.6348 67.6015L63.3483 67.2701L64.0958 67.1541L64.9622 67.2701L65.5908 67.6512L66.0325 68.3142L66.3213 69.0765V69.7726L66.1684 70.3692L65.8456 70.8664L65.37 71.2476L64.8433 71.4962H64.4865L65.0811 76.2857L71.0441 76.1366C71.0441 76.1366 71.163 76.1366 71.18 76.2691V78.1087C71.18 78.1395 71.1675 78.169 71.1452 78.1908C71.1229 78.2125 71.0926 78.2248 71.0611 78.2248L65.336 78.4899L65.4889 80.1472L73.6943 79.8655L76.8712 87.2238L79.7592 86.0306H79.8612C79.8684 86.0578 79.8684 86.0863 79.8612 86.1135L80.6086 87.9033C80.6199 87.9141 80.6289 87.927 80.6351 87.9413C80.6412 87.9555 80.6443 87.9708 80.6443 87.9862C80.6443 88.0016 80.6412 88.0169 80.6351 88.0311C80.6289 88.0454 80.6199 88.0583 80.6086 88.0691L75.8689 90.0909V90.1075Z" fill="#DB7028"/>
<path d="M64.096 67.2701L64.9284 67.3861L65.506 67.7673L65.9138 68.3805L66.1856 69.1097V69.7726L66.0327 70.3361L65.7269 70.8001L65.2682 71.1647L64.7755 71.3802H64.3339L64.9284 76.352H71.0273V78.1916L65.1493 78.4568L65.3531 80.313L73.6605 80.0312L76.7694 87.4227L79.7764 86.1798L80.5239 87.9862L75.8691 89.9915L72.3354 82.0697L63.6203 82.252L62.2612 71.3139V70.8001L61.9385 69.9217V69.0434L62.2103 68.2645L62.7369 67.6844L63.4165 67.3861L64.113 67.2701H64.096ZM64.113 67.0215L63.3995 67.1375L62.7369 67.4358H62.635L62.1253 68.0159L61.8535 68.7948V69.6732L62.1593 70.5184V70.9161L63.5184 81.8708C63.5205 81.9013 63.5288 81.9311 63.5428 81.9584C63.5568 81.9858 63.5762 82.0102 63.5999 82.0302C63.6236 82.0502 63.6511 82.0655 63.6808 82.0751C63.7106 82.0847 63.742 82.0885 63.7732 82.0863L72.2675 81.904L75.6652 89.7595C75.7038 89.8157 75.7564 89.8613 75.8181 89.8921H75.92L80.6938 87.8536C80.7248 87.8428 80.7531 87.8258 80.777 87.8037C80.8009 87.7816 80.8199 87.7549 80.8326 87.7253C80.8454 87.6957 80.8517 87.6638 80.8512 87.6317C80.8507 87.5996 80.8434 87.568 80.8297 87.5387L80.0822 85.7323C80.0822 85.7323 80.0822 85.6163 79.9463 85.5997H79.8444H79.7424L76.9733 86.7267L73.9663 79.5672C73.9431 79.5245 73.9091 79.4884 73.8674 79.4623C73.8258 79.4361 73.7779 79.4209 73.7285 79.418L65.659 79.6832L65.523 78.3242L71.1123 78.0756C71.1472 78.0757 71.1818 78.0688 71.2139 78.0552C71.246 78.0417 71.2748 78.0219 71.2987 77.997C71.3226 77.9722 71.341 77.9428 71.3528 77.9107C71.3646 77.8786 71.3694 77.8445 71.3671 77.8104V75.9709C71.3628 75.9078 71.334 75.8488 71.2867 75.8057C71.2394 75.7626 71.177 75.7387 71.1123 75.7388H65.2342L64.7076 71.2973H64.9624L65.4721 71.0653L65.9138 70.7172L66.2196 70.2532L66.3725 69.7063V69.0434L66.1006 68.3142L65.6759 67.6347H65.591L65.0134 67.2535H64.9115L64.079 67.1375L64.113 67.0215Z" fill="#DB7028"/>
<path d="M115.878 67.2535C115.875 66.8235 116.002 66.4021 116.245 66.0429C116.487 65.6837 116.834 65.4028 117.24 65.236C117.646 65.0691 118.094 65.0237 118.527 65.1056C118.96 65.1875 119.358 65.393 119.671 65.6959C119.984 65.9989 120.198 66.3857 120.285 66.8073C120.372 67.2289 120.329 67.6662 120.161 68.0639C119.993 68.4616 119.708 68.8016 119.342 69.0409C118.975 69.2802 118.544 69.408 118.103 69.408C117.516 69.408 116.953 69.1816 116.536 68.778C116.119 68.3744 115.882 67.8265 115.878 67.2535Z" fill="#DB7028" stroke="#DB7028" stroke-width="0.25" stroke-miterlimit="10"/>
<path d="M115.878 67.2535C115.875 66.8235 116.002 66.4021 116.245 66.0429C116.487 65.6837 116.834 65.4028 117.24 65.236C117.646 65.0691 118.094 65.0237 118.527 65.1056C118.96 65.1875 119.358 65.393 119.671 65.6959C119.984 65.9989 120.198 66.3857 120.285 66.8073C120.372 67.2289 120.329 67.6662 120.161 68.0639C119.993 68.4616 119.708 68.8016 119.342 69.0409C118.975 69.2802 118.544 69.408 118.103 69.408C117.516 69.408 116.953 69.1816 116.536 68.778C116.119 68.3744 115.882 67.8265 115.878 67.2535Z" fill="#DB7028" stroke="#DB7028" stroke-width="0.25" stroke-linejoin="round"/>
<path d="M128.45 70.7505H107.639V71.7614H128.45V70.7505Z" fill="#D8600E" stroke="#DB7028" stroke-width="0.75" stroke-linejoin="round"/>
<path d="M120.618 71.7615H115.606V79.9816H120.618V71.7615Z" fill="#DB7028" stroke="#DB7028" stroke-width="0.75" stroke-linejoin="round"/>
<path d="M115.607 72.9524L115.441 90.4194L116.477 90.4288L116.643 72.9617L115.607 72.9524Z" fill="#D8600E" stroke="#DB7028" stroke-width="0.75" stroke-linecap="round" stroke-linejoin="round"/>
<path d="M120.564 72.7649L119.528 72.7664L119.553 90.6485L120.59 90.6471L120.564 72.7649Z" fill="#D8600E" stroke="#DB7028" stroke-width="0.75" stroke-linecap="round" stroke-linejoin="round"/>
<path d="M115.724 83.4121H116.828V85.9809H115.214V83.4121H115.724Z" fill="#F492D8" stroke="#F492D8" stroke-width="0.75" stroke-linejoin="round"/>
<path d="M170.138 72.2585C170.138 71.8291 170.268 71.4093 170.513 71.0523C170.757 70.6953 171.105 70.417 171.512 70.2527C171.918 70.0883 172.366 70.0453 172.797 70.1291C173.229 70.2129 173.626 70.4197 173.937 70.7233C174.248 71.0269 174.46 71.4138 174.546 71.8349C174.632 72.256 174.588 72.6926 174.419 73.0893C174.251 73.486 173.966 73.8251 173.6 74.0636C173.234 74.3022 172.803 74.4295 172.363 74.4295C172.07 74.4317 171.78 74.3771 171.509 74.2687C171.238 74.1604 170.992 74.0006 170.785 73.7985C170.577 73.5965 170.414 73.3563 170.303 73.0919C170.192 72.8275 170.135 72.5442 170.138 72.2585Z" fill="#DB7028" stroke="#DB7028" stroke-width="0.15" stroke-miterlimit="10"/>
<path d="M170.138 72.2585C170.138 71.8291 170.268 71.4093 170.513 71.0523C170.757 70.6953 171.105 70.417 171.512 70.2527C171.918 70.0883 172.366 70.0453 172.797 70.1291C173.229 70.2129 173.626 70.4197 173.937 70.7233C174.248 71.0269 174.46 71.4138 174.546 71.8349C174.632 72.256 174.588 72.6926 174.419 73.0893C174.251 73.486 173.966 73.8251 173.6 74.0636C173.234 74.3022 172.803 74.4295 172.363 74.4295C172.07 74.4317 171.78 74.3771 171.509 74.2687C171.238 74.1604 170.992 74.0006 170.785 73.7985C170.577 73.5965 170.414 73.3563 170.303 73.0919C170.192 72.8275 170.135 72.5442 170.138 72.2585Z" fill="#DB7028" stroke="#DB7028" stroke-width="0.15" stroke-linejoin="round"/>
<path d="M159.504 78.7552L163.769 74.496L169.188 74.4131L173.333 78.3409L176.782 74.8937" stroke="#DB7028" stroke-width="1.5" stroke-linecap="round" stroke-linejoin="round"/>
<path d="M166.997 74.4463L161.526 80.1142L164.143 82.683L170.14 76.4847L170.53 76.0704L168.848 74.4297L166.997 74.4463Z" fill="#DB7028" stroke="#DB7028" stroke-width="0.6" stroke-linejoin="round"/>
<path d="M152.399 83.5573L159.347 83.4579L161.199 81.6017L161.963 80.8394" stroke="#DB7028" stroke-width="2" stroke-linecap="round" stroke-linejoin="round"/>
<path d="M164.866 81.9448L167.133 83.9148L166.096 89.684" stroke="#DB7028" stroke-width="2" stroke-linecap="round" stroke-linejoin="round"/>
<path d="M40.5137 92.9749L51.2844 97.549L57.0605 103.598L68.9865 103.084L75.1703 108.255L82.4244 104.758" stroke="#FCB854" stroke-width="1.2" stroke-miterlimit="10"/>
<path d="M38.7838 92.5437C38.8799 92.2361 39.0657 91.9624 39.3185 91.756C39.5713 91.5496 39.8801 91.4194 40.2075 91.3813C40.5348 91.3432 40.8664 91.3988 41.1619 91.5414C41.4574 91.6839 41.704 91.9073 41.8716 92.1842C42.0392 92.4611 42.1207 92.7796 42.106 93.1009C42.0912 93.4221 41.9811 93.7323 41.7888 93.9935C41.5965 94.2547 41.3305 94.4557 41.0232 94.572C40.7158 94.6883 40.3804 94.7149 40.0579 94.6485C39.8273 94.601 39.6094 94.5072 39.418 94.3732C39.2266 94.2391 39.0658 94.0676 38.946 93.8696C38.8262 93.6717 38.7499 93.4516 38.7219 93.2233C38.694 92.995 38.7151 92.7636 38.7838 92.5437Z" fill="#C1E0DF"/>
<path d="M38.7838 92.5437C38.8799 92.2361 39.0657 91.9624 39.3185 91.756C39.5713 91.5496 39.8801 91.4194 40.2075 91.3813C40.5348 91.3432 40.8664 91.3988 41.1619 91.5414C41.4574 91.6839 41.704 91.9073 41.8716 92.1842C42.0392 92.4611 42.1207 92.7796 42.106 93.1009C42.0912 93.4221 41.9811 93.7323 41.7888 93.9935C41.5965 94.2547 41.3305 94.4557 41.0232 94.572C40.7158 94.6883 40.3804 94.7149 40.0579 94.6485C39.8273 94.601 39.6094 94.5072 39.418 94.3732C39.2266 94.2391 39.0658 94.0676 38.946 93.8696C38.8262 93.6717 38.7499 93.4516 38.7219 93.2233C38.694 92.995 38.7151 92.7636 38.7838 92.5437Z" fill="#C1E0DF"/>
<path d="M49.5711 97.1015C49.6927 96.6619 49.9884 96.2875 50.393 96.0606C50.7976 95.8337 51.2781 95.7729 51.7286 95.8916C52.1792 96.0103 52.563 96.2987 52.7956 96.6935C53.0281 97.0882 53.0905 97.5569 52.9688 97.9964C52.9086 98.214 52.805 98.418 52.6639 98.5965C52.5229 98.7751 52.3472 98.9249 52.1469 99.0372C51.9465 99.1495 51.7254 99.2223 51.4963 99.2513C51.2671 99.2803 51.0343 99.265 50.8112 99.2062C50.5882 99.1474 50.3791 99.0464 50.196 98.9088C50.013 98.7712 49.8595 98.5998 49.7443 98.4044C49.6292 98.2089 49.5546 97.9933 49.5249 97.7697C49.4951 97.5462 49.5109 97.3191 49.5711 97.1015Z" fill="#C1E0DF"/>
<path d="M49.5711 97.1015C49.6927 96.6619 49.9884 96.2875 50.393 96.0606C50.7976 95.8337 51.2781 95.7729 51.7286 95.8916C52.1792 96.0103 52.563 96.2987 52.7956 96.6935C53.0281 97.0882 53.0905 97.5569 52.9688 97.9964C52.9086 98.214 52.805 98.418 52.6639 98.5965C52.5229 98.7751 52.3472 98.9249 52.1469 99.0372C51.9465 99.1495 51.7254 99.2223 51.4963 99.2513C51.2671 99.2803 51.0343 99.265 50.8112 99.2062C50.5882 99.1474 50.3791 99.0464 50.196 98.9088C50.013 98.7712 49.8595 98.5998 49.7443 98.4044C49.6292 98.2089 49.5546 97.9933 49.5249 97.7697C49.4951 97.5462 49.5109 97.3191 49.5711 97.1015Z" fill="#C1E0DF"/>
<path d="M55.3498 103.167C55.4467 102.859 55.6335 102.585 55.8874 102.379C56.1413 102.173 56.4511 102.044 56.7792 102.007C57.1072 101.97 57.4391 102.028 57.7344 102.172C58.0296 102.316 58.2754 102.541 58.4416 102.819C58.6079 103.098 58.6873 103.417 58.6704 103.739C58.6534 104.061 58.5407 104.37 58.346 104.631C58.1514 104.891 57.8833 105.09 57.5744 105.204C57.2655 105.318 56.9293 105.341 56.6069 105.272C56.3779 105.222 56.1618 105.127 55.9723 104.992C55.7828 104.857 55.624 104.686 55.5059 104.488C55.3878 104.29 55.313 104.071 55.2861 103.843C55.2592 103.616 55.2809 103.386 55.3498 103.167Z" fill="#C1E0DF"/>
<path d="M55.3498 103.167C55.4467 102.859 55.6335 102.585 55.8874 102.379C56.1413 102.173 56.4511 102.044 56.7792 102.007C57.1072 101.97 57.4391 102.028 57.7344 102.172C58.0296 102.316 58.2754 102.541 58.4416 102.819C58.6079 103.098 58.6873 103.417 58.6704 103.739C58.6534 104.061 58.5407 104.37 58.346 104.631C58.1514 104.891 57.8833 105.09 57.5744 105.204C57.2655 105.318 56.9293 105.341 56.6069 105.272C56.3779 105.222 56.1618 105.127 55.9723 104.992C55.7828 104.857 55.624 104.686 55.5059 104.488C55.3878 104.29 55.313 104.071 55.2861 103.843C55.2592 103.616 55.2809 103.386 55.3498 103.167Z" fill="#C1E0DF"/>
<path d="M80.7088 104.31C80.8085 104.004 80.9973 103.733 81.2521 103.53C81.507 103.326 81.817 103.2 82.1443 103.165C82.4717 103.13 82.8023 103.189 83.096 103.334C83.3896 103.48 83.6337 103.705 83.7985 103.983C83.9633 104.261 84.0417 104.58 84.0242 104.901C84.0067 105.221 83.894 105.53 83.6998 105.79C83.5057 106.049 83.2384 106.248 82.9306 106.362C82.6228 106.476 82.2876 106.5 81.9659 106.432C81.7349 106.383 81.517 106.287 81.326 106.151C81.1351 106.015 80.9753 105.842 80.857 105.642C80.7387 105.442 80.6644 105.221 80.6388 104.992C80.6133 104.762 80.6371 104.53 80.7088 104.31Z" fill="#C1E0DF"/>
<path d="M80.7088 104.31C80.8085 104.004 80.9973 103.733 81.2521 103.53C81.507 103.326 81.817 103.2 82.1443 103.165C82.4717 103.13 82.8023 103.189 83.096 103.334C83.3896 103.48 83.6337 103.705 83.7985 103.983C83.9633 104.261 84.0417 104.58 84.0242 104.901C84.0067 105.221 83.894 105.53 83.6998 105.79C83.5057 106.049 83.2384 106.248 82.9306 106.362C82.6228 106.476 82.2876 106.5 81.9659 106.432C81.7349 106.383 81.517 106.287 81.326 106.151C81.1351 106.015 80.9753 105.842 80.857 105.642C80.7387 105.442 80.6644 105.221 80.6388 104.992C80.6133 104.762 80.6371 104.53 80.7088 104.31Z" fill="#C1E0DF"/>
<path d="M73.4558 107.824C73.5556 107.518 73.7444 107.247 73.9992 107.043C74.2541 106.84 74.564 106.713 74.8914 106.678C75.2187 106.644 75.5493 106.703 75.843 106.848C76.1367 106.993 76.3808 107.218 76.5456 107.497C76.7104 107.775 76.7888 108.093 76.7713 108.414C76.7538 108.735 76.6411 109.044 76.4469 109.303C76.2528 109.563 75.9855 109.761 75.6777 109.875C75.3698 109.989 75.0347 110.014 74.713 109.945C74.482 109.896 74.264 109.801 74.0731 109.665C73.8821 109.529 73.7224 109.355 73.6041 109.155C73.4857 108.956 73.4114 108.734 73.3859 108.505C73.3604 108.276 73.3842 108.044 73.4558 107.824Z" fill="#C1E0DF"/>
<path d="M73.4558 107.824C73.5556 107.518 73.7444 107.247 73.9992 107.043C74.2541 106.84 74.564 106.713 74.8914 106.678C75.2187 106.644 75.5493 106.703 75.843 106.848C76.1367 106.993 76.3808 107.218 76.5456 107.497C76.7104 107.775 76.7888 108.093 76.7713 108.414C76.7538 108.735 76.6411 109.044 76.4469 109.303C76.2528 109.563 75.9855 109.761 75.6777 109.875C75.3698 109.989 75.0347 110.014 74.713 109.945C74.482 109.896 74.264 109.801 74.0731 109.665C73.8821 109.529 73.7224 109.355 73.6041 109.155C73.4857 108.956 73.4114 108.734 73.3859 108.505C73.3604 108.276 73.3842 108.044 73.4558 107.824Z" fill="#C1E0DF"/>
<path d="M67.2739 102.637C67.3736 102.331 67.5624 102.059 67.8173 101.856C68.0722 101.653 68.3821 101.526 68.7094 101.491C69.0368 101.456 69.3674 101.515 69.6611 101.661C69.9548 101.806 70.1988 102.031 70.3636 102.309C70.5284 102.587 70.6068 102.906 70.5893 103.227C70.5718 103.548 70.4591 103.857 70.265 104.116C70.0708 104.375 69.8036 104.574 69.4957 104.688C69.1879 104.802 68.8527 104.826 68.531 104.758C68.0771 104.638 67.6903 104.347 67.4548 103.95C67.2194 103.552 67.1543 103.081 67.2739 102.637Z" fill="#C1E0DF"/>
<path d="M67.2739 102.637C67.3736 102.331 67.5624 102.059 67.8173 101.856C68.0722 101.653 68.3821 101.526 68.7094 101.491C69.0368 101.456 69.3674 101.515 69.6611 101.661C69.9548 101.806 70.1988 102.031 70.3636 102.309C70.5284 102.587 70.6068 102.906 70.5893 103.227C70.5718 103.548 70.4591 103.857 70.265 104.116C70.0708 104.375 69.8036 104.574 69.4957 104.688C69.1879 104.802 68.8527 104.826 68.531 104.758C68.0771 104.638 67.6903 104.347 67.4548 103.95C67.2194 103.552 67.1543 103.081 67.2739 102.637Z" fill="#C1E0DF"/>
<path d="M123.812 56.9948L133.088 52.1721L142.755 58.1052L156.77 55.1055L168.39 63.6571" stroke="#F9C5F9" stroke-width="1.2" stroke-miterlimit="10"/>
<path d="M121.62 56.6139C121.649 56.3148 121.741 56.0248 121.89 55.7622C122.04 55.4996 122.244 55.2702 122.489 55.0884C122.734 54.9065 123.015 54.7763 123.314 54.7059C123.614 54.6356 123.925 54.6265 124.228 54.6795C124.531 54.7324 124.82 54.8461 125.075 55.0134C125.331 55.1807 125.548 55.398 125.714 55.6514C125.879 55.9049 125.989 56.1891 126.035 56.486C126.082 56.7829 126.066 57.086 125.986 57.3763C125.842 57.9023 125.501 58.3563 125.03 58.6485C124.559 58.9407 123.993 59.0496 123.444 58.9536C122.894 58.8577 122.402 58.564 122.064 58.1306C121.727 57.6973 121.568 57.1559 121.62 56.6139Z" fill="#D7F4F4"/>
<path d="M121.62 56.6139C121.649 56.3148 121.741 56.0248 121.89 55.7622C122.04 55.4996 122.244 55.2702 122.489 55.0884C122.734 54.9065 123.015 54.7763 123.314 54.7059C123.614 54.6356 123.925 54.6265 124.228 54.6795C124.531 54.7324 124.82 54.8461 125.075 55.0134C125.331 55.1807 125.548 55.398 125.714 55.6514C125.879 55.9049 125.989 56.1891 126.035 56.486C126.082 56.7829 126.066 57.086 125.986 57.3763C125.842 57.9023 125.501 58.3563 125.03 58.6485C124.559 58.9407 123.993 59.0496 123.444 58.9536C122.894 58.8577 122.402 58.564 122.064 58.1306C121.727 57.6973 121.568 57.1559 121.62 56.6139Z" fill="#D7F4F4"/>
<path d="M130.894 51.7911C131.002 51.2261 131.333 50.7251 131.816 50.3964C132.3 50.0677 132.896 49.9377 133.477 50.0344C133.91 50.1099 134.31 50.309 134.628 50.6065C134.945 50.9041 135.165 51.2867 135.259 51.7061C135.353 52.1254 135.318 52.5627 135.158 52.9625C134.998 53.3624 134.719 53.7069 134.358 53.9524C133.997 54.198 133.57 54.3337 133.13 54.3423C132.69 54.3508 132.257 54.2319 131.886 54.0006C131.515 53.7693 131.223 53.4359 131.047 53.0426C130.87 52.6494 130.817 52.2138 130.894 51.7911Z" fill="#D7F4F4"/>
<path d="M130.894 51.7911C131.002 51.2261 131.333 50.7251 131.816 50.3964C132.3 50.0677 132.896 49.9377 133.477 50.0344C133.91 50.1099 134.31 50.309 134.628 50.6065C134.945 50.9041 135.165 51.2867 135.259 51.7061C135.353 52.1254 135.318 52.5627 135.158 52.9625C134.998 53.3624 134.719 53.7069 134.358 53.9524C133.997 54.198 133.57 54.3337 133.13 54.3423C132.69 54.3508 132.257 54.2319 131.886 54.0006C131.515 53.7693 131.223 53.4359 131.047 53.0426C130.87 52.6494 130.817 52.2138 130.894 51.7911Z" fill="#D7F4F4"/>
<path d="M140.562 57.7242C140.639 57.3016 140.843 56.9108 141.148 56.6013C141.453 56.2917 141.846 56.0774 142.276 55.9853C142.705 55.8933 143.154 55.9276 143.564 56.084C143.973 56.2404 144.327 56.5118 144.578 56.864C144.83 57.2162 144.969 57.6332 144.978 58.0625C144.987 58.4918 144.865 58.9139 144.628 59.2756C144.391 59.6373 144.049 59.9223 143.646 60.0945C143.243 60.2668 142.796 60.3186 142.363 60.2433C142.075 60.1933 141.8 60.0885 141.554 59.9348C141.307 59.7812 141.095 59.5817 140.927 59.3477C140.76 59.1138 140.642 58.85 140.579 58.5714C140.516 58.2929 140.511 58.005 140.562 57.7242Z" fill="#D7F4F4"/>
<path d="M140.562 57.7242C140.639 57.3016 140.843 56.9108 141.148 56.6013C141.453 56.2917 141.846 56.0774 142.276 55.9853C142.705 55.8933 143.154 55.9276 143.564 56.084C143.973 56.2404 144.327 56.5118 144.578 56.864C144.83 57.2162 144.969 57.6332 144.978 58.0625C144.987 58.4918 144.865 58.9139 144.628 59.2756C144.391 59.6373 144.049 59.9223 143.646 60.0945C143.243 60.2668 142.796 60.3186 142.363 60.2433C142.075 60.1933 141.8 60.0885 141.554 59.9348C141.307 59.7812 141.095 59.5817 140.927 59.3477C140.76 59.1138 140.642 58.85 140.579 58.5714C140.516 58.2929 140.511 58.005 140.562 57.7242Z" fill="#D7F4F4"/>
<path d="M154.576 54.7244C154.72 54.1984 155.061 53.7443 155.532 53.4522C156.003 53.16 156.569 53.0511 157.118 53.147C157.667 53.2429 158.16 53.5367 158.498 53.97C158.835 54.4034 158.994 54.9447 158.942 55.4868C158.913 55.7858 158.821 56.0758 158.671 56.3384C158.522 56.601 158.318 56.8305 158.073 57.0123C157.828 57.1941 157.547 57.3243 157.247 57.3947C156.948 57.4651 156.637 57.4741 156.334 57.4212C156.031 57.3683 155.742 57.2545 155.486 57.0872C155.231 56.9199 155.013 56.7027 154.848 56.4492C154.683 56.1957 154.573 55.9116 154.526 55.6147C154.48 55.3178 154.496 55.0146 154.576 54.7244Z" fill="#D7F4F4"/>
<path d="M154.576 54.7244C154.72 54.1984 155.061 53.7443 155.532 53.4522C156.003 53.16 156.569 53.0511 157.118 53.147C157.667 53.2429 158.16 53.5367 158.498 53.97C158.835 54.4034 158.994 54.9447 158.942 55.4868C158.913 55.7858 158.821 56.0758 158.671 56.3384C158.522 56.601 158.318 56.8305 158.073 57.0123C157.828 57.1941 157.547 57.3243 157.247 57.3947C156.948 57.4651 156.637 57.4741 156.334 57.4212C156.031 57.3683 155.742 57.2545 155.486 57.0872C155.231 56.9199 155.013 56.7027 154.848 56.4492C154.683 56.1957 154.573 55.9116 154.526 55.6147C154.48 55.3178 154.496 55.0146 154.576 54.7244Z" fill="#D7F4F4"/>
<path d="M166.198 63.276C166.226 62.9769 166.318 62.6869 166.468 62.4243C166.618 62.1617 166.821 61.9323 167.066 61.7505C167.312 61.5686 167.593 61.4384 167.892 61.368C168.191 61.2977 168.502 61.2887 168.806 61.3416C169.109 61.3945 169.397 61.5082 169.653 61.6755C169.909 61.8428 170.126 62.0601 170.291 62.3136C170.457 62.567 170.566 62.8512 170.613 63.1481C170.66 63.445 170.643 63.7481 170.564 64.0384C170.42 64.5644 170.079 65.0184 169.608 65.3106C169.137 65.6028 168.571 65.7117 168.021 65.6158C167.472 65.5198 166.98 65.2261 166.642 64.7927C166.304 64.3594 166.146 63.818 166.198 63.276Z" fill="#D7F4F4"/>
<path d="M166.198 63.276C166.226 62.9769 166.318 62.6869 166.468 62.4243C166.618 62.1617 166.821 61.9323 167.066 61.7505C167.312 61.5686 167.593 61.4384 167.892 61.368C168.191 61.2977 168.502 61.2887 168.806 61.3416C169.109 61.3945 169.397 61.5082 169.653 61.6755C169.909 61.8428 170.126 62.0601 170.291 62.3136C170.457 62.567 170.566 62.8512 170.613 63.1481C170.66 63.445 170.643 63.7481 170.564 64.0384C170.42 64.5644 170.079 65.0184 169.608 65.3106C169.137 65.6028 168.571 65.7117 168.021 65.6158C167.472 65.5198 166.98 65.2261 166.642 64.7927C166.304 64.3594 166.146 63.818 166.198 63.276Z" fill="#D7F4F4"/>
<path d="M119.104 104.294C119.101 103.864 119.228 103.443 119.471 103.083C119.713 102.724 120.06 102.443 120.466 102.277C120.872 102.11 121.32 102.064 121.753 102.146C122.186 102.228 122.584 102.434 122.897 102.736C123.21 103.039 123.424 103.426 123.511 103.848C123.598 104.269 123.555 104.707 123.387 105.104C123.219 105.502 122.934 105.842 122.568 106.081C122.201 106.321 121.77 106.449 121.33 106.449C120.742 106.449 120.179 106.222 119.762 105.819C119.345 105.415 119.109 104.867 119.104 104.294Z" fill="#F7BA77"/>
<path d="M119.104 104.294C119.101 103.864 119.228 103.443 119.471 103.083C119.713 102.724 120.06 102.443 120.466 102.277C120.872 102.11 121.32 102.064 121.753 102.146C122.186 102.228 122.584 102.434 122.897 102.736C123.21 103.039 123.424 103.426 123.511 103.848C123.598 104.269 123.555 104.707 123.387 105.104C123.219 105.502 122.934 105.842 122.568 106.081C122.201 106.321 121.77 106.449 121.33 106.449C120.742 106.449 120.179 106.222 119.762 105.819C119.345 105.415 119.109 104.867 119.104 104.294Z" fill="#F7BA77"/>
<path d="M129.671 96.5047C129.664 96.0754 129.788 95.6538 130.027 95.2932C130.266 94.9326 130.61 94.6492 131.014 94.4789C131.418 94.3086 131.864 94.259 132.297 94.3363C132.73 94.4136 133.13 94.6145 133.446 94.9134C133.762 95.2124 133.98 95.596 134.072 96.0158C134.165 96.4356 134.127 96.8727 133.965 97.2718C133.803 97.671 133.523 98.0143 133.161 98.2583C132.799 98.5023 132.371 98.636 131.931 98.6426C131.638 98.647 131.348 98.5952 131.076 98.4901C130.805 98.385 130.557 98.2288 130.347 98.0303C130.137 97.8317 129.969 97.5948 129.853 97.3331C129.738 97.0713 129.676 96.7898 129.671 96.5047Z" fill="#F7BA77"/>
<path d="M129.671 96.5047C129.664 96.0754 129.788 95.6538 130.027 95.2932C130.266 94.9326 130.61 94.6492 131.014 94.4789C131.418 94.3086 131.864 94.259 132.297 94.3363C132.73 94.4136 133.13 94.6145 133.446 94.9134C133.762 95.2124 133.98 95.596 134.072 96.0158C134.165 96.4356 134.127 96.8727 133.965 97.2718C133.803 97.671 133.523 98.0143 133.161 98.2583C132.799 98.5023 132.371 98.636 131.931 98.6426C131.638 98.647 131.348 98.5952 131.076 98.4901C130.805 98.385 130.557 98.2288 130.347 98.0303C130.137 97.8317 129.969 97.5948 129.853 97.3331C129.738 97.0713 129.676 96.7898 129.671 96.5047Z" fill="#F7BA77"/>
<path d="M139.27 108.702C139.27 108.273 139.401 107.853 139.645 107.496C139.89 107.139 140.237 106.861 140.644 106.697C141.05 106.532 141.498 106.489 141.93 106.573C142.361 106.657 142.758 106.864 143.069 107.167C143.38 107.471 143.592 107.858 143.678 108.279C143.764 108.7 143.72 109.136 143.552 109.533C143.383 109.93 143.098 110.269 142.732 110.507C142.366 110.746 141.936 110.873 141.496 110.873C140.905 110.873 140.339 110.645 139.922 110.237C139.504 109.83 139.27 109.278 139.27 108.702Z" fill="#F7BA77"/>
<path d="M139.27 108.702C139.27 108.273 139.401 107.853 139.645 107.496C139.89 107.139 140.237 106.861 140.644 106.697C141.05 106.532 141.498 106.489 141.93 106.573C142.361 106.657 142.758 106.864 143.069 107.167C143.38 107.471 143.592 107.858 143.678 108.279C143.764 108.7 143.72 109.136 143.552 109.533C143.383 109.93 143.098 110.269 142.732 110.507C142.366 110.746 141.936 110.873 141.496 110.873C140.905 110.873 140.339 110.645 139.922 110.237C139.504 109.83 139.27 109.278 139.27 108.702Z" fill="#F7BA77"/>
<path d="M144.977 93.4884C144.977 93.0597 145.107 92.6406 145.35 92.2839C145.594 91.9273 145.941 91.649 146.347 91.4842C146.752 91.3194 147.199 91.2755 147.63 91.3579C148.061 91.4403 148.458 91.6455 148.77 91.9474C149.082 92.2494 149.295 92.6347 149.383 93.0548C149.47 93.4748 149.429 93.9108 149.263 94.3078C149.097 94.7048 148.815 95.045 148.451 95.2855C148.087 95.526 147.658 95.6561 147.219 95.6594C146.925 95.6616 146.634 95.6071 146.362 95.4989C146.09 95.3908 145.843 95.2312 145.634 95.0294C145.426 94.8276 145.261 94.5875 145.148 94.3231C145.035 94.0586 144.977 93.7749 144.977 93.4884Z" fill="#F7BA77"/>
<path d="M144.977 93.4884C144.977 93.0597 145.107 92.6406 145.35 92.2839C145.594 91.9273 145.941 91.649 146.347 91.4842C146.752 91.3194 147.199 91.2755 147.63 91.3579C148.061 91.4403 148.458 91.6455 148.77 91.9474C149.082 92.2494 149.295 92.6347 149.383 93.0548C149.47 93.4748 149.429 93.9108 149.263 94.3078C149.097 94.7048 148.815 95.045 148.451 95.2855C148.087 95.526 147.658 95.6561 147.219 95.6594C146.925 95.6616 146.634 95.6071 146.362 95.4989C146.09 95.3908 145.843 95.2312 145.634 95.0294C145.426 94.8276 145.261 94.5875 145.148 94.3231C145.035 94.0586 144.977 93.7749 144.977 93.4884Z" fill="#F7BA77"/>
<path d="M110.459 97.1512C110.455 96.7204 110.583 96.2984 110.827 95.9388C111.07 95.5793 111.417 95.2984 111.825 95.1321C112.232 94.9657 112.681 94.9213 113.114 95.0045C113.547 95.0878 113.945 95.2949 114.258 95.5995C114.57 95.9041 114.782 96.2925 114.868 96.7152C114.953 97.1379 114.907 97.5757 114.737 97.9731C114.566 98.3705 114.278 98.7094 113.91 98.9467C113.541 99.184 113.109 99.3089 112.667 99.3057C112.083 99.3013 111.524 99.0729 111.11 98.6698C110.697 98.2667 110.463 97.7212 110.459 97.1512Z" fill="#F7BA77"/>
<path d="M110.459 97.1512C110.455 96.7204 110.583 96.2984 110.827 95.9388C111.07 95.5793 111.417 95.2984 111.825 95.1321C112.232 94.9657 112.681 94.9213 113.114 95.0045C113.547 95.0878 113.945 95.2949 114.258 95.5995C114.57 95.9041 114.782 96.2925 114.868 96.7152C114.953 97.1379 114.907 97.5757 114.737 97.9731C114.566 98.3705 114.278 98.7094 113.91 98.9467C113.541 99.184 113.109 99.3089 112.667 99.3057C112.083 99.3013 111.524 99.0729 111.11 98.6698C110.697 98.2667 110.463 97.7212 110.459 97.1512Z" fill="#F7BA77"/>
</svg>
