<svg width="230" height="166" viewBox="0 0 230 166" fill="none" xmlns="http://www.w3.org/2000/svg">
<rect y="0.0927734" width="230" height="165.09" rx="6.7" fill="white"/>
<path d="M56.6668 147.629C56.4321 147.821 56.1441 147.965 55.8028 148.061C55.4721 148.157 55.1201 148.205 54.7468 148.205C53.8081 148.205 53.0828 147.959 52.5707 147.469C52.0588 146.978 51.8028 146.263 51.8028 145.325V141.213H50.3948V139.613H51.8028V137.661H53.8028V139.613H56.0908V141.213H53.8028V145.277C53.8028 145.693 53.9041 146.013 54.1068 146.237C54.3094 146.45 54.6028 146.557 54.9868 146.557C55.4348 146.557 55.8081 146.439 56.1068 146.205L56.6668 147.629ZM63.16 139.453C64.2373 139.453 65.1013 139.767 65.752 140.397C66.4027 141.026 66.728 141.959 66.728 143.197V148.093H64.728V143.453C64.728 142.706 64.552 142.146 64.2 141.773C63.848 141.389 63.3467 141.197 62.696 141.197C61.96 141.197 61.3787 141.421 60.952 141.869C60.5253 142.306 60.312 142.941 60.312 143.773V148.093H58.312V136.221H60.312V140.541C60.6427 140.189 61.048 139.922 61.528 139.741C62.0187 139.549 62.5627 139.453 63.16 139.453ZM71.1691 140.797C71.7451 139.901 72.7585 139.453 74.2091 139.453V141.357C74.0385 141.325 73.8838 141.309 73.7451 141.309C72.9665 141.309 72.3585 141.538 71.9211 141.997C71.4838 142.445 71.2651 143.095 71.2651 143.949V148.093H69.2651V139.549H71.1691V140.797ZM75.9058 139.549H77.9058V148.093H75.9058V139.549ZM76.9138 138.141C76.5511 138.141 76.2471 138.029 76.0018 137.805C75.7564 137.57 75.6338 137.282 75.6338 136.941C75.6338 136.599 75.7564 136.317 76.0018 136.093C76.2471 135.858 76.5511 135.741 76.9138 135.741C77.2764 135.741 77.5804 135.853 77.8258 136.077C78.0711 136.29 78.1938 136.562 78.1938 136.893C78.1938 137.245 78.0711 137.543 77.8258 137.789C77.5911 138.023 77.2871 138.141 76.9138 138.141ZM88.5308 139.549L84.8668 148.093H82.8028L79.1387 139.549H81.2188L83.8748 145.885L86.6108 139.549H88.5308ZM97.5784 143.869C97.5784 144.007 97.5677 144.205 97.5464 144.461H90.8424C90.9597 145.09 91.2637 145.591 91.7544 145.965C92.2557 146.327 92.8744 146.509 93.6104 146.509C94.549 146.509 95.3224 146.199 95.9304 145.581L97.0024 146.813C96.6184 147.271 96.133 147.618 95.5464 147.853C94.9597 148.087 94.2984 148.205 93.5624 148.205C92.6237 148.205 91.797 148.018 91.0824 147.645C90.3677 147.271 89.813 146.754 89.4184 146.093C89.0344 145.421 88.8424 144.663 88.8424 143.821C88.8424 142.989 89.029 142.242 89.4024 141.581C89.7864 140.909 90.3144 140.386 90.9864 140.013C91.6584 139.639 92.4157 139.453 93.2584 139.453C94.0904 139.453 94.8317 139.639 95.4824 140.013C96.1437 140.375 96.6557 140.893 97.0184 141.565C97.3917 142.226 97.5784 142.994 97.5784 143.869ZM93.2584 141.053C92.6184 141.053 92.0744 141.245 91.6264 141.629C91.189 142.002 90.9224 142.503 90.8264 143.133H95.6744C95.589 142.514 95.3277 142.013 94.8904 141.629C94.453 141.245 93.909 141.053 93.2584 141.053ZM108.769 139.453C109.847 139.453 110.711 139.767 111.361 140.397C112.012 141.026 112.337 141.959 112.337 143.197V148.093H110.337V143.453C110.337 142.706 110.161 142.146 109.809 141.773C109.457 141.389 108.956 141.197 108.305 141.197C107.569 141.197 106.988 141.421 106.561 141.869C106.135 142.306 105.921 142.941 105.921 143.773V148.093H103.921V139.549H105.825V140.653C106.156 140.258 106.572 139.959 107.073 139.757C107.575 139.554 108.14 139.453 108.769 139.453ZM122.985 143.869C122.985 144.007 122.974 144.205 122.953 144.461H116.249C116.366 145.09 116.67 145.591 117.161 145.965C117.662 146.327 118.281 146.509 119.017 146.509C119.955 146.509 120.729 146.199 121.337 145.581L122.409 146.813C122.025 147.271 121.539 147.618 120.953 147.853C120.366 148.087 119.705 148.205 118.969 148.205C118.03 148.205 117.203 148.018 116.489 147.645C115.774 147.271 115.219 146.754 114.825 146.093C114.441 145.421 114.249 144.663 114.249 143.821C114.249 142.989 114.435 142.242 114.809 141.581C115.193 140.909 115.721 140.386 116.393 140.013C117.065 139.639 117.822 139.453 118.665 139.453C119.497 139.453 120.238 139.639 120.889 140.013C121.55 140.375 122.062 140.893 122.425 141.565C122.798 142.226 122.985 142.994 122.985 143.869ZM118.665 141.053C118.025 141.053 117.481 141.245 117.033 141.629C116.595 142.002 116.329 142.503 116.233 143.133H121.081C120.995 142.514 120.734 142.013 120.297 141.629C119.859 141.245 119.315 141.053 118.665 141.053ZM130.042 147.629C129.807 147.821 129.519 147.965 129.178 148.061C128.847 148.157 128.495 148.205 128.122 148.205C127.183 148.205 126.458 147.959 125.946 147.469C125.434 146.978 125.178 146.263 125.178 145.325V141.213H123.77V139.613H125.178V137.661H127.178V139.613H129.466V141.213H127.178V145.277C127.178 145.693 127.279 146.013 127.482 146.237C127.684 146.45 127.978 146.557 128.362 146.557C128.81 146.557 129.183 146.439 129.482 146.205L130.042 147.629ZM144.859 139.549L141.707 148.093H139.787L137.579 142.205L135.339 148.093H133.419L130.283 139.549H132.171L134.427 145.853L136.779 139.549H138.459L140.763 145.885L143.083 139.549H144.859ZM149.84 148.205C148.976 148.205 148.197 148.018 147.504 147.645C146.81 147.271 146.266 146.754 145.872 146.093C145.488 145.421 145.296 144.663 145.296 143.821C145.296 142.978 145.488 142.226 145.872 141.565C146.266 140.903 146.81 140.386 147.504 140.013C148.197 139.639 148.976 139.453 149.84 139.453C150.714 139.453 151.498 139.639 152.192 140.013C152.885 140.386 153.424 140.903 153.808 141.565C154.202 142.226 154.4 142.978 154.4 143.821C154.4 144.663 154.202 145.421 153.808 146.093C153.424 146.754 152.885 147.271 152.192 147.645C151.498 148.018 150.714 148.205 149.84 148.205ZM149.84 146.493C150.576 146.493 151.184 146.247 151.664 145.757C152.144 145.266 152.384 144.621 152.384 143.821C152.384 143.021 152.144 142.375 151.664 141.885C151.184 141.394 150.576 141.149 149.84 141.149C149.104 141.149 148.496 141.394 148.016 141.885C147.546 142.375 147.312 143.021 147.312 143.821C147.312 144.621 147.546 145.266 148.016 145.757C148.496 146.247 149.104 146.493 149.84 146.493ZM158.216 140.797C158.792 139.901 159.805 139.453 161.256 139.453V141.357C161.085 141.325 160.931 141.309 160.792 141.309C160.013 141.309 159.405 141.538 158.968 141.997C158.531 142.445 158.312 143.095 158.312 143.949V148.093H156.312V139.549H158.216V140.797ZM166.441 144.429L164.953 145.837V148.093H162.953V136.221H164.953V143.389L169.097 139.549H171.497L167.929 143.133L171.833 148.093H169.401L166.441 144.429ZM175.499 148.205C174.806 148.205 174.128 148.114 173.467 147.933C172.806 147.751 172.278 147.522 171.883 147.245L172.651 145.725C173.035 145.981 173.494 146.189 174.027 146.349C174.571 146.498 175.104 146.573 175.627 146.573C176.822 146.573 177.419 146.258 177.419 145.629C177.419 145.33 177.264 145.122 176.955 145.005C176.656 144.887 176.171 144.775 175.499 144.669C174.795 144.562 174.219 144.439 173.771 144.301C173.334 144.162 172.95 143.922 172.619 143.581C172.299 143.229 172.139 142.743 172.139 142.125C172.139 141.314 172.475 140.669 173.147 140.189C173.83 139.698 174.747 139.453 175.899 139.453C176.486 139.453 177.072 139.522 177.659 139.661C178.246 139.789 178.726 139.965 179.099 140.189L178.331 141.709C177.606 141.282 176.79 141.069 175.883 141.069C175.296 141.069 174.848 141.159 174.539 141.341C174.24 141.511 174.091 141.741 174.091 142.029C174.091 142.349 174.251 142.578 174.571 142.717C174.902 142.845 175.408 142.967 176.091 143.085C176.774 143.191 177.334 143.314 177.771 143.453C178.208 143.591 178.582 143.826 178.891 144.157C179.211 144.487 179.371 144.957 179.371 145.565C179.371 146.365 179.024 147.005 178.331 147.485C177.638 147.965 176.694 148.205 175.499 148.205Z" fill="black"/>
<path d="M115.372 57.9485C116.823 58.997 119.48 60.3998 125.867 62.5252C143.084 68.2779 151.257 62.0859 162.725 68.533C168.706 71.877 166.95 73.8181 176.778 80.4352C184.573 85.6637 187.781 85.8762 189.32 89.5036C191.948 95.7097 186.649 106.833 178.781 109.426C168.706 112.741 162.696 99.3654 143.81 95.5397C135.26 93.8111 126.971 95.6531 110.421 99.3229C88.4431 104.183 82.5202 109.171 63.7355 110.517C55.461 111.098 43.1508 111.863 40.5087 106.393C38.6506 102.511 42.2508 96.5741 45.3719 93.3293C52.5141 85.8762 61.0644 88.4834 62.9081 83.7792C65.5937 76.9071 48.9575 67.527 51.9624 59.918C52.877 57.6084 55.1416 56.6024 58.4224 55.1571C69.6293 50.212 75.7554 56.8716 87.2962 53.5277C96.7466 50.7788 98.5322 44.5868 103.744 46.1171C108.389 47.4774 108.273 52.8334 115.372 57.9485Z" fill="#E2F2EE"/>
<path d="M90.0978 108.958C86.9448 108.891 83.7903 108.986 80.6474 109.242C73.1277 110.035 72.8374 111.466 67.2049 111.466C63.9676 111.466 61.8046 110.999 58.3351 112.033C58.0884 112.104 53.6317 113.45 53.7478 114.541C53.9511 116.34 66.45 116.454 71.5018 116.496C92.6382 116.68 108.65 114.187 123.298 115.66C126.201 115.944 128.161 116.213 128.161 116.213C139.164 117.63 140.892 119.443 146.757 119.571C150.197 119.642 153.347 118.877 159.648 117.332C163.495 116.397 172.103 114.286 171.943 112.869C171.943 112.345 170.651 111.707 156.497 111.197C141.981 110.659 136.392 111.084 123.588 110.347C119.785 110.134 120.583 110.12 115.284 109.794C102.016 108.987 94.1044 108.944 90.0978 108.958Z" fill="#CCE5ED"/>
<path d="M91.4783 106.847C88.3301 106.78 85.1805 106.875 82.0424 107.13C74.5227 107.924 74.2179 109.369 68.5854 109.369C65.3481 109.369 63.1996 108.887 59.7156 109.922C59.4834 109.922 55.0267 111.339 55.1429 112.43C55.3316 114.243 67.8305 114.342 72.8823 114.385C94.0332 114.569 110.031 112.075 124.678 113.549C127.581 113.847 129.541 114.116 129.541 114.116C140.559 115.533 142.272 117.346 148.152 117.46C151.578 117.531 154.728 116.765 161.028 115.235C164.89 114.286 173.498 112.189 173.338 110.758C173.338 110.248 172.032 109.596 157.878 109.086C143.361 108.547 137.772 108.986 124.968 108.25C121.18 108.023 121.978 108.009 116.665 107.683C103.353 106.847 95.4849 106.847 91.4783 106.847Z" fill="#BCC8CE"/>
<path d="M87.9932 89.291L91.3465 110.417C93.6164 110.992 95.9555 111.264 98.3001 111.225C100.545 111.192 102.776 110.868 104.934 110.262L107.983 89.291H87.9932Z" stroke="#75869E" stroke-width="0.5" stroke-miterlimit="10"/>
<path d="M83.522 65.6001H67.5391V72.288H83.522V65.6001Z" fill="#BFBFBF" stroke="#BFBFBF" stroke-width="0.2" stroke-miterlimit="10"/>
<path d="M84.2918 58.8696H82.6514V62.4545H84.2918V58.8696Z" fill="black" stroke="black" stroke-width="0.3" stroke-miterlimit="10"/>
<path d="M89.9968 56.999H76.9463C76.826 56.999 76.7285 57.0942 76.7285 57.2116V58.4868C76.7285 58.6042 76.826 58.6993 76.9463 58.6993H89.9968C90.1171 58.6993 90.2146 58.6042 90.2146 58.4868V57.2116C90.2146 57.0942 90.1171 56.999 89.9968 56.999Z" fill="black"/>
<path d="M89.9967 57.2542V58.5436H76.9316V57.2542H89.9967ZM89.9967 56.8291H76.9316C76.8172 56.8326 76.7086 56.8786 76.6277 56.9575C76.5468 57.0365 76.4997 57.1426 76.4961 57.2542V58.5436C76.4997 58.6552 76.5468 58.7613 76.6277 58.8402C76.7086 58.9192 76.8172 58.9651 76.9316 58.9687H89.9967C90.1122 58.9687 90.2229 58.9239 90.3046 58.8442C90.3863 58.7645 90.4321 58.6563 90.4321 58.5436V57.2542C90.4321 57.1414 90.3863 57.0333 90.3046 56.9536C90.2229 56.8739 90.1122 56.8291 89.9967 56.8291Z" fill="black"/>
<path d="M89.7339 94.9731L106.239 95.0582C105.543 99.9607 104.841 104.859 104.134 109.752C100.146 110.637 96.0129 110.699 91.9985 109.936L89.7339 94.9731Z" fill="#A4D3F7"/>
<path d="M93.7574 87.9874C92.0444 88.1575 87.9507 88.6959 87.9507 89.0926C87.9507 89.9711 107.955 89.8861 107.984 89.0926C107.984 88.7384 103.803 88.2708 102.511 88.1291C99.6085 87.752 96.6711 87.7045 93.7574 87.9874Z" fill="white" stroke="#75869E" stroke-width="0.5" stroke-miterlimit="10"/>
<path d="M98.0393 77.0913C97.55 77.0891 97.0796 76.907 96.7218 76.5814C96.364 76.2558 96.145 75.8105 96.1085 75.3343V75.0226C96.0545 74.4022 95.766 73.8236 95.2992 73.3994C94.8323 72.9751 94.2204 72.7355 93.5826 72.7272H88.5453C87.8138 72.7272 87.1122 72.4435 86.5949 71.9387C86.0777 71.4338 85.7871 70.749 85.7871 70.035V68.448C85.7871 67.734 86.0777 67.0493 86.5949 66.5444C87.1122 66.0395 87.8138 65.7559 88.5453 65.7559H97.6618C98.1577 65.7555 98.6344 65.9428 98.9917 66.2784C99.3491 66.614 99.5593 67.0717 99.578 67.5554L99.9845 75.1076C100.005 75.3664 99.9684 75.6264 99.8783 75.8706C99.7882 76.1148 99.6463 76.3376 99.4619 76.5246C99.2771 76.709 99.0555 76.8545 98.8108 76.952C98.5661 77.0495 98.3035 77.0969 98.0393 77.0913Z" fill="#BFBFBF"/>
<path d="M97.6595 65.8268C98.1173 65.8297 98.5568 66.0028 98.8885 66.3108C99.2202 66.6187 99.4193 67.0385 99.4451 67.4846L99.837 75.0511C99.8504 75.2799 99.8174 75.5091 99.74 75.7256C99.6626 75.942 99.5423 76.1414 99.3859 76.3125C99.2295 76.4835 99.0402 76.6228 98.8286 76.7224C98.6171 76.8221 98.3876 76.8801 98.1531 76.8931C97.9186 76.9061 97.6838 76.8739 97.4621 76.7984C97.2403 76.7228 97.036 76.6054 96.8608 76.4528C96.6855 76.3001 96.5428 76.1153 96.4407 75.9088C96.3387 75.7024 96.2793 75.4783 96.2659 75.2494V74.9519C96.2117 74.2939 95.9078 73.6793 95.4138 73.2285C94.9197 72.7778 94.2711 72.5232 93.5948 72.5148H88.5575C87.8645 72.5148 87.1999 72.2461 86.7098 71.7677C86.2198 71.2894 85.9445 70.6407 85.9445 69.9643V68.3773C85.9483 67.702 86.2248 67.0555 86.7141 66.578C87.2033 66.1005 87.8657 65.8306 88.5575 65.8268H97.6595ZM97.6595 65.5435H88.543C87.773 65.5435 87.0345 65.842 86.49 66.3735C85.9455 66.9049 85.6396 67.6257 85.6396 68.3773V70.0068C85.6396 70.7584 85.9455 71.4792 86.49 72.0106C87.0345 72.5421 87.773 72.8406 88.543 72.8406H93.5803C94.182 72.8491 94.759 73.0758 95.199 73.4764C95.6391 73.8771 95.9107 74.4232 95.961 75.0086V75.3061C95.9977 75.8199 96.232 76.3011 96.6171 76.6533C97.0021 77.0055 97.5093 77.2025 98.037 77.2048C98.3177 77.2031 98.5953 77.1463 98.853 77.0376C99.1108 76.9289 99.3435 76.7707 99.5373 76.5724C99.731 76.374 99.8819 76.1395 99.9807 75.883C100.08 75.6265 100.125 75.3532 100.113 75.0794L99.7354 67.8814V67.513C99.7058 66.9942 99.4746 66.5059 99.0888 66.1478C98.7031 65.7897 98.1919 65.5888 97.6595 65.586V65.5435Z" fill="#BFBFBF"/>
<path d="M83.6955 75.4051C81.9365 75.4052 80.1833 75.2103 78.4694 74.8242C78.2246 74.7818 77.9913 74.6907 77.784 74.5567C77.5768 74.4226 77.4 74.2484 77.2645 74.0449C77.1717 73.9062 77.1095 73.7501 77.082 73.5866C77.0545 73.4232 77.0623 73.2559 77.1048 73.0955L79.5582 63.9705C79.6954 63.6082 79.9492 63.2992 80.2816 63.0897C80.614 62.8802 81.0071 62.7816 81.4018 62.8086H85.4665C85.8532 62.7838 86.2381 62.8787 86.5665 63.0796C86.8948 63.2806 87.1499 63.5774 87.2956 63.928L90.1989 73.053C90.25 73.2156 90.2648 73.387 90.2422 73.5557C90.2197 73.7243 90.1604 73.8863 90.0683 74.0307C89.9365 74.2401 89.7612 74.4201 89.5536 74.5593C89.3461 74.6984 89.111 74.7934 88.8634 74.8383C87.1709 75.204 85.4435 75.394 83.71 75.4051H83.6955Z" fill="#D6D8D6"/>
<path d="M85.468 62.922C85.8232 62.8964 86.1775 62.9814 86.4801 63.1647C86.7826 63.348 87.0179 63.6202 87.152 63.9422C88.1246 66.9744 89.0827 70.0209 90.0553 73.0673C90.2876 73.7757 89.736 74.4842 88.8214 74.6684C87.1439 75.0355 85.4307 75.2256 83.7115 75.2352C81.9679 75.2331 80.2299 75.043 78.529 74.6684C77.6435 74.47 77.0773 73.7899 77.2806 73.0956C78.0935 70.0633 78.9065 67.017 79.7339 63.9847C79.8595 63.651 80.0934 63.3665 80.4001 63.1746C80.7067 62.9827 81.0693 62.894 81.4324 62.922H85.4971H85.468ZM85.4971 62.6386H81.4324C81.0035 62.6088 80.5764 62.7174 80.217 62.9479C79.8576 63.1783 79.5859 63.5178 79.4436 63.9139L78.2097 68.5047L77.0048 73.0248C76.9543 73.203 76.9425 73.3896 76.97 73.5725C76.9975 73.7555 77.0637 73.9308 77.1645 74.0875C77.4635 74.526 77.9278 74.8315 78.4564 74.9376C80.1803 75.3227 81.9431 75.5175 83.7115 75.5185C85.4643 75.5097 87.2112 75.3198 88.923 74.9518C89.1921 74.904 89.4477 74.801 89.673 74.6496C89.8982 74.4981 90.0879 74.3017 90.2295 74.0733C90.3246 73.9091 90.3852 73.728 90.4076 73.5406C90.43 73.3533 90.4139 73.1634 90.3602 72.9822L89.0392 68.7314L87.5004 63.8855C87.3477 63.5062 87.0757 63.184 86.7236 62.965C86.3715 62.7461 85.9573 62.6417 85.5406 62.667L85.4971 62.6386Z" fill="#D6D8D6"/>
<path d="M99.6201 76.7793H96.3828V89.1916H99.6201V76.7793Z" fill="#A4D3F7" stroke="#A4D3F7" stroke-width="0.3" stroke-miterlimit="10"/>
<path d="M95.5695 76.7797C95.531 76.7797 95.4941 76.7648 95.4668 76.7382C95.4396 76.7117 95.4243 76.6756 95.4243 76.638V75.4903C95.4243 75.4527 95.4396 75.4167 95.4668 75.3901C95.4941 75.3636 95.531 75.3486 95.5695 75.3486H100.462C100.5 75.3486 100.537 75.3636 100.564 75.3901C100.592 75.4167 100.607 75.4527 100.607 75.4903V76.638C100.607 76.6756 100.592 76.7117 100.564 76.7382C100.537 76.7648 100.5 76.7797 100.462 76.7797H95.5695Z" fill="#D6D8D6"/>
<path d="M95.5701 75.4899H100.462V76.6376H95.5701V75.4899ZM95.5701 75.2065C95.4943 75.21 95.4225 75.241 95.3688 75.2934C95.3151 75.3458 95.2833 75.4159 95.2798 75.4899V76.6376C95.2798 76.7128 95.3104 76.7849 95.3648 76.838C95.4193 76.8912 95.4931 76.921 95.5701 76.921H100.462C100.538 76.9176 100.61 76.8866 100.664 76.8342C100.717 76.7818 100.749 76.7117 100.753 76.6376V75.4899C100.753 75.4148 100.722 75.3427 100.668 75.2895C100.613 75.2364 100.539 75.2065 100.462 75.2065H95.5701Z" fill="#D6D8D6"/>
<path d="M94.4669 93.9812C93.0152 94.1513 89.6909 94.6897 89.7199 95.0864C89.7199 95.9649 106.225 95.8658 106.255 95.0864C106.255 94.7322 102.799 94.2788 101.725 94.1229C99.3239 93.751 96.8815 93.7033 94.4669 93.9812Z" fill="#D3E6EF"/>
<path d="M99.6074 90.2402V94.491C99.0442 94.6372 98.4625 94.704 97.8799 94.6894C97.3895 94.6822 96.9018 94.6156 96.4282 94.491V90.2402H99.6074Z" fill="#A4D3F7" stroke="#A4D3F7" stroke-width="0.3" stroke-miterlimit="10"/>
<path d="M78.2522 70.9844C78.1122 71.3981 77.9959 71.8191 77.9039 72.2454C77.7903 72.5882 77.7604 72.9521 77.8167 73.3081C77.8898 73.5606 78.0131 73.7965 78.1796 74.0024C78.5928 74.3578 79.0829 74.6176 79.6132 74.7624C80.1436 74.9071 80.7006 74.9331 81.2427 74.8384C80.4405 74.6402 79.7081 74.2338 79.1233 73.6624C78.7612 73.322 78.4918 72.8989 78.3397 72.4312C78.1876 71.9636 78.1576 71.4662 78.2522 70.9844Z" fill="white"/>
<path d="M84.7412 63.2476C85.0632 63.2644 85.381 63.3264 85.6848 63.4318C86.0811 63.5976 86.4263 63.8613 86.6865 64.1969C86.878 64.4553 87.0251 64.7425 87.122 65.0471L86.4687 64.5936L85.6413 63.9985C85.1132 63.6298 84.5166 63.3651 83.8848 63.2192C84.1025 63.2192 84.3928 63.2192 84.7412 63.2476Z" fill="white"/>
<path d="M96.7758 66.0394C97.0555 66.007 97.3381 66.007 97.6178 66.0394C97.8711 66.0659 98.1172 66.138 98.3436 66.252C98.6451 66.4818 98.8638 66.7995 98.9678 67.1588C99.0561 67.3634 99.1195 67.5774 99.1566 67.7964C99.2168 68.0575 99.2556 68.3228 99.2727 68.5899C99.098 68.2644 98.8991 67.9518 98.6775 67.6547C98.4992 67.3783 98.2789 67.1299 98.0243 66.918C97.6686 66.7094 97.2816 66.5564 96.8774 66.4645L95.7451 66.0961C96.0864 66.0488 96.4313 66.0299 96.7758 66.0394Z" fill="white"/>
<path d="M95.7587 76.312C95.7992 76.3664 95.8482 76.4142 95.9039 76.4537C96.1436 76.6421 96.4384 76.7512 96.7459 76.7654C96.4809 76.8002 96.2124 76.8002 95.9475 76.7654C95.8097 76.7574 95.6778 76.7079 95.57 76.6237C95.4595 76.4821 95.4077 76.305 95.4248 76.1278C95.3981 75.9587 95.3981 75.7867 95.4248 75.6177C95.4535 75.879 95.5711 76.1234 95.7587 76.312Z" fill="white"/>
<path d="M91.855 103.8C92.3373 104.581 92.7688 105.39 93.147 106.223C93.3594 106.902 93.7381 107.519 94.2502 108.023C94.6808 108.28 95.1324 108.503 95.6003 108.689C96.1691 109 96.7556 109.279 97.3568 109.525C97.8672 109.718 98.3979 109.856 98.9392 109.936C98.2052 110.001 97.4666 110.001 96.7326 109.936C95.8231 109.837 94.9212 109.681 94.0325 109.468C93.6301 109.406 93.2359 109.301 92.8566 109.156C92.1453 108.604 92.4357 107.527 92.1453 105.316C92.1018 104.693 92.0001 104.14 91.855 103.8Z" fill="white"/>
<path d="M142.664 90.1978C141.551 97.2352 140.438 104.277 139.326 111.324C134.861 112.438 130.174 112.384 125.738 111.168L122.675 90.1978H142.664Z" stroke="#75869E" stroke-width="0.5" stroke-miterlimit="10"/>
<path d="M163.104 66.4927H147.121V73.1806H163.104V66.4927Z" fill="#BFBFBF" stroke="#BFBFBF" stroke-width="0.2" stroke-miterlimit="10"/>
<path d="M147.99 59.7622H146.35V63.347H147.99V59.7622Z" fill="black" stroke="black" stroke-width="0.3" stroke-miterlimit="10"/>
<path d="M153.695 57.9058H140.644C140.524 57.9058 140.426 58.0009 140.426 58.1183V59.3935C140.426 59.5109 140.524 59.6061 140.644 59.6061H153.695C153.815 59.6061 153.912 59.5109 153.912 59.3935V58.1183C153.912 58.0009 153.815 57.9058 153.695 57.9058Z" fill="black"/>
<path d="M153.695 58.1187V59.3939H140.63V58.1187H153.695ZM153.695 57.6936H140.63C140.572 57.6916 140.514 57.7013 140.461 57.7219C140.407 57.7426 140.358 57.7738 140.317 57.8137C140.276 57.8536 140.244 57.9012 140.223 57.9537C140.202 58.0062 140.192 58.0623 140.194 58.1187V59.3939C140.192 59.4503 140.202 59.5064 140.223 59.5589C140.244 59.6114 140.276 59.659 140.317 59.6989C140.358 59.7388 140.407 59.77 140.461 59.7907C140.514 59.8113 140.572 59.821 140.63 59.819H153.695C153.752 59.821 153.81 59.8113 153.864 59.7907C153.917 59.77 153.966 59.7388 154.007 59.6989C154.048 59.659 154.08 59.6114 154.101 59.5589C154.122 59.5064 154.132 59.4503 154.13 59.3939V58.1187C154.132 58.0623 154.122 58.0062 154.101 57.9537C154.08 57.9012 154.048 57.8536 154.007 57.8137C153.966 57.7738 153.917 57.7426 153.864 57.7219C153.81 57.7013 153.752 57.6916 153.695 57.6936Z" fill="black"/>
<path d="M140.282 101.052H125.127L126.39 110.744C128.41 111.223 130.481 111.471 132.56 111.48C134.615 111.484 136.665 111.266 138.671 110.829L140.282 101.052Z" fill="#A4D3F7"/>
<path d="M136.856 88.8944C138.569 89.0645 142.662 89.6029 142.662 89.9996C142.662 90.8781 122.673 90.7789 122.629 89.9996C122.629 89.6454 126.81 89.1778 128.117 89.0361C131.015 88.6673 133.947 88.6198 136.856 88.8944Z" fill="white" stroke="#75869E" stroke-width="0.5" stroke-miterlimit="10"/>
<path d="M132.603 77.9273C132.341 77.9237 132.084 77.8692 131.844 77.767C131.605 77.6648 131.389 77.517 131.209 77.3322C131.029 77.1474 130.889 76.9293 130.797 76.6909C130.705 76.4524 130.662 76.1984 130.672 75.9436L131.078 68.3772C131.101 67.8936 131.315 67.4373 131.675 67.1044C132.035 66.7714 132.513 66.5877 133.009 66.5919H142.111C142.842 66.5919 143.544 66.8755 144.061 67.3804C144.579 67.8853 144.869 68.57 144.869 69.2841V70.871C144.869 71.585 144.579 72.2698 144.061 72.7747C143.544 73.2795 142.842 73.5632 142.111 73.5632H137.074C136.436 73.5715 135.824 73.8111 135.357 74.2354C134.89 74.6596 134.602 75.2382 134.548 75.8586V76.1562C134.515 76.6373 134.295 77.0881 133.934 77.417C133.573 77.746 133.097 77.9284 132.603 77.9273Z" fill="#BFBFBF"/>
<path d="M142.111 66.7336C142.804 66.7336 143.468 67.0023 143.958 67.4806C144.448 67.9589 144.724 68.6076 144.724 69.2841V70.871C144.724 71.5474 144.448 72.1962 143.958 72.6745C143.468 73.1528 142.804 73.4215 142.111 73.4215H137.073C136.399 73.4296 135.753 73.6822 135.259 74.1301C134.765 74.5779 134.46 75.189 134.402 75.8444V76.1562C134.373 76.6184 134.158 77.0505 133.802 77.3574C133.447 77.6643 132.981 77.8209 132.508 77.7927C132.034 77.7645 131.592 77.5539 131.277 77.2071C130.963 76.8604 130.802 76.4059 130.831 75.9436L131.238 68.3914C131.256 67.9428 131.453 67.519 131.787 67.2096C132.12 66.9002 132.563 66.7295 133.023 66.7336H142.125H142.111ZM142.125 66.4502H133.023C132.49 66.4496 131.977 66.6494 131.59 67.0082C131.204 67.367 130.973 67.8572 130.947 68.3772L130.541 75.9295C130.508 76.4668 130.695 76.9949 131.062 77.3975C131.428 77.8001 131.943 78.0442 132.493 78.0761C133.044 78.1081 133.585 77.9252 133.997 77.5678C134.41 77.2104 134.66 76.7077 134.693 76.1704V75.8728C134.74 75.2863 135.01 74.7383 135.451 74.337C135.892 73.9357 136.471 73.7102 137.073 73.7049H142.111C142.881 73.7049 143.619 73.4063 144.164 72.8749C144.708 72.3434 145.014 71.6226 145.014 70.871V69.2841C145.014 68.5325 144.708 67.8117 144.164 67.2802C143.619 66.7488 142.881 66.4502 142.111 66.4502H142.125Z" fill="#BFBFBF"/>
<path d="M147.017 76.2976C145.283 76.2998 143.555 76.1145 141.863 75.745C141.613 75.7019 141.375 75.6077 141.165 75.4685C140.955 75.3293 140.777 75.1483 140.644 74.9373C140.55 74.7908 140.491 74.6258 140.471 74.4542C140.451 74.2826 140.47 74.1088 140.528 73.9455L143.431 64.8204C143.582 64.4736 143.838 64.1804 144.165 63.9802C144.493 63.7801 144.875 63.6826 145.26 63.7011H149.339C149.734 63.6758 150.126 63.777 150.456 63.9893C150.786 64.2016 151.036 64.5134 151.168 64.8771L153.622 73.988C153.706 74.3152 153.654 74.6617 153.477 74.9515C153.338 75.1523 153.16 75.3245 152.954 75.4582C152.747 75.5919 152.515 75.6846 152.272 75.7308C150.557 76.1122 148.804 76.3024 147.046 76.2976H147.017Z" fill="#D6D8D6"/>
<path d="M149.252 63.8428C149.616 63.8228 149.977 63.9164 150.282 64.11C150.588 64.3037 150.822 64.5873 150.951 64.9197L153.39 74.0306C153.578 74.7249 153.027 75.4475 152.156 75.5892C150.451 75.9707 148.708 76.1608 146.959 76.156C145.235 76.1573 143.516 75.9719 141.834 75.6034C141.644 75.5774 141.461 75.5148 141.296 75.4193C141.131 75.3239 140.987 75.1973 140.872 75.0471C140.757 74.8969 140.674 74.7259 140.628 74.5442C140.581 74.3624 140.572 74.1734 140.6 73.9881C141.573 70.9558 142.531 67.9094 143.504 64.863C143.642 64.5436 143.878 64.2738 144.179 64.0911C144.481 63.9083 144.833 63.8216 145.188 63.8428H149.267H149.252ZM149.267 63.5595H145.188C144.772 63.5385 144.36 63.6447 144.008 63.8631C143.657 64.0815 143.384 64.4013 143.228 64.778L141.689 69.6381L140.325 73.8889C140.269 74.0722 140.252 74.2646 140.274 74.4545C140.297 74.6445 140.358 74.828 140.455 74.9941C140.603 75.2175 140.794 75.4102 141.018 75.561C141.243 75.7117 141.495 75.8176 141.762 75.8726C143.468 76.2413 145.211 76.4266 146.959 76.4252C148.732 76.4298 150.499 76.2397 152.228 75.8584C152.757 75.7524 153.221 75.4468 153.52 75.0083C153.719 74.6902 153.782 74.3084 153.695 73.9456L152.461 69.3547L151.241 64.8347C151.104 64.4371 150.836 64.095 150.479 63.8617C150.122 63.6284 149.696 63.5172 149.267 63.5453V63.5595Z" fill="#D6D8D6"/>
<path d="M134.242 77.6724H131.005V90.0847H134.242V77.6724Z" fill="#A4D3F7" stroke="#A4D3F7" stroke-width="0.3" stroke-miterlimit="10"/>
<path d="M130.192 77.7146C130.177 77.7221 130.159 77.726 130.142 77.726C130.124 77.726 130.107 77.7221 130.091 77.7146C130.084 77.6989 130.081 77.682 130.081 77.665C130.081 77.6479 130.084 77.6311 130.091 77.6154V76.4677C130.091 76.4301 130.106 76.394 130.133 76.3675C130.161 76.3409 130.198 76.326 130.236 76.326H135.114C135.13 76.3193 135.147 76.3159 135.164 76.3159C135.182 76.3159 135.199 76.3193 135.215 76.326C135.223 76.3414 135.227 76.3584 135.227 76.3755C135.227 76.3927 135.223 76.4097 135.215 76.4251V77.5729C135.212 77.6094 135.196 77.6436 135.169 77.6695C135.143 77.6954 135.107 77.7114 135.07 77.7146H130.192Z" fill="#D6D8D6"/>
<path d="M135.07 76.3967V77.5444H130.192V76.3967H135.07ZM135.07 76.1133H130.178C130.103 76.1169 130.033 76.1484 129.982 76.2011C129.93 76.2539 129.902 76.3239 129.902 76.3967V77.5444C129.905 77.6184 129.937 77.6885 129.991 77.7409C130.045 77.7934 130.116 77.8243 130.192 77.8278H135.07C135.146 77.8243 135.218 77.7934 135.271 77.7409C135.325 77.6885 135.357 77.6184 135.36 77.5444V76.3967C135.357 76.3226 135.325 76.2525 135.271 76.2001C135.218 76.1477 135.146 76.1167 135.07 76.1133Z" fill="#D6D8D6"/>
<path d="M136.174 100.102C137.132 100.215 140.297 100.655 140.282 100.981C140.282 101.675 125.156 101.562 125.127 100.981C126.349 100.571 127.625 100.332 128.916 100.272C131.317 99.9063 133.757 99.8492 136.174 100.102Z" fill="#D3E6EF"/>
<path d="M131.05 91.1333V100.372C131.575 100.666 132.173 100.813 132.778 100.797C133.29 100.771 133.788 100.625 134.229 100.372V91.1333H131.05Z" fill="#A4D3F7" stroke="#A4D3F7" stroke-width="0.3" stroke-miterlimit="10"/>
<path d="M152.388 71.8911C152.53 72.3043 152.646 72.7254 152.736 73.1522C152.857 73.4885 152.887 73.8497 152.823 74.2007C152.752 74.4582 152.629 74.699 152.46 74.9092C152.044 75.2585 151.553 75.5144 151.024 75.6589C150.495 75.8033 149.94 75.8328 149.397 75.7452C150.201 75.5496 150.934 75.1429 151.517 74.5691C151.809 74.293 152.045 73.9663 152.214 73.6056C152.453 73.0656 152.514 72.4664 152.388 71.8911Z" fill="white"/>
<path d="M145.9 64.1546C145.582 64.164 145.268 64.2263 144.971 64.3388C144.566 64.4963 144.214 64.7613 143.955 65.1039C143.759 65.3524 143.616 65.6367 143.534 65.9399L144.173 65.4865L145 64.8914C145.532 64.5313 146.127 64.2718 146.757 64.1263C146.471 64.1165 146.185 64.126 145.9 64.1546Z" fill="white"/>
<path d="M133.867 66.9318C133.587 66.9081 133.305 66.9081 133.025 66.9318C132.77 66.9469 132.521 67.0197 132.299 67.1444C132.002 67.3718 131.784 67.6837 131.675 68.037C131.595 68.2445 131.532 68.4576 131.486 68.6747C131.424 68.935 131.39 69.2009 131.385 69.4681C131.558 69.1463 131.757 68.8384 131.98 68.5471C132.15 68.2689 132.366 68.02 132.619 67.8103C132.969 67.5922 133.358 67.4386 133.765 67.3569L134.898 66.9885C134.556 66.9416 134.212 66.9226 133.867 66.9318Z" fill="white"/>
<path d="M134.896 77.2187C134.851 77.2695 134.803 77.3169 134.751 77.3604C134.507 77.5516 134.206 77.661 133.894 77.6721C134.163 77.7155 134.438 77.7155 134.707 77.6721C134.839 77.6712 134.967 77.6262 135.07 77.5446C135.178 77.4018 135.229 77.2257 135.215 77.0487C135.236 76.8792 135.236 76.708 135.215 76.5386C135.173 76.7891 135.063 77.024 134.896 77.2187Z" fill="white"/>
<path d="M138.729 104.708C138.25 105.489 137.818 106.299 137.437 107.13C137.24 107.811 136.859 108.428 136.334 108.916C135.911 109.19 135.458 109.418 134.984 109.596C134.417 109.91 133.83 110.189 133.227 110.432C132.72 110.619 132.195 110.757 131.66 110.843C132.388 110.917 133.123 110.917 133.852 110.843C134.768 110.757 135.675 110.601 136.566 110.375C136.963 110.315 137.352 110.216 137.728 110.078C138.454 109.525 138.163 108.434 138.454 106.224C138.541 105.6 138.657 105.048 138.729 104.708Z" fill="white"/>
<path d="M66.754 58.9404H61.9344C61.3892 58.9404 60.9473 59.3718 60.9473 59.9039V80.1661C60.9473 80.6982 61.3892 81.1296 61.9344 81.1296H66.754C67.2991 81.1296 67.7411 80.6982 67.7411 80.1661V59.9039C67.7411 59.3718 67.2991 58.9404 66.754 58.9404Z" fill="#7F7F7F"/>
<path d="M66.7705 59.1673C66.8709 59.1654 66.9706 59.183 67.0639 59.2192C67.1571 59.2554 67.2421 59.3094 67.3137 59.378C67.3854 59.4466 67.4423 59.5285 67.4811 59.6188C67.5199 59.7091 67.5399 59.8061 67.5399 59.9041V80.1804C67.5399 80.3795 67.4589 80.5705 67.3146 80.7114C67.1703 80.8522 66.9746 80.9314 66.7705 80.9314H61.9365C61.8361 80.9314 61.7367 80.9118 61.6442 80.8739C61.5516 80.836 61.4678 80.7805 61.3975 80.7106C61.3272 80.6406 61.2719 80.5577 61.2348 80.4667C61.1978 80.3756 61.1796 80.2783 61.1816 80.1804V59.9041C61.1816 59.8073 61.2011 59.7115 61.239 59.6221C61.277 59.5327 61.3326 59.4515 61.4027 59.3831C61.4728 59.3146 61.556 59.2604 61.6476 59.2234C61.7392 59.1863 61.8373 59.1673 61.9365 59.1673H66.7705ZM66.7705 58.7422H61.9365C61.6208 58.7422 61.318 58.8646 61.0947 59.0825C60.8715 59.3004 60.7461 59.5959 60.7461 59.9041V80.1804C60.7461 80.4898 60.871 80.7869 61.0939 81.007C61.3167 81.2272 61.6194 81.3527 61.9365 81.3564H66.7705C67.0901 81.3564 67.3965 81.2325 67.6225 81.012C67.8485 80.7914 67.9754 80.4923 67.9754 80.1804V59.9041C67.9716 59.5946 67.843 59.2991 67.6175 59.0816C67.3919 58.8641 67.0876 58.7422 66.7705 58.7422Z" fill="#7F7F7F"/>
<path d="M62.1966 59.3513C62.0253 59.3968 61.8665 59.4791 61.732 59.5922C61.5737 59.7309 61.4539 59.9063 61.3836 60.1023C61.2745 60.3969 61.2347 60.7117 61.2675 61.0233C61.2675 61.3634 61.2675 61.8593 61.2675 62.5252C61.3546 62.2844 61.4998 61.9301 61.6595 61.4909C61.773 60.9953 61.9587 60.5181 62.2111 60.074C62.4013 59.8596 62.6349 59.686 62.8972 59.564C63.1596 59.4421 63.4449 59.3745 63.7353 59.3655C63.2315 59.2367 62.7028 59.2318 62.1966 59.3513Z" fill="white"/>
<path d="M168.691 59.8472H163.872C163.327 59.8472 162.885 60.2785 162.885 60.8107V81.0728C162.885 81.6049 163.327 82.0363 163.872 82.0363H168.691C169.237 82.0363 169.679 81.6049 169.679 81.0728V60.8107C169.679 60.2785 169.237 59.8472 168.691 59.8472Z" fill="#7F7F7F"/>
<path d="M168.705 60.0882C168.91 60.0882 169.105 60.1673 169.25 60.3081C169.394 60.449 169.475 60.64 169.475 60.8392V81.1155C169.475 81.2134 169.455 81.3104 169.416 81.4008C169.377 81.4911 169.32 81.5729 169.249 81.6415C169.177 81.7102 169.092 81.7641 168.999 81.8003C168.906 81.8365 168.806 81.8542 168.705 81.8523H163.871C163.771 81.8542 163.671 81.8365 163.578 81.8003C163.485 81.7641 163.4 81.7102 163.328 81.6415C163.257 81.5729 163.2 81.4911 163.161 81.4008C163.122 81.3104 163.102 81.2134 163.102 81.1155V60.8108C163.102 60.6117 163.183 60.4207 163.327 60.2798C163.472 60.139 163.667 60.0598 163.871 60.0598H168.705V60.0882ZM168.705 59.6348H163.871C163.552 59.6348 163.245 59.7587 163.019 59.9792C162.793 60.1998 162.667 60.4989 162.667 60.8108V81.0871C162.67 81.3966 162.799 81.6921 163.025 81.9096C163.25 82.1271 163.554 82.249 163.871 82.249H168.705C169.023 82.249 169.327 82.1271 169.552 81.9096C169.778 81.6921 169.907 81.3966 169.91 81.0871V60.8108C169.91 60.4989 169.783 60.1998 169.557 59.9792C169.331 59.7587 169.025 59.6348 168.705 59.6348Z" fill="#7F7F7F"/>
<path d="M168.458 60.2583C168.628 60.3013 168.786 60.3785 168.923 60.485C169.075 60.6261 169.189 60.8012 169.257 60.9951C169.362 61.2956 169.407 61.6133 169.387 61.9303C169.387 62.2704 169.387 62.7663 169.387 63.4323L169.01 62.3837C168.891 61.8875 168.701 61.4103 168.444 60.9668C168.252 60.7556 168.017 60.5851 167.755 60.4657C167.493 60.3463 167.209 60.2806 166.919 60.2725C167.423 60.1394 167.952 60.1345 168.458 60.2583Z" fill="white"/>
</svg>
