<svg width="230" height="165" viewBox="0 0 230 165" fill="none" xmlns="http://www.w3.org/2000/svg">
<rect width="230" height="165" rx="6.7" fill="white"/>
<path d="M89.1558 139.456L85.4918 148H83.4278L79.7637 139.456H81.8438L84.4998 145.792L87.2358 139.456H89.1558ZM90.4058 139.456H92.4058V148H90.4058V139.456ZM91.4138 138.048C91.0511 138.048 90.7471 137.936 90.5018 137.712C90.2564 137.477 90.1338 137.189 90.1338 136.848C90.1338 136.507 90.2564 136.224 90.5018 136C90.7471 135.765 91.0511 135.648 91.4138 135.648C91.7764 135.648 92.0804 135.76 92.3258 135.984C92.5711 136.197 92.6938 136.469 92.6938 136.8C92.6938 137.152 92.5711 137.451 92.3258 137.696C92.0911 137.931 91.7871 138.048 91.4138 138.048ZM97.6708 148.112C96.9774 148.112 96.3001 148.021 95.6388 147.84C94.9774 147.659 94.4494 147.429 94.0548 147.152L94.8228 145.632C95.2068 145.888 95.6654 146.096 96.1988 146.256C96.7428 146.405 97.2761 146.48 97.7988 146.48C98.9934 146.48 99.5908 146.165 99.5908 145.536C99.5908 145.237 99.4361 145.029 99.1268 144.912C98.8281 144.795 98.3428 144.683 97.6708 144.576C96.9668 144.469 96.3908 144.347 95.9428 144.208C95.5054 144.069 95.1214 143.829 94.7908 143.488C94.4708 143.136 94.3108 142.651 94.3108 142.032C94.3108 141.221 94.6468 140.576 95.3188 140.096C96.0014 139.605 96.9188 139.36 98.0708 139.36C98.6574 139.36 99.2441 139.429 99.8308 139.568C100.417 139.696 100.897 139.872 101.271 140.096L100.503 141.616C99.7774 141.189 98.9614 140.976 98.0548 140.976C97.4681 140.976 97.0201 141.067 96.7108 141.248C96.4121 141.419 96.2628 141.648 96.2628 141.936C96.2628 142.256 96.4228 142.485 96.7428 142.624C97.0734 142.752 97.5801 142.875 98.2628 142.992C98.9454 143.099 99.5054 143.221 99.9428 143.36C100.38 143.499 100.753 143.733 101.063 144.064C101.383 144.395 101.543 144.864 101.543 145.472C101.543 146.272 101.196 146.912 100.503 147.392C99.8094 147.872 98.8654 148.112 97.6708 148.112ZM111.537 139.456V148H109.633V146.912C109.313 147.296 108.913 147.595 108.433 147.808C107.953 148.011 107.436 148.112 106.881 148.112C105.74 148.112 104.838 147.797 104.177 147.168C103.526 146.528 103.201 145.584 103.201 144.336V139.456H105.201V144.064C105.201 144.832 105.372 145.408 105.713 145.792C106.065 146.165 106.561 146.352 107.201 146.352C107.916 146.352 108.481 146.133 108.897 145.696C109.324 145.248 109.537 144.608 109.537 143.776V139.456H111.537ZM117.42 139.36C118.678 139.36 119.638 139.664 120.3 140.272C120.972 140.869 121.308 141.776 121.308 142.992V148H119.42V146.96C119.174 147.333 118.822 147.621 118.364 147.824C117.916 148.016 117.372 148.112 116.732 148.112C116.092 148.112 115.532 148.005 115.052 147.792C114.572 147.568 114.198 147.264 113.932 146.88C113.676 146.485 113.548 146.043 113.548 145.552C113.548 144.784 113.83 144.171 114.396 143.712C114.972 143.243 115.873 143.008 117.1 143.008H119.308V142.88C119.308 142.283 119.126 141.824 118.764 141.504C118.412 141.184 117.884 141.024 117.18 141.024C116.7 141.024 116.225 141.099 115.756 141.248C115.297 141.397 114.908 141.605 114.588 141.872L113.804 140.416C114.252 140.075 114.79 139.813 115.42 139.632C116.049 139.451 116.716 139.36 117.42 139.36ZM117.148 146.656C117.649 146.656 118.092 146.544 118.476 146.32C118.87 146.085 119.148 145.755 119.308 145.328V144.336H117.244C116.092 144.336 115.516 144.715 115.516 145.472C115.516 145.835 115.66 146.123 115.948 146.336C116.236 146.549 116.636 146.656 117.148 146.656ZM123.875 136.128H125.875V148H123.875V136.128ZM128.5 139.456H130.5V148H128.5V139.456ZM129.508 138.048C129.145 138.048 128.841 137.936 128.596 137.712C128.35 137.477 128.228 137.189 128.228 136.848C128.228 136.507 128.35 136.224 128.596 136C128.841 135.765 129.145 135.648 129.508 135.648C129.87 135.648 130.174 135.76 130.42 135.984C130.665 136.197 130.788 136.469 130.788 136.8C130.788 137.152 130.665 137.451 130.42 137.696C130.185 137.931 129.881 138.048 129.508 138.048ZM139.797 146.4V148H132.421V146.736L137.109 141.056H132.517V139.456H139.669V140.72L134.965 146.4H139.797ZM149.547 143.776C149.547 143.915 149.536 144.112 149.515 144.368H142.811C142.928 144.997 143.232 145.499 143.723 145.872C144.224 146.235 144.843 146.416 145.579 146.416C146.518 146.416 147.291 146.107 147.899 145.488L148.971 146.72C148.587 147.179 148.102 147.525 147.515 147.76C146.928 147.995 146.267 148.112 145.531 148.112C144.592 148.112 143.766 147.925 143.051 147.552C142.336 147.179 141.782 146.661 141.387 146C141.003 145.328 140.811 144.571 140.811 143.728C140.811 142.896 140.998 142.149 141.371 141.488C141.755 140.816 142.283 140.293 142.955 139.92C143.627 139.547 144.384 139.36 145.227 139.36C146.059 139.36 146.8 139.547 147.451 139.92C148.112 140.283 148.624 140.8 148.987 141.472C149.36 142.133 149.547 142.901 149.547 143.776ZM145.227 140.96C144.587 140.96 144.043 141.152 143.595 141.536C143.158 141.909 142.891 142.411 142.795 143.04H147.643C147.558 142.421 147.296 141.92 146.859 141.536C146.422 141.152 145.878 140.96 145.227 140.96Z" fill="black"/>
<path d="M75.5871 41.7993C74.9283 42.4128 75.3026 44.1803 76.3358 45.1297C76.9119 45.541 77.5891 45.7968 78.2989 45.8712C79.0087 45.9455 79.7261 45.8359 80.3786 45.5533C81.0529 45.2641 81.6588 44.8425 82.1586 44.3147C82.6584 43.787 83.0414 43.1644 83.2836 42.4858C83.7094 41.4485 83.8284 40.3156 83.6272 39.2156C83.4261 38.1156 82.9128 37.0927 82.1456 36.2631C79.8995 34.0866 76.4705 34.9338 75.5122 35.1676C73.515 35.6781 71.7264 36.7739 70.3877 38.3072C69.0489 39.8404 68.2244 41.7373 68.0254 43.742C67.5762 49.585 73.2363 52.8862 73.5807 53.0761C76.2154 54.4585 79.299 54.7834 82.1756 53.9818C84.0751 53.3779 85.809 52.3605 87.2462 51.0066C88.6833 49.6527 89.7859 47.9977 90.4708 46.1668C91.2195 44.2241 91.1897 42.2667 91.1597 38.3373C91.1393 35.8941 90.9591 33.4546 90.6205 31.0337H85.4697C86.7416 34.2075 87.5091 37.5522 87.7457 40.952C87.8795 42.7316 87.5336 44.5143 86.7424 46.123V46.2691C85.5853 48.2646 83.7137 49.773 81.4866 50.5052C79.5158 51.1162 77.3832 50.9966 75.4972 50.1692C74.5919 49.8014 73.7747 49.2546 73.0969 48.5632C72.4191 47.8718 71.8954 47.0509 71.5591 46.1522C71.3048 45.3214 71.2215 44.4496 71.314 43.5872C71.4065 42.7248 71.673 41.8888 72.0982 41.1273C72.5347 40.3877 73.1255 39.7455 73.8322 39.2423C74.5389 38.7391 75.3459 38.386 76.2011 38.2059C76.7813 38.0525 77.3909 38.0388 77.9778 38.166C78.5646 38.2933 79.1111 38.5576 79.5702 38.9362C80.4536 39.8565 80.6931 41.5071 80.0193 42.106C78.9711 42.9532 76.4855 40.9374 75.5871 41.7993Z" fill="#AC60B2"/>
<path d="M105.596 41.7991C106.255 42.4126 105.895 44.1801 104.847 45.1296C104.271 45.5409 103.594 45.7966 102.884 45.871C102.174 45.9454 101.457 45.8358 100.804 45.5532C100.13 45.264 99.5241 44.8423 99.0244 44.3146C98.5246 43.7868 98.1417 43.1642 97.8995 42.4856C97.4737 41.4484 97.3545 40.3154 97.5557 39.2155C97.7569 38.1155 98.2703 37.0926 99.0375 36.2629C101.284 34.0865 104.712 34.9337 105.671 35.1674C107.666 35.6817 109.452 36.7787 110.79 38.3112C112.128 39.8437 112.954 41.7385 113.158 43.7419C113.592 49.5848 107.932 52.886 107.587 53.0759C104.932 54.4505 101.83 54.7546 98.9476 53.9232C97.048 53.3193 95.3141 52.3019 93.877 50.948C92.4399 49.5941 91.3371 47.9391 90.6521 46.1083C89.9035 44.1655 89.9335 42.2081 89.9634 38.2787C89.9838 35.8355 90.1639 33.396 90.5024 30.9751H95.6833C94.4114 34.1489 93.644 37.4936 93.4074 40.8935C93.2736 42.673 93.6194 44.4557 94.4105 46.0644V46.2105C95.5677 48.206 97.4392 49.7144 99.6663 50.4466C101.637 51.0576 103.77 50.938 105.656 50.1107C106.561 49.7428 107.378 49.196 108.056 48.5046C108.734 47.8132 109.257 46.9923 109.594 46.0936C109.848 45.2628 109.931 44.3911 109.839 43.5286C109.746 42.6662 109.48 41.8302 109.055 41.0687C108.618 40.3291 108.028 39.6869 107.321 39.1837C106.614 38.6805 105.807 38.3275 104.952 38.1473C104.374 37.9939 103.767 37.9802 103.182 38.1075C102.598 38.2348 102.054 38.4991 101.598 38.8776C100.7 39.7979 100.46 41.4485 101.134 42.0474C102.212 42.9531 104.652 40.9373 105.596 41.7991Z" fill="#AC60B2"/>
<path d="M75.5871 64.2507C74.9283 63.6372 75.3026 61.8697 76.3358 60.9202C76.9119 60.5089 77.5891 60.2532 78.2989 60.1788C79.0087 60.1044 79.7261 60.2141 80.3786 60.4966C81.0529 60.7858 81.6588 61.2075 82.1586 61.7352C82.6584 62.263 83.0414 62.8856 83.2836 63.5642C83.7094 64.6014 83.8284 65.7344 83.6272 66.8344C83.4261 67.9343 82.9128 68.9572 82.1456 69.7869C79.8995 71.9634 76.4705 71.1161 75.5122 70.8824C73.515 70.3718 71.7264 69.276 70.3877 67.7428C69.0489 66.2095 68.2244 64.3126 68.0254 62.3079C67.5762 56.465 73.2363 53.1638 73.5807 52.9739C76.213 51.5839 79.2997 51.2587 82.1756 52.0682C84.0751 52.6721 85.809 53.6895 87.2462 55.0434C88.6833 56.3973 89.7859 58.0523 90.4708 59.8831C91.2195 61.8259 91.1897 63.7833 91.1597 67.7126C91.1393 70.1559 90.9591 72.5954 90.6205 75.0163H85.4697C86.7416 71.8425 87.5091 68.4978 87.7457 65.0979C87.8795 63.3184 87.5336 61.5357 86.7424 59.9269V59.7809C85.5908 57.7809 83.7172 56.2708 81.4866 55.5448C79.5158 54.9337 77.3832 55.0534 75.4972 55.8807C74.5919 56.2486 73.7747 56.7954 73.0969 57.4868C72.4191 58.1782 71.8954 58.9991 71.5591 59.8977C71.3048 60.7286 71.2215 61.6003 71.314 62.4627C71.4065 63.3251 71.673 64.1612 72.0982 64.9226C72.5347 65.6623 73.1255 66.3044 73.8322 66.8076C74.5389 67.3108 75.3459 67.6639 76.2011 67.8441C76.7813 67.9975 77.3909 68.0112 77.9778 67.8839C78.5646 67.7567 79.1111 67.4924 79.5702 67.1137C80.4536 66.1935 80.6931 64.5429 80.0193 63.944C78.9711 63.0967 76.4855 65.1125 75.5871 64.2507Z" fill="#AC60B2"/>
<path d="M105.595 64.2507C106.254 63.6372 105.895 61.8697 104.847 60.9202C104.27 60.5089 103.593 60.2532 102.883 60.1788C102.174 60.1044 101.456 60.2141 100.804 60.4966C100.13 60.7858 99.5236 61.2075 99.0238 61.7352C98.524 62.263 98.1412 62.8856 97.899 63.5642C97.4732 64.6014 97.354 65.7344 97.5552 66.8344C97.7563 67.9343 98.2698 68.9572 99.037 69.7869C101.283 71.9634 104.712 71.1161 105.67 70.8824C107.665 70.3681 109.452 69.2712 110.79 67.7386C112.128 66.2061 112.954 64.3113 113.157 62.3079C113.591 56.465 107.931 53.1638 107.587 52.9739C104.955 51.5839 101.868 51.2587 98.992 52.0682C97.0925 52.6721 95.3586 53.6895 93.9214 55.0434C92.4843 56.3973 91.3815 58.0523 90.6966 59.8831C89.9479 61.8259 89.9779 63.7833 90.0078 67.7126C90.0283 70.1559 90.2083 72.5954 90.5469 75.0163H95.7277C94.4558 71.8425 93.6883 68.4978 93.4517 65.0979C93.3179 63.3184 93.6638 61.5357 94.455 59.9269V59.7809C95.6066 57.7809 97.4802 56.2708 99.7107 55.5448C101.682 54.9337 103.814 55.0534 105.7 55.8807C106.605 56.2486 107.423 56.7954 108.1 57.4868C108.778 58.1782 109.302 58.9991 109.638 59.8977C109.893 60.7286 109.976 61.6003 109.883 62.4627C109.791 63.3251 109.524 64.1612 109.099 64.9226C108.663 65.6623 108.072 66.3044 107.365 66.8076C106.658 67.3108 105.852 67.6639 104.996 67.8441C104.419 67.9975 103.811 68.0112 103.227 67.8839C102.642 67.7566 102.098 67.4923 101.642 67.1137C100.744 66.1935 100.504 64.5429 101.178 63.944C102.211 63.0967 104.652 65.1125 105.595 64.2507Z" fill="#AC60B2"/>
<path d="M127.396 69.144C128.025 69.7867 129.837 69.4361 130.81 68.4282C131.229 67.8649 131.489 67.2045 131.565 66.5126C131.642 65.8207 131.531 65.1215 131.244 64.4842C130.951 63.8246 130.52 63.2318 129.978 62.7439C129.437 62.2559 128.797 61.8835 128.1 61.6504C127.039 61.2192 125.874 61.0946 124.743 61.2914C123.612 61.4882 122.563 61.9982 121.721 62.7606C119.49 64.9517 120.358 68.2967 120.598 69.217C121.121 71.1653 122.245 72.9101 123.816 74.2161C125.388 75.5221 127.332 76.3265 129.387 76.5207C135.377 76.9589 138.761 71.4373 138.956 71.0867C140.373 68.522 140.706 65.518 139.884 62.7168C139.271 60.8606 138.23 59.1661 136.841 57.7633C135.453 56.3605 133.753 55.2867 131.873 54.6243C129.882 53.8939 127.875 53.9232 123.847 53.9524C121.343 53.9681 118.842 54.1388 116.36 54.4636V59.5324C119.617 58.2855 123.052 57.5366 126.542 57.3121C128.367 57.176 130.196 57.5137 131.843 58.2907C131.896 58.3091 131.946 58.3336 131.993 58.3638C134.041 59.4894 135.588 61.3163 136.335 63.4909C136.957 65.4141 136.835 67.493 135.991 69.3339C135.618 70.2194 135.058 71.0187 134.349 71.6804C133.64 72.3421 132.796 72.8515 131.873 73.1756C131.023 73.4291 130.129 73.5145 129.245 73.4267C128.36 73.3389 127.503 73.0797 126.722 72.6643C125.962 72.2406 125.302 71.665 124.786 70.9753C124.27 70.2855 123.909 69.4972 123.727 68.6619C123.57 68.0959 123.556 67.5011 123.687 66.9286C123.817 66.3561 124.088 65.8231 124.476 65.3753C125.419 64.4988 127.111 64.2797 127.725 64.9225C128.534 65.8427 126.468 68.2383 127.396 69.144Z" fill="#DD4E99"/>
<path d="M127.396 39.8857C128.025 39.243 129.837 39.5935 130.81 40.6014C131.229 41.1647 131.489 41.8251 131.565 42.517C131.642 43.2089 131.531 43.9082 131.244 44.5454C130.951 45.2051 130.52 45.7978 129.978 46.2858C129.437 46.7737 128.797 47.1461 128.1 47.3792C127.039 47.8105 125.874 47.9351 124.743 47.7383C123.612 47.5414 122.563 47.0314 121.721 46.2691C119.49 44.078 120.358 40.7329 120.598 39.8127C121.121 37.8644 122.245 36.1195 123.816 34.8135C125.388 33.5075 127.332 32.7032 129.387 32.509C135.377 32.0854 138.761 37.607 138.956 37.9429C140.373 40.5077 140.706 43.5117 139.884 46.3129C139.267 48.1687 138.225 49.8631 136.837 51.2677C135.449 52.6723 133.751 53.7503 131.873 54.42C129.882 55.1357 127.875 55.1211 123.847 55.0773C121.343 55.0616 118.842 54.8908 116.36 54.566V49.5411C119.615 50.795 123.05 51.5442 126.542 51.7614C128.365 51.8965 130.193 51.5641 131.843 50.7973L131.993 50.7243C134.04 49.5909 135.587 47.7599 136.335 45.5825C136.957 43.6594 136.835 41.5805 135.991 39.7396C135.618 38.8541 135.058 38.0548 134.349 37.3931C133.64 36.7314 132.796 36.222 131.873 35.8979C131.023 35.6443 130.129 35.559 129.245 35.6468C128.36 35.7345 127.503 35.9937 126.722 36.4092C125.961 36.8345 125.3 37.4123 124.784 38.1047C124.267 38.7971 123.908 39.5883 123.727 40.4262C123.56 40.9841 123.534 41.5732 123.651 42.1431C123.769 42.713 124.026 43.2466 124.401 43.6982C125.345 44.5746 127.037 44.7937 127.651 44.151C128.534 43.1869 126.468 40.7767 127.396 39.8857Z" fill="#DD4E99"/>
<path d="M150.368 69.1439C149.739 69.7866 147.927 69.436 146.954 68.4281C146.532 67.8661 146.27 67.2055 146.193 66.513C146.117 65.8206 146.23 65.1207 146.519 64.4842C146.813 63.8269 147.242 63.2359 147.781 62.7482C148.319 62.2606 148.955 61.8868 149.649 61.6503C150.713 61.2268 151.879 61.1063 153.01 61.3028C154.142 61.4993 155.193 62.0047 156.043 62.7605C158.274 64.9516 157.405 68.2967 157.166 69.2169C156.642 71.1652 155.519 72.91 153.947 74.216C152.375 75.522 150.431 76.3264 148.376 76.5206C142.387 76.9588 139.003 71.4372 138.793 71.0867C137.371 68.5123 137.043 65.4957 137.88 62.6875C138.493 60.8339 139.532 59.1414 140.918 57.7389C142.304 56.3365 143.999 55.2612 145.875 54.595C147.867 53.8646 149.888 53.8939 153.901 53.9231C156.405 53.9395 158.906 54.1102 161.388 54.4343V59.5031C158.137 58.2552 154.707 57.5062 151.221 57.2828C149.392 57.1496 147.559 57.4871 145.905 58.2614L145.771 58.3345C143.718 59.4546 142.169 61.2836 141.428 63.4616C140.798 65.3837 140.92 67.4657 141.773 69.3046C142.146 70.19 142.705 70.9894 143.414 71.6511C144.123 72.3128 144.967 72.8222 145.89 73.1463C146.741 73.399 147.634 73.484 148.519 73.3962C149.403 73.3084 150.261 73.0497 151.041 72.635C151.8 72.2091 152.458 71.6329 152.974 70.9435C153.489 70.2541 153.851 69.4669 154.036 68.6326C154.201 68.0682 154.22 67.4729 154.092 66.8996C153.964 66.3262 153.693 65.7926 153.302 65.346C152.359 64.4695 150.667 64.2504 150.053 64.8932C149.185 65.8426 151.251 68.2382 150.368 69.1439Z" fill="#DD4E99"/>
<path d="M150.365 39.8857C149.736 39.243 147.925 39.5935 146.951 40.6014C146.53 41.1635 146.267 41.8241 146.191 42.5165C146.115 43.209 146.227 43.9089 146.517 44.5454C146.81 45.2027 147.24 45.7937 147.778 46.2814C148.317 46.769 148.953 47.1428 149.647 47.3792C150.711 47.8028 151.877 47.9233 153.008 47.7268C154.14 47.5303 155.191 47.0249 156.04 46.2691C158.271 44.078 157.403 40.7329 157.163 39.8127C156.64 37.8644 155.517 36.1195 153.945 34.8135C152.373 33.5075 150.429 32.7032 148.374 32.509C142.384 32.0854 139 37.607 138.791 37.9429C137.376 40.5092 137.049 43.5137 137.877 46.3129C138.494 48.1667 139.534 49.8596 140.919 51.264C142.304 52.6683 143.998 53.7475 145.873 54.42C147.865 55.1357 149.886 55.1211 153.899 55.0773C156.403 55.0609 158.904 54.8901 161.386 54.566V49.5411C158.137 50.7961 154.706 51.5453 151.219 51.7614C149.391 51.895 147.559 51.5628 145.903 50.7973L145.768 50.7243C143.716 49.5963 142.168 47.7633 141.426 45.5825C140.795 43.6605 140.918 41.5785 141.77 39.7396C142.144 38.8541 142.703 38.0548 143.412 37.3931C144.121 36.7314 144.965 36.222 145.888 35.8979C146.739 35.6452 147.632 35.5602 148.516 35.648C149.401 35.7358 150.258 35.9945 151.039 36.4092C151.799 36.8366 152.458 37.4151 152.974 38.1072C153.49 38.7992 153.851 39.5893 154.034 40.4262C154.197 40.9883 154.216 41.5811 154.088 42.1519C153.96 42.7227 153.689 43.2538 153.3 43.6982C152.357 44.5746 150.665 44.7937 150.051 44.151C149.182 43.1869 151.249 40.7767 150.365 39.8857Z" fill="#DD4E99"/>
<path d="M153.856 89.3896C154.515 89.9885 154.155 91.7706 153.107 92.7201C152.529 93.1276 151.851 93.3799 151.142 93.4517C150.432 93.5235 149.716 93.4122 149.064 93.1291C148.389 92.8445 147.783 92.4261 147.283 91.9006C146.783 91.375 146.4 90.7537 146.159 90.0761C145.733 89.0389 145.614 87.9059 145.815 86.8059C146.017 85.706 146.53 84.6831 147.297 83.8534C149.543 81.677 152.987 82.5242 153.93 82.7579C155.928 83.2685 157.716 84.3643 159.055 85.8975C160.394 87.4308 161.218 89.3277 161.417 91.3324C161.851 97.1753 156.192 100.477 155.847 100.666C153.212 102.049 150.129 102.374 147.252 101.572C145.354 100.966 143.621 99.9482 142.184 98.5946C140.747 97.2409 139.644 95.587 138.957 93.7572C138.208 91.8144 138.238 89.8424 138.268 85.9277C138.287 83.4844 138.467 81.0448 138.807 78.624H143.988C142.718 81.7984 141.951 85.1428 141.712 88.5424C141.581 90.3265 141.927 92.1132 142.715 93.728C142.718 93.7766 142.718 93.8254 142.715 93.874C143.872 95.8667 145.744 97.3707 147.971 98.0955C149.942 98.7066 152.074 98.587 153.96 97.7596C154.869 97.3964 155.689 96.8511 156.367 96.1591C157.045 95.4672 157.567 94.6439 157.898 93.7426C158.157 92.9148 158.243 92.0447 158.151 91.184C158.058 90.3233 157.789 89.4895 157.359 88.7323C156.927 87.9891 156.338 87.3442 155.631 86.8405C154.923 86.3368 154.114 85.9858 153.257 85.8108C152.68 85.658 152.074 85.6432 151.49 85.7678C150.906 85.8924 150.361 86.1527 149.903 86.5266C149.004 87.4614 148.765 89.1121 149.438 89.711C150.472 90.529 152.852 88.5132 153.856 89.3896Z" fill="#AC60B2"/>
<path d="M123.847 89.3896C123.189 89.9885 123.563 91.7706 124.596 92.7201C125.174 93.1276 125.852 93.3799 126.562 93.4517C127.271 93.5235 127.987 93.4122 128.639 93.1291C129.314 92.8445 129.92 92.4261 130.42 91.9006C130.921 91.375 131.303 90.7537 131.544 90.0761C131.97 89.0389 132.089 87.9059 131.887 86.8059C131.686 85.706 131.173 84.6831 130.406 83.8534C128.16 81.677 124.731 82.5242 123.772 82.7579C121.774 83.2666 119.985 84.3618 118.646 85.8954C117.306 87.4291 116.483 89.327 116.286 91.3324C115.836 97.1753 121.497 100.477 121.841 100.666C124.476 102.049 127.559 102.374 130.436 101.572C132.334 100.966 134.067 99.9482 135.504 98.5946C136.941 97.2409 138.044 95.587 138.731 93.7572C139.48 91.8144 139.45 89.8424 139.42 85.9277C139.401 83.4844 139.221 81.0448 138.881 78.624H133.7C134.97 81.7984 135.737 85.1428 135.976 88.5424C136.107 90.3265 135.761 92.1132 134.973 93.728C134.97 93.7766 134.97 93.8254 134.973 93.874C133.821 95.8704 131.947 97.3756 129.717 98.0955C127.746 98.7066 125.614 98.587 123.728 97.7596C122.821 97.3941 122.002 96.848 121.324 96.1563C120.646 95.4646 120.123 94.6425 119.79 93.7426C119.534 92.9143 119.45 92.0448 119.542 91.1845C119.635 90.3243 119.902 89.4907 120.329 88.7323C120.763 87.9909 121.353 87.3474 122.06 86.8439C122.767 86.3405 123.575 85.9884 124.431 85.8108C125.011 85.658 125.619 85.6432 126.205 85.7678C126.792 85.8923 127.339 86.1526 127.8 86.5266C128.684 87.4614 128.923 89.1121 128.25 89.711C127.231 90.529 124.791 88.5132 123.847 89.3896Z" fill="#AC60B2"/>
<path d="M153.856 111.841C154.515 111.227 154.155 109.445 153.107 108.496C152.529 108.088 151.851 107.836 151.142 107.764C150.432 107.692 149.716 107.804 149.064 108.087C148.389 108.371 147.783 108.79 147.283 109.315C146.783 109.841 146.4 110.462 146.159 111.14C145.734 112.18 145.615 113.315 145.816 114.417C146.017 115.519 146.53 116.544 147.297 117.377C149.543 119.539 152.987 118.706 153.93 118.473C155.928 117.957 157.716 116.858 159.054 115.323C160.392 113.788 161.217 111.89 161.417 109.884C161.851 104.041 156.192 100.739 155.847 100.55C153.212 99.1672 150.129 98.8422 147.252 99.6439C145.355 100.252 143.623 101.27 142.186 102.624C140.75 103.977 139.646 105.63 138.957 107.459C138.208 109.402 138.238 111.374 138.268 115.288C138.287 117.732 138.467 120.171 138.807 122.592H143.988C142.716 119.418 141.949 116.073 141.712 112.674C141.581 110.89 141.927 109.103 142.715 107.488C142.718 107.439 142.718 107.391 142.715 107.342C143.872 105.349 145.744 103.845 147.971 103.12C149.942 102.509 152.074 102.629 153.96 103.456C154.869 103.82 155.689 104.365 156.367 105.057C157.045 105.749 157.567 106.572 157.898 107.473C158.157 108.301 158.243 109.171 158.151 110.032C158.058 110.893 157.789 111.726 157.359 112.484C156.927 113.227 156.338 113.872 155.631 114.375C154.923 114.879 154.114 115.23 153.257 115.405C152.68 115.558 152.074 115.573 151.49 115.448C150.906 115.324 150.361 115.063 149.903 114.689C149.004 113.755 148.765 112.104 149.438 111.505C150.472 110.687 152.852 112.703 153.856 111.841Z" fill="#AC60B2"/>
<path d="M123.847 111.841C123.189 111.227 123.563 109.445 124.596 108.496C125.174 108.088 125.852 107.836 126.562 107.764C127.271 107.692 127.987 107.804 128.639 108.087C129.314 108.371 129.92 108.79 130.42 109.315C130.921 109.841 131.303 110.462 131.544 111.14C131.969 112.18 132.088 113.315 131.887 114.417C131.686 115.519 131.173 116.544 130.406 117.377C128.16 119.539 124.731 118.706 123.772 118.473C121.774 117.959 119.985 116.861 118.646 115.325C117.308 113.789 116.484 111.89 116.286 109.884C115.836 104.041 121.497 100.739 121.841 100.55C124.476 99.1672 127.559 98.8422 130.436 99.6439C132.333 100.252 134.065 101.27 135.502 102.624C136.938 103.977 138.042 105.63 138.731 107.459C139.48 109.402 139.45 111.374 139.42 115.288C139.401 117.732 139.221 120.171 138.881 122.592H133.7C134.972 119.418 135.739 116.073 135.976 112.674C136.107 110.89 135.761 109.103 134.973 107.488C134.97 107.439 134.97 107.391 134.973 107.342C133.821 105.346 131.947 103.84 129.717 103.12C127.746 102.509 125.614 102.629 123.728 103.456C122.821 103.822 122.002 104.368 121.324 105.06C120.646 105.751 120.123 106.573 119.79 107.473C119.534 108.302 119.45 109.171 119.542 110.031C119.635 110.892 119.902 111.725 120.329 112.484C120.763 113.225 121.353 113.869 122.06 114.372C122.767 114.876 123.575 115.228 124.431 115.405C125.011 115.558 125.619 115.573 126.205 115.448C126.792 115.324 127.339 115.063 127.8 114.689C128.684 113.755 128.923 112.104 128.25 111.505C127.231 110.687 124.791 112.703 123.847 111.841Z" fill="#AC60B2"/>
<path d="M102.09 116.735C101.476 117.377 99.6496 117.027 98.6763 116.004C98.2555 115.444 97.995 114.785 97.9214 114.095C97.8477 113.404 97.9636 112.707 98.2571 112.075C98.5385 111.4 98.9626 110.791 99.5019 110.288C100.041 109.785 100.683 109.398 101.387 109.153C102.451 108.736 103.614 108.621 104.742 108.82C105.87 109.019 106.918 109.524 107.765 110.278C109.996 112.455 109.128 115.814 108.888 116.735C108.365 118.683 107.242 120.428 105.67 121.734C104.098 123.04 102.154 123.844 100.099 124.038C94.1094 124.462 90.7254 118.94 90.5307 118.604C89.1145 116.039 88.7814 113.036 89.6023 110.234C90.2214 108.38 91.264 106.686 92.6517 105.282C94.0394 103.877 95.7359 102.799 97.6132 102.127C99.6047 101.397 101.611 101.426 105.639 101.455C108.143 101.482 110.644 101.658 113.126 101.981V107.094C109.872 105.855 106.444 105.106 102.959 104.873C101.13 104.744 99.2978 105.081 97.6432 105.852H97.4935C95.448 106.984 93.9059 108.816 93.1661 110.994C92.535 112.915 92.6523 114.995 93.4955 116.837C93.8701 117.721 94.43 118.52 95.139 119.181C95.8481 119.843 96.6907 120.353 97.6132 120.679C98.4643 120.931 99.3586 121.014 100.243 120.924C101.128 120.833 101.985 120.571 102.764 120.153C103.526 119.731 104.187 119.156 104.703 118.466C105.22 117.776 105.58 116.987 105.759 116.15C105.916 115.587 105.93 114.994 105.8 114.424C105.669 113.854 105.398 113.323 105.01 112.878C104.067 112.002 102.375 111.768 101.761 112.425C100.922 113.433 102.974 115.814 102.09 116.735Z" fill="#DD4E99"/>
<path d="M102.091 87.5201C101.477 86.8774 99.6507 87.2425 98.6774 88.2505C98.2567 88.8132 97.9965 89.4746 97.9228 90.1673C97.8492 90.86 97.9649 91.5594 98.2582 92.1944C98.5476 92.8541 98.9756 93.4472 99.5147 93.9353C100.054 94.4235 100.692 94.7958 101.388 95.0282C102.451 95.4436 103.612 95.5598 104.74 95.3635C105.867 95.1673 106.916 94.6665 107.766 93.9181C109.998 91.727 109.129 88.3819 108.889 87.4471C108.368 85.4978 107.245 83.7518 105.673 82.4455C104.101 81.1392 102.156 80.3356 100.1 80.1434C94.1105 79.7052 90.7265 85.2267 90.5318 85.5773C89.1141 88.1421 88.7809 91.1461 89.6034 93.9473C90.2245 95.7994 91.268 97.4898 92.6556 98.8916C94.0431 100.293 95.7386 101.37 97.6143 102.04C99.6058 102.77 101.612 102.741 105.64 102.712C108.145 102.692 110.645 102.517 113.127 102.186V97.1025C109.873 98.3413 106.445 99.0899 102.96 99.3228C101.131 99.4525 99.2989 99.1152 97.6443 98.3441H97.4946C95.4482 97.2201 93.9051 95.3919 93.1672 93.2169C92.5403 91.2956 92.6575 89.2167 93.4965 87.374C93.8736 86.4909 94.4342 85.6936 95.1429 85.0324C95.8516 84.3712 96.6931 83.8604 97.6143 83.5323C98.4659 83.2834 99.3597 83.2017 100.244 83.292C101.128 83.3822 101.985 83.6426 102.765 84.0582C103.525 84.4819 104.185 85.0575 104.701 85.7472C105.217 86.437 105.578 87.2253 105.76 88.0606C105.917 88.6266 105.931 89.2214 105.801 89.7939C105.67 90.3664 105.4 90.8994 105.011 91.3472C104.068 92.209 102.376 92.4427 101.762 91.7854C100.923 90.7629 102.975 88.3819 102.091 87.5201Z" fill="#DD4E99"/>
<path d="M79.0762 116.735C79.7051 117.377 81.517 117.027 82.4903 116.004C82.912 115.445 83.1744 114.787 83.2506 114.097C83.3269 113.406 83.2144 112.709 82.9246 112.075C82.6416 111.401 82.2167 110.793 81.6776 110.29C81.1385 109.787 80.4971 109.4 79.7949 109.153C78.7283 108.737 77.5632 108.622 76.4326 108.82C75.302 109.019 74.2515 109.524 73.4012 110.278C71.1701 112.455 72.0386 115.814 72.2781 116.735C72.8044 118.684 73.9306 120.429 75.5048 121.735C77.0791 123.041 79.0257 123.845 81.0826 124.038C87.0721 124.462 90.4412 118.94 90.6508 118.604C92.067 116.039 92.4001 113.036 91.5792 110.234C90.9581 108.381 89.9149 106.688 88.5274 105.284C87.14 103.88 85.4445 102.801 83.5683 102.127C81.5768 101.397 79.5554 101.426 75.5425 101.455C73.0382 101.481 70.5379 101.657 68.0557 101.981V107.094C71.309 105.853 74.7377 105.104 78.2228 104.873C80.0516 104.746 81.883 105.083 83.5383 105.852H83.6882C85.7337 106.984 87.2756 108.816 88.0154 110.994C88.6461 112.916 88.5234 114.998 87.6711 116.837C87.2964 117.721 86.7367 118.52 86.0277 119.181C85.3186 119.843 84.4759 120.353 83.5533 120.679C82.7048 120.931 81.8129 121.015 80.9306 120.924C80.0483 120.834 79.1937 120.572 78.4175 120.153C77.6557 119.731 76.9945 119.156 76.4781 118.466C75.9618 117.776 75.6021 116.987 75.4228 116.15C75.2622 115.588 75.2452 114.996 75.373 114.425C75.5009 113.855 75.7698 113.324 76.1564 112.878C77.0998 112.002 78.7917 111.768 79.4056 112.425C80.2591 113.433 78.1928 115.814 79.0762 116.735Z" fill="#DD4E99"/>
<path d="M79.0762 87.5201C79.7051 86.8774 81.517 87.2425 82.4903 88.2505C82.9119 88.8125 83.174 89.4731 83.2503 90.1656C83.3265 90.858 83.2142 91.5579 82.9246 92.1944C82.6329 92.8526 82.2039 93.4445 81.6652 93.9323C81.1264 94.4202 80.4895 94.7934 79.7949 95.0282C78.7294 95.4448 77.5656 95.5617 76.4354 95.3654C75.3052 95.1692 74.2539 94.6678 73.4012 93.9181C71.1701 91.727 72.0386 88.3819 72.2781 87.4471C72.8024 85.4966 73.928 83.7502 75.5026 82.444C77.0773 81.1378 79.025 80.3347 81.0826 80.1434C87.0721 79.7052 90.4412 85.2267 90.6508 85.5773C92.0685 88.1421 92.4017 91.1461 91.5792 93.9473C90.9562 95.7983 89.912 97.4879 88.5247 98.8893C87.1374 100.291 85.4429 101.368 83.5683 102.04C81.5768 102.77 79.5554 102.741 75.5425 102.712C73.0379 102.693 70.5372 102.517 68.0557 102.186V97.1025C71.309 98.3432 74.7377 99.092 78.2228 99.3228C80.0516 99.4505 81.883 99.1133 83.5383 98.3441H83.6882C85.7346 97.2201 87.2775 95.3919 88.0154 93.2169C88.6418 91.2943 88.5192 89.2139 87.6711 87.374C87.294 86.4909 86.7335 85.6936 86.0247 85.0324C85.316 84.3712 84.4745 83.8604 83.5533 83.5323C82.7043 83.283 81.8129 83.201 80.9311 83.2913C80.0493 83.3816 79.1949 83.6423 78.4175 84.0582C77.6575 84.4819 76.9977 85.0575 76.4816 85.7472C75.9655 86.437 75.6048 87.2253 75.4228 88.0606C75.2622 88.6253 75.245 89.2197 75.3729 89.7924C75.5007 90.365 75.7697 90.8987 76.1564 91.3472C77.0998 92.209 78.7917 92.4427 79.4056 91.7854C80.2591 90.7629 78.1928 88.3819 79.0762 87.5201Z" fill="#DD4E99"/>
<g opacity="0.5">
<path opacity="0.5" d="M77.1607 40.0171C76.5018 40.6306 76.8612 42.3981 77.8944 43.3475C78.4705 43.7589 79.1478 44.0146 79.8576 44.089C80.5675 44.1634 81.2848 44.0537 81.9374 43.7712C82.6111 43.4851 83.2169 43.0662 83.7168 42.5408C84.2166 42.0155 84.5998 41.3949 84.8422 40.7182C85.2763 39.68 85.4 38.5429 85.1986 37.4389C84.9972 36.3349 84.4789 35.3093 83.7041 34.4809C81.4581 32.3044 78.0293 33.1517 77.0859 33.3854C75.0888 33.8959 73.3002 34.9918 71.9614 36.525C70.6226 38.0583 69.7982 39.9552 69.5991 41.9599C69.1499 47.8028 74.8099 51.104 75.1692 51.3085C77.7999 52.6882 80.8797 53.008 83.7491 52.1996C85.6492 51.6011 87.3841 50.5873 88.8217 49.2355C90.2593 47.8837 91.3616 46.2296 92.0446 44.3993C92.7932 42.4565 92.7632 40.4845 92.7333 36.5698C92.7165 34.1269 92.5415 31.6875 92.2092 29.2661H86.9685C88.2477 32.4377 89.0154 35.7835 89.2445 39.1845C89.3814 40.9673 89.0408 42.7543 88.2562 44.3701C88.2334 44.4182 88.2032 44.4625 88.1664 44.5015C87.0182 46.5043 85.1434 48.0154 82.9107 48.7376C80.9404 49.3529 78.8062 49.2331 76.9212 48.4017C76.0135 48.0377 75.1941 47.4922 74.5158 46.8003C73.8375 46.1084 73.3154 45.2855 72.9832 44.3847C72.7241 43.5551 72.6369 42.6835 72.7269 41.8208C72.8169 40.958 73.0822 40.1214 73.5072 39.3598C73.9438 38.6201 74.5344 37.978 75.2411 37.4748C75.9478 36.9716 76.7548 36.6185 77.61 36.4383C78.1885 36.2778 78.7987 36.2592 79.3864 36.3841C79.9742 36.5089 80.5212 36.7734 80.979 37.1541C81.8774 38.0743 82.1021 39.7249 81.4433 40.3238C80.5449 41.1711 78.089 39.1553 77.1607 40.0171Z" fill="#AC60B2"/>
<path opacity="0.5" d="M107.152 40.0171C107.811 40.6306 107.451 42.3981 106.418 43.3475C105.842 43.7589 105.165 44.0146 104.455 44.089C103.745 44.1634 103.028 44.0537 102.375 43.7712C101.702 43.4851 101.096 43.0662 100.596 42.5408C100.096 42.0155 99.7127 41.3949 99.4703 40.7182C99.0362 39.68 98.9127 38.5429 99.1141 37.4389C99.3155 36.3349 99.8336 35.3093 100.608 34.4809C102.854 32.3044 106.283 33.1517 107.227 33.3854C109.224 33.8959 111.013 34.9918 112.351 36.525C113.69 38.0583 114.514 39.9552 114.714 41.9599C115.148 47.8028 109.488 51.104 109.143 51.3085C106.513 52.6882 103.433 53.008 100.563 52.1996C98.6631 51.5981 96.9278 50.5835 95.4882 49.2322C94.0486 47.881 92.9425 46.2285 92.2531 44.3993C91.5194 42.4565 91.5343 40.4845 91.5792 36.5698C91.596 34.1269 91.7712 31.6875 92.1034 29.2661H97.2992C96.02 32.4377 95.2522 35.7835 95.0232 39.1845C94.8863 40.9673 95.2269 42.7543 96.0115 44.3701L96.1013 44.5015C97.2495 46.5043 99.1243 48.0154 101.357 48.7376C103.327 49.3529 105.461 49.2331 107.346 48.4017C108.254 48.0377 109.074 47.4922 109.752 46.8003C110.43 46.1084 110.952 45.2855 111.285 44.3847C111.544 43.5551 111.631 42.6835 111.541 41.8208C111.451 40.958 111.186 40.1214 110.76 39.3598C110.324 38.6201 109.733 37.978 109.027 37.4748C108.32 36.9716 107.513 36.6185 106.658 36.4383C106.079 36.2778 105.469 36.2592 104.881 36.3841C104.293 36.5089 103.746 36.7734 103.289 37.1541C102.39 38.0743 102.166 39.7249 102.824 40.3238C103.768 41.1711 106.223 39.1553 107.152 40.0171Z" fill="#AC60B2"/>
<path opacity="0.5" d="M77.1597 62.4685C76.5009 61.855 76.8602 60.0875 77.8934 59.138C78.4708 58.7294 79.1478 58.4754 79.857 58.401C80.5663 58.3267 81.2832 58.4348 81.9364 58.7144C82.6126 59.0006 83.2202 59.4212 83.7204 59.9494C84.2205 60.4775 84.6022 61.1017 84.8412 61.7819C85.2832 62.8164 85.4111 63.953 85.2093 65.0564C85.0075 66.1597 84.4846 67.1831 83.7032 68.0046C81.4571 70.1811 78.0283 69.3339 77.0849 69.1002C75.0878 68.5896 73.2992 67.4938 71.9604 65.9605C70.6217 64.4273 69.7972 62.5304 69.5981 60.5257C69.1489 54.6828 74.8089 51.3815 75.1683 51.1916C77.7974 49.8086 80.8766 49.4836 83.7481 50.286C85.6508 50.884 87.3879 51.8993 88.8259 53.254C90.2638 54.6087 91.3645 56.2667 92.0436 58.1009C92.7923 60.0437 92.7623 62.001 92.7323 65.9304C92.7156 68.3733 92.5406 70.8127 92.2083 73.2341H86.9675C88.2456 70.0571 89.0134 66.7066 89.2435 63.3011C89.382 61.5228 89.0412 59.7402 88.2552 58.1301C88.232 58.0777 88.2019 58.0286 88.1655 57.984C87.0117 55.9859 85.1389 54.4764 82.9097 53.7479C80.9384 53.141 78.8073 53.2606 76.9203 54.0839C76.0126 54.4479 75.1931 54.9934 74.5148 55.6853C73.8365 56.3772 73.3144 57.2001 72.9822 58.1009C72.7223 58.9303 72.6346 59.802 72.7246 60.6649C72.8146 61.5278 73.0804 62.3644 73.5062 63.1258C73.9406 63.8672 74.5305 64.5107 75.2375 65.0142C75.9446 65.5176 76.7528 65.8697 77.609 66.0473C78.1892 66.2006 78.799 66.2143 79.3858 66.0871C79.9727 65.9599 80.519 65.6956 80.978 65.3169C81.8765 64.3966 82.1012 62.746 81.4423 62.1471C80.5439 61.3145 78.0881 63.3303 77.1597 62.4685Z" fill="#AC60B2"/>
<path opacity="0.5" d="M107.152 62.4685C107.811 61.855 107.451 60.0875 106.418 59.138C105.841 58.7294 105.164 58.4754 104.454 58.401C103.745 58.3267 103.028 58.4348 102.375 58.7144C101.699 59.0006 101.092 59.4212 100.591 59.9494C100.091 60.4775 99.7093 61.1017 99.4703 61.7819C99.0283 62.8164 98.9006 63.953 99.1024 65.0564C99.3042 66.1597 99.8269 67.1831 100.608 68.0046C102.854 70.1811 106.283 69.3339 107.227 69.1002C109.224 68.5896 111.013 67.4938 112.351 65.9605C113.69 64.4273 114.514 62.5304 114.714 60.5257C115.148 54.6828 109.488 51.3815 109.143 51.1916C106.514 49.8086 103.435 49.4836 100.563 50.286C98.6611 50.888 96.9242 51.9045 95.4844 53.2585C94.0445 54.6125 92.9396 56.2685 92.2531 58.1009C91.5194 60.0437 91.5343 62.001 91.5792 65.9304C91.5959 68.3733 91.771 70.8127 92.1034 73.2341H97.2992C96.0211 70.0571 95.2533 66.7066 95.0232 63.3011C94.8847 61.5228 95.2255 59.7402 96.0115 58.1301C96.0347 58.0777 96.0648 58.0286 96.1013 57.984C97.2551 55.9859 99.1279 54.4764 101.357 53.7479C103.328 53.141 105.459 53.2606 107.346 54.0839C108.254 54.4479 109.074 54.9934 109.752 55.6853C110.43 56.3772 110.952 57.2001 111.285 58.1009C111.544 58.9303 111.632 59.802 111.542 60.6649C111.452 61.5278 111.186 62.3644 110.76 63.1258C110.326 63.8672 109.736 64.5107 109.029 65.0142C108.322 65.5176 107.514 65.8697 106.658 66.0473C106.078 66.2006 105.468 66.2143 104.881 66.0871C104.294 65.9599 103.748 65.6956 103.289 65.3169C102.39 64.3966 102.166 62.746 102.824 62.1471C103.768 61.3145 106.223 63.3303 107.152 62.4685Z" fill="#AC60B2"/>
</g>
<g opacity="0.5">
<path opacity="0.5" d="M128.892 67.3768C129.521 68.0196 131.333 67.6544 132.306 66.6465C132.728 66.0844 132.99 65.4239 133.066 64.7314C133.142 64.0389 133.03 63.3391 132.74 62.7025C132.447 62.0452 132.018 61.4542 131.479 60.9666C130.941 60.4789 130.305 60.1051 129.611 59.8687C128.545 59.4521 127.381 59.3353 126.251 59.5315C125.121 59.7277 124.07 60.2292 123.217 60.9788C120.986 63.1699 121.854 66.515 122.094 67.4353C122.618 69.3857 123.744 71.1321 125.319 72.4383C126.893 73.7445 128.841 74.5476 130.899 74.7389C136.888 75.1771 140.257 69.6556 140.467 69.305C141.884 66.7402 142.218 63.7363 141.395 60.935C140.777 59.0814 139.735 57.3895 138.347 55.9873C136.959 54.5852 135.262 53.5098 133.384 52.8426C131.393 52.1122 129.371 52.1414 125.358 52.1706C122.854 52.1894 120.353 52.365 117.872 52.6965V57.7506C121.125 56.5099 124.554 55.7611 128.039 55.5303C129.868 55.4026 131.699 55.7398 133.354 56.509L133.504 56.582C135.55 57.706 137.093 59.5343 137.831 61.7092C138.458 63.6318 138.335 65.7122 137.487 67.5521C137.11 68.4353 136.549 69.2326 135.841 69.8938C135.132 70.555 134.29 71.0658 133.369 71.3938C132.52 71.6432 131.629 71.7251 130.747 71.6348C129.865 71.5445 129.011 71.2838 128.233 70.868C127.473 70.4442 126.814 69.8687 126.298 69.1789C125.781 68.4892 125.421 67.7009 125.239 66.8656C125.078 66.3008 125.061 65.7064 125.189 65.1337C125.317 64.5611 125.586 64.0274 125.972 63.5789C126.916 62.7171 128.608 62.4834 129.222 63.1407C130.09 64.1486 128.024 66.4566 128.892 67.3768Z" fill="#DD4E99"/>
<path opacity="0.5" d="M128.893 38.1037C129.522 37.461 131.334 37.8115 132.307 38.834C132.729 39.3932 132.991 40.0514 133.068 40.7416C133.144 41.4318 133.031 42.1294 132.741 42.7634C132.456 43.4355 132.03 44.0423 131.492 44.5452C130.953 45.0482 130.313 45.4363 129.612 45.6849C128.545 46.1013 127.38 46.2166 126.25 46.0177C125.119 45.8189 124.068 45.3137 123.218 44.5601C120.987 42.3836 121.855 39.0239 122.095 38.1037C122.619 36.1532 123.745 34.4069 125.32 33.1006C126.894 31.7944 128.842 30.9914 130.9 30.8C136.889 30.3764 140.258 35.898 140.468 36.2339C141.884 38.7992 142.217 41.8025 141.396 44.6039C140.775 46.4577 139.732 48.1501 138.344 49.5542C136.957 50.9582 135.261 52.0375 133.385 52.711C131.394 53.4413 129.372 53.4121 125.359 53.3829C122.855 53.3568 120.355 53.1811 117.873 52.857V47.7445C121.126 48.9853 124.555 49.734 128.04 49.9648C129.869 50.0925 131.7 49.7553 133.355 48.9861H133.505C135.55 47.8542 137.092 46.022 137.832 43.8443C138.463 41.9223 138.34 39.8403 137.488 38.0014C137.115 37.1159 136.556 36.3166 135.846 35.6549C135.137 34.9932 134.294 34.4838 133.37 34.1597C132.522 33.9071 131.63 33.8235 130.747 33.9138C129.865 34.0041 129.011 34.2666 128.234 34.6856C127.471 35.1049 126.808 35.6791 126.292 36.3696C125.775 37.0601 125.416 37.8507 125.24 38.688C125.079 39.2504 125.062 39.8426 125.19 40.4129C125.318 40.9832 125.587 41.5144 125.973 41.96C126.917 42.8364 128.609 43.0702 129.222 42.4128C130.091 41.4049 128.025 39.0239 128.893 38.1037Z" fill="#DD4E99"/>
<path opacity="0.5" d="M151.922 67.3768C151.309 68.0196 149.482 67.6544 148.508 66.6465C148.088 66.0837 147.828 65.4224 147.754 64.7296C147.68 64.0369 147.796 63.3375 148.089 62.7025C148.378 62.0428 148.806 61.4497 149.346 60.9616C149.885 60.4734 150.523 60.1011 151.219 59.8687C152.282 59.4533 153.443 59.3372 154.571 59.5334C155.698 59.7296 156.747 60.2304 157.598 60.9788C159.829 63.1699 158.96 66.515 158.721 67.4353C158.201 69.3856 157.079 71.1326 155.506 72.4393C153.934 73.7459 151.987 74.5488 149.931 74.7389C143.942 75.1771 140.558 69.6556 140.363 69.305C138.945 66.7402 138.612 63.7363 139.434 60.935C140.05 59.0799 141.091 57.3864 142.479 55.9839C143.868 54.5814 145.566 53.5069 147.445 52.8426C149.437 52.1122 151.443 52.1414 155.471 52.1706C157.976 52.19 160.476 52.3656 162.958 52.6965V57.7506C159.704 56.5118 156.276 55.7632 152.791 55.5303C150.962 55.4006 149.13 55.7379 147.475 56.509L147.326 56.582C145.274 57.7005 143.73 59.5308 142.998 61.7092C142.371 63.6306 142.489 65.7094 143.328 67.5521C143.705 68.4353 144.265 69.2326 144.974 69.8938C145.683 70.555 146.524 71.0658 147.445 71.3938C148.297 71.6428 149.191 71.7245 150.075 71.6342C150.959 71.5439 151.816 71.2835 152.596 70.868C153.356 70.4442 154.016 69.8687 154.532 69.1789C155.048 68.4892 155.409 67.7009 155.591 66.8656C155.748 66.2996 155.762 65.7047 155.632 65.1323C155.501 64.5598 155.23 64.0267 154.842 63.5789C153.899 62.7171 152.207 62.4834 151.593 63.1407C150.755 64.1486 152.851 66.4566 151.922 67.3768Z" fill="#DD4E99"/>
<path opacity="0.5" d="M151.921 38.1037C151.307 37.461 149.481 37.8115 148.507 38.834C148.087 39.3939 147.826 40.0529 147.752 40.7433C147.679 41.4338 147.794 42.131 148.088 42.7634C148.369 43.4379 148.794 44.0468 149.333 44.5502C149.872 45.0536 150.515 45.4403 151.218 45.6849C152.282 46.1018 153.445 46.2174 154.573 46.0184C155.701 45.8195 156.749 45.314 157.596 44.5601C159.827 42.3836 158.959 39.0239 158.719 38.1037C158.2 36.1534 157.078 34.4063 155.505 33.0997C153.933 31.793 151.986 30.9901 149.93 30.8C143.94 30.3764 140.556 35.898 140.362 36.2339C138.946 38.7992 138.612 41.8025 139.433 44.6039C140.052 46.4587 141.095 48.1521 142.483 49.5564C143.87 50.9608 145.567 52.0394 147.444 52.711C149.436 53.4413 151.442 53.4121 155.47 53.3829C157.974 53.3562 160.475 53.1806 162.957 52.857V47.7445C159.703 48.9833 156.275 49.732 152.79 49.9648C150.961 50.0945 149.129 49.7572 147.474 48.9861H147.325C145.274 47.8597 143.731 46.0254 142.997 43.8443C142.366 41.9235 142.483 39.8431 143.327 38.0014C143.7 37.1159 144.259 36.3166 144.968 35.6549C145.677 34.9932 146.521 34.4838 147.444 34.1597C148.295 33.9075 149.189 33.8241 150.074 33.9145C150.959 34.0048 151.816 34.267 152.595 34.6856C153.359 35.1049 154.021 35.6791 154.538 36.3696C155.055 37.0601 155.413 37.8507 155.59 38.688C155.747 39.2516 155.761 39.8442 155.631 40.4144C155.5 40.9845 155.229 41.5151 154.841 41.96C153.898 42.8364 152.206 43.0702 151.592 42.4128C150.753 41.4049 152.85 39.0239 151.921 38.1037Z" fill="#DD4E99"/>
</g>
<g opacity="0.5">
<path opacity="0.5" d="M155.413 87.6079C156.072 88.2068 155.713 89.9888 154.68 90.9383C154.103 91.3487 153.425 91.6026 152.715 91.6745C152.005 91.7463 151.288 91.6335 150.637 91.3473C149.961 91.0651 149.353 90.6475 148.852 90.1216C148.352 89.5957 147.97 88.9732 147.732 88.2944C147.29 87.2599 147.162 86.1233 147.364 85.02C147.566 83.9166 148.088 82.8932 148.87 82.0717C151.116 79.8952 154.545 80.7424 155.488 80.9762C157.488 81.4829 159.278 82.5776 160.618 84.1116C161.957 85.6456 162.78 87.5446 162.975 89.5506C163.409 95.3935 157.749 98.6948 157.405 98.8847C154.776 100.268 151.697 100.593 148.825 99.7903C146.924 99.1864 145.188 98.1692 143.748 96.8155C142.309 95.4617 141.203 93.8068 140.515 91.9754C139.781 90.0327 139.811 88.0753 139.841 84.1459C139.857 81.703 140.032 79.2636 140.365 76.8423H145.561C144.285 80.0148 143.517 83.3601 143.285 86.7606C143.144 88.5437 143.484 90.3317 144.273 91.9462L144.363 92.0923C145.515 94.0886 147.389 95.5939 149.619 96.3138C151.588 96.928 153.72 96.8137 155.608 95.9925C156.516 95.6285 157.335 95.083 158.013 94.3911C158.692 93.6992 159.214 92.8763 159.546 91.9754C159.806 91.146 159.894 90.2743 159.804 89.4114C159.714 88.5486 159.448 87.7119 159.022 86.9505C158.588 86.2091 157.998 85.5656 157.291 85.0622C156.584 84.5587 155.776 84.2067 154.919 84.0291C154.339 83.8757 153.729 83.862 153.142 83.9892C152.556 84.1165 152.009 84.3808 151.55 84.7594C150.652 85.6797 150.427 87.3303 151.086 87.9292C152.029 88.7472 154.485 86.746 155.413 87.6079Z" fill="#AC60B2"/>
<path opacity="0.5" d="M125.421 87.6079C124.762 88.2068 125.121 89.9888 126.154 90.9383C126.731 91.3487 127.409 91.6027 128.119 91.6745C128.829 91.7463 129.546 91.6335 130.197 91.3473C130.873 91.0651 131.481 90.6475 131.982 90.1216C132.482 89.5957 132.864 88.9732 133.102 88.2944C133.544 87.26 133.672 86.1233 133.47 85.02C133.268 83.9166 132.746 82.8932 131.964 82.0717C129.718 79.8952 126.289 80.7424 125.346 80.9762C123.346 81.4829 121.556 82.5776 120.216 84.1116C118.877 85.6456 118.054 87.5446 117.859 89.5506C117.41 95.3936 123.085 98.6948 123.429 98.8847C126.058 100.268 129.137 100.593 132.009 99.7904C133.91 99.1864 135.646 98.1692 137.086 96.8155C138.525 95.4617 139.631 93.8068 140.319 91.9755C141.053 90.0327 141.023 88.0753 140.993 84.1459C140.977 81.703 140.802 79.2636 140.469 76.8423H135.273C136.549 80.0148 137.317 83.3601 137.549 86.7606C137.69 88.5437 137.349 90.3318 136.561 91.9462L136.471 92.0923C135.319 94.0886 133.445 95.5939 131.215 96.3138C129.246 96.9281 127.114 96.8137 125.226 95.9925C124.333 95.6071 123.532 95.0444 122.875 94.3401C122.217 93.6359 121.718 92.8056 121.408 91.9024C121.148 91.073 121.06 90.2013 121.15 89.3384C121.24 88.4755 121.506 87.6389 121.932 86.8775C122.366 86.1361 122.956 85.4926 123.663 84.9891C124.37 84.4857 125.178 84.1336 126.034 83.956C126.615 83.8027 127.224 83.789 127.811 83.9162C128.398 84.0434 128.944 84.3077 129.403 84.6864C130.302 85.6067 130.527 87.2573 129.868 87.8562C128.805 88.7472 126.349 86.746 125.421 87.6079Z" fill="#AC60B2"/>
<path opacity="0.5" d="M155.413 110.059C156.072 109.446 155.713 107.678 154.68 106.729C154.104 106.317 153.426 106.062 152.717 105.987C152.007 105.913 151.289 106.023 150.637 106.305C149.962 106.59 149.355 107.008 148.855 107.534C148.355 108.059 147.973 108.681 147.732 109.358C147.298 110.396 147.174 111.533 147.376 112.637C147.577 113.741 148.095 114.767 148.87 115.595C151.116 117.772 154.545 116.925 155.488 116.691C157.488 116.18 159.278 115.081 160.617 113.545C161.956 112.009 162.779 110.109 162.975 108.102C163.409 102.259 157.749 98.9723 157.405 98.7678C154.776 97.3848 151.697 97.0598 148.825 97.8622C146.925 98.468 145.19 99.4859 143.751 100.839C142.311 102.193 141.205 103.847 140.515 105.677C139.781 107.62 139.811 109.592 139.841 113.507C139.856 115.95 140.031 118.389 140.365 120.81H145.561C144.277 117.639 143.504 114.294 143.27 110.892C143.133 109.109 143.473 107.322 144.258 105.706L144.348 105.56C145.5 103.564 147.374 102.059 149.604 101.339C151.574 100.723 153.708 100.843 155.593 101.675C156.501 102.039 157.32 102.584 157.999 103.276C158.677 103.968 159.199 104.791 159.531 105.692C159.792 106.519 159.879 107.388 159.789 108.249C159.699 109.109 159.433 109.943 159.007 110.702C158.573 111.443 157.983 112.087 157.276 112.59C156.569 113.094 155.761 113.446 154.904 113.623C154.325 113.78 153.716 113.797 153.129 113.672C152.542 113.547 151.995 113.285 151.535 112.908C150.637 111.987 150.412 110.337 151.071 109.738C152.03 108.905 154.485 110.892 155.413 110.059Z" fill="#AC60B2"/>
<path opacity="0.5" d="M125.42 110.059C124.761 109.446 125.121 107.678 126.154 106.729C126.73 106.317 127.407 106.062 128.117 105.987C128.827 105.913 129.544 106.023 130.197 106.305C130.871 106.59 131.478 107.008 131.978 107.534C132.478 108.059 132.861 108.681 133.102 109.358C133.536 110.396 133.659 111.533 133.458 112.637C133.256 113.741 132.738 114.767 131.964 115.595C129.717 117.772 126.288 116.925 125.345 116.691C123.346 116.18 121.556 115.081 120.217 113.545C118.878 112.009 118.054 110.109 117.858 108.102C117.409 102.259 123.084 98.9723 123.428 98.7678C126.058 97.3848 129.137 97.0598 132.008 97.8622C133.909 98.468 135.643 99.4859 137.083 100.839C138.522 102.193 139.628 103.847 140.319 105.677C141.052 107.62 141.022 109.592 140.992 113.507C140.977 115.95 140.802 118.389 140.468 120.81H135.273C136.552 117.639 137.32 114.293 137.549 110.892C137.686 109.109 137.345 107.322 136.56 105.706L136.471 105.56C135.318 103.564 133.444 102.059 131.215 101.339C129.245 100.723 127.11 100.843 125.225 101.675C124.318 102.039 123.498 102.584 122.82 103.276C122.142 103.968 121.62 104.791 121.287 105.692C121.027 106.519 120.939 107.388 121.029 108.249C121.119 109.109 121.385 109.943 121.811 110.702C122.246 111.443 122.836 112.087 123.543 112.59C124.25 113.094 125.058 113.446 125.914 113.623C126.493 113.78 127.102 113.797 127.689 113.672C128.276 113.547 128.823 113.285 129.283 112.908C130.182 111.987 130.406 110.337 129.747 109.738C128.804 108.905 126.348 110.892 125.42 110.059Z" fill="#AC60B2"/>
</g>
<g opacity="0.5">
<path opacity="0.5" d="M103.664 114.952C103.036 115.595 101.224 115.245 100.25 114.237C99.8288 113.675 99.5667 113.014 99.4904 112.322C99.4142 111.629 99.5265 110.929 99.8162 110.293C100.108 109.635 100.537 109.043 101.076 108.555C101.614 108.067 102.251 107.694 102.946 107.459C104.01 107.035 105.176 106.915 106.307 107.111C107.439 107.308 108.49 107.813 109.339 108.569C111.57 110.746 110.702 114.105 110.462 115.026C109.938 116.976 108.813 118.722 107.238 120.029C105.663 121.335 103.716 122.138 101.658 122.329C95.6686 122.753 92.2995 117.231 92.0899 116.895C90.6722 114.33 90.339 111.327 91.1615 108.525C91.7826 106.672 92.8259 104.979 94.2133 103.575C95.6007 102.171 97.2962 101.092 99.1724 100.418C101.164 99.7025 103.185 99.7171 107.198 99.7609C109.702 99.776 112.203 99.9468 114.685 100.272V105.341C111.436 104.086 108.005 103.337 104.518 103.121C102.69 102.987 100.859 103.319 99.2024 104.085H99.0525C97.007 105.217 95.4651 107.049 94.7253 109.226C94.0946 111.149 94.2173 113.23 95.0696 115.069C95.4427 115.955 96.002 116.754 96.7112 117.416C97.4205 118.078 98.264 118.587 99.1874 118.911C100.036 119.164 100.928 119.247 101.81 119.157C102.692 119.067 103.547 118.804 104.323 118.385C105.087 117.966 105.749 117.392 106.266 116.701C106.783 116.011 107.141 115.22 107.318 114.383C107.479 113.82 107.496 113.228 107.368 112.658C107.24 112.088 106.971 111.556 106.584 111.111C105.641 110.234 103.949 110.001 103.335 110.658C102.482 111.651 104.548 114.032 103.664 114.952Z" fill="#DD4E99"/>
<path opacity="0.5" d="M103.664 85.6939C103.036 85.0512 101.224 85.4018 100.25 86.4097C99.8288 86.9717 99.5667 87.6323 99.4904 88.3248C99.4142 89.0172 99.5265 89.7171 99.8162 90.3536C100.108 91.0119 100.537 91.6037 101.076 92.0916C101.614 92.5794 102.251 92.9526 102.946 93.1875C104.01 93.611 105.176 93.7315 106.307 93.535C107.439 93.3385 108.49 92.8331 109.339 92.0773C111.57 89.8862 110.702 86.5411 110.462 85.6209C109.938 83.6704 108.813 81.9241 107.238 80.6178C105.663 79.3116 103.716 78.5086 101.658 78.3172C95.6686 77.879 92.2995 83.4006 92.0899 83.7511C90.6722 86.3159 90.339 89.3199 91.1615 92.1211C91.7796 93.9747 92.822 95.6667 94.21 97.0688C95.598 98.4709 97.2951 99.5463 99.1724 100.214C101.164 100.944 103.185 100.915 107.198 100.886C109.702 100.87 112.203 100.7 114.685 100.374V95.3201C111.434 96.568 108.004 97.317 104.518 97.5404C102.689 97.6736 100.856 97.3361 99.2024 96.5617H99.0525C97.0061 95.4377 95.4632 93.6095 94.7253 91.4346C94.0989 89.512 94.2215 87.4316 95.0696 85.5917C95.4453 84.7094 96.0055 83.9132 96.7145 83.2542C97.4236 82.5952 98.2658 82.0879 99.1874 81.7646C100.035 81.5106 100.926 81.4249 101.808 81.5127C102.69 81.6006 103.546 81.86 104.323 82.2758C105.083 82.6995 105.743 83.2751 106.259 83.9649C106.775 84.6546 107.136 85.4429 107.318 86.2782C107.479 86.843 107.496 87.4374 107.368 88.01C107.24 88.5827 106.971 89.1164 106.584 89.5649C105.641 90.4413 103.949 90.6604 103.335 90.0177C102.482 88.9806 104.548 86.5996 103.664 85.6939Z" fill="#DD4E99"/>
<path opacity="0.5" d="M80.6508 114.952C81.2647 115.595 83.0915 115.245 84.0648 114.237C84.4854 113.674 84.7457 113.013 84.8194 112.32C84.893 111.627 84.7772 110.928 84.4839 110.293C84.1946 109.633 83.7666 109.04 83.2275 108.552C82.6884 108.064 82.0504 107.691 81.3545 107.459C80.2941 107.028 79.1289 106.903 77.9979 107.1C76.8669 107.297 75.8178 107.807 74.9757 108.569C72.7447 110.746 73.6131 114.105 73.8527 115.026C74.3722 116.976 75.4943 118.723 77.0668 120.03C78.6392 121.336 80.5858 122.139 82.6422 122.329C88.6317 122.753 92.0157 117.231 92.2104 116.895C93.6281 114.33 93.9613 111.327 93.1387 108.525C92.5197 106.671 91.4771 104.977 90.0894 103.573C88.7017 102.168 87.0052 101.09 85.1279 100.418C83.1364 99.7025 81.13 99.7171 77.102 99.7609C74.5979 99.7766 72.0972 99.9474 69.6152 100.272V105.341C72.865 104.089 76.2953 103.34 79.7822 103.121C81.61 102.983 83.4429 103.315 85.0979 104.085H85.2476C87.2931 105.217 88.8352 107.049 89.575 109.226C90.2047 111.147 90.0874 113.227 89.2456 115.069C88.8725 115.955 88.3133 116.754 87.6041 117.416C86.8948 118.078 86.0513 118.587 85.1279 118.911C84.2768 119.163 83.3825 119.247 82.4978 119.156C81.6132 119.066 80.756 118.804 79.9769 118.385C79.2132 117.966 78.5509 117.392 78.0342 116.701C77.5176 116.011 77.1587 115.22 76.9821 114.383C76.8249 113.819 76.8109 113.227 76.9414 112.656C77.0718 112.086 77.3428 111.556 77.7308 111.111C78.6742 110.234 80.3662 110.001 80.9802 110.658C81.8187 111.651 79.7673 114.032 80.6508 114.952Z" fill="#DD4E99"/>
<path opacity="0.5" d="M80.6498 85.6939C81.2637 85.0512 83.0906 85.4018 84.0638 86.4097C84.4845 86.9724 84.7447 87.6338 84.8184 88.3265C84.892 89.0193 84.7763 89.7187 84.483 90.3536C84.1936 91.0133 83.7656 91.6064 83.2265 92.0945C82.6874 92.5827 82.0494 92.955 81.3535 93.1875C80.2931 93.6187 79.1279 93.7433 77.9969 93.5465C76.8659 93.3497 75.8169 92.8397 74.9748 92.0773C72.7437 89.8862 73.6122 86.5411 73.8517 85.6209C74.3712 83.6706 75.4933 81.9235 77.0658 80.6169C78.6383 79.3102 80.5849 78.5073 82.6412 78.3172C88.6307 77.879 92.0148 83.4006 92.2094 83.7511C93.6271 86.3159 93.9603 89.3199 93.1378 92.1211C92.5227 93.9762 91.4812 95.6697 90.0928 97.0722C88.7044 98.4748 87.0059 99.5492 85.1269 100.214C83.1354 100.944 81.129 100.915 77.1011 100.886C74.5969 100.87 72.0963 100.699 69.6143 100.374V95.3201C72.8663 96.5651 76.2954 97.314 79.7812 97.5404C81.6106 97.6777 83.4447 97.34 85.0969 96.5617H85.2466C87.293 95.4377 88.8361 93.6095 89.574 91.4346C90.2009 89.5132 90.0837 87.4344 89.2447 85.5917C88.869 84.7094 88.3088 83.9132 87.5998 83.2542C86.8907 82.5952 86.0485 82.0879 85.1269 81.7646C84.2767 81.511 83.383 81.4256 82.4985 81.5134C81.614 81.6012 80.7564 81.8604 79.9759 82.2758C79.2159 82.6995 78.5563 83.2751 78.0402 83.9649C77.5241 84.6546 77.1632 85.4429 76.9812 86.2782C76.8239 86.8442 76.81 87.4391 76.9404 88.0115C77.0708 88.584 77.3417 89.1171 77.7298 89.5649C78.6732 90.4413 80.3653 90.6604 80.9792 90.0177C81.8177 88.9806 79.7664 86.5996 80.6498 85.6939Z" fill="#DD4E99"/>
</g>
</svg>
