<svg width="356" height="57" viewBox="0 0 356 57" fill="none" xmlns="http://www.w3.org/2000/svg">
<g filter="url(#filter0_d)">
<rect x="3.99902" y="28" width="242" height="20" rx="10" fill="#E95633" fill-opacity="0.6"/>
<path d="M26.4273 20.2465C26.4273 21.8945 25.9873 23.2705 25.1073 24.3745C24.2273 25.4785 22.9873 26.2385 21.3873 26.6545L24.4593 32.1265H21.9153L18.9873 26.9905H18.5313H14.0433L13.0353 32.1265H10.6113L13.9713 15.3265H20.2353C22.2033 15.3265 23.7233 15.7585 24.7953 16.6225C25.8833 17.4705 26.4273 18.6785 26.4273 20.2465ZM18.6033 24.9505C20.3313 24.9505 21.6673 24.5665 22.6113 23.7985C23.5553 23.0305 24.0273 21.9185 24.0273 20.4625C24.0273 19.4545 23.6833 18.6945 22.9953 18.1825C22.3073 17.6705 21.3153 17.4145 20.0193 17.4145H15.9633L14.4513 24.9505H18.6033ZM29.9688 26.4865V26.6305C29.9688 27.8145 30.3048 28.7185 30.9768 29.3425C31.6488 29.9505 32.6568 30.2545 34.0008 30.2545C34.7848 30.2545 35.5208 30.1265 36.2088 29.8705C36.8968 29.5985 37.4728 29.2385 37.9368 28.7905L38.9208 30.4465C38.2968 31.0225 37.5368 31.4705 36.6408 31.7905C35.7448 32.1105 34.8008 32.2705 33.8088 32.2705C32.5608 32.2705 31.4808 32.0465 30.5688 31.5985C29.6568 31.1505 28.9528 30.5105 28.4568 29.6785C27.9608 28.8465 27.7128 27.8705 27.7128 26.7505C27.7128 25.3265 28.0168 24.0465 28.6248 22.9105C29.2488 21.7745 30.1048 20.8865 31.1928 20.2465C32.2968 19.6065 33.5288 19.2865 34.8888 19.2865C36.6168 19.2865 37.9928 19.7825 39.0168 20.7745C40.0568 21.7505 40.5768 23.0865 40.5768 24.7825C40.5768 25.2945 40.5208 25.8625 40.4088 26.4865H29.9688ZM34.7928 21.2065C33.6568 21.2065 32.6808 21.5265 31.8648 22.1665C31.0488 22.8065 30.4968 23.6865 30.2088 24.8065H38.4168C38.4808 23.6705 38.1768 22.7905 37.5048 22.1665C36.8488 21.5265 35.9448 21.2065 34.7928 21.2065ZM46.4167 32.2705C45.3607 32.2705 44.3527 32.1345 43.3927 31.8625C42.4487 31.5905 41.7127 31.2385 41.1847 30.8065L42.2167 28.9825C42.7127 29.3825 43.3527 29.7025 44.1367 29.9425C44.9367 30.1665 45.7687 30.2785 46.6327 30.2785C47.7207 30.2785 48.5447 30.1185 49.1047 29.7985C49.6807 29.4625 49.9687 28.9985 49.9687 28.4065C49.9687 27.9265 49.7367 27.5825 49.2727 27.3745C48.8247 27.1665 48.1207 26.9585 47.1607 26.7505C46.2647 26.5585 45.5287 26.3665 44.9527 26.1745C44.3927 25.9665 43.9127 25.6465 43.5127 25.2145C43.1127 24.7665 42.9127 24.1665 42.9127 23.4145C42.9127 22.5825 43.1447 21.8545 43.6087 21.2305C44.0887 20.6065 44.7607 20.1265 45.6247 19.7905C46.5047 19.4545 47.5207 19.2865 48.6727 19.2865C49.5207 19.2865 50.3447 19.3905 51.1447 19.5985C51.9447 19.8065 52.6007 20.0865 53.1127 20.4385L52.2007 22.2625C51.7047 21.9265 51.1287 21.6785 50.4727 21.5185C49.8167 21.3425 49.1447 21.2545 48.4567 21.2545C47.4167 21.2545 46.6167 21.4305 46.0567 21.7825C45.4967 22.1185 45.2167 22.5745 45.2167 23.1505C45.2167 23.6625 45.4487 24.0305 45.9127 24.2545C46.3767 24.4625 47.0967 24.6705 48.0727 24.8785C48.9527 25.0705 49.6727 25.2625 50.2327 25.4545C50.7927 25.6465 51.2647 25.9585 51.6487 26.3905C52.0487 26.8225 52.2487 27.4065 52.2487 28.1425C52.2487 29.4385 51.7127 30.4545 50.6407 31.1905C49.5847 31.9105 48.1767 32.2705 46.4167 32.2705ZM56.9521 19.4065H59.2561L56.7361 32.1265H54.4321L56.9521 19.4065ZM58.7761 16.9585C58.3601 16.9585 58.0161 16.8225 57.7441 16.5505C57.4721 16.2785 57.3361 15.9505 57.3361 15.5665C57.3361 15.1185 57.4881 14.7425 57.7921 14.4385C58.1121 14.1185 58.5121 13.9585 58.9921 13.9585C59.4081 13.9585 59.7521 14.0945 60.0241 14.3665C60.3121 14.6225 60.4561 14.9345 60.4561 15.3025C60.4561 15.7985 60.2961 16.1985 59.9761 16.5025C59.6721 16.8065 59.2721 16.9585 58.7761 16.9585ZM76.6632 14.3185L73.1112 32.1265H70.9032L71.2152 30.5665C70.6392 31.1105 69.9672 31.5345 69.1992 31.8385C68.4472 32.1265 67.6232 32.2705 66.7272 32.2705C65.6392 32.2705 64.6712 32.0545 63.8232 31.6225C62.9752 31.1745 62.3112 30.5345 61.8312 29.7025C61.3512 28.8705 61.1112 27.8945 61.1112 26.7745C61.1112 25.3345 61.4232 24.0465 62.0472 22.9105C62.6712 21.7745 63.5272 20.8865 64.6152 20.2465C65.7192 19.6065 66.9512 19.2865 68.3112 19.2865C69.3992 19.2865 70.3352 19.4865 71.1192 19.8865C71.9192 20.2705 72.5192 20.8385 72.9192 21.5905L74.3592 14.3185H76.6632ZM67.2312 30.2545C68.1752 30.2545 69.0232 30.0305 69.7752 29.5825C70.5432 29.1185 71.1352 28.4785 71.5512 27.6625C71.9832 26.8465 72.1992 25.9185 72.1992 24.8785C72.1992 23.7425 71.8712 22.8625 71.2152 22.2385C70.5592 21.6145 69.6232 21.3025 68.4072 21.3025C67.4632 21.3025 66.6152 21.5345 65.8632 21.9985C65.1112 22.4465 64.5192 23.0785 64.0872 23.8945C63.6552 24.7105 63.4392 25.6385 63.4392 26.6785C63.4392 27.7985 63.7672 28.6785 64.4232 29.3185C65.0952 29.9425 66.0312 30.2545 67.2312 30.2545ZM79.7266 26.4865V26.6305C79.7266 27.8145 80.0626 28.7185 80.7346 29.3425C81.4066 29.9505 82.4146 30.2545 83.7586 30.2545C84.5426 30.2545 85.2786 30.1265 85.9666 29.8705C86.6546 29.5985 87.2306 29.2385 87.6946 28.7905L88.6786 30.4465C88.0546 31.0225 87.2946 31.4705 86.3986 31.7905C85.5026 32.1105 84.5586 32.2705 83.5666 32.2705C82.3186 32.2705 81.2386 32.0465 80.3266 31.5985C79.4146 31.1505 78.7106 30.5105 78.2146 29.6785C77.7186 28.8465 77.4706 27.8705 77.4706 26.7505C77.4706 25.3265 77.7746 24.0465 78.3826 22.9105C79.0066 21.7745 79.8626 20.8865 80.9506 20.2465C82.0546 19.6065 83.2866 19.2865 84.6466 19.2865C86.3746 19.2865 87.7506 19.7825 88.7746 20.7745C89.8146 21.7505 90.3346 23.0865 90.3346 24.7825C90.3346 25.2945 90.2786 25.8625 90.1666 26.4865H79.7266ZM84.5506 21.2065C83.4146 21.2065 82.4386 21.5265 81.6226 22.1665C80.8066 22.8065 80.2546 23.6865 79.9666 24.8065H88.1746C88.2386 23.6705 87.9346 22.7905 87.2626 22.1665C86.6066 21.5265 85.7026 21.2065 84.5506 21.2065ZM101.19 19.2865C102.646 19.2865 103.774 19.6545 104.574 20.3905C105.39 21.1265 105.798 22.1665 105.798 23.5105C105.798 23.9745 105.75 24.4705 105.654 24.9985L104.238 32.1265H101.934L103.35 24.9985C103.43 24.5665 103.47 24.2145 103.47 23.9425C103.47 23.1105 103.222 22.4705 102.726 22.0225C102.23 21.5745 101.494 21.3505 100.518 21.3505C99.2705 21.3505 98.2385 21.6945 97.4225 22.3825C96.6225 23.0545 96.0865 24.0625 95.8145 25.4065L94.4705 32.1265H92.1665L94.6865 19.4065H96.8945L96.5825 21.0385C97.7345 19.8705 99.2705 19.2865 101.19 19.2865ZM114.597 32.2705C113.381 32.2705 112.317 32.0465 111.405 31.5985C110.493 31.1345 109.789 30.4945 109.293 29.6785C108.797 28.8465 108.549 27.8785 108.549 26.7745C108.549 25.3505 108.869 24.0705 109.509 22.9345C110.149 21.7985 111.037 20.9105 112.173 20.2705C113.309 19.6145 114.597 19.2865 116.037 19.2865C118.549 19.2865 120.293 20.2065 121.269 22.0465L119.325 23.1265C118.653 21.9105 117.501 21.3025 115.869 21.3025C114.925 21.3025 114.069 21.5345 113.301 21.9985C112.549 22.4465 111.957 23.0785 111.525 23.8945C111.093 24.7105 110.877 25.6385 110.877 26.6785C110.877 27.7985 111.205 28.6785 111.861 29.3185C112.533 29.9425 113.477 30.2545 114.693 30.2545C115.461 30.2545 116.173 30.1025 116.829 29.7985C117.501 29.4945 118.053 29.0465 118.485 28.4545L120.165 29.6545C119.573 30.4705 118.781 31.1105 117.789 31.5745C116.797 32.0385 115.733 32.2705 114.597 32.2705ZM124.328 26.4865V26.6305C124.328 27.8145 124.664 28.7185 125.336 29.3425C126.008 29.9505 127.016 30.2545 128.36 30.2545C129.144 30.2545 129.88 30.1265 130.568 29.8705C131.256 29.5985 131.832 29.2385 132.296 28.7905L133.28 30.4465C132.656 31.0225 131.896 31.4705 131 31.7905C130.104 32.1105 129.16 32.2705 128.168 32.2705C126.92 32.2705 125.84 32.0465 124.928 31.5985C124.016 31.1505 123.312 30.5105 122.816 29.6785C122.32 28.8465 122.072 27.8705 122.072 26.7505C122.072 25.3265 122.376 24.0465 122.984 22.9105C123.608 21.7745 124.464 20.8865 125.552 20.2465C126.656 19.6065 127.888 19.2865 129.248 19.2865C130.976 19.2865 132.352 19.7825 133.376 20.7745C134.416 21.7505 134.936 23.0865 134.936 24.7825C134.936 25.2945 134.88 25.8625 134.768 26.4865H124.328ZM129.152 21.2065C128.016 21.2065 127.04 21.5265 126.224 22.1665C125.408 22.8065 124.856 23.6865 124.568 24.8065H132.776C132.84 23.6705 132.536 22.7905 131.864 22.1665C131.208 21.5265 130.304 21.2065 129.152 21.2065ZM146.885 15.3265H153.461C155.141 15.3265 156.581 15.6145 157.781 16.1905C158.997 16.7505 159.917 17.5505 160.541 18.5905C161.181 19.6145 161.501 20.8225 161.501 22.2145C161.501 24.1665 161.061 25.8945 160.181 27.3985C159.317 28.9025 158.093 30.0705 156.509 30.9025C154.941 31.7185 153.117 32.1265 151.037 32.1265H143.525L146.885 15.3265ZM151.109 30.0385C152.725 30.0385 154.133 29.7105 155.333 29.0545C156.533 28.3985 157.453 27.4945 158.093 26.3425C158.749 25.1745 159.077 23.8465 159.077 22.3585C159.077 20.8065 158.581 19.5985 157.589 18.7345C156.597 17.8545 155.141 17.4145 153.221 17.4145H148.853L146.333 30.0385H151.109ZM165.273 26.4865V26.6305C165.273 27.8145 165.609 28.7185 166.281 29.3425C166.953 29.9505 167.961 30.2545 169.305 30.2545C170.089 30.2545 170.825 30.1265 171.513 29.8705C172.201 29.5985 172.777 29.2385 173.241 28.7905L174.225 30.4465C173.601 31.0225 172.841 31.4705 171.945 31.7905C171.049 32.1105 170.105 32.2705 169.113 32.2705C167.865 32.2705 166.785 32.0465 165.873 31.5985C164.961 31.1505 164.257 30.5105 163.761 29.6785C163.265 28.8465 163.017 27.8705 163.017 26.7505C163.017 25.3265 163.321 24.0465 163.929 22.9105C164.553 21.7745 165.409 20.8865 166.497 20.2465C167.601 19.6065 168.833 19.2865 170.193 19.2865C171.921 19.2865 173.297 19.7825 174.321 20.7745C175.361 21.7505 175.881 23.0865 175.881 24.7825C175.881 25.2945 175.825 25.8625 175.713 26.4865H165.273ZM170.097 21.2065C168.961 21.2065 167.985 21.5265 167.169 22.1665C166.353 22.8065 165.801 23.6865 165.513 24.8065H173.721C173.785 23.6705 173.481 22.7905 172.809 22.1665C172.153 21.5265 171.249 21.2065 170.097 21.2065ZM181.721 32.2705C180.665 32.2705 179.657 32.1345 178.697 31.8625C177.753 31.5905 177.017 31.2385 176.489 30.8065L177.521 28.9825C178.017 29.3825 178.657 29.7025 179.441 29.9425C180.241 30.1665 181.073 30.2785 181.937 30.2785C183.025 30.2785 183.849 30.1185 184.409 29.7985C184.985 29.4625 185.273 28.9985 185.273 28.4065C185.273 27.9265 185.041 27.5825 184.577 27.3745C184.129 27.1665 183.425 26.9585 182.465 26.7505C181.569 26.5585 180.833 26.3665 180.257 26.1745C179.697 25.9665 179.217 25.6465 178.817 25.2145C178.417 24.7665 178.217 24.1665 178.217 23.4145C178.217 22.5825 178.449 21.8545 178.913 21.2305C179.393 20.6065 180.065 20.1265 180.929 19.7905C181.809 19.4545 182.825 19.2865 183.977 19.2865C184.825 19.2865 185.649 19.3905 186.449 19.5985C187.249 19.8065 187.905 20.0865 188.417 20.4385L187.505 22.2625C187.009 21.9265 186.433 21.6785 185.777 21.5185C185.121 21.3425 184.449 21.2545 183.761 21.2545C182.721 21.2545 181.921 21.4305 181.361 21.7825C180.801 22.1185 180.521 22.5745 180.521 23.1505C180.521 23.6625 180.753 24.0305 181.217 24.2545C181.681 24.4625 182.401 24.6705 183.377 24.8785C184.257 25.0705 184.977 25.2625 185.537 25.4545C186.097 25.6465 186.569 25.9585 186.953 26.3905C187.353 26.8225 187.553 27.4065 187.553 28.1425C187.553 29.4385 187.017 30.4545 185.945 31.1905C184.889 31.9105 183.481 32.2705 181.721 32.2705ZM192.257 19.4065H194.561L192.041 32.1265H189.737L192.257 19.4065ZM194.081 16.9585C193.665 16.9585 193.321 16.8225 193.049 16.5505C192.777 16.2785 192.641 15.9505 192.641 15.5665C192.641 15.1185 192.793 14.7425 193.097 14.4385C193.417 14.1185 193.817 13.9585 194.297 13.9585C194.713 13.9585 195.057 14.0945 195.329 14.3665C195.617 14.6225 195.761 14.9345 195.761 15.3025C195.761 15.7985 195.601 16.1985 195.281 16.5025C194.977 16.8065 194.577 16.9585 194.081 16.9585ZM211.128 19.4065L208.944 30.3985C208.496 32.6705 207.648 34.3265 206.4 35.3665C205.168 36.4065 203.48 36.9265 201.336 36.9265C200.136 36.9265 199.04 36.7665 198.048 36.4465C197.056 36.1425 196.216 35.7025 195.528 35.1265L196.8 33.3505C197.312 33.8145 197.976 34.1825 198.792 34.4545C199.624 34.7425 200.528 34.8865 201.504 34.8865C202.976 34.8865 204.112 34.5505 204.912 33.8785C205.728 33.2065 206.28 32.1665 206.568 30.7585L206.76 29.8465C205.544 31.0145 204.008 31.5985 202.152 31.5985C201.032 31.5985 200.04 31.3905 199.176 30.9745C198.328 30.5585 197.664 29.9585 197.184 29.1745C196.72 28.3905 196.488 27.4705 196.488 26.4145C196.488 25.0865 196.792 23.8785 197.4 22.7905C198.024 21.7025 198.888 20.8465 199.992 20.2225C201.096 19.5985 202.344 19.2865 203.736 19.2865C204.824 19.2865 205.784 19.4945 206.616 19.9105C207.464 20.3105 208.088 20.9185 208.488 21.7345L208.944 19.4065H211.128ZM202.608 29.5825C203.568 29.5825 204.424 29.3745 205.176 28.9585C205.944 28.5265 206.536 27.9345 206.952 27.1825C207.384 26.4145 207.6 25.5505 207.6 24.5905C207.6 23.5665 207.264 22.7665 206.592 22.1905C205.936 21.5985 205.008 21.3025 203.808 21.3025C202.848 21.3025 201.984 21.5185 201.216 21.9505C200.464 22.3665 199.872 22.9585 199.44 23.7265C199.024 24.4785 198.816 25.3265 198.816 26.2705C198.816 27.3105 199.152 28.1265 199.824 28.7185C200.496 29.2945 201.424 29.5825 202.608 29.5825ZM222.034 19.2865C223.49 19.2865 224.618 19.6545 225.418 20.3905C226.234 21.1265 226.642 22.1665 226.642 23.5105C226.642 23.9745 226.594 24.4705 226.498 24.9985L225.082 32.1265H222.778L224.194 24.9985C224.274 24.5665 224.314 24.2145 224.314 23.9425C224.314 23.1105 224.066 22.4705 223.57 22.0225C223.074 21.5745 222.338 21.3505 221.362 21.3505C220.114 21.3505 219.082 21.6945 218.266 22.3825C217.466 23.0545 216.93 24.0625 216.658 25.4065L215.314 32.1265H213.01L215.53 19.4065H217.738L217.426 21.0385C218.578 19.8705 220.114 19.2865 222.034 19.2865ZM233.354 32.2705C232.298 32.2705 231.29 32.1345 230.33 31.8625C229.386 31.5905 228.65 31.2385 228.122 30.8065L229.154 28.9825C229.65 29.3825 230.29 29.7025 231.074 29.9425C231.874 30.1665 232.706 30.2785 233.57 30.2785C234.658 30.2785 235.482 30.1185 236.042 29.7985C236.618 29.4625 236.906 28.9985 236.906 28.4065C236.906 27.9265 236.674 27.5825 236.21 27.3745C235.762 27.1665 235.058 26.9585 234.098 26.7505C233.202 26.5585 232.466 26.3665 231.89 26.1745C231.33 25.9665 230.85 25.6465 230.45 25.2145C230.05 24.7665 229.85 24.1665 229.85 23.4145C229.85 22.5825 230.082 21.8545 230.546 21.2305C231.026 20.6065 231.698 20.1265 232.562 19.7905C233.442 19.4545 234.458 19.2865 235.61 19.2865C236.458 19.2865 237.282 19.3905 238.082 19.5985C238.882 19.8065 239.538 20.0865 240.05 20.4385L239.138 22.2625C238.642 21.9265 238.066 21.6785 237.41 21.5185C236.754 21.3425 236.082 21.2545 235.394 21.2545C234.354 21.2545 233.554 21.4305 232.994 21.7825C232.434 22.1185 232.154 22.5745 232.154 23.1505C232.154 23.6625 232.386 24.0305 232.85 24.2545C233.314 24.4625 234.034 24.6705 235.01 24.8785C235.89 25.0705 236.61 25.2625 237.17 25.4545C237.73 25.6465 238.202 25.9585 238.586 26.3905C238.986 26.8225 239.186 27.4065 239.186 28.1425C239.186 29.4385 238.65 30.4545 237.578 31.1905C236.522 31.9105 235.114 32.2705 233.354 32.2705Z" fill="#202020"/>
<circle cx="327.242" cy="24.2425" r="24.2425" fill="#99CC99"/>
<path d="M319.304 30.8203C318.5 30.8203 317.756 30.6643 317.072 30.3523C316.4 30.0283 315.848 29.5783 315.416 29.0023L316.748 27.4003C317.444 28.3603 318.278 28.8403 319.25 28.8403C320.558 28.8403 321.212 28.0663 321.212 26.5183V20.0023H316.73V18.0403H323.552V26.3923C323.552 27.8683 323.192 28.9783 322.472 29.7223C321.752 30.4543 320.696 30.8203 319.304 30.8203ZM335.762 24.0883C336.458 24.3163 337.01 24.7003 337.418 25.2403C337.826 25.7683 338.03 26.4283 338.03 27.2203C338.03 28.3123 337.61 29.1583 336.77 29.7583C335.93 30.3463 334.706 30.6403 333.098 30.6403H326.834V18.0403H332.738C334.226 18.0403 335.372 18.3343 336.176 18.9223C336.98 19.4983 337.382 20.2963 337.382 21.3163C337.382 21.9403 337.238 22.4923 336.95 22.9723C336.662 23.4523 336.266 23.8243 335.762 24.0883ZM329.174 19.8763V23.3503H332.486C333.302 23.3503 333.926 23.2063 334.358 22.9183C334.802 22.6183 335.024 22.1863 335.024 21.6223C335.024 21.0463 334.802 20.6143 334.358 20.3263C333.926 20.0263 333.302 19.8763 332.486 19.8763H329.174ZM332.954 28.8043C334.766 28.8043 335.672 28.1983 335.672 26.9863C335.672 25.7743 334.766 25.1683 332.954 25.1683H329.174V28.8043H332.954Z" fill="#202020"/>
<circle cx="290.242" cy="24.2425" r="24.2425" fill="#E06B65"/>
<path d="M285 30.6403L282.426 26.9503C282.318 26.9623 282.156 26.9683 281.94 26.9683H279.096V30.6403H276.756V18.0403H281.94C283.032 18.0403 283.98 18.2203 284.784 18.5803C285.6 18.9403 286.224 19.4563 286.656 20.1283C287.088 20.8003 287.304 21.5983 287.304 22.5223C287.304 23.4703 287.07 24.2863 286.602 24.9703C286.146 25.6543 285.486 26.1643 284.622 26.5003L287.52 30.6403H285ZM284.946 22.5223C284.946 21.7183 284.682 21.1003 284.154 20.6683C283.626 20.2363 282.852 20.0203 281.832 20.0203H279.096V25.0423H281.832C282.852 25.0423 283.626 24.8263 284.154 24.3943C284.682 23.9503 284.946 23.3263 284.946 22.5223ZM301.496 30.6403L301.478 22.2883L297.338 29.2003H296.294L292.154 22.3963V30.6403H289.922V18.0403H291.848L296.852 26.3923L301.766 18.0403H303.692L303.71 30.6403H301.496Z" fill="#202020"/>
</g>
<defs>
<filter id="filter0_d" x="-0.000976562" y="0" width="355.486" height="56.4849" filterUnits="userSpaceOnUse" color-interpolation-filters="sRGB">
<feFlood flood-opacity="0" result="BackgroundImageFix"/>
<feColorMatrix in="SourceAlpha" type="matrix" values="0 0 0 0 0 0 0 0 0 0 0 0 0 0 0 0 0 0 127 0"/>
<feOffset dy="4"/>
<feGaussianBlur stdDeviation="2"/>
<feColorMatrix type="matrix" values="0 0 0 0 0 0 0 0 0 0 0 0 0 0 0 0 0 0 0.25 0"/>
<feBlend mode="normal" in2="BackgroundImageFix" result="effect1_dropShadow"/>
<feBlend mode="normal" in="SourceGraphic" in2="effect1_dropShadow" result="shape"/>
</filter>
</defs>
</svg>
