<svg xmlns="http://www.w3.org/2000/svg" viewBox="0 0 4476 2996"><defs><style>.cls-1{fill:#b4c1ff;}.cls-1,.cls-3{stroke:#000;stroke-width:3px;}.cls-1,.cls-2,.cls-3{stroke-miterlimit:10;}.cls-2{fill:#fff;stroke:#7474ff;stroke-width:6px;}.cls-3{fill:#ffdab4;}</style></defs><g id="Layer_46" data-name="Layer 46"><path class="cls-1" d="M649.31,742.47c-1.24-.45-2.46-.94-3.66-1.5-37.19-17.27-56-46.8-50.32-64.86,5.33-16.9,33.16-26.92,54.55-26.52,21.13.38,26.88.73,32.74-5.06,7.84-7.74-4.37-18.24-3.64-54.31.19-9.36.73-36.23,13.34-41.68,13.35-5.77,35.75,14.41,46.07,26.52,10.71,12.58,11,19.49,20.61,24,11.63,5.44,28.64,3.53,36.37-6.31,7.54-9.61.3-19.22,3.64-39.16,2.93-17.56,13.92-42.19,27.88-44.21,21.19-3.07,43,46.84,50.92,74.52,4.92,17.17,9.52,34.09,1.21,48-2.9,4.87-9.93,13.63-40,20.21-49.39,10.81-63-5.73-81.23,6.32-26.95,17.77-10.07,62.12-36.37,83.36C702.86,756.79,673.89,751.31,649.31,742.47Z"/><path class="cls-1" d="M141.86,268.67c12.54-17.39-11-42.77,5.79-68.52,1.36-2.09,8.57-12.75,21.71-17.49,25.33-9.13,37.77,16.3,70.94,16,32.12-.25,41.25-24.27,68-17.49,15.86,4,25.53,15.69,31.84,23.33C352.3,219.16,369.66,250.31,359,273c-12.19,26-48.23,13.69-69.48,43.74-4.21,6-6.32,11.42-11.58,61.23-7.39,70-6.11,86.62-18.82,94.76-13.59,8.7-37.65,4.16-50.67-8.75-23-22.77.92-59.21-24.61-93.3-11.3-15.09-26.26-21.68-33.29-24.78-42.59-18.78-75.64,6-91.2-11.67-9.54-10.84-8.47-33,1.44-45.19C80.35,265.12,126.34,290.2,141.86,268.67Z"/><path class="cls-1" d="M389.66,281c-2.14-26.16,9.56-55.6,29.33-73.62,23-21,51.43-21.48,55.57-42,2.26-11.19-5.11-16.57-.91-28.83s17.14-23.45,29.54-22.85c18.35.9,32.7,27.66,31.78,49.23-1.12,26.27-24.23,29.95-26.61,54.11-3.1,31.55,34.69,41.77,36.18,74.35,1.4,30.57-29.71,68.91-68.76,72.63C428.54,368.56,392.87,320.21,389.66,281Z"/><path class="cls-1" d="M296.82,227.75c21,10.3,14.22,37.19,30,44,19,8.2,37.6-27.2,75-24a55.29,55.29,0,0,1,29,11c14,10.81,24.33,30.5,21,48-5.79,30.5-50.52,40.76-69,45-20.19,4.63-54.4,12.47-83-8-23.72-17-29.18-43.15-35-71-3.32-15.95-7.37-35.32,3-44C275.18,222.58,287.9,223.37,296.82,227.75Z"/><path class="cls-1" d="M412.15,443.67c24.85-17,50.8-3.86,73.61-24.94,14.32-13.24,8.52-22.21,23.78-35.34,17.21-14.79,40.25-15.78,60-16.62,24.93-1.07,65.58-2.81,89.47,17.66C697.21,417.16,679,495,644.3,542.4c-44,60.21-137.94,103.39-194.78,74.83C408.77,596.75,382,551.7,383.83,509.14,384.33,497.36,385.84,461.68,412.15,443.67Z"/><path class="cls-1" d="M603.11,519.26c-4.8,8.66-14.45,25.59-34.36,37.67-9.62,5.84-37.13,22.53-63.1,10.4-25.6-12-38.79-46.79-29.42-61.28,5.53-8.55,15.4-4.57,30.16-16.71,11-9,10.54-15.39,20.27-27.81C533,453.47,552.05,429.09,575,431c20.77,1.72,37.85,24.5,40.57,45.38C617.68,493,610.48,506,603.11,519.26Z"/><path class="cls-1" d="M311.82,581.75a19.62,19.62,0,0,1,1-20,20.28,20.28,0,0,1,25-7c9.72,4.51,14.29,16.53,10,26-3.73,8.25-13.05,12-21,11C325.64,591.59,316.42,590.26,311.82,581.75Z"/><path class="cls-1" d="M252.86,625.75c-10.17-1.7-16.58-2.77-22-8-8.08-7.77-12.73-23.43-5-35,6.38-9.57,18.5-12.3,27-11,4.48.67,7.12,2.33,24,15,19.3,14.46,18,13.93,20,15,16.82,9,35.22,7.79,42.06,7,16.81-2,20.5-8.13,30-5,9.36,3.07,16.57,12.55,18,22,2.69,17.52-14.26,36-30,38-12.33,1.55-25.57-7.63-52.07-26-6.89-4.78-9.42-7-15-9C276.89,624,270.54,628.69,252.86,625.75Z"/><path class="cls-1" d="M338.37,682.3c-25.26-8-26.41-11.41-42.85-15.14-14.57-3.31-46.42-10.54-65.21,1.89-37.85,25.05-24.62,131.11,13,145.77,15.57,6.06,24.66-7.64,93.16-32.18,33.58-12,50.63-18,63.35-17,49.6,3.85,66.74,54.46,95,49.22,24.68-4.58,47.44-40.14,42.85-73.83-4.92-36.07-39.44-57.24-65.21-60.58C443.58,676.65,438,697,398,695.55,377.94,694.85,359.64,689.05,338.37,682.3Z"/><path class="cls-1" d="M436.09,1245.07c1,21.53-4.37,36.6,4.33,60.37,5.12,14,10,17.07,12.9,18.12,8.76,3.23,15.38-6.17,28.74-13,15.4-7.91,40.85-13,52.77-2.46,17.32,15.34,2.74,60.79.37,68.16-2.43,7.57-20,59.63-67.73,78.31-24.14,9.44-27.89-.66-60.93,10.38-35.92,12-44.27,28.19-59.08,22.06-17.86-7.39-28.27-40.23-26.22-65.59,2.44-30.11,21.24-34.52,21-64.28-.16-19.9-8.6-22.37-13.84-48.8-1.52-7.62-8.83-44.48,6-76.93,15.74-34.36,55.56-62.07,77.75-49.71C433.19,1193.38,435.83,1239.66,436.09,1245.07Z"/><path class="cls-1" d="M2665.82,2172.75c-7.55,1.17-48.53,7.56-73,44-32.36,48.19-6.08,104.65-3,111,16.77,34.52,55.27,70.76,106,69,58.55-2,101.39-53.56,107-102a103.35,103.35,0,0,0-8-52C2774.45,2195.81,2719,2164.46,2665.82,2172.75Z"/><path class="cls-1" d="M1652.82,1843.75c-5.42-20.55,10.55-44.48,28-56,25.08-16.57,57.16-10.14,76,3,25.94,18.08,16,41.34,39,56,26.29,16.73,48.19-7.94,94,3,6.91,1.64,42,10,64,40,24.25,33,31.22,90,0,123-34.81,36.83-100.12,25.84-135,0-41.82-31-21.59-69.76-67-110C1708.2,1864.08,1661,1874.52,1652.82,1843.75Z"/><path class="cls-1" d="M657.82,961.75c-11.83.27-21.78,4.87-25.23,6.49-10.85,5.13-18.3,12.16-24.77,19.51-17.38,19.76-20.55,33.83-30,49-9.35,15-14,13.6-58,48-37.36,29.18-56.19,44.09-63,60-8.45,19.74-11.14,48.69,2,71,27.08,45.94,112.85,49.28,151,15,16.8-15.1,22.87-39.4,35-88,12.34-49.41,5.65-57.1,19-82,21.17-39.48,51-44.57,48-65C709,977,680.79,961.21,657.82,961.75Z"/><path class="cls-1" d="M586.5,964.75c-23.2,6.11-27.41,18.28-57,25-11.65,2.65-11.24.82-37,4-32.29,4-48.43,6-56,13-15.86,14.71-19.33,47.91-3,70,18.65,25.26,52.57,21.68,59,21,22.22-2.34,22.79-16.72,57-36,31.42-17.7,39-11.37,63-28,17.65-12.23,47.49-39.19,41-56C647.58,962.44,612.39,957.93,586.5,964.75Z"/><path class="cls-1" d="M710.82,1028.75c-12.63,1.69-19.58,14.78-25,25-9.07,17.1-11.08,33.21-12,47-2.42,36.36-3.64,54.55,4,75,10.95,29.27,42.51,72.12,82,68,22.74-2.38,46.89-20.19,51-42,4.31-22.85-14.34-44.84-34-68-23.59-27.82-38-30.69-41-50-2.86-18.68,8.49-30,0-43C730.62,1032.74,720.17,1027.49,710.82,1028.75Z"/><path class="cls-1" d="M738.82,1092.75c3.65-6.17,39.06,20,92,16a311,311,0,0,0,36-5c30.84-6.5,35.78-13.39,51-11,23.28,3.64,37.15,23.72,38,25,8.54,12.74,3.91,18.07,11,27,4.48,5.62,13.64,12.73,64,14,42,1,53-3.46,68,6,9.58,6,23,19,22,33-1.82,25.88-52.71,47.91-96,47-42.49-.9-76.55-23.88-96-37-30-20.26-34.58-33.41-65-46-25.55-10.59-30.85-4.83-57-15C764.84,1130.41,735.27,1098.76,738.82,1092.75Z"/><path class="cls-1" d="M747.82,815.75c-36,16.65-62.89,7.22-67,21-5,16.74,30,46.3,61,61,28.46,13.49,40.88,8.44,60,25,21.77,18.84,17.52,35.63,33,41,22.49,7.79,57.35-18.62,74-49,14.64-26.72,3.54-35.21,16-74,16.07-50,40.55-54.66,39-85-1.51-29.76-26.85-61-55-65-20.64-3-36.91,9.54-64,31C787.64,767.06,790.29,796.13,747.82,815.75Z"/><path class="cls-1" d="M995.82,534.75c-27.91,7.61-48.69-25.39-65-16-12.24,7-10.65,31.47-9,57,.9,13.74,2.62,37,15,66,17.63,41.22,32.43,36.8,45,70,6.33,16.69,6.89,40.46,8,88,1,42.26-1.53,52.54,6,72,10,25.69,31,50.57,43,47,7.77-2.31,10.33-16,15-41,6.11-32.65,1.17-36.49,6-45,14.06-24.78,62.79-4.38,123-20,36.94-9.59,95.84-37.31,98-74,2.12-35.73-49.77-76.57-98-84-40.74-6.29-70.18,12.6-86-5-11.25-12.52-6.8-33.69-4-47,9.76-46.41,42.33-51.64,49-92,.84-5.09,6.93-45.45-19-64-19.45-13.93-49.18-10-65,4-10.08,8.94-7,15.32-19,37C1028.67,506.05,1015.77,529.31,995.82,534.75Z"/><path class="cls-1" d="M1243.82,572.75c-7.89-36.31-3.47-55.74-21-89-12.86-24.42-22.6-27.94-27-47-7-30.34,7.65-64.92,25-82,51.1-50.32,206.53-28.62,260,72,28.52,53.64,23.09,120.39-6,170-38.93,66.41-125.74,111.43-174,86C1263.47,663.05,1250.1,601.6,1243.82,572.75Z"/><path class="cls-1" d="M1133.82,560.75c-.5-8.8-8.77-16.84-74-47-54.94-25.41-64.68-26.92-76-41-23.32-29-26.25-77.75-8-90,20.69-13.89,66.26,20.62,76,28,52.4,39.67,54.54,81.78,82,83,30.83,1.36,41-51.13,80-52,21.75-.49,46.64,15.22,52,35,9.4,34.61-46.34,62-37,90,5.69,17,29.58,16.63,88,35,67,21,110.89,35.42,119,66,5.72,21.53-6.23,51.45-25,58-28.54,10-48.66-42.6-131-80-40.57-18.44-65-29.53-95-23-20.65,4.48-38.49,16.12-65,10-5.41-1.26-26.54-6.14-29-18C1086.92,595.88,1135.08,582.75,1133.82,560.75Z"/><path class="cls-1" d="M1075.82,1120.75c17.14,7.3,22.33,2.14,38,9,16.84,7.36,37.89,25.15,41,47,4.34,30.42-29.6,44.37-23,66,6.41,21,44.73,28.83,70,27,6.68-.49,41.19-3,61-29,30.94-40.62,1.37-106.07-9-129-11.18-24.77-15.46-21.56-23-43-16.28-46.37,1.56-67.5-15-94-19.74-31.62-65.27-33.84-70-34-50.51-1.77-81.45,38.48-88,47-3.46,4.51-43,57.4-21,99C1048.47,1108.75,1073.1,1119.59,1075.82,1120.75Z"/><path class="cls-1" d="M1288.82,1011.75c-17.75,4-33.75,7.6-49,21-20.33,17.87-38.06,52.06-27,85,13,38.69,58.24,53.27,91,51,42.37-2.94,73-34.68,85-66,1.77-4.61,20.11-54.44-6-82C1359.28,995.88,1315.32,1005.78,1288.82,1011.75Z"/><path class="cls-1" d="M1306.82,1292.75c-50.81-8.57-64.42,2-82-9-24.12-15.15-34.55-57.74-21-72,19.8-20.84,83.36,26.53,106,3,3.81-4,4.07-7.44,9-67,2.23-26.84,3.45-40.36,9-45,14.62-12.23,52-4.47,73,18,13.35,14.29,12.93,26.91,36,121,3.63,14.77,5.57,22.31,12,30,20.53,24.52,51.68,11,73,30,21.48,19.17,24.58,63.91,6,88-27.09,35.14-101,27.3-133-6-25.73-26.79-18.16-63.62-52-82C1335,1297.5,1325.61,1295.91,1306.82,1292.75Z"/><path class="cls-1" d="M1435.82,1020.75c3.27,8.61,1,11.32,0,47-.7,25.07-1.06,37.61,0,49,2.73,29.25,10.71,32.65,26,86,10.36,36.13,7.27,36.56,13,44,23.77,30.83,64.79,7.82,91,34,26.86,26.82-2.15,65,28,106,1.45,2,28,36.94,63,34,40.87-3.44,61.38-55.75,65-65,16.66-42.49,13.69-104.51-21-132-32.26-25.58-64.57.42-104-29-23.49-17.54-32.48-42.06-42-68-22.53-61.47-1.85-81.1-18-127-18-51.14-68.51-97.41-125-104-38-4.45-88.93,7.9-106,41-1.31,2.54-11.32,22.52-3,34,9.68,13.34,33-.2,70,8C1378.9,980.09,1424.22,990.12,1435.82,1020.75Z"/><path class="cls-1" d="M1500.82,866.75c11.37,10.29,36.55,33.49,54,69,13.22,26.87,16.72,50,22,85,8.65,57.17.2,64.7,12,88,20.79,41,65.85,54.9,73,57,36,10.51,92.72,9.25,113-22,27.15-41.84-21.33-121.49-63-161-18.34-17.41-27.59-19.65-50-44-18.35-20-42.53-46.25-54-85-10.69-36.14,1.62-42.74-9-85-7.32-29.16-15.39-61.26-41-75-38-20.37-104.57,4.89-123,53-.76,2-12.68,34.58,3,66C1450.12,837.38,1466.67,835.82,1500.82,866.75Z"/><path class="cls-1" d="M1620.82,1297.75c-1.39,17.41-2.49,34.88,9,47,7.79,8.2,22,14.63,32,10,10.32-4.78,12.32-19.54,16-70,4.79-65.57,2.92-61.14,5-70,10-42.79,29.74-44.29,39-87,3.73-17.18,10.32-47.59-7-72-10.74-15.15-32.51-30.56-50-25-21.88,7-27,43.56-31,72-4.66,33.3,1.44,36.91,0,75C1632.47,1213.63,1626.38,1228.6,1620.82,1297.75Z"/><path class="cls-1" d="M1440.82,546.75c17.36,25.88,38.07,15.08,58,41,25.2,32.75,24.65,92.3,4,133-7.84,15.45-16.23,23.57-17,41-1.06,24.42,13.49,52.92,30,54s30.29-25.84,38-41c19.44-38.22,15.49-62.8,24-109,11.25-61,24.9-54.78,30-99,3-25.89,11.9-103.1-37-136-32.78-22.06-91.29-24-123,14C1422.77,474.8,1422.79,519.85,1440.82,546.75Z"/><path class="cls-1" d="M1621.82,703.75c-4.26-7.14-11.55-23.78,7-79,19.8-59,33.3-99.14,71-129,58.43-46.29,169.08-63.13,218-3,36.45,44.78,32.84,125.15-3,153-33.49,26-72.36-11.55-126,17-42.3,22.5-38.63,56.78-79,68C1678.73,739.38,1637.45,729.92,1621.82,703.75Z"/><path class="cls-1" d="M1785.82,553.75c1.12-19.29,21.75-38,45-40s48.07,12.79,53,37c4.24,20.77-7.53,42.22-24,50C1829.86,614.89,1784.08,583.83,1785.82,553.75Z"/><path class="cls-1" d="M1155.82,1576.75c.23,8.58.13,23.43-4,50-8.52,54.86-18.67,59.4-19,85-.29,23,7.84,26.28,35,88,25.93,58.89,38.71,88.71,30,107-12.8,26.89-57.86,40.49-92,31-61.55-17.12-90.88-110.25-88-177,2.35-54.33,24.16-48,38-138,5.46-35.49,6.62-66.11,31-92,11.88-12.63,34.55-29.73,50-23C1154.23,1515.31,1155.13,1549.89,1155.82,1576.75Z"/><path class="cls-1" d="M1224.82,1484.75c-18.91,21.73-9.74,56-8,62,2,7,6.32,18,31,46,24.29,27.52,35.06,33.75,46,46,41.07,46,31.63,117.7,31,122-7.83,53.93-39.46,57.1-50,119-3.91,23-10.52,61.83,11,88,25.63,31.14,85,36.87,123,16,92.09-50.63,98.28-279.72,12-349-20.78-16.7-49.35-26-69-62-21.76-39.84-7.55-66.51-31-88C1296.49,1462.44,1246.72,1459.58,1224.82,1484.75Z"/><path class="cls-1" d="M1178.82,1691.75c2-9.68,6.89-33.57,25-41,21.34-8.77,45.48,11.67,47,13,22.89,19.9,23.51,51.57,24,77,.13,6.5,1.76,90.09-24,96C1223.08,1843.1,1165,1759,1178.82,1691.75Z"/><path class="cls-1" d="M986.82,1887.75c21.7,33.52,25.83,47.89,48,64,38.24,27.76,85.17,28,92,28,36.29-.23,40.61-12.85,68-8,24,4.23,28,15.16,68,40,40.82,25.31,62.23,38.6,92,40,42.09,2,75.69-21,80-24,29.2-20.5,28.73-39.21,49-44,27-6.39,64.47,18.21,76,48,20,51.55-36.32,122.18-88,156-84.34,55.18-212.57,49-265-12-28.19-32.82-15-58.79-44-80-50.49-36.88-109,28.1-188,8-88.33-22.48-150.71-138.23-144-232,2.58-36,16.93-91,44-96C910.12,1769.21,961.52,1848.64,986.82,1887.75Z"/><path class="cls-1" d="M786.82,1807.75c10.6-3.49-1.41-35.84,20-68,3.67-5.52,20.39-30.64,44-32,34-2,47.92,47.26,76,44,21.22-2.47,39.19-33.58,40-60,1.47-47.45-52.25-83.71-92-96-10.49-3.25-73.55-22.76-116,16-48.08,43.9-23.65,120.53-20,132C750.32,1779.81,775.71,1811.4,786.82,1807.75Z"/><path class="cls-1" d="M1434.82,1747.75c-5.18-28.09,2-55.41,4-63,3.82-14.11,11.83-43.73,38-65,17.88-14.53,44.8-25.65,52-18,6.34,6.72-8.48,21.76-14,52-1.22,6.69-8.62,47.31,10,76,23.26,35.82,66.45,21.18,83,52,13.48,25.07,2.44,67.44-21,80C1545.44,1883.93,1448.56,1822.17,1434.82,1747.75Z"/><path class="cls-1" d="M1441.82,1595.75c13.23,2.52,18.31-20.69,49-32,7.14-2.63,29.68-10.94,51,0,3.11,1.59,19.22,10.27,25,28,7.73,23.69-11.79,36.56-11,66,.55,20.4,10.79,46,28,55,33.19,17.43,100.76-22,121-76,23.58-62.88-18.57-141.38-80-173-64.88-33.41-130.25-3.68-138,0-14.41,6.84-58.12,27.59-66,69C1415.58,1560.3,1427,1592.92,1441.82,1595.75Z"/><path class="cls-1" d="M1756.82,1646.75c-15.78-11.81-35.12-10.84-52-10-16.67.82-29.84,1.48-40,11-16.29,15.27-16.81,45.85-4,66,14,22,39.83,25.3,53,27,12.93,1.66,42.36,5.45,58-13C1790.23,1706,1780.35,1664.34,1756.82,1646.75Z"/><path class="cls-1" d="M978.82,2025.75c14.19,18.36,35.25,28.59,51,32,24.78,5.35,29.52-7.65,68-11,18.82-1.65,48.08-4.2,75,11,21.07,11.88,32.5,30,47,53,21.09,33.42,15.61,41.81,30,52,21.27,15,35.83-1.45,76,12,24,8,39.07,20.67,49,29,15.68,13.13,31.38,26.29,29,39-3.17,17-36.81,23.43-45,25-38.65,7.4-93.56.18-139-37-44.26-36.23-39.57-68.17-81-84-12.72-4.87-32.15-4.91-71-5-76.08-.18-81.74,8.28-101-1-41-19.75-50.6-75.07-56-106-3-16.94-6.22-37.19,5-46,10.18-8,28.6-3.71,40,4C968.68,2001.43,967.34,2010.87,978.82,2025.75Z"/><path class="cls-1" d="M1117.82,2176.75c-4.6-2.89-13.48,7.69-36,25-31.42,24.15-42.32,25.23-44,37-1.93,13.55,10.13,29.13,25,35,15.62,6.15,33.58,1.29,43-9s3.29-18.08,10-60C1118.73,2186.62,1121.32,2178.94,1117.82,2176.75Z"/><path class="cls-1" d="M1135.82,2176.75c3.32-1.31,9.88,4.46,23,16a273,273,0,0,1,25,25c16.69,18.84,25,28.26,24,35-1.84,12.14-19.12,22.89-34,21-16.06-2.05-24.39-18.2-31-31C1128.61,2215.19,1126.89,2180.26,1135.82,2176.75Z"/><path class="cls-1" d="M1253.82,2192.75c8.9-7.49,21-5.2,38-2,21.33,4,35.74,11.79,47,18,16.35,9,26.71,14.7,26,21-.93,8.37-20.89,12.79-31,14-16.45,1.95-29.19-2.34-54-11-30.17-10.55-33.13-16.41-34-20C1244.05,2205.4,1248.52,2197.21,1253.82,2192.75Z"/><path class="cls-1" d="M900.82,1549.75c-2.26-16.35,6.53-35.36,20-45,21.91-15.69,54.8-5.63,73,8,19.36,14.48,19.17,30.8,33,33,16,2.53,33.82-16.44,42-32,20.17-38.34,6.84-103.7-39-132-50.13-31-108.55,1.33-117,6-5.32,2.94-64.62,36.94-68,99-1.83,33.83,13.08,73.79,40,87,7.76,3.8,20.56,7.38,24,3S902.77,1563.75,900.82,1549.75Z"/><path class="cls-1" d="M958.82,1393.75c-21.79,5.9-47-9.64-49-30-2-20.92,21.24-38.53,42-39,11.82-.28,27.85,4.89,34,18C994.31,1360.82,981.06,1387.72,958.82,1393.75Z"/><path class="cls-1" d="M1036.82,1421.75c-1.46-15.25,15.58-31.55,33-29,15.19,2.21,27.78,18.31,24,33-4,15.36-23.87,21.62-38,17C1047.28,1440,1037.82,1432.18,1036.82,1421.75Z"/><path class="cls-1" d="M893.82,1485.75c9.72,2.52,14-16,32-22,10.14-3.39,14.15.7,57,9,21.35,4.13,26.27,4.26,30,1,8.42-7.35,5.54-27.26-3-40-11.23-16.78-31.51-20-44-22-10.49-1.68-34.22-5.46-56,9-2.05,1.36-29.41,20.06-27,45C883.47,1472.42,886.67,1483.88,893.82,1485.75Z"/><path class="cls-1" d="M2260.82,1646.75c-21.18-9.09-51.17-6-67,11-23.71,25.5-10.88,77.24,15,103,25.37,25.24,50.08,12.39,74,40,16.83,19.41,9.64,31.58,25,66,11.69,26.18,29.28,64.51,66,77,16,5.44,29.81,4,38,3,38.33-4.53,82-32.44,91-69,13.67-55.25-52.89-124.76-114-147-30.21-11-54.43-8.61-81-33C2284.32,1676.17,2284.17,1656.76,2260.82,1646.75Z"/><path class="cls-1" d="M2348.82,1649.75c22.72,19,32.59,19.43,66,41,36,23.26,59.47,38.38,77,62,41.24,55.54,9.69,103.91,48,136,23.09,19.33,59.14,22.36,84,11,52-23.79,61.42-113.49,37-173-28.7-70-102.2-93.55-107-95-39.11-11.88-47.38,3.15-80-11-54.46-23.65-51.35-74.24-96-85-32.63-7.87-73.81,9.64-81,34C2288.21,1599,2329.77,1633.79,2348.82,1649.75Z"/><path class="cls-1" d="M2208.82,1818.75c138.38-145.91,310.39-140.48,367-264,10.85-23.68,20-57.59,45-63,27.42-5.94,68.65,23.49,73,55,7.69,55.68-106.1,72.51-239,198-105.83,99.92-133.71,183.7-207,181-26.51-1-64.34-13.48-72-38C2168.51,1864.34,2191,1837.51,2208.82,1818.75Z"/><path class="cls-1" d="M2292.82,1955.75c-16.13-5.1-38.13,27.64-41,32-8.9,13.53-25.42,38.62-16,66,7.66,22.24,31.34,42.82,48,38,15.41-4.46,19.67-29.13,25-60,3.43-19.82,2.8-34.73-.83-48.64C2304.91,1971.26,2301.58,1958.51,2292.82,1955.75Z"/><path class="cls-1" d="M2330.82,1986.75c8.14-2.25,12.25,8.68,27,16,24.15,12,53.83,2.88,73-3,17.69-5.43,18.06-8.83,30-10,12.22-1.2,25,1.06,48,12,36.43,17.31,54.65,26,62,42,17.34,37.78-17.91,96.79-42,96-25.05-.84-31.94-66.2-68-69-6.93-.54-17,1.07-20,7-.92,1.81-4.19,9.89,20,37,29.51,33,45.45,33.44,48,47,4.4,23.36-34.83,65.39-75,60s-63.29-56-57-88c4.14-21,20.54-31.9,15-41-5.76-9.49-30.76-9.61-41,2-7,7.95-3,16.8-5,30-4.31,28.83-34.55,61.37-62,58-24.17-3-40.59-33.12-44-56-4.87-32.73,14.17-68.82,39-86,13-9,24.72-10.86,35-26C2323.17,2001,2322.67,1989,2330.82,1986.75Z"/><path class="cls-1" d="M2269.82,2089.75c-4.18,11.56-3.36,22.69-3,27,.75,8.92,2.17,25.94,12,30,10.7,4.41,25-9.15,28-12s11.92-11.9,22-50c5.77-21.79,8.65-32.68,5-36C2323.9,2039.68,2281.22,2058.25,2269.82,2089.75Z"/><path class="cls-1" d="M2537.82,2150.75c-2.82-.9-8.18-2.61-13,0-6.49,3.5-8.08,12.71-7,19a22.54,22.54,0,0,0,19,18c9,1.17,19.54-3.39,22-11C2562.23,2166.2,2548.79,2154.23,2537.82,2150.75Z"/><path class="cls-1" d="M2272.82,1603.75c8.66-16-16-33.63-7-58,6.24-16.8,24-24.76,38-31,28-12.5,54.72-10.14,66-9,37.87,3.79,49.22,18.93,62,11,19.48-12.09,10.08-57.77,9-63-1.42-6.94-13.37-61.52-51-73-25.76-7.87-41.9,11.09-68-2-6.19-3.11-12.54-9.78-25-23-33-35-32.45-45.39-48-52-25.45-10.83-53.84,5.59-58,8-3.71,2.15-30.78,18.4-37,51-1.36,7.14-4.91,25.76,6,44,.67,1.11,12.14,19.65,33.51,25.61a64.52,64.52,0,0,0,6.49,1.39c19.55,3.42,25.62-1.91,36,2,6,2.23,14,7.77,15,15,1.21,8.9-8.85,16.78-15,22-23.92,20.33-42.11,46.07-49,62-7.52,17.37-13,49.47,5,69C2214.17,1628,2262.84,1622.2,2272.82,1603.75Z"/><path class="cls-1" d="M2177.82,1446.75c-32.27-15.06-43.28-50.58-44-53-8.21-27.94-2.12-60.55,18-82,14.38-15.33,31.63-20.38,44-24,16-4.69,37.2-10.9,57-2,23.52,10.55,22.14,32.11,46,39,1.57.45,21.64,6,32-4,13.72-13.21,3.14-46.54-9-66-25.21-40.44-74.52-48.87-87-51-13.24-2.27-75.68-13-119,29-34.92,33.81-35,80.1-35,113,0,10.35.72,64.46,36,114,12,16.85,24.08,33.28,44,36,30.9,4.2,62.85-27,59-38C2217.24,1450.36,2200.34,1457.25,2177.82,1446.75Z"/><path class="cls-1" d="M2198.82,1338.75c-5.79.49-9.59,7.62-13,14-2.38,4.46-13.87,26-2,40,10.76,12.67,34.32,11.69,42,2C2238.05,1379.32,2213.55,1337.48,2198.82,1338.75Z"/><path class="cls-1" d="M2075.82,1698.75c-2.76-23.73-2.34-38.25,7-46,14.3-11.87,45.34-4.46,57,13,7.09,10.6,4,20.38,3,41-1.39,29.28-3.17,66.42,13,88,23.25,31,70,11.77,85,41,7.82,15.27,3.64,37.29-8,47-22.31,18.61-75.38-5.3-106-34C2089.18,1813.45,2084.07,1769.55,2075.82,1698.75Z"/><path class="cls-1" d="M1997.82,1667.75c8.37,2.42,16.38,8,39,50,30,55.63,31,73.69,31,82a96.65,96.65,0,0,1-7,37c-3.92,9.48-15.64,37.77-37,41-25.29,3.81-55.5-28.84-54-55,1.32-22.81,26-28.58,26-54,0-6.93-5.34-17.72-16-39-18-36-24.61-43-21-51C1963.65,1668.07,1983.1,1663.48,1997.82,1667.75Z"/><path class="cls-1" d="M2085.82,1856.75c-8.27,2.3-6.75,7.58-28,34-15.65,19.46-22.45,24-24,36-1.15,8.94.55,22.71,8,26,13.92,6.12,44-26,44-26h0s9.54-24.25,18-24c6,.17,6.13,12.56,18,26,8,9.09,22.24,19.51,28,16,7.47-4.56,1.77-33-12-54C2127.47,1875,2104.75,1851.48,2085.82,1856.75Z"/><path class="cls-1" d="M2026.82,1799.75c9,6.81,57.62-21.73,74-64,29.48-76.06-53.13-176.36-67-171-8.27,3.19-3.52,48.4,8,83,12.17,36.51,29.37,53.66,21,75-4.87,12.42-12.79,11.9-24,31C2029.31,1770,2020.53,1795,2026.82,1799.75Z"/><path class="cls-1" d="M2727.82,2003.75c2.23-6.63,8.71-26,24-39,26-22.15,68.71-18.94,98-3,26.15,14.22,51.37,43.93,51,80-.53,52.39-54.9,101-107,91-44.33-8.55-68.32-56-71-89C2721.22,2023.94,2727,2006.13,2727.82,2003.75Z"/><path class="cls-1" d="M2787.82,2026.75c-4.49-16.28-11-27.53-20-43-26.08-44.67-40.06-47.93-40-66,.09-22.4,21.65-41,38-49,28.17-13.78,68.2-9.45,81,11,17,27.13-28.73,59.07-28,135,.2,20.26.4,41,13,62,21.47,35.71,53.57,29.84,82,62,28.69,32.44,40.27,88.45,20,109-24.5,24.84-102.62,4.92-129-40-19.6-33.39-15.7-89.23-13-128C2792.55,2069.35,2794.34,2050.32,2787.82,2026.75Z"/><path class="cls-1" d="M2650.82,2049.75c-11,4.94-21.18,18.29-18,31,3.66,14.56,23,20.52,37,18,14.73-2.66,29.11-15.67,28-28C2696.41,2054.93,2669.62,2041.29,2650.82,2049.75Z"/><path class="cls-1" d="M3070.82,2242.75c-15.93-21.87-27.91-38.64-36-65-4.35-14.22-23.75-77.5,7-123,17.42-25.78,32.47-18.53,112-75,30.11-21.38,35.66-27.89,40-36,21.67-40.5-8.58-80.32,10-98,20-19,73.53,9.64,76,11,47.75,26.15,88.23,86.32,72,119-9.56,19.25-31.14,13.5-108,51-39.66,19.35-49.51,28.49-50,39-.77,16.54,21.76,34.15,43,40,27.49,7.56,38.95-8.41,61,0,23.08,8.79,42.49,38.44,36,61-8.65,30.09-59.93,35.52-65,36-43.57,4.1-64.41-21.32-90-7-11,6.16-22.87,19.68-21,32,3.74,24.6,58.46,19.81,72,51,9.84,22.64-4.06,59.57-26,68C3159.1,2363.91,3084.33,2261.29,3070.82,2242.75Z"/><path class="cls-1" d="M2948.82,1986.75c26.88,47.57,98.19,45.62,121,45,15.83-.44,120.2-3.3,153-78,35.53-80.92-38.94-186.78-73-183-19.51,2.16-38.78,41.74-39,75-.2,31.46,16.7,47.76,7,62-10.12,14.85-38.67,12-58,10-61-6.18-80.71-35.36-101-25C2936.75,1904,2930.23,1953.83,2948.82,1986.75Z"/><path class="cls-1" d="M3276.82,1615.75c-38.9,3.18-58.54,43.68-65,57-18,37.17-13.23,78.83,3,108,2.2,4,20.06,36,36,33,14.25-2.71,10.37-30.29,29-61,28-46.21,71.91-41.62,76-69C3360,1655.59,3319.44,1612.26,3276.82,1615.75Z"/><path class="cls-1" d="M3413.82,1521.75c-26.75,6.5-67.31,16.37-76,47-10.36,36.53,29.67,84.78,65,86,15.06.51,21.17-7.79,75-54s64-51.84,62-61C3535.06,1517.66,3468.11,1508.54,3413.82,1521.75Z"/><path class="cls-1" d="M3262.82,2218.75c23.46-5.13,27.77-2.3,43-7,12-3.71,33-10.19,44-29,12.48-21.28,7.55-50.31-5-68-10.13-14.29-18.93-12.31-27-27-8-14.51-10.86-37.35,0-50,15-17.46,50.32-8.73,69,0,36.91,17.23,51.8,54.46,64,85,12.81,32,22.44,56.11,14,85-11.86,40.62-50.28,59.28-60,64-46.82,22.73-92.57,8.07-124-2-24.36-7.81-59.85-23.71-58-35C3224.06,2227.22,3241.58,2223.39,3262.82,2218.75Z"/><path class="cls-1" d="M3265.82,2298.75c20.56-10.94,33.55,3.27,77,6,28,1.75,64.13,4,90-17,19.42-15.78,16.3-31.05,41-46,8.25-5,25.31-15.32,44-10,25.22,7.16,33.51,37.11,34,39,8.9,34.1-17.56,65.72-27,77-41.09,49.1-104.23,55.42-130,58-22.66,2.26-73.83,4.15-121-24-30.69-18.32-33.46-33.71-34-38C3237.61,2325.91,3250.22,2307,3265.82,2298.75Z"/><path class="cls-1" d="M3527.82,2068.75c5,29.19,19,71,24,85,1.22,3.41,1.54,11.43,1.91,13.49a6.54,6.54,0,0,0,.26,1c1.85,5.52,2.14,6.06-.17,39.52-2.17,31.56-8.84,46.88-19,65-4.81,8.58-12,21.46-24,22-11,.48-22.32-9.55-24-20-1.85-11.52,8.85-18.57,16-31,5.43-9.44,9.65-23.43,1-70-10.75-57.92-17.89-96.35-49-134-10.39-12.59-26.28-31.36-53-41-14-5.07-26.34-5.92-42-7-37.25-2.58-46.09,5.14-69-2-10.63-3.32-27.35-8.54-34-24s-1.42-37.14,11-44c11.09-6.13,22.39,2.54,51,12,25.86,8.54,33.81,7.13,50.19,10.2,8.36,1.56,13.93,3.3,15.81,3.8,17.73,4.63,52.08-3.46,92-29,37.23-23.82,38.74-36.85,57-37,21.57-.19,44.6,17.74,51,40,7.58,26.31-10.4,50.69-18,61-15.71,21.31-28.59,20.81-37,40C3522.74,2038.93,3525.35,2054.24,3527.82,2068.75Z"/><path class="cls-1" d="M3217.82,1721.75c-32.6,1.06-54.38-59.51-57-67-14.45-41.49-6.43-76.07,7-134,8.76-37.77,15.92-47.32,25-53,21-13.17,54.83-7.16,71,12,15.92,18.83,10.8,45.66,5,76-8.73,45.76-24.51,48.62-23,80,1.36,28.12,14.66,38.58,7,58C3247.28,1707.81,3232.83,1721.26,3217.82,1721.75Z"/><path class="cls-1" d="M3042.82,1550.75c8.38-18.18,30.56-33.38,49-30,15.47,2.83,20.36,17.27,39,44,39.66,56.85,68.47,64.55,64,83-4.76,19.66-42.68,32.34-73,27C3065.75,1664.86,3024.12,1591.3,3042.82,1550.75Z"/><path class="cls-1" d="M3128.82,1624.75c-13-9.44-38.53,31-92,30-32.19-.59-43.78-15.63-60-7-23.5,12.5-33.49,62.36-12,92,23.33,32.16,74.45,27.66,104,14C3129.68,1725.61,3145.75,1637.05,3128.82,1624.75Z"/><path class="cls-1" d="M2855.82,1670.75c-12.12,2.84-33.76,7.91-41,26-7.78,19.46,5,44.13,23,55,24.94,15.09,60.58,4,75-20,8.53-14.23,12.18-37.22,0-52C2897.4,1661,2867,1668.13,2855.82,1670.75Z"/><path class="cls-1" d="M3476.81,1469.58c6.09-2,21-4.78,67.05,26.33,42.2,28.52,63.3,42.78,65.41,60.43,3.81,31.87-38.65,43.73-38.54,82.53.07,26.41,19.81,51,40,62,45.93,25.14,110.77-10.7,143.7-46.95,64.75-71.31,33-173.83,31.46-178.38-22.25-67.92-76.55-101-96.55-113.14-63-38.33-167.84-62.86-235.68-11-44.73,34.16-72,100.49-53.42,124.91,8.37,11,28.66,16.91,44.62,13.17C3461.09,1485.61,3462.45,1474.2,3476.81,1469.58Z"/><path class="cls-1" d="M3704.82,1296.75c-26-16.88-51.51,22.23-147,54-29.46,9.8-57.57,16.23-66,39-.39,1.07-6.23,17.53,2,29,15.53,21.6,66.82,5.66,72,4,35.14-11.3,33.84-26.46,73-47,45.76-24,75.28-17.87,82-38C3725.23,1324.56,3718.1,1305.37,3704.82,1296.75Z"/><path class="cls-1" d="M3555.28,1815.12c-6.85,13.12-10.09,21.34-7.07,29.39,5.08,13.57,26.07,21.62,41.82,17.35,25-6.78,33-43.66,36-57.43,8.1-37.3-7.13-43.06.08-70.58,11.64-44.46,56.65-49.52,56.23-83.22-.25-19.9-16.22-40.23-30.4-40.9-20.36-1-38.91,38.55-45.86,65.41-9.72,37.6,5.23,43-6.4,70.83C3590.35,1768.42,3577.17,1773.18,3555.28,1815.12Z"/><path class="cls-1" d="M3394.82,1328.75c27.7-26.13,58.66-35.13,72-39,39.35-11.44,50.74,1.49,112,0,34-.84,99-2.42,105-24,5.7-20.48-42.48-56.08-87-72-91.11-32.61-175.19,14.18-187,21-10.74,6.2-95.79,55.28-90,114,2.07,20.9,15.76,44.11,30,45S3369.52,1352.61,3394.82,1328.75Z"/><path class="cls-1" d="M3319.82,1220.75c42.72-11.24,42.87-38.25,87-61,10.38-5.36,58.25-28.55,112-18,32.36,6.35,48.2,21.26,63,12,14.29-9,19.38-35.27,12-54-20.8-52.86-141-45.69-151-45-23.29,1.6-114,7.85-162,75-16.35,22.85-37,65.62-21,85C3274.58,1232.65,3313.77,1222.34,3319.82,1220.75Z"/><path class="cls-1" d="M3307.82,1048.75c39.89.26,49.8-20.27,87-27,47.28-8.56,73.76,16.91,85,3,10.61-13.14-5.44-45.14-22-63-31.83-34.36-78.34-30.28-81-30-32.24,3.36-51.85,22.41-72,42-9.74,9.47-45.62,44.34-36,63C3274.9,1048.53,3296.47,1048.67,3307.82,1048.75Z"/><path class="cls-1" d="M1838.82,1076.75c48.7-39.93,113.14-28.1,130-25,15.37,2.82,76.18,16,114,70,9.52,13.59,27.51,39.27,25,74-1.88,26.11-15.87,64.64-42,70-30.69,6.28-69.16-35.08-75-72-2.47-15.69,2.25-22.27-4-36-9.42-20.72-35-38.3-56-34-20.19,4.12-19,24.89-43,41-29.21,19.61-77.1,19.78-90,0C1784,1143.59,1810.48,1100,1838.82,1076.75Z"/><path class="cls-1" d="M1901.82,1182.75c3.86-14.88,16.59-21.77,19-23,2.93-1.51,13.85-7.12,26-3,14,4.72,19.08,18.74,21,24,1.75,4.77,7.72,21.08-1,34-9.57,14.18-32.83,18.27-49,8C1904.76,1214.44,1897.93,1197.76,1901.82,1182.75Z"/><path class="cls-1" d="M1872.82,1191.75c9.81,4.47.86,23,13,41,12.69,18.8,41.3,26.54,63,24,19.33-2.27,24.43-11.65,37-8,14.9,4.31,27.74,23.27,25,38-4.65,25-55,41.65-95,33-34.72-7.52-54-32.43-59-39-6.49-8.63-29.81-39.64-18-66C1845.69,1199.43,1863.58,1187.53,1872.82,1191.75Z"/><path class="cls-1" d="M2439.82,2251.75c-23.47,9.61-43.18,17.68-53,39-10.48,22.75-5.28,51,10,70,17.45,21.64,42.87,24.75,53,26,26,3.18,76.93-1.57,96-43,17.59-38.21-1.18-87.56-33-102C2489.79,2231.28,2465,2241.43,2439.82,2251.75Z"/><path class="cls-1" d="M2535.82,2433.75c-13.74,5.55-24.37,9.95-36,20-26.48,22.88-50.55,68.5-34,102,17.63,35.67,70.92,36.5,103,37,30.9.48,77.27,1.19,106-34,28.53-34.95,19.22-80.25,18.72-82.47-2.06-9.32-6.22-28-21.72-42.53C2630.82,2395.37,2553.35,2426.67,2535.82,2433.75Z"/><path class="cls-1" d="M2813.82,2529.75c-.18-34.15-32.57-62.86-63-73-39.9-13.32-98.63-2.12-116,43-16.94,44,15.31,94.73,56,109C2746,2628.08,2814.09,2579.46,2813.82,2529.75Z"/><path class="cls-1" d="M2389.82,2416.75c1.5-1,21.59-13.49,43-3,14.42,7.05,23.4,21.57,24,36,1.07,25.41-23.91,49.83-50,47-15.91-1.73-30.87-13.45-36-30C2364.75,2447.14,2374.33,2426.79,2389.82,2416.75Z"/><path class="cls-1" d="M2731.82,2578.75c-23.78-22.47-29.1-25.62-30-34-1.6-14.93,12.21-33.48,30-37,20.8-4.12,36.9,14.29,41,19,8.13,9.29,7.06,14.28,14,25,0,0,14.43,22.27,42,32,29.68,10.46,41-9.65,82-9,13.76.21,57.86.91,78,32,15,23.19,11.66,55.49-3,78-20.26,31.11-62.74,44.5-86,32-15.77-8.49-14-24.2-44-51-18.78-16.79-25.33-15.86-28-15-12,3.85-15.29,28.67-15,43,.32,15.65,4.9,17.34,4,28-1.6,19-18.84,44.78-43,45-25.12.22-44.1-27.31-44-48,.09-16.95,12.91-19.84,27-53,8.45-19.88,13.89-32.68,10-47C2765.45,2613.7,2762.8,2608,2731.82,2578.75Z"/><path class="cls-1" d="M2702.82,2679.75c7.27,16.13-4.85,26.16-4,48,.84,21.33,13.6,41.88,30,54,27.72,20.47,60.13,12.65,67,11,11.52-2.78,32.88-7.93,42-25,5.29-9.9,3.94-19.06,12-24,6.82-4.18,16.17-2.79,22,0,19.24,9.18,21.87,43.78,20,63-3.28,33.84-25,65.89-54,84-48,30-113.08,19.76-155-14-3.4-2.75-50.5-41.88-51-101-.14-16.73,7.58-37.15,23-78,9.29-24.59,15.18-34.92,24-36C2688.13,2660.6,2698.43,2670,2702.82,2679.75Z"/><path class="cls-1" d="M2061.82,671.75c-22.36-22.16-7.69-52.64-29-65-20.67-12-60,1.85-74,29-9.36,18.22-4.36,36.8,0,53,1.88,7,18.65,65.76,70,86,25.61,10.08,30.8-.85,82,8,34.44,5.94,51.74,8.93,69,21,38.36,26.81,25.66,62.9,58,86,31,22.16,80.68,16,114-5,46.65-29.44,61.69-88.28,50-135-15.05-60.2-73.14-95-119-98-36.85-2.45-40.73,17.25-111,29C2129,687.91,2085.48,695.18,2061.82,671.75Z"/><path class="cls-1" d="M2310.82,483.75c-14.31,27.08-18.06,49.11-24,86-6.45,40.08-5.72,77.93-4,152,1.23,52.8,2.93,58.68,8,65,27.21,33.87,99.63,15.93,164,0,92-22.79,153.55-38,168-86,11.65-38.66-9.7-90.53-41-102-40.21-14.75-104.16,34.49-123,49-23.57,18.15-35.5,33.08-49,29-19.46-5.9-23.38-45.66-25-62-2.69-27.33-5.93-60.16,13-78,28.26-26.64,75.41,8.87,102-16,21-19.67,18.35-66.93-4-94-31.24-37.86-93.37-27.08-127-9C2336.53,435.11,2321.13,464.24,2310.82,483.75Z"/><path class="cls-1" d="M2577.82,471.75c3.5-2,41.86-23.51,69,0,19.61,17,22.28,47.79,9,69-16.46,26.29-50.48,26.63-70,21-4.85-1.41-36.38-11.14-41-37C2539.46,494.7,2575.77,472.94,2577.82,471.75Z"/><path class="cls-1" d="M2557.82,1363.75c-5.9-1.34-24.46-6-46,0-6.88,1.92-33.55,9.36-44,34-1.35,3.19-9.6,22.66,0,39,11,18.78,37.68,19.76,44,20,25.16.92,34.34-11.35,83-33,51.85-23.08,62.16-18.37,66-16,11,6.75,7.78,18.14,26,46,10.14,15.49,15.21,23.24,24,27,22.43,9.57,59.82-9.36,73-37,16-33.63-1.49-84.84-34-103C2698.21,1311.9,2635.73,1381.36,2557.82,1363.75Z"/><path class="cls-1" d="M2613.82,1314.75c11.18,8.84,27.24-6.57,67-14,24.36-4.56,64.95-12.15,93,7,32.88,22.43,21.78,63.32,49,73,21.08,7.48,50.57-8.92,63-30,22.93-38.87-9-98.87-46-129-41.39-33.72-90.2-30.91-106-30-11.72.67-87.47,6.26-116,60C2606.46,1273.14,2601.21,1304.77,2613.82,1314.75Z"/><path class="cls-1" d="M2920.82,1382.75c-2.66-.23-28.44-2-42,18-11,16.17-8,37.83,3,52,16.07,20.71,42.95,17.29,45,17,19.25-2.79,40.16-17.77,42-39C2971.05,1405.2,2944.47,1384.73,2920.82,1382.75Z"/><path class="cls-1" d="M2968.82,1482.75c-7.34,7.88-14.76,15.83-13,24,1.81,8.37,14.9,13,41,22,20.29,7,22.84,5.76,24,5,13.63-9,3.62-65.6-19-70C2988.89,1461.22,2974.76,1476.38,2968.82,1482.75Z"/><path class="cls-1" d="M2826.82,1325.75c.43-2.4,4.23-23.81,15-26,8.74-1.78,17.77,9.94,24,18,59.85,77.31,72.42,88.73,66,102-6,12.3-22.73,14.82-24,15C2867.64,1440.22,2818.4,1373.23,2826.82,1325.75Z"/><path class="cls-1" d="M3311.82,2638.75c-19.51-17.13-31.54-36.94-60-45-11.29-3.2-25.63-4.68-27.31-4.85-23-2.29-38.87.43-44.69.85-41.56,3-112.56-72.46-95-114,12.86-30.42,72.83-41.84,114-26,18.22,7,36.15,26,72,64,38.25,40.53,43.32,53.9,68,64,27.13,11.1,39.38,2.46,56,16,24.65,20.06,30.79,66,15,79C3392.17,2687.32,3341.88,2665.12,3311.82,2638.75Z"/><path class="cls-1" d="M3258.82,2657.75c-23.83-16.11-34.18-25.56-53-27-27.87-2.14-61.4,14.32-64,34-4.33,32.83,78.57,66.25,83,68,61.16,24.12,80.48,3.24,133,27,55.14,24.94,68.73,63.74,90,56,21.79-7.93,33.74-58.16,15-83-19.26-25.55-52.88-.3-117-26C3310.26,2692.49,3266.85,2663.17,3258.82,2657.75Z"/><path class="cls-1" d="M3462.82,2460.75c-19,19.29-24,49.12-26,61-2.66,15.74-1.5,25.25,7,90,8.11,61.72,9.1,68.52,4,80-10.69,24.09-30.32,28.53-31,50-.46,14.49,8,28.39,18,36,25.77,19.55,72.58,5.46,98-20,20.76-20.8,11.64-33.53,32-62,27-37.74,54.7-31.73,82-61,30.08-32.26,43.77-90.31,24-133C3636.58,2427.81,3508.57,2414.19,3462.82,2460.75Z"/><path class="cls-1" d="M3514.82,2512.75c14-14.4,44.15-7.28,60,0,2.2,1,43.61,20.65,41,51-2.4,27.89-40.71,49.85-69,42C3509,2595.24,3495,2533.12,3514.82,2512.75Z"/><path class="cls-1" d="M3026.82,2575.75c15.19-15.25,22.79-22.87,32-27,34.9-15.66,60,8.18,84-7,19.76-12.49,28.49-44.83,19-55-16-17.11-74.59,38.08-114,15-13.35-7.83-19.23-22.89-31-53-19-48.68-10.59-69.36-30-86-20.64-17.71-50.66-11.91-55-11-43.5,9.06-73.69,60.35-65,95,8.46,33.68,47.59,27.33,67,72,4,9.26,21.87,54.43,3,89-5.6,10.27-15.09,20.79-15,38,0,1.05.32,21.31,10,25,4.38,1.66,11.82.37,36-25C2996.62,2615.52,3001.48,2601.18,3026.82,2575.75Z"/><path class="cls-1" d="M2929.82,2393.75c-10.1,6.66-11.56,18.44-12,22-1.16,9.42.58,27.12,14,33,11.71,5.12,25.14-1.86,32-10,9.39-11.15,11.89-30.88,0-42C2954.91,2388.4,2940.1,2387,2929.82,2393.75Z"/><path class="cls-1" d="M2864.82,2282.75c-2.75,2.91-10.7,11.62-11,25,0,.77-.13,19.74,15,30,14.79,10,34.49,5.19,46-5,1.91-1.69,14.69-13.4,13-31-1.47-15.47-13.5-29.2-29-32C2880.24,2266.38,2866.87,2280.58,2864.82,2282.75Z"/><path class="cls-1" d="M3722.82,2511.75c-14,37.36,5.48,50.93-5,91-10,38.09-30.52,37.19-51,81-12.93,27.66-33.4,89.36-10,112,12.71,12.28,61-.31,157-26,95-25.42,105.25-28.29,126-25,58.72,9.29,80.22,48.69,112,36,24.69-9.86,38.62-44.38,35-71-6.55-48.21-71.71-78.52-121-81-40.81-2.06-51.81,15.91-71,5-35.55-20.23-5.42-86.28-51-142-5.28-6.46-33.1-40.48-66-36C3742.64,2460.54,3724.89,2506.22,3722.82,2511.75Z"/><path class="cls-1" d="M4172.82,2739.75c-7.5-.57-30.61-1.13-50,15-24.72,20.56-34.52,60.9-16,91,22.32,36.26,75.93,41.66,107,16,22.09-18.25,32.61-52,20-81C4217.78,2743.87,4175.23,2739.93,4172.82,2739.75Z"/><path class="cls-2" d="M612.31,697.47c-1.24-.45-2.46-.94-3.66-1.5-37.19-17.27-56-46.8-50.32-64.86,5.33-16.9,33.16-26.92,54.55-26.52,21.13.38,26.88.73,32.74-5.06,7.84-7.74-4.37-18.24-3.64-54.31.19-9.36.73-36.23,13.34-41.68,13.35-5.77,35.75,14.41,46.07,26.52,10.71,12.58,11,19.49,20.61,24,11.63,5.44,28.64,3.53,36.37-6.31,7.54-9.61.3-19.22,3.64-39.16,2.93-17.56,13.92-42.19,27.88-44.21,21.19-3.07,43,46.84,50.92,74.52,4.92,17.17,9.52,34.09,1.21,48-2.9,4.87-9.93,13.63-40,20.21-49.39,10.81-63-5.73-81.23,6.32-26.95,17.77-10.07,62.12-36.37,83.36C665.86,711.79,636.89,706.31,612.31,697.47Z"/><path class="cls-2" d="M104.86,223.67c12.54-17.39-11-42.77,5.79-68.52,1.36-2.09,8.57-12.75,21.71-17.49,25.33-9.13,37.77,16.3,70.94,16,32.12-.25,41.25-24.27,68-17.49,15.86,4,25.53,15.69,31.84,23.33C315.3,174.16,332.66,205.31,322,228c-12.19,26-48.23,13.69-69.48,43.74-4.21,6-6.32,11.42-11.58,61.23-7.39,70-6.11,86.62-18.82,94.76-13.59,8.7-37.65,4.16-50.67-8.75-23-22.77.92-59.21-24.61-93.3-11.3-15.09-26.26-21.68-33.29-24.78-42.59-18.78-75.64,6-91.2-11.67-9.54-10.84-8.47-33,1.44-45.19C43.35,220.12,89.34,245.2,104.86,223.67Z"/><path class="cls-2" d="M352.66,236c-2.14-26.16,9.56-55.6,29.33-73.62,23-21,51.43-21.48,55.57-42,2.26-11.19-5.11-16.57-.91-28.83s17.14-23.45,29.54-22.85c18.35.9,32.7,27.66,31.78,49.23-1.12,26.27-24.23,30-26.61,54.11-3.1,31.55,34.69,41.77,36.18,74.35,1.4,30.57-29.71,68.91-68.76,72.63C391.54,323.56,355.87,275.21,352.66,236Z"/><path class="cls-2" d="M259.82,182.75c21,10.3,14.22,37.19,30,44,19,8.2,37.6-27.2,75-24a55.29,55.29,0,0,1,29,11c14,10.81,24.33,30.5,21,48-5.79,30.5-50.52,40.76-69,45-20.19,4.63-54.4,12.47-83-8-23.72-17-29.18-43.15-35-71-3.32-15.95-7.37-35.32,3-44C238.18,177.58,250.9,178.37,259.82,182.75Z"/><path class="cls-2" d="M375.15,398.67c24.85-17,50.8-3.86,73.61-24.94,14.32-13.24,8.52-22.21,23.78-35.34,17.21-14.79,40.25-15.78,60-16.62,24.93-1.07,65.58-2.81,89.47,17.66C660.21,372.16,642,450,607.3,497.4c-44,60.21-137.94,103.39-194.78,74.83C371.77,551.75,345,506.7,346.83,464.14,347.33,452.36,348.84,416.68,375.15,398.67Z"/><path class="cls-2" d="M566.11,474.26c-4.8,8.66-14.45,25.59-34.36,37.67-9.62,5.84-37.13,22.53-63.1,10.4-25.6-12-38.79-46.79-29.42-61.28,5.53-8.55,15.4-4.57,30.16-16.71,11-9,10.54-15.39,20.27-27.81C496,408.47,515.05,384.09,538,386c20.77,1.72,37.85,24.5,40.57,45.38C580.68,448,573.48,461,566.11,474.26Z"/><path class="cls-2" d="M274.82,536.75a19.62,19.62,0,0,1,1-20,20.28,20.28,0,0,1,25-7c9.72,4.51,14.29,16.53,10,26-3.73,8.25-13.05,12-21,11C288.64,546.59,279.42,545.26,274.82,536.75Z"/><path class="cls-2" d="M215.86,580.75c-10.17-1.7-16.58-2.77-22-8-8.08-7.77-12.73-23.43-5-35,6.38-9.57,18.5-12.3,27-11,4.48.67,7.12,2.33,24,15,19.3,14.46,18,13.93,20,15,16.82,9,35.22,7.79,42.06,7,16.81-2,20.5-8.13,30-5,9.36,3.07,16.57,12.55,18,22,2.69,17.52-14.26,36-30,38-12.33,1.55-25.57-7.63-52.07-26-6.89-4.78-9.42-7-15-9C239.89,579,233.54,583.69,215.86,580.75Z"/><path class="cls-2" d="M301.37,637.3c-25.26-8-26.41-11.41-42.85-15.14-14.57-3.31-46.42-10.54-65.21,1.89-37.85,25.05-24.62,131.11,13,145.77,15.57,6.06,24.66-7.64,93.16-32.18,33.58-12,50.63-18,63.35-17,49.6,3.85,66.74,54.46,95,49.22,24.68-4.58,47.44-40.14,42.85-73.83-4.92-36.07-39.44-57.24-65.21-60.58C406.58,631.65,401,652,361,650.55,340.94,649.85,322.64,644.05,301.37,637.3Z"/><path class="cls-2" d="M399.09,1200.07c1,21.53-4.37,36.6,4.33,60.37,5.12,14,10,17.07,12.9,18.12,8.76,3.23,15.38-6.17,28.74-13,15.4-7.91,40.85-13,52.77-2.46,17.32,15.34,2.74,60.79.37,68.16-2.43,7.57-20,59.63-67.73,78.31-24.14,9.44-27.89-.66-60.93,10.38-35.92,12-44.27,28.19-59.08,22.06-17.86-7.39-28.27-40.23-26.22-65.59,2.44-30.11,21.24-34.52,21-64.28-.16-19.9-8.6-22.37-13.84-48.8-1.52-7.62-8.83-44.48,6-76.93,15.74-34.36,55.56-62.07,77.75-49.71C396.19,1148.38,398.83,1194.66,399.09,1200.07Z"/><path class="cls-2" d="M2628.82,2127.75c-7.55,1.17-48.53,7.56-73,44-32.36,48.19-6.08,104.65-3,111,16.77,34.52,55.27,70.76,106,69,58.55-2,101.39-53.56,107-102a103.35,103.35,0,0,0-8-52C2737.45,2150.81,2682,2119.46,2628.82,2127.75Z"/><path class="cls-2" d="M1615.82,1798.75c-5.42-20.55,10.55-44.48,28-56,25.08-16.57,57.16-10.14,76,3,25.94,18.08,16,41.34,39,56,26.29,16.73,48.19-7.94,94,3,6.91,1.64,42,10,64,40,24.25,33,31.22,90,0,123-34.81,36.83-100.12,25.84-135,0-41.82-31-21.59-69.76-67-110C1671.2,1819.08,1624,1829.52,1615.82,1798.75Z"/><path class="cls-2" d="M620.82,916.75c-11.83.27-21.78,4.87-25.23,6.49-10.85,5.13-18.3,12.16-24.77,19.51-17.38,19.76-20.55,33.83-30,49s-14,13.6-58,48c-37.36,29.18-56.19,44.09-63,60-8.45,19.74-11.14,48.69,2,71,27.08,45.94,112.85,49.28,151,15,16.8-15.1,22.87-39.4,35-88,12.34-49.41,5.65-57.1,19-82,21.17-39.48,51-44.57,48-65C672,932,643.79,916.21,620.82,916.75Z"/><path class="cls-2" d="M549.5,919.75c-23.2,6.11-27.41,18.28-57,25-11.65,2.65-11.24.82-37,4-32.29,4-48.43,6-56,13-15.86,14.71-19.33,47.91-3,70,18.65,25.26,52.57,21.68,59,21,22.22-2.34,22.79-16.72,57-36,31.42-17.7,39-11.37,63-28,17.65-12.23,47.49-39.19,41-56C610.58,917.44,575.39,912.93,549.5,919.75Z"/><path class="cls-2" d="M673.82,983.75c-12.63,1.69-19.58,14.78-25,25-9.07,17.1-11.08,33.21-12,47-2.42,36.36-3.64,54.55,4,75,10.95,29.27,42.51,72.12,82,68,22.74-2.38,46.89-20.19,51-42,4.31-22.85-14.34-44.84-34-68-23.59-27.82-38-30.69-41-50-2.86-18.68,8.49-30,0-43C693.62,987.74,683.17,982.49,673.82,983.75Z"/><path class="cls-2" d="M701.82,1047.75c3.65-6.17,39.06,20,92,16a311,311,0,0,0,36-5c30.84-6.5,35.78-13.39,51-11,23.28,3.64,37.15,23.72,38,25,8.54,12.74,3.91,18.07,11,27,4.48,5.62,13.64,12.73,64,14,42,1,53-3.46,68,6,9.58,6,23,19,22,33-1.82,25.88-52.71,47.91-96,47-42.49-.9-76.55-23.88-96-37-30-20.26-34.58-33.41-65-46-25.55-10.59-30.85-4.83-57-15C727.84,1085.41,698.27,1053.76,701.82,1047.75Z"/><path class="cls-2" d="M710.82,770.75c-36,16.65-62.89,7.22-67,21-5,16.74,30,46.3,61,61,28.46,13.49,40.88,8.44,60,25,21.77,18.84,17.52,35.63,33,41,22.49,7.79,57.35-18.62,74-49,14.64-26.72,3.54-35.21,16-74,16.07-50,40.55-54.66,39-85-1.51-29.76-26.85-61-55-65-20.64-3-36.91,9.54-64,31C750.64,722.06,753.29,751.13,710.82,770.75Z"/><path class="cls-2" d="M958.82,489.75c-27.91,7.61-48.69-25.39-65-16-12.24,7-10.65,31.47-9,57,.9,13.74,2.62,37,15,66,17.63,41.22,32.43,36.8,45,70,6.33,16.69,6.89,40.46,8,88,1,42.26-1.53,52.54,6,72,10,25.69,31,50.57,43,47,7.77-2.31,10.33-16,15-41,6.11-32.65,1.17-36.49,6-45,14.06-24.78,62.79-4.38,123-20,36.94-9.59,95.84-37.31,98-74,2.12-35.73-49.77-76.57-98-84-40.74-6.29-70.18,12.6-86-5-11.25-12.52-6.8-33.69-4-47,9.76-46.41,42.33-51.64,49-92,.84-5.09,6.93-45.45-19-64-19.45-13.93-49.18-10-65,4-10.08,8.94-7,15.32-19,37C991.67,461.05,978.77,484.31,958.82,489.75Z"/><path class="cls-2" d="M1206.82,527.75c-7.89-36.31-3.47-55.74-21-89-12.86-24.42-22.6-27.94-27-47-7-30.34,7.65-64.92,25-82,51.1-50.32,206.53-28.62,260,72,28.52,53.64,23.09,120.39-6,170-38.93,66.41-125.74,111.43-174,86C1226.47,618.05,1213.1,556.6,1206.82,527.75Z"/><path class="cls-2" d="M1096.82,515.75c-.5-8.8-8.77-16.84-74-47-54.94-25.41-64.68-26.92-76-41-23.32-29-26.25-77.75-8-90,20.69-13.89,66.26,20.62,76,28,52.4,39.67,54.54,81.78,82,83,30.83,1.36,41-51.13,80-52,21.75-.49,46.64,15.22,52,35,9.4,34.61-46.34,62-37,90,5.69,17,29.58,16.63,88,35,67,21,110.89,35.42,119,66,5.72,21.53-6.23,51.45-25,58-28.54,10-48.66-42.6-131-80-40.57-18.44-65-29.53-95-23-20.65,4.48-38.49,16.12-65,10-5.41-1.26-26.54-6.14-29-18C1049.92,550.88,1098.08,537.75,1096.82,515.75Z"/><path class="cls-2" d="M1038.82,1075.75c17.14,7.3,22.33,2.14,38,9,16.84,7.36,37.89,25.15,41,47,4.34,30.42-29.6,44.37-23,66,6.41,21,44.73,28.83,70,27,6.68-.49,41.19-3,61-29,30.94-40.62,1.37-106.07-9-129-11.18-24.77-15.46-21.56-23-43-16.28-46.37,1.56-67.5-15-94-19.74-31.62-65.27-33.84-70-34-50.51-1.77-81.45,38.48-88,47-3.46,4.51-43,57.4-21,99C1011.47,1063.75,1036.1,1074.59,1038.82,1075.75Z"/><path class="cls-2" d="M1251.82,966.75c-17.75,4-33.75,7.6-49,21-20.33,17.87-38.06,52.06-27,85,13,38.69,58.24,53.27,91,51,42.37-2.94,73-34.68,85-66,1.77-4.61,20.11-54.44-6-82C1322.28,950.88,1278.32,960.78,1251.82,966.75Z"/><path class="cls-2" d="M1269.82,1247.75c-50.81-8.57-64.42,2-82-9-24.12-15.15-34.55-57.74-21-72,19.8-20.84,83.36,26.53,106,3,3.81-4,4.07-7.44,9-67,2.23-26.84,3.45-40.36,9-45,14.62-12.23,52-4.47,73,18,13.35,14.29,12.93,26.91,36,121,3.63,14.77,5.57,22.31,12,30,20.53,24.52,51.68,11,73,30,21.48,19.17,24.58,63.91,6,88-27.09,35.14-101,27.3-133-6-25.73-26.79-18.16-63.62-52-82C1298,1252.5,1288.61,1250.91,1269.82,1247.75Z"/><path class="cls-2" d="M1398.82,975.75c3.27,8.61,1,11.32,0,47-.7,25.07-1.06,37.61,0,49,2.73,29.25,10.71,32.65,26,86,10.36,36.13,7.27,36.56,13,44,23.77,30.83,64.79,7.82,91,34,26.86,26.82-2.15,65,28,106,1.45,2,28,36.94,63,34,40.87-3.44,61.38-55.75,65-65,16.66-42.49,13.69-104.51-21-132-32.26-25.58-64.57.42-104-29-23.49-17.54-32.48-42.06-42-68-22.53-61.47-1.85-81.1-18-127-18-51.14-68.51-97.41-125-104-38-4.45-88.93,7.9-106,41-1.31,2.54-11.32,22.52-3,34,9.68,13.34,33-.2,70,8C1341.9,935.09,1387.22,945.12,1398.82,975.75Z"/><path class="cls-2" d="M1463.82,821.75c11.37,10.29,36.55,33.49,54,69,13.22,26.87,16.72,50,22,85,8.65,57.17.2,64.7,12,88,20.79,41,65.85,54.9,73,57,36,10.51,92.72,9.25,113-22,27.15-41.84-21.33-121.49-63-161-18.34-17.41-27.59-19.65-50-44-18.35-20-42.53-46.25-54-85-10.69-36.14,1.62-42.74-9-85-7.32-29.16-15.39-61.26-41-75-38-20.37-104.57,4.89-123,53-.76,2-12.68,34.58,3,66C1413.12,792.38,1429.67,790.82,1463.82,821.75Z"/><path class="cls-2" d="M1583.82,1252.75c-1.39,17.41-2.49,34.88,9,47,7.79,8.2,22,14.63,32,10,10.32-4.78,12.32-19.54,16-70,4.79-65.57,2.92-61.14,5-70,10-42.79,29.74-44.29,39-87,3.73-17.18,10.32-47.59-7-72-10.74-15.15-32.51-30.56-50-25-21.88,7-27,43.56-31,72-4.66,33.3,1.44,36.91,0,75C1595.47,1168.63,1589.38,1183.6,1583.82,1252.75Z"/><path class="cls-2" d="M1403.82,501.75c17.36,25.88,38.07,15.08,58,41,25.2,32.75,24.65,92.3,4,133-7.84,15.45-16.23,23.57-17,41-1.06,24.42,13.49,52.92,30,54s30.29-25.84,38-41c19.44-38.22,15.49-62.8,24-109,11.25-61,24.9-54.78,30-99,3-25.89,11.9-103.1-37-136-32.78-22.06-91.29-24-123,14C1385.77,429.8,1385.79,474.85,1403.82,501.75Z"/><path class="cls-2" d="M1584.82,658.75c-4.26-7.14-11.55-23.78,7-79,19.8-59,33.3-99.14,71-129,58.43-46.29,169.08-63.13,218-3,36.45,44.78,32.84,125.15-3,153-33.49,26-72.36-11.55-126,17-42.3,22.5-38.63,56.78-79,68C1641.73,694.38,1600.45,684.92,1584.82,658.75Z"/><path class="cls-2" d="M1748.82,508.75c1.12-19.29,21.75-38.05,45-40s48.07,12.79,53,37c4.24,20.77-7.53,42.22-24,50C1792.86,569.89,1747.08,538.83,1748.82,508.75Z"/><path class="cls-2" d="M1118.82,1531.75c.23,8.58.13,23.43-4,50-8.52,54.86-18.67,59.4-19,85-.29,23,7.84,26.28,35,88,25.93,58.89,38.71,88.71,30,107-12.8,26.89-57.86,40.49-92,31-61.55-17.12-90.88-110.25-88-177,2.35-54.33,24.16-48,38-138,5.46-35.49,6.62-66.11,31-92,11.88-12.63,34.55-29.73,50-23C1117.23,1470.31,1118.13,1504.89,1118.82,1531.75Z"/><path class="cls-2" d="M1187.82,1439.75c-18.91,21.73-9.74,56-8,62,2,7,6.32,18,31,46,24.29,27.52,35.06,33.75,46,46,41.07,46,31.63,117.7,31,122-7.83,53.93-39.46,57.1-50,119-3.91,23-10.52,61.83,11,88,25.63,31.14,85,36.87,123,16,92.09-50.63,98.28-279.72,12-349-20.78-16.7-49.35-26-69-62-21.76-39.84-7.55-66.51-31-88C1259.49,1417.44,1209.72,1414.58,1187.82,1439.75Z"/><path class="cls-2" d="M1141.82,1646.75c2-9.68,6.89-33.57,25-41,21.34-8.77,45.48,11.67,47,13,22.89,19.9,23.51,51.57,24,77,.13,6.5,1.76,90.09-24,96C1186.08,1798.1,1128,1714,1141.82,1646.75Z"/><path class="cls-2" d="M949.82,1842.75c21.7,33.52,25.83,47.89,48,64,38.24,27.76,85.17,28,92,28,36.29-.23,40.61-12.85,68-8,24,4.23,28,15.16,68,40,40.82,25.31,62.23,38.6,92,40,42.09,2,75.69-21,80-24,29.2-20.5,28.73-39.21,49-44,27-6.39,64.47,18.21,76,48,20,51.55-36.32,122.18-88,156-84.34,55.18-212.57,49-265-12-28.19-32.82-15-58.79-44-80-50.49-36.88-109,28.1-188,8-88.33-22.48-150.71-138.23-144-232,2.58-36,16.93-91,44-96C873.12,1724.21,924.52,1803.64,949.82,1842.75Z"/><path class="cls-2" d="M749.82,1762.75c10.6-3.49-1.41-35.84,20-68,3.67-5.52,20.39-30.64,44-32,34-2,47.92,47.26,76,44,21.22-2.47,39.19-33.58,40-60,1.47-47.45-52.25-83.71-92-96-10.49-3.25-73.55-22.76-116,16-48.08,43.9-23.65,120.53-20,132C713.32,1734.81,738.71,1766.4,749.82,1762.75Z"/><path class="cls-2" d="M1397.82,1702.75c-5.18-28.09,2-55.41,4-63,3.82-14.11,11.83-43.73,38-65,17.88-14.53,44.8-25.65,52-18,6.34,6.72-8.48,21.76-14,52-1.22,6.69-8.62,47.31,10,76,23.26,35.82,66.45,21.18,83,52,13.48,25.07,2.44,67.44-21,80C1508.44,1838.93,1411.56,1777.17,1397.82,1702.75Z"/><path class="cls-2" d="M1404.82,1550.75c13.23,2.52,18.31-20.69,49-32,7.14-2.63,29.68-10.94,51,0,3.11,1.59,19.22,10.27,25,28,7.73,23.69-11.79,36.56-11,66,.55,20.4,10.79,46,28,55,33.19,17.43,100.76-22,121-76,23.58-62.88-18.57-141.38-80-173-64.88-33.41-130.25-3.68-138,0-14.41,6.84-58.12,27.59-66,69C1378.58,1515.3,1390,1547.92,1404.82,1550.75Z"/><path class="cls-2" d="M1719.82,1601.75c-15.78-11.81-35.12-10.84-52-10-16.67.82-29.84,1.48-40,11-16.29,15.27-16.81,45.85-4,66,14,22,39.83,25.3,53,27,12.93,1.66,42.36,5.45,58-13C1753.23,1661,1743.35,1619.34,1719.82,1601.75Z"/><path class="cls-2" d="M941.82,1980.75c14.19,18.36,35.25,28.59,51,32,24.78,5.35,29.52-7.65,68-11,18.82-1.65,48.08-4.2,75,11,21.07,11.88,32.5,30,47,53,21.09,33.42,15.61,41.81,30,52,21.27,15,35.83-1.45,76,12,24,8,39.07,20.67,49,29,15.68,13.13,31.38,26.29,29,39-3.17,17-36.81,23.43-45,25-38.65,7.4-93.56.18-139-37-44.26-36.23-39.57-68.17-81-84-12.72-4.87-32.15-4.91-71-5-76.08-.18-81.74,8.28-101-1-41-19.75-50.6-75.07-56-106-3-16.94-6.22-37.19,5-46,10.18-8,28.6-3.71,40,4C931.68,1956.43,930.34,1965.87,941.82,1980.75Z"/><path class="cls-2" d="M1080.82,2131.75c-4.6-2.89-13.48,7.69-36,25-31.42,24.15-42.32,25.23-44,37-1.93,13.55,10.13,29.13,25,35,15.62,6.15,33.58,1.29,43-9s3.29-18.08,10-60C1081.73,2141.62,1084.32,2133.94,1080.82,2131.75Z"/><path class="cls-2" d="M1098.82,2131.75c3.32-1.31,9.88,4.46,23,16a273,273,0,0,1,25,25c16.69,18.84,25,28.26,24,35-1.84,12.14-19.12,22.89-34,21-16.06-2.05-24.39-18.2-31-31C1091.61,2170.19,1089.89,2135.26,1098.82,2131.75Z"/><path class="cls-2" d="M1216.82,2147.75c8.9-7.49,21-5.2,38-2,21.33,4,35.74,11.79,47,18,16.35,9,26.71,14.7,26,21-.93,8.37-20.89,12.79-31,14-16.45,1.95-29.19-2.34-54-11-30.17-10.55-33.13-16.41-34-20C1207.05,2160.4,1211.52,2152.21,1216.82,2147.75Z"/><path class="cls-2" d="M863.82,1504.75c-2.26-16.35,6.53-35.36,20-45,21.91-15.69,54.8-5.63,73,8,19.36,14.48,19.17,30.8,33,33,16,2.53,33.82-16.44,42-32,20.17-38.34,6.84-103.7-39-132-50.13-31-108.55,1.33-117,6-5.32,2.94-64.62,36.94-68,99-1.83,33.83,13.08,73.79,40,87,7.76,3.8,20.56,7.38,24,3S865.77,1518.75,863.82,1504.75Z"/><path class="cls-2" d="M921.82,1348.75c-21.79,5.9-47-9.64-49-30-2-20.92,21.24-38.53,42-39,11.82-.28,27.85,4.89,34,18C957.31,1315.82,944.06,1342.72,921.82,1348.75Z"/><path class="cls-2" d="M999.82,1376.75c-1.46-15.25,15.58-31.55,33-29,15.19,2.21,27.78,18.31,24,33-4,15.36-23.87,21.62-38,17C1010.28,1395,1000.82,1387.18,999.82,1376.75Z"/><path class="cls-2" d="M856.82,1440.75c9.72,2.52,14-16,32-22,10.14-3.39,14.15.7,57,9,21.35,4.13,26.27,4.26,30,1,8.42-7.35,5.54-27.26-3-40-11.23-16.78-31.51-20-44-22-10.49-1.68-34.22-5.46-56,9-2.05,1.36-29.41,20.06-27,45C846.47,1427.42,849.67,1438.88,856.82,1440.75Z"/><path class="cls-2" d="M2223.82,1601.75c-21.18-9.09-51.17-6-67,11-23.71,25.5-10.88,77.24,15,103,25.37,25.24,50.08,12.39,74,40,16.83,19.41,9.64,31.58,25,66,11.69,26.18,29.28,64.51,66,77,16,5.44,29.81,4,38,3,38.33-4.53,82-32.44,91-69,13.67-55.25-52.89-124.76-114-147-30.21-11-54.43-8.61-81-33C2247.32,1631.17,2247.17,1611.76,2223.82,1601.75Z"/><path class="cls-2" d="M2311.82,1604.75c22.72,19,32.59,19.43,66,41,36,23.26,59.47,38.38,77,62,41.24,55.54,9.69,103.91,48,136,23.09,19.33,59.14,22.36,84,11,52-23.79,61.42-113.49,37-173-28.7-70-102.2-93.55-107-95-39.11-11.88-47.38,3.15-80-11-54.46-23.65-51.35-74.24-96-85-32.63-7.87-73.81,9.64-81,34C2251.21,1554,2292.77,1588.79,2311.82,1604.75Z"/><path class="cls-2" d="M2171.82,1773.75c138.38-145.91,310.39-140.48,367-264,10.85-23.68,20-57.59,45-63,27.42-5.94,68.65,23.49,73,55,7.69,55.68-106.1,72.51-239,198-105.83,99.92-133.71,183.7-207,181-26.51-1-64.34-13.48-72-38C2131.51,1819.34,2154,1792.51,2171.82,1773.75Z"/><path class="cls-2" d="M2255.82,1910.75c-16.13-5.1-38.13,27.64-41,32-8.9,13.53-25.42,38.62-16,66,7.66,22.24,31.34,42.82,48,38,15.41-4.46,19.67-29.13,25-60,3.43-19.82,2.8-34.73-.83-48.64C2267.91,1926.26,2264.58,1913.51,2255.82,1910.75Z"/><path class="cls-2" d="M2293.82,1941.75c8.14-2.25,12.25,8.68,27,16,24.15,12,53.83,2.88,73-3,17.69-5.43,18.06-8.83,30-10,12.22-1.2,25,1.06,48,12,36.43,17.31,54.65,26,62,42,17.34,37.78-17.91,96.79-42,96-25.05-.84-31.94-66.2-68-69-6.93-.54-17,1.07-20,7-.92,1.81-4.19,9.89,20,37,29.51,33,45.45,33.44,48,47,4.4,23.36-34.83,65.39-75,60s-63.29-56-57-88c4.14-21,20.54-31.9,15-41-5.76-9.49-30.76-9.61-41,2-7,7.95-3,16.8-5,30-4.31,28.83-34.55,61.37-62,58-24.17-3-40.59-33.12-44-56-4.87-32.73,14.17-68.82,39-86,13-9,24.72-10.86,35-26C2286.17,1956,2285.67,1944,2293.82,1941.75Z"/><path class="cls-2" d="M2232.82,2044.75c-4.18,11.56-3.36,22.69-3,27,.75,8.92,2.17,25.94,12,30,10.7,4.41,25-9.15,28-12s11.92-11.9,22-50c5.77-21.79,8.65-32.68,5-36C2286.9,1994.68,2244.22,2013.25,2232.82,2044.75Z"/><path class="cls-2" d="M2500.82,2105.75c-2.82-.9-8.18-2.61-13,0-6.49,3.5-8.08,12.71-7,19a22.54,22.54,0,0,0,19,18c9,1.17,19.54-3.39,22-11C2525.23,2121.2,2511.79,2109.23,2500.82,2105.75Z"/><path class="cls-2" d="M2235.82,1558.75c8.66-16-16-33.63-7-58,6.24-16.8,24-24.76,38-31,28-12.5,54.72-10.14,66-9,37.87,3.79,49.22,18.93,62,11,19.48-12.09,10.08-57.77,9-63-1.42-6.94-13.37-61.52-51-73-25.76-7.87-41.9,11.09-68-2-6.19-3.11-12.54-9.78-25-23-33-35-32.45-45.39-48-52-25.45-10.83-53.84,5.59-58,8-3.71,2.15-30.78,18.4-37,51-1.36,7.14-4.91,25.76,6,44,.67,1.11,12.14,19.65,33.51,25.61a64.52,64.52,0,0,0,6.49,1.39c19.55,3.42,25.62-1.91,36,2,6,2.23,14,7.77,15,15,1.21,8.9-8.85,16.78-15,22-23.92,20.33-42.11,46.07-49,62-7.52,17.37-13,49.47,5,69C2177.17,1583,2225.84,1577.2,2235.82,1558.75Z"/><path class="cls-2" d="M2140.82,1401.75c-32.27-15.06-43.28-50.58-44-53-8.21-27.94-2.12-60.55,18-82,14.38-15.33,31.63-20.38,44-24,16-4.69,37.2-10.9,57-2,23.52,10.55,22.14,32.11,46,39,1.57.45,21.64,6,32-4,13.72-13.21,3.14-46.54-9-66-25.21-40.44-74.52-48.87-87-51-13.24-2.27-75.68-13-119,29-34.92,33.81-35,80.1-35,113,0,10.35.72,64.46,36,114,12,16.85,24.08,33.28,44,36,30.9,4.2,62.85-27,59-38C2180.24,1405.36,2163.34,1412.25,2140.82,1401.75Z"/><path class="cls-2" d="M2161.82,1293.75c-5.79.49-9.59,7.62-13,14-2.38,4.46-13.87,26-2,40,10.76,12.67,34.32,11.69,42,2C2201.05,1334.32,2176.55,1292.48,2161.82,1293.75Z"/><path class="cls-2" d="M2038.82,1653.75c-2.76-23.73-2.34-38.25,7-46,14.3-11.87,45.34-4.46,57,13,7.09,10.6,4,20.38,3,41-1.39,29.28-3.17,66.42,13,88,23.25,31,70,11.77,85,41,7.82,15.27,3.64,37.29-8,47-22.31,18.61-75.38-5.3-106-34C2052.18,1768.45,2047.07,1724.55,2038.82,1653.75Z"/><path class="cls-2" d="M1960.82,1622.75c8.37,2.42,16.38,8,39,50,30,55.63,31,73.69,31,82a96.65,96.65,0,0,1-7,37c-3.92,9.48-15.64,37.77-37,41-25.29,3.81-55.5-28.84-54-55,1.32-22.81,26-28.58,26-54,0-6.93-5.34-17.72-16-39-18-36-24.61-43-21-51C1926.65,1623.07,1946.1,1618.48,1960.82,1622.75Z"/><path class="cls-2" d="M2048.82,1811.75c-8.27,2.3-6.75,7.58-28,34-15.65,19.46-22.45,24-24,36-1.15,8.94.55,22.71,8,26,13.92,6.12,44-26,44-26h0s9.54-24.25,18-24c6,.17,6.13,12.56,18,26,8,9.09,22.24,19.51,28,16,7.47-4.56,1.77-33-12-54C2090.47,1830,2067.75,1806.48,2048.82,1811.75Z"/><path class="cls-2" d="M1989.82,1754.75c9,6.81,57.62-21.73,74-64,29.48-76.06-53.13-176.36-67-171-8.27,3.19-3.52,48.4,8,83,12.17,36.51,29.37,53.66,21,75-4.87,12.42-12.79,11.9-24,31C1992.31,1725,1983.53,1750,1989.82,1754.75Z"/><path class="cls-2" d="M2690.82,1958.75c2.23-6.63,8.71-26,24-39,26-22.15,68.71-18.94,98-3,26.15,14.22,51.37,43.93,51,80-.53,52.39-54.9,101-107,91-44.33-8.55-68.32-56-71-89C2684.22,1978.94,2690,1961.13,2690.82,1958.75Z"/><path class="cls-2" d="M2750.82,1981.75c-4.49-16.28-11-27.53-20-43-26.08-44.67-40.06-47.93-40-66,.09-22.4,21.65-41,38-49,28.17-13.78,68.2-9.45,81,11,17,27.13-28.73,59.07-28,135,.2,20.26.4,41,13,62,21.47,35.71,53.57,29.84,82,62,28.69,32.44,40.27,88.45,20,109-24.5,24.84-102.62,4.92-129-40-19.6-33.39-15.7-89.23-13-128C2755.55,2024.35,2757.34,2005.32,2750.82,1981.75Z"/><path class="cls-2" d="M2613.82,2004.75c-11,4.94-21.18,18.29-18,31,3.66,14.56,23,20.52,37,18,14.73-2.66,29.11-15.67,28-28C2659.41,2009.93,2632.62,1996.29,2613.82,2004.75Z"/><path class="cls-2" d="M3033.82,2197.75c-15.93-21.87-27.91-38.64-36-65-4.35-14.22-23.75-77.5,7-123,17.42-25.78,32.47-18.53,112-75,30.11-21.38,35.66-27.89,40-36,21.67-40.5-8.58-80.32,10-98,20-19,73.53,9.64,76,11,47.75,26.15,88.23,86.32,72,119-9.56,19.25-31.14,13.5-108,51-39.66,19.35-49.51,28.49-50,39-.77,16.54,21.76,34.15,43,40,27.49,7.56,38.95-8.41,61,0,23.08,8.79,42.49,38.44,36,61-8.65,30.09-59.93,35.52-65,36-43.57,4.1-64.41-21.32-90-7-11,6.16-22.87,19.68-21,32,3.74,24.6,58.46,19.81,72,51,9.84,22.64-4.06,59.57-26,68C3122.1,2318.91,3047.33,2216.29,3033.82,2197.75Z"/><path class="cls-2" d="M2911.82,1941.75c26.88,47.57,98.19,45.62,121,45,15.83-.44,120.2-3.3,153-78,35.53-80.92-38.94-186.78-73-183-19.51,2.16-38.78,41.74-39,75-.2,31.46,16.7,47.76,7,62-10.12,14.85-38.67,12-58,10-61-6.18-80.71-35.36-101-25C2899.75,1859,2893.23,1908.83,2911.82,1941.75Z"/><path class="cls-2" d="M3239.82,1570.75c-38.9,3.18-58.54,43.68-65,57-18,37.17-13.23,78.83,3,108,2.2,4,20.06,36,36,33,14.25-2.71,10.37-30.29,29-61,28-46.21,71.91-41.62,76-69C3323,1610.59,3282.44,1567.26,3239.82,1570.75Z"/><path class="cls-2" d="M3376.82,1476.75c-26.75,6.5-67.31,16.37-76,47-10.36,36.53,29.67,84.78,65,86,15.06.51,21.17-7.79,75-54s64-51.84,62-61C3498.06,1472.66,3431.11,1463.54,3376.82,1476.75Z"/><path class="cls-2" d="M3225.82,2173.75c23.46-5.13,27.77-2.3,43-7,12-3.71,33-10.19,44-29,12.48-21.28,7.55-50.31-5-68-10.13-14.29-18.93-12.31-27-27-8-14.51-10.86-37.35,0-50,15-17.46,50.32-8.73,69,0,36.91,17.23,51.8,54.46,64,85,12.81,32,22.44,56.11,14,85-11.86,40.62-50.28,59.28-60,64-46.82,22.73-92.57,8.07-124-2-24.36-7.81-59.85-23.71-58-35C3187.06,2182.22,3204.58,2178.39,3225.82,2173.75Z"/><path class="cls-2" d="M3228.82,2253.75c20.56-10.94,33.55,3.27,77,6,28,1.75,64.13,4,90-17,19.42-15.78,16.3-31.05,41-46,8.25-5,25.31-15.32,44-10,25.22,7.16,33.51,37.11,34,39,8.9,34.1-17.56,65.72-27,77-41.09,49.1-104.23,55.42-130,58-22.66,2.26-73.83,4.15-121-24-30.69-18.32-33.46-33.71-34-38C3200.61,2280.91,3213.22,2262,3228.82,2253.75Z"/><path class="cls-2" d="M3490.82,2023.75c5,29.19,19,71,24,85,1.22,3.41,1.54,11.43,1.91,13.49a6.54,6.54,0,0,0,.26,1c1.85,5.52,2.14,6.06-.17,39.52-2.17,31.56-8.84,46.88-19,65-4.81,8.58-12,21.46-24,22-11,.48-22.32-9.55-24-20-1.85-11.52,8.85-18.57,16-31,5.43-9.44,9.65-23.43,1-70-10.75-57.92-17.89-96.35-49-134-10.39-12.59-26.28-31.36-53-41-14-5.07-26.34-5.92-42-7-37.25-2.58-46.09,5.14-69-2-10.63-3.32-27.35-8.54-34-24s-1.42-37.14,11-44c11.09-6.13,22.39,2.54,51,12,25.86,8.54,33.81,7.13,50.19,10.2,8.36,1.56,13.93,3.3,15.81,3.8,17.73,4.63,52.08-3.46,92-29,37.23-23.82,38.74-36.85,57-37,21.57-.19,44.6,17.74,51,40,7.58,26.31-10.4,50.69-18,61-15.71,21.31-28.59,20.81-37,40C3485.74,1993.93,3488.35,2009.24,3490.82,2023.75Z"/><path class="cls-2" d="M3180.82,1676.75c-32.6,1.06-54.38-59.51-57-67-14.45-41.49-6.43-76.07,7-134,8.76-37.77,15.92-47.32,25-53,21-13.17,54.83-7.16,71,12,15.92,18.83,10.8,45.66,5,76-8.73,45.76-24.51,48.62-23,80,1.36,28.12,14.66,38.58,7,58C3210.28,1662.81,3195.83,1676.26,3180.82,1676.75Z"/><path class="cls-2" d="M3005.82,1505.75c8.38-18.18,30.56-33.38,49-30,15.47,2.83,20.36,17.27,39,44,39.66,56.85,68.47,64.55,64,83-4.76,19.66-42.68,32.34-73,27C3028.75,1619.86,2987.12,1546.3,3005.82,1505.75Z"/><path class="cls-2" d="M3091.82,1579.75c-13-9.44-38.53,31-92,30-32.19-.59-43.78-15.63-60-7-23.5,12.5-33.49,62.36-12,92,23.33,32.16,74.45,27.66,104,14C3092.68,1680.61,3108.75,1592.05,3091.82,1579.75Z"/><path class="cls-2" d="M2818.82,1625.75c-12.12,2.84-33.76,7.91-41,26-7.78,19.46,5,44.13,23,55,24.94,15.09,60.58,4,75-20,8.53-14.23,12.18-37.22,0-52C2860.4,1616,2830,1623.13,2818.82,1625.75Z"/><path class="cls-2" d="M3439.81,1424.58c6.09-2,21-4.78,67.05,26.33,42.2,28.52,63.3,42.78,65.41,60.43,3.81,31.87-38.65,43.73-38.54,82.53.07,26.41,19.81,51,40,62,45.93,25.14,110.77-10.7,143.7-46.95,64.75-71.31,33-173.83,31.46-178.38-22.25-67.92-76.55-101-96.55-113.14-63-38.33-167.84-62.86-235.68-11-44.73,34.16-72,100.49-53.42,124.91,8.37,11,28.66,16.91,44.62,13.17C3424.09,1440.61,3425.45,1429.2,3439.81,1424.58Z"/><path class="cls-2" d="M3667.82,1251.75c-26-16.88-51.51,22.23-147,54-29.46,9.8-57.57,16.23-66,39-.39,1.07-6.23,17.53,2,29,15.53,21.6,66.82,5.66,72,4,35.14-11.3,33.84-26.46,73-47,45.76-24,75.28-17.87,82-38C3688.23,1279.56,3681.1,1260.37,3667.82,1251.75Z"/><path class="cls-2" d="M3518.28,1770.12c-6.85,13.12-10.09,21.34-7.07,29.39,5.08,13.57,26.07,21.62,41.82,17.35,25-6.78,33-43.66,36-57.43,8.1-37.3-7.13-43.06.08-70.58,11.64-44.46,56.65-49.52,56.23-83.22-.25-19.9-16.22-40.23-30.4-40.9-20.36-1-38.91,38.55-45.86,65.41-9.72,37.6,5.23,43-6.4,70.83C3553.35,1723.42,3540.17,1728.18,3518.28,1770.12Z"/><path class="cls-2" d="M3357.82,1283.75c27.7-26.13,58.66-35.13,72-39,39.35-11.44,50.74,1.49,112,0,34-.84,99-2.42,105-24,5.7-20.48-42.48-56.08-87-72-91.11-32.61-175.19,14.18-187,21-10.74,6.2-95.79,55.28-90,114,2.07,20.9,15.76,44.11,30,45S3332.52,1307.61,3357.82,1283.75Z"/><path class="cls-2" d="M3282.82,1175.75c42.72-11.24,42.87-38.25,87-61,10.38-5.36,58.25-28.55,112-18,32.36,6.35,48.2,21.26,63,12,14.29-9,19.38-35.27,12-54-20.8-52.86-141-45.69-151-45-23.29,1.6-114,7.85-162,75-16.35,22.85-37,65.62-21,85C3237.58,1187.65,3276.77,1177.34,3282.82,1175.75Z"/><path class="cls-2" d="M3270.82,1003.75c39.89.26,49.8-20.27,87-27,47.28-8.56,73.76,16.91,85,3,10.61-13.14-5.44-45.14-22-63-31.83-34.36-78.34-30.28-81-30-32.24,3.36-51.85,22.41-72,42-9.74,9.47-45.62,44.34-36,63C3237.9,1003.53,3259.47,1003.67,3270.82,1003.75Z"/><path class="cls-2" d="M1801.82,1031.75c48.7-39.93,113.14-28.1,130-25,15.37,2.82,76.18,16,114,70,9.52,13.59,27.51,39.27,25,74-1.88,26.11-15.87,64.64-42,70-30.69,6.28-69.16-35.08-75-72-2.47-15.69,2.25-22.27-4-36-9.42-20.72-35-38.3-56-34-20.19,4.12-19,24.89-43,41-29.21,19.61-77.1,19.78-90,0C1747,1098.59,1773.48,1055,1801.82,1031.75Z"/><path class="cls-2" d="M1864.82,1137.75c3.86-14.88,16.59-21.77,19-23,2.93-1.51,13.85-7.12,26-3,14,4.72,19.08,18.74,21,24,1.75,4.77,7.72,21.08-1,34-9.57,14.18-32.83,18.27-49,8C1867.76,1169.44,1860.93,1152.76,1864.82,1137.75Z"/><path class="cls-2" d="M1835.82,1146.75c9.81,4.47.86,23,13,41,12.69,18.8,41.3,26.54,63,24,19.33-2.27,24.43-11.65,37-8,14.9,4.31,27.74,23.27,25,38-4.65,25-55,41.65-95,33-34.72-7.52-54-32.43-59-39-6.49-8.63-29.81-39.64-18-66C1808.69,1154.43,1826.58,1142.53,1835.82,1146.75Z"/><path class="cls-2" d="M2402.82,2206.75c-23.47,9.61-43.18,17.68-53,39-10.48,22.75-5.28,51,10,70,17.45,21.64,42.87,24.75,53,26,26,3.18,76.93-1.57,96-43,17.59-38.21-1.18-87.56-33-102C2452.79,2186.28,2428,2196.43,2402.82,2206.75Z"/><path class="cls-2" d="M2498.82,2388.75c-13.74,5.55-24.37,9.95-36,20-26.48,22.88-50.55,68.5-34,102,17.63,35.67,70.92,36.5,103,37,30.9.48,77.27,1.19,106-34,28.53-34.95,19.22-80.25,18.72-82.47-2.06-9.32-6.22-28-21.72-42.53C2593.82,2350.37,2516.35,2381.67,2498.82,2388.75Z"/><path class="cls-2" d="M2776.82,2484.75c-.18-34.15-32.57-62.86-63-73-39.9-13.32-98.63-2.12-116,43-16.94,44,15.31,94.73,56,109C2709,2583.08,2777.09,2534.46,2776.82,2484.75Z"/><path class="cls-2" d="M2352.82,2371.75c1.5-1,21.59-13.49,43-3,14.42,7.05,23.4,21.57,24,36,1.07,25.41-23.91,49.83-50,47-15.91-1.73-30.87-13.45-36-30C2327.75,2402.14,2337.33,2381.79,2352.82,2371.75Z"/><path class="cls-2" d="M2694.82,2533.75c-23.78-22.47-29.1-25.62-30-34-1.6-14.93,12.21-33.48,30-37,20.8-4.12,36.9,14.29,41,19,8.13,9.29,7.06,14.28,14,25,0,0,14.43,22.27,42,32,29.68,10.46,41-9.65,82-9,13.76.21,57.86.91,78,32,15,23.19,11.66,55.49-3,78-20.26,31.11-62.74,44.5-86,32-15.77-8.49-14-24.2-44-51-18.78-16.79-25.33-15.86-28-15-12,3.85-15.29,28.67-15,43,.32,15.65,4.9,17.34,4,28-1.6,19-18.84,44.78-43,45-25.12.22-44.1-27.31-44-48,.09-16.95,12.91-19.84,27-53,8.45-19.88,13.89-32.68,10-47C2728.45,2568.7,2725.8,2563,2694.82,2533.75Z"/><path class="cls-2" d="M2665.82,2634.75c7.27,16.13-4.85,26.16-4,48,.84,21.33,13.6,41.88,30,54,27.72,20.47,60.13,12.65,67,11,11.52-2.78,32.88-7.93,42-25,5.29-9.9,3.94-19.06,12-24,6.82-4.18,16.17-2.79,22,0,19.24,9.18,21.87,43.78,20,63-3.28,33.84-25,65.89-54,84-48,30-113.08,19.76-155-14-3.4-2.75-50.5-41.88-51-101-.14-16.73,7.58-37.15,23-78,9.29-24.59,15.18-34.92,24-36C2651.13,2615.6,2661.43,2625,2665.82,2634.75Z"/><path class="cls-2" d="M2024.82,626.75c-22.36-22.16-7.69-52.64-29-65-20.67-12-60,1.85-74,29-9.36,18.22-4.36,36.8,0,53,1.88,7,18.65,65.76,70,86,25.61,10.08,30.8-.85,82,8,34.44,5.94,51.74,8.93,69,21,38.36,26.81,25.66,62.9,58,86,31,22.16,80.68,16,114-5,46.65-29.44,61.69-88.28,50-135-15.05-60.2-73.14-95-119-98-36.85-2.45-40.73,17.25-111,29C2092,642.91,2048.48,650.18,2024.82,626.75Z"/><path class="cls-2" d="M2273.82,438.75c-14.31,27.08-18.06,49.11-24,86-6.45,40.08-5.72,77.93-4,152,1.23,52.8,2.93,58.68,8,65,27.21,33.87,99.63,15.93,164,0,92-22.79,153.55-38,168-86,11.65-38.66-9.7-90.53-41-102-40.21-14.75-104.16,34.49-123,49-23.57,18.15-35.5,33.08-49,29-19.46-5.9-23.38-45.66-25-62-2.69-27.33-5.93-60.16,13-78,28.26-26.64,75.41,8.87,102-16,21-19.67,18.35-66.93-4-94-31.24-37.86-93.37-27.08-127-9C2299.53,390.11,2284.13,419.24,2273.82,438.75Z"/><path class="cls-2" d="M2540.82,426.75c3.5-2,41.86-23.51,69,0,19.61,17,22.28,47.79,9,69-16.46,26.29-50.48,26.63-70,21-4.85-1.41-36.38-11.14-41-37C2502.46,449.7,2538.77,427.94,2540.82,426.75Z"/><path class="cls-2" d="M2520.82,1318.75c-5.9-1.34-24.46-6-46,0-6.88,1.92-33.55,9.36-44,34-1.35,3.19-9.6,22.66,0,39,11,18.78,37.68,19.76,44,20,25.16.92,34.34-11.35,83-33,51.85-23.08,62.16-18.37,66-16,11,6.75,7.78,18.14,26,46,10.14,15.49,15.21,23.24,24,27,22.43,9.57,59.82-9.36,73-37,16-33.63-1.49-84.84-34-103C2661.21,1266.9,2598.73,1336.36,2520.82,1318.75Z"/><path class="cls-2" d="M2576.82,1269.75c11.18,8.84,27.24-6.57,67-14,24.36-4.56,64.95-12.15,93,7,32.88,22.43,21.78,63.32,49,73,21.08,7.48,50.57-8.92,63-30,22.93-38.87-9-98.87-46-129-41.39-33.72-90.2-30.91-106-30-11.72.67-87.47,6.26-116,60C2569.46,1228.14,2564.21,1259.77,2576.82,1269.75Z"/><path class="cls-2" d="M2883.82,1337.75c-2.66-.23-28.44-2-42,18-11,16.17-8,37.83,3,52,16.07,20.71,42.95,17.29,45,17,19.25-2.79,40.16-17.77,42-39C2934.05,1360.2,2907.47,1339.73,2883.82,1337.75Z"/><path class="cls-2" d="M2931.82,1437.75c-7.34,7.88-14.76,15.83-13,24,1.81,8.37,14.9,13,41,22,20.29,7,22.84,5.76,24,5,13.63-9,3.62-65.6-19-70C2951.89,1416.22,2937.76,1431.38,2931.82,1437.75Z"/><path class="cls-2" d="M2789.82,1280.75c.43-2.4,4.23-23.81,15-26,8.74-1.78,17.77,9.94,24,18,59.85,77.31,72.42,88.73,66,102-6,12.3-22.73,14.82-24,15C2830.64,1395.22,2781.4,1328.23,2789.82,1280.75Z"/><path class="cls-2" d="M3274.82,2593.75c-19.51-17.13-31.54-36.94-60-45-11.29-3.2-25.63-4.68-27.31-4.85-23-2.29-38.87.43-44.69.85-41.56,3-112.56-72.46-95-114,12.86-30.42,72.83-41.84,114-26,18.22,7,36.15,26,72,64,38.25,40.53,43.32,53.9,68,64,27.13,11.1,39.38,2.46,56,16,24.65,20.06,30.79,66,15,79C3355.17,2642.32,3304.88,2620.12,3274.82,2593.75Z"/><path class="cls-2" d="M3221.82,2612.75c-23.83-16.11-34.18-25.56-53-27-27.87-2.14-61.4,14.32-64,34-4.33,32.83,78.57,66.25,83,68,61.16,24.12,80.48,3.24,133,27,55.14,24.94,68.73,63.74,90,56,21.79-7.93,33.74-58.16,15-83-19.26-25.55-52.88-.3-117-26C3273.26,2647.49,3229.85,2618.17,3221.82,2612.75Z"/><path class="cls-2" d="M3425.82,2415.75c-19,19.29-24,49.12-26,61-2.66,15.74-1.5,25.25,7,90,8.11,61.72,9.1,68.52,4,80-10.69,24.09-30.32,28.53-31,50-.46,14.49,8,28.39,18,36,25.77,19.55,72.58,5.46,98-20,20.76-20.8,11.64-33.53,32-62,27-37.74,54.7-31.73,82-61,30.08-32.26,43.77-90.31,24-133C3599.58,2382.81,3471.57,2369.19,3425.82,2415.75Z"/><path class="cls-2" d="M3477.82,2467.75c14-14.4,44.15-7.28,60,0,2.2,1,43.61,20.65,41,51-2.4,27.89-40.71,49.85-69,42C3472,2550.24,3458,2488.12,3477.82,2467.75Z"/><path class="cls-2" d="M2989.82,2530.75c15.19-15.25,22.79-22.87,32-27,34.9-15.66,60,8.18,84-7,19.76-12.49,28.49-44.83,19-55-16-17.11-74.59,38.08-114,15-13.35-7.83-19.23-22.89-31-53-19-48.68-10.59-69.36-30-86-20.64-17.71-50.66-11.91-55-11-43.5,9.06-73.69,60.35-65,95,8.46,33.68,47.59,27.33,67,72,4,9.26,21.87,54.43,3,89-5.6,10.27-15.09,20.79-15,38,0,1.05.32,21.31,10,25,4.38,1.66,11.82.37,36-25C2959.62,2570.52,2964.48,2556.18,2989.82,2530.75Z"/><path class="cls-2" d="M2892.82,2348.75c-10.1,6.66-11.56,18.44-12,22-1.16,9.42.58,27.12,14,33,11.71,5.12,25.14-1.86,32-10,9.39-11.15,11.89-30.88,0-42C2917.91,2343.4,2903.1,2342,2892.82,2348.75Z"/><path class="cls-2" d="M2827.82,2237.75c-2.75,2.91-10.7,11.62-11,25,0,.77-.13,19.74,15,30,14.79,10,34.49,5.19,46-5,1.91-1.69,14.69-13.4,13-31-1.47-15.47-13.5-29.2-29-32C2843.24,2221.38,2829.87,2235.58,2827.82,2237.75Z"/><path class="cls-2" d="M3685.82,2466.75c-14,37.36,5.48,50.93-5,91-10,38.09-30.52,37.19-51,81-12.93,27.66-33.4,89.36-10,112,12.71,12.28,61-.31,157-26,95-25.42,105.25-28.29,126-25,58.72,9.29,80.22,48.69,112,36,24.69-9.86,38.62-44.38,35-71-6.55-48.21-71.71-78.52-121-81-40.81-2.06-51.81,15.91-71,5-35.55-20.23-5.42-86.28-51-142-5.28-6.46-33.1-40.48-66-36C3705.64,2415.54,3687.89,2461.22,3685.82,2466.75Z"/><path class="cls-2" d="M4135.82,2694.75c-7.5-.57-30.61-1.13-50,15-24.72,20.56-34.52,60.9-16,91,22.32,36.26,75.93,41.66,107,16,22.09-18.25,32.61-52,20-81C4180.78,2698.87,4138.23,2694.93,4135.82,2694.75Z"/><path class="cls-3" d="M610.31,622.47c-1.24-.45-2.46-.94-3.66-1.5-37.19-17.27-56-46.8-50.32-64.86,5.33-16.9,33.16-26.92,54.55-26.52,21.13.38,26.88.73,32.74-5.06,7.84-7.74-4.37-18.24-3.64-54.31.19-9.36.73-36.23,13.34-41.68,13.35-5.77,35.75,14.41,46.07,26.52,10.71,12.58,11,19.49,20.61,24,11.63,5.44,28.64,3.53,36.37-6.31,7.54-9.61.3-19.22,3.64-39.16,2.93-17.56,13.92-42.19,27.88-44.21,21.19-3.07,43,46.84,50.92,74.52,4.92,17.17,9.52,34.09,1.21,48-2.9,4.87-9.93,13.63-40,20.21-49.39,10.81-63-5.73-81.23,6.32-26.95,17.77-10.07,62.12-36.37,83.36C663.86,636.79,634.89,631.31,610.31,622.47Z"/><path class="cls-3" d="M102.86,148.67c12.54-17.39-11-42.77,5.79-68.52,1.36-2.09,8.57-12.75,21.71-17.49,25.33-9.13,37.77,16.3,70.94,16,32.12-.25,41.25-24.27,68-17.49,15.86,4,25.53,15.69,31.84,23.33C313.3,99.16,330.66,130.31,320,153c-12.19,26-48.23,13.69-69.48,43.74-4.21,5.95-6.32,11.42-11.58,61.23-7.39,70-6.11,86.62-18.82,94.76-13.59,8.7-37.65,4.16-50.67-8.75-23-22.77.92-59.21-24.61-93.3-11.3-15.09-26.26-21.68-33.29-24.78-42.59-18.78-75.64,6-91.2-11.67-9.54-10.84-8.47-33.05,1.44-45.19C41.35,145.12,87.34,170.2,102.86,148.67Z"/><path class="cls-3" d="M350.66,161c-2.14-26.16,9.56-55.6,29.33-73.62,23-21,51.43-21.48,55.57-42,2.26-11.19-5.11-16.57-.91-28.83S451.79-6.87,464.19-6.27c18.35.9,32.7,27.66,31.78,49.23-1.12,26.27-24.23,29.95-26.61,54.11-3.1,31.55,34.69,41.77,36.18,74.35,1.4,30.57-29.71,68.91-68.76,72.63C389.54,248.56,353.87,200.21,350.66,161Z"/><path class="cls-3" d="M257.82,107.75c21,10.3,14.22,37.19,30,44,19,8.2,37.6-27.2,75-24a55.29,55.29,0,0,1,29,11c14,10.81,24.33,30.5,21,48-5.79,30.5-50.52,40.76-69,45-20.19,4.63-54.4,12.47-83-8-23.72-17-29.18-43.15-35-71-3.32-15.95-7.37-35.32,3-44C236.18,102.58,248.9,103.37,257.82,107.75Z"/><path class="cls-3" d="M373.15,323.67c24.85-17,50.8-3.86,73.61-24.94,14.32-13.24,8.52-22.21,23.78-35.34,17.21-14.79,40.25-15.78,60-16.62,24.93-1.07,65.58-2.81,89.47,17.66C658.21,297.16,640,375,605.3,422.4c-44,60.21-137.94,103.39-194.78,74.83C369.77,476.75,343,431.7,344.83,389.14,345.33,377.36,346.84,341.68,373.15,323.67Z"/><path class="cls-3" d="M564.11,399.26c-4.8,8.66-14.45,25.59-34.36,37.67-9.62,5.84-37.13,22.53-63.1,10.4-25.6-11.95-38.79-46.79-29.42-61.28,5.53-8.55,15.4-4.57,30.16-16.71,11-9,10.54-15.39,20.27-27.81C494,333.47,513.05,309.09,536,311c20.77,1.72,37.85,24.5,40.57,45.38C578.68,373,571.48,386,564.11,399.26Z"/><path class="cls-3" d="M272.82,461.75a19.62,19.62,0,0,1,1-20,20.28,20.28,0,0,1,25-7c9.72,4.51,14.29,16.53,10,26-3.73,8.25-13.05,12-21,11C286.64,471.59,277.42,470.26,272.82,461.75Z"/><path class="cls-3" d="M213.86,505.75c-10.17-1.7-16.58-2.77-22-8-8.08-7.77-12.73-23.43-5-35,6.38-9.57,18.5-12.3,27-11,4.48.67,7.12,2.33,24,15,19.3,14.46,18,13.93,20,15,16.82,9,35.22,7.79,42.06,7,16.81-2,20.5-8.13,30-5,9.36,3.07,16.57,12.55,18,22,2.69,17.52-14.26,36-30,38-12.33,1.55-25.57-7.63-52.07-26-6.89-4.78-9.42-7-15-9C237.89,504,231.54,508.69,213.86,505.75Z"/><path class="cls-3" d="M299.37,562.3c-25.26-8-26.41-11.41-42.85-15.14-14.57-3.31-46.42-10.54-65.21,1.89-37.85,25.05-24.62,131.11,13,145.77,15.57,6.06,24.66-7.64,93.16-32.18,33.58-12,50.63-18,63.35-17,49.6,3.85,66.74,54.46,95,49.22,24.68-4.58,47.44-40.14,42.85-73.83-4.92-36.07-39.44-57.24-65.21-60.58C404.58,556.65,399,577,359,575.55,338.94,574.85,320.64,569.05,299.37,562.3Z"/><path class="cls-3" d="M397.09,1125.07c1,21.53-4.37,36.6,4.33,60.37,5.12,14,10,17.07,12.9,18.12,8.76,3.23,15.38-6.17,28.74-13,15.4-7.91,40.85-13,52.77-2.46,17.32,15.34,2.74,60.79.37,68.16-2.43,7.57-20,59.63-67.73,78.31-24.14,9.44-27.89-.66-60.93,10.38-35.92,12-44.27,28.19-59.08,22.06-17.86-7.39-28.27-40.23-26.22-65.59,2.44-30.11,21.24-34.52,21-64.28-.16-19.9-8.6-22.37-13.84-48.8-1.52-7.62-8.83-44.48,6-76.93,15.74-34.36,55.56-62.07,77.75-49.71C394.19,1073.38,396.83,1119.66,397.09,1125.07Z"/><path class="cls-3" d="M2626.82,2052.75c-7.55,1.17-48.53,7.56-73,44-32.36,48.19-6.08,104.65-3,111,16.77,34.52,55.27,70.76,106,69,58.55-2,101.39-53.56,107-102a103.35,103.35,0,0,0-8-52C2735.45,2075.81,2680,2044.46,2626.82,2052.75Z"/><path class="cls-3" d="M1613.82,1723.75c-5.42-20.55,10.55-44.48,28-56,25.08-16.57,57.16-10.14,76,3,25.94,18.08,16,41.34,39,56,26.29,16.73,48.19-7.94,94,3,6.91,1.64,42,10,64,40,24.25,33,31.22,90,0,123-34.81,36.83-100.12,25.84-135,0-41.82-31-21.59-69.76-67-110C1669.2,1744.08,1622,1754.52,1613.82,1723.75Z"/><path class="cls-3" d="M618.82,841.75c-11.83.27-21.78,4.87-25.23,6.49-10.85,5.13-18.3,12.16-24.77,19.51-17.38,19.76-20.55,33.83-30,49s-14,13.6-58,48c-37.36,29.18-56.19,44.09-63,60-8.45,19.74-11.14,48.69,2,71,27.08,45.94,112.85,49.28,151,15,16.8-15.1,22.87-39.4,35-88,12.34-49.41,5.65-57.1,19-82,21.17-39.48,51-44.57,48-65C670,857,641.79,841.21,618.82,841.75Z"/><path class="cls-3" d="M547.5,844.75c-23.2,6.11-27.41,18.28-57,25-11.65,2.65-11.24.82-37,4-32.29,4-48.43,6-56,13-15.86,14.71-19.33,47.91-3,70,18.65,25.26,52.57,21.68,59,21,22.22-2.34,22.79-16.72,57-36,31.42-17.7,39-11.37,63-28,17.65-12.23,47.49-39.19,41-56C608.58,842.44,573.39,837.93,547.5,844.75Z"/><path class="cls-3" d="M671.82,908.75c-12.63,1.69-19.58,14.78-25,25-9.07,17.1-11.08,33.21-12,47-2.42,36.36-3.64,54.55,4,75,10.95,29.27,42.51,72.12,82,68,22.74-2.38,46.89-20.19,51-42,4.31-22.85-14.34-44.84-34-68-23.59-27.82-38-30.69-41-50-2.86-18.68,8.49-30,0-43C691.62,912.74,681.17,907.49,671.82,908.75Z"/><path class="cls-3" d="M699.82,972.75c3.65-6.17,39.06,20,92,16a311,311,0,0,0,36-5c30.84-6.5,35.78-13.39,51-11,23.28,3.64,37.15,23.72,38,25,8.54,12.74,3.91,18.07,11,27,4.48,5.62,13.64,12.73,64,14,42,1,53-3.46,68,6,9.58,6,23,19,22,33-1.82,25.88-52.71,47.91-96,47-42.49-.9-76.55-23.88-96-37-30-20.26-34.58-33.41-65-46-25.55-10.59-30.85-4.83-57-15C725.84,1010.41,696.27,978.76,699.82,972.75Z"/><path class="cls-3" d="M708.82,695.75c-36,16.65-62.89,7.22-67,21-5,16.74,30,46.3,61,61,28.46,13.49,40.88,8.44,60,25,21.77,18.84,17.52,35.63,33,41,22.49,7.79,57.35-18.62,74-49,14.64-26.72,3.54-35.21,16-74,16.07-50,40.55-54.66,39-85-1.51-29.76-26.85-61-55-65-20.64-3-36.91,9.54-64,31C748.64,647.06,751.29,676.13,708.82,695.75Z"/><path class="cls-3" d="M956.82,414.75c-27.91,7.61-48.69-25.39-65-16-12.24,7-10.65,31.47-9,57,.9,13.74,2.62,37,15,66,17.63,41.22,32.43,36.8,45,70,6.33,16.69,6.89,40.46,8,88,1,42.26-1.53,52.54,6,72,10,25.69,31,50.57,43,47,7.77-2.31,10.33-16,15-41,6.11-32.65,1.17-36.49,6-45,14.06-24.78,62.79-4.38,123-20,36.94-9.59,95.84-37.31,98-74,2.12-35.73-49.77-76.57-98-84-40.74-6.29-70.18,12.6-86-5-11.25-12.52-6.8-33.69-4-47,9.76-46.41,42.33-51.64,49-92,.84-5.09,6.93-45.45-19-64-19.45-13.93-49.18-10-65,4-10.08,8.94-7,15.32-19,37C989.67,386.05,976.77,409.31,956.82,414.75Z"/><path class="cls-3" d="M1204.82,452.75c-7.89-36.31-3.47-55.74-21-89-12.86-24.42-22.6-27.94-27-47-7-30.34,7.65-64.92,25-82,51.1-50.32,206.53-28.62,260,72,28.52,53.64,23.09,120.39-6,170-38.93,66.41-125.74,111.43-174,86C1224.47,543.05,1211.1,481.6,1204.82,452.75Z"/><path class="cls-3" d="M1094.82,440.75c-.5-8.8-8.77-16.84-74-47-54.94-25.41-64.68-26.92-76-41-23.32-29-26.25-77.75-8-90,20.69-13.89,66.26,20.62,76,28,52.4,39.67,54.54,81.78,82,83,30.83,1.36,41-51.13,80-52,21.75-.49,46.64,15.22,52,35,9.4,34.61-46.34,62-37,90,5.69,17,29.58,16.63,88,35,67,21.05,110.89,35.42,119,66,5.72,21.53-6.23,51.45-25,58-28.54,10-48.66-42.6-131-80-40.57-18.44-65-29.53-95-23-20.65,4.48-38.49,16.12-65,10-5.41-1.26-26.54-6.14-29-18C1047.92,475.88,1096.08,462.75,1094.82,440.75Z"/><path class="cls-3" d="M1036.82,1000.75c17.14,7.3,22.33,2.14,38,9,16.84,7.36,37.89,25.15,41,47,4.34,30.42-29.6,44.37-23,66,6.41,21,44.73,28.83,70,27,6.68-.49,41.19-3,61-29,30.94-40.62,1.37-106.07-9-129-11.18-24.77-15.46-21.56-23-43-16.28-46.37,1.56-67.5-15-94-19.74-31.62-65.27-33.84-70-34-50.51-1.77-81.45,38.48-88,47-3.46,4.51-43,57.4-21,99C1009.47,988.75,1034.1,999.59,1036.82,1000.75Z"/><path class="cls-3" d="M1249.82,891.75c-17.75,4-33.75,7.6-49,21-20.33,17.87-38.06,52.06-27,85,13,38.69,58.24,53.27,91,51,42.37-2.94,73-34.68,85-66,1.77-4.61,20.11-54.44-6-82C1320.28,875.88,1276.32,885.78,1249.82,891.75Z"/><path class="cls-3" d="M1267.82,1172.75c-50.81-8.57-64.42,2-82-9-24.12-15.15-34.55-57.74-21-72,19.8-20.84,83.36,26.53,106,3,3.81-4,4.07-7.44,9-67,2.23-26.84,3.45-40.36,9-45,14.62-12.23,52-4.47,73,18,13.35,14.29,12.93,26.91,36,121,3.63,14.77,5.57,22.31,12,30,20.53,24.52,51.68,11,73,30,21.48,19.17,24.58,63.91,6,88-27.09,35.14-101,27.3-133-6-25.73-26.79-18.16-63.62-52-82C1296,1177.5,1286.61,1175.91,1267.82,1172.75Z"/><path class="cls-3" d="M1396.82,900.75c3.27,8.61,1,11.32,0,47-.7,25.07-1.06,37.61,0,49,2.73,29.25,10.71,32.65,26,86,10.36,36.13,7.27,36.56,13,44,23.77,30.83,64.79,7.82,91,34,26.86,26.82-2.15,65,28,106,1.45,2,28,36.94,63,34,40.87-3.44,61.38-55.75,65-65,16.66-42.49,13.69-104.51-21-132-32.26-25.58-64.57.42-104-29-23.49-17.54-32.48-42.06-42-68-22.53-61.47-1.85-81.1-18-127-18-51.14-68.51-97.41-125-104-38-4.45-88.93,7.9-106,41-1.31,2.54-11.32,22.52-3,34,9.68,13.34,33-.2,70,8C1339.9,860.09,1385.22,870.12,1396.82,900.75Z"/><path class="cls-3" d="M1461.82,746.75c11.37,10.29,36.55,33.49,54,69,13.22,26.87,16.72,50,22,85,8.65,57.17.2,64.7,12,88,20.79,41,65.85,54.9,73,57,36,10.51,92.72,9.25,113-22,27.15-41.84-21.33-121.49-63-161-18.34-17.41-27.59-19.65-50-44-18.35-20-42.53-46.25-54-85-10.69-36.14,1.62-42.74-9-85-7.32-29.16-15.39-61.26-41-75-38-20.37-104.57,4.89-123,53-.76,2-12.68,34.58,3,66C1411.12,717.38,1427.67,715.82,1461.82,746.75Z"/><path class="cls-3" d="M1581.82,1177.75c-1.39,17.41-2.49,34.88,9,47,7.79,8.2,22,14.63,32,10,10.32-4.78,12.32-19.54,16-70,4.79-65.57,2.92-61.14,5-70,10-42.79,29.74-44.29,39-87,3.73-17.18,10.32-47.59-7-72-10.74-15.15-32.51-30.56-50-25-21.88,7-27,43.56-31,72-4.66,33.3,1.44,36.91,0,75C1593.47,1093.63,1587.38,1108.6,1581.82,1177.75Z"/><path class="cls-3" d="M1401.82,426.75c17.36,25.88,38.07,15.08,58,41,25.2,32.75,24.65,92.3,4,133-7.84,15.45-16.23,23.57-17,41-1.06,24.42,13.49,52.92,30,54s30.29-25.84,38-41c19.44-38.22,15.49-62.8,24-109,11.25-61.05,24.9-54.78,30-99,3-25.89,11.9-103.1-37-136-32.78-22.06-91.29-24-123,14C1383.77,354.8,1383.79,399.85,1401.82,426.75Z"/><path class="cls-3" d="M1582.82,583.75c-4.26-7.14-11.55-23.78,7-79,19.8-58.95,33.3-99.14,71-129,58.43-46.29,169.08-63.13,218-3,36.45,44.78,32.84,125.15-3,153-33.49,26-72.36-11.55-126,17-42.3,22.5-38.63,56.78-79,68C1639.73,619.38,1598.45,609.92,1582.82,583.75Z"/><path class="cls-3" d="M1746.82,433.75c1.12-19.29,21.75-38.05,45-40s48.07,12.79,53,37c4.24,20.77-7.53,42.22-24,50C1790.86,494.89,1745.08,463.83,1746.82,433.75Z"/><path class="cls-3" d="M1116.82,1456.75c.23,8.58.13,23.43-4,50-8.52,54.86-18.67,59.4-19,85-.29,23,7.84,26.28,35,88,25.93,58.89,38.71,88.71,30,107-12.8,26.89-57.86,40.49-92,31-61.55-17.12-90.88-110.25-88-177,2.35-54.33,24.16-48,38-138,5.46-35.49,6.62-66.11,31-92,11.88-12.63,34.55-29.73,50-23C1115.23,1395.31,1116.13,1429.89,1116.82,1456.75Z"/><path class="cls-3" d="M1185.82,1364.75c-18.91,21.73-9.74,56-8,62,2,7,6.32,18,31,46,24.29,27.52,35.06,33.75,46,46,41.07,46,31.63,117.7,31,122-7.83,53.93-39.46,57.1-50,119-3.91,23-10.52,61.83,11,88,25.63,31.14,85,36.87,123,16,92.09-50.63,98.28-279.72,12-349-20.78-16.7-49.35-26-69-62-21.76-39.84-7.55-66.51-31-88C1257.49,1342.44,1207.72,1339.58,1185.82,1364.75Z"/><path class="cls-3" d="M1139.82,1571.75c2-9.68,6.89-33.57,25-41,21.34-8.77,45.48,11.67,47,13,22.89,19.9,23.51,51.57,24,77,.13,6.5,1.76,90.09-24,96C1184.08,1723.1,1126,1639,1139.82,1571.75Z"/><path class="cls-3" d="M947.82,1767.75c21.7,33.52,25.83,47.89,48,64,38.24,27.76,85.17,28,92,28,36.29-.23,40.61-12.85,68-8,24,4.23,28,15.16,68,40,40.82,25.31,62.23,38.6,92,40,42.09,2,75.69-21,80-24,29.2-20.5,28.73-39.21,49-44,27-6.39,64.47,18.21,76,48,20,51.55-36.32,122.18-88,156-84.34,55.18-212.57,49-265-12-28.19-32.82-15-58.79-44-80-50.49-36.88-109,28.1-188,8-88.33-22.48-150.71-138.23-144-232,2.58-36,16.93-91,44-96C871.12,1649.21,922.52,1728.64,947.82,1767.75Z"/><path class="cls-3" d="M747.82,1687.75c10.6-3.49-1.41-35.84,20-68,3.67-5.52,20.39-30.64,44-32,34-2,47.92,47.26,76,44,21.22-2.47,39.19-33.58,40-60,1.47-47.45-52.25-83.71-92-96-10.49-3.25-73.55-22.76-116,16-48.08,43.9-23.65,120.53-20,132C711.32,1659.81,736.71,1691.4,747.82,1687.75Z"/><path class="cls-3" d="M1395.82,1627.75c-5.18-28.09,2-55.41,4-63,3.82-14.11,11.83-43.73,38-65,17.88-14.53,44.8-25.65,52-18,6.34,6.72-8.48,21.76-14,52-1.22,6.69-8.62,47.31,10,76,23.26,35.82,66.45,21.18,83,52,13.48,25.07,2.44,67.44-21,80C1506.44,1763.93,1409.56,1702.17,1395.82,1627.75Z"/><path class="cls-3" d="M1402.82,1475.75c13.23,2.52,18.31-20.69,49-32,7.14-2.63,29.68-10.94,51,0,3.11,1.59,19.22,10.27,25,28,7.73,23.69-11.79,36.56-11,66,.55,20.4,10.79,46,28,55,33.19,17.43,100.76-22,121-76,23.58-62.88-18.57-141.38-80-173-64.88-33.41-130.25-3.68-138,0-14.41,6.84-58.12,27.59-66,69C1376.58,1440.3,1388,1472.92,1402.82,1475.75Z"/><path class="cls-3" d="M1717.82,1526.75c-15.78-11.81-35.12-10.84-52-10-16.67.82-29.84,1.48-40,11-16.29,15.27-16.81,45.85-4,66,14,22,39.83,25.3,53,27,12.93,1.66,42.36,5.45,58-13C1751.23,1586,1741.35,1544.34,1717.82,1526.75Z"/><path class="cls-3" d="M939.82,1905.75c14.19,18.36,35.25,28.59,51,32,24.78,5.35,29.52-7.65,68-11,18.82-1.65,48.08-4.2,75,11,21.07,11.88,32.5,30,47,53,21.09,33.42,15.61,41.81,30,52,21.27,15,35.83-1.45,76,12,24,8,39.07,20.67,49,29,15.68,13.13,31.38,26.29,29,39-3.17,17-36.81,23.43-45,25-38.65,7.4-93.56.18-139-37-44.26-36.23-39.57-68.17-81-84-12.72-4.87-32.15-4.91-71-5-76.08-.18-81.74,8.28-101-1-41-19.75-50.6-75.07-56-106-3-16.94-6.22-37.19,5-46,10.18-8,28.6-3.71,40,4C929.68,1881.43,928.34,1890.87,939.82,1905.75Z"/><path class="cls-3" d="M1078.82,2056.75c-4.6-2.89-13.48,7.69-36,25-31.42,24.15-42.32,25.23-44,37-1.93,13.55,10.13,29.13,25,35,15.62,6.15,33.58,1.29,43-9s3.29-18.08,10-60C1079.73,2066.62,1082.32,2058.94,1078.82,2056.75Z"/><path class="cls-3" d="M1096.82,2056.75c3.32-1.31,9.88,4.46,23,16a273,273,0,0,1,25,25c16.69,18.84,25,28.26,24,35-1.84,12.14-19.12,22.89-34,21-16.06-2.05-24.39-18.2-31-31C1089.61,2095.19,1087.89,2060.26,1096.82,2056.75Z"/><path class="cls-3" d="M1214.82,2072.75c8.9-7.49,21-5.2,38-2,21.33,4,35.74,11.79,47,18,16.35,9,26.71,14.7,26,21-.93,8.37-20.89,12.79-31,14-16.45,1.95-29.19-2.34-54-11-30.17-10.55-33.13-16.41-34-20C1205.05,2085.4,1209.52,2077.21,1214.82,2072.75Z"/><path class="cls-3" d="M861.82,1429.75c-2.26-16.35,6.53-35.36,20-45,21.91-15.69,54.8-5.63,73,8,19.36,14.48,19.17,30.8,33,33,16,2.53,33.82-16.44,42-32,20.17-38.34,6.84-103.7-39-132-50.13-31-108.55,1.33-117,6-5.32,2.94-64.62,36.94-68,99-1.83,33.83,13.08,73.79,40,87,7.76,3.8,20.56,7.38,24,3S863.77,1443.75,861.82,1429.75Z"/><path class="cls-3" d="M919.82,1273.75c-21.79,5.9-47-9.64-49-30-2-20.92,21.24-38.53,42-39,11.82-.28,27.85,4.89,34,18C955.31,1240.82,942.06,1267.72,919.82,1273.75Z"/><path class="cls-3" d="M997.82,1301.75c-1.46-15.25,15.58-31.55,33-29,15.19,2.21,27.78,18.31,24,33-4,15.36-23.87,21.62-38,17C1008.28,1320,998.82,1312.18,997.82,1301.75Z"/><path class="cls-3" d="M854.82,1365.75c9.72,2.52,14-16,32-22,10.14-3.39,14.15.7,57,9,21.35,4.13,26.27,4.26,30,1,8.42-7.35,5.54-27.26-3-40-11.23-16.78-31.51-20-44-22-10.49-1.68-34.22-5.46-56,9-2.05,1.36-29.41,20.06-27,45C844.47,1352.42,847.67,1363.88,854.82,1365.75Z"/><path class="cls-3" d="M2221.82,1526.75c-21.18-9.09-51.17-6-67,11-23.71,25.5-10.88,77.24,15,103,25.37,25.24,50.08,12.39,74,40,16.83,19.41,9.64,31.58,25,66,11.69,26.18,29.28,64.51,66,77,16,5.44,29.81,4,38,3,38.33-4.53,82-32.44,91-69,13.67-55.25-52.89-124.76-114-147-30.21-11-54.43-8.61-81-33C2245.32,1556.17,2245.17,1536.76,2221.82,1526.75Z"/><path class="cls-3" d="M2309.82,1529.75c22.72,19,32.59,19.43,66,41,36,23.26,59.47,38.38,77,62,41.24,55.54,9.69,103.91,48,136,23.09,19.33,59.14,22.36,84,11,52-23.79,61.42-113.49,37-173-28.7-70-102.2-93.55-107-95-39.11-11.88-47.38,3.15-80-11-54.46-23.65-51.35-74.24-96-85-32.63-7.87-73.81,9.64-81,34C2249.21,1479,2290.77,1513.79,2309.82,1529.75Z"/><path class="cls-3" d="M2169.82,1698.75c138.38-145.91,310.39-140.48,367-264,10.85-23.68,20-57.59,45-63,27.42-5.94,68.65,23.49,73,55,7.69,55.68-106.1,72.51-239,198-105.83,99.92-133.71,183.7-207,181-26.51-1-64.34-13.48-72-38C2129.51,1744.34,2152,1717.51,2169.82,1698.75Z"/><path class="cls-3" d="M2253.82,1835.75c-16.13-5.1-38.13,27.64-41,32-8.9,13.53-25.42,38.62-16,66,7.66,22.24,31.34,42.82,48,38,15.41-4.46,19.67-29.13,25-60,3.43-19.82,2.8-34.73-.83-48.64C2265.91,1851.26,2262.58,1838.51,2253.82,1835.75Z"/><path class="cls-3" d="M2291.82,1866.75c8.14-2.25,12.25,8.68,27,16,24.15,12,53.83,2.88,73-3,17.69-5.43,18.06-8.83,30-10,12.22-1.2,25,1.06,48,12,36.43,17.31,54.65,26,62,42,17.34,37.78-17.91,96.79-42,96-25.05-.84-31.94-66.2-68-69-6.93-.54-17,1.07-20,7-.92,1.81-4.19,9.89,20,37,29.51,33,45.45,33.44,48,47,4.4,23.36-34.83,65.39-75,60s-63.29-56-57-88c4.14-21,20.54-31.9,15-41-5.76-9.49-30.76-9.61-41,2-7,8-3,16.8-5,30-4.31,28.83-34.55,61.37-62,58-24.17-3-40.59-33.12-44-56-4.87-32.73,14.17-68.82,39-86,13-9,24.72-10.86,35-26C2284.17,1881,2283.67,1869,2291.82,1866.75Z"/><path class="cls-3" d="M2230.82,1969.75c-4.18,11.56-3.36,22.69-3,27,.75,8.92,2.17,25.94,12,30,10.7,4.41,25-9.15,28-12s11.92-11.9,22-50c5.77-21.79,8.65-32.68,5-36C2284.9,1919.68,2242.22,1938.25,2230.82,1969.75Z"/><path class="cls-3" d="M2498.82,2030.75c-2.82-.9-8.18-2.61-13,0-6.49,3.5-8.08,12.71-7,19a22.54,22.54,0,0,0,19,18c9,1.17,19.54-3.39,22-11C2523.23,2046.2,2509.79,2034.23,2498.82,2030.75Z"/><path class="cls-3" d="M2233.82,1483.75c8.66-16-16-33.63-7-58,6.24-16.8,24-24.76,38-31,28-12.5,54.72-10.14,66-9,37.87,3.79,49.22,18.93,62,11,19.48-12.09,10.08-57.77,9-63-1.42-6.94-13.37-61.52-51-73-25.76-7.87-41.9,11.09-68-2-6.19-3.11-12.54-9.78-25-23-33-35-32.45-45.39-48-52-25.45-10.83-53.84,5.59-58,8-3.71,2.15-30.78,18.4-37,51-1.36,7.14-4.91,25.76,6,44,.67,1.11,12.14,19.65,33.51,25.61a64.52,64.52,0,0,0,6.49,1.39c19.55,3.42,25.62-1.91,36,2,6,2.23,14,7.77,15,15,1.21,8.9-8.85,16.78-15,22-23.92,20.33-42.11,46.07-49,62-7.52,17.37-13,49.47,5,69C2175.17,1508,2223.84,1502.2,2233.82,1483.75Z"/><path class="cls-3" d="M2138.82,1326.75c-32.27-15.06-43.28-50.58-44-53-8.21-27.94-2.12-60.55,18-82,14.38-15.33,31.63-20.38,44-24,16-4.69,37.2-10.9,57-2,23.52,10.55,22.14,32.11,46,39,1.57.45,21.64,6,32-4,13.72-13.21,3.14-46.54-9-66-25.21-40.44-74.52-48.87-87-51-13.24-2.27-75.68-13-119,29-34.92,33.81-35,80.1-35,113,0,10.35.72,64.46,36,114,12,16.85,24.08,33.28,44,36,30.9,4.2,62.85-27,59-38C2178.24,1330.36,2161.34,1337.25,2138.82,1326.75Z"/><path class="cls-3" d="M2159.82,1218.75c-5.79.49-9.59,7.62-13,14-2.38,4.46-13.87,26-2,40,10.76,12.67,34.32,11.69,42,2C2199.05,1259.32,2174.55,1217.48,2159.82,1218.75Z"/><path class="cls-3" d="M2036.82,1578.75c-2.76-23.73-2.34-38.25,7-46,14.3-11.87,45.34-4.46,57,13,7.09,10.6,4,20.38,3,41-1.39,29.28-3.17,66.42,13,88,23.25,31,70,11.77,85,41,7.82,15.27,3.64,37.29-8,47-22.31,18.61-75.38-5.3-106-34C2050.18,1693.45,2045.07,1649.55,2036.82,1578.75Z"/><path class="cls-3" d="M1958.82,1547.75c8.37,2.42,16.38,8,39,50,30,55.63,31,73.69,31,82a96.65,96.65,0,0,1-7,37c-3.92,9.48-15.64,37.77-37,41-25.29,3.81-55.5-28.84-54-55,1.32-22.81,26-28.58,26-54,0-6.93-5.34-17.72-16-39-18-36-24.61-43-21-51C1924.65,1548.07,1944.1,1543.48,1958.82,1547.75Z"/><path class="cls-3" d="M2046.82,1736.75c-8.27,2.3-6.75,7.58-28,34-15.65,19.46-22.45,24-24,36-1.15,8.94.55,22.71,8,26,13.92,6.12,44-26,44-26h0s9.54-24.25,18-24c6,.17,6.13,12.56,18,26,8,9.09,22.24,19.51,28,16,7.47-4.56,1.77-33-12-54C2088.47,1755,2065.75,1731.48,2046.82,1736.75Z"/><path class="cls-3" d="M1987.82,1679.75c9,6.81,57.62-21.73,74-64,29.48-76.06-53.13-176.36-67-171-8.27,3.19-3.52,48.4,8,83,12.17,36.51,29.37,53.66,21,75-4.87,12.42-12.79,11.9-24,31C1990.31,1650,1981.53,1675,1987.82,1679.75Z"/><path class="cls-3" d="M2688.82,1883.75c2.23-6.63,8.71-26,24-39,26-22.15,68.71-18.94,98-3,26.15,14.22,51.37,43.93,51,80-.53,52.39-54.9,101-107,91-44.33-8.55-68.32-56-71-89C2682.22,1903.94,2688,1886.13,2688.82,1883.75Z"/><path class="cls-3" d="M2748.82,1906.75c-4.49-16.28-11-27.53-20-43-26.08-44.67-40.06-47.93-40-66,.09-22.4,21.65-41,38-49,28.17-13.78,68.2-9.45,81,11,17,27.13-28.73,59.07-28,135,.2,20.26.4,41,13,62,21.47,35.71,53.57,29.84,82,62,28.69,32.44,40.27,88.45,20,109-24.5,24.84-102.62,4.92-129-40-19.6-33.39-15.7-89.23-13-128C2753.55,1949.35,2755.34,1930.32,2748.82,1906.75Z"/><path class="cls-3" d="M2611.82,1929.75c-11,4.94-21.18,18.29-18,31,3.66,14.56,23,20.52,37,18,14.73-2.66,29.11-15.67,28-28C2657.41,1934.93,2630.62,1921.29,2611.82,1929.75Z"/><path class="cls-3" d="M3031.82,2122.75c-15.93-21.87-27.91-38.64-36-65-4.35-14.22-23.75-77.5,7-123,17.42-25.78,32.47-18.53,112-75,30.11-21.38,35.66-27.89,40-36,21.67-40.5-8.58-80.32,10-98,20-19,73.53,9.64,76,11,47.75,26.15,88.23,86.32,72,119-9.56,19.25-31.14,13.5-108,51-39.66,19.35-49.51,28.49-50,39-.77,16.54,21.76,34.15,43,40,27.49,7.56,38.95-8.41,61,0,23.08,8.79,42.49,38.44,36,61-8.65,30.09-59.93,35.52-65,36-43.57,4.1-64.41-21.32-90-7-11,6.16-22.87,19.68-21,32,3.74,24.6,58.46,19.81,72,51,9.84,22.64-4.06,59.57-26,68C3120.1,2243.91,3045.33,2141.29,3031.82,2122.75Z"/><path class="cls-3" d="M2909.82,1866.75c26.88,47.57,98.19,45.62,121,45,15.83-.44,120.2-3.3,153-78,35.53-80.92-38.94-186.78-73-183-19.51,2.16-38.78,41.74-39,75-.2,31.46,16.7,47.76,7,62-10.12,14.85-38.67,12-58,10-61-6.18-80.71-35.36-101-25C2897.75,1784,2891.23,1833.83,2909.82,1866.75Z"/><path class="cls-3" d="M3237.82,1495.75c-38.9,3.18-58.54,43.68-65,57-18,37.17-13.23,78.83,3,108,2.2,4,20.06,36,36,33,14.25-2.71,10.37-30.29,29-61,28-46.21,71.91-41.62,76-69C3321,1535.59,3280.44,1492.26,3237.82,1495.75Z"/><path class="cls-3" d="M3374.82,1401.75c-26.75,6.5-67.31,16.37-76,47-10.36,36.53,29.67,84.78,65,86,15.06.51,21.17-7.79,75-54s64-51.84,62-61C3496.06,1397.66,3429.11,1388.54,3374.82,1401.75Z"/><path class="cls-3" d="M3223.82,2098.75c23.46-5.13,27.77-2.3,43-7,12-3.71,33-10.19,44-29,12.48-21.28,7.55-50.31-5-68-10.13-14.29-18.93-12.31-27-27-8-14.51-10.86-37.35,0-50,15-17.46,50.32-8.73,69,0,36.91,17.23,51.8,54.46,64,85,12.81,32,22.44,56.11,14,85-11.86,40.62-50.28,59.28-60,64-46.82,22.73-92.57,8.07-124-2-24.36-7.81-59.85-23.71-58-35C3185.06,2107.22,3202.58,2103.39,3223.82,2098.75Z"/><path class="cls-3" d="M3226.82,2178.75c20.56-10.94,33.55,3.27,77,6,28,1.75,64.13,4,90-17,19.42-15.78,16.3-31.05,41-46,8.25-5,25.31-15.32,44-10,25.22,7.16,33.51,37.11,34,39,8.9,34.1-17.56,65.72-27,77-41.09,49.1-104.23,55.42-130,58-22.66,2.26-73.83,4.15-121-24-30.69-18.32-33.46-33.71-34-38C3198.61,2205.91,3211.22,2187,3226.82,2178.75Z"/><path class="cls-3" d="M3488.82,1948.75c5,29.19,19,71,24,85,1.22,3.41,1.54,11.43,1.91,13.49a6.54,6.54,0,0,0,.26,1c1.85,5.52,2.14,6.06-.17,39.52-2.17,31.56-8.84,46.88-19,65-4.81,8.58-12,21.46-24,22-11,.48-22.32-9.55-24-20-1.85-11.52,8.85-18.57,16-31,5.43-9.44,9.65-23.43,1-70-10.75-57.92-17.89-96.35-49-134-10.39-12.59-26.28-31.36-53-41-14-5.07-26.34-5.92-42-7-37.25-2.58-46.09,5.14-69-2-10.63-3.32-27.35-8.54-34-24s-1.42-37.14,11-44c11.09-6.13,22.39,2.54,51,12,25.86,8.54,33.81,7.13,50.19,10.2,8.36,1.56,13.93,3.3,15.81,3.8,17.73,4.63,52.08-3.46,92-29,37.23-23.82,38.74-36.85,57-37,21.57-.19,44.6,17.74,51,40,7.58,26.31-10.4,50.69-18,61-15.71,21.31-28.59,20.81-37,40C3483.74,1918.93,3486.35,1934.24,3488.82,1948.75Z"/><path class="cls-3" d="M3178.82,1601.75c-32.6,1.06-54.38-59.51-57-67-14.45-41.49-6.43-76.07,7-134,8.76-37.77,15.92-47.32,25-53,21-13.17,54.83-7.16,71,12,15.92,18.83,10.8,45.66,5,76-8.73,45.76-24.51,48.62-23,80,1.36,28.12,14.66,38.58,7,58C3208.28,1587.81,3193.83,1601.26,3178.82,1601.75Z"/><path class="cls-3" d="M3003.82,1430.75c8.38-18.18,30.56-33.38,49-30,15.47,2.83,20.36,17.27,39,44,39.66,56.85,68.47,64.55,64,83-4.76,19.66-42.68,32.34-73,27C3026.75,1544.86,2985.12,1471.3,3003.82,1430.75Z"/><path class="cls-3" d="M3089.82,1504.75c-13-9.44-38.53,31-92,30-32.19-.59-43.78-15.63-60-7-23.5,12.5-33.49,62.36-12,92,23.33,32.16,74.45,27.66,104,14C3090.68,1605.61,3106.75,1517.05,3089.82,1504.75Z"/><path class="cls-3" d="M2816.82,1550.75c-12.12,2.84-33.76,7.91-41,26-7.78,19.46,5,44.13,23,55,24.94,15.09,60.58,4,75-20,8.53-14.23,12.18-37.22,0-52C2858.4,1541,2828,1548.13,2816.82,1550.75Z"/><path class="cls-3" d="M3437.81,1349.58c6.09-2,21-4.78,67.05,26.33,42.2,28.52,63.3,42.78,65.41,60.43,3.81,31.87-38.65,43.73-38.54,82.53.07,26.41,19.81,51,40,62,45.93,25.14,110.77-10.7,143.7-46.95,64.75-71.31,33-173.83,31.46-178.38-22.25-67.92-76.55-101-96.55-113.14-63-38.33-167.84-62.86-235.68-11-44.73,34.16-72,100.49-53.42,124.91,8.37,11,28.66,16.91,44.62,13.17C3422.09,1365.61,3423.45,1354.2,3437.81,1349.58Z"/><path class="cls-3" d="M3665.82,1176.75c-26-16.88-51.51,22.23-147,54-29.46,9.8-57.57,16.23-66,39-.39,1.07-6.23,17.53,2,29,15.53,21.6,66.82,5.66,72,4,35.14-11.3,33.84-26.46,73-47,45.76-24,75.28-17.87,82-38C3686.23,1204.56,3679.1,1185.37,3665.82,1176.75Z"/><path class="cls-3" d="M3516.28,1695.12c-6.85,13.12-10.09,21.34-7.07,29.39,5.08,13.57,26.07,21.62,41.82,17.35,25-6.78,33-43.66,36-57.43,8.1-37.3-7.13-43.06.08-70.58,11.64-44.46,56.65-49.52,56.23-83.22-.25-19.9-16.22-40.23-30.4-40.9-20.36-1-38.91,38.55-45.86,65.41-9.72,37.6,5.23,43-6.4,70.83C3551.35,1648.42,3538.17,1653.18,3516.28,1695.12Z"/><path class="cls-3" d="M3355.82,1208.75c27.7-26.13,58.66-35.13,72-39,39.35-11.44,50.74,1.49,112,0,34-.84,99-2.42,105-24,5.7-20.48-42.48-56.08-87-72-91.11-32.61-175.19,14.18-187,21-10.74,6.2-95.79,55.28-90,114,2.07,20.9,15.76,44.11,30,45S3330.52,1232.61,3355.82,1208.75Z"/><path class="cls-3" d="M3280.82,1100.75c42.72-11.24,42.87-38.25,87-61,10.38-5.36,58.25-28.55,112-18,32.36,6.35,48.2,21.26,63,12,14.29-9,19.38-35.27,12-54-20.8-52.86-141-45.69-151-45-23.29,1.6-114,7.85-162,75-16.35,22.85-37,65.62-21,85C3235.58,1112.65,3274.77,1102.34,3280.82,1100.75Z"/><path class="cls-3" d="M3268.82,928.75c39.89.26,49.8-20.27,87-27,47.28-8.56,73.76,16.91,85,3,10.61-13.14-5.44-45.14-22-63-31.83-34.36-78.34-30.28-81-30-32.24,3.36-51.85,22.41-72,42-9.74,9.47-45.62,44.34-36,63C3235.9,928.53,3257.47,928.67,3268.82,928.75Z"/><path class="cls-3" d="M1799.82,956.75c48.7-39.93,113.14-28.1,130-25,15.37,2.82,76.18,16,114,70,9.52,13.59,27.51,39.27,25,74-1.88,26.11-15.87,64.64-42,70-30.69,6.28-69.16-35.08-75-72-2.47-15.69,2.25-22.27-4-36-9.42-20.72-35-38.3-56-34-20.19,4.12-19,24.89-43,41-29.21,19.61-77.1,19.78-90,0C1745,1023.59,1771.48,980,1799.82,956.75Z"/><path class="cls-3" d="M1862.82,1062.75c3.86-14.88,16.59-21.77,19-23,2.93-1.51,13.85-7.12,26-3,14,4.72,19.08,18.74,21,24,1.75,4.77,7.72,21.08-1,34-9.57,14.18-32.83,18.27-49,8C1865.76,1094.44,1858.93,1077.76,1862.82,1062.75Z"/><path class="cls-3" d="M1833.82,1071.75c9.81,4.47.86,23,13,41,12.69,18.8,41.3,26.54,63,24,19.33-2.27,24.43-11.65,37-8,14.9,4.31,27.74,23.27,25,38-4.65,25-55,41.65-95,33-34.72-7.52-54-32.43-59-39-6.49-8.63-29.81-39.64-18-66C1806.69,1079.43,1824.58,1067.53,1833.82,1071.75Z"/><path class="cls-3" d="M2400.82,2131.75c-23.47,9.61-43.18,17.68-53,39-10.48,22.75-5.28,51,10,70,17.45,21.64,42.87,24.75,53,26,26,3.18,76.93-1.57,96-43,17.59-38.21-1.18-87.56-33-102C2450.79,2111.28,2426,2121.43,2400.82,2131.75Z"/><path class="cls-3" d="M2496.82,2313.75c-13.74,5.55-24.37,9.95-36,20-26.48,22.88-50.55,68.5-34,102,17.63,35.67,70.92,36.5,103,37,30.9.48,77.27,1.19,106-34,28.53-34.95,19.22-80.25,18.72-82.47-2.06-9.32-6.22-28-21.72-42.53C2591.82,2275.37,2514.35,2306.67,2496.82,2313.75Z"/><path class="cls-3" d="M2774.82,2409.75c-.18-34.15-32.57-62.86-63-73-39.9-13.32-98.63-2.12-116,43-16.94,44,15.31,94.73,56,109C2707,2508.08,2775.09,2459.46,2774.82,2409.75Z"/><path class="cls-3" d="M2350.82,2296.75c1.5-1,21.59-13.49,43-3,14.42,7.05,23.4,21.57,24,36,1.07,25.41-23.91,49.83-50,47-15.91-1.73-30.87-13.45-36-30C2325.75,2327.14,2335.33,2306.79,2350.82,2296.75Z"/><path class="cls-3" d="M2692.82,2458.75c-23.78-22.47-29.1-25.62-30-34-1.6-14.93,12.21-33.48,30-37,20.8-4.12,36.9,14.29,41,19,8.13,9.29,7.06,14.28,14,25,0,0,14.43,22.27,42,32,29.68,10.46,41-9.65,82-9,13.76.21,57.86.91,78,32,15,23.19,11.66,55.49-3,78-20.26,31.11-62.74,44.5-86,32-15.77-8.49-14-24.2-44-51-18.78-16.79-25.33-15.86-28-15-12,3.85-15.29,28.67-15,43,.32,15.65,4.9,17.34,4,28-1.6,19-18.84,44.78-43,45-25.12.22-44.1-27.31-44-48,.09-16.95,12.91-19.84,27-53,8.45-19.88,13.89-32.68,10-47C2726.45,2493.7,2723.8,2488,2692.82,2458.75Z"/><path class="cls-3" d="M2663.82,2559.75c7.27,16.13-4.85,26.16-4,48,.84,21.33,13.6,41.88,30,54,27.72,20.47,60.13,12.65,67,11,11.52-2.78,32.88-7.93,42-25,5.29-9.9,3.94-19.06,12-24,6.82-4.18,16.17-2.79,22,0,19.24,9.18,21.87,43.78,20,63-3.28,33.84-25,65.89-54,84-48,30-113.08,19.76-155-14-3.4-2.75-50.5-41.88-51-101-.14-16.73,7.58-37.15,23-78,9.29-24.59,15.18-34.92,24-36C2649.13,2540.6,2659.43,2550,2663.82,2559.75Z"/><path class="cls-3" d="M2022.82,551.75c-22.36-22.16-7.69-52.64-29-65-20.67-12-60,1.85-74,29-9.36,18.22-4.36,36.8,0,53,1.88,7,18.65,65.76,70,86,25.61,10.08,30.8-.85,82,8,34.44,5.94,51.74,8.93,69,21,38.36,26.81,25.66,62.9,58,86,31,22.16,80.68,16,114-5,46.65-29.44,61.69-88.28,50-135-15.05-60.2-73.14-95-119-98-36.85-2.45-40.73,17.25-111,29C2090,567.91,2046.48,575.18,2022.82,551.75Z"/><path class="cls-3" d="M2271.82,363.75c-14.31,27.08-18.06,49.11-24,86-6.45,40.08-5.72,77.93-4,152,1.23,52.8,2.93,58.68,8,65,27.21,33.87,99.63,15.93,164,0,92-22.79,153.55-38,168-86,11.65-38.66-9.7-90.53-41-102-40.21-14.75-104.16,34.49-123,49-23.57,18.15-35.5,33.08-49,29-19.46-5.9-23.38-45.66-25-62-2.69-27.33-5.93-60.16,13-78,28.26-26.64,75.41,8.87,102-16,21-19.67,18.35-66.93-4-94-31.24-37.86-93.37-27.08-127-9C2297.53,315.11,2282.13,344.24,2271.82,363.75Z"/><path class="cls-3" d="M2538.82,351.75c3.5-2,41.86-23.51,69,0,19.61,17,22.28,47.79,9,69-16.46,26.29-50.48,26.63-70,21-4.85-1.41-36.38-11.14-41-37C2500.46,374.7,2536.77,352.94,2538.82,351.75Z"/><path class="cls-3" d="M2518.82,1243.75c-5.9-1.34-24.46-6-46,0-6.88,1.92-33.55,9.36-44,34-1.35,3.19-9.6,22.66,0,39,11,18.78,37.68,19.76,44,20,25.16.92,34.34-11.35,83-33,51.85-23.08,62.16-18.37,66-16,11,6.75,7.78,18.14,26,46,10.14,15.49,15.21,23.24,24,27,22.43,9.57,59.82-9.36,73-37,16-33.63-1.49-84.84-34-103C2659.21,1191.9,2596.73,1261.36,2518.82,1243.75Z"/><path class="cls-3" d="M2574.82,1194.75c11.18,8.84,27.24-6.57,67-14,24.36-4.56,64.95-12.15,93,7,32.88,22.43,21.78,63.32,49,73,21.08,7.48,50.57-8.92,63-30,22.93-38.87-9-98.87-46-129-41.39-33.72-90.2-30.91-106-30-11.72.67-87.47,6.26-116,60C2567.46,1153.14,2562.21,1184.77,2574.82,1194.75Z"/><path class="cls-3" d="M2881.82,1262.75c-2.66-.23-28.44-2-42,18-11,16.17-8,37.83,3,52,16.07,20.71,42.95,17.29,45,17,19.25-2.79,40.16-17.77,42-39C2932.05,1285.2,2905.47,1264.73,2881.82,1262.75Z"/><path class="cls-3" d="M2929.82,1362.75c-7.34,7.88-14.76,15.83-13,24,1.81,8.37,14.9,13,41,22,20.29,7,22.84,5.76,24,5,13.63-9,3.62-65.6-19-70C2949.89,1341.22,2935.76,1356.38,2929.82,1362.75Z"/><path class="cls-3" d="M2787.82,1205.75c.43-2.4,4.23-23.81,15-26,8.74-1.78,17.77,9.94,24,18,59.85,77.31,72.42,88.73,66,102-6,12.3-22.73,14.82-24,15C2828.64,1320.22,2779.4,1253.23,2787.82,1205.75Z"/><path class="cls-3" d="M3272.82,2518.75c-19.51-17.13-31.54-36.94-60-45-11.29-3.2-25.63-4.68-27.31-4.85-23-2.29-38.87.43-44.69.85-41.56,3-112.56-72.46-95-114,12.86-30.42,72.83-41.84,114-26,18.22,7,36.15,26,72,64,38.25,40.53,43.32,53.9,68,64,27.13,11.1,39.38,2.46,56,16,24.65,20.06,30.79,66,15,79C3353.17,2567.32,3302.88,2545.12,3272.82,2518.75Z"/><path class="cls-3" d="M3219.82,2537.75c-23.83-16.11-34.18-25.56-53-27-27.87-2.14-61.4,14.32-64,34-4.33,32.83,78.57,66.25,83,68,61.16,24.12,80.48,3.24,133,27,55.14,24.94,68.73,63.74,90,56,21.79-7.93,33.74-58.16,15-83-19.26-25.55-52.88-.3-117-26C3271.26,2572.49,3227.85,2543.17,3219.82,2537.75Z"/><path class="cls-3" d="M3423.82,2340.75c-19,19.29-24,49.12-26,61-2.66,15.74-1.5,25.25,7,90,8.11,61.72,9.1,68.52,4,80-10.69,24.09-30.32,28.53-31,50-.46,14.49,8,28.39,18,36,25.77,19.55,72.58,5.46,98-20,20.76-20.8,11.64-33.53,32-62,27-37.74,54.7-31.73,82-61,30.08-32.26,43.77-90.31,24-133C3597.58,2307.81,3469.57,2294.19,3423.82,2340.75Z"/><path class="cls-3" d="M3475.82,2392.75c14-14.4,44.15-7.28,60,0,2.2,1,43.61,20.65,41,51-2.4,27.89-40.71,49.85-69,42C3470,2475.24,3456,2413.12,3475.82,2392.75Z"/><path class="cls-3" d="M2987.82,2455.75c15.19-15.25,22.79-22.87,32-27,34.9-15.66,60,8.18,84-7,19.76-12.49,28.49-44.83,19-55-16-17.11-74.59,38.08-114,15-13.35-7.83-19.23-22.89-31-53-19-48.68-10.59-69.36-30-86-20.64-17.71-50.66-11.91-55-11-43.5,9.06-73.69,60.35-65,95,8.46,33.68,47.59,27.33,67,72,4,9.26,21.87,54.43,3,89-5.6,10.27-15.09,20.79-15,38,0,1.05.32,21.31,10,25,4.38,1.66,11.82.37,36-25C2957.62,2495.52,2962.48,2481.18,2987.82,2455.75Z"/><path class="cls-3" d="M2890.82,2273.75c-10.1,6.66-11.56,18.44-12,22-1.16,9.42.58,27.12,14,33,11.71,5.12,25.14-1.86,32-10,9.39-11.15,11.89-30.88,0-42C2915.91,2268.4,2901.1,2267,2890.82,2273.75Z"/><path class="cls-3" d="M2825.82,2162.75c-2.75,2.91-10.7,11.62-11,25,0,.77-.13,19.74,15,30,14.79,10,34.49,5.19,46-5,1.91-1.69,14.69-13.4,13-31-1.47-15.47-13.5-29.2-29-32C2841.24,2146.38,2827.87,2160.58,2825.82,2162.75Z"/><path class="cls-3" d="M3683.82,2391.75c-14,37.36,5.48,50.93-5,91-10,38.09-30.52,37.19-51,81-12.93,27.66-33.4,89.36-10,112,12.71,12.28,61-.31,157-26,95-25.42,105.25-28.29,126-25,58.72,9.29,80.22,48.69,112,36,24.69-9.86,38.62-44.38,35-71-6.55-48.21-71.71-78.52-121-81-40.81-2.06-51.81,15.91-71,5-35.55-20.23-5.42-86.28-51-142-5.28-6.46-33.1-40.48-66-36C3703.64,2340.54,3685.89,2386.22,3683.82,2391.75Z"/><path class="cls-3" d="M4133.82,2619.75c-7.5-.57-30.61-1.13-50,15-24.72,20.56-34.52,60.9-16,91,22.32,36.26,75.93,41.66,107,16,22.09-18.25,32.61-52,20-81C4178.78,2623.87,4136.23,2619.93,4133.82,2619.75Z"/></g></svg>