<?xml version="1.0" encoding="utf-8"?>
<!-- Generator: Adobe Illustrator 24.1.2, SVG Export Plug-In . SVG Version: 6.00 Build 0)  -->
<svg version="1.1" id="Layer_1" xmlns="http://www.w3.org/2000/svg" xmlns:xlink="http://www.w3.org/1999/xlink" x="0px" y="0px"
	 viewBox="0 0 1179.6 792" style="enable-background:new 0 0 1179.6 792;" xml:space="preserve">
<style type="text/css">
	.st0{opacity:0.8;fill:none;stroke:#010101;stroke-width:2.5;stroke-miterlimit:10;enable-background:new    ;}
	.st1{opacity:0.33;fill:none;stroke:#6ABD46;stroke-width:4;stroke-miterlimit:10;enable-background:new    ;}
</style>
<path class="st0" d="M0,416.2c10.9-2.6,26.5-6.5,45-12c29.7-8.8,52.1-7.8,62.6-24.3c1.2-1.9,2-3.6,2.4-4.7c-0.7,0-1.8,0.1-3,0
	c-2.6-0.1-10-0.5-16-6c-5.3-4.8-6.6-10.9-7-13c-0.2-1.2-2.1-13.4,6-20c6.7-5.4,16-3.7,20-3c1.7,0.3,3.1,0.7,4,1c0-0.4,0.3-4.6,4-7
	c3.2-2,6.5-1.1,7-1c0.5-1,1.1-2.3,2-4c2.8-5.4,4.2-8.1,6-10c3.2-3.4,7.2-4.3,10-5c12.7-3,30.3,2.6,33,13c0.5,2,0.4,4.1,0,6
	c1.1-0.3,3.4-0.8,6,0c5,1.5,6.8,6.4,7,7c1.4-2.2,4.5-6.6,10-9c9.7-4.2,22.3-0.5,28,8c5.9,8.8,2.8,20.1,2.4,21.8
	c-0.2,0.5-0.3,1-0.4,1.2c-3.6,11.5-12.9,16.9-15,18c1.4-0.2,3.5-0.4,6,0c4.3,0.7,9.4,3.1,12,7c4.8,7.2-0.2,17.8-4,23
	c-7.3,10-21.1,13.9-28,11c-4.7-2-4.5-5.4-11-11c-0.6-0.5-1-0.8-1.7-1.4c-2.2-1.9-6.7-5.8-7.3-9.6c-0.8-5.5,6.7-10.2,6-11
	c-0.5-0.6-4.6,1.9-12,7c-9.1,6.2-10.3,7.5-12,7c-6-1.8-4.4-23-6-23c-0.9,0-0.9,5.7-4,12c-1.7,3.5-3.4,7.8-5.5,7.7
	c-2.7-0.1-4.4-7.1-4.5-7.7c0.7,5,0,8.7-1.8,9.4c-1.5,0.6-3.4-1-5.2-2.4c-5.4-4.4-5.2-8-10-13c-3.8-4-8.3-6.7-9-6
	c-0.5,0.4,0.9,2,1.5,5.1c0.5,3-0.3,4.6-0.5,6.9c-0.3,2.8,0.8,5.6,3,11c3,7.3,4.1,7.9,6,13c1.1,3,2.7,7,3,12c0.8,11.3-5.2,17.7-2,21
	c1.3,1.3,3.5,1.5,5.1,0.8c2-0.9,3.2-3.6,2.9-6.8c-1.7,4.5-1.1,6.3-0.3,7.1c1.5,1.5,3.9-0.3,7.3,0.9c4,1.5,4.3,5.2,6,5
	c3.6-0.3,3.3-11.8,9-25c1.7-3.8,5.4-12.5,11-17c12.8-10.4,36.7-0.3,46,3c76.3,27.4,150.2-25.2,157-31c3.7-3.2,7-7,7-7
	c3-3.5,7.2-7.9,9-14c1.6-5.5,4.4-14.9-1-22c-5.1-6.6-15.3-7.4-22-6c-7.9,1.6-16.9,7.4-20,16c-5.6,15.8,11.6,23.7,33,65
	c1.7,3.2,5.5,10.8,11,11c6.5,0.2,9-10.4,17-11c6.9-0.5,9,7.1,15,7c11.7-0.2,19.6-29.7,21-35c3.6-13.5,10.1-37.6,0-45
	c-8.3-6.1-18,5.3-36,1c-20.1-4.8-32.4-25.2-31-27c0.6-0.8,4,2.1,9,1c4-0.9,4.7-3.4,7-3s3.2,3.1,7,11c4.5,9.4,5.3,10,6,10
	c2.5-0.2,1.3-9.4,8-18c1.5-1.9,4.4-5.5,9.6-7.4c4.9-1.8,9.3-1.1,11.4-0.6c-0.7,1.3-1.7,3.3-2.7,5.7c-3.8,9.3-2.5,13-5.3,16.3
	c-3,3.4-8.4,4.9-10,3.3c-2.6-2.6,5.7-13.8,5-14.3c-0.7-0.4-10.2,7.4-10,15c0.4,18.3,56.3,30.3,59,31c65.1,17.3,129.6-7.7,130-22
	c0.2-7.7-15-11.6-17-28c-0.1-1.1,1.2-4.7,0.3-9.4c-0.5-2.9-1.5-5.1-2.3-6.6c3.3,0.9,7.5,2.5,11.4,5.9c9.5,8.4,9.3,21.3,11.6,21.1
	c2-0.2,0.4-10.2,5-23c0.7-1.9,2.1-5.4,2.4-10.4c0.3-3.6-0.1-6.6-0.4-8.6c2.7,0.4,6.7,1.4,9.7,4.6c5.4,5.6,4.3,14.3,3.3,22.4
	c-0.6,4.8-1.7,13.1-7,23c-7.7,14.5-15.3,15.9-20,27c-2.2,5.3-2.5,9.9-6.9,14.8c-0.8,0.9-1.9,1.9-1.7,3.1c0.7,3.9,14.7,4.7,14.6,5.2
	c0,0.4-11.7-3.3-17.9,2c-0.1,0.1-0.3,0.2-0.4,0.4c-2.7,2.9-4,6.6-4.6,13.6c-0.5,5.6-0.8,9.4,0,15c1.1,7.7,2.8,19,10.8,24.2
	c3.1,2,7.4,3.2,7.2,4.8c-0.2,1.2-2.8,1.1-3.8,3c-1.1,2.2,0.9,4.7,2,8c0.9,2.7,1.4,6.6-0.2,12c5.3-0.5,13.9-2,22-8
	c4.1-3.1,6.8-6.3,9-9c8.3-10.1,7.5-15.6,15.7-22.6c2.2-1.9,3.6-2.7,3.4-3.7c-0.8-4.4-26-4.3-26.1-3.7c0,0.6,24.2,5.9,29.4-2.7
	c0.5-0.9,0.7-1.7,0.9-2.9c2.2-12.5,0.9-23-0.3-36.5c-0.8-8.9-0.8-11.5-3.1-13.1c-5.2-3.6-15.8,2.4-15.9,2.1
	c-0.1-0.3,12.4-3.7,12.4-8.1c0-1.3-1.1-2.3-2.1-3.2c-6.9-6.3-11.1-14.4-12.3-18.7c-0.9-3.3,0.2-3.2,1-13c1.2-15.8-1.6-20.1,1.8-25.1
	c1.8-2.7,5.7-6,15.2-6.9c-1.6,1.6-3.8,4.3-5,8.2c-2.3,7.5,1.9,11.6,0,19.8c-1.5,6.7-5.7,10.4-5,11c1,0.9,7.4-8.4,17-12
	c1.1-0.4,4.1-1.4,7.7-3.5c2.3-1.3,4.1-2.6,5.3-3.5c0.5,1.9,1,4.7,0,7.5c-1.2,3.6-3.6,4-6,8.5c-2.4,4.4-1.1,5.8-3,8
	c-4.2,4.8-13.6,1.6-14,3c-0.5,1.5,10.6,7.1,23,11c54.2,17,135.9,5,136-6c0-2.6-4.5-5.3-8-5c-9.5,0.7-17.2,22.9-17,41
	c0.2,20.7,10.6,35.4,17,40c1.6,1.2,5,3.2,9.3,4.5c4.1,1.2,7.4,2.3,9.7,0.5c3.1-2.4,2.1-8.2,2-9c-0.8-4.5-3.6-7.5-4-8
	c-8.9-10-9.8-69.9,2-72c7.7-1.4,17.6,22.4,21,33c1.2,3.8,12,37-2,49c-5,4.3-11.2,4.2-11,6c0.2,2.2,6.1,4.8,11.5,3.8
	c6.8-1.3,11-8.2,11.5-7.8s-4.2,6-3.2,7.2c0.6,0.7,3.2-0.6,4.2-1.2c14-7.7,20-20,20-20c6.9-14.3,4.1-28.1,3-33
	c-2.2-10.1-6.9-17.2-10-22c-2.3-3.6-6.2-9.4-13-15s-8.7-6.8-10-7c-6.8-1.3-11.3,4.1-14,2c-2.2-1.7,0-5.8-1-13c-0.7-4.9-2.6-8.7-4-11
	c3,0,6,0,9,0c2.7,0,5.3,0,8,0c-1.3,5.9,0.2,9.5,1,11c3.5,6.7,12.7,8.8,19,10c3.4,0.7,5.1-0.6,7.8,0.7c4.6,2.2,6.3,7.6,7.2,7.3
	c0.8-0.4-1.4-5.1,0.4-7c1.7-1.7,5.8-0.3,6.6,0c12,4.3,17.1,34.4,18,39c3.6,19.1,6.1,32.8-2,44c-8.3,11.4-24.8,15.9-27,13
	c-1.7-2.3,3.2-11.5,11-16c13.1-7.7,33.2,0.2,72.8,16.1c0,0,21.4,8.7,22.2,6.9c0.6-1.2-11-6-10.8-12.7c0.1-1.6,0.8-3.6,3.8-6.3
	c9-8.3,18.7-5.9,28.7-10.4c5.5-2.5,9.8-8.2,18.3-19.6c12.1-16.1,17.4-30,20-38c2.7-8.6,4.1-13.1,3-19c-1.8-10.1-9.2-16.3-7-19
	c0.8-1,3-0.7,4.3-0.2c2.5,1.1,3.3,4.3,3.7,4.2c0.4-0.2-0.9-2.9,0.2-4.3c0.9-1.1,2.4-0.4,4.8-0.7c4.8-0.7,6.4-4.9,8-4
	c1.8,1,1,6.1,0.6,8.6c-0.4,2.3-0.8,3.4-1.6,6.4c1.1,0.3,2.6,0.8,3,2c0.7,2-2.9,3.5-5,7c-2.3,3.9-2.4,7.2,2,29c5.1,21.4-7,60.8-28,69
	c-17.1,6.7-35-9.5-41-2c-3.8,4.7,0.4,15,5,21c12,15.4,38,16.3,56,10c4.7-1.6,26.3-9.9,34-31c7.8-21.2-3-43.8-5-48
	c-4.9-10.2-8.2-21.3-14-31c-0.5-0.9-2.9-4.7-3-10c0-1.9-0.2-6.7,2-8c5.5-3.3,23.7,18.1,27,22c8.2,9.8,15.3,18.3,21,32
	c3.2,7.7,10.4,25.6,7,48c-1.8,11.5-3.4,22.7-13,30c-10.1,7.7-26.5,9.4-38,1c-7.3-5.4-13.9-15.8-11-20c5-7.2,31.7,13.5,68,12
	c19.9-0.8,36.3-8.1,48-15c6.5-2.6,13-5.2,19.5-7.8"/>
<path class="st1" d="M0,469.6c26.5-9.7,48.6-14.6,64.5-17.4c25.5-4.4,51-6,62.6-24.3c1.2-1.9,2-3.6,2.4-4.7c-0.7,0-1.8,0.1-3,0
	c-2.6-0.1-10-0.5-16-6c-5.3-4.8-6.6-10.9-7-13c-0.2-1.2-2.1-13.4,6-20c6.7-5.4,16-3.7,20-3c1.7,0.3,3.1,0.7,4,1c0-0.4,0.3-4.6,4-7
	c3.2-2,6.5-1.1,7-1c0.5-1,1.1-2.3,2-4c2.8-5.4,4.2-8.1,6-10c3.2-3.4,7.2-4.3,10-5c12.7-3,30.3,2.6,33,13c0.5,2,0.4,4.1,0,6
	c1.1-0.3,3.4-0.8,6,0c5,1.5,6.8,6.4,7,7c1.4-2.2,4.5-6.6,10-9c9.7-4.2,22.3-0.5,28,8c5.9,8.8,2.8,20.1,2.4,21.8
	c-0.2,0.5-0.3,1-0.4,1.2c-3.6,11.5-12.9,16.9-15,18c1.4-0.2,3.5-0.4,6,0c4.3,0.7,9.4,3.1,12,7c4.8,7.2-0.2,17.8-4,23
	c-7.3,10-21.1,13.9-28,11c-4.7-2-4.5-5.4-11-11c-0.6-0.5-1-0.8-1.7-1.4c-2.2-1.9-6.7-5.8-7.3-9.6c-0.8-5.5,6.7-10.2,6-11
	c-0.5-0.6-4.6,1.9-12,7c-9.1,6.2-10.3,7.5-12,7c-6-1.8-4.4-23-6-23c-0.9,0-0.9,5.7-4,12c-1.7,3.5-3.4,7.8-5.5,7.7
	c-2.7-0.1-4.4-7.1-4.5-7.7c0.7,5,0,8.7-1.8,9.4c-1.5,0.6-3.4-1-5.2-2.4c-5.4-4.4-5.2-8-10-13c-3.8-4-8.3-6.7-9-6
	c-0.5,0.4,0.9,2,1.5,5.1c0.5,3-0.3,4.6-0.5,6.9c-0.3,2.8,0.8,5.6,3,11c3,7.3,4.1,7.9,6,13c1.1,3,2.7,7,3,12c0.8,11.3-5.2,17.7-2,21
	c1.3,1.3,3.5,1.5,5.1,0.8c2-0.9,3.2-3.6,2.9-6.8c-1.7,4.5-1.1,6.3-0.3,7.1c1.5,1.5,3.9-0.3,7.3,0.9c4,1.5,4.3,5.2,6,5
	c3.6-0.3,3.3-11.8,9-25c1.7-3.8,5.4-12.5,11-17c12.8-10.4,36.7-0.3,46,3c76.3,27.4,150.2-25.2,157-31c3.7-3.2,7-7,7-7
	c3-3.5,7.2-7.9,9-14c1.6-5.5,4.4-14.9-1-22c-5.1-6.6-15.3-7.4-22-6c-7.9,1.6-16.9,7.4-20,16c-5.6,15.8,11.6,23.7,33,65
	c1.7,3.2,5.5,10.8,11,11c6.5,0.2,9-10.4,17-11c6.9-0.5,9,7.1,15,7c11.7-0.2,19.6-29.7,21-35c3.6-13.5,10.1-37.6,0-45
	c-8.3-6.1-18,5.3-36,1c-20.1-4.8-32.4-25.2-31-27c0.6-0.8,4,2.1,9,1c4-0.9,4.7-3.4,7-3s3.2,3.1,7,11c4.5,9.4,5.3,10,6,10
	c2.5-0.2,1.3-9.4,8-18c1.5-1.9,4.4-5.5,9.6-7.4c4.9-1.8,9.3-1.1,11.4-0.6c-0.7,1.3-1.7,3.3-2.7,5.7c-3.8,9.3-2.5,13-5.3,16.3
	c-3,3.4-8.4,4.9-10,3.3c-2.6-2.6,5.7-13.8,5-14.3c-0.7-0.4-10.2,7.4-10,15c0.4,18.3,56.3,30.3,59,31c65.1,17.3,129.6-7.7,130-22
	c0.2-7.7-15-11.6-17-28c-0.1-1.1,1.2-4.7,0.3-9.4c-0.5-2.9-1.5-5.1-2.3-6.6c3.3,0.9,7.5,2.5,11.4,5.9c9.5,8.4,9.3,21.3,11.6,21.1
	c2-0.2,0.4-10.2,5-23c0.7-1.9,2.1-5.4,2.4-10.4c0.3-3.6-0.1-6.6-0.4-8.6c2.7,0.4,6.7,1.4,9.7,4.6c5.4,5.6,4.3,14.3,3.3,22.4
	c-0.6,4.8-1.7,13.1-7,23c-7.7,14.5-15.3,15.9-20,27c-2.2,5.3-2.5,9.9-6.9,14.8c-0.8,0.9-1.9,1.9-1.7,3.1c0.7,3.9,14.7,4.7,14.6,5.2
	c0,0.4-11.7-3.3-17.9,2c-0.1,0.1-0.3,0.2-0.4,0.4c-2.7,2.9-4,6.6-4.6,13.6c-0.5,5.6-0.8,9.4,0,15c1.1,7.7,2.8,19,10.8,24.2
	c3.1,2,7.4,3.2,7.2,4.8c-0.2,1.2-2.8,1.1-3.8,3c-1.1,2.2,0.9,4.7,2,8c0.9,2.7,1.4,6.6-0.2,12c5.3-0.5,13.9-2,22-8
	c4.1-3.1,6.8-6.3,9-9c8.3-10.1,7.5-15.6,15.7-22.6c2.2-1.9,3.6-2.7,3.4-3.7c-0.8-4.4-26-4.3-26.1-3.7c0,0.6,24.2,5.9,29.4-2.7
	c0.5-0.9,0.7-1.7,0.9-2.9c2.2-12.5,0.9-23-0.3-36.5c-0.8-8.9-0.8-11.5-3.1-13.1c-5.2-3.6-15.8,2.4-15.9,2.1
	c-0.1-0.3,12.4-3.7,12.4-8.1c0-1.3-1.1-2.3-2.1-3.2c-6.9-6.3-11.1-14.4-12.3-18.7c-0.9-3.3,0.2-3.2,1-13c1.2-15.8-1.6-20.1,1.8-25.1
	c1.8-2.7,5.7-6,15.2-6.9c-1.6,1.6-3.8,4.3-5,8.2c-2.3,7.5,1.9,11.6,0,19.8c-1.5,6.7-5.7,10.4-5,11c1,0.9,7.4-8.4,17-12
	c1.1-0.4,4.1-1.4,7.7-3.5c2.3-1.3,4.1-2.6,5.3-3.5c0.5,1.9,1,4.7,0,7.5c-1.2,3.6-3.6,4-6,8.5c-2.4,4.4-1.1,5.8-3,8
	c-4.2,4.8-13.6,1.6-14,3c-0.5,1.5,10.6,7.1,23,11c54.2,17,135.9,5,136-6c0-2.6-4.5-5.3-8-5c-9.5,0.7-17.2,22.9-17,41
	c0.2,20.7,10.6,35.4,17,40c1.6,1.2,5,3.2,9.3,4.5c4.1,1.2,7.4,2.3,9.7,0.5c3.1-2.4,2.1-8.2,2-9c-0.8-4.5-3.6-7.5-4-8
	c-8.9-10-9.8-69.9,2-72c7.7-1.4,17.6,22.4,21,33c1.2,3.8,12,37-2,49c-5,4.3-11.2,4.2-11,6c0.2,2.2,6.1,4.8,11.5,3.8
	c6.8-1.3,11-8.2,11.5-7.8s-4.2,6-3.2,7.2c0.6,0.7,3.2-0.6,4.2-1.2c14-7.7,20-20,20-20c6.9-14.3,4.1-28.1,3-33
	c-2.2-10.1-6.9-17.2-10-22c-2.3-3.6-6.2-9.4-13-15s-8.7-6.8-10-7c-6.8-1.3-11.3,4.1-14,2c-2.2-1.7,0-5.8-1-13c-0.7-4.9-2.6-8.7-4-11
	c3,0,6,0,9,0c2.7,0,5.3,0,8,0c-1.3,5.9,0.2,9.5,1,11c3.5,6.7,12.7,8.8,19,10c3.4,0.7,5.1-0.6,7.8,0.7c4.6,2.2,6.3,7.6,7.2,7.3
	c0.8-0.4-1.4-5.1,0.4-7c1.7-1.7,5.8-0.3,6.6,0c12,4.3,17.1,34.4,18,39c3.6,19.1,6.1,32.8-2,44c-8.3,11.4-24.8,15.9-27,13
	c-1.7-2.3,3.2-11.5,11-16c13.1-7.7,33.2,0.2,72.8,16.1c0,0,21.4,8.7,22.2,6.9c0.6-1.2-11-6-10.8-12.7c0.1-1.6,0.8-3.6,3.8-6.3
	c9-8.3,18.7-5.9,28.7-10.4c5.5-2.5,9.8-8.2,18.3-19.6c12.1-16.1,17.4-30,20-38c2.7-8.6,4.1-13.1,3-19c-1.8-10.1-9.2-16.3-7-19
	c0.8-1,3-0.7,4.3-0.2c2.5,1.1,3.3,4.3,3.7,4.2c0.4-0.2-0.9-2.9,0.2-4.3c0.9-1.1,2.4-0.4,4.8-0.7c4.8-0.7,6.4-4.9,8-4
	c1.8,1,1,6.1,0.6,8.6c-0.4,2.3-0.8,3.4-1.6,6.4c1.1,0.3,2.6,0.8,3,2c0.7,2-2.9,3.5-5,7c-2.3,3.9-2.4,7.2,2,29c5.1,21.4-7,60.8-28,69
	c-17.1,6.7-35-9.5-41-2c-3.8,4.7,0.4,15,5,21c12,15.4,38,16.3,56,10c4.7-1.6,26.3-9.9,34-31c7.8-21.2-3-43.8-5-48
	c-4.9-10.2-8.2-21.3-14-31c-0.5-0.9-2.9-4.7-3-10c0-1.9-0.2-6.7,2-8c5.5-3.3,23.7,18.1,27,22c8.2,9.8,15.3,18.3,21,32
	c3.2,7.7,10.4,25.6,7,48c-1.8,11.5-3.4,22.7-13,30c-10.1,7.7-26.5,9.4-38,1c-7.3-5.4-13.9-15.8-11-20c5-7.2,31.7,13.5,68,12
	c19.9-0.8,36.3-8.1,48-15"/>
</svg>
