<svg id="Layer_1" data-name="Layer 1" xmlns="http://www.w3.org/2000/svg" viewBox="0 0 1179.6 792"><defs><style>.cls-1,.cls-12,.cls-2,.cls-3{fill:none;}.cls-1{stroke:#010101;stroke-width:2.5px;opacity:0.8;}.cls-1,.cls-12,.cls-2{stroke-miterlimit:10;}.cls-1,.cls-12,.cls-2,.cls-4{isolation:isolate;}.cls-2{stroke:#6abd46;stroke-width:4px;opacity:0.33;}.cls-12,.cls-4{font-size:46px;font-family:Montserrat-Medium, Montserrat;letter-spacing:0.07em;}.cls-4{fill:#231f20;}.cls-5{letter-spacing:0.06em;}.cls-6{letter-spacing:0.04em;}.cls-7{letter-spacing:0.06em;}.cls-8{letter-spacing:0.06em;}.cls-9{letter-spacing:0.06em;}.cls-10{letter-spacing:0.07em;}.cls-11{letter-spacing:0.05em;}.cls-12{stroke:#231f20;stroke-width:3px;}</style></defs><title>berkeley-food-icon (1)</title><path class="cls-1" d="M0,416.2c10.9-2.6,26.5-6.5,45-12,29.7-8.8,52.1-7.8,62.6-24.3a26.07,26.07,0,0,0,2.4-4.7,29.55,29.55,0,0,1-3,0c-2.6-.1-10-.5-16-6a23.22,23.22,0,0,1-7-13c-.2-1.2-2.1-13.4,6-20,6.7-5.4,16-3.7,20-3a28.66,28.66,0,0,1,4,1,8.62,8.62,0,0,1,11-8c.5-1,1.1-2.3,2-4,2.8-5.4,4.2-8.1,6-10,3.2-3.4,7.2-4.3,10-5,12.7-3,30.3,2.6,33,13a13.5,13.5,0,0,1,0,6,10.75,10.75,0,0,1,6,0c5,1.5,6.8,6.4,7,7a23,23,0,0,1,10-9c9.7-4.2,22.3-.5,28,8,5.9,8.8,2.8,20.1,2.4,21.8-.2.5-.3,1-.4,1.2a31.72,31.72,0,0,1-15,18,19.74,19.74,0,0,1,6,0c4.3.7,9.4,3.1,12,7,4.8,7.2-.2,17.8-4,23-7.3,10-21.1,13.9-28,11-4.7-2-4.5-5.4-11-11-.6-.5-1-.8-1.7-1.4-2.2-1.9-6.7-5.8-7.3-9.6-.8-5.5,6.7-10.2,6-11-.5-.6-4.6,1.9-12,7-9.1,6.2-10.3,7.5-12,7-6-1.8-4.4-23-6-23-.9,0-.9,5.7-4,12-1.7,3.5-3.4,7.8-5.5,7.7-2.7-.1-4.4-7.1-4.5-7.7.7,5,0,8.7-1.8,9.4-1.5.6-3.4-1-5.2-2.4-5.4-4.4-5.2-8-10-13-3.8-4-8.3-6.7-9-6-.5.4.9,2,1.5,5.1s-.3,4.6-.5,6.9c-.3,2.8.8,5.6,3,11,3,7.3,4.1,7.9,6,13a40.23,40.23,0,0,1,3,12c.8,11.3-5.2,17.7-2,21a4.77,4.77,0,0,0,5.1.8c2-.9,3.2-3.6,2.9-6.8-1.7,4.5-1.1,6.3-.3,7.1,1.5,1.5,3.9-.3,7.3.9,4,1.5,4.3,5.2,6,5,3.6-.3,3.3-11.8,9-25,1.7-3.8,5.4-12.5,11-17,12.8-10.4,36.7-.3,46,3,76.3,27.4,150.2-25.2,157-31a79.86,79.86,0,0,0,7-7c3-3.5,7.2-7.9,9-14,1.6-5.5,4.4-14.9-1-22-5.1-6.6-15.3-7.4-22-6-7.9,1.6-16.9,7.4-20,16-5.6,15.8,11.6,23.7,33,65,1.7,3.2,5.5,10.8,11,11,6.5.2,9-10.4,17-11,6.9-.5,9,7.1,15,7,11.7-.2,19.6-29.7,21-35,3.6-13.5,10.1-37.6,0-45-8.3-6.1-18,5.3-36,1-20.1-4.8-32.4-25.2-31-27,.6-.8,4,2.1,9,1,4-.9,4.7-3.4,7-3s3.2,3.1,7,11c4.5,9.4,5.3,10,6,10,2.5-.2,1.3-9.4,8-18a21.42,21.42,0,0,1,9.6-7.4,19.9,19.9,0,0,1,11.4-.6c-.7,1.3-1.7,3.3-2.7,5.7-3.8,9.3-2.5,13-5.3,16.3-3,3.4-8.4,4.9-10,3.3-2.6-2.6,5.7-13.8,5-14.3s-10.2,7.4-10,15c.4,18.3,56.3,30.3,59,31,65.1,17.3,129.6-7.7,130-22,.2-7.7-15-11.6-17-28-.1-1.1,1.2-4.7.3-9.4a21.65,21.65,0,0,0-2.3-6.6,28.34,28.34,0,0,1,11.4,5.9c9.5,8.4,9.3,21.3,11.6,21.1,2-.2.4-10.2,5-23a33.68,33.68,0,0,0,2.4-10.4,36.12,36.12,0,0,0-.4-8.6,16.29,16.29,0,0,1,9.7,4.6c5.4,5.6,4.3,14.3,3.3,22.4a62.16,62.16,0,0,1-7,23c-7.7,14.5-15.3,15.9-20,27-2.2,5.3-2.5,9.9-6.9,14.8-.8.9-1.9,1.9-1.7,3.1.7,3.9,14.7,4.7,14.6,5.2s-11.7-3.3-17.9,2c-.1.1-.3.2-.4.4-2.7,2.9-4,6.6-4.6,13.6-.5,5.6-.8,9.4,0,15,1.1,7.7,2.8,19,10.8,24.2,3.1,2,7.4,3.2,7.2,4.8-.2,1.2-2.8,1.1-3.8,3-1.1,2.2.9,4.7,2,8,.9,2.7,1.4,6.6-.2,12a43.29,43.29,0,0,0,22-8,50.65,50.65,0,0,0,9-9c8.3-10.1,7.5-15.6,15.7-22.6,2.2-1.9,3.6-2.7,3.4-3.7-.8-4.4-26-4.3-26.1-3.7s24.2,5.9,29.4-2.7a8.24,8.24,0,0,0,.9-2.9c2.2-12.5.9-23-.3-36.5-.8-8.9-.8-11.5-3.1-13.1-5.2-3.6-15.8,2.4-15.9,2.1s12.4-3.7,12.4-8.1c0-1.3-1.1-2.3-2.1-3.2-6.9-6.3-11.1-14.4-12.3-18.7-.9-3.3.2-3.2,1-13,1.2-15.8-1.6-20.1,1.8-25.1,1.8-2.7,5.7-6,15.2-6.9a19.9,19.9,0,0,0-5,8.2c-2.3,7.5,1.9,11.6,0,19.8-1.5,6.7-5.7,10.4-5,11,1,.9,7.4-8.4,17-12a43.34,43.34,0,0,0,7.7-3.5,48.53,48.53,0,0,0,5.3-3.5,12.68,12.68,0,0,1,0,7.5c-1.2,3.6-3.6,4-6,8.5s-1.1,5.8-3,8c-4.2,4.8-13.6,1.6-14,3s10.6,7.1,23,11c54.2,17,135.9,5,136-6,0-2.6-4.5-5.3-8-5-9.5.7-17.2,22.9-17,41,.2,20.7,10.6,35.4,17,40a31.92,31.92,0,0,0,9.3,4.5c4.1,1.2,7.4,2.3,9.7.5,3.1-2.4,2.1-8.2,2-9a17.11,17.11,0,0,0-4-8c-8.9-10-9.8-69.9,2-72,7.7-1.4,17.6,22.4,21,33,1.2,3.8,12,37-2,49-5,4.3-11.2,4.2-11,6,.2,2.2,6.1,4.8,11.5,3.8,6.8-1.3,11-8.2,11.5-7.8s-4.2,6-3.2,7.2c.6.7,3.2-.6,4.2-1.2a51.11,51.11,0,0,0,20-20c6.9-14.3,4.1-28.1,3-33-2.2-10.1-6.9-17.2-10-22a61.45,61.45,0,0,0-13-15c-6.8-5.6-8.7-6.8-10-7-6.8-1.3-11.3,4.1-14,2-2.2-1.7,0-5.8-1-13a29.24,29.24,0,0,0-4-11h17c-1.3,5.9.2,9.5,1,11,3.5,6.7,12.7,8.8,19,10,3.4.7,5.1-.6,7.8.7,4.6,2.2,6.3,7.6,7.2,7.3s-1.4-5.1.4-7c1.7-1.7,5.8-.3,6.6,0,12,4.3,17.1,34.4,18,39,3.6,19.1,6.1,32.8-2,44-8.3,11.4-24.8,15.9-27,13-1.7-2.3,3.2-11.5,11-16,13.1-7.7,33.2.2,72.8,16.1,0,0,21.4,8.7,22.2,6.9.6-1.2-11-6-10.8-12.7.1-1.6.8-3.6,3.8-6.3,9-8.3,18.7-5.9,28.7-10.4,5.5-2.5,9.8-8.2,18.3-19.6a128.14,128.14,0,0,0,20-38c2.7-8.6,4.1-13.1,3-19-1.8-10.1-9.2-16.3-7-19,.8-1,3-.7,4.3-.2,2.5,1.1,3.3,4.3,3.7,4.2s-.9-2.9.2-4.3c.9-1.1,2.4-.4,4.8-.7,4.8-.7,6.4-4.9,8-4,1.8,1,1,6.1.6,8.6-.4,2.3-.8,3.4-1.6,6.4,1.1.3,2.6.8,3,2,.7,2-2.9,3.5-5,7-2.3,3.9-2.4,7.2,2,29,5.1,21.4-7,60.8-28,69-17.1,6.7-35-9.5-41-2-3.8,4.7.4,15,5,21,12,15.4,38,16.3,56,10,4.7-1.6,26.3-9.9,34-31s-3-43.8-5-48c-4.9-10.2-8.2-21.3-14-31a20.51,20.51,0,0,1-3-10c0-1.9-.2-6.7,2-8,5.5-3.3,23.7,18.1,27,22,8.2,9.8,15.3,18.3,21,32,3.2,7.7,10.4,25.6,7,48-1.8,11.5-3.4,22.7-13,30-10.1,7.7-26.5,9.4-38,1-7.3-5.4-13.9-15.8-11-20,5-7.2,31.7,13.5,68,12,19.9-.8,36.3-8.1,48-15l19.5-7.8"/><path class="cls-2" d="M0,469.6a375.16,375.16,0,0,1,64.5-17.4c25.5-4.4,51-6,62.6-24.3a26.07,26.07,0,0,0,2.4-4.7,29.55,29.55,0,0,1-3,0c-2.6-.1-10-.5-16-6a23.22,23.22,0,0,1-7-13c-.2-1.2-2.1-13.4,6-20,6.7-5.4,16-3.7,20-3a28.66,28.66,0,0,1,4,1,8.62,8.62,0,0,1,11-8c.5-1,1.1-2.3,2-4,2.8-5.4,4.2-8.1,6-10,3.2-3.4,7.2-4.3,10-5,12.7-3,30.3,2.6,33,13a13.5,13.5,0,0,1,0,6,10.75,10.75,0,0,1,6,0c5,1.5,6.8,6.4,7,7a23,23,0,0,1,10-9c9.7-4.2,22.3-.5,28,8,5.9,8.8,2.8,20.1,2.4,21.8-.2.5-.3,1-.4,1.2a31.72,31.72,0,0,1-15,18,19.74,19.74,0,0,1,6,0c4.3.7,9.4,3.1,12,7,4.8,7.2-.2,17.8-4,23-7.3,10-21.1,13.9-28,11-4.7-2-4.5-5.4-11-11-.6-.5-1-.8-1.7-1.4-2.2-1.9-6.7-5.8-7.3-9.6-.8-5.5,6.7-10.2,6-11-.5-.6-4.6,1.9-12,7-9.1,6.2-10.3,7.5-12,7-6-1.8-4.4-23-6-23-.9,0-.9,5.7-4,12-1.7,3.5-3.4,7.8-5.5,7.7-2.7-.1-4.4-7.1-4.5-7.7.7,5,0,8.7-1.8,9.4-1.5.6-3.4-1-5.2-2.4-5.4-4.4-5.2-8-10-13-3.8-4-8.3-6.7-9-6-.5.4.9,2,1.5,5.1s-.3,4.6-.5,6.9c-.3,2.8.8,5.6,3,11,3,7.3,4.1,7.9,6,13a40.23,40.23,0,0,1,3,12c.8,11.3-5.2,17.7-2,21a4.77,4.77,0,0,0,5.1.8c2-.9,3.2-3.6,2.9-6.8-1.7,4.5-1.1,6.3-.3,7.1,1.5,1.5,3.9-.3,7.3.9,4,1.5,4.3,5.2,6,5,3.6-.3,3.3-11.8,9-25,1.7-3.8,5.4-12.5,11-17,12.8-10.4,36.7-.3,46,3,76.3,27.4,150.2-25.2,157-31a79.86,79.86,0,0,0,7-7c3-3.5,7.2-7.9,9-14,1.6-5.5,4.4-14.9-1-22-5.1-6.6-15.3-7.4-22-6-7.9,1.6-16.9,7.4-20,16-5.6,15.8,11.6,23.7,33,65,1.7,3.2,5.5,10.8,11,11,6.5.2,9-10.4,17-11,6.9-.5,9,7.1,15,7,11.7-.2,19.6-29.7,21-35,3.6-13.5,10.1-37.6,0-45-8.3-6.1-18,5.3-36,1-20.1-4.8-32.4-25.2-31-27,.6-.8,4,2.1,9,1,4-.9,4.7-3.4,7-3s3.2,3.1,7,11c4.5,9.4,5.3,10,6,10,2.5-.2,1.3-9.4,8-18a21.42,21.42,0,0,1,9.6-7.4,19.9,19.9,0,0,1,11.4-.6c-.7,1.3-1.7,3.3-2.7,5.7-3.8,9.3-2.5,13-5.3,16.3-3,3.4-8.4,4.9-10,3.3-2.6-2.6,5.7-13.8,5-14.3s-10.2,7.4-10,15c.4,18.3,56.3,30.3,59,31,65.1,17.3,129.6-7.7,130-22,.2-7.7-15-11.6-17-28-.1-1.1,1.2-4.7.3-9.4a21.65,21.65,0,0,0-2.3-6.6,28.34,28.34,0,0,1,11.4,5.9c9.5,8.4,9.3,21.3,11.6,21.1,2-.2.4-10.2,5-23a33.68,33.68,0,0,0,2.4-10.4,36.12,36.12,0,0,0-.4-8.6,16.29,16.29,0,0,1,9.7,4.6c5.4,5.6,4.3,14.3,3.3,22.4a62.16,62.16,0,0,1-7,23c-7.7,14.5-15.3,15.9-20,27-2.2,5.3-2.5,9.9-6.9,14.8-.8.9-1.9,1.9-1.7,3.1.7,3.9,14.7,4.7,14.6,5.2s-11.7-3.3-17.9,2c-.1.1-.3.2-.4.4-2.7,2.9-4,6.6-4.6,13.6-.5,5.6-.8,9.4,0,15,1.1,7.7,2.8,19,10.8,24.2,3.1,2,7.4,3.2,7.2,4.8-.2,1.2-2.8,1.1-3.8,3-1.1,2.2.9,4.7,2,8,.9,2.7,1.4,6.6-.2,12a43.29,43.29,0,0,0,22-8,50.65,50.65,0,0,0,9-9c8.3-10.1,7.5-15.6,15.7-22.6,2.2-1.9,3.6-2.7,3.4-3.7-.8-4.4-26-4.3-26.1-3.7s24.2,5.9,29.4-2.7a8.24,8.24,0,0,0,.9-2.9c2.2-12.5.9-23-.3-36.5-.8-8.9-.8-11.5-3.1-13.1-5.2-3.6-15.8,2.4-15.9,2.1s12.4-3.7,12.4-8.1c0-1.3-1.1-2.3-2.1-3.2-6.9-6.3-11.1-14.4-12.3-18.7-.9-3.3.2-3.2,1-13,1.2-15.8-1.6-20.1,1.8-25.1,1.8-2.7,5.7-6,15.2-6.9a19.9,19.9,0,0,0-5,8.2c-2.3,7.5,1.9,11.6,0,19.8-1.5,6.7-5.7,10.4-5,11,1,.9,7.4-8.4,17-12a43.34,43.34,0,0,0,7.7-3.5,48.53,48.53,0,0,0,5.3-3.5,12.68,12.68,0,0,1,0,7.5c-1.2,3.6-3.6,4-6,8.5s-1.1,5.8-3,8c-4.2,4.8-13.6,1.6-14,3s10.6,7.1,23,11c54.2,17,135.9,5,136-6,0-2.6-4.5-5.3-8-5-9.5.7-17.2,22.9-17,41,.2,20.7,10.6,35.4,17,40a31.92,31.92,0,0,0,9.3,4.5c4.1,1.2,7.4,2.3,9.7.5,3.1-2.4,2.1-8.2,2-9a17.11,17.11,0,0,0-4-8c-8.9-10-9.8-69.9,2-72,7.7-1.4,17.6,22.4,21,33,1.2,3.8,12,37-2,49-5,4.3-11.2,4.2-11,6,.2,2.2,6.1,4.8,11.5,3.8,6.8-1.3,11-8.2,11.5-7.8s-4.2,6-3.2,7.2c.6.7,3.2-.6,4.2-1.2a51.11,51.11,0,0,0,20-20c6.9-14.3,4.1-28.1,3-33-2.2-10.1-6.9-17.2-10-22a61.45,61.45,0,0,0-13-15c-6.8-5.6-8.7-6.8-10-7-6.8-1.3-11.3,4.1-14,2-2.2-1.7,0-5.8-1-13a29.24,29.24,0,0,0-4-11h17c-1.3,5.9.2,9.5,1,11,3.5,6.7,12.7,8.8,19,10,3.4.7,5.1-.6,7.8.7,4.6,2.2,6.3,7.6,7.2,7.3s-1.4-5.1.4-7c1.7-1.7,5.8-.3,6.6,0,12,4.3,17.1,34.4,18,39,3.6,19.1,6.1,32.8-2,44-8.3,11.4-24.8,15.9-27,13-1.7-2.3,3.2-11.5,11-16,13.1-7.7,33.2.2,72.8,16.1,0,0,21.4,8.7,22.2,6.9.6-1.2-11-6-10.8-12.7.1-1.6.8-3.6,3.8-6.3,9-8.3,18.7-5.9,28.7-10.4,5.5-2.5,9.8-8.2,18.3-19.6a128.14,128.14,0,0,0,20-38c2.7-8.6,4.1-13.1,3-19-1.8-10.1-9.2-16.3-7-19,.8-1,3-.7,4.3-.2,2.5,1.1,3.3,4.3,3.7,4.2s-.9-2.9.2-4.3c.9-1.1,2.4-.4,4.8-.7,4.8-.7,6.4-4.9,8-4,1.8,1,1,6.1.6,8.6-.4,2.3-.8,3.4-1.6,6.4,1.1.3,2.6.8,3,2,.7,2-2.9,3.5-5,7-2.3,3.9-2.4,7.2,2,29,5.1,21.4-7,60.8-28,69-17.1,6.7-35-9.5-41-2-3.8,4.7.4,15,5,21,12,15.4,38,16.3,56,10,4.7-1.6,26.3-9.9,34-31s-3-43.8-5-48c-4.9-10.2-8.2-21.3-14-31a20.51,20.51,0,0,1-3-10c0-1.9-.2-6.7,2-8,5.5-3.3,23.7,18.1,27,22,8.2,9.8,15.3,18.3,21,32,3.2,7.7,10.4,25.6,7,48-1.8,11.5-3.4,22.7-13,30-10.1,7.7-26.5,9.4-38,1-7.3-5.4-13.9-15.8-11-20,5-7.2,31.7,13.5,68,12,19.9-.8,36.3-8.1,48-15"/><rect class="cls-3" x="255.7" y="716.8" width="668.2" height="53.2"/><text class="cls-4" transform="translate(281.58 750.94)">be<tspan class="cls-5" x="65.5" y="0">r</tspan><tspan class="cls-6" x="87.03" y="0">k</tspan><tspan class="cls-7" x="117.35" y="0">el</tspan><tspan class="cls-8" x="164.31" y="0">e</tspan><tspan x="194.99" y="0">y </tspan><tspan class="cls-9" x="239.06" y="0">f</tspan><tspan class="cls-7" x="257.92" y="0">ood </tspan><tspan class="cls-9" x="372.05" y="0">c</tspan><tspan class="cls-7" x="400.93" y="0">olle</tspan><tspan class="cls-10" x="495.92" y="0">c</tspan><tspan class="cls-7" x="525.5" y="0">ti</tspan><tspan class="cls-11" x="563.36" y="0">v</tspan><tspan x="591.37" y="0">e</tspan></text><text class="cls-12" transform="translate(281.58 750.94)">be<tspan class="cls-5" x="65.5" y="0">r</tspan><tspan class="cls-6" x="87.03" y="0">k</tspan><tspan class="cls-7" x="117.35" y="0">el</tspan><tspan class="cls-8" x="164.31" y="0">e</tspan><tspan x="194.99" y="0">y </tspan><tspan class="cls-9" x="239.06" y="0">f</tspan><tspan class="cls-7" x="257.92" y="0">ood </tspan><tspan class="cls-9" x="372.05" y="0">c</tspan><tspan class="cls-7" x="400.93" y="0">olle</tspan><tspan class="cls-10" x="495.92" y="0">c</tspan><tspan class="cls-7" x="525.5" y="0">ti</tspan><tspan class="cls-11" x="563.36" y="0">v</tspan><tspan x="591.37" y="0">e</tspan></text></svg>