<svg width="224" height="289" viewBox="0 0 224 289" fill="none" xmlns="http://www.w3.org/2000/svg">
<path d="M5.18102 246.011C13.7011 239.687 21.519 232.464 28.5001 224.467C41.5267 209.546 50.955 198.747 50.9047 184.129C50.8498 167.499 38.5593 154.577 33.5297 149.292C20.6493 135.752 11.9756 137.737 5.18102 125.915C-2.25821 112.966 -1.17456 94.3737 5.18102 91.5364C12.6751 88.1948 27.485 106.759 44.9606 128.665C61.6543 149.595 70.0354 160.326 71.4803 173.587C73.986 196.533 60.2094 215.198 57.7632 218.508C45.4178 235.262 34.7551 233.479 17.9836 254.72C12.7209 261.385 0.60866 276.722 5.18102 283.598C8.66517 288.851 21.3306 288.365 30.329 283.598C41.1061 277.886 39.8853 269.594 52.7336 250.594C64.2011 233.634 69.0295 234.551 77.8816 218.508C82.646 209.877 86.9943 202.006 87.9408 191.005C88.7501 181.581 85.1379 171.606 77.8816 152.043C70.9453 133.35 67.4795 124.008 62.3356 118.122C53.0491 107.502 49.6564 111.788 33.5297 96.5786C21.1386 84.8944 23.1916 82.41 12.954 75.0347C9.82655 72.7794 6.24638 70.57 5.18102 66.3254C3.63557 60.174 7.92444 51.891 12.0396 51.6573C18.1117 51.3181 20.3155 68.5348 32.158 79.1601C37.5488 83.996 43.9318 88.9465 43.9318 88.9465C45.8842 90.4592 47.7909 91.8847 48.3167 92.2789C52.6559 95.5105 55.9297 97.7795 56.8487 98.4121C63.1723 102.808 71.1831 108.373 75.1382 112.164C82.0333 118.769 78.1102 121.4 87.0263 143.333C92.7464 157.401 97.3827 163.759 100.286 178.629C100.819 181.213 101.222 183.823 101.493 186.449C101.951 191.078 103.171 204.564 97.5428 219.425C96.1208 223.174 91.6444 234.629 81.0823 244.636C74.1368 251.218 68.9929 252.973 66.4507 260.22C65.8654 261.884 63.2821 269.934 67.3652 275.805C70.8722 280.848 77.8816 282.223 84.7402 283.598C85.9335 283.836 87.3693 284.056 89.9024 284.345C101.032 285.537 114.717 285.34 114.918 283.598C115.137 281.673 98.3612 282.356 92.5132 272.138C91.6536 270.639 89.5411 266.303 91.5987 256.553C95.1469 239.749 104.726 237.022 111.26 223.55C120.748 203.986 114.671 180.604 110.345 163.961C107.867 154.422 106.189 152.703 103.487 140.583C98.9739 120.332 101.763 116.624 96.6283 110.33C93.5785 106.59 92.8835 108.254 70.1086 94.745C64.1142 91.188 62.0292 89.8083 59.5922 87.8693C54.3934 83.7439 52.6559 81.0853 44.9606 72.2844C32.9033 58.4917 33.0724 60.3069 30.329 55.7827C24.5907 46.3354 25.8344 41.6966 20.7271 38.8226C14.4263 35.2747 9.06296 40.3811 5.18102 36.9891C-0.122918 32.3549 2.34616 16.2611 9.75339 13.6117C14.4721 11.9248 19.9223 16.1465 25.0114 20.084C30.3519 24.2094 33.3011 28.3807 38.102 35.1556C40.9781 39.2168 41.3027 40.1977 49.9902 53.4908C51.6957 56.099 52.5461 57.4008 53.2777 58.5009C57.3928 64.6707 64.7086 75.5939 71.4803 81.9104C81.5395 91.2613 85.7324 86.0725 97.5428 94.745C112.106 105.434 117.167 121.721 118.118 124.998C122.124 138.786 116.861 141.041 120.862 160.752C122.623 169.242 125.227 177.534 128.635 185.504C135.557 201.034 140.838 203.225 140.523 211.632C140.226 219.562 135.228 225.429 128.635 233.176C116.893 246.973 107.337 249.1 108.059 254.72C108.759 260.147 118.342 263.351 126.806 266.179C135.608 269.122 141.223 269.388 146.924 270.305C171.03 274.229 173.101 286.321 194.02 288.64C207.453 290.13 220.754 286.71 220.997 283.598C221.202 280.985 212.108 279.711 190.819 271.222C172.008 263.723 172.653 262.146 163.842 260.22C147.473 256.645 137.812 260.468 135.493 255.637C134.268 253.083 137.249 247.94 143.266 237.76C150.468 225.571 151.954 225.571 152.868 221.258C153.815 216.761 153.047 212.691 146.01 196.047C138.433 178.12 138.196 180.187 136.408 174.503C131.9 160.193 136.298 156.37 133.664 136.458C132.883 130.554 131.378 119.722 125.891 107.121C120.446 94.6029 114.89 81.8325 103.487 78.2433C96.1116 75.9239 91.9782 79.2288 83.8257 75.0347C78.1605 72.1194 74.9187 67.8335 72.3948 64.4919C65.1156 54.8659 68.1928 51.5564 61.4211 42.0313C57.6398 36.7095 57.0636 38.2817 46.7895 26.4463C43.3008 22.4263 42.112 20.7991 39.0165 17.7371C35.6284 14.3863 31.6687 10.4718 26.6711 7.65271C23.3562 5.78252 16.1821 2.48218 5.18102 3.06891" stroke="#99CCFF" stroke-width="5" stroke-miterlimit="10"/>
</svg>
