<svg width="240" height="424" viewBox="0 0 240 424" fill="none" xmlns="http://www.w3.org/2000/svg">
<path d="M0.171936 28.4467C10.0307 36.0405 15.4749 43.7186 24.3377 56.1892C29.6469 63.6649 30.2461 65.4705 46.2835 89.9392C49.4319 94.7402 51.0018 97.1364 52.3523 99.1614C59.9489 110.518 73.4541 130.625 85.9548 142.252C104.524 159.464 112.264 149.913 134.067 165.877C160.95 185.553 170.294 215.531 172.05 221.564C179.444 246.944 169.729 251.095 177.114 287.377C180.366 303.004 185.173 318.268 191.464 332.939C204.243 361.525 213.992 365.559 213.409 381.033C212.861 395.63 203.635 406.43 191.464 420.689C190.479 421.843 189.503 422.952 188.537 424.019M218.474 429.127C219.57 427.277 220.594 425.581 221.551 424.019C232.213 406.637 234.65 406.037 236.199 398.752C237.946 390.475 236.528 382.982 223.538 352.345C209.552 319.346 209.113 323.152 205.813 312.689C197.49 286.347 205.61 279.31 200.748 242.658C199.305 231.79 196.528 211.853 186.399 188.658C176.346 165.615 166.091 142.108 145.04 135.502C131.425 131.232 123.794 137.316 108.745 129.595C98.2866 124.229 92.3022 116.34 87.6429 110.189C74.2053 92.4705 79.8859 86.3786 67.3853 68.8455C60.4048 59.0496 59.3413 61.9436 40.375 40.158C33.9347 32.7583 31.7402 29.763 26.0258 24.1267C19.7713 17.9589 12.4616 10.7533 3.23593 5.56424C2.36038 5.0717 1.33899 4.5253 0.171936 3.95364M0.171936 72.7118C2.27187 77.8375 4.21749 84.6843 9.98846 94.158C15.0529 102.486 14.7406 99.1445 36.9987 124.533C51.2044 140.733 54.4119 145.627 64.009 153.22C68.5079 156.79 72.3568 159.329 83.4226 165.877C125.466 190.742 126.749 187.679 132.379 194.564C141.858 206.149 136.709 212.975 145.04 250.252C150.028 272.56 153.126 275.725 157.701 293.283C165.686 323.92 176.903 366.959 159.389 402.97C155.089 411.81 150.075 418.136 145.106 424.019M0.171936 121.342C3.75091 126.916 8.02757 132.414 13.3647 137.189C23.3163 146.091 35.0995 155.203 35.0995 155.203C38.7037 157.988 42.2235 160.612 43.1942 161.337C51.2044 167.286 57.248 171.462 58.9445 172.627C70.618 180.718 85.4061 190.961 92.7073 197.939C105.436 210.098 98.1938 214.941 114.653 255.314C125.212 281.209 133.771 292.912 139.131 320.283C140.116 325.041 140.859 329.845 141.36 334.677C142.204 343.199 144.457 368.022 134.067 395.377C132.273 400.093 127.846 411.433 119 424.019M0.171936 152.539C3.68862 156.884 8.33622 162.143 15.897 169.252C45.6673 197.247 51.9303 189.358 69.0734 208.908C78.5692 219.742 84.9672 236.937 97.7718 271.345C111.167 307.357 117.835 325.717 116.341 343.064C114.594 363.314 106.567 377.801 97.7718 393.689C89.1022 409.356 82.5234 416.237 75.0959 423.906M0.171936 183.932C11.2069 196.077 23.6836 211.671 36.9987 228.314C67.8157 266.84 83.2875 286.592 85.9548 311.002C90.5803 353.24 65.1485 387.597 60.6327 393.689C49.2445 409.1 38.6319 415.99 27.0003 423.906M0.171936 252.609C5.01186 256.032 10.2342 260.347 15.897 266.283C25.1817 276.011 47.8703 299.797 47.9716 330.408C48.0645 357.315 30.6597 377.194 6.61218 404.658C4.50632 407.064 2.35921 409.431 0.171936 411.759" stroke="#99CCFF" stroke-width="5" stroke-miterlimit="10" stroke-linecap="square"/>
</svg>
