<svg width="72" height="294" viewBox="0 0 72 294" fill="none" xmlns="http://www.w3.org/2000/svg">
<path d="M60.6147 3.00001C59.1184 3.00001 58.6955 20.8713 51.8734 39.7874C51.5051 40.8093 49.322 46.771 46.5159 54.3228C37.9247 77.4226 37.2743 77.8167 36.0554 82.7336C32.317 97.8097 34.4955 100.147 30.5978 110.686C25.7269 123.856 21.3699 122.752 13.7701 139.097C8.42621 150.594 6.55243 159.805 5.1289 167.05C3.05955 177.589 2.03624 183.143 4.21929 189.962C6.4933 197.078 10.9822 201.532 15.5893 206C26.2681 216.356 30.7979 214.193 36.965 220.664C47.0071 231.203 40.8763 243.117 47.4255 266.029C50.8865 278.154 57.3311 294.623 60.6147 293.982C64.2804 293.262 62.5476 271.528 60.6147 247.241C58.9547 226.414 57.4038 222.455 54.7023 218.831C47.5892 209.299 39.6938 211.765 27.869 200.043C22.9617 195.185 16.076 188.371 14.6797 178.506C14.2932 175.788 13.8702 169.62 27.869 143.679C37.6882 125.483 37.9201 128.484 40.6034 121.226C46.1975 106.104 43.0639 98.882 50.1543 83.6501C51.3231 81.1435 57.1719 68.574 60.6147 69.4447C64.4851 70.4207 65.4947 88.4478 60.6147 104.271C59.8006 106.906 55.6756 115.805 47.4255 133.598C46.193 136.256 44.4965 139.894 42.1543 144.596C38.5159 151.928 36.6967 155.594 34.2362 159.718C28.11 170.037 25.9361 170.468 25.595 174.84C24.9992 182.442 30.9889 188.532 31.5074 189.045C37.2015 194.677 41.8905 192.092 51.0639 198.21C57.9314 202.792 58.227 206.192 60.6147 206C70.9296 205.18 77.8608 140.756 68.8012 138.181C65.381 137.209 63.6301 146.177 46.5159 162.467C41.8814 166.875 38.8343 169.245 38.7842 173.007C38.6842 180.416 50.2589 189.43 56.5215 188.129C81.622 182.918 65.3901 2.96335 60.6147 3.00001Z" stroke="#99CC99" stroke-width="5" stroke-miterlimit="10"/>
</svg>
