<svg width="542" height="133" viewBox="0 0 542 133" fill="none" xmlns="http://www.w3.org/2000/svg">
<path d="M3.00001 109.887C3.00001 107.111 35.9188 106.326 70.762 93.6702C72.6443 92.9868 83.6256 88.9368 97.5359 83.7308C140.085 67.7924 140.811 66.5858 149.868 64.3246C177.638 57.3889 181.943 61.4305 201.357 54.1996C225.615 45.163 223.581 37.0799 253.689 22.9808C274.867 13.0667 291.832 9.59048 305.177 6.94954C324.591 3.11047 334.821 1.21203 347.381 5.26204C360.489 9.48079 368.693 17.8086 376.923 26.3558C395.999 46.1671 392.015 54.5708 403.933 66.0121C423.347 84.6421 445.293 73.2683 487.496 85.4183C509.83 91.8393 540.166 103.795 538.985 109.887C537.659 116.688 497.625 113.473 452.889 109.887C414.526 106.807 407.234 103.93 400.557 98.9183C383 85.7221 387.542 71.0746 365.95 49.1371C357.003 40.033 344.452 27.2586 326.279 24.6683C321.274 23.9511 309.912 23.1664 262.13 49.1371C228.612 67.3536 234.14 67.7839 220.77 72.7621C192.916 83.1402 179.613 77.3268 151.556 90.4808C146.939 92.6493 123.786 103.5 125.39 109.887C127.188 117.067 160.394 118.941 189.54 109.887C194.393 108.377 210.785 100.724 243.56 85.4183C248.456 83.1318 255.158 79.9846 263.818 75.6392C277.323 68.8892 284.075 65.5143 291.672 60.9496C310.681 49.5842 311.474 45.5511 319.526 44.9183C333.529 43.813 344.747 54.9252 345.693 55.8871C356.066 66.4508 351.306 75.1499 362.574 92.1683C371.015 104.909 377.278 105.457 376.923 109.887C375.412 129.023 256.744 141.882 252.001 125.075C250.211 118.73 266.73 115.481 296.736 83.7308C304.856 75.133 309.22 69.4799 316.15 69.3871C329.799 69.2014 346.402 90.6749 344.004 102.293C334.407 148.86 2.93248 118.746 3.00001 109.887Z" stroke="#99CC99" stroke-width="5" stroke-miterlimit="10"/>
</svg>
