<?xml version="1.0" encoding="utf-8"?>
<!-- Generator: Adobe Illustrator 24.1.2, SVG Export Plug-In . SVG Version: 6.00 Build 0)  -->
<svg version="1.1" id="Layer_1" xmlns="http://www.w3.org/2000/svg" xmlns:xlink="http://www.w3.org/1999/xlink" x="0px" y="0px"
	 viewBox="0 0 1161.8 792" style="enable-background:new 0 0 1161.8 792;" xml:space="preserve">
<style type="text/css">
	.st0{fill:none;stroke:#010101;stroke-width:2.5;stroke-miterlimit:10;}
	.st1{opacity:0.35;fill:none;stroke:#4AA0D8;stroke-width:5;stroke-miterlimit:10;enable-background:new    ;}
</style>
<path class="st0" d="M0,636.8c42.2-8.5,106.5-16.5,182-4c83.6,13.8,100.9,39.7,161,37c69.4-3.1,148.5-41.5,195.3-113.3
	c15.3-23.4,71.2-117.9,26-218c-43.2-95.7-142.5-118-152-120c-24-5-89.3-14.1-153,26c0,0-65.7,41.2-90,128c-9.4,33.5-0.9,65,0,65
	c0.7,0,4.7-17.2,2-38c-1.1-8.8-4.3-19.2-1-21c2.5-1.3,6.1,3.5,11,2c3.6-1.1,3.5-4.2,7-5s7.9,1.5,10,5c2.1,3.4,2.4,8.4,0,11
	s-5.5,0.4-9.1,2.6c-6.7,4-7.5,18-3.2,20.9c1.4,0.9,2.5,0.2,4.3,1.6c2.2,1.6,3.1,4.6,3,7c-0.1,1.9-0.9,5.3-3,6s-3.8-2-5.2-1.3
	c-1.3,0.7-0.8,3.5-0.8,8.3c0.1,8.5-1.5,9.8,0,12c2,2.9,5.3,1.3,11,4c6.7,3.2,11,9.6,10,11c-1.1,1.7-8.5-4.2-14-1
	c-3.2,1.9-2.8,5.4-6,6c-3.8,0.8-8.1-1.9-8.1-3.7c0-0.2,0-0.3,0.1-0.3c0.7-2.2-2.4-5.6-4-9c-0.8-1.8-0.2-1.2-2-8c-1.1-4-1.6-6-2-6
	c-1.2,0-1.8,11-1,21c0,0,1.1,12.7,5,14c0.5,0.2,1,0.2,1,0.2c1.8,0,3.3-1.9,11-3.2c2.5-0.4,5.2-0.8,6.5-2.8c0.9-1.5,0.5-2.3,1.5-3.2
	c1.5-1.3,4.2-1,6,0c2.7,1.5,3.4,4.7,4,8c0.4,2.2,1.8,9.4-1,11c-2.5,1.4-6.3-2.5-8-1c-1.1,0.9-0.4,3.4,0,5c0.7,2.5,2.6,7.4,9,13
	c4.1,3.5,5.3,3.3,7,6c2.4,3.8,2,7.8,2,10c-0.2,14.9,13.4,25.6,11,28c-1.7,1.7-10.2-2.2-16-8c-4.9-4.9-11.3-14.6-16.4-16.2
	c-0.2-0.1-0.8-0.4-1.6-0.8c-2.5-1.2-4.3-5.2-3.2-7.6c0.5-1.1,1.4-1.5,1.2-2.4c-0.1-0.8-1-0.9-1.6-1.5c-1.5-1.5-0.4-4.6,0.6-9.5
	c0.2-0.9,0.7-3.3,1-6c0.8-6,1.3-8,0.2-8.9c-1-0.9-2.3-0.1-3.2-1.1c-1.2-1.4,0.8-4,0-5c-1-1.2-6.5,0.3-9,3c-8.5,9.1,8.7,39.8,20,56
	c6.7,9.6,13.2,16.8,20,24c25.1,26.4,38,39.4,57,49c42.5,21.5,90.6,15.5,99,17c0.3,0,1.5,0.3,3,0c1.8-0.3,4-1.4,4-2
	c-0.1-1.6-14.5-1.9-32-3c-23.3-1.5-34.1-3.4-44-6c-2.3-0.6-19.4-5.2-19-8c0.2-1.3,4.3-1.9,7-2c11-0.2,15.1,8.2,22,6
	c2.5-0.8,4-2.6,7.8-2.7c1.3,0,3.2-0.1,5.1,0.9c2.6,1.3,2.9,3.3,5.1,3.8c1.7,0.4,3.2-0.5,4-0.9c5.5-2.6,11.8,2.9,25,4.9
	c7.8,1.1,10.5-0.1,12-1c3-1.9,2.3-3.6,5-6c6.2-5.4,13.8,0.2,20-5c4-3.3,4.3-8.3,6.5-8.1c1.6,0.1,1.5,3,3.5,5.1c5.5,6,21.4,0.3,25-1
	c8.4-3,9.2-5.3,17-7c5.8-1.3,13.5-1.7,14,0c0.6,2-8.5,6.6-14,9c-19.7,8.5-29.6,4.1-49,12c-1.2,0.5-16.6,6.8-16,9
	c1.6,5.6,103.3-20.4,117-48c1.2-2.4,4-9.5,2-11c-2.4-1.8-8.8,6-16,4c-3.6-1-4.9-3.7-7-3c-2.4,0.9-2,5-3.9,8.7
	c-3,6.1-10.5,8.1-15.1,9.3c-20,5.3-32.6-9.7-52-4c-19.1,5.6-20.3,19-37,19c-11.5,0-12.9-6.4-30-7c-10.7-0.4-14.6,1.9-23-1
	c-8.3-2.9-8.8-6.6-16-8c-9.8-2-13.3,4-21,3c-16-2.1-28.9-31.6-22-40c2.8-3.4,7.2-1.2,16-6c5-2.7,8.4-6,12-10c16.2-18,14.1-26,26-35
	c9.9-7.5,20.5-8.5,20-11c-0.6-3.1-16.5-1.7-17-5c-0.2-1.4,2.5-3.3,5-4c7.5-2.1,15.7,5.5,16,5c0.3-0.4-8.4-5.7-12-12
	c-0.8-1.4-1.4-2.8-3-5c-1.1-1.5-2.1-2.4-3-4.4c-0.6-1.4-0.5-1.7-0.9-1.9c-1.7-1-4.9,4.4-11.1,7.3c-5.7,2.6-7.6,0.2-10.2,2.7
	c-3.2,3.2-4,10.8-1.8,16.3c0.7,1.8,1.8,3.5,1,5c-0.9,1.7-3.4,2.1-5,2c-2.1-0.1-4.8-1.3-5-3c-0.2-1.4,1.4-2,3-4
	c3.4-4.4,3.7-11.5,1.2-13.3c-1.3-0.9-2.4,0.2-4.2-0.7c-2.4-1.3-4-5.4-3-8c2.3-5.6,15.6,0.8,29-7c6.6-3.8,10.2-9.4,13-8
	c2.7,1.4,1.1,8,5,10c2.2,1.1,4.5-0.1,5,1c0.8,1.6-4.7,4.7-3.9,7.6c0.3,1.2,1.4,1.4,2.9,2.4c5.8,3.8,6.4,11.3,8,11
	c0.7-0.1,0.5-1.7,2-4c1.1-1.6,2.4-2.5,3-3c3.7-2.8,7-7.7,13-14c8.6-9,9.6-6.9,12-11c5.3-8.9,4.5-23.4-3-31c-5.7-5.8-10.2-2.2-25-9
	c-8.1-3.7-8.1-5.6-19-11c-8.2-4.1-18.2-9-21-6c-2,2.1-0.3,7.8,1.5,11c2.1,3.8,4.4,4.1,4.5,7c0.2,2.9-2.1,3.8-2,8c0,2.2,0.7,3.3,0,4
	s-2,0-6-1c-2.4-0.6-3.6-0.9-5-1c-4.2-0.4-5.1,0.9-7,0c-2-1-3.4-3.7-3-6c0.4-2.4,2.5-2.7,4-6c0.9-2,0.5-2.9,1-5c1.3-6,5.8-6.9,6-10
	c0.4-5.4-13.2-10.3-22-13c-3.5-1.1-15.6-4.7-23.7,1c-0.9,0.6-0.3,0.4-7.3,7c-6.6,6.3-7.2,6.5-8,8c-2.7,4.8-1.4,10.1,0,16
	c1.2,5,3.4,14.2,11,19c3.6,2.3,5.1,1.5,8,4c5,4.3,5.7,11.1,6,14c3,25.5,13,29,10,45c-2.8,14.8-11.9,14.4-17.8,36.4
	c-2.6,9.6-2.4,15.4-4.2,15.6c-2.9,0.2-9.1-13.7-5-25c1.8-5,3.9-4.7,6-11c1.9-5.6,1.9-10.9,1.9-17.1c0-7.4-0.8-8.3,0.1-11.9
	c1.5-6.3,5.6-10.2,6.8-11.4c15.2-15.8,29.4-83.3,15.2-102.6c-0.9-1.2-3.8-4.8-4-10c-0.2-6.5,8.6-11,7-14c-0.1-0.2-0.7-0.8-2-2
	c-2.4-2.3-3.1-2.6-3-3c0.2-0.7,3.1-0.1,9,0c0.1,0,1.4,0,4,0c5.4,0,8.6,0,12-1c1.1-0.3,2.5-0.8,3-2c0.2-0.5,0.4-1.4,0-2
	c-1.5-2-10,3.4-11.8,1.2c-1.1-1.3,1-4.3-0.2-5.2c-0.6-0.5-1.7-0.1-2,0c-2.4,0.9-2.1,3.8-4,5c-2,1.2-5.2-0.5-7-1.5
	c-5.8-3.1-5.4-6.7-9-7.5c-3.2-0.7-3.8,2.3-11,4c-3.5,0.8-7.4,1.8-11,0c-0.4-0.2-0.3-0.2-5-3c-3.3-2-3.7-2.2-4-2
	c-1.4,0.9,0.4,9.3,5,11c1.8,0.7,3.9,0.3,4,1c0.1,0.6-1.3,0.9-2,2c-1.6,2.5,1.7,6.4,1,7c-1,0.9-11.3-4.8-13-14c-0.8-4.5,1.1-5.8,0-10
	c-1.7-6.5-8.7-12.4-12-11c-5.5,2.2-1.8,23.4,3,28c2.2,2.1,4.2,3.1,8,7c3.9,4,4.2,6.5,7,7c2.9,0.5,3.6-1.8,6.6-1.9
	c5.4-0.3,7.5,7.7,17.4,15.9c4.1,3.4,9.9,7.1,11,6c0.9-0.9-2.3-5-5.2-10.1c-9.9-17-5.1-26.1-14.9-38.7c-4.5-5.8-9.1-8.4-10.8-9.3
	c-3.3-1.7-3.7-1.2-8.1-2.9c-3.6-1.5-15.8-6.4-16-13c-0.1-2.2,1.2-3.2,1-7c-0.1-2.6-0.9-4.5-1-5c-2.8-8.8,17-23,17-23
	c33.3-24,50.9-36.7,60-30c3.6,2.6,5.4,8,4.4,12.1c-2.7,11.9-27.8,13.1-27.4,18.9c0.2,3,7.1,6.2,13,6c7.7-0.2,10.2-5.9,16.9-4.7
	c0.6,0.1,6,1.1,8.1,5.7c1.4,3.1,1.1,7.3-1,10c-4,5.1-11.2,1-16,6c-4.1,4.2-0.7,8.9-5,13c-3.7,3.5-7,2-13,5c-8.3,4.2-13.7,13.6-12,16
	c2,2.6,13.6-2.6,21-6c3.6-1.6,6.3-3.1,15-8c19.5-11.1,25.2-15.4,35.4-16.8c3.3-0.4,7.2-0.8,7.2-0.8c1.7-0.3,4.7-0.6,8.4-0.5
	c18.7,0.6,31.6,12.8,39,8c0.4-0.2,1.5-1,4.9-3.4c4.9-3.3,6.1-4.1,7.1-3.6c1.9,0.8,0.8,4.4,3,5.9c1.8,1.2,4-0.4,7-0.9
	c5-0.9,6.6,2.2,14.4,4.8c6.1,2,12.1,3.9,18.6,2.2c2.3-0.6,5.7-1.9,10-1c0.6,0.1,3.9,0.8,4,2c0.1,1.9-8.9,1-15,6
	c-7.8,6.3-2.4,15.1-10.9,29c-4.1,6.7-8.2,9.1-7.1,11c1.5,2.8,11.9,2.1,19.2-2.8c4.1-2.7,4.6-4.9,8.7-6.1c5.6-1.7,10,0.7,11.1-1.1
	c1.1-1.9-3.7-4.6-3-8.9c0.4-1.9,1.9-3.7,5-7.1c1.4-1.6,2.1-2.4,2.5-2.6c5.5-2.6,15.4,11.5,18.5,9.6c1.8-1.1,1.1-7.6-2-12
	c-2.4-3.4-5.1-4.1-5-6c0.1-3.3,8.1-5.5,10-6c9.1-2.4,16.9-1.6,35,2c21.7,4.3,25.6,6.1,29,10c3.7,4.3,7.7,12.1,5.1,15.5
	c-5.3,6.8-34.4-8.6-43.1,0.5c-0.8,0.8-2.6,3.1-5,3c-3.1-0.2-3.7-4.3-7-6c-5.9-3.1-16.5,3.3-16,6c0.6,3.2,17.1,0.8,19,6.7
	c0.8,2.3-1.5,3.7-1,6.3c1,5.2,11.6,9,21,9c21,0,34.5-18.9,39-15c2.7,2.3,0.3,11.1,0,12c-0.8,3-2,5-2.3,5.6c-5.1,9.7,19,27,18.3,46.4
	c-0.3,8.3-4.9,8.6-25,38c0,0-3,4.4-4.4,3.8c-1.4-0.6,1-5.9-1.6-8.8c-1.9-2.1-4.1-0.4-7.7-2.1c-6-2.9-6-10.9-9.3-10.9
	c-1.8,0-3.4,2.2-4,4c-1.2,3.7,2.1,6,1,9c-1.2,3.6-7.1,3.8-7,5c0.1,2.6,25.2,2.1,26,7c0.5,2.7-6.8,4.5-7,10c-0.1,2.8,1.7,3.7,2,8
	c0.2,2.7-0.3,4.8-1,7c-6.5,21.2-13,30-13,30c-8.8,12-15.4,12.7-16.4,21.1c-0.3,2.6-0.1,6.3-2.6,7.9c-2.1,1.4-5.7,0.8-8-1
	c-3.6-2.7-2.7-7.2-4-22c-0.8-9.5-0.7-14.5-4.6-18.5c-3.1-3.2-5.3-2.3-7.4-5.5c-3-4.5,0-8.2-1-16c-1.1-8.9-5.4-8.2-6-16
	c-0.2-2.6,1.2-8.1,4-19c1.5-5.8,2.7-8.9,1-11c-2.2-2.7-6.6-0.7-8-3c-1.1-1.9,1.3-4,5-12c3-6.4,2.7-7.7,5-10c3.4-3.3,7.1-3.6,7-5
	c-0.1-1.5-4-1-8.1-4.1c-3.8-2.8-3.5-5.5-5.9-5.9c-3.6-0.6-9,4.8-9,10c0,3.7,2.7,4.2,4,9c1.6,6.1-0.6,13.3-3.6,14
	c-2.3,0.5-3.2-3.1-7.4-4c-3.9-0.8-5.4,1.9-11,3c-1.1,0.2-8.2,1.5-15-1c-4.8-1.7-7.1-4.4-11-8c-14.6-13.4-20.9-10.9-25-19
	c-3.6-7.2,0.4-11.2,0-23c-0.6-19-12.6-20.7-12-33c1-21.2,35.2-43.4,51-40c1.7,0.4,8.2,2.1,11-1c2.1-2.3,0.5-5.5,3-8
	c2.4-2.5,7.3-2.9,9-1c1.8,2.1-1.4,5.6,0.6,9.6c1.5,3.1,4.2,2.7,4.4,4.4c0.5,4-13.9,13-29,14c-3.6,0.2-7.7,0.1-11,3
	c-3.4,3.1-2.8,6.8-6,8c-3.8,1.4-8.4-2.5-9-3c-2.7-2.3-3.7-4.8-4.4-6.2c-4.9-9.2-19.3-4.8-27.1-12.8c-8.3-8.4,0.3-21.1-7.5-27
	c-8.1-6.2-25.1,1.7-26-1c-0.4-1.1,2.5-2.3,2.7-5.3c0.2-2.8-2.2-3.9-1.7-5.7c0.6-2.3,4.6-1.8,8.2-4.1c4.2-2.7,7.1-8.9,5.8-13.9
	c-1.8-6.9-11.4-10.6-18-9c-5.7,1.4-5.6,5.9-13,11c-4.2,2.9-7.4,1.6-22,7c-14.3,5.3-21.9,6.9-24,5c-5.9-5.2,2.8-32.2,15-34
	c6.8-1,8.7,6.7,18,6c8.3-0.6,13.4-7.1,21-5c1,0.3,3,0.9,4,0c1.9-1.7-1.4-6.8,0-8s5.5,3.2,10,5c9.8,4,16.9-8,31-8
	c18.4,0,33.4,8.2,33,10c-0.3,1.2-7.4-1.5-16,2c-8.7,3.6-14.3,11.8-13,14c0.7,1.1,2.8,0.2,5,2c1.7,1.4,1.2,2.7,3,4
	c0.3,0.2,2.5,1.7,4,1c2.2-1,0.4-5.3,3-8c1.7-1.8,4.4-1.9,7-2c4.3-0.2,5.1,1.3,9,1c2.4-0.2,6.6-1.1,7-3c0.3-1.6-2.3-2.9-6-6
	c-4.1-3.5-9.9-9.5-9-11c0.7-1.1,4.7,1,15,4c10.5,3.1,13,2.8,14,5c2,4.6-5.3,13-12,18c-10.4,7.7-19.4,6.2-22,13
	c-1.5,3.8-0.4,8.9,2,10c4.4,1.9,10.5-10.7,19.6-9.5c2.8,0.4,3.4,1.7,8.4,2.5c2.2,0.3,8.7,1.4,10-1c1.4-2.5-4.9-5.9-4.5-10.4
	c0.7-8.3,23.6-15,26.5-10.6c2.5,3.8-11.3,13.9-8,21c1.8,3.8,7.3,4.5,10,5c19.1,3.5,31.6,20,38,25c40.9,32.1,249-15,249-15
	c109.9-24.9,140.3-37.1,141-53c0.4-9.6-9.9-22.9-17-22c-7.7,1-14.9,19.2-11,25c13.6,19.9,144.1-41,241-106
	c19.5-13.1,35.2-24.7,45.7-32.7"/>
<path class="st1" d="M2.8,669.4c42.2-8.5,106.5-16.5,182-4c83.6,13.8,100.9,39.7,161,37c69.4-3.1,148.5-41.5,195.3-113.3
	c15.3-23.4,71.2-117.9,26-218c-43.2-95.7-142.5-118-152-120c-24-5-89.3-14.1-153,26c0,0-65.7,41.2-90,128c-9.4,33.5-0.9,65,0,65
	c0.7,0,4.7-17.2,2-38c-1.1-8.8-4.3-19.2-1-21c2.5-1.3,6.1,3.5,11,2c3.6-1.1,3.5-4.2,7-5s7.9,1.5,10,5c2.1,3.4,2.4,8.4,0,11
	s-5.5,0.4-9.1,2.6c-6.7,4-7.5,18-3.2,20.9c1.4,0.9,2.5,0.2,4.3,1.6c2.2,1.6,3.1,4.6,3,7c-0.1,1.9-0.9,5.3-3,6s-3.8-2-5.2-1.3
	c-1.3,0.7-0.8,3.5-0.8,8.3c0.1,8.5-1.5,9.8,0,12c2,2.9,5.3,1.3,11,4c6.7,3.2,11,9.6,10,11c-1.1,1.7-8.5-4.2-14-1
	c-3.2,1.9-2.8,5.4-6,6c-3.8,0.8-8.1-1.9-8.1-3.7c0-0.2,0-0.3,0.1-0.3c0.7-2.2-2.4-5.6-4-9c-0.8-1.8-0.2-1.2-2-8c-1.1-4-1.6-6-2-6
	c-1.2,0-1.8,11-1,21c0,0,1.1,12.7,5,14c0.5,0.2,1,0.2,1,0.2c1.8,0,3.3-1.9,11-3.2c2.5-0.4,5.2-0.8,6.5-2.8c0.9-1.5,0.5-2.3,1.5-3.2
	c1.5-1.3,4.2-1,6,0c2.7,1.5,3.4,4.7,4,8c0.4,2.2,1.8,9.4-1,11c-2.5,1.4-6.3-2.5-8-1c-1.1,0.9-0.4,3.4,0,5c0.7,2.5,2.6,7.4,9,13
	c4.1,3.5,5.3,3.3,7,6c2.4,3.8,2,7.8,2,10c-0.2,14.9,13.4,25.6,11,28c-1.7,1.7-10.2-2.2-16-8c-4.9-4.9-11.3-14.6-16.4-16.2
	c-0.2-0.1-0.8-0.4-1.6-0.8c-2.5-1.2-4.3-5.2-3.2-7.6c0.5-1.1,1.4-1.5,1.2-2.4c-0.1-0.8-1-0.9-1.6-1.5c-1.5-1.5-0.4-4.6,0.6-9.5
	c0.2-0.9,0.7-3.3,1-6c0.8-6,1.3-8,0.2-8.9c-1-0.9-2.3-0.1-3.2-1.1c-1.2-1.4,0.8-4,0-5c-1-1.2-6.5,0.3-9,3c-8.5,9.1,8.7,39.8,20,56
	c6.7,9.6,13.2,16.8,20,24c25.1,26.4,38,39.4,57,49c42.5,21.5,90.6,15.5,99,17c0.3,0,1.5,0.3,3,0c1.8-0.3,4-1.4,4-2
	c-0.1-1.6-14.5-1.9-32-3c-23.3-1.5-34.1-3.4-44-6c-2.3-0.6-19.4-5.2-19-8c0.2-1.3,4.3-1.9,7-2c11-0.2,15.1,8.2,22,6
	c2.5-0.8,4-2.6,7.8-2.7c1.3,0,3.2-0.1,5.1,0.9c2.6,1.3,2.9,3.3,5.1,3.8c1.7,0.4,3.2-0.5,4-0.9c5.5-2.6,11.8,2.9,25,4.9
	c7.8,1.1,10.5-0.1,12-1c3-1.9,2.3-3.6,5-6c6.2-5.4,13.8,0.2,20-5c4-3.3,4.3-8.3,6.5-8.1c1.6,0.1,1.5,3,3.5,5.1c5.5,6,21.4,0.3,25-1
	c8.4-3,9.2-5.3,17-7c5.8-1.3,13.5-1.7,14,0c0.6,2-8.5,6.6-14,9c-19.7,8.5-29.6,4.1-49,12c-1.2,0.5-16.6,6.8-16,9
	c1.6,5.6,103.3-20.4,117-48c1.2-2.4,4-9.5,2-11c-2.4-1.8-8.8,6-16,4c-3.6-1-4.9-3.7-7-3c-2.4,0.9-2,5-3.9,8.7
	c-3,6.1-10.5,8.1-15.1,9.3c-20,5.3-32.6-9.7-52-4c-19.1,5.6-20.3,19-37,19c-11.5,0-12.9-6.4-30-7c-10.7-0.4-14.6,1.9-23-1
	c-8.3-2.9-8.8-6.6-16-8c-9.8-2-13.3,4-21,3c-16-2.1-28.9-31.6-22-40c2.8-3.4,7.2-1.2,16-6c5-2.7,8.4-6,12-10c16.2-18,14.1-26,26-35
	c9.9-7.5,20.5-8.5,20-11c-0.6-3.1-16.5-1.7-17-5c-0.2-1.4,2.5-3.3,5-4c7.5-2.1,15.7,5.5,16,5c0.3-0.4-8.4-5.7-12-12
	c-0.8-1.4-1.4-2.8-3-5c-1.1-1.5-2.1-2.4-3-4.4c-0.6-1.4-0.5-1.7-0.9-1.9c-1.7-1-4.9,4.4-11.1,7.3c-5.7,2.6-7.6,0.2-10.2,2.7
	c-3.2,3.2-4,10.8-1.8,16.3c0.7,1.8,1.8,3.5,1,5c-0.9,1.7-3.4,2.1-5,2c-2.1-0.1-4.8-1.3-5-3c-0.2-1.4,1.4-2,3-4
	c3.4-4.4,3.7-11.5,1.2-13.3c-1.3-0.9-2.4,0.2-4.2-0.7c-2.4-1.3-4-5.4-3-8c2.3-5.6,15.6,0.8,29-7c6.6-3.8,10.2-9.4,13-8
	c2.7,1.4,1.1,8,5,10c2.2,1.1,4.5-0.1,5,1c0.8,1.6-4.7,4.7-3.9,7.6c0.3,1.2,1.4,1.4,2.9,2.4c5.8,3.8,6.4,11.3,8,11
	c0.7-0.1,0.5-1.7,2-4c1.1-1.6,2.4-2.5,3-3c3.7-2.8,7-7.7,13-14c8.6-9,9.6-6.9,12-11c5.3-8.9,4.5-23.4-3-31c-5.7-5.8-10.2-2.2-25-9
	c-8.1-3.7-8.1-5.6-19-11c-8.2-4.1-18.2-9-21-6c-2,2.1-0.3,7.8,1.5,11c2.1,3.8,4.4,4.1,4.5,7c0.2,2.9-2.1,3.8-2,8c0,2.2,0.7,3.3,0,4
	s-2,0-6-1c-2.4-0.6-3.6-0.9-5-1c-4.2-0.4-5.1,0.9-7,0c-2-1-3.4-3.7-3-6c0.4-2.4,2.5-2.7,4-6c0.9-2,0.5-2.9,1-5c1.3-6,5.8-6.9,6-10
	c0.4-5.4-13.2-10.3-22-13c-3.5-1.1-15.6-4.7-23.7,1c-0.9,0.6-0.3,0.4-7.3,7c-6.6,6.3-7.2,6.5-8,8c-2.7,4.8-1.4,10.1,0,16
	c1.2,5,3.4,14.2,11,19c3.6,2.3,5.1,1.5,8,4c5,4.3,5.7,11.1,6,14c3,25.5,13,29,10,45c-2.8,14.8-11.9,14.4-17.8,36.4
	c-2.6,9.6-2.4,15.4-4.2,15.6c-2.9,0.2-9.1-13.7-5-25c1.8-5,3.9-4.7,6-11c1.9-5.6,1.9-10.9,1.9-17.1c0-7.4-0.8-8.3,0.1-11.9
	c1.5-6.3,5.6-10.2,6.8-11.4c15.2-15.8,29.4-83.3,15.2-102.6c-0.9-1.2-3.8-4.8-4-10c-0.2-6.5,8.6-11,7-14c-0.1-0.2-0.7-0.8-2-2
	c-2.4-2.3-3.1-2.6-3-3c0.2-0.7,3.1-0.1,9,0c0.1,0,1.4,0,4,0c5.4,0,8.6,0,12-1c1.1-0.3,2.5-0.8,3-2c0.2-0.5,0.4-1.4,0-2
	c-1.5-2-10,3.4-11.8,1.2c-1.1-1.3,1-4.3-0.2-5.2c-0.6-0.5-1.7-0.1-2,0c-2.4,0.9-2.1,3.8-4,5c-2,1.2-5.2-0.5-7-1.5
	c-5.8-3.1-5.4-6.7-9-7.5c-3.2-0.7-3.8,2.3-11,4c-3.5,0.8-7.4,1.8-11,0c-0.4-0.2-0.3-0.2-5-3c-3.3-2-3.7-2.2-4-2
	c-1.4,0.9,0.4,9.3,5,11c1.8,0.7,3.9,0.3,4,1c0.1,0.6-1.3,0.9-2,2c-1.6,2.5,1.7,6.4,1,7c-1,0.9-11.3-4.8-13-14c-0.8-4.5,1.1-5.8,0-10
	c-1.7-6.5-8.7-12.4-12-11c-5.5,2.2-1.8,23.4,3,28c2.2,2.1,4.2,3.1,8,7c3.9,4,4.2,6.5,7,7c2.9,0.5,3.6-1.8,6.6-1.9
	c5.4-0.3,7.5,7.7,17.4,15.9c4.1,3.4,9.9,7.1,11,6c0.9-0.9-2.3-5-5.2-10.1c-9.9-17-5.1-26.1-14.9-38.7c-4.5-5.8-9.1-8.4-10.8-9.3
	c-3.3-1.7-3.7-1.2-8.1-2.9c-3.6-1.5-15.8-6.4-16-13c-0.1-2.2,1.2-3.2,1-7c-0.1-2.6-0.9-4.5-1-5c-2.8-8.8,17-23,17-23
	c33.3-24,50.9-36.7,60-30c3.6,2.6,5.4,8,4.4,12.1c-2.7,11.9-27.8,13.1-27.4,18.9c0.2,3,7.1,6.2,13,6c7.7-0.2,10.2-5.9,16.9-4.7
	c0.6,0.1,6,1.1,8.1,5.7c1.4,3.1,1.1,7.3-1,10c-4,5.1-11.2,1-16,6c-4.1,4.2-0.7,8.9-5,13c-3.7,3.5-7,2-13,5c-8.3,4.2-13.7,13.6-12,16
	c2,2.6,13.6-2.6,21-6c3.6-1.6,6.3-3.1,15-8c19.5-11.1,25.2-15.4,35.4-16.8c3.3-0.4,7.2-0.8,7.2-0.8c1.7-0.3,4.7-0.6,8.4-0.5
	c18.7,0.6,31.6,12.8,39,8c0.4-0.2,1.5-1,4.9-3.4c4.9-3.3,6.1-4.1,7.1-3.6c1.9,0.8,0.8,4.4,3,5.9c1.8,1.2,4-0.4,7-0.9
	c5-0.9,6.6,2.2,14.4,4.8c6.1,2,12.1,3.9,18.6,2.2c2.3-0.6,5.7-1.9,10-1c0.6,0.1,3.9,0.8,4,2c0.1,1.9-8.9,1-15,6
	c-7.8,6.3-2.4,15.1-10.9,29c-4.1,6.7-8.2,9.1-7.1,11c1.5,2.8,11.9,2.1,19.2-2.8c4.1-2.7,4.6-4.9,8.7-6.1c5.6-1.7,10,0.7,11.1-1.1
	c1.1-1.9-3.7-4.6-3-8.9c0.4-1.9,1.9-3.7,5-7.1c1.4-1.6,2.1-2.4,2.5-2.6c5.5-2.6,15.4,11.5,18.5,9.6c1.8-1.1,1.1-7.6-2-12
	c-2.4-3.4-5.1-4.1-5-6c0.1-3.3,8.1-5.5,10-6c9.1-2.4,16.9-1.6,35,2c21.7,4.3,25.6,6.1,29,10c3.7,4.3,7.7,12.1,5.1,15.5
	c-5.3,6.8-34.4-8.6-43.1,0.5c-0.8,0.8-2.6,3.1-5,3c-3.1-0.2-3.7-4.3-7-6c-5.9-3.1-16.5,3.3-16,6c0.6,3.2,17.1,0.8,19,6.7
	c0.8,2.3-1.5,3.7-1,6.3c1,5.2,11.6,9,21,9c21,0,34.5-18.9,39-15c2.7,2.3,0.3,11.1,0,12c-0.8,3-2,5-2.3,5.6c-5.1,9.7,19,27,18.3,46.4
	c-0.3,8.3-4.9,8.6-25,38c0,0-3,4.4-4.4,3.8c-1.4-0.6,1-5.9-1.6-8.8c-1.9-2.1-4.1-0.4-7.7-2.1c-6-2.9-6-10.9-9.3-10.9
	c-1.8,0-3.4,2.2-4,4c-1.2,3.7,2.1,6,1,9c-1.2,3.6-7.1,3.8-7,5c0.1,2.6,25.2,2.1,26,7c0.5,2.7-6.8,4.5-7,10c-0.1,2.8,1.7,3.7,2,8
	c0.2,2.7-0.3,4.8-1,7c-6.5,21.2-13,30-13,30c-8.8,12-15.4,12.7-16.4,21.1c-0.3,2.6-0.1,6.3-2.6,7.9c-2.1,1.4-5.7,0.8-8-1
	c-3.6-2.7-2.7-7.2-4-22c-0.8-9.5-0.7-14.5-4.6-18.5c-3.1-3.2-5.3-2.3-7.4-5.5c-3-4.5,0-8.2-1-16c-1.1-8.9-5.4-8.2-6-16
	c-0.2-2.6,1.2-8.1,4-19c1.5-5.8,2.7-8.9,1-11c-2.2-2.7-6.6-0.7-8-3c-1.1-1.9,1.3-4,5-12c3-6.4,2.7-7.7,5-10c3.4-3.3,7.1-3.6,7-5
	c-0.1-1.5-4-1-8.1-4.1c-3.8-2.8-3.5-5.5-5.9-5.9c-3.6-0.6-9,4.8-9,10c0,3.7,2.7,4.2,4,9c1.6,6.1-0.6,13.3-3.6,14
	c-2.3,0.5-3.2-3.1-7.4-4c-3.9-0.8-5.4,1.9-11,3c-1.1,0.2-8.2,1.5-15-1c-4.8-1.7-7.1-4.4-11-8c-14.6-13.4-20.9-10.9-25-19
	c-3.6-7.2,0.4-11.2,0-23c-0.6-19-12.6-20.7-12-33c1-21.2,35.2-43.4,51-40c1.7,0.4,8.2,2.1,11-1c2.1-2.3,0.5-5.5,3-8
	c2.4-2.5,7.3-2.9,9-1c1.8,2.1-1.4,5.6,0.6,9.6c1.5,3.1,4.2,2.7,4.4,4.4c0.5,4-13.9,13-29,14c-3.6,0.2-7.7,0.1-11,3
	c-3.4,3.1-2.8,6.8-6,8c-3.8,1.4-8.4-2.5-9-3c-2.7-2.3-3.7-4.8-4.4-6.2c-4.9-9.2-19.3-4.8-27.1-12.8c-8.3-8.4,0.3-21.1-7.5-27
	c-8.1-6.2-25.1,1.7-26-1c-0.4-1.1,2.5-2.3,2.7-5.3c0.2-2.8-2.2-3.9-1.7-5.7c0.6-2.3,4.6-1.8,8.2-4.1c4.2-2.7,7.1-8.9,5.8-13.9
	c-1.8-6.9-11.4-10.6-18-9c-5.7,1.4-5.6,5.9-13,11c-4.2,2.9-7.4,1.6-22,7c-14.3,5.3-21.9,6.9-24,5c-5.9-5.2,2.8-32.2,15-34
	c6.8-1,8.7,6.7,18,6c8.3-0.6,13.4-7.1,21-5c1,0.3,3,0.9,4,0c1.9-1.7-1.4-6.8,0-8s5.5,3.2,10,5c9.8,4,16.9-8,31-8
	c18.4,0,33.4,8.2,33,10c-0.3,1.2-7.4-1.5-16,2c-8.7,3.6-14.3,11.8-13,14c0.7,1.1,2.8,0.2,5,2c1.7,1.4,1.2,2.7,3,4
	c0.3,0.2,2.5,1.7,4,1c2.2-1,0.4-5.3,3-8c1.7-1.8,4.4-1.9,7-2c4.3-0.2,5.1,1.3,9,1c2.4-0.2,6.6-1.1,7-3c0.3-1.6-2.3-2.9-6-6
	c-4.1-3.5-9.9-9.5-9-11c0.7-1.1,4.7,1,15,4c10.5,3.1,13,2.8,14,5c2,4.6-5.3,13-12,18c-10.4,7.7-19.4,6.2-22,13
	c-1.5,3.8-0.4,8.9,2,10c4.4,1.9,10.5-10.7,19.6-9.5c2.8,0.4,3.4,1.7,8.4,2.5c2.2,0.3,8.7,1.4,10-1c1.4-2.5-4.9-5.9-4.5-10.4
	c0.7-8.3,23.6-15,26.5-10.6c2.5,3.8-11.3,13.9-8,21c1.8,3.8,7.3,4.5,10,5c19.1,3.5,31.6,20,38,25c40.9,32.1,249-15,249-15
	c109.9-24.9,140.3-37.1,141-53c0.4-9.6-9.9-22.9-17-22c-7.7,1-14.9,19.2-11,25c13.6,19.9,144.1-41,241-106
	c19.5-13.1,35.2-24.7,45.7-32.7"/>
</svg>
