<svg id="Layer_1" data-name="Layer 1" xmlns="http://www.w3.org/2000/svg" viewBox="0 0 1161.8 792"><defs><style>.cls-1,.cls-2,.cls-3,.cls-8{fill:none;}.cls-1{stroke:#010101;stroke-width:2.5px;}.cls-1,.cls-2,.cls-8{stroke-miterlimit:10;}.cls-2{stroke:#4aa0d8;stroke-width:5px;opacity:0.35;}.cls-2,.cls-4,.cls-8{isolation:isolate;}.cls-4,.cls-8{font-size:49px;font-family:Montserrat-Medium, Montserrat;letter-spacing:0.06em;}.cls-4{fill:#231f20;}.cls-5{letter-spacing:0.05em;}.cls-6{letter-spacing:0.06em;}.cls-7{letter-spacing:0.05em;}.cls-8{stroke:#231f20;stroke-width:3px;}</style></defs><title>groupsource-icon</title><path class="cls-1" d="M-1.4,604.2c42.2-8.5,106.5-16.5,182-4,83.6,13.8,100.9,39.7,161,37,69.4-3.1,148.5-41.5,195.3-113.3,15.3-23.4,71.2-117.9,26-218-43.2-95.7-142.5-118-152-120-24-5-89.3-14.1-153,26,0,0-65.7,41.2-90,128-9.4,33.5-.9,65,0,65,.7,0,4.7-17.2,2-38-1.1-8.8-4.3-19.2-1-21,2.5-1.3,6.1,3.5,11,2,3.6-1.1,3.5-4.2,7-5s7.9,1.5,10,5,2.4,8.4,0,11-5.5.4-9.1,2.6c-6.7,4-7.5,18-3.2,20.9,1.4.9,2.5.2,4.3,1.6a8.41,8.41,0,0,1,3,7c-.1,1.9-.9,5.3-3,6s-3.8-2-5.2-1.3-.8,3.5-.8,8.3c.1,8.5-1.5,9.8,0,12,2,2.9,5.3,1.3,11,4,6.7,3.2,11,9.6,10,11-1.1,1.7-8.5-4.2-14-1-3.2,1.9-2.8,5.4-6,6-3.8.8-8.1-1.9-8.1-3.7,0-.2,0-.3.1-.3.7-2.2-2.4-5.6-4-9-.8-1.8-.2-1.2-2-8-1.1-4-1.6-6-2-6-1.2,0-1.8,11-1,21,0,0,1.1,12.7,5,14a3,3,0,0,0,1,.2c1.8,0,3.3-1.9,11-3.2,2.5-.4,5.2-.8,6.5-2.8.9-1.5.5-2.3,1.5-3.2,1.5-1.3,4.2-1,6,0,2.7,1.5,3.4,4.7,4,8,.4,2.2,1.8,9.4-1,11-2.5,1.4-6.3-2.5-8-1-1.1.9-.4,3.4,0,5,.7,2.5,2.6,7.4,9,13,4.1,3.5,5.3,3.3,7,6,2.4,3.8,2,7.8,2,10-.2,14.9,13.4,25.6,11,28-1.7,1.7-10.2-2.2-16-8-4.9-4.9-11.3-14.6-16.4-16.2l-1.6-.8c-2.5-1.2-4.3-5.2-3.2-7.6.5-1.1,1.4-1.5,1.2-2.4s-1-.9-1.6-1.5c-1.5-1.5-.4-4.6.6-9.5a59.51,59.51,0,0,0,1-6c.8-6,1.3-8,.2-8.9s-2.3-.1-3.2-1.1c-1.2-1.4.8-4,0-5-1-1.2-6.5.3-9,3-8.5,9.1,8.7,39.8,20,56a201.6,201.6,0,0,0,20,24c25.1,26.4,38,39.4,57,49,42.5,21.5,90.6,15.5,99,17a9.17,9.17,0,0,0,3,0c1.8-.3,4-1.4,4-2-.1-1.6-14.5-1.9-32-3-23.3-1.5-34.1-3.4-44-6-2.3-.6-19.4-5.2-19-8,.2-1.3,4.3-1.9,7-2,11-.2,15.1,8.2,22,6,2.5-.8,4-2.6,7.8-2.7a10.2,10.2,0,0,1,5.1.9c2.6,1.3,2.9,3.3,5.1,3.8a5.82,5.82,0,0,0,4-.9c5.5-2.6,11.8,2.9,25,4.9,7.8,1.1,10.5-.1,12-1,3-1.9,2.3-3.6,5-6,6.2-5.4,13.8.2,20-5,4-3.3,4.3-8.3,6.5-8.1,1.6.1,1.5,3,3.5,5.1,5.5,6,21.4.3,25-1,8.4-3,9.2-5.3,17-7,5.8-1.3,13.5-1.7,14,0,.6,2-8.5,6.6-14,9-19.7,8.5-29.6,4.1-49,12-1.2.5-16.6,6.8-16,9,1.6,5.6,103.3-20.4,117-48,1.2-2.4,4-9.5,2-11-2.4-1.8-8.8,6-16,4-3.6-1-4.9-3.7-7-3-2.4.9-2,5-3.9,8.7-3,6.1-10.5,8.1-15.1,9.3-20,5.3-32.6-9.7-52-4-19.1,5.6-20.3,19-37,19-11.5,0-12.9-6.4-30-7-10.7-.4-14.6,1.9-23-1s-8.8-6.6-16-8c-9.8-2-13.3,4-21,3-16-2.1-28.9-31.6-22-40,2.8-3.4,7.2-1.2,16-6,5-2.7,8.4-6,12-10,16.2-18,14.1-26,26-35,9.9-7.5,20.5-8.5,20-11-.6-3.1-16.5-1.7-17-5-.2-1.4,2.5-3.3,5-4,7.5-2.1,15.7,5.5,16,5s-8.4-5.7-12-12a40.53,40.53,0,0,0-3-5,21.2,21.2,0,0,1-3-4.4c-.6-1.4-.5-1.7-.9-1.9-1.7-1-4.9,4.4-11.1,7.3-5.7,2.6-7.6.2-10.2,2.7-3.2,3.2-4,10.8-1.8,16.3.7,1.8,1.8,3.5,1,5-.9,1.7-3.4,2.1-5,2-2.1-.1-4.8-1.3-5-3-.2-1.4,1.4-2,3-4,3.4-4.4,3.7-11.5,1.2-13.3-1.3-.9-2.4.2-4.2-.7-2.4-1.3-4-5.4-3-8,2.3-5.6,15.6.8,29-7,6.6-3.8,10.2-9.4,13-8s1.1,8,5,10c2.2,1.1,4.5-.1,5,1,.8,1.6-4.7,4.7-3.9,7.6.3,1.2,1.4,1.4,2.9,2.4,5.8,3.8,6.4,11.3,8,11,.7-.1.5-1.7,2-4a13.66,13.66,0,0,1,3-3c3.7-2.8,7-7.7,13-14,8.6-9,9.6-6.9,12-11,5.3-8.9,4.5-23.4-3-31-5.7-5.8-10.2-2.2-25-9-8.1-3.7-8.1-5.6-19-11-8.2-4.1-18.2-9-21-6-2,2.1-.3,7.8,1.5,11,2.1,3.8,4.4,4.1,4.5,7s-2.1,3.8-2,8c0,2.2.7,3.3,0,4s-2,0-6-1a28.78,28.78,0,0,0-5-1c-4.2-.4-5.1.9-7,0a6,6,0,0,1-3-6c.4-2.4,2.5-2.7,4-6,.9-2,.5-2.9,1-5,1.3-6,5.8-6.9,6-10,.4-5.4-13.2-10.3-22-13-3.5-1.1-15.6-4.7-23.7,1-.9.6-.3.4-7.3,7-6.6,6.3-7.2,6.5-8,8-2.7,4.8-1.4,10.1,0,16,1.2,5,3.4,14.2,11,19,3.6,2.3,5.1,1.5,8,4,5,4.3,5.7,11.1,6,14,3,25.5,13,29,10,45-2.8,14.8-11.9,14.4-17.8,36.4-2.6,9.6-2.4,15.4-4.2,15.6-2.9.2-9.1-13.7-5-25,1.8-5,3.9-4.7,6-11,1.9-5.6,1.9-10.9,1.9-17.1,0-7.4-.8-8.3.1-11.9a23.81,23.81,0,0,1,6.8-11.4c15.2-15.8,29.4-83.3,15.2-102.6a17.51,17.51,0,0,1-4-10c-.2-6.5,8.6-11,7-14a15.69,15.69,0,0,0-2-2c-2.4-2.3-3.1-2.6-3-3,.2-.7,3.1-.1,9,0h4c5.4,0,8.6,0,12-1,1.1-.3,2.5-.8,3-2a2.33,2.33,0,0,0,0-2c-1.5-2-10,3.4-11.8,1.2-1.1-1.3,1-4.3-.2-5.2-.6-.5-1.7-.1-2,0-2.4.9-2.1,3.8-4,5s-5.2-.5-7-1.5c-5.8-3.1-5.4-6.7-9-7.5-3.2-.7-3.8,2.3-11,4-3.5.8-7.4,1.8-11,0-.4-.2-.3-.2-5-3-3.3-2-3.7-2.2-4-2-1.4.9.4,9.3,5,11,1.8.7,3.9.3,4,1s-1.3.9-2,2c-1.6,2.5,1.7,6.4,1,7-1,.9-11.3-4.8-13-14-.8-4.5,1.1-5.8,0-10-1.7-6.5-8.7-12.4-12-11-5.5,2.2-1.8,23.4,3,28,2.2,2.1,4.2,3.1,8,7s4.2,6.5,7,7,3.6-1.8,6.6-1.9c5.4-.3,7.5,7.7,17.4,15.9,4.1,3.4,9.9,7.1,11,6,.9-.9-2.3-5-5.2-10.1-9.9-17-5.1-26.1-14.9-38.7a33.5,33.5,0,0,0-10.8-9.3c-3.3-1.7-3.7-1.2-8.1-2.9-3.6-1.5-15.8-6.4-16-13-.1-2.2,1.2-3.2,1-7a19.21,19.21,0,0,0-1-5c-2.8-8.8,17-23,17-23,33.3-24,50.9-36.7,60-30a12.33,12.33,0,0,1,4.4,12.1c-2.7,11.9-27.8,13.1-27.4,18.9.2,3,7.1,6.2,13,6,7.7-.2,10.2-5.9,16.9-4.7.6.1,6,1.1,8.1,5.7a10.22,10.22,0,0,1-1,10c-4,5.1-11.2,1-16,6-4.1,4.2-.7,8.9-5,13-3.7,3.5-7,2-13,5-8.3,4.2-13.7,13.6-12,16,2,2.6,13.6-2.6,21-6,3.6-1.6,6.3-3.1,15-8,19.5-11.1,25.2-15.4,35.4-16.8,3.3-.4,7.2-.8,7.2-.8a44.25,44.25,0,0,1,8.4-.5c18.7.6,31.6,12.8,39,8,.4-.2,1.5-1,4.9-3.4,4.9-3.3,6.1-4.1,7.1-3.6,1.9.8.8,4.4,3,5.9,1.8,1.2,4-.4,7-.9,5-.9,6.6,2.2,14.4,4.8,6.1,2,12.1,3.9,18.6,2.2,2.3-.6,5.7-1.9,10-1,.6.1,3.9.8,4,2,.1,1.9-8.9,1-15,6-7.8,6.3-2.4,15.1-10.9,29-4.1,6.7-8.2,9.1-7.1,11,1.5,2.8,11.9,2.1,19.2-2.8,4.1-2.7,4.6-4.9,8.7-6.1,5.6-1.7,10,.7,11.1-1.1s-3.7-4.6-3-8.9c.4-1.9,1.9-3.7,5-7.1a15.26,15.26,0,0,1,2.5-2.6c5.5-2.6,15.4,11.5,18.5,9.6,1.8-1.1,1.1-7.6-2-12-2.4-3.4-5.1-4.1-5-6,.1-3.3,8.1-5.5,10-6,9.1-2.4,16.9-1.6,35,2,21.7,4.3,25.6,6.1,29,10,3.7,4.3,7.7,12.1,5.1,15.5-5.3,6.8-34.4-8.6-43.1.5-.8.8-2.6,3.1-5,3-3.1-.2-3.7-4.3-7-6-5.9-3.1-16.5,3.3-16,6,.6,3.2,17.1.8,19,6.7.8,2.3-1.5,3.7-1,6.3,1,5.2,11.6,9,21,9,21,0,34.5-18.9,39-15,2.7,2.3.3,11.1,0,12a24.87,24.87,0,0,1-2.3,5.6c-5.1,9.7,19,27,18.3,46.4-.3,8.3-4.9,8.6-25,38,0,0-3,4.4-4.4,3.8s1-5.9-1.6-8.8c-1.9-2.1-4.1-.4-7.7-2.1-6-2.9-6-10.9-9.3-10.9-1.8,0-3.4,2.2-4,4-1.2,3.7,2.1,6,1,9-1.2,3.6-7.1,3.8-7,5,.1,2.6,25.2,2.1,26,7,.5,2.7-6.8,4.5-7,10-.1,2.8,1.7,3.7,2,8a17.49,17.49,0,0,1-1,7c-6.5,21.2-13,30-13,30-8.8,12-15.4,12.7-16.4,21.1-.3,2.6-.1,6.3-2.6,7.9-2.1,1.4-5.7.8-8-1-3.6-2.7-2.7-7.2-4-22-.8-9.5-.7-14.5-4.6-18.5-3.1-3.2-5.3-2.3-7.4-5.5-3-4.5,0-8.2-1-16-1.1-8.9-5.4-8.2-6-16-.2-2.6,1.2-8.1,4-19,1.5-5.8,2.7-8.9,1-11-2.2-2.7-6.6-.7-8-3-1.1-1.9,1.3-4,5-12,3-6.4,2.7-7.7,5-10,3.4-3.3,7.1-3.6,7-5s-4-1-8.1-4.1c-3.8-2.8-3.5-5.5-5.9-5.9-3.6-.6-9,4.8-9,10,0,3.7,2.7,4.2,4,9,1.6,6.1-.6,13.3-3.6,14-2.3.5-3.2-3.1-7.4-4-3.9-.8-5.4,1.9-11,3-1.1.2-8.2,1.5-15-1-4.8-1.7-7.1-4.4-11-8-14.6-13.4-20.9-10.9-25-19-3.6-7.2.4-11.2,0-23-.6-19-12.6-20.7-12-33,1-21.2,35.2-43.4,51-40,1.7.4,8.2,2.1,11-1,2.1-2.3.5-5.5,3-8s7.3-2.9,9-1c1.8,2.1-1.4,5.6.6,9.6,1.5,3.1,4.2,2.7,4.4,4.4.5,4-13.9,13-29,14-3.6.2-7.7.1-11,3-3.4,3.1-2.8,6.8-6,8-3.8,1.4-8.4-2.5-9-3a17,17,0,0,1-4.4-6.2c-4.9-9.2-19.3-4.8-27.1-12.8-8.3-8.4.3-21.1-7.5-27-8.1-6.2-25.1,1.7-26-1-.4-1.1,2.5-2.3,2.7-5.3.2-2.8-2.2-3.9-1.7-5.7.6-2.3,4.6-1.8,8.2-4.1,4.2-2.7,7.1-8.9,5.8-13.9-1.8-6.9-11.4-10.6-18-9-5.7,1.4-5.6,5.9-13,11-4.2,2.9-7.4,1.6-22,7-14.3,5.3-21.9,6.9-24,5-5.9-5.2,2.8-32.2,15-34,6.8-1,8.7,6.7,18,6,8.3-.6,13.4-7.1,21-5,1,.3,3,.9,4,0,1.9-1.7-1.4-6.8,0-8s5.5,3.2,10,5c9.8,4,16.9-8,31-8,18.4,0,33.4,8.2,33,10-.3,1.2-7.4-1.5-16,2s-14.3,11.8-13,14c.7,1.1,2.8.2,5,2,1.7,1.4,1.2,2.7,3,4,.3.2,2.5,1.7,4,1,2.2-1,.4-5.3,3-8,1.7-1.8,4.4-1.9,7-2,4.3-.2,5.1,1.3,9,1,2.4-.2,6.6-1.1,7-3,.3-1.6-2.3-2.9-6-6-4.1-3.5-9.9-9.5-9-11,.7-1.1,4.7,1,15,4,10.5,3.1,13,2.8,14,5,2,4.6-5.3,13-12,18-10.4,7.7-19.4,6.2-22,13-1.5,3.8-.4,8.9,2,10,4.4,1.9,10.5-10.7,19.6-9.5,2.8.4,3.4,1.7,8.4,2.5,2.2.3,8.7,1.4,10-1s-4.9-5.9-4.5-10.4c.7-8.3,23.6-15,26.5-10.6,2.5,3.8-11.3,13.9-8,21,1.8,3.8,7.3,4.5,10,5,19.1,3.5,31.6,20,38,25,40.9,32.1,249-15,249-15,109.9-24.9,140.3-37.1,141-53,.4-9.6-9.9-22.9-17-22-7.7,1-14.9,19.2-11,25,13.6,19.9,144.1-41,241-106,19.5-13.1,35.2-24.7,45.7-32.7"/><path class="cls-2" d="M1.4,636.8c42.2-8.5,106.5-16.5,182-4,83.6,13.8,100.9,39.7,161,37,69.4-3.1,148.5-41.5,195.3-113.3,15.3-23.4,71.2-117.9,26-218-43.2-95.7-142.5-118-152-120-24-5-89.3-14.1-153,26,0,0-65.7,41.2-90,128-9.4,33.5-.9,65,0,65,.7,0,4.7-17.2,2-38-1.1-8.8-4.3-19.2-1-21,2.5-1.3,6.1,3.5,11,2,3.6-1.1,3.5-4.2,7-5s7.9,1.5,10,5,2.4,8.4,0,11-5.5.4-9.1,2.6c-6.7,4-7.5,18-3.2,20.9,1.4.9,2.5.2,4.3,1.6a8.41,8.41,0,0,1,3,7c-.1,1.9-.9,5.3-3,6s-3.8-2-5.2-1.3-.8,3.5-.8,8.3c.1,8.5-1.5,9.8,0,12,2,2.9,5.3,1.3,11,4,6.7,3.2,11,9.6,10,11-1.1,1.7-8.5-4.2-14-1-3.2,1.9-2.8,5.4-6,6-3.8.8-8.1-1.9-8.1-3.7,0-.2,0-.3.1-.3.7-2.2-2.4-5.6-4-9-.8-1.8-.2-1.2-2-8-1.1-4-1.6-6-2-6-1.2,0-1.8,11-1,21,0,0,1.1,12.7,5,14a3,3,0,0,0,1,.2c1.8,0,3.3-1.9,11-3.2,2.5-.4,5.2-.8,6.5-2.8.9-1.5.5-2.3,1.5-3.2,1.5-1.3,4.2-1,6,0,2.7,1.5,3.4,4.7,4,8,.4,2.2,1.8,9.4-1,11-2.5,1.4-6.3-2.5-8-1-1.1.9-.4,3.4,0,5,.7,2.5,2.6,7.4,9,13,4.1,3.5,5.3,3.3,7,6,2.4,3.8,2,7.8,2,10-.2,14.9,13.4,25.6,11,28-1.7,1.7-10.2-2.2-16-8-4.9-4.9-11.3-14.6-16.4-16.2l-1.6-.8c-2.5-1.2-4.3-5.2-3.2-7.6.5-1.1,1.4-1.5,1.2-2.4s-1-.9-1.6-1.5c-1.5-1.5-.4-4.6.6-9.5a59.51,59.51,0,0,0,1-6c.8-6,1.3-8,.2-8.9s-2.3-.1-3.2-1.1c-1.2-1.4.8-4,0-5-1-1.2-6.5.3-9,3-8.5,9.1,8.7,39.8,20,56a201.6,201.6,0,0,0,20,24c25.1,26.4,38,39.4,57,49,42.5,21.5,90.6,15.5,99,17a9.17,9.17,0,0,0,3,0c1.8-.3,4-1.4,4-2-.1-1.6-14.5-1.9-32-3-23.3-1.5-34.1-3.4-44-6-2.3-.6-19.4-5.2-19-8,.2-1.3,4.3-1.9,7-2,11-.2,15.1,8.2,22,6,2.5-.8,4-2.6,7.8-2.7a10.2,10.2,0,0,1,5.1.9c2.6,1.3,2.9,3.3,5.1,3.8a5.82,5.82,0,0,0,4-.9c5.5-2.6,11.8,2.9,25,4.9,7.8,1.1,10.5-.1,12-1,3-1.9,2.3-3.6,5-6,6.2-5.4,13.8.2,20-5,4-3.3,4.3-8.3,6.5-8.1,1.6.1,1.5,3,3.5,5.1,5.5,6,21.4.3,25-1,8.4-3,9.2-5.3,17-7,5.8-1.3,13.5-1.7,14,0,.6,2-8.5,6.6-14,9-19.7,8.5-29.6,4.1-49,12-1.2.5-16.6,6.8-16,9,1.6,5.6,103.3-20.4,117-48,1.2-2.4,4-9.5,2-11-2.4-1.8-8.8,6-16,4-3.6-1-4.9-3.7-7-3-2.4.9-2,5-3.9,8.7-3,6.1-10.5,8.1-15.1,9.3-20,5.3-32.6-9.7-52-4-19.1,5.6-20.3,19-37,19-11.5,0-12.9-6.4-30-7-10.7-.4-14.6,1.9-23-1s-8.8-6.6-16-8c-9.8-2-13.3,4-21,3-16-2.1-28.9-31.6-22-40,2.8-3.4,7.2-1.2,16-6,5-2.7,8.4-6,12-10,16.2-18,14.1-26,26-35,9.9-7.5,20.5-8.5,20-11-.6-3.1-16.5-1.7-17-5-.2-1.4,2.5-3.3,5-4,7.5-2.1,15.7,5.5,16,5s-8.4-5.7-12-12a40.53,40.53,0,0,0-3-5,21.2,21.2,0,0,1-3-4.4c-.6-1.4-.5-1.7-.9-1.9-1.7-1-4.9,4.4-11.1,7.3-5.7,2.6-7.6.2-10.2,2.7-3.2,3.2-4,10.8-1.8,16.3.7,1.8,1.8,3.5,1,5-.9,1.7-3.4,2.1-5,2-2.1-.1-4.8-1.3-5-3-.2-1.4,1.4-2,3-4,3.4-4.4,3.7-11.5,1.2-13.3-1.3-.9-2.4.2-4.2-.7-2.4-1.3-4-5.4-3-8,2.3-5.6,15.6.8,29-7,6.6-3.8,10.2-9.4,13-8s1.1,8,5,10c2.2,1.1,4.5-.1,5,1,.8,1.6-4.7,4.7-3.9,7.6.3,1.2,1.4,1.4,2.9,2.4,5.8,3.8,6.4,11.3,8,11,.7-.1.5-1.7,2-4a13.66,13.66,0,0,1,3-3c3.7-2.8,7-7.7,13-14,8.6-9,9.6-6.9,12-11,5.3-8.9,4.5-23.4-3-31-5.7-5.8-10.2-2.2-25-9-8.1-3.7-8.1-5.6-19-11-8.2-4.1-18.2-9-21-6-2,2.1-.3,7.8,1.5,11,2.1,3.8,4.4,4.1,4.5,7s-2.1,3.8-2,8c0,2.2.7,3.3,0,4s-2,0-6-1a28.78,28.78,0,0,0-5-1c-4.2-.4-5.1.9-7,0a6,6,0,0,1-3-6c.4-2.4,2.5-2.7,4-6,.9-2,.5-2.9,1-5,1.3-6,5.8-6.9,6-10,.4-5.4-13.2-10.3-22-13-3.5-1.1-15.6-4.7-23.7,1-.9.6-.3.4-7.3,7-6.6,6.3-7.2,6.5-8,8-2.7,4.8-1.4,10.1,0,16,1.2,5,3.4,14.2,11,19,3.6,2.3,5.1,1.5,8,4,5,4.3,5.7,11.1,6,14,3,25.5,13,29,10,45-2.8,14.8-11.9,14.4-17.8,36.4-2.6,9.6-2.4,15.4-4.2,15.6-2.9.2-9.1-13.7-5-25,1.8-5,3.9-4.7,6-11,1.9-5.6,1.9-10.9,1.9-17.1,0-7.4-.8-8.3.1-11.9a23.81,23.81,0,0,1,6.8-11.4c15.2-15.8,29.4-83.3,15.2-102.6a17.51,17.51,0,0,1-4-10c-.2-6.5,8.6-11,7-14a15.69,15.69,0,0,0-2-2c-2.4-2.3-3.1-2.6-3-3,.2-.7,3.1-.1,9,0h4c5.4,0,8.6,0,12-1,1.1-.3,2.5-.8,3-2a2.33,2.33,0,0,0,0-2c-1.5-2-10,3.4-11.8,1.2-1.1-1.3,1-4.3-.2-5.2-.6-.5-1.7-.1-2,0-2.4.9-2.1,3.8-4,5s-5.2-.5-7-1.5c-5.8-3.1-5.4-6.7-9-7.5-3.2-.7-3.8,2.3-11,4-3.5.8-7.4,1.8-11,0-.4-.2-.3-.2-5-3-3.3-2-3.7-2.2-4-2-1.4.9.4,9.3,5,11,1.8.7,3.9.3,4,1s-1.3.9-2,2c-1.6,2.5,1.7,6.4,1,7-1,.9-11.3-4.8-13-14-.8-4.5,1.1-5.8,0-10-1.7-6.5-8.7-12.4-12-11-5.5,2.2-1.8,23.4,3,28,2.2,2.1,4.2,3.1,8,7s4.2,6.5,7,7,3.6-1.8,6.6-1.9c5.4-.3,7.5,7.7,17.4,15.9,4.1,3.4,9.9,7.1,11,6,.9-.9-2.3-5-5.2-10.1-9.9-17-5.1-26.1-14.9-38.7a33.5,33.5,0,0,0-10.8-9.3c-3.3-1.7-3.7-1.2-8.1-2.9-3.6-1.5-15.8-6.4-16-13-.1-2.2,1.2-3.2,1-7a19.21,19.21,0,0,0-1-5c-2.8-8.8,17-23,17-23,33.3-24,50.9-36.7,60-30a12.33,12.33,0,0,1,4.4,12.1c-2.7,11.9-27.8,13.1-27.4,18.9.2,3,7.1,6.2,13,6,7.7-.2,10.2-5.9,16.9-4.7.6.1,6,1.1,8.1,5.7a10.22,10.22,0,0,1-1,10c-4,5.1-11.2,1-16,6-4.1,4.2-.7,8.9-5,13-3.7,3.5-7,2-13,5-8.3,4.2-13.7,13.6-12,16,2,2.6,13.6-2.6,21-6,3.6-1.6,6.3-3.1,15-8,19.5-11.1,25.2-15.4,35.4-16.8,3.3-.4,7.2-.8,7.2-.8a44.25,44.25,0,0,1,8.4-.5c18.7.6,31.6,12.8,39,8,.4-.2,1.5-1,4.9-3.4,4.9-3.3,6.1-4.1,7.1-3.6,1.9.8.8,4.4,3,5.9,1.8,1.2,4-.4,7-.9,5-.9,6.6,2.2,14.4,4.8,6.1,2,12.1,3.9,18.6,2.2,2.3-.6,5.7-1.9,10-1,.6.1,3.9.8,4,2,.1,1.9-8.9,1-15,6-7.8,6.3-2.4,15.1-10.9,29-4.1,6.7-8.2,9.1-7.1,11,1.5,2.8,11.9,2.1,19.2-2.8,4.1-2.7,4.6-4.9,8.7-6.1,5.6-1.7,10,.7,11.1-1.1s-3.7-4.6-3-8.9c.4-1.9,1.9-3.7,5-7.1a15.26,15.26,0,0,1,2.5-2.6c5.5-2.6,15.4,11.5,18.5,9.6,1.8-1.1,1.1-7.6-2-12-2.4-3.4-5.1-4.1-5-6,.1-3.3,8.1-5.5,10-6,9.1-2.4,16.9-1.6,35,2,21.7,4.3,25.6,6.1,29,10,3.7,4.3,7.7,12.1,5.1,15.5-5.3,6.8-34.4-8.6-43.1.5-.8.8-2.6,3.1-5,3-3.1-.2-3.7-4.3-7-6-5.9-3.1-16.5,3.3-16,6,.6,3.2,17.1.8,19,6.7.8,2.3-1.5,3.7-1,6.3,1,5.2,11.6,9,21,9,21,0,34.5-18.9,39-15,2.7,2.3.3,11.1,0,12a24.87,24.87,0,0,1-2.3,5.6c-5.1,9.7,19,27,18.3,46.4-.3,8.3-4.9,8.6-25,38,0,0-3,4.4-4.4,3.8s1-5.9-1.6-8.8c-1.9-2.1-4.1-.4-7.7-2.1-6-2.9-6-10.9-9.3-10.9-1.8,0-3.4,2.2-4,4-1.2,3.7,2.1,6,1,9-1.2,3.6-7.1,3.8-7,5,.1,2.6,25.2,2.1,26,7,.5,2.7-6.8,4.5-7,10-.1,2.8,1.7,3.7,2,8a17.49,17.49,0,0,1-1,7c-6.5,21.2-13,30-13,30-8.8,12-15.4,12.7-16.4,21.1-.3,2.6-.1,6.3-2.6,7.9-2.1,1.4-5.7.8-8-1-3.6-2.7-2.7-7.2-4-22-.8-9.5-.7-14.5-4.6-18.5-3.1-3.2-5.3-2.3-7.4-5.5-3-4.5,0-8.2-1-16-1.1-8.9-5.4-8.2-6-16-.2-2.6,1.2-8.1,4-19,1.5-5.8,2.7-8.9,1-11-2.2-2.7-6.6-.7-8-3-1.1-1.9,1.3-4,5-12,3-6.4,2.7-7.7,5-10,3.4-3.3,7.1-3.6,7-5s-4-1-8.1-4.1c-3.8-2.8-3.5-5.5-5.9-5.9-3.6-.6-9,4.8-9,10,0,3.7,2.7,4.2,4,9,1.6,6.1-.6,13.3-3.6,14-2.3.5-3.2-3.1-7.4-4-3.9-.8-5.4,1.9-11,3-1.1.2-8.2,1.5-15-1-4.8-1.7-7.1-4.4-11-8-14.6-13.4-20.9-10.9-25-19-3.6-7.2.4-11.2,0-23-.6-19-12.6-20.7-12-33,1-21.2,35.2-43.4,51-40,1.7.4,8.2,2.1,11-1,2.1-2.3.5-5.5,3-8s7.3-2.9,9-1c1.8,2.1-1.4,5.6.6,9.6,1.5,3.1,4.2,2.7,4.4,4.4.5,4-13.9,13-29,14-3.6.2-7.7.1-11,3-3.4,3.1-2.8,6.8-6,8-3.8,1.4-8.4-2.5-9-3a17,17,0,0,1-4.4-6.2c-4.9-9.2-19.3-4.8-27.1-12.8-8.3-8.4.3-21.1-7.5-27-8.1-6.2-25.1,1.7-26-1-.4-1.1,2.5-2.3,2.7-5.3.2-2.8-2.2-3.9-1.7-5.7.6-2.3,4.6-1.8,8.2-4.1,4.2-2.7,7.1-8.9,5.8-13.9-1.8-6.9-11.4-10.6-18-9-5.7,1.4-5.6,5.9-13,11-4.2,2.9-7.4,1.6-22,7-14.3,5.3-21.9,6.9-24,5-5.9-5.2,2.8-32.2,15-34,6.8-1,8.7,6.7,18,6,8.3-.6,13.4-7.1,21-5,1,.3,3,.9,4,0,1.9-1.7-1.4-6.8,0-8s5.5,3.2,10,5c9.8,4,16.9-8,31-8,18.4,0,33.4,8.2,33,10-.3,1.2-7.4-1.5-16,2s-14.3,11.8-13,14c.7,1.1,2.8.2,5,2,1.7,1.4,1.2,2.7,3,4,.3.2,2.5,1.7,4,1,2.2-1,.4-5.3,3-8,1.7-1.8,4.4-1.9,7-2,4.3-.2,5.1,1.3,9,1,2.4-.2,6.6-1.1,7-3,.3-1.6-2.3-2.9-6-6-4.1-3.5-9.9-9.5-9-11,.7-1.1,4.7,1,15,4,10.5,3.1,13,2.8,14,5,2,4.6-5.3,13-12,18-10.4,7.7-19.4,6.2-22,13-1.5,3.8-.4,8.9,2,10,4.4,1.9,10.5-10.7,19.6-9.5,2.8.4,3.4,1.7,8.4,2.5,2.2.3,8.7,1.4,10-1s-4.9-5.9-4.5-10.4c.7-8.3,23.6-15,26.5-10.6,2.5,3.8-11.3,13.9-8,21,1.8,3.8,7.3,4.5,10,5,19.1,3.5,31.6,20,38,25,40.9,32.1,249-15,249-15,109.9-24.9,140.3-37.1,141-53,.4-9.6-9.9-22.9-17-22-7.7,1-14.9,19.2-11,25,13.6,19.9,144.1-41,241-106,19.5-13.1,35.2-24.7,45.7-32.7"/><rect class="cls-3" x="305.3" y="723.3" width="584.8" height="46.6"/><text class="cls-4" transform="translate(423.48 759.68)">g<tspan class="cls-5" x="36.8" y="0">r</tspan><tspan class="cls-6" x="59.29" y="0">oupsou</tspan><tspan class="cls-5" x="263.76" y="0">r</tspan><tspan class="cls-7" x="286.25" y="0">c</tspan><tspan x="316.83" y="0">e</tspan></text><text class="cls-8" transform="translate(423.48 759.68)">g<tspan class="cls-5" x="36.8" y="0">r</tspan><tspan class="cls-6" x="59.29" y="0">oupsou</tspan><tspan class="cls-5" x="263.76" y="0">r</tspan><tspan class="cls-7" x="286.25" y="0">c</tspan><tspan x="316.83" y="0">e</tspan></text></svg>