<svg id="Layer_1" data-name="Layer 1" xmlns="http://www.w3.org/2000/svg" viewBox="0 0 1159.7 778"><defs><style>.cls-1,.cls-14,.cls-2,.cls-3,.cls-4,.cls-5{fill:none;}.cls-1{stroke:#000;stroke-width:2.5px;opacity:0.8;}.cls-1,.cls-14,.cls-2,.cls-3,.cls-4{stroke-miterlimit:10;}.cls-1,.cls-14,.cls-2,.cls-3,.cls-4,.cls-6{isolation:isolate;}.cls-2{stroke:#f3ce12;}.cls-2,.cls-3,.cls-4{stroke-width:5px;opacity:0.35;}.cls-3{stroke:#ffcf35;}.cls-4{stroke:#ffc817;}.cls-14,.cls-6{font-size:46px;font-family:Montserrat-Medium, Montserrat;letter-spacing:0.07em;}.cls-6{fill:#231f20;}.cls-7{letter-spacing:0.06em;}.cls-8{letter-spacing:0.05em;}.cls-9{letter-spacing:0.04em;}.cls-10{letter-spacing:0.07em;}.cls-11{letter-spacing:0.06em;}.cls-12{letter-spacing:0.06em;}.cls-13{letter-spacing:0.06em;}.cls-14{stroke:#231f20;stroke-width:3px;}</style></defs><title>makerspace-icon (1)</title><path class="cls-1" d="M599.2,350.6a112,112,0,0,0-27-53c-23-25.1-50.7-32-60.5-34,1.8,8.7,3.7,17.3,5.5,26-10.7,9.3-21.3,18.7-32,28-7.6-3.1-15.3-6.3-22.9-9.4a77.87,77.87,0,0,1-50.1,12.4c-8.7,6.3-17.3,12.7-26,19l-60-27c-.3-8.7-.7-17.3-1-26a113.6,113.6,0,0,1-20-20,116.33,116.33,0,0,1-12.8-20.5c-5.8-2.8-11.5-5.7-17.2-8.5v-46c7-3.7,14-7.3,21-11a186,186,0,0,1,7.4-22.2,217.42,217.42,0,0,1,9.6-20.8c-3-6.7-6-13.3-9-20,13.3-9,26.7-18,40-27,6.3,4,12.7,8,19,12A125.56,125.56,0,0,1,402,94.7a129.16,129.16,0,0,1,22.2.9c6.3-4.3,12.7-8.7,19-13,14.7,9.7,29.3,19.3,44,29-.7,7-1.3,14-2,21,3.7,4.8,7.3,9.8,11,15,2.4,3.4,4.7,6.7,7,10,6.7,1.7,13.3,3.3,20,5,.3,15.7.7,31.3,1,47-6.3,2.7-12.7,5.3-19,8-2.4,5.9-19.9,47.2-63,59-8.1,2.2-35,9.6-61-6-3.1-1.9-31.7-19.7-34-54-.4-5.8-1.5-34.1,21-53,2.3-1.9,27.9-22.7,56-11,23.1,9.6,32.7,34.9,31.5,54-1,15.8-9.4,27.4-11.9,30.8a72.93,72.93,0,0,1-19.6,17.2c-31.2,18.3-132.1,34.1-226,16l-51-10h0c-7,.7-11.4-.9-14.1-2.6-5.5-3.4-6.3-8.2-11.9-9.4-2.6-.5-6.5-.3-8,2-1.7,2.6.2,6.7,2,9,3.6,4.6,9.5,5,22,6,24.5,1.9,29.7,2.7,31,6,1.1,2.7-.6,6.6-3,8-3.5,2-6.9-1.9-16-5-12.6-4.3-13.9.3-24.3-4.2-1.8-.8-7.1-3.3-12.7-2.8-1.9.2-3.5.7-4.5,2a4.47,4.47,0,0,0-.5,4c1,3.3,6.3,4.4,10,5,12.2,2.1,14.7.6,25,2,12.5,1.7,13,4.7,21,6a6.61,6.61,0,0,1,4,2c1.3,1.4,2.1,3.8,1.2,5.6a3.4,3.4,0,0,1-1.2,1.4c-3.2,2.3-9.7,1-12.5.4-4.6-1-6.2-1.6-12.5-3.4-6.8-1.9-10.2-2.8-11.4-3-4.3-.7-7.4-.7-10.6-3-1.5-1.1-1.2-1.3-3-2.6-2.1-1.5-5.3-3.8-9-3.4-2,.3-5.2,1.4-6,4s1.4,5.3,2,6c3.9,4.8,10.6,4,22,5,0,0,9.7,1.9,37,11a7.23,7.23,0,0,1,4.5,3.6,3.91,3.91,0,0,1,.5,2.4c-.5,2.5-4.7,3.7-6,4-8.8,2.4-26.7-5.8-44-14.4,0,0-3.4-1.7-17-3.6a3.79,3.79,0,0,0-3,.5c-2.6,1.9-1.3,7.8-1,9.5,2.3,11.8-1.6,31.8-6,42-5.6,13-11.4,8.3-22,26-3.8,6.4-9.6,16.3-10,30a55.64,55.64,0,0,0,4,22c1.8,4.7,9.7,23.7,30,34,32,16.4,65.3-3.8,74-11a41.37,41.37,0,0,0,5-5c8.9-10.8,9-24.1,9-29,0-11.4-3.3-11-9-34-3.3-13.6-5.3-21.5-5.4-32.5-.1-15.1,3.4-17.1.4-22.5-4.3-7.8-16.5-9.5-41-13a26.18,26.18,0,0,0-12.8.7c-1.9.7-6.9,2.6-13.2,10.3-5.6,6.7-7.6,12.2-10,17-7.1,14.3-13.4,14.7-22,27-3,4.4-12.3,18.1-13,37-.9,25.8,15,44.6,19,49a46.89,46.89,0,0,0,5,5c24.5,20.9,82.2,16.7,100-14,7.8-13.4,6.4-29.3,6-34-1.3-14.5-6.9-20.6-11-38a120.43,120.43,0,0,1-3-34,74.51,74.51,0,0,0-24-15c-14.7-5.6-28.1-5.1-29-3a3,3,0,0,0-.2,2,4.28,4.28,0,0,0,1.2,2c3.1,2.8,18.2,15.2,23,22,8.1,11.6,2.4,29.9,1,30-.4,0-1-1.4-1.9-3.5a22.76,22.76,0,0,1-1.1-3.5,200.55,200.55,0,0,1-3.1-21.4c-1.2-12.4-.7-19.5-3.9-20.6-2.8-1-6.7,3.4-9,6-2.8,3.1-5.4,7.2-8,15-6.1,18.4-3,30.7-2,34,.7,2.3,1.4,4.7,2.4,4.8,2.4,0,6.1-13.9,5-26.2-1.7-19-15.1-35.9-30.4-44.5-5.9-3.3-12.9-4.9-26.9-8.3a245,245,0,0,0-36.1-5.7c-10.4-1-19.8-1.4-28-1.5"/><path class="cls-1" d="M795.2,443.6c-8.7-8.3-29.3-26.1-57-33.9-15-4.2-34.9-6.2-42-1.1a20.83,20.83,0,0,1-7,3c-3.5.7-9.4,1-11-2a5.32,5.32,0,0,1-.2-3.7,7.61,7.61,0,0,1,2.2-3.3c4.4-3.7,29.9-5,49-1a18.63,18.63,0,0,0,7,0c2.8-.6,7.8-2.4,8-5,.2-2.9-5.8-5.8-10-7-4.5-1.2-8.3-.9-14,0-.3.1-29.5,4.7-36,3a3.44,3.44,0,0,1-1.4-.8c-1.8-1.8-1-6.3.4-8.2,3-3.9,11.2.1,25,2,24,3.4,35.1-3.5,37-6a8,8,0,0,0,1.5-3.6c0-.4.2-3-1.5-4.4a6.35,6.35,0,0,0-2.1-.9,7.29,7.29,0,0,0-2.9-.1,30.91,30.91,0,0,0-8.5,3,71.61,71.61,0,0,1-8.5,3c-5.4,1.7-8.2.8-21.5.4-14-.5-18.3.2-21.5-3.4-.2-.3-3-3.5-2-6,.7-1.8,3.5-4.3,6-3,12,6,25,8,38,4,9-3,17-8,22-16,6-11,4-22,4-34a18.54,18.54,0,0,1,2-7c6-10,16-19,17-31,3-33-33-56-63-53-17,2-30,13-41,26a59.33,59.33,0,0,0-9,29,68.81,68.81,0,0,0,4,24,101,101,0,0,0,6,14c11.3,22.9,17.1,34.4,27.7,40.8a37.46,37.46,0,0,0,14.3,5.2,33.53,33.53,0,0,0,24-6c7-6,10-14,11-23,1-10,1-19,5-28,4-7,10-13,14-21,5-11,1-23-6-33a55.09,55.09,0,0,0-29.8-21.3c-20.5-5-37,5.4-43.2,9.3-6.9,4.4-14.8,9.3-19,19-7.2,16.3.7,35.4,5,46,1.9,4.6,2.2,4.3,6,13,8.7,20.1,6.4,21.9,11,26,10,9,24,12,36,7a2.13,2.13,0,0,0,1-.9,3.64,3.64,0,0,0,0-3.1c0-.1-.7-3.8-2-11.4-1.1-6.5,1.5-13.6,3-13.6,1.7,0,5.1,9.1,2,17-1.8,4.5-6.3,10.4-11,10-8.2-.6-11.7-19.4-12-21-1.5-8.1-1-17.1.1-17.2,1.7-.1,9.2,25.2,1.7,30.4-7.1,5-20.3-13.5-47.8-15.2a72.6,72.6,0,0,0-21,2,78.53,78.53,0,0,0-35,19"/><path class="cls-1" d="M795.2,443.6c1.4,3.4,3.7,8.9,6,16,9.1,27.7,6.3,38.5,15.8,55.2,4.8,8.4,10.1,13.5,16.1,19.5,10.4,10.5,22.7,18.3,35.5,24.3a124.5,124.5,0,0,0,33.8,9.2,128.12,128.12,0,0,0,36.7-.4c3.1,5.8,6.2,11.6,9.3,17.5,16.3-2.1,32.6-4.1,48.9-6.2l3.3-17.7a58.89,58.89,0,0,0,10.9-4.5,52.92,52.92,0,0,0,10.6-7.8c7,1.1,13,1.8,19.4,4.8,9.8-15.1,19.6-30.3,29.4-45.4l-14.1-18.9c.7-11.6,1.5-23.2,2.2-34.9,4.9-4.8,9.9-9.6,14.8-14.3-5.9-11.5-11.8-23.1-17.7-34.6-4,.5-8,1.1-12,1.6a247.55,247.55,0,0,0-24.7-12.2,254,254,0,0,0-33.8-11.7c-3.4-5.9-6.9-11.8-10.3-17.7-14.3,1.2-28.6,2.5-42.9,3.7-2.7,6.5-5.3,13-8,19.5-11.5,7-19.8,17-27.4,28.3-6.4-1.9-12.8-3.9-19.1-5.8L856,452.5c4.8,4.9,9.6,9.9,14.3,14.8.7,2.5,1.4,5,2.2,7.5,2.3,8,4.7,16,7,24-3.7,6.7-7.5,13.4-11.2,20.1,10.7,11,21.5,21.9,32.2,32.9l26.7-9.9a82.1,82.1,0,0,0,26.2-3.6c5.3-1.6,27.2-8.4,27.6-18.8a8.47,8.47,0,0,0-3.5-7.2c-4.8-3.3-10.8,2.3-19,3.4-13.9,2-29.6-9.4-36.5-22.4-6-11.2-5.1-22.8-4.7-26.2.3-2.4.7-4.8,1.2-7.3a46.63,46.63,0,0,1,12.3-23.4,49.15,49.15,0,0,1,17.5-11.9c14.4-5.8,36.4-6.1,52.6,8.1,11.3,9.9,19.1,26.1,16.4,42.6-2.4,14.9-11.6,27.8-26.6,32.7-3.9,1.3-9.9-1.6-11.9-5.7-4.7-10.1,17-29.9,23.1-34.8,3.1-2.6,6.8-5.3,6.8-5.3s6.7-4.9,14.3-9.3c8.1-4.7,61.4-20.6,136.4-35.1"/><path class="cls-2" d="M599.2,391.9a112,112,0,0,0-27-53c-23-25.1-50.7-32-60.5-34,1.8,8.7,3.7,17.3,5.5,26-10.7,9.3-21.3,18.7-32,28-7.6-3.1-15.3-6.3-22.9-9.4a77.87,77.87,0,0,1-50.1,12.4c-8.7,6.3-17.3,12.7-26,19l-60-27c-.3-8.7-.7-17.3-1-26a113.6,113.6,0,0,1-20-20,116.33,116.33,0,0,1-12.8-20.5c-5.8-2.8-11.5-5.7-17.2-8.5v-46c7-3.7,14-7.3,21-11a193.22,193.22,0,0,1,7.4-22.3,217.42,217.42,0,0,1,9.6-20.8c-3-6.7-6-13.3-9-20,13.3-9,26.7-18,40-27,6.3,4,12.7,8,19,12a125.56,125.56,0,0,1,38.8-7.9,129.16,129.16,0,0,1,22.2.9c6.3-4.3,12.7-8.7,19-13,14.7,9.7,29.3,19.3,44,29-.7,7-1.3,14-2,21,3.7,4.8,7.3,9.8,11,15,2.4,3.4,4.7,6.7,7,10,6.7,1.7,13.3,3.3,20,5,.3,15.7.7,31.3,1,47-6.3,2.7-12.7,5.3-19,8-2.4,5.9-19.9,47.2-63,59-8.1,2.2-35,9.6-61-6-3.1-1.9-31.7-19.7-34-54-.4-5.8-1.5-34.1,21-53,2.3-1.9,27.9-22.7,56-11,23.1,9.6,32.7,34.9,31.5,54-1,15.8-9.4,27.4-11.9,30.8a72.93,72.93,0,0,1-19.6,17.2c-31.2,18.3-132.1,34.1-226,16l-51-10h0c-7,.7-11.4-.9-14.1-2.6-5.5-3.4-6.3-8.2-11.9-9.4-2.6-.5-6.5-.3-8,2-1.7,2.6.2,6.7,2,9,3.6,4.6,9.5,5,22,6,24.5,1.9,29.7,2.7,31,6,1.1,2.7-.6,6.6-3,8-3.5,2-6.9-1.9-16-5-12.6-4.3-13.9.3-24.3-4.2-1.8-.8-7.1-3.3-12.7-2.8-1.9.2-3.5.7-4.5,2a4.47,4.47,0,0,0-.5,4c1,3.3,6.3,4.4,10,5,12.2,2.1,14.7.6,25,2,12.5,1.7,13,4.7,21,6a6.61,6.61,0,0,1,4,2c1.3,1.4,2.1,3.8,1.2,5.6a3.4,3.4,0,0,1-1.2,1.4c-3.2,2.3-9.7,1-12.5.4-4.6-1-6.2-1.6-12.5-3.4-6.8-1.9-10.2-2.8-11.4-3-4.3-.7-7.4-.7-10.6-3-1.5-1.1-1.2-1.3-3-2.6-2.1-1.5-5.3-3.8-9-3.4-2,.3-5.2,1.4-6,4s1.4,5.3,2,6c3.9,4.8,10.6,4,22,5,0,0,9.7,1.9,37,11a7.23,7.23,0,0,1,4.5,3.6,3.91,3.91,0,0,1,.5,2.4c-.5,2.5-4.7,3.7-6,4-8.8,2.4-26.7-5.8-44-14.4,0,0-3.4-1.7-17-3.6a3.79,3.79,0,0,0-3,.5c-2.6,1.9-1.3,7.8-1,9.5,2.3,11.8-1.6,31.8-6,42-5.6,13-11.4,8.3-22,26-3.8,6.4-9.6,16.3-10,30a55.64,55.64,0,0,0,4,22c1.8,4.7,9.7,23.7,30,34,32,16.4,65.3-3.8,74-11a41.37,41.37,0,0,0,5-5c8.9-10.8,9-24.1,9-29,0-11.4-3.3-11-9-34-3.3-13.6-5.3-21.5-5.4-32.5-.1-15.1,3.4-17.1.4-22.5-4.3-7.8-16.5-9.5-41-13a26.18,26.18,0,0,0-12.8.7c-1.9.7-6.9,2.6-13.2,10.3-5.6,6.7-7.6,12.2-10,17-7.1,14.3-13.4,14.7-22,27-3,4.4-12.3,18.1-13,37-.9,25.8,15,44.6,19,49a46.89,46.89,0,0,0,5,5c24.5,20.9,82.2,16.7,100-14,7.8-13.4,6.4-29.3,6-34-1.3-14.5-6.9-20.6-11-38a120.43,120.43,0,0,1-3-34,74.51,74.51,0,0,0-24-15c-14.7-5.6-28.1-5.1-29-3a3,3,0,0,0-.2,2,4.28,4.28,0,0,0,1.2,2c3.1,2.8,18.2,15.2,23,22,8.1,11.6,2.4,29.9,1,30-.4,0-1-1.4-1.9-3.5a22.76,22.76,0,0,1-1.1-3.5,200.55,200.55,0,0,1-3.1-21.4c-1.2-12.4-.7-19.5-3.9-20.6-2.8-1-6.7,3.4-9,6-2.8,3.1-5.4,7.2-8,15-6.1,18.4-3,30.7-2,34,.7,2.3,1.4,4.7,2.4,4.8,2.4,0,6.1-13.9,5-26.2-1.7-19-15.1-35.9-30.4-44.5-5.9-3.3-12.9-4.9-26.9-8.3a245,245,0,0,0-36.1-5.7c-10.4-1-19.8-1.4-28-1.5"/><path class="cls-3" d="M795.2,484.9c-8.7-8.3-29.3-26.1-57-33.9-15-4.2-34.9-6.2-42-1.1a20.83,20.83,0,0,1-7,3c-3.5.7-9.4,1-11-2a5.32,5.32,0,0,1-.2-3.7,7.61,7.61,0,0,1,2.2-3.3c4.4-3.7,29.9-5,49-1a18.63,18.63,0,0,0,7,0c2.8-.6,7.8-2.4,8-5,.2-2.9-5.8-5.8-10-7-4.5-1.2-8.3-.9-14,0-.3.1-29.5,4.7-36,3a3.44,3.44,0,0,1-1.4-.8c-1.8-1.8-1-6.3.4-8.2,3-3.9,11.2.1,25,2,24,3.4,35.1-3.5,37-6a8,8,0,0,0,1.5-3.6c0-.4.2-3-1.5-4.4a6.35,6.35,0,0,0-2.1-.9,7.29,7.29,0,0,0-2.9-.1,30.91,30.91,0,0,0-8.5,3,71.61,71.61,0,0,1-8.5,3c-5.4,1.7-8.2.8-21.5.4-14-.5-18.3.2-21.5-3.4-.2-.3-3-3.5-2-6,.7-1.8,3.5-4.3,6-3,12,6,25,8,38,4,9-3,17-8,22-16,6-11,4-22,4-34a18.54,18.54,0,0,1,2-7c6-10,16-19,17-31,3-33-33-56-63-53-17,2-30,13-41,26a59.33,59.33,0,0,0-9,29,68.81,68.81,0,0,0,4,24,101,101,0,0,0,6,14c11.3,22.9,17.1,34.4,27.7,40.8a37.46,37.46,0,0,0,14.3,5.2,33.53,33.53,0,0,0,24-6c7-6,10-14,11-23,1-10,1-19,5-28,4-7,10-13,14-21,5-11,1-23-6-33a55.09,55.09,0,0,0-29.8-21.3c-20.5-5-37,5.4-43.2,9.3-6.9,4.4-14.8,9.3-19,19-7.2,16.3.7,35.4,5,46,1.9,4.6,2.2,4.3,6,13,8.7,20.1,6.4,21.9,11,26,10,9,24,12,36,7a2.13,2.13,0,0,0,1-.9,3.64,3.64,0,0,0,0-3.1c0-.1-.7-3.8-2-11.4-1.1-6.5,1.5-13.6,3-13.6,1.7,0,5.1,9.1,2,17-1.8,4.5-6.3,10.4-11,10-8.2-.6-11.7-19.4-12-21-1.5-8.1-1-17.1.1-17.2,1.7-.1,9.2,25.2,1.7,30.4-7.1,5-20.3-13.5-47.8-15.2a72.6,72.6,0,0,0-21,2,78.53,78.53,0,0,0-35,19"/><path class="cls-4" d="M795.2,484.9c1.4,3.4,3.7,8.9,6,16,9.1,27.7,6.3,38.5,15.8,55.2,4.8,8.4,10.1,13.5,16.1,19.5,10.4,10.5,22.7,18.3,35.5,24.3a124.5,124.5,0,0,0,33.8,9.2,128.12,128.12,0,0,0,36.7-.4c3.1,5.8,6.2,11.6,9.3,17.5,16.3-2.1,32.6-4.1,48.9-6.2l3.3-17.7a58.89,58.89,0,0,0,10.9-4.5,52.92,52.92,0,0,0,10.6-7.8c7,1.1,13,1.8,19.4,4.8,9.8-15.1,19.6-30.3,29.4-45.4l-14.1-18.9c.7-11.6,1.5-23.2,2.2-34.9,4.9-4.8,9.9-9.6,14.8-14.3-5.9-11.5-11.8-23.1-17.7-34.6-4,.5-8,1.1-12,1.6a247.55,247.55,0,0,0-24.7-12.2,254,254,0,0,0-33.8-11.7c-3.4-5.9-6.9-11.8-10.3-17.7-14.3,1.2-28.6,2.5-42.9,3.7-2.7,6.5-5.3,13-8,19.5-11.5,7-19.8,17-27.4,28.3-6.4-1.9-12.8-3.9-19.1-5.8L856,493.8c4.8,4.9,9.6,9.9,14.3,14.8.7,2.5,1.4,5,2.2,7.5,2.3,8,4.7,16,7,24-3.7,6.7-7.5,13.4-11.2,20.1,10.7,11,21.5,21.9,32.2,32.9l26.7-9.9a82.1,82.1,0,0,0,26.2-3.6c5.3-1.6,27.2-8.4,27.6-18.8a8.47,8.47,0,0,0-3.5-7.2c-4.8-3.3-10.8,2.3-19,3.4-13.9,2-29.6-9.4-36.5-22.4-6-11.2-5.1-22.8-4.7-26.2.3-2.4.7-4.8,1.2-7.3a46.63,46.63,0,0,1,12.3-23.4,49.15,49.15,0,0,1,17.5-11.9c14.4-5.8,36.4-6.1,52.6,8.1,11.3,9.9,19.1,26.1,16.4,42.6-2.4,14.9-11.6,27.8-26.6,32.7-3.9,1.3-9.9-1.6-11.9-5.7-4.7-10.1,17-29.9,23.1-34.8,3.1-2.6,6.8-5.3,6.8-5.3s6.7-4.9,14.3-9.3c8.1-4.7,61.4-20.6,136.4-35.1"/><rect class="cls-5" x="306.8" y="711.3" width="584.8" height="46.6"/><text class="cls-6" transform="translate(344.55 745.38)">m<tspan class="cls-7" x="51.75" y="0">offi</tspan><tspan class="cls-8" x="138.92" y="0">t</tspan><tspan class="cls-7" x="160.35" y="0">t ma</tspan><tspan class="cls-9" x="279.86" y="0">k</tspan><tspan class="cls-10" x="310.18" y="0">e</tspan><tspan class="cls-11" x="341.32" y="0">r</tspan><tspan class="cls-10" x="363.03" y="0">s</tspan><tspan class="cls-12" x="389.06" y="0">p</tspan><tspan x="423.2" y="0">a</tspan><tspan class="cls-13" x="453.83" y="0">c</tspan><tspan class="cls-10" x="482.72" y="0">e</tspan></text><text class="cls-14" transform="translate(344.55 745.38)">m<tspan class="cls-7" x="51.75" y="0">offi</tspan><tspan class="cls-8" x="138.92" y="0">t</tspan><tspan class="cls-7" x="160.35" y="0">t ma</tspan><tspan class="cls-9" x="279.86" y="0">k</tspan><tspan class="cls-10" x="310.18" y="0">e</tspan><tspan class="cls-11" x="341.32" y="0">r</tspan><tspan class="cls-10" x="363.03" y="0">s</tspan><tspan class="cls-12" x="389.06" y="0">p</tspan><tspan x="423.2" y="0">a</tspan><tspan class="cls-13" x="453.83" y="0">c</tspan><tspan class="cls-10" x="482.72" y="0">e</tspan></text></svg>