<?xml version="1.0" encoding="utf-8"?>
<!-- Generator: Adobe Illustrator 23.0.6, SVG Export Plug-In . SVG Version: 6.00 Build 0)  -->
<svg version="1.1" id="Layer_1" xmlns="http://www.w3.org/2000/svg" xmlns:xlink="http://www.w3.org/1999/xlink" x="0px" y="0px"
	 viewBox="0 0 1159.7 778" style="enable-background:new 0 0 1159.7 778;" xml:space="preserve">
<style type="text/css">
	.st0{opacity:0.8;fill:none;stroke:#000000;stroke-width:2.5;stroke-miterlimit:10;enable-background:new    ;}
	.st1{opacity:0.35;fill:none;stroke:#F3CE12;stroke-width:5;stroke-miterlimit:10;enable-background:new    ;}
	.st2{opacity:0.35;fill:none;stroke:#FFCF35;stroke-width:5;stroke-miterlimit:10;enable-background:new    ;}
	.st3{opacity:0.35;fill:none;stroke:#FFC817;stroke-width:5;stroke-miterlimit:10;enable-background:new    ;}
	.st4{fill:none;}
	.st5{fill:#231F20;stroke:#231F20;stroke-width:3;stroke-miterlimit:10;}
	.st6{font-family:'Montserrat-Regular';}
	.st7{font-size:46px;}
	.st8{letter-spacing:3;}
</style>
<path class="st0" d="M599.2,350.6c-2.1-10.2-8.1-32.4-27-53c-23-25.1-50.7-32-60.5-34c1.8,8.7,3.7,17.3,5.5,26
	c-10.7,9.3-21.3,18.7-32,28c-7.6-3.1-15.3-6.3-22.9-9.4c-4.8,3.1-11.5,6.8-20.1,9.4c-12.4,3.8-23.2,3.6-30,3
	c-8.7,6.3-17.3,12.7-26,19c-20-9-40-18-60-27c-0.3-8.7-0.7-17.3-1-26c-5.9-4.6-13.1-11.1-20-20c-5.8-7.4-9.9-14.6-12.8-20.5
	c-5.8-2.8-11.5-5.7-17.2-8.5c0-15.3,0-30.7,0-46c7-3.7,14-7.3,21-11c1.8-6.8,4.2-14.3,7.4-22.2c3.1-7.8,6.4-14.7,9.6-20.8
	c-3-6.7-6-13.3-9-20c13.3-9,26.7-18,40-27c6.3,4,12.7,8,19,12c9.5-3.6,22.8-7.2,38.8-7.9c8.3-0.4,15.7,0.1,22.2,0.9
	c6.3-4.3,12.7-8.7,19-13c14.7,9.7,29.3,19.3,44,29c-0.7,7-1.3,14-2,21c3.7,4.8,7.3,9.8,11,15c2.4,3.4,4.7,6.7,7,10
	c6.7,1.7,13.3,3.3,20,5c0.3,15.7,0.7,31.3,1,47c-6.3,2.7-12.7,5.3-19,8c-2.4,5.9-19.9,47.2-63,59c-8.1,2.2-35,9.6-61-6
	c-3.1-1.9-31.7-19.7-34-54c-0.4-5.8-1.5-34.1,21-53c2.3-1.9,27.9-22.7,56-11c23.1,9.6,32.7,34.9,31.5,54c-1,15.8-9.4,27.4-11.9,30.8
	c0,0-7.5,10.1-19.6,17.2c-31.2,18.3-132.1,34.1-226,16c-6.1-1.2-51-10-51-10l0,0c-7,0.7-11.4-0.9-14.1-2.6
	c-5.5-3.4-6.3-8.2-11.9-9.4c-2.6-0.5-6.5-0.3-8,2c-1.7,2.6,0.2,6.7,2,9c3.6,4.6,9.5,5,22,6c24.5,1.9,29.7,2.7,31,6
	c1.1,2.7-0.6,6.6-3,8c-3.5,2-6.9-1.9-16-5c-12.6-4.3-13.9,0.3-24.3-4.2c-1.8-0.8-7.1-3.3-12.7-2.8c-1.9,0.2-3.5,0.7-4.5,2
	c-0.9,1.2-0.9,2.9-0.5,4c1,3.3,6.3,4.4,10,5c12.2,2.1,14.7,0.6,25,2c12.5,1.7,13,4.7,21,6c0.6,0.1,2.6,0.4,4,2
	c1.3,1.4,2.1,3.8,1.2,5.6c-0.3,0.7-0.8,1.1-1.2,1.4c-3.2,2.3-9.7,1-12.5,0.4c-4.6-1-6.2-1.6-12.5-3.4c-6.8-1.9-10.2-2.8-11.4-3
	c-4.3-0.7-7.4-0.7-10.6-3c-1.5-1.1-1.2-1.3-3-2.6c-2.1-1.5-5.3-3.8-9-3.4c-2,0.3-5.2,1.4-6,4s1.4,5.3,2,6c3.9,4.8,10.6,4,22,5
	c0,0,9.7,1.9,37,11c2.1,0.7,3.7,1.9,4.5,3.6c0.2,0.4,0.7,1.4,0.5,2.4c-0.5,2.5-4.7,3.7-6,4c-8.8,2.4-26.7-5.8-44-14.4
	c0,0-3.4-1.7-17-3.6c-0.7-0.1-2-0.3-3,0.5c-2.6,1.9-1.3,7.8-1,9.5c2.3,11.8-1.6,31.8-6,42c-5.6,13-11.4,8.3-22,26
	c-3.8,6.4-9.6,16.3-10,30c-0.3,10.5,2.6,18.3,4,22c1.8,4.7,9.7,23.7,30,34c32,16.4,65.3-3.8,74-11c2.8-2.3,4.8-4.8,5-5
	c8.9-10.8,9-24.1,9-29c0-11.4-3.3-11-9-34c-3.3-13.6-5.3-21.5-5.4-32.5c-0.1-15.1,3.4-17.1,0.4-22.5c-4.3-7.8-16.5-9.5-41-13
	c-3.3-0.5-7.7-1-12.8,0.7c-1.9,0.7-6.9,2.6-13.2,10.3c-5.6,6.7-7.6,12.2-10,17c-7.1,14.3-13.4,14.7-22,27c-3,4.4-12.3,18.1-13,37
	c-0.9,25.8,15,44.6,19,49c1.3,1.5,2.9,3.2,5,5c24.5,20.9,82.2,16.7,100-14c7.8-13.4,6.4-29.3,6-34c-1.3-14.5-6.9-20.6-11-38
	c-3.3-13.9-3.4-25.8-3-34c-9.2-8.4-17.9-12.7-24-15c-14.7-5.6-28.1-5.1-29-3c-0.4,1-0.3,2-0.2,2c0.2,1.1,1,1.7,1.2,2
	c3.1,2.8,18.2,15.2,23,22c8.1,11.6,2.4,29.9,1,30c-0.4,0-1-1.4-1.9-3.5c-0.5-1.3-0.9-2.5-1.1-3.5c-0.9-4.7-2.3-12.1-3.1-21.4
	c-1.2-12.4-0.7-19.5-3.9-20.6c-2.8-1-6.7,3.4-9,6c-2.8,3.1-5.4,7.2-8,15c-6.1,18.4-3,30.7-2,34c0.7,2.3,1.4,4.7,2.4,4.8
	c2.4,0,6.1-13.9,5-26.2c-1.7-19-15.1-35.9-30.4-44.5c-5.9-3.3-12.9-4.9-26.9-8.3c-10.4-2.5-21.7-4.4-36.1-5.7
	c-10.4-1-19.8-1.4-28-1.5"/>
<path class="st0" d="M795.2,443.6c-8.7-8.3-29.3-26.1-57-33.9c-15-4.2-34.9-6.2-42-1.1c-0.3,0.2-3,2.1-7,3c-3.5,0.7-9.4,1-11-2
	c-0.8-1.5-0.3-3.4-0.2-3.7c0,0,0.5-1.8,2.2-3.3c4.4-3.7,29.9-5,49-1c0.6,0.1,3.5,0.7,7,0c2.8-0.6,7.8-2.4,8-5c0.2-2.9-5.8-5.8-10-7
	c-4.5-1.2-8.3-0.9-14,0c-0.3,0.1-29.5,4.7-36,3c-0.3-0.1-0.9-0.3-1.4-0.8c-1.8-1.8-1-6.3,0.4-8.2c3-3.9,11.2,0.1,25,2
	c24,3.4,35.1-3.5,37-6c1.3-1.7,1.5-3.6,1.5-3.6c0-0.4,0.2-3-1.5-4.4c-0.7-0.5-1.4-0.7-2.1-0.9c-1.2-0.3-2.3-0.2-2.9-0.1
	c-3.3,0.4-8,2.7-8.5,3c0,0-1.8,0.9-8.5,3c-5.4,1.7-8.2,0.8-21.5,0.4c-14-0.5-18.3,0.2-21.5-3.4c-0.2-0.3-3-3.5-2-6
	c0.7-1.8,3.5-4.3,6-3c12,6,25,8,38,4c9-3,17-8,22-16c6-11,4-22,4-34c0-2,1-5,2-7c6-10,16-19,17-31c3-33-33-56-63-53
	c-17,2-30,13-41,26c-3.6,5.9-8.6,16-9,29c-0.3,10.4,2.3,18.8,4,24c1.2,3.6,2.5,6.9,6,14c11.3,22.9,17.1,34.4,27.7,40.8
	c6.8,4.1,12.7,5,14.3,5.2c9,1,17-1,24-6c7-6,10-14,11-23c1-10,1-19,5-28c4-7,10-13,14-21c5-11,1-23-6-33
	c-10.8-15.4-26.1-20.4-29.8-21.3c-20.5-5-37,5.4-43.2,9.3c-6.9,4.4-14.8,9.3-19,19c-7.2,16.3,0.7,35.4,5,46c1.9,4.6,2.2,4.3,6,13
	c8.7,20.1,6.4,21.9,11,26c10,9,24,12,36,7c0.7-0.3,1-0.9,1-0.9c0.7-1.1,0.2-2.7,0-3.1c0-0.1-0.7-3.8-2-11.4
	c-1.1-6.5,1.5-13.6,3-13.6c1.7,0,5.1,9.1,2,17c-1.8,4.5-6.3,10.4-11,10c-8.2-0.6-11.7-19.4-12-21c-1.5-8.1-1-17.1,0.1-17.2
	c1.7-0.1,9.2,25.2,1.7,30.4c-7.1,5-20.3-13.5-47.8-15.2c-1.7-0.1-10.3-0.6-21,2c-17.4,4.2-29.1,13.5-35,19"/>
<path class="st0" d="M795.2,443.6c1.4,3.4,3.7,8.9,6,16c9.1,27.7,6.3,38.5,15.8,55.2c4.8,8.4,10.1,13.5,16.1,19.5
	c10.4,10.5,22.7,18.3,35.5,24.3c3,1.4,15.8,6.8,33.8,9.2c15.1,2,27.8,1,36.7-0.4c3.1,5.8,6.2,11.6,9.3,17.5
	c16.3-2.1,32.6-4.1,48.9-6.2c1.1-5.9,2.2-11.8,3.3-17.7c3-0.9,6.8-2.3,10.9-4.5c4.6-2.6,8.1-5.4,10.6-7.8c7,1.1,13,1.8,19.4,4.8
	c9.8-15.1,19.6-30.3,29.4-45.4c-4.7-6.3-9.4-12.6-14.1-18.9c0.7-11.6,1.5-23.2,2.2-34.9c4.9-4.8,9.9-9.6,14.8-14.3
	c-5.9-11.5-11.8-23.1-17.7-34.6c-4,0.5-8,1.1-12,1.6c-7.3-4.1-15.5-8.3-24.7-12.2c-12.2-5.2-23.7-9-33.8-11.7
	c-3.4-5.9-6.9-11.8-10.3-17.7c-14.3,1.2-28.6,2.5-42.9,3.7c-2.7,6.5-5.3,13-8,19.5c-11.5,7-19.8,17-27.4,28.3
	c-6.4-1.9-12.8-3.9-19.1-5.8c-7.3,13.8-14.6,27.6-21.9,41.4c4.8,4.9,9.6,9.9,14.3,14.8c0.7,2.5,1.4,5,2.2,7.5c2.3,8,4.7,16,7,24
	c-3.7,6.7-7.5,13.4-11.2,20.1c10.7,11,21.5,21.9,32.2,32.9c8.9-3.3,17.8-6.6,26.7-9.9c11.3,0.2,20.2-1.7,26.2-3.6
	c5.3-1.6,27.2-8.4,27.6-18.8c0.1-2.7-1.2-5.7-3.5-7.2c-4.8-3.3-10.8,2.3-19,3.4c-13.9,2-29.6-9.4-36.5-22.4
	c-6-11.2-5.1-22.8-4.7-26.2c0.3-2.4,0.7-4.8,1.2-7.3c1.6-8.9,6.2-16.9,12.3-23.4c1.7-1.8,7.8-8.1,17.5-11.9
	c14.4-5.8,36.4-6.1,52.6,8.1c11.3,9.9,19.1,26.1,16.4,42.6c-2.4,14.9-11.6,27.8-26.6,32.7c-3.9,1.3-9.9-1.6-11.9-5.7
	c-4.7-10.1,17-29.9,23.1-34.8c3.1-2.6,6.8-5.3,6.8-5.3s6.7-4.9,14.3-9.3c8.1-4.7,61.4-20.6,136.4-35.1"/>
<path class="st1" d="M599.2,391.9c-2.1-10.2-8.1-32.4-27-53c-23-25.1-50.7-32-60.5-34c1.8,8.7,3.7,17.3,5.5,26
	c-10.7,9.3-21.3,18.7-32,28c-7.6-3.1-15.3-6.3-22.9-9.4c-4.8,3.1-11.5,6.8-20.1,9.4c-12.4,3.8-23.2,3.6-30,3
	c-8.7,6.3-17.3,12.7-26,19c-20-9-40-18-60-27c-0.3-8.7-0.7-17.3-1-26c-5.9-4.6-13.1-11.1-20-20c-5.8-7.4-9.9-14.6-12.8-20.5
	c-5.8-2.8-11.5-5.7-17.2-8.5c0-15.3,0-30.7,0-46c7-3.7,14-7.3,21-11c1.8-6.8,4.2-14.3,7.4-22.3c3.1-7.8,6.4-14.7,9.6-20.8
	c-3-6.7-6-13.3-9-20c13.3-9,26.7-18,40-27c6.3,4,12.7,8,19,12c9.5-3.6,22.8-7.2,38.8-7.9c8.3-0.4,15.7,0.1,22.2,0.9
	c6.3-4.3,12.7-8.7,19-13c14.7,9.7,29.3,19.3,44,29c-0.7,7-1.3,14-2,21c3.7,4.8,7.3,9.8,11,15c2.4,3.4,4.7,6.7,7,10
	c6.7,1.7,13.3,3.3,20,5c0.3,15.7,0.7,31.3,1,47c-6.3,2.7-12.7,5.3-19,8c-2.4,5.9-19.9,47.2-63,59c-8.1,2.2-35,9.6-61-6
	c-3.1-1.9-31.7-19.7-34-54c-0.4-5.8-1.5-34.1,21-53c2.3-1.9,27.9-22.7,56-11c23.1,9.6,32.7,34.9,31.5,54c-1,15.8-9.4,27.4-11.9,30.8
	c0,0-7.5,10.1-19.6,17.2c-31.2,18.3-132.1,34.1-226,16c-6.1-1.2-51-10-51-10l0,0c-7,0.7-11.4-0.9-14.1-2.6
	c-5.5-3.4-6.3-8.2-11.9-9.4c-2.6-0.5-6.5-0.3-8,2c-1.7,2.6,0.2,6.7,2,9c3.6,4.6,9.5,5,22,6c24.5,1.9,29.7,2.7,31,6
	c1.1,2.7-0.6,6.6-3,8c-3.5,2-6.9-1.9-16-5c-12.6-4.3-13.9,0.3-24.3-4.2c-1.8-0.8-7.1-3.3-12.7-2.8c-1.9,0.2-3.5,0.7-4.5,2
	c-0.9,1.2-0.9,2.9-0.5,4c1,3.3,6.3,4.4,10,5c12.2,2.1,14.7,0.6,25,2c12.5,1.7,13,4.7,21,6c0.6,0.1,2.6,0.4,4,2
	c1.3,1.4,2.1,3.8,1.2,5.6c-0.3,0.7-0.8,1.1-1.2,1.4c-3.2,2.3-9.7,1-12.5,0.4c-4.6-1-6.2-1.6-12.5-3.4c-6.8-1.9-10.2-2.8-11.4-3
	c-4.3-0.7-7.4-0.7-10.6-3c-1.5-1.1-1.2-1.3-3-2.6c-2.1-1.5-5.3-3.8-9-3.4c-2,0.3-5.2,1.4-6,4s1.4,5.3,2,6c3.9,4.8,10.6,4,22,5
	c0,0,9.7,1.9,37,11c2.1,0.7,3.7,1.9,4.5,3.6c0.2,0.4,0.7,1.4,0.5,2.4c-0.5,2.5-4.7,3.7-6,4c-8.8,2.4-26.7-5.8-44-14.4
	c0,0-3.4-1.7-17-3.6c-0.7-0.1-2-0.3-3,0.5c-2.6,1.9-1.3,7.8-1,9.5c2.3,11.8-1.6,31.8-6,42c-5.6,13-11.4,8.3-22,26
	c-3.8,6.4-9.6,16.3-10,30c-0.3,10.5,2.6,18.3,4,22c1.8,4.7,9.7,23.7,30,34c32,16.4,65.3-3.8,74-11c2.8-2.3,4.8-4.8,5-5
	c8.9-10.8,9-24.1,9-29c0-11.4-3.3-11-9-34c-3.3-13.6-5.3-21.5-5.4-32.5c-0.1-15.1,3.4-17.1,0.4-22.5c-4.3-7.8-16.5-9.5-41-13
	c-3.3-0.5-7.7-1-12.8,0.7c-1.9,0.7-6.9,2.6-13.2,10.3c-5.6,6.7-7.6,12.2-10,17c-7.1,14.3-13.4,14.7-22,27c-3,4.4-12.3,18.1-13,37
	c-0.9,25.8,15,44.6,19,49c1.3,1.5,2.9,3.2,5,5c24.5,20.9,82.2,16.7,100-14c7.8-13.4,6.4-29.3,6-34c-1.3-14.5-6.9-20.6-11-38
	c-3.3-13.9-3.4-25.8-3-34c-9.2-8.4-17.9-12.7-24-15c-14.7-5.6-28.1-5.1-29-3c-0.4,1-0.3,2-0.2,2c0.2,1.1,1,1.7,1.2,2
	c3.1,2.8,18.2,15.2,23,22c8.1,11.6,2.4,29.9,1,30c-0.4,0-1-1.4-1.9-3.5c-0.5-1.3-0.9-2.5-1.1-3.5c-0.9-4.7-2.3-12.1-3.1-21.4
	c-1.2-12.4-0.7-19.5-3.9-20.6c-2.8-1-6.7,3.4-9,6c-2.8,3.1-5.4,7.2-8,15c-6.1,18.4-3,30.7-2,34c0.7,2.3,1.4,4.7,2.4,4.8
	c2.4,0,6.1-13.9,5-26.2c-1.7-19-15.1-35.9-30.4-44.5c-5.9-3.3-12.9-4.9-26.9-8.3c-10.4-2.5-21.7-4.4-36.1-5.7
	c-10.4-1-19.8-1.4-28-1.5"/>
<path class="st2" d="M795.2,484.9c-8.7-8.3-29.3-26.1-57-33.9c-15-4.2-34.9-6.2-42-1.1c-0.3,0.2-3,2.1-7,3c-3.5,0.7-9.4,1-11-2
	c-0.8-1.5-0.3-3.4-0.2-3.7c0,0,0.5-1.8,2.2-3.3c4.4-3.7,29.9-5,49-1c0.6,0.1,3.5,0.7,7,0c2.8-0.6,7.8-2.4,8-5c0.2-2.9-5.8-5.8-10-7
	c-4.5-1.2-8.3-0.9-14,0c-0.3,0.1-29.5,4.7-36,3c-0.3-0.1-0.9-0.3-1.4-0.8c-1.8-1.8-1-6.3,0.4-8.2c3-3.9,11.2,0.1,25,2
	c24,3.4,35.1-3.5,37-6c1.3-1.7,1.5-3.6,1.5-3.6c0-0.4,0.2-3-1.5-4.4c-0.7-0.5-1.4-0.7-2.1-0.9c-1.2-0.3-2.3-0.2-2.9-0.1
	c-3.3,0.4-8,2.7-8.5,3c0,0-1.8,0.9-8.5,3c-5.4,1.7-8.2,0.8-21.5,0.4c-14-0.5-18.3,0.2-21.5-3.4c-0.2-0.3-3-3.5-2-6
	c0.7-1.8,3.5-4.3,6-3c12,6,25,8,38,4c9-3,17-8,22-16c6-11,4-22,4-34c0-2,1-5,2-7c6-10,16-19,17-31c3-33-33-56-63-53
	c-17,2-30,13-41,26c-3.6,5.9-8.6,16-9,29c-0.3,10.4,2.3,18.8,4,24c1.2,3.6,2.5,6.9,6,14c11.3,22.9,17.1,34.4,27.7,40.8
	c6.8,4.1,12.7,5,14.3,5.2c9,1,17-1,24-6c7-6,10-14,11-23c1-10,1-19,5-28c4-7,10-13,14-21c5-11,1-23-6-33
	c-10.8-15.4-26.1-20.4-29.8-21.3c-20.5-5-37,5.4-43.2,9.3c-6.9,4.4-14.8,9.3-19,19c-7.2,16.3,0.7,35.4,5,46c1.9,4.6,2.2,4.3,6,13
	c8.7,20.1,6.4,21.9,11,26c10,9,24,12,36,7c0.7-0.3,1-0.9,1-0.9c0.7-1.1,0.2-2.7,0-3.1c0-0.1-0.7-3.8-2-11.4
	c-1.1-6.5,1.5-13.6,3-13.6c1.7,0,5.1,9.1,2,17c-1.8,4.5-6.3,10.4-11,10c-8.2-0.6-11.7-19.4-12-21c-1.5-8.1-1-17.1,0.1-17.2
	c1.7-0.1,9.2,25.2,1.7,30.4c-7.1,5-20.3-13.5-47.8-15.2c-1.7-0.1-10.3-0.6-21,2c-17.4,4.2-29.1,13.5-35,19"/>
<path class="st3" d="M795.2,484.9c1.4,3.4,3.7,8.9,6,16c9.1,27.7,6.3,38.5,15.8,55.2c4.8,8.4,10.1,13.5,16.1,19.5
	c10.4,10.5,22.7,18.3,35.5,24.3c3,1.4,15.8,6.8,33.8,9.2c15.1,2,27.8,1,36.7-0.4c3.1,5.8,6.2,11.6,9.3,17.5
	c16.3-2.1,32.6-4.1,48.9-6.2c1.1-5.9,2.2-11.8,3.3-17.7c3-0.9,6.8-2.3,10.9-4.5c4.6-2.6,8.1-5.4,10.6-7.8c7,1.1,13,1.8,19.4,4.8
	c9.8-15.1,19.6-30.3,29.4-45.4c-4.7-6.3-9.4-12.6-14.1-18.9c0.7-11.6,1.5-23.2,2.2-34.9c4.9-4.8,9.9-9.6,14.8-14.3
	c-5.9-11.5-11.8-23.1-17.7-34.6c-4,0.5-8,1.1-12,1.6c-7.3-4.1-15.5-8.3-24.7-12.2c-12.2-5.2-23.7-9-33.8-11.7
	c-3.4-5.9-6.9-11.8-10.3-17.7c-14.3,1.2-28.6,2.5-42.9,3.7c-2.7,6.5-5.3,13-8,19.5c-11.5,7-19.8,17-27.4,28.3
	c-6.4-1.9-12.8-3.9-19.1-5.8c-7.3,13.8-14.6,27.6-21.9,41.4c4.8,4.9,9.6,9.9,14.3,14.8c0.7,2.5,1.4,5,2.2,7.5c2.3,8,4.7,16,7,24
	c-3.7,6.7-7.5,13.4-11.2,20.1c10.7,11,21.5,21.9,32.2,32.9c8.9-3.3,17.8-6.6,26.7-9.9c11.3,0.2,20.2-1.7,26.2-3.6
	c5.3-1.6,27.2-8.4,27.6-18.8c0.1-2.7-1.2-5.7-3.5-7.2c-4.8-3.3-10.8,2.3-19,3.4c-13.9,2-29.6-9.4-36.5-22.4
	c-6-11.2-5.1-22.8-4.7-26.2c0.3-2.4,0.7-4.8,1.2-7.3c1.6-8.9,6.2-16.9,12.3-23.4c1.7-1.8,7.8-8.1,17.5-11.9
	c14.4-5.8,36.4-6.1,52.6,8.1c11.3,9.9,19.1,26.1,16.4,42.6c-2.4,14.9-11.6,27.8-26.6,32.7c-3.9,1.3-9.9-1.6-11.9-5.7
	c-4.7-10.1,17-29.9,23.1-34.8c3.1-2.6,6.8-5.3,6.8-5.3s6.7-4.9,14.3-9.3c8.1-4.7,61.4-20.6,136.4-35.1"/>
<rect x="306.8" y="711.3" class="st4" width="584.8" height="46.6"/>
<text transform="matrix(1 0 0 1 344.5511 745.3849)" class="st5 st6 st7 st8">moffitt makerspace</text>
</svg>
