<svg width="375" height="618" viewBox="0 0 375 618" fill="none" xmlns="http://www.w3.org/2000/svg">
<path d="M167.414 191.373C152.485 203.113 145.388 201.236 135.697 209.882C126.12 218.418 118.517 233.19 118.958 246.899C119.997 279.223 165.137 286.428 167.414 320.052C168.687 338.869 155.216 346.422 161.247 358.832C168.916 374.612 200.201 381.928 213.227 370.73C223.888 361.564 215.051 346.246 214.989 294.492C214.959 266.404 214.941 252.363 219.394 233.679C227.764 198.592 242.35 186.416 235.253 175.509C227.87 164.161 202.99 163.355 187.678 171.984C178.678 177.051 180.193 181.322 167.414 191.373Z" stroke="#E06B65" stroke-width="5" stroke-miterlimit="10"/>
<path d="M149.796 185.204C136.457 193.656 127.841 199.116 119.841 207.238C111.366 215.844 103.613 223.719 101.34 235.441C97.4016 255.765 111.441 279.892 128.652 290.967C136.07 295.739 141.845 296.656 147.153 304.187C153.787 313.6 153.712 324.899 153.32 329.746C152.223 343.372 145.514 345.267 144.51 357.069C143.629 367.539 147.787 379.054 155.082 386.594C172.522 404.613 203.204 395.112 207.944 393.645C216.551 391.001 231.194 386.449 238.78 373.374C248.348 356.883 236.608 344.174 231.731 293.611C229.881 274.437 229.013 264.61 231.731 253.068C236.969 230.827 247.251 228.346 253.317 207.238C253.986 204.911 265.171 164.258 245.387 149.068C232.247 138.981 210.045 143.652 197.372 150.831C187.24 156.559 185.967 162.354 167.417 174.627C159.985 179.545 160.087 178.682 149.796 185.204Z" stroke="#E06B65" stroke-width="5" stroke-miterlimit="10"/>
<path d="M130.413 175.508C124.686 180.994 123.021 184.762 114.555 191.372C104.718 199.066 101.317 198.423 95.172 204.592C85.8243 213.961 83.4279 225.719 82.8376 229.271C81.124 239.596 83.6085 247.193 88.1238 260.999C92.9694 275.842 95.4054 283.263 101.339 288.322C112.017 297.426 121.973 292.596 131.294 303.305C134.931 307.585 137.363 312.756 138.342 318.288C139.122 322.668 138.897 327.04 133.937 342.966C128.276 361.135 126.721 361.373 126.008 368.085C125.779 370.231 124.418 383.068 130.413 393.644C139.443 409.601 160.606 412.421 171.821 413.915C177.9 414.726 217.608 420.014 244.506 391.881C248.968 387.214 261.487 374.122 263.007 355.305C264.386 338.224 255.153 335.593 250.673 309.474C249.268 301.273 246.056 281.24 253.316 259.237C257.404 246.854 260.408 247.171 266.531 233.677C280.72 202.389 277.24 172.767 276.223 164.931C273.549 144.365 271.174 126.103 256.84 117.338C239.62 106.81 215.269 116.183 202.657 124.389C186.138 135.133 191.389 142.809 173.583 154.355C155.438 166.121 145.355 161.15 130.413 175.508Z" stroke="#E06B65" stroke-width="5" stroke-miterlimit="10"/>
<path d="M111.03 170.22C99.9515 178.593 101.053 178.479 95.1719 182.559C78.4853 194.132 73.9568 191.911 68.7412 199.305C63.2524 207.092 63.3537 216.54 63.455 225.746C63.5299 232.599 64.5959 237.521 66.0981 244.255C69.6222 260.031 72.5648 261.952 76.6704 276.865C82.0182 296.255 79.1989 300.935 84.5996 305.068C92.9914 311.489 102.506 302.305 112.792 308.594C121.708 314.045 125.373 327.543 123.365 337.679C121.162 348.722 113.673 348.515 109.268 360.594C104.079 374.868 109.462 389.185 112.792 398.052C115.92 406.367 120.237 417.882 131.294 426.255C149.721 440.242 175.887 437.272 191.204 431.543C200.683 427.991 204.058 424.1 219.396 419.204C228.647 416.256 231.603 416.327 241.422 413.035C254.025 408.809 260.853 406.517 267.412 401.577C279.584 392.407 289.072 375.427 287.676 358.831C287.103 352.027 283.478 344.892 276.222 330.628C267.245 312.97 264.439 313.106 262.126 304.187C258.73 291.099 261.862 279.606 264.769 268.933C268.835 254.016 273.359 249.014 278.866 236.322C278.866 236.322 288.469 214.187 290.319 186.966C291.759 165.756 294.125 130.912 270.936 112.932C247.748 94.9523 207.859 100.527 190.323 119.102C180.098 129.929 182.05 140.364 169.178 147.305C156.306 154.246 148.972 146.706 132.175 155.237C128.254 157.22 122.514 161.561 111.03 170.22Z" stroke="#E06B65" stroke-width="5" stroke-miterlimit="10"/>
<path d="M83.7166 154.356C77.0296 163.033 75.6772 168.167 66.9771 175.509C55.907 184.851 50.4843 182.956 44.0705 190.492C35.0091 201.139 36.2426 216.184 37.0223 225.746C37.8372 235.71 39.8856 236.966 49.3566 265.408C55.9335 285.15 56.2022 288.323 60.8099 298.018C67.5894 312.287 72.021 321.29 81.0735 324.459C91.6458 328.16 99.9582 320.876 103.98 325.34C107.266 328.984 103.416 335.718 99.575 350.018C98.9759 352.221 94.9012 367.645 94.2889 381.306C93.9453 388.952 94.2492 405.808 103.099 423.611C107.385 432.227 112.931 443.389 125.125 450.934C144.648 463.017 167.414 457.319 178.867 454.459C191.884 451.202 189.836 448.898 208.822 442.12C227.531 435.444 232.856 436.488 262.124 428.9C283.775 423.285 294.603 420.478 299.127 416.561C315.69 402.221 320.135 372.823 312.342 350.899C304.766 329.588 290.722 329.667 283.269 305.069C278.137 288.133 280.3 273.256 281.507 267.17C285.405 247.498 295.052 240.315 305.294 222.221C320.404 195.529 322.703 170.005 323.796 157.882C325.972 133.737 329.566 93.8598 303.532 71.0678C276.529 47.4298 228.297 51.4929 203.536 71.9492C187.774 84.9713 190.074 97.5747 170.057 109.407C152.229 119.948 146.388 112.32 122.482 124.39C113.297 129.017 96.8438 137.333 83.7166 154.356Z" stroke="#E06B65" stroke-width="5" stroke-miterlimit="10"/>
<path d="M70.5027 142.899C68.2341 149.121 70.2869 151.558 66.9786 157C63.9523 161.984 59.415 164.576 39.6669 172.865C25.1828 178.942 26.5176 178.012 24.6894 179.034C13.615 185.204 -0.617985 200.002 0.0207578 215.17C0.721172 231.762 18.5223 232.357 31.7376 261.882C35.1428 269.488 34.0812 269.713 40.5479 285.679C46.7151 300.882 51.3757 309.819 57.2874 318.289C63.9919 327.891 68.5777 334.268 75.7889 335.035C83.163 335.819 87.762 330.148 90.7663 332.391C93.9908 334.801 91.0218 343.073 88.1232 354.425C84.0088 370.527 81.6873 379.632 81.956 389.238C82.26 400.057 86.8589 409.673 96.0524 428.9C101.519 440.331 104.369 446.157 110.149 451.815C119.492 460.959 129.906 464.189 135.699 465.917C154.059 471.386 169.984 468.072 179.75 465.917C183.622 465.062 192.666 461.81 210.586 455.34C234.977 446.527 231.73 447.28 237.016 445.645C261.654 438.044 268.782 441.472 289.437 434.188C301.186 430.045 308.049 427.622 314.987 421.849C339.215 401.67 346.052 355.778 328.202 335.035C317.392 322.476 303.164 325.675 295.604 310.357C290.684 300.38 292.367 290.205 293.842 281.272C296.926 262.728 304.829 254.972 314.987 234.56C322.529 219.414 326.106 207.731 330.845 192.255C339.453 164.153 341.858 142.057 344.061 120.865C348.206 80.8906 350.105 60.6105 341.418 46.3898C332.907 32.4555 317.423 21.1212 300.891 17.3049C275.068 11.347 263.363 27.586 239.659 18.1863C225.594 12.6073 223.977 4.61337 210.586 3.2032C199.696 2.05743 185.208 5.70185 177.107 15.5422C162.178 33.685 184.234 54.322 172.702 77.2374C163.579 95.3625 138.271 105.309 98.6955 120.865C90.7971 123.967 75.3439 129.625 70.5027 142.899Z" stroke="#E06B65" stroke-width="5" stroke-miterlimit="10"/>
<path d="M363.004 122.187C361.554 122.187 361.145 139.374 354.537 157.565C354.18 158.547 352.066 164.281 349.348 171.543C341.027 193.758 340.397 194.137 339.216 198.865C335.595 213.364 337.705 215.611 333.93 225.747C329.212 238.412 324.992 237.35 317.631 253.069C312.455 264.125 310.64 272.983 309.261 279.95C307.257 290.086 306.266 295.427 308.38 301.984C310.583 308.828 314.931 313.111 319.393 317.408C329.736 327.367 334.124 325.287 340.097 331.51C349.824 341.645 343.886 353.103 350.229 375.137C353.581 386.797 359.823 402.635 363.004 402.019C366.554 401.327 364.876 380.425 363.004 357.069C361.396 337.04 359.894 333.233 357.277 329.747C350.387 320.581 342.74 322.952 331.287 311.679C326.534 307.008 319.864 300.455 318.512 290.967C318.138 288.354 317.728 282.423 331.287 257.476C340.798 239.976 341.022 242.863 343.621 235.882C349.04 221.34 346.004 214.395 352.872 199.747C354.004 197.336 359.669 185.248 363.004 186.086C366.753 187.024 367.73 204.361 363.004 219.577C362.215 222.111 358.22 230.669 350.229 247.781C349.035 250.337 347.392 253.836 345.123 258.357C341.599 265.408 339.837 268.933 337.454 272.899C331.52 282.824 329.415 283.238 329.084 287.442C328.507 294.753 334.309 300.609 334.811 301.103C340.326 306.519 344.868 304.033 353.753 309.917C360.405 314.323 360.691 317.593 363.004 317.408C372.995 316.619 379.708 254.664 370.933 252.187C367.62 251.253 365.924 259.877 349.348 275.543C344.859 279.783 341.908 282.061 341.859 285.679C341.762 292.805 352.973 301.473 359.039 300.222C383.351 295.211 367.629 122.152 363.004 122.187Z" stroke="#99CCFF" stroke-width="5" stroke-miterlimit="10"/>
<path d="M60.3721 609.578C66.4491 601.367 73.3903 593.832 81.0762 587.104C95.4149 574.549 105.793 565.462 119.841 565.51C135.823 565.563 148.241 577.409 153.32 582.256C166.333 594.67 164.426 603.03 175.786 609.578C188.231 616.748 206.098 615.704 208.825 609.578C212.036 602.355 194.195 588.082 173.143 571.239C153.029 555.15 142.717 547.072 129.973 545.68C107.921 543.265 89.9834 556.542 86.8029 558.9C70.7021 570.798 72.4157 581.075 52.0024 597.239C45.5973 602.311 30.8578 613.985 24.2501 609.578C19.2018 606.22 19.6688 594.013 24.2501 585.341C29.7389 574.954 37.7078 576.131 55.967 563.748C72.266 552.695 71.3849 548.042 86.8029 539.51C95.0977 534.918 102.661 530.727 113.234 529.815C122.291 529.035 131.876 532.517 150.677 539.51C168.641 546.195 177.619 549.536 183.275 554.493C193.482 563.443 189.363 566.713 203.979 582.256C215.208 594.198 217.595 592.22 224.683 602.087C226.851 605.101 228.974 608.551 233.053 609.578C238.965 611.068 246.925 606.934 247.149 602.968C247.475 597.116 230.93 594.992 220.719 583.578C216.071 578.383 211.314 572.231 211.314 572.231C209.86 570.349 208.49 568.511 208.111 568.005C205.006 563.822 202.825 560.667 202.217 559.781C197.993 553.687 192.645 545.966 189.002 542.154C182.654 535.509 180.125 539.29 159.047 530.697C145.528 525.184 139.418 520.715 125.127 517.917C122.644 517.403 120.135 517.015 117.612 516.753C113.163 516.313 100.203 515.136 85.9218 520.561C82.3184 521.931 71.31 526.246 61.6937 536.425C55.3679 543.119 53.6807 548.077 46.7162 550.527C45.1172 551.091 37.3818 553.581 31.7388 549.646C26.8932 546.266 25.5717 539.51 24.2501 532.9C24.021 531.75 23.8096 530.366 23.5321 527.925C22.3867 517.199 22.5762 504.009 24.2501 503.815C26.1003 503.604 25.4439 519.772 35.2629 525.408C36.7034 526.237 40.8706 528.273 50.2403 526.29C66.3895 522.87 69.0106 513.638 81.9572 507.341C100.758 498.196 123.229 504.053 139.224 508.222C148.391 510.61 150.043 512.228 161.69 514.832C181.152 519.182 184.716 516.493 190.764 521.442C194.358 524.382 192.759 525.051 205.741 547.002C209.16 552.779 210.485 554.789 212.349 557.137C216.313 562.148 218.868 563.822 227.326 571.239C240.581 582.86 238.837 582.697 243.185 585.341C252.264 590.871 256.722 589.673 259.484 594.595C262.893 600.668 257.986 605.837 261.246 609.578C265.699 614.69 281.166 612.31 283.712 605.171C285.333 600.624 281.276 595.371 277.492 590.466C273.527 585.319 269.519 582.476 263.008 577.849C259.105 575.077 258.162 574.765 245.387 566.392C242.881 564.748 241.63 563.928 240.572 563.223C234.643 559.257 224.146 552.206 218.076 545.68C209.089 535.985 214.076 531.944 205.741 520.561C195.468 506.525 179.817 501.647 176.667 500.73C163.417 496.87 161.249 501.942 142.307 498.086C134.148 496.389 126.179 493.879 118.52 490.595C103.595 483.923 101.49 478.833 93.4105 479.137C85.7897 479.424 80.1511 484.24 72.7065 490.595C59.447 501.911 57.4031 511.122 52.0024 510.425C46.7867 509.751 43.7075 500.514 40.9896 492.357C38.1615 483.874 37.906 478.463 37.025 472.968C33.2542 449.735 21.6335 447.739 19.4045 427.578C17.9728 414.63 21.259 401.811 24.2501 401.578C26.761 401.379 27.9857 410.144 36.1439 430.662C43.3507 448.792 44.8661 448.171 46.7162 456.662C50.1522 472.439 46.4784 481.75 51.1214 483.985C53.575 485.166 58.5176 482.292 68.3013 476.493C80.0146 469.552 80.0146 468.12 84.1598 467.239C88.4812 466.327 92.393 467.067 108.388 473.849C125.616 481.151 123.63 481.38 129.092 483.103C142.845 487.448 146.519 483.209 165.655 485.747C171.328 486.501 181.738 487.951 193.847 493.239C205.878 498.487 218.15 503.842 221.6 514.832C223.829 521.94 220.653 525.924 224.683 533.781C227.485 539.241 231.604 542.366 234.815 544.798C244.066 551.814 247.246 548.848 256.4 555.375C261.514 559.019 260.003 559.574 271.377 569.476C275.241 572.839 276.805 573.985 279.747 576.968C282.967 580.233 286.729 584.05 289.439 588.866C291.236 592.061 294.407 598.975 293.844 609.578" stroke="#99CC99" stroke-width="5" stroke-miterlimit="10"/>
<path opacity="0.91" d="M24.248 279.949C27.5915 279.658 31.4548 285.841 34.3798 290.526C38.1462 296.554 37.9039 299.489 41.428 308.153C45.146 317.279 46.1988 315.931 51.1193 326.661C56.8724 339.212 56.4363 343.24 60.8106 345.17C66.0967 347.501 73.4401 344.601 75.3475 343.848C80.4486 341.834 82.7393 339.102 83.7172 339.882C85.074 340.966 80.8318 346.338 78.4311 355.746C77.8452 358.042 77.55 359.787 76.669 371.611C75.788 383.434 75.3166 389.308 75.3475 390.56C75.5633 399.435 77.691 405.878 81.9552 418.763C86.2193 431.649 88.3514 438.105 91.6464 441.679C97.4612 447.994 104.126 450.021 105.302 457.103C105.483 458.178 106.183 462.426 103.981 464.153C99.8664 467.375 92.0869 456.754 81.5146 458.425C76.9333 459.147 73.1713 462.285 65.6562 468.56C58.6697 474.39 56.2777 478.149 54.6434 477.374C51.9519 476.1 57.9516 465.709 53.7624 454.018C51.8814 448.76 50.3132 449.871 46.7142 442.119C43.1901 434.513 42.0492 427.753 41.3047 423.135C40.5518 418.335 40.1513 413.486 40.1065 408.628C39.5691 389.352 34.4723 384.39 32.1773 361.916C31.7059 357.284 29.4681 335.36 33.9393 334.153C38.9391 332.8 47.2252 358.721 60.8106 358.39C64.2642 358.307 66.4447 356.566 68.2993 357.95C72.2022 360.863 66.9337 371.831 65.2157 380.424C59.0485 411.241 92.5495 441.309 85.9198 447.408C83.3031 449.814 77.8408 445.376 72.2639 449.17C66.9777 452.757 67.8279 459.482 65.2157 459.747C62.881 459.98 60.8987 454.754 53.3219 436.831C48.5687 425.59 48.1899 424.906 47.5952 422.289C45.8332 414.599 47.1547 411.88 45.8332 402.018C45.6746 400.832 45.7054 401.224 42.3091 386.153C42.3091 386.153 40.0624 376.167 38.3444 361.034C37.8775 356.901 37.644 354.036 38.785 353.543C40.5074 352.794 43.0535 358.43 50.6788 363.678C55.7667 367.204 57.0882 366.358 58.608 368.526C62.6431 374.255 53.943 380.865 53.7624 392.323C53.5597 405.349 64.665 408.006 67.4182 427.577C67.709 429.653 69.0261 439.004 66.5372 439.916C64.0483 440.828 57.89 432.808 54.6434 424.492C50.6788 414.357 53.2734 409.721 51.1193 402.458C47.2208 389.317 33.6133 387.193 24.248 379.102C-4.165 354.57 13.1251 280.914 24.248 279.949Z" stroke="#FFFF99" stroke-width="5" stroke-miterlimit="10"/>
</svg>
