<svg width="124" height="356" viewBox="0 0 124 356" fill="none" xmlns="http://www.w3.org/2000/svg">
<path d="M2.50057 139L4.99928 139.08L4.99928 139.08L2.50057 139ZM1.76871 125.233L0.00133729 123.464L-3.53498 126.999L-1.76761 128.767L1.76871 125.233ZM-1.7596 146.239L-3.5204 148.014L0.0290034 151.536L1.78981 149.761L-1.7596 146.239ZM-1.76761 128.767C-1.10289 129.432 -0.544983 130.775 -0.237405 132.831C0.056911 134.799 0.0637963 136.992 0.0018635 138.92L4.99928 139.08C5.06383 137.071 5.07015 134.515 4.70756 132.091C4.35823 129.756 3.60288 127.068 1.76871 125.233L-1.76761 128.767ZM0.00186594 138.92C-0.0492779 140.51 -0.168962 142.07 -0.475805 143.425C-0.788644 144.807 -1.23985 145.715 -1.7596 146.239L1.78981 149.761C3.2544 148.285 3.99329 146.329 4.40078 144.53C4.81426 142.703 4.94515 140.764 4.99928 139.08L0.00186594 138.92Z" fill="#E06B65"/>
<path d="M0 98.5225C0.238398 98.7588 0.476147 98.9972 0.713354 99.2381C9.18881 107.845 16.9418 115.719 19.2149 127.442C22.5037 144.415 13.2547 164.04 0.0910645 176.501" stroke="#E06B65" stroke-width="5" stroke-miterlimit="10" stroke-linecap="square"/>
<path d="M0.0256615 78.1685C1.61402 79.7349 3.51382 81.431 6.00018 83.3721C15.8368 91.0664 19.2376 90.423 25.3827 96.5925C34.7304 105.961 37.1268 117.719 37.7171 121.271C39.4307 131.596 36.9462 139.193 32.4309 153C27.5853 167.842 25.1492 175.263 19.2155 180.322C12.5348 186.018 6.13677 186.26 0 188.265" stroke="#E06B65" stroke-width="5" stroke-miterlimit="10" stroke-linecap="square"/>
<path d="M0 55.0693C2.65635 57.0405 5.786 59.4017 9.52435 62.2205C20.6032 70.5934 19.5019 70.4789 25.3828 74.5596C42.0694 86.1318 46.5979 83.9108 51.8135 91.3054C57.3023 99.0922 57.201 108.54 57.0997 117.746C57.0248 124.599 55.9587 129.521 54.4566 136.255C50.9325 152.031 47.9899 153.952 43.8843 168.865C38.5365 188.255 41.3558 192.935 35.9551 197.068C27.5633 203.489 18.0483 194.305 7.76229 200.594C4.42465 202.635 1.82283 205.803 -0.0209694 209.5M0 236.678C3.2461 241.522 8.08205 243.808 11.2864 252.594C16.4756 266.868 11.0926 281.185 7.76229 290.052C5.94224 294.891 3.7194 300.813 0 306.57" stroke="#E06B65" stroke-width="5" stroke-miterlimit="10" stroke-linecap="square"/>
<path d="M0 17.3647C9.43268 22.1629 24.5844 30.4661 36.8381 46.3568C43.5251 55.0338 44.8775 60.1677 53.5776 67.5094C64.6477 76.8518 70.0704 74.9569 76.4842 82.4925C85.5456 93.1393 84.3121 108.184 83.5324 117.747C82.7175 127.711 80.6691 128.967 71.1981 157.408C64.6212 177.15 64.3525 180.323 59.7448 190.018C52.9653 204.288 48.5337 213.291 39.4812 216.459C28.9089 220.161 20.5964 212.876 16.5746 217.34C13.2883 220.985 17.1384 227.718 20.9797 242.019C21.5788 244.222 25.6535 259.646 26.2658 273.307C26.6094 280.953 26.3055 297.809 17.4556 315.612C13.7456 323.069 9.09164 332.435 0 339.711" stroke="#E06B65" stroke-width="5" stroke-miterlimit="10" stroke-linecap="square"/>
<path d="M0 4.15918C6.71458 6.91199 14.006 9.77796 21.8592 12.8648C29.7576 15.9672 45.2107 21.6255 50.052 34.8988C52.3206 41.1212 50.2678 43.5581 53.5761 49.0005C56.6024 53.9846 61.1397 56.5758 80.8878 64.865C95.3719 70.942 94.0371 70.0121 95.8652 71.0345C106.94 77.204 121.173 92.0021 120.534 107.17C119.834 123.762 102.032 124.357 88.817 153.882C85.4119 161.488 86.4735 161.713 80.0068 177.679C73.8396 192.882 69.179 201.819 63.2673 210.289C56.5627 219.892 51.977 226.268 44.7658 227.035C37.3916 227.82 32.7927 222.148 29.7884 224.391C26.5639 226.802 29.5329 235.073 32.4315 246.425C36.5459 262.527 38.8674 271.632 38.5986 281.239C38.2947 292.057 33.6957 301.673 24.5023 320.9C19.0355 332.331 16.1854 338.157 10.4059 343.815C6.98762 347.161 3.4261 349.714 0 351.692" stroke="#E06B65" stroke-width="5" stroke-miterlimit="10" stroke-linecap="square"/>
</svg>
