<svg width="260" height="150" viewBox="0 0 260 150" fill="none" xmlns="http://www.w3.org/2000/svg">
<path opacity="0.91" d="M257.337 117.727L254.847 117.511L254.847 117.511L257.337 117.727ZM237.08 98.321L235.755 100.441L235.756 100.442L237.08 98.321ZM203.317 84.821L202.374 87.1362L202.375 87.1367L203.317 84.821ZM167.866 66.2585L168.908 63.986L168.908 63.9859L167.866 66.2585ZM132.415 47.696L130.128 48.7047L130.128 48.7052L132.415 47.696ZM134.947 19.8522L137.272 20.7708L137.273 20.7703L134.947 19.8522ZM142.544 3.82097L144.498 2.26209L144.497 2.26042L142.544 3.82097ZM112.157 13.946L111.539 11.5236L111.539 11.5236L112.157 13.946ZM45.4759 19.8522L45.5375 17.353L45.5367 17.353L45.4759 19.8522ZM10.869 87.3522L10.9387 84.8532L10.9154 84.8525L10.8921 84.8523L10.869 87.3522ZM100.34 102.54L100.086 105.027L100.087 105.027L100.34 102.54ZM153.517 99.1647L151.104 98.5117L151.103 98.5129L153.517 99.1647ZM107.093 47.696L109.592 47.7568L109.592 47.7566L107.093 47.696ZM107.937 33.3522L109.941 31.8572L109.941 31.8569L107.937 33.3522ZM64.8895 39.2585L64.3994 36.807L64.3989 36.8071L64.8895 39.2585ZM23.53 76.3835L23.198 78.8613L23.1986 78.8614L23.53 76.3835ZM53.9166 83.1335L53.367 85.5723L53.3678 85.5725L53.9166 83.1335ZM102.029 90.7272L101.747 93.2113L101.748 93.2114L102.029 90.7272ZM116.378 89.8835L114.085 88.8863L114.083 88.8909L116.378 89.8835ZM96.9642 67.1022L99.0235 65.6848L99.0191 65.6784L96.9642 67.1022ZM87.6794 51.9147L86.2398 53.9586L86.2444 53.9619L87.6794 51.9147ZM42.0996 61.196L42.1385 63.6957L42.139 63.6957L42.0996 61.196ZM22.686 66.2585L23.397 63.8617L23.3969 63.8617L22.686 66.2585ZM67.4217 117.727L69.314 116.093L69.3135 116.093L67.4217 117.727ZM0.777606 7.6377L-1.59838 6.86009L-3.1536 11.6121L-0.777606 12.3897L0.777606 7.6377ZM1.05889 25.6245L-1.20579 24.5656L-3.32356 29.0949L-1.05889 30.1538L1.05889 25.6245ZM1.09675 40.3579L-1.14984 39.2612L-3.34333 43.7543L-1.09675 44.8511L1.09675 40.3579ZM0.17751 61.5035L-2.31618 61.326L-2.6712 66.3134L-0.17751 66.4909L0.17751 61.5035ZM0.0794094 72.4512L-2.41933 72.3717L-2.57815 77.3692L-0.0794094 77.4486L0.0794094 72.4512ZM0.165579 84.4472L-2.32893 84.2816L-2.66009 89.2706L-0.165579 89.4362L0.165579 84.4472ZM259.828 117.944C260.039 115.524 259.06 113.275 257.72 111.352C256.368 109.411 254.471 107.547 252.385 105.805C248.215 102.322 242.854 98.9789 238.404 96.2004L235.756 100.442C240.278 103.266 245.325 106.423 249.18 109.642C251.106 111.251 252.626 112.787 253.618 114.211C254.622 115.651 254.915 116.729 254.847 117.511L259.828 117.944ZM238.404 96.2007C232.412 92.4571 227.924 90.6941 222.877 89.0236C217.87 87.3663 212.454 85.8386 204.259 82.5052L202.375 87.1367C210.775 90.5534 216.467 92.1686 221.306 93.7703C226.105 95.3588 230.2 96.9708 235.755 100.441L238.404 96.2007ZM204.26 82.5057C195.688 79.0136 192.094 76.8035 188.07 74.2846C183.911 71.6806 179.319 68.7598 168.908 63.986L166.824 68.5309C176.967 73.1819 181.359 75.9817 185.417 78.5224C189.611 81.1482 193.465 83.5071 202.374 87.1362L204.26 82.5057ZM168.908 63.9859C156.865 58.4653 148.621 55.7931 143.462 53.6743C140.817 52.588 139.017 51.6676 137.678 50.6157C136.402 49.6128 135.472 48.4309 134.702 46.6867L130.128 48.7052C131.207 51.1502 132.628 53.0058 134.589 54.5471C136.488 56.0394 138.812 57.1698 141.563 58.2994C147.195 60.6124 154.828 63.0323 166.824 68.5311L168.908 63.9859ZM134.703 46.6872C132.776 42.318 132.944 36.8782 133.92 31.8209C134.884 26.8255 136.558 22.5785 137.272 20.7708L132.622 18.9336C131.893 20.7793 130.069 25.3917 129.011 30.8736C127.965 36.2936 127.589 42.9489 130.128 48.7047L134.703 46.6872ZM137.273 20.7703C139.107 16.1248 141.263 12.7617 142.869 10.2051C143.633 8.98877 144.402 7.76133 144.841 6.69419C145.251 5.69841 145.779 3.86793 144.498 2.26209L140.589 5.37984C140.056 4.71057 140.49 4.13095 140.218 4.78997C139.976 5.37764 139.475 6.20895 138.636 7.54496C137.035 10.0931 134.645 13.809 132.622 18.9342L137.273 20.7703ZM144.497 2.26042C143.644 1.19305 142.458 0.856521 141.466 0.822743C140.54 0.791203 139.586 1.00658 138.726 1.26831C137 1.79372 134.784 2.79186 132.306 3.90359C127.23 6.18146 120.323 9.28226 111.539 11.5236L112.776 16.3683C122.013 14.0112 129.261 10.7502 134.353 8.46545C136.96 7.29589 138.832 6.46257 140.182 6.05168C140.86 5.84526 141.192 5.81628 141.296 5.81985C141.335 5.82117 140.925 5.7992 140.591 5.38152L144.497 2.26042ZM111.539 11.5236C107.393 12.5816 104.278 13.1369 81.5851 14.8279L81.9567 19.8141C104.556 18.13 108.126 17.5547 112.776 16.3683L111.539 11.5236ZM81.5851 14.8279C70.2541 15.6722 61.7898 16.319 55.8498 16.7481C49.8282 17.183 46.5809 17.3787 45.5375 17.353L45.4143 22.3515C46.768 22.3848 50.345 22.1587 56.21 21.7351C62.1567 21.3056 70.6413 20.6572 81.9567 19.8141L81.5851 14.8279ZM10.7993 89.8512C28.9942 90.3585 40.3977 93.0076 52.6957 96.1077C65.0731 99.2278 78.3655 102.809 100.086 105.027L100.594 100.053C79.2678 97.8748 66.2843 94.3767 53.9178 91.2593C41.4719 88.122 29.6634 85.3753 10.9387 84.8532L10.7993 89.8512ZM100.087 105.027C104.518 105.478 117.339 106.787 129.364 106.902C135.358 106.96 141.287 106.723 145.921 105.893C148.227 105.48 150.361 104.895 152.059 104.037C153.719 103.198 155.372 101.884 155.93 99.8165L151.103 98.5129C151.083 98.5867 150.918 99.0115 149.805 99.5742C148.728 100.118 147.133 100.596 145.039 100.971C140.871 101.718 135.314 101.959 129.412 101.902C117.645 101.79 105.034 100.504 100.594 100.053L100.087 105.027ZM155.93 99.8177C156.568 97.4595 155.473 95.3285 154.201 93.7201C152.889 92.0616 150.957 90.3997 148.777 88.7488C144.481 85.496 138.277 81.6171 132.474 77.5499C126.511 73.37 120.658 68.7937 116.345 63.7451C112.037 58.7023 109.455 53.4125 109.592 47.7568L104.594 47.6352C104.415 54.9901 107.801 61.4421 112.543 66.9928C117.28 72.5378 123.559 77.4067 129.604 81.6443C135.811 85.9946 141.493 89.5054 145.758 92.7349C147.858 94.3252 149.374 95.6776 150.279 96.8218C151.224 98.016 151.113 98.4758 151.104 98.5117L155.93 99.8177ZM109.592 47.7566C109.665 44.7771 110.43 42.4888 111.008 39.9257C111.549 37.5283 111.98 34.5898 109.941 31.8572L105.933 34.8473C106.545 35.6669 106.634 36.5927 106.13 38.8254C105.664 40.8924 104.682 43.9998 104.594 47.6354L109.592 47.7566ZM109.941 31.8569C107.865 29.0764 104.544 28.2184 101.216 28.159C97.8633 28.0991 93.9375 28.8311 89.8876 29.8425C85.8164 30.8592 81.3952 32.2192 77.0663 33.4987C72.6965 34.7902 68.3929 36.0086 64.3994 36.807L65.3796 41.71C69.6158 40.8631 74.1106 39.5861 78.4835 38.2936C82.8973 36.9891 87.1631 35.6765 91.0991 34.6935C95.0562 33.7053 98.4575 33.1105 101.127 33.1582C103.822 33.2063 105.219 33.8902 105.934 34.8475L109.941 31.8569ZM23.1986 78.8614C25.3225 79.1455 24.3529 79.0339 53.367 85.5723L54.4662 80.6946C25.7459 74.2224 26.2786 74.2289 23.8615 73.9055L23.1986 78.8614ZM53.9166 83.1335C53.3678 85.5725 53.3681 85.5726 53.3684 85.5726C53.3687 85.5727 53.3691 85.5728 53.3695 85.5729C53.3703 85.5731 53.3715 85.5733 53.3729 85.5736C53.3757 85.5743 53.3797 85.5752 53.3849 85.5763C53.3952 85.5786 53.4102 85.582 53.4298 85.5863C53.4689 85.595 53.5265 85.6078 53.6022 85.6244C53.7536 85.6577 53.9775 85.7064 54.2717 85.7694C54.86 85.8954 55.7294 86.0782 56.8618 86.3075C59.1265 86.7661 62.4434 87.4107 66.6675 88.1581C75.1149 89.6528 87.1947 91.5592 101.747 93.2113L102.311 88.2432C87.8771 86.6046 75.9008 84.7142 67.5386 83.2346C63.3579 82.4949 60.0815 81.858 57.8542 81.407C56.7406 81.1815 55.8893 81.0024 55.3184 80.8802C55.033 80.8191 54.8177 80.7722 54.6747 80.7408C54.6033 80.7251 54.5499 80.7133 54.5149 80.7055C54.4974 80.7016 54.4845 80.6987 54.4762 80.6969C54.4721 80.696 54.4691 80.6953 54.4673 80.6949C54.4664 80.6947 54.4658 80.6945 54.4654 80.6945C54.4653 80.6944 54.4652 80.6944 54.4652 80.6944C54.4652 80.6944 54.4653 80.6944 53.9166 83.1335ZM101.748 93.2114C105.67 93.6545 109.192 94.0132 111.868 93.9597C113.199 93.9331 114.508 93.8042 115.625 93.4398C116.745 93.0747 118.037 92.3449 118.672 90.8761L114.083 88.8909C114.246 88.5147 114.498 88.5484 114.075 88.6862C113.651 88.8247 112.916 88.9378 111.768 88.9607C109.485 89.0064 106.304 88.6943 102.309 88.243L101.748 93.2114ZM118.67 90.8806C119.68 88.5603 118.235 86.5155 117.276 85.3761C116.175 84.0684 114.484 82.5518 112.667 80.8888C108.923 77.4612 103.884 72.7457 99.0235 65.6848L94.9048 68.5197C100.098 76.064 105.482 81.0897 109.291 84.5766C111.25 86.3708 112.617 87.6049 113.451 88.5958C114.427 89.7551 113.793 89.5571 114.085 88.8863L118.67 90.8806ZM99.0191 65.6784C95.7801 61.0039 94.5734 58.1078 93.6414 55.9531C92.646 53.6518 91.7866 51.7407 89.1144 49.8676L86.2444 53.9619C87.725 54.9997 88.1317 55.8097 89.0523 57.9381C90.0363 60.213 91.3957 63.4552 94.9092 68.5261L99.0191 65.6784ZM89.119 49.8708C85.7474 47.4961 82.2128 47.0249 78.628 47.5858C75.1802 48.1252 71.5946 49.6366 67.987 51.2437C60.6005 54.5342 52.4293 58.5328 42.0602 58.6963L42.139 63.6957C53.7158 63.5132 62.848 59.0068 70.0217 55.811C73.6942 54.1749 76.7029 52.9478 79.4009 52.5256C81.962 52.1249 84.1249 52.469 86.2398 53.9586L89.119 49.8708ZM21.9749 68.6552C33.7138 72.1378 40.6028 79.9255 46.5655 89.398C49.5899 94.2027 52.248 99.2208 55.272 104.424C58.2509 109.549 61.5029 114.7 65.5299 119.362L69.3135 116.093C65.5919 111.785 62.524 106.951 59.5949 101.911C56.7109 96.9492 53.8731 91.6213 50.797 86.7345C44.5586 76.8239 36.8284 67.8464 23.397 63.8617L21.9749 68.6552ZM65.5295 119.361C77.7636 133.53 95.9781 141.849 116.141 146.128C136.324 150.411 158.693 150.7 179.556 148.612C200.42 146.525 219.909 142.048 234.357 136.713C241.57 134.05 247.627 131.137 251.99 128.136C254.172 126.636 256.006 125.061 257.35 123.42C258.688 121.787 259.654 119.946 259.828 117.943L254.847 117.511C254.79 118.172 254.437 119.086 253.482 120.252C252.534 121.41 251.102 122.679 249.157 124.016C245.267 126.692 239.633 129.436 232.625 132.023C218.633 137.189 199.569 141.585 179.059 143.637C158.547 145.689 136.721 145.384 117.179 141.237C97.6157 137.085 80.5745 129.135 69.314 116.093L65.5295 119.361ZM45.5367 17.353C31.0135 16.9998 19.9838 13.9235 0.777606 7.6377L-0.777606 12.3897C18.4738 18.6902 30.1034 21.9791 45.4151 22.3515L45.5367 17.353ZM64.3989 36.8071C42.4903 41.1915 20.6109 34.7664 1.05889 25.6245L-1.05889 30.1538C18.8596 39.4671 41.9225 46.4043 65.3801 41.7099L64.3989 36.8071ZM42.0607 58.6963C33.7585 58.8254 27.8369 56.4128 21.8599 52.8882C18.8029 51.0855 15.8356 49.0577 12.425 46.8632C9.05772 44.6966 5.37231 42.4452 1.09675 40.3579L-1.09675 44.8511C2.92376 46.8138 6.42158 48.946 9.71944 51.068C12.9739 53.162 16.1536 55.3278 19.3202 57.1951C25.7905 61.0106 32.6226 63.8437 42.1385 63.6957L42.0607 58.6963ZM-0.17751 66.4909C8.2764 67.0927 14.0689 66.3102 21.9751 68.6553L23.3969 63.8617C14.8047 61.3132 7.63734 62.0346 0.17751 61.5035L-0.17751 66.4909ZM-0.0794094 77.4486C6.29456 77.6512 12.4408 77.4199 23.198 78.8613L23.8621 73.9056C12.7742 72.4199 6.22402 72.6464 0.0794094 72.4512L-0.0794094 77.4486ZM-0.165579 89.4362C3.49905 89.6794 7.17103 89.8182 10.8459 89.8521L10.8921 84.8523C7.3123 84.8193 3.73535 84.6841 0.165579 84.4472L-0.165579 89.4362Z" fill="#E06B65"/>
</svg>
