<svg width="1153" height="648" viewBox="0 0 1153 648" fill="none" xmlns="http://www.w3.org/2000/svg">
<g clip-path="url(#clip0)">
<path d="M352.399 273.797C374.885 245.202 371.289 231.609 387.85 213.047C404.2 194.703 432.493 180.14 458.752 180.984C520.665 182.975 534.465 269.434 598.868 273.797C634.909 276.235 649.377 250.433 673.146 261.984C703.372 276.674 717.384 336.597 695.936 361.547C678.379 381.965 649.039 365.04 549.912 364.922C496.111 364.863 469.218 364.829 433.43 373.359C366.225 389.39 342.903 417.327 322.013 403.734C300.278 389.593 298.733 341.938 315.26 312.609C324.967 295.371 333.146 298.274 352.399 273.797Z" stroke="#E06B65" stroke-width="5" stroke-miterlimit="10"/>
<path d="M340.583 240.047C356.772 214.498 367.23 197.994 382.786 182.672C399.271 166.438 414.354 151.588 436.807 147.234C475.735 139.691 521.948 166.582 543.159 199.547C552.301 213.756 554.056 224.817 568.481 234.984C586.511 247.691 608.153 247.548 617.438 246.797C643.536 244.696 647.166 231.846 669.77 229.922C689.825 228.234 711.881 236.199 726.323 250.172C760.837 283.576 742.638 342.343 739.828 351.422C734.763 367.909 726.044 395.955 701 410.484C669.415 428.811 645.072 406.325 548.224 396.984C511.498 393.441 492.676 391.779 470.569 396.984C427.969 407.017 423.217 426.71 382.786 438.328C378.329 439.611 300.464 461.034 271.369 423.141C252.048 397.972 260.995 355.447 274.745 331.172C285.718 311.766 296.817 309.327 320.325 273.797C329.745 259.563 328.09 259.757 340.583 240.047Z" stroke="#E06B65" stroke-width="5" stroke-miterlimit="10"/>
<path d="M322.013 202.922C332.522 191.953 339.739 188.764 352.4 172.547C367.137 153.706 365.905 147.192 377.722 135.422C395.667 117.518 418.187 112.928 424.99 111.797C444.766 108.515 459.318 113.274 485.763 121.922C514.191 131.203 528.405 135.869 538.095 147.235C555.534 167.687 546.283 186.756 566.794 204.61C574.992 211.575 584.897 216.234 595.492 218.11C603.882 219.603 612.255 219.173 642.76 209.672C677.561 198.83 678.017 195.851 690.872 194.485C694.983 194.046 719.57 191.439 739.828 202.922C770.392 220.219 775.794 260.753 778.655 282.235C780.208 293.878 790.337 369.934 736.452 421.453C727.513 430.001 702.436 453.98 666.394 456.891C633.678 459.532 628.639 441.847 578.611 433.266C562.902 430.574 524.531 424.423 482.387 438.328C458.668 446.158 459.276 451.913 433.431 463.641C373.502 490.818 316.763 484.152 301.756 482.203C262.363 477.082 227.385 472.534 210.596 445.078C190.431 412.096 208.385 365.454 224.101 341.297C244.68 309.657 259.383 319.714 281.498 285.61C304.035 250.856 294.513 231.542 322.013 202.922Z" stroke="#E06B65" stroke-width="5" stroke-miterlimit="10"/>
<path d="M311.885 165.797C327.922 144.577 327.702 146.686 335.518 135.422C357.684 103.461 353.43 94.7869 367.593 84.7969C382.508 74.2838 400.605 74.4778 418.237 74.6719C431.363 74.8153 440.791 76.8572 453.688 79.7344C483.906 86.4844 487.586 92.1206 516.15 99.9844C553.289 110.228 562.253 104.828 570.17 115.172C582.468 131.245 564.878 149.47 576.923 169.172C587.364 186.249 613.218 193.269 632.631 189.422C653.784 185.203 653.387 170.859 676.523 162.422C703.862 152.483 731.286 162.793 748.269 169.172C764.196 175.163 786.252 183.431 802.289 204.609C829.08 239.903 823.391 290.022 812.418 319.359C805.615 337.517 798.162 343.98 788.784 373.359C783.137 391.078 783.272 396.74 776.967 415.547C768.873 439.687 764.483 452.765 755.021 465.328C737.456 488.641 704.934 506.815 673.147 504.141C660.114 503.044 646.449 496.1 619.126 482.203C585.304 465.007 585.566 459.633 568.482 455.203C543.413 448.698 521.4 454.697 500.956 460.266C472.384 468.053 462.804 476.719 438.495 487.266C438.495 487.266 396.097 505.659 343.959 509.203C303.334 511.962 236.593 516.493 202.155 472.078C167.717 427.663 178.395 351.262 213.972 317.672C234.711 298.088 254.699 301.826 267.993 277.172C281.287 252.518 266.845 238.469 283.186 206.297C286.984 198.788 295.299 187.793 311.885 165.797Z" stroke="#E06B65" stroke-width="5" stroke-miterlimit="10"/>
<path d="M281.497 113.485C298.117 100.676 307.95 98.0861 322.012 81.422C339.907 60.2186 336.277 49.832 350.711 37.547C371.103 20.1911 399.92 22.5536 418.236 24.047C437.321 25.608 439.726 29.5314 494.203 47.672C532.017 60.2692 538.094 60.7839 556.664 69.6095C583.995 82.5948 601.239 91.083 607.308 108.422C614.398 128.672 600.446 144.594 608.996 152.297C615.977 158.591 628.874 151.217 656.264 143.86C660.485 142.712 690.027 134.907 716.193 133.735C730.838 133.076 763.123 133.659 797.224 150.61C813.725 158.819 835.106 169.442 849.556 192.797C872.701 230.192 861.787 273.797 856.309 295.735C850.071 320.667 845.657 316.744 832.675 353.11C819.887 388.944 821.888 399.145 807.353 455.203C796.599 496.674 791.223 517.413 783.719 526.078C756.253 557.803 699.945 566.317 657.952 551.391C617.133 536.878 617.285 509.98 570.169 495.703C537.731 485.874 509.236 490.016 497.579 492.328C459.9 499.795 446.141 518.274 411.484 537.891C360.358 566.831 311.47 571.236 288.25 573.328C242.003 577.496 165.623 584.381 121.968 534.516C76.6917 482.794 84.4741 390.412 123.656 342.985C148.598 312.795 172.738 317.2 195.402 278.86C215.592 244.713 200.981 233.525 224.1 187.735C232.963 170.142 248.891 138.628 281.497 113.485Z" stroke="#E06B65" stroke-width="5" stroke-miterlimit="10"/>
<path d="M259.551 88.1716C271.47 83.8263 276.137 87.7581 286.562 81.4216C296.108 75.625 301.071 66.9344 316.948 29.1091C328.588 1.36659 326.807 3.92315 328.765 0.421593C340.582 -20.7903 368.926 -48.0518 397.979 -46.8284C429.758 -45.4868 430.898 -11.3909 487.45 13.9216C502.019 20.4438 502.449 18.4103 533.03 30.7966C562.151 42.6091 579.268 51.536 595.491 62.8591C613.884 75.701 626.097 84.4844 627.566 98.2966C629.068 112.421 618.205 121.23 622.502 126.984C627.119 133.16 642.962 127.473 664.705 121.922C695.547 114.041 712.986 109.594 731.387 110.109C752.109 110.691 770.526 119.5 807.353 137.109C829.248 147.58 840.407 153.039 851.245 164.109C868.759 182.005 874.946 201.951 878.255 213.047C888.73 248.214 882.382 278.716 878.255 297.422C876.617 304.838 870.388 322.16 857.997 356.484C841.116 403.202 842.559 396.984 839.428 407.109C824.867 454.3 831.434 467.952 817.482 507.515C809.548 530.018 804.905 543.164 793.848 556.453C755.198 602.859 667.296 615.954 627.566 581.765C603.51 561.06 609.638 533.807 580.298 519.328C561.188 509.903 541.699 513.126 524.589 515.953C489.071 521.859 474.215 536.996 435.118 556.453C406.107 570.898 383.731 577.749 354.087 586.828C300.261 603.315 257.939 607.922 217.348 612.14C140.782 620.08 101.938 623.717 74.6999 607.078C48.0104 590.777 26.3009 561.119 18.9912 529.453C7.57942 479.992 38.6834 457.574 20.6794 412.172C9.99346 385.231 -5.31797 382.134 -8.019 356.484C-10.2136 335.627 -3.23312 307.876 15.615 292.359C50.3653 263.764 89.8932 306.011 133.785 283.922C168.501 266.448 187.552 217.974 217.348 142.172C223.29 127.043 234.128 97.4444 259.551 88.1716Z" stroke="#E06B65" stroke-width="5" stroke-miterlimit="10"/>
<path d="M219.881 648.422C219.881 645.646 252.8 644.862 287.643 632.205C289.525 631.522 300.506 627.472 314.417 622.266C356.966 606.328 357.692 605.121 366.749 602.86C394.519 595.924 398.824 599.966 418.237 592.735C442.496 583.698 440.462 575.615 470.57 561.516C491.747 551.602 508.713 548.126 522.058 545.485C541.472 541.646 551.702 539.747 564.262 543.797C577.37 548.016 585.574 556.344 593.804 564.891C612.88 584.702 608.896 593.106 620.814 604.547C640.228 623.177 662.174 611.803 704.377 623.953C726.711 630.374 757.047 642.33 755.866 648.422C754.54 655.223 714.506 652.008 669.77 648.422C631.407 645.343 624.115 642.465 617.438 637.453C599.881 624.257 604.422 609.61 582.831 587.672C573.884 578.568 561.333 565.794 543.16 563.203C538.154 562.486 526.793 561.702 479.01 587.672C445.492 605.889 451.021 606.319 437.651 611.297C409.797 621.675 396.494 615.862 368.437 629.016C363.82 631.184 340.667 642.035 342.271 648.422C344.069 655.603 377.275 657.476 406.42 648.422C411.274 646.912 427.666 639.259 460.441 623.953C465.337 621.667 472.038 618.52 480.699 614.174C494.204 607.424 500.956 604.049 508.553 599.485C527.561 588.119 528.355 584.086 536.407 583.453C550.41 582.348 561.628 593.46 562.573 594.422C572.947 604.986 568.186 613.685 579.455 630.703C587.896 643.444 594.159 643.993 593.804 648.422C592.293 667.559 473.625 680.417 468.882 663.61C467.092 657.265 483.611 654.016 513.617 622.266C521.737 613.668 526.101 608.015 533.031 607.922C546.68 607.737 563.282 629.21 560.885 640.828C551.288 687.395 219.813 657.282 219.881 648.422Z" stroke="#99CCFF" stroke-width="5" stroke-miterlimit="10"/>
<path d="M1153.42 68.7655C1137.69 80.4053 1123.26 93.7004 1110.38 108.422C1086.33 135.886 1068.92 155.765 1069.02 182.672C1069.12 213.283 1091.81 237.068 1101.09 246.797C1124.87 271.721 1140.88 268.068 1153.42 289.828C1167.16 313.664 1165.16 347.886 1153.42 353.109C1139.59 359.26 1112.25 325.088 1079.99 284.766C1049.17 246.24 1033.7 226.488 1031.03 202.078C1026.41 159.84 1051.84 125.482 1056.35 119.391C1079.14 88.5515 1098.83 91.8337 1129.79 52.7343C1139.5 40.4662 1161.86 12.2343 1153.42 -0.421971C1146.99 -10.0913 1123.61 -9.19697 1107 -0.421971C1087.1 10.0912 1089.36 25.3546 1065.64 60.328C1044.47 91.5468 1035.56 89.8593 1019.22 119.391C1010.42 135.278 1002.39 149.766 1000.65 170.016C999.152 187.363 1005.82 205.723 1019.22 241.734C1032.02 276.142 1038.42 293.338 1047.91 304.172C1065.06 323.721 1071.32 315.832 1101.09 343.828C1123.96 365.335 1120.18 369.908 1139.07 383.484C1144.85 387.636 1151.46 391.702 1153.42 399.516C1156.28 410.839 1148.36 426.085 1140.76 426.516C1129.55 427.14 1125.48 395.449 1103.62 375.891C1093.67 366.989 1081.89 357.876 1081.89 357.876C1078.28 355.092 1074.76 352.468 1073.79 351.742C1065.78 345.794 1059.74 341.617 1058.04 340.453C1046.37 332.361 1031.58 322.118 1024.28 315.141C1011.55 302.982 1018.79 298.139 1002.33 257.766C991.775 231.871 983.216 220.168 977.856 192.797C976.872 188.039 976.128 183.235 975.628 178.402C974.784 169.881 972.53 145.057 982.921 117.703C985.546 110.801 993.809 89.7158 1013.31 71.2968C1026.13 59.1805 1035.62 55.949 1040.32 42.6093C1041.4 39.5465 1046.17 24.7302 1038.63 13.9218C1032.16 4.64053 1019.22 2.10928 1006.55 -0.421971C1004.35 -0.860721 1001.7 -1.26572 997.025 -1.79728C976.481 -3.99103 951.218 -3.62822 950.846 -0.421971C950.441 3.12178 981.41 1.86459 992.206 20.6718C993.792 23.4308 997.692 31.4127 993.894 49.3593C987.344 80.2912 969.661 85.3115 957.599 110.109C940.084 146.121 951.302 189.16 959.287 219.797C963.862 237.355 966.959 240.519 971.948 262.828C980.279 300.105 975.13 306.931 984.609 318.516C990.239 325.401 991.522 322.338 1033.57 347.203C1044.63 353.751 1048.48 356.29 1052.98 359.859C1062.58 367.453 1065.78 372.347 1079.99 388.547C1102.25 413.935 1101.93 410.594 1107 418.922C1117.59 436.311 1115.3 444.85 1124.72 450.141C1136.36 456.671 1146.26 447.272 1153.42 453.516C1163.21 462.046 1158.66 491.67 1144.98 496.547C1136.27 499.652 1126.21 491.881 1116.82 484.633C1106.96 477.039 1101.51 469.361 1092.65 456.891C1087.34 449.415 1086.74 447.609 1070.7 423.141C1067.56 418.34 1065.99 415.943 1064.64 413.918C1057.04 402.561 1043.53 382.455 1031.03 370.828C1012.46 353.616 1004.72 363.167 982.921 347.203C956.037 327.527 946.693 297.548 944.938 291.516C937.544 266.136 947.259 261.984 939.873 225.703C936.622 210.075 931.815 194.812 925.524 180.141C912.745 151.554 902.996 147.521 903.578 132.047C904.127 117.45 913.353 106.65 925.524 92.3905C947.2 66.9937 964.841 63.0787 963.507 52.7343C962.216 42.7443 944.524 36.8465 928.9 31.6405C912.652 26.2237 902.287 25.7343 891.761 24.0468C847.262 16.8243 843.438 -5.43385 804.822 -9.70322C780.023 -12.4454 755.469 -6.15103 755.022 -0.421971C754.642 4.3874 771.431 6.73303 810.731 22.3593C845.456 36.163 844.265 39.0655 860.531 42.6093C890.748 49.1905 908.584 42.1537 912.863 51.0468C915.125 55.7465 909.622 65.2133 898.514 83.953C885.22 106.388 882.477 106.388 880.788 114.328C879.041 122.605 880.459 130.098 893.449 160.734C907.436 193.733 907.875 189.928 911.175 200.391C919.497 226.732 911.377 233.769 916.239 270.422C917.683 281.289 920.46 301.227 930.589 324.422C940.641 347.465 950.897 370.971 971.948 377.578C985.563 381.847 993.193 375.764 1008.24 383.484C1018.7 388.851 1024.69 396.74 1029.34 402.891C1042.78 420.609 1037.1 426.701 1049.6 444.234C1056.58 454.03 1057.65 451.136 1076.61 472.922C1083.05 480.321 1085.25 483.317 1090.96 488.953C1097.22 495.121 1104.53 502.326 1113.75 507.516C1119.87 510.958 1133.11 517.033 1153.42 515.953" stroke="#99CC99" stroke-width="5" stroke-miterlimit="10"/>
<path opacity="0.91" d="M522.058 -0.422041C521.501 5.98202 533.343 13.3817 542.316 18.9842C553.863 26.1983 559.484 25.7342 576.079 32.4842C593.559 39.6055 590.976 41.622 611.529 51.0467C635.569 62.0661 643.283 61.2308 646.98 69.6092C651.446 79.7342 645.892 93.7995 644.448 97.453C640.591 107.224 635.358 111.611 636.852 113.484C638.928 116.083 649.217 107.958 667.238 103.359C671.636 102.237 674.978 101.672 697.625 99.9842C720.271 98.2967 731.522 97.3939 733.92 97.453C750.919 97.8664 763.26 101.942 787.94 110.109C812.621 118.277 824.986 122.36 831.832 128.672C843.927 139.809 847.81 152.575 861.374 154.828C863.434 155.174 871.571 156.515 874.879 152.297C881.05 144.416 860.707 129.515 863.906 109.265C865.291 100.49 871.301 93.2848 883.32 78.8905C894.487 65.5086 901.687 60.927 900.201 57.7967C897.762 52.6414 877.859 64.1333 855.466 56.1092C845.396 52.5064 847.523 49.5026 832.676 42.6092C818.107 35.8592 805.159 33.6739 796.313 32.248C787.119 30.8059 777.832 30.0389 768.527 29.953C731.607 28.9236 722.103 19.1614 679.055 14.7655C670.184 13.8626 628.191 9.5764 625.879 18.1405C623.287 27.717 672.936 43.588 672.303 69.6092C672.142 76.2242 668.808 80.4008 671.458 83.953C677.038 91.4286 698.047 81.3373 714.506 78.0467C773.532 66.2342 831.123 130.401 842.805 117.703C847.413 112.691 838.914 102.229 846.181 91.5467C853.052 81.4217 865.932 83.0501 866.439 78.0467C866.886 73.5748 856.875 69.778 822.547 55.2655C801.015 46.1614 799.706 45.4358 794.693 44.2967C779.964 40.9217 774.756 43.453 755.865 40.9217C753.595 40.618 754.346 40.677 725.479 34.1717C725.479 34.1717 706.352 29.8686 677.367 26.578C669.45 25.6836 663.963 25.2364 663.018 27.4217C661.583 30.7208 672.378 35.5976 682.431 50.203C689.184 59.9483 687.563 62.4795 691.716 65.3905C702.689 73.1192 715.35 56.4551 737.296 56.1092C762.247 55.7211 767.336 76.992 804.822 82.2655C808.797 82.8223 826.708 85.3451 828.456 80.578C830.203 75.8108 814.841 64.0151 798.913 57.7967C779.499 50.203 770.62 55.1726 756.71 51.0467C731.539 43.5795 727.471 17.5161 711.974 -0.422041C664.984 -54.8439 523.907 -21.7267 522.058 -0.422041Z" stroke="#FFFF99" stroke-width="5" stroke-miterlimit="10"/>
</g>
<defs>
<clipPath id="clip0">
<rect width="1153" height="648" fill="white"/>
</clipPath>
</defs>
</svg>
