<svg width="173" height="79" viewBox="0 0 173 79" fill="none" xmlns="http://www.w3.org/2000/svg">
<path d="M142.74 15.0383C142.74 15.0383 129.472 15.2312 129.261 32.3258C129.261 32.3258 122.093 31.1684 128.202 39.6193C128.202 39.6193 128.797 41.0707 130.692 39.6193C132.587 38.168 128.928 43.1007 137.487 48.0335C137.487 48.0335 137.618 55.9516 135.471 57.2192C133.323 58.4868 147.186 62.8501 149.454 57.2192C148.015 55.6013 147.257 53.5688 147.317 51.4873C147.317 51.4873 156.854 51.0005 156.914 36.1012C156.975 21.2019 152.438 14.184 142.74 15.0383Z" fill="#CD9F94"/>
<path d="M158.014 27.2372C156.542 27.2372 159.909 17.6565 154.646 16.8849C154.646 16.8849 150.755 10.2619 148.446 10.4548C146.138 10.6477 145.815 11.1162 143.284 10.4548C143.284 10.4548 136.449 4.99851 134.453 9.79346C134.453 9.79346 130.249 8.1584 126.458 14.0097C122.668 19.861 120.258 14.2945 121.619 21.9554C121.619 21.9554 118.05 25.3174 119.31 29.8184C119.31 29.8184 114.683 31.9219 117.939 37.167C121.196 42.412 111.951 38.8939 118.363 47.5193C118.363 47.5193 115.207 54.179 117.415 55.4007C119.623 56.6224 114.26 61.0315 117.728 62.5655C121.196 64.0996 115.711 65.7254 120.752 67.2595C120.752 67.2595 120.54 73.2026 124.785 67.93C124.785 67.93 126.68 69.1793 130.36 67.3513C134.04 65.5234 137.306 64.6691 138.99 66.2031C140.673 67.7371 144.766 67.2595 147.297 65.7254C149.827 64.1914 150.765 70.4194 152.237 66.8737C153.709 63.328 152.227 63.8607 155.846 62.9422C159.465 62.0236 162.157 58.7259 161.099 56.5121C160.439 55.3172 160.116 53.992 160.156 52.6551C160.197 51.3182 160.6 50.0113 161.33 48.8512C163.105 45.5903 159.949 42.7335 162.782 38.9398C165.615 35.1461 159.486 27.2372 158.014 27.2372ZM154.203 46.8947C149.777 52.5439 148.214 49.6504 147.146 51.5518C146.077 53.4533 149.454 57.2103 149.454 57.2103C144.041 63.3004 135.804 57.7798 135.804 57.7798C135.804 57.7798 139.05 48.594 137.215 47.8775C133.576 46.4262 130.783 39.7298 131.257 39.243C128.777 41.7231 126.499 38.0029 125.904 34.4021C125.49 31.9219 129.19 32.9507 129.19 32.9507C129.009 29.7173 131.338 29.9102 130.995 28.7712C130.733 27.9169 130.148 21.0552 133.707 21.4226C137.266 21.79 133.788 16.5266 138.304 17.7483C142.821 18.97 142.74 15.8377 142.74 15.8377C143.698 15.4427 144.303 16.4715 145.694 17.3441C147.085 18.2168 149.424 17.7391 149.424 17.7391C157.862 19.7692 158.921 40.8964 154.203 46.8947Z" fill="#202020"/>
<path d="M148.998 57.4888C143.242 61.6844 137.646 59.2369 135.567 57.4888C125.389 57.1018 117.576 71.4587 114.941 78.6855H172.022C166.745 69.8718 154.754 53.2932 148.998 57.4888Z" fill="#FFB6B3"/>
<path d="M27.8002 13.9723C27.8002 13.9723 14.5228 14.1652 14.311 31.2599C14.311 31.2599 7.15312 30.1025 13.3029 38.5534C13.3029 38.5534 13.8977 40.0047 15.7829 38.5534C17.6682 37.102 13.9985 41.998 22.5477 46.9308C22.5477 46.9308 22.6687 54.8489 20.5314 56.1165C18.3941 57.3841 32.2461 61.7382 34.5145 56.1165C33.0706 54.5007 32.3089 52.4675 32.3671 50.3846C32.3671 50.3846 41.8841 49.9437 41.9446 35.0077C42.0051 20.0717 37.4583 13.0537 27.8002 13.9723Z" fill="#E8C8B6"/>
<path d="M42.3091 13.6139C42.3091 13.6139 37.5607 10.8582 37.7018 9.54463C37.843 8.23107 34.3951 6.62356 31.5117 7.84526C31.5117 7.84526 26.4709 4.03318 21.5814 7.97387C21.5814 7.97387 15.0989 7.45028 12.9415 11.2532C12.9415 11.2532 7.9007 10.8582 9.91702 17.2882C9.91702 17.2882 4.87623 19.5203 8.76772 24.499C8.76772 24.499 5.88439 28.4397 9.77587 30.8004C13.6674 33.1612 13.9496 30.2768 14.8167 34.4747C15.6837 38.6726 17.1153 30.534 16.9741 28.9633C16.833 27.3925 16.9741 23.9754 19.2727 24.894C21.5713 25.8126 18.4158 20.4022 23.0735 22.5333C27.7311 24.6644 29.9793 18.3997 31.8545 20.9258C33.7297 23.4518 37.7522 24.6001 38.7604 22.0097C39.7685 19.4193 41.6437 23.1212 43.66 20.9258C45.6763 18.7304 46.9164 17.6465 42.3091 13.6139Z" fill="#604637"/>
<path d="M34.0565 55.856C28.3006 60.0516 22.7042 57.6041 20.6255 55.856C10.4471 55.469 2.63417 69.8259 0 77.0527H57.0803C51.804 68.2389 39.8124 51.6604 34.0565 55.856Z" fill="#F8F8C8"/>
<path d="M70.7773 34.3153C70.7773 34.3153 74.5176 43.5011 78.8426 41.8844C78.8426 41.8844 73.0255 38.4857 73.0759 33.4886C73.0759 33.2314 72.5718 33.5437 72.3702 33.7275C72.1728 33.9312 71.9262 34.0903 71.6498 34.1923C71.3733 34.2943 71.0747 34.3364 70.7773 34.3153Z" fill="#202020"/>
<path d="M84.4587 9.10036C84.4587 9.10036 71.1812 9.29326 70.9695 26.3787C70.9695 26.3787 63.8015 25.2305 69.9109 33.7273C69.9109 33.7273 70.5158 35.1787 72.4011 33.7273C74.2864 32.276 70.6368 37.1995 79.2062 42.1415C79.2062 42.1415 79.3271 50.0596 77.1898 51.3272C75.0526 52.5948 88.8946 56.9489 91.1629 51.3272C89.7251 49.7054 88.9675 47.6703 89.0256 45.5861C89.0256 45.5861 98.5426 45.1544 98.593 30.2092C98.6535 15.3558 94.1168 8.2369 84.4587 9.10036Z" fill="#E8C0B6"/>
<path d="M83.3888 7.48377C83.3888 7.48377 79.2756 -2.42764 69.8795 1.6692C60.4835 5.76604 69.94 19.6549 69.5065 16.596C68.7504 11.2591 61.9454 21.6298 68.6698 26.5717C68.6698 25.5797 81.7153 29.0978 87.3912 14.6303C87.3912 14.6303 96.8981 23.6966 98.2289 22.3463C99.5597 20.996 97.7853 6.67543 83.3888 7.48377Z" fill="#202020"/>
<path d="M91.5213 50.0659C85.7654 54.2615 80.1691 51.8141 78.0904 50.0659C67.9119 49.679 60.099 64.0358 57.4648 71.2626H114.545C109.269 62.4489 97.2772 45.8703 91.5213 50.0659Z" fill="#C3DDF6"/>
</svg>
