<svg width="190" height="282" viewBox="0 0 190 282" fill="none" xmlns="http://www.w3.org/2000/svg">
<path d="M190.47 142.219C185.441 136.953 173.15 124.076 173.095 107.504C173.052 94.9464 180.053 85.2165 190.331 73.2457M190.47 194.749C174.344 179.593 170.951 183.864 161.664 173.28C156.521 167.415 153.055 158.106 146.118 139.479C138.862 119.983 135.25 110.044 136.059 100.652C137.006 89.6897 141.354 81.8468 146.118 73.2457C154.97 57.2585 159.799 58.172 171.266 41.2712C182.679 24.4542 182.991 16.0553 190.47 10.3995M191.842 212.106C191.345 211.662 190.839 211.216 190.331 210.774C185.328 206.419 180.068 202.354 180.068 202.354C178.116 200.847 176.209 199.426 175.683 199.033C171.344 195.813 168.07 193.552 167.151 192.922C160.828 188.541 152.817 182.996 148.862 179.218C141.967 172.636 145.89 170.014 136.974 148.157C131.254 134.139 126.617 127.803 123.714 112.985C123.181 110.41 122.778 107.809 122.507 105.193C122.049 100.579 120.829 87.1409 126.457 72.3321C127.879 68.5957 132.356 57.1808 142.918 47.2093C149.863 40.65 155.007 38.9006 157.549 31.6789C158.135 30.0208 160.718 21.9998 156.635 16.1484C153.128 11.1239 146.118 9.75355 139.26 8.38321C138.066 8.14569 136.631 7.92644 134.098 7.63867C122.968 6.45104 109.283 6.64746 109.082 8.38321C108.863 10.3017 125.639 9.62108 131.487 19.8027C132.346 21.2963 134.459 25.6174 132.401 35.3331C128.853 52.0786 119.274 54.7964 112.74 68.2211C103.252 87.7164 109.329 111.017 113.655 127.602C116.133 137.108 117.811 138.821 120.513 150.898C125.026 171.078 122.237 174.774 127.372 181.045C130.421 184.773 131.116 183.115 153.891 196.576C159.886 200.12 161.971 201.495 164.408 203.427C169.607 207.538 171.344 210.188 179.039 218.958C185.638 226.48 188.575 229.343 190.331 231.133M190.47 52.6134C181.66 59.3111 174.308 62.3305 166.237 73.2457C163.791 76.5436 150.014 95.1436 152.52 118.01C153.965 131.225 162.346 141.918 179.039 162.774C182.954 167.665 186.736 172.388 190.331 176.736M190.331 262.058C188.956 260.259 187.535 258.259 185.898 255.957C183.022 251.91 182.697 250.932 174.01 237.686C172.304 235.087 171.454 233.789 170.722 232.693C166.607 226.545 159.291 215.66 152.52 209.366C142.461 200.047 138.268 205.218 126.457 196.576C111.894 185.924 106.833 169.694 105.882 166.428C101.876 152.689 107.139 150.441 103.138 130.8C101.377 122.339 98.7729 114.076 95.3652 106.134C88.4426 90.6581 83.1615 88.4747 83.477 80.0974C83.7742 72.1951 88.7718 66.3483 95.3652 58.6288C107.107 44.8798 116.663 42.7603 115.941 37.1602C115.241 31.752 105.658 28.5591 97.1941 25.7408C88.3923 22.8083 82.7774 22.5433 77.0757 21.6298C52.9702 17.7198 50.8989 5.66995 29.9804 3.35866C16.5468 1.87413 3.24575 5.28169 3.00341 8.38321C2.79765 10.9868 11.8921 12.2567 33.181 20.7162C51.9917 28.1891 51.347 29.7604 60.158 31.6789C76.527 35.2418 86.1884 31.4322 88.5066 36.2467C89.732 38.7909 86.7508 43.916 80.7336 54.061C73.5321 66.2067 72.0461 66.2067 71.1316 70.505C70.1852 74.986 70.9533 79.0422 77.9902 95.6278C85.5666 113.492 85.8043 111.432 87.5921 117.096C92.1005 131.357 87.7019 135.167 90.3356 155.009C91.1174 160.892 92.6217 171.686 98.1086 184.243C103.554 196.717 109.11 209.443 120.513 213.02C127.888 215.331 132.022 212.038 140.174 216.217C145.839 219.122 149.081 223.393 151.605 226.723C158.884 236.315 155.807 239.613 162.579 249.105C166.36 254.408 166.936 252.842 177.21 264.636C180.699 268.642 181.888 270.263 184.983 273.314C186.616 274.923 188.381 276.662 190.331 278.347" stroke="#FFFF99" stroke-width="5" stroke-miterlimit="10" stroke-linecap="square"/>
</svg>
