<svg width="321" height="486" viewBox="0 0 321 486" fill="none" xmlns="http://www.w3.org/2000/svg">
<path d="M321.778 365.108C321.516 364.914 321.257 364.722 321 364.531C313.378 358.89 307.669 354.945 306.027 353.819C294.354 345.727 279.566 335.484 272.265 328.506C259.536 316.348 266.778 311.505 250.319 271.131C239.76 245.237 231.201 233.534 225.841 206.163C224.856 201.405 224.113 196.601 223.612 191.768C222.768 183.246 220.515 158.423 230.905 131.069C233.53 124.167 241.794 103.082 261.292 84.6625C274.113 72.5462 283.609 69.3147 288.302 55.975C289.382 52.9122 294.151 38.0959 286.614 27.2875C280.14 18.0063 267.2 15.475 254.539 12.9438C252.336 12.505 249.686 12.1 245.01 11.5684C224.465 9.37469 199.202 9.7375 198.831 12.9438C198.425 16.4875 229.394 15.2303 240.19 34.0375C241.777 36.7966 245.676 44.7784 241.878 62.725C235.328 93.6569 217.645 98.6772 205.583 123.475C188.069 159.486 199.286 202.526 207.271 233.163C211.846 250.721 214.944 253.885 219.932 276.194C228.263 313.471 223.114 320.297 232.593 331.881C238.223 338.766 239.506 335.703 281.549 360.569C292.615 367.116 296.464 369.656 300.963 373.225C308.752 379.388 312.332 383.773 321 393.868M321 482.209C305.461 464.834 304.097 466.736 297.587 457.6C285.086 440.067 290.767 433.975 277.329 416.256C272.67 410.105 266.685 402.216 256.227 396.85C241.178 389.13 233.547 395.213 219.932 390.944C198.881 384.337 188.626 360.83 178.573 337.788C168.444 314.593 165.667 294.655 164.224 283.788C159.362 247.135 167.482 240.098 159.159 213.756C155.859 203.294 155.42 207.099 141.434 174.1C128.444 143.463 127.026 135.971 128.773 127.694C130.461 119.754 133.204 119.754 146.498 97.3187C157.606 78.5791 163.11 69.1122 160.847 64.4125C156.568 55.5194 138.733 62.5563 108.515 55.975C92.2498 52.4313 93.44 49.5288 58.7149 35.725C19.415 20.0988 2.62646 17.7531 3.0063 12.9438C3.45365 7.21469 28.0077 0.920314 52.8064 3.6625C91.4226 7.93188 95.2463 30.19 139.746 37.4125C150.271 39.1 160.636 39.5894 176.885 45.0063C192.508 50.2122 210.2 56.11 211.492 66.1C212.825 76.4444 195.184 80.3594 173.508 105.756C161.337 120.016 152.111 130.816 151.563 145.413C150.98 160.887 160.729 164.92 173.508 193.506C179.799 208.178 184.606 223.441 187.858 239.069C195.243 275.35 185.528 279.501 192.922 304.881C194.678 310.914 204.022 340.893 230.905 360.569C252.708 376.533 260.448 366.981 279.017 384.194C291.518 395.821 305.023 415.927 312.62 427.284C313.97 429.309 315.54 431.705 318.689 436.506C319.497 437.74 320.267 438.917 321 440.039M321 335.963C311.917 330.913 305.678 328.69 295.899 317.538C286.403 306.704 280.005 289.508 267.2 255.1C253.805 219.089 247.137 200.729 248.631 183.381C250.378 163.131 258.405 148.644 267.2 132.756C283.541 103.225 292.455 104.912 313.624 73.6937C316.417 69.5762 318.849 65.7318 321 62.1362M321 289.396C294.807 256.477 281.475 237.938 279.017 215.444C274.392 173.206 299.824 138.848 304.339 132.756C310.011 125.081 315.491 119.519 321 114.891M321 218.325C318.568 211.438 317.027 203.967 317 196.038C316.974 188.303 318.393 181.149 321 174.229" stroke="#FFFF99" stroke-width="5" stroke-miterlimit="10" stroke-linecap="square"/>
</svg>
