<svg width="376" height="225" viewBox="0 0 376 225" fill="none" xmlns="http://www.w3.org/2000/svg">
<g opacity="0.9">
<path d="M60.8811 137.021H49.7058V146.333H60.8811V137.021Z" fill="#6DC6CC"/>
<path d="M67.9752 137.691H59.0796V146.587H67.9752V137.691Z" fill="#6DC6CC"/>
<path d="M77.6439 137.952H67.3999V146.334H77.6439V137.952Z" fill="#6DC6CC"/>
<path d="M85.733 137.971H76.8374V146.867H85.733V137.971Z" fill="#80D9E5"/>
<path d="M94.3925 137.992H85.4968V146.887H94.3925V137.992Z" fill="#80D9E5"/>
<path d="M103.063 138.161H94.1672V147.056H103.063V138.161Z" fill="#80D9E5"/>
<path d="M113.033 137.952H102.789V147.265H113.033V137.952Z" fill="#80D9E5"/>
<path d="M120.747 138.096H111.851V146.991H120.747V138.096Z" fill="#80D9E5"/>
<path d="M129.389 138.167H120.494V147.062H129.389V138.167Z" fill="#80D9E5"/>
<path d="M138.178 137.952H127.934V147.265H138.178V137.952Z" fill="#6DC6CC"/>
<path d="M147.073 138.157H138.177V147.052H147.073V138.157Z" fill="#6DC6CC"/>
<path d="M155.743 138.045H146.847V146.941H155.743V138.045Z" fill="#80D9E5"/>
<path d="M165.184 137.952H154.94V147.265H165.184V137.952Z" fill="#80D9E5"/>
<path d="M173.413 138.096H164.517V146.991H173.413V138.096Z" fill="#80D9E5"/>
<path d="M50.6373 137.021H40.3933V148.196H50.6373V137.021Z" fill="#6DC6CC"/>
<path d="M41.9191 129.412H33.0234V138.308H41.9191V129.412Z" fill="#80D9E5"/>
<path d="M52.5 129.571H41.3247V137.952H52.5V129.571Z" fill="#80D9E5"/>
<path d="M59.673 129.692H50.7773V138.588H59.673V129.692Z" fill="#80D9E5"/>
<path d="M68.3363 129.712H59.4407V138.608H68.3363V129.712Z" fill="#80D9E5"/>
<path d="M77.0028 129.881H68.1072V138.777H77.0028V129.881Z" fill="#80D9E5"/>
<path d="M86.9574 129.571H76.7134V138.884H86.9574V129.571Z" fill="#6DC6CC"/>
<path d="M94.6867 129.817H85.791V138.713H94.6867V129.817Z" fill="#80D9E5"/>
<path d="M105.583 129.571H94.4075V138.884H105.583V129.571Z" fill="#80D9E5"/>
<path d="M112.252 129.877H103.356V138.773H112.252V129.877Z" fill="#80D9E5"/>
<path d="M121.013 129.877H112.117V138.773H121.013V129.877Z" fill="#80D9E5"/>
<path d="M37.1542 121.471H28.2585V130.366H37.1542V121.471Z" fill="#6DC6CC"/>
<path d="M47.843 121.189H36.6677V130.502H47.843V121.189Z" fill="#80D9E5"/>
<path d="M54.9123 121.75H46.0166V130.646H54.9123V121.75Z" fill="#80D9E5"/>
<path d="M63.5714 121.77H54.6758V130.666H63.5714V121.77Z" fill="#80D9E5"/>
<path d="M72.9881 121.189H62.7441V130.502H72.9881V121.189Z" fill="#80D9E5"/>
<path d="M81.0162 121.892H72.1206V130.787H81.0162V121.892Z" fill="#80D9E5"/>
<path d="M89.7507 121.189H80.438V130.502H89.7507V121.189Z" fill="#80D9E5"/>
<path d="M99.9945 121.189H89.7505V130.502H99.9945V121.189Z" fill="#80D9E5"/>
<path d="M107.491 121.936H98.595V130.831H107.491V121.936Z" fill="#80D9E5"/>
<path d="M116.251 121.936H107.355V130.831H116.251V121.936Z" fill="#80D9E5"/>
<path d="M41.871 112.71H32.9753V121.606H41.871V112.71Z" fill="#80D9E5"/>
<path d="M50.7206 113.087H41.825V121.983H50.7206V113.087Z" fill="#80D9E5"/>
<path d="M59.9498 112.808H49.7058V122.12H59.9498V112.808Z" fill="#80D9E5"/>
<path d="M68.2895 113.01H59.3938V121.905H68.2895V113.01Z" fill="white"/>
<path d="M76.9586 113.178H68.063V122.074H76.9586V113.178Z" fill="white"/>
<path d="M85.733 113.13H76.8374V122.026H85.733V113.13Z" fill="white"/>
<path d="M94.4073 112.808H84.1633V122.12H94.4073V112.808Z" fill="white"/>
<path d="M103.467 112.945H94.3894V122.08H103.467V112.945Z" fill="white"/>
<path d="M112.209 113.175H103.313V122.071H112.209V113.175Z" fill="white"/>
<path d="M46.2519 104.286H37.3562V113.181H46.2519V104.286Z" fill="#80D9E5"/>
<path d="M55.2932 104.426H45.9805V113.739H55.2932V104.426Z" fill="#80D9E5"/>
<path d="M64.0097 104.565H55.114V113.461H64.0097V104.565Z" fill="white"/>
<path d="M72.6691 104.586H63.7734V113.482H72.6691V104.586Z" fill="white"/>
<path d="M81.3395 104.754H72.4438V113.65H81.3395V104.754Z" fill="white"/>
<path d="M90.1139 104.707H81.2183V113.603H90.1139V104.707Z" fill="white"/>
<path d="M99.0643 104.426H88.8203V113.739H99.0643V104.426Z" fill="white"/>
<path d="M110.207 101.152H95.0437V115.641H110.207V101.152Z" fill="white"/>
<path d="M116.588 104.75H107.693V113.646H116.588V104.75Z" fill="white"/>
<path d="M55.0131 95.5249H46.1174V104.421H55.0131V95.5249Z" fill="#80D9E5"/>
<path d="M63.8617 95.9028H54.9661V104.798H63.8617V95.9028Z" fill="white"/>
<path d="M72.9881 95.1133H62.7441V105.357H72.9881V95.1133Z" fill="white"/>
<path d="M81.3694 96.0449H72.0566V105.358H81.3694V96.0449Z" fill="white"/>
<path d="M90.1 95.9937H81.2043V104.889H90.1V95.9937Z" fill="white"/>
<path d="M107.784 95.9292H98.8882V104.825H107.784V95.9292Z" fill="#80D9E5"/>
<path d="M116.426 96H107.531V104.896H116.426V96Z" fill="white"/>
<path d="M125.35 94.6426H116.454V103.538H125.35V94.6426Z" fill="#80D9E5"/>
<path d="M134.11 94.6426H125.214V103.538H134.11V94.6426Z" fill="#80D9E5"/>
<path d="M65.8395 87.0273H56.9438V95.923H65.8395V87.0273Z" fill="#80D9E5"/>
<path d="M75.782 84.8691H64.6067V96.0444H75.782V84.8691Z" fill="#80D9E5"/>
<path d="M83.4113 87.2861H74.5156V96.1818H83.4113V87.2861Z" fill="white"/>
<path d="M119.048 87.4077H110.153V96.3034H119.048V87.4077Z" fill="#80D9E5"/>
<path d="M110.436 87.3911H101.54V96.2868H110.436V87.3911Z" fill="#80D9E5"/>
<path d="M136.315 131.434H127.002V140.746H136.315V131.434Z" fill="#80D9E5"/>
<path d="M144.828 131.623H135.933V140.519H144.828V131.623Z" fill="#80D9E5"/>
<path d="M153.674 131.663H144.778V140.559H153.674V131.663Z" fill="#80D9E5"/>
<path d="M162.39 132.364H153.077V140.746H162.39V132.364Z" fill="white"/>
<path d="M172.634 132.364H162.39V140.746H172.634V132.364Z" fill="white"/>
<path d="M127.933 131.434H117.689V140.746H127.933V131.434Z" fill="#6DC6CC"/>
<path d="M118.768 123.344H109.873V132.24H118.768V123.344Z" fill="#80D9E5"/>
<path d="M127.933 123.052H118.62V132.364H127.933V123.052Z" fill="#80D9E5"/>
<path d="M136.526 123.624H127.63V132.519H136.526V123.624Z" fill="#80D9E5"/>
<path d="M145.186 123.645H136.291V132.54H145.186V123.645Z" fill="white"/>
<path d="M153.856 123.812H144.96V132.708H153.856V123.812Z" fill="white"/>
<path d="M164.253 123.982H153.077V132.364H164.253V123.982Z" fill="white"/>
<path d="M171.539 123.749H162.643V132.644H171.539V123.749Z" fill="white"/>
<path d="M114.007 115.402H105.112V124.298H114.007V115.402Z" fill="white"/>
<path d="M124.208 115.602H113.964V123.983H124.208V115.602Z" fill="#80D9E5"/>
<path d="M131.762 115.681H122.866V124.577H131.762V115.681Z" fill="#80D9E5"/>
<path d="M140.424 115.702H131.529V124.598H140.424V115.702Z" fill="white"/>
<path d="M149.091 115.867H140.195V124.763H149.091V115.867Z" fill="white"/>
<path d="M157.866 115.82H148.971V124.715H157.866V115.82Z" fill="white"/>
<path d="M167.047 115.602H155.871V124.914H167.047V115.602Z" fill="white"/>
<path d="M118.725 107.315H109.829V116.211H118.725V107.315Z" fill="white"/>
<path d="M128.402 106.543H118.674V116.588H128.402V106.543Z" fill="#80D9E5"/>
<path d="M136.479 106.584H127.054V116.315H136.479V106.584Z" fill="white"/>
<path d="M145.924 106.207H136.247V115.978H145.924V106.207Z" fill="#80D9E5"/>
<path d="M154.011 106.207H144.913V116.002H154.011V106.207Z" fill="#80D9E5"/>
<path d="M164.253 106.289H154.009V116.533H164.253V106.289Z" fill="white"/>
<path d="M171.496 107.045H162.6V115.941H171.496V107.045Z" fill="white"/>
<path d="M123.105 97.2065H114.209V106.102H123.105V97.2065Z" fill="white"/>
<path d="M131.95 97.9209H123.055V106.817H131.95V97.9209Z" fill="#80D9E5"/>
<path d="M140.86 97.4863H130.762V107.892H140.86V97.4863Z" fill="#80D9E5"/>
<path d="M149.523 98.1802H140.627V107.076H149.523V98.1802Z" fill="white"/>
<path d="M158.19 98.3457H149.294V107.241H158.19V98.3457Z" fill="white"/>
<path d="M166.964 98.2979H158.068V107.194H166.964V98.2979Z" fill="white"/>
<path d="M32.6154 136.65H23.7197V145.546H32.6154V136.65Z" fill="#6DC6CC"/>
<path d="M41.8075 137.88H32.5681V147.271H41.8075V137.88Z" fill="#6DC6CC"/>
<path d="M23.7331 137.59H14.8374V146.486H23.7331V137.59Z" fill="#6DC6CC"/>
<path d="M68.8217 129.551H59.926V138.446H68.8217V129.551Z" fill="#80D9E5"/>
<path d="M61.4628 90.9863H52.5671V99.882H61.4628V90.9863Z" fill="#80D9E5"/>
<path d="M24.4071 129.322H15.5115V138.218H24.4071V129.322Z" fill="#6DC6CC"/>
<path d="M33.2567 129.362H24.3611V138.257H33.2567V129.362Z" fill="#80D9E5"/>
<path d="M60.0031 129.588H51.1074V138.484H60.0031V129.588Z" fill="#80D9E5"/>
<path d="M127.917 88.0918H119.021V96.9874H127.917V88.0918Z" fill="#80D9E5"/>
<path d="M136.678 88.7656H127.782V97.6613H136.678V88.7656Z" fill="#80D9E5"/>
<path d="M146.559 89.5259H136.315V98.8386H146.559V89.5259Z" fill="white"/>
<path d="M153.92 89.7163H145.024V98.612H153.92V89.7163Z" fill="white"/>
<path d="M164.253 88.5942H152.146V98.8382H164.253V88.5942Z" fill="white"/>
<path d="M134.097 81.5547H125.201V90.4503H134.097V81.5547Z" fill="#80D9E5"/>
<path d="M144.696 81.1445H133.521V90.4573H144.696V81.1445Z" fill="white"/>
<path d="M151.851 82.5078H142.955V91.4035H151.851V82.5078Z" fill="white"/>
<path d="M162.435 81.9458H150.641V92.0545H162.435V81.9458Z" fill="white"/>
<path d="M134.791 73.9155H125.896V82.8112H134.791V73.9155Z" fill="#80D9E5"/>
<path d="M143.461 74.0811H134.565V82.9767H143.461V74.0811Z" fill="white"/>
<path d="M153.077 73.6943H142.833V83.0071H153.077V73.6943Z" fill="white"/>
<path d="M161.144 74.6948H152.248V83.5905H161.144V74.6948Z" fill="white"/>
<path d="M125.313 80.1226H116.417V89.0182H125.313V80.1226Z" fill="#80D9E5"/>
<path d="M138.7 65.8018H129.804V74.6974H138.7V65.8018Z" fill="#80D9E5"/>
<path d="M147.47 65.7554H138.575V74.651H147.47V65.7554Z" fill="white"/>
<path d="M156.38 65.7378H146.598V75.5432H156.38V65.7378Z" fill="white"/>
<path d="M126.66 72.7095H117.764V81.6051H126.66V72.7095Z" fill="#80D9E5"/>
<path d="M143.418 57.7153H134.522V66.611H143.418V57.7153Z" fill="#80D9E5"/>
<path d="M153 56H143.292V66.5636H153V56Z" fill="white"/>
<path d="M161.101 57.6514H152.205V66.547H161.101V57.6514Z" fill="white"/>
<path d="M131.139 65.9502H122.243V74.8458H131.139V65.9502Z" fill="#80D9E5"/>
<path d="M118.91 78.7749H110.014V87.6706H118.91V78.7749Z" fill="#80D9E5"/>
<path d="M182.167 138.248H173.271V147.143H182.167V138.248Z" fill="#80D9E5"/>
<path d="M191.862 137.544H182.043V148.637H191.862V137.544Z" fill="#80D9E5"/>
<path d="M181.948 129.571H171.704V138.884H181.948V129.571Z" fill="white"/>
<path d="M189.095 129.51H180.199V138.406H189.095V129.51Z" fill="white"/>
<path d="M197.856 129.51H188.96V138.406H197.856V129.51Z" fill="#80D9E5"/>
<path d="M180.085 123.052H168.909V132.364H180.085V123.052Z" fill="white"/>
<path d="M187.029 123.317H178.133V132.213H187.029V123.317Z" fill="white"/>
<path d="M195.689 123.337H186.793V132.233H195.689V123.337Z" fill="#6DC6CC"/>
<path d="M178.298 115.227H169.403V124.123H178.298V115.227Z" fill="white"/>
<path d="M188.466 115.602H178.222V123.983H188.466V115.602Z" fill="#80D9E5"/>
<path d="M195.982 115.163H187.087V124.058H195.982V115.163Z" fill="#80D9E5"/>
<path d="M172.527 115.031H163.631V123.927H172.527V115.031Z" fill="white"/>
<path d="M180.29 107.234H171.395V116.13H180.29V107.234Z" fill="white"/>
<path d="M189.397 107.22H178.222V116.533H189.397V107.22Z" fill="white"/>
<path d="M176.359 97.9072H166.115V108.151H176.359V97.9072Z" fill="white"/>
<path d="M184.671 98.8101H175.775V107.706H184.671V98.8101Z" fill="white"/>
<path d="M194.053 98.8384H182.878V108.151H194.053V98.8384Z" fill="white"/>
<path d="M171.607 89.9316H162.711V98.8273H171.607V89.9316Z" fill="white"/>
<path d="M180.276 90.0962H171.38V98.9918H180.276V90.0962Z" fill="white"/>
<path d="M189.052 90.0493H180.156V98.945H189.052V90.0493Z" fill="white"/>
<path d="M173.554 77.5649H161.042V90.0256H173.554V77.5649Z" fill="white"/>
<path d="M178.7 81.4668H169.804V90.3624H178.7V81.4668Z" fill="white"/>
<path d="M187.417 81.6729H178.521V90.5685H187.417V81.6729Z" fill="white"/>
<path d="M196.076 81.6968H187.181V90.5924H196.076V81.6968Z" fill="white"/>
<path d="M189.146 75.894H180.25V84.7897H189.146V75.894Z" fill="white"/>
<path d="M196.373 72.8481H187.478V81.7438H196.373V72.8481Z" fill="white"/>
<path d="M206.61 129.662H197.714V138.557H206.61V129.662Z" fill="#6DC6CC"/>
<path d="M216.014 129.615H206.488V139.229H216.014V129.615Z" fill="#80D9E5"/>
<path d="M164.794 66.1519H155.898V75.0475H164.794V66.1519Z" fill="white"/>
<path d="M169.174 73.228H160.278V82.1237H169.174V73.228Z" fill="white"/>
<path d="M200.749 137.607H191.429V148.434H200.749V137.607Z" fill="#80D9E5"/>
<path d="M209.946 137.961H200.626V148.788H209.946V137.961Z" fill="#6DC6CC"/>
<path d="M221.506 120.706H212.611V129.601H221.506V120.706Z" fill="white"/>
<path d="M224.35 129.517H215.455V138.413H224.35V129.517Z" fill="#80D9E5"/>
<path d="M218.373 138.217H208.716V147.511H218.373V138.217Z" fill="#6DC6CC"/>
<path d="M215.057 107.248H206.161V116.144H215.057V107.248Z" fill="white"/>
<path d="M223.855 107.22H212.68V116.533H223.855V107.22Z" fill="white"/>
<path d="M232.63 107.508H223.734V116.403H232.63V107.508Z" fill="white"/>
<path d="M219.957 98.7227H211.061V107.618H219.957V98.7227Z" fill="white"/>
<path d="M228.73 98.6753H219.834V107.571H228.73V98.6753Z" fill="white"/>
<path d="M204.956 81.4736H196.06V90.3693H204.956V81.4736Z" fill="white"/>
<path d="M197.684 107.241H188.788V116.137H197.684V107.241Z" fill="#80D9E5"/>
<path d="M206.16 106.289H196.847V116.533H206.16V106.289Z" fill="white"/>
<path d="M203.366 97.9072H193.122V108.151H203.366V97.9072Z" fill="#80D9E5"/>
<path d="M211.747 98.8384H202.435V110.014H211.747V98.8384Z" fill="white"/>
<path d="M197.67 90.1035H188.774V98.9992H197.67V90.1035Z" fill="white"/>
<path d="M209.609 87H197.55V98.9518H209.609V87Z" fill="white"/>
<path d="M205.228 113.822H195.288V123.728H205.228V113.822Z" fill="#80D9E5"/>
<path d="M204.891 122.789H195.241V131.816H204.891V122.789Z" fill="#80D9E5"/>
<path d="M213.137 122.134H204.241V131.029H213.137V122.134Z" fill="white"/>
<path d="M212.679 112.808H203.366V123.052H212.679V112.808Z" fill="white"/>
<path d="M221.061 115.602H210.817V124.914H221.061V115.602Z" fill="white"/>
<path d="M226.648 137.952H218.267V147.265H226.648V137.952Z" fill="#6DC6CC"/>
<path d="M215.26 90.8711H206.364V99.7667H215.26V90.8711Z" fill="white"/>
<path d="M236.423 124.941H227.527V133.837H236.423V124.941Z" fill="white"/>
<path d="M233.202 132.068H224.306V140.964H233.202V132.068Z" fill="white"/>
<path d="M229.883 116.191H220.988V125.087H229.883V116.191Z" fill="white"/>
<path d="M230.369 124.935H221.473V133.83H230.369V124.935Z" fill="white"/>
<path d="M235.961 138.883H225.717V147.265H235.961V138.883Z" fill="#6DC6CC"/>
<path d="M242.48 131.434H232.236V139.815H242.48V131.434Z" fill="white"/>
<path d="M244.342 138.883H234.098V148.196H244.342V138.883Z" fill="#6DC6CC"/>
<path d="M16.1381 138.065H7.24243V146.961H16.1381V138.065Z" fill="#6DC6CC"/>
<path d="M16.1381 132.156H7.24243V141.051H16.1381V132.156Z" fill="#6DC6CC"/>
<path d="M9.24428 138.393H0.348633V147.288H9.24428V138.393Z" fill="#6DC6CC"/>
<path d="M250.934 134.231H242.038V143.127H250.934V134.231Z" fill="white"/>
<path d="M253.655 139.814H244.342V149.127H253.655V139.814Z" fill="#6DC6CC"/>
<path d="M256.449 136.637H247.553V145.533H256.449V136.637Z" fill="#6DC6CC"/>
<path d="M124.598 100.58H115.703V109.475H124.598V100.58Z" fill="white"/>
</g>
<path d="M277.916 39.9131H269.804V48.4009H277.916V39.9131Z" fill="#6DC6CC"/>
<path d="M212.155 32.9502H204.752V40.3529H212.155V32.9502Z" fill="#6DC6CC"/>
<path d="M217.89 34.271H210.487V41.6737H217.89V34.271Z" fill="#6DC6CC"/>
<path d="M225.096 34.2881H217.693V41.6908H225.096V34.2881Z" fill="#80D9E5"/>
<path d="M232.311 34.4282H224.908V41.8309H232.311V34.4282Z" fill="#80D9E5"/>
<path d="M239.75 34.5H232.25V42H239.75V34.5Z" fill="#80D9E5"/>
<path d="M247.026 35.2158H239.624V42.6185H247.026V35.2158Z" fill="white"/>
<path d="M253.939 38.6396H246.536V46.0423H253.939V38.6396Z" fill="white"/>
<path d="M261.361 38.6313H252.979V46.3621H261.361V38.6313Z" fill="white"/>
<path d="M210.403 27.3081H203V34.7108H210.403V27.3081Z" fill="#6DC6CC"/>
<path d="M218.75 27H209.75V34.5H218.75V27Z" fill="#80D9E5"/>
<path d="M225.18 27.541H217.777V34.9437H225.18V27.541Z" fill="white"/>
<path d="M232.386 27.5581H224.984V34.9608H232.386V27.5581Z" fill="white"/>
<path d="M239.601 27.6987H232.198V35.1014H239.601V27.6987Z" fill="white"/>
<path d="M255.226 30.3794H246.634V39.2542H255.226V30.3794Z" fill="#80D9E5"/>
<path d="M261.5 31.5H254V39H261.5V31.5Z" fill="white"/>
<path d="M268.654 31.0605H261.251V38.4632H268.654V31.0605Z" fill="#80D9E5"/>
<path d="M275.945 31.0605H268.542V38.4632H275.945V31.0605Z" fill="#80D9E5"/>
<path d="M220.25 20.25H212V27.75H220.25V20.25Z" fill="#80D9E5"/>
<path d="M226.826 20.7163H219.423V28.119H226.826V20.7163Z" fill="#80D9E5"/>
<path d="M234.033 20.7358H226.63V28.1385H234.033V20.7358Z" fill="white"/>
<path d="M263.635 21.9668H253.26V32.0614H263.635V21.9668Z" fill="#80D9E5"/>
<path d="M256.524 23.6265H249.121V31.0292H256.524V23.6265Z" fill="#6DC6CC"/>
<path d="M263.141 40.7651H255.739V48.1678H263.141V40.7651Z" fill="#6DC6CC"/>
<path d="M270.502 40.2378H263.099V47.6405H270.502V40.2378Z" fill="#80D9E5"/>
<path d="M285.358 40.1934H277.723V48.4036H285.358V40.1934Z" fill="#80D9E5"/>
<path d="M292.797 40.3477H285.161V48.5579H292.797V40.3477Z" fill="#80D9E5"/>
<path d="M298.517 39.3521H290.554V47.1165H298.517V39.3521Z" fill="#80D9E5"/>
<path d="M266.784 33.1943H258.868V41.0345H266.784V33.1943Z" fill="#6DC6CC"/>
<path d="M274.147 33.228H266.745V40.6307H274.147V33.228Z" fill="#80D9E5"/>
<path d="M281.75 33.75H273.5V41.25H281.75V33.75Z" fill="#80D9E5"/>
<path d="M288.77 33.4438H281.367V40.8465H288.77V33.4438Z" fill="white"/>
<path d="M295.982 33.584H288.58V40.9867H295.982V33.584Z" fill="white"/>
<path d="M303.284 33.5449H295.881V40.9476H303.284V33.5449Z" fill="white"/>
<path d="M215.77 23.5342H208.367V30.9369H215.77V23.5342Z" fill="#80D9E5"/>
<path d="M270.788 25.6094H263.385V33.0121H270.788V25.6094Z" fill="#6DC6CC"/>
<path d="M278.777 25.6094H270.676V33.7439H278.777V25.6094Z" fill="#80D9E5"/>
<path d="M285.015 26.3584H277.613V33.7611H285.015V26.3584Z" fill="white"/>
<path d="M292.25 26.25H283.25V33.75H292.25V26.25Z" fill="white"/>
<path d="M301.25 26.25H290V33.75H301.25V26.25Z" fill="white"/>
<path d="M276.211 19.1626H267.841V27.5747H276.211V19.1626Z" fill="#80D9E5"/>
<path d="M283.575 20.2031H276.172V27.6058H283.575V20.2031Z" fill="white"/>
<path d="M292.25 20.25H282.5V27.75H292.25V20.25Z" fill="white"/>
<path d="M298.197 20.4219H290.794V27.8246H298.197V20.4219Z" fill="white"/>
<path d="M276.511 13.5322H269.108V20.9349H276.511V13.5322Z" fill="#80D9E5"/>
<path d="M283.726 13.6694H276.324V21.0721H283.726V13.6694Z" fill="white"/>
<path d="M291.027 13.6333H283.625V21.036H291.027V13.6333Z" fill="white"/>
<path d="M298.25 13.5H289.25V21H298.25V13.5Z" fill="white"/>
<path d="M268.623 18.9805H261.221V26.3832H268.623V18.9805Z" fill="#80D9E5"/>
<path d="M279.761 7.06055H272.358V14.4632H279.761V7.06055Z" fill="#80D9E5"/>
<path d="M287.063 7.02148H279.661V14.4242H287.063V7.02148Z" fill="white"/>
<path d="M294.5 6.75H285.5V14.25H294.5V6.75Z" fill="white"/>
<path d="M269.744 12.5308H262.342V19.9335H269.744V12.5308Z" fill="#80D9E5"/>
<path d="M283.687 0.050293H276.284V7.45299H283.687V0.050293Z" fill="#80D9E5"/>
<path d="M292.25 0H283.25V7.49999H292.25V0Z" fill="white"/>
<path d="M298.405 0H291.002V7.40269H298.405V0Z" fill="white"/>
<path d="M273.472 7.18359H266.069V14.5863H273.472V7.18359Z" fill="#80D9E5"/>
<path d="M263.296 16.1768H255.893V23.5795H263.296V16.1768Z" fill="#80D9E5"/>
<path d="M317.459 39.2988H310.056V46.7015H317.459V39.2988Z" fill="#6DC6CC"/>
<path d="M321.788 40.1255H314.385V47.5282H321.788V40.1255Z" fill="#6DC6CC"/>
<path d="M310.715 31.5005H302.051V41.4128H310.715V31.5005Z" fill="#6DC6CC"/>
<path d="M318.019 33.9712H310.617V41.3739H318.019V33.9712Z" fill="#80D9E5"/>
<path d="M326 33.75H317V42H326V33.75Z" fill="white"/>
<path d="M307.148 26.2993H299.745V33.702H307.148V26.2993Z" fill="white"/>
<path d="M313.836 25.9341H306.256V34.1191H313.836V25.9341Z" fill="#6DC6CC"/>
<path d="M321.314 25.8926H313.735V34.0776H321.314V25.8926Z" fill="white"/>
<path d="M305.48 18.9751H298.077V26.3778H305.48V18.9751Z" fill="white"/>
<path d="M314.388 18.9751H305.368V26.4535H314.388V18.9751Z" fill="white"/>
<path d="M320.302 19.1489H312.899V26.5516H320.302V19.1489Z" fill="white"/>
<path d="M327.512 19.166H320.109V26.5687H327.512V19.166Z" fill="white"/>
<path d="M320.341 15.1812H312.938V22.5838H320.341V15.1812Z" fill="white"/>
<path d="M327.475 13.2041H320.072V20.6068H327.475V13.2041Z" fill="white"/>
<path d="M301.475 6.23389H294.073V13.6366H301.475V6.23389Z" fill="white"/>
<path d="M305.75 12H296.75V19.5H305.75V12Z" fill="white"/>
<path d="M342.746 40.709H335.343V48.1117H342.746V40.709Z" fill="#80D9E5"/>
<path d="M349.25 40.5H341V48.75H349.25V40.5Z" fill="#80D9E5"/>
<path d="M346.823 33.895H339.42V41.2977H346.823V33.895Z" fill="white"/>
<path d="M353 33.856H345.598V41.2586H353V33.856Z" fill="white"/>
<path d="M334.339 19.2612H326.936V26.6639H334.339V19.2612Z" fill="white"/>
<path d="M329.75 40.5H321.5V48.75H329.75V40.5Z" fill="#80D9E5"/>
<path d="M336.265 40.6924H328.862V48.0951H336.265V40.6924Z" fill="#80D9E5"/>
<path d="M333.5 33.75H325.25V41.25H333.5V33.75Z" fill="#80D9E5"/>
<path d="M340.191 33.9629H332.788V41.3656H340.191V33.9629Z" fill="white"/>
<path d="M328.661 25.9404H321.082V34.1255H328.661V25.9404Z" fill="white"/>
<path d="M336.139 25.8979H328.56V34.083H336.139V25.8979Z" fill="white"/>
<path d="M343.472 27.0811H336.069V34.4838H343.472V27.0811Z" fill="white"/>
<path d="M341.245 21.0664H333.843V28.4691H341.245V21.0664Z" fill="white"/>
<path d="M350 26.25H342.5V34.5H350V26.25Z" fill="white"/>
<path d="M347.832 22.5645H340.43V29.9671H347.832V22.5645Z" fill="white"/>
<path d="M302.549 38.3257H295.146V45.7284H302.549V38.3257Z" fill="white"/>
<path d="M313.485 36.3633H306.083V43.766H313.485V36.3633Z" fill="#6DC6CC"/>
<path d="M244.245 31.2959H236.842V38.6986H244.245V31.2959Z" fill="white"/>
<path d="M351.121 38.2305H345.384V44.4555H351.121V38.2305Z" fill="#80D9E5"/>
<path d="M273.89 193.016H263.889V203.018H273.89V193.016Z" fill="white"/>
<path d="M350.098 204.288H339.138V215.756H350.098V204.288Z" fill="#6DC6CC"/>
<path d="M281.611 197.098H269.867V209.725H281.611V197.098Z" fill="#80D9E5"/>
<path d="M288.476 199.369H280.096V206.878H288.476V199.369Z" fill="#80D9E5"/>
<path d="M298.343 196.824H288.341V206.826H298.343V196.824Z" fill="#80D9E5"/>
<path d="M308.361 197.942H298.36V207.943H308.361V197.942Z" fill="white"/>
<path d="M317.698 202.567H307.697V212.568H317.698V202.567Z" fill="white"/>
<path d="M327.73 202.56H316.406V213.005H327.73V202.56Z" fill="white"/>
<path d="M279.602 188.709H269.601V198.711H279.602V188.709Z" fill="white"/>
<path d="M288.582 189.873H278.58V199.874H288.582V189.873Z" fill="white"/>
<path d="M298.328 187.785H288.327V197.786H298.328V187.785Z" fill="white"/>
<path d="M327.548 193.476H317.546V203.477H327.548V193.476Z" fill="white"/>
<path d="M337.581 190.058H327.58V200.06H337.581V190.058Z" fill="#80D9E5"/>
<path d="M347.43 187.406H337.429V197.408H347.43V187.406Z" fill="#80D9E5"/>
<path d="M290.806 183.303H280.804V193.305H290.806V183.303Z" fill="white"/>
<path d="M330.132 205.439H320.131V215.44H330.132V205.439Z" fill="#6DC6CC"/>
<path d="M340.078 204.727H330.076V214.728H340.078V204.727Z" fill="#80D9E5"/>
<path d="M360.149 204.667H349.833V215.759H360.149V204.667Z" fill="#80D9E5"/>
<path d="M370.2 204.875H359.884V215.968H370.2V204.875Z" fill="#80D9E5"/>
<path d="M377.932 205.424H367.173V215.914H377.932V205.424Z" fill="white"/>
<path d="M335.058 195.21H324.363V205.803H335.058V195.21Z" fill="#6DC6CC"/>
<path d="M345.002 195.256H335.001V205.258H345.002V195.256Z" fill="#80D9E5"/>
<path d="M355.019 195.525H345.017V205.527H355.019V195.525Z" fill="white"/>
<path d="M364.759 195.551H354.757V205.553H364.759V195.551Z" fill="white"/>
<path d="M374.504 195.737H364.503V205.739H374.504V195.737Z" fill="white"/>
<path d="M384.278 196.339H374.367V205.685H384.278V196.339Z" fill="white"/>
<path d="M265.999 200.805H255.997V210.807H265.999V200.805Z" fill="#6DC6CC"/>
<path d="M260.86 197.756H250.858V207.758H260.86V197.756Z" fill="#6DC6CC"/>
<path d="M345.541 211.106H333.834V224.499H345.541V211.106Z" fill="#6DC6CC"/>
<path d="M351.996 181.864H341.994V191.865H351.996V181.864Z" fill="#80D9E5"/>
<path d="M364.285 182.603H354.284V192.605H364.285V182.603Z" fill="white"/>
<path d="M334.603 212.304H324.363V223.363H334.603V212.304Z" fill="#6DC6CC"/>
<path d="M383.377 202.143H373.375V212.145H383.377V202.143Z" fill="white"/>
<path d="M265.933 195.324H255.932V205.326H265.933V195.324Z" fill="#80D9E5"/>
<path d="M304.603 192.646H294.601V202.647H304.603V192.646Z" fill="white"/>
<path d="M274.887 200.563H264.885V210.565H274.887V200.563Z" fill="#6DC6CC"/>
<path d="M269.872 190.982H263.541V196.339H269.872V190.982Z" fill="#6DC6CC"/>
<path d="M357.035 186.618H347.033V196.619H357.035V186.618Z" fill="white"/>
<path d="M366.782 186.804H356.781V196.806H366.782V186.804Z" fill="white"/>
<path d="M376.648 186.75H366.647V196.752H376.648V186.75Z" fill="white"/>
<path d="M251.826 201.84H245.495V207.197H251.826V201.84Z" fill="#6DC6CC"/>
<path d="M371.083 199.461H360.767V210.554H371.083V199.461Z" fill="white"/>
<path d="M346.014 197.854H340.858V202.658H346.014V197.854Z" fill="white"/>
<path d="M352.553 204.041H347.397V208.845H352.553V204.041Z" fill="white"/>
</svg>
