<svg width="347" height="195" viewBox="0 0 347 195" fill="none" xmlns="http://www.w3.org/2000/svg">
<g opacity="0.9">
<path d="M156.091 79.0908H145.182V88.1817H156.091V79.0908Z" fill="#6DC6CC"/>
<path d="M163.016 79.7456H154.332V88.4294H163.016V79.7456Z" fill="#6DC6CC"/>
<path d="M172.455 80H162.455V88.1818H172.455V80Z" fill="#6DC6CC"/>
<path d="M180.351 80.0186H171.667V88.7023H180.351V80.0186Z" fill="#80D9E5"/>
<path d="M188.804 80.0386H180.121V88.7223H188.804V80.0386Z" fill="#80D9E5"/>
<path d="M197.268 80.2036H188.584V88.8874H197.268V80.2036Z" fill="#80D9E5"/>
<path d="M207 80H197V89.0909H207V80Z" fill="#80D9E5"/>
<path d="M214.53 80.1401H205.846V88.8239H214.53V80.1401Z" fill="#80D9E5"/>
<path d="M222.967 80.2095H214.283V88.8932H222.967V80.2095Z" fill="#80D9E5"/>
<path d="M231.545 80H221.545V89.0909H231.545V80Z" fill="#6DC6CC"/>
<path d="M240.229 80.1997H231.545V88.8835H240.229V80.1997Z" fill="#6DC6CC"/>
<path d="M248.693 80.0913H240.009V88.7751H248.693V80.0913Z" fill="#80D9E5"/>
<path d="M257.909 80H247.909V89.0909H257.909V80Z" fill="#80D9E5"/>
<path d="M265.942 80.1401H257.258V88.8239H265.942V80.1401Z" fill="#80D9E5"/>
<path d="M146.091 79.0908H136.091V89.9999H146.091V79.0908Z" fill="#6DC6CC"/>
<path d="M137.58 71.6636H128.896V80.3473H137.58V71.6636Z" fill="#80D9E5"/>
<path d="M147.909 71.8184H137V80.0002H147.909V71.8184Z" fill="#80D9E5"/>
<path d="M154.912 71.937H146.228V80.6208H154.912V71.937Z" fill="#80D9E5"/>
<path d="M163.368 71.9565H154.684V80.6403H163.368V71.9565Z" fill="#80D9E5"/>
<path d="M171.829 72.1216H163.145V80.8053H171.829V72.1216Z" fill="#80D9E5"/>
<path d="M181.545 71.8184H171.545V80.9093H181.545V71.8184Z" fill="#6DC6CC"/>
<path d="M189.091 72.0591H180.407V80.7428H189.091V72.0591Z" fill="#80D9E5"/>
<path d="M199.727 71.8184H188.818V80.9093H199.727V71.8184Z" fill="#80D9E5"/>
<path d="M206.238 72.1177H197.554V80.8014H206.238V72.1177Z" fill="#80D9E5"/>
<path d="M214.79 72.1177H206.106V80.8014H214.79V72.1177Z" fill="#80D9E5"/>
<path d="M132.929 63.9111H124.245V72.5949H132.929V63.9111Z" fill="#6DC6CC"/>
<path d="M143.363 63.6362H132.454V72.7271H143.363V63.6362Z" fill="#80D9E5"/>
<path d="M150.264 64.1841H141.58V72.8678H150.264V64.1841Z" fill="#80D9E5"/>
<path d="M158.717 64.2036H150.033V72.8874H158.717V64.2036Z" fill="#80D9E5"/>
<path d="M167.909 63.6362H157.909V72.7271H167.909V63.6362Z" fill="#80D9E5"/>
<path d="M175.746 64.3223H167.062V73.006H175.746V64.3223Z" fill="#80D9E5"/>
<path d="M184.273 63.6362H175.182V72.7271H184.273V63.6362Z" fill="#80D9E5"/>
<path d="M194.273 63.6362H184.273V72.7271H194.273V63.6362Z" fill="#80D9E5"/>
<path d="M201.59 64.3652H192.906V73.049H201.59V64.3652Z" fill="#80D9E5"/>
<path d="M210.142 64.3652H201.458V73.049H210.142V64.3652Z" fill="#80D9E5"/>
<path d="M137.534 55.3594H128.85V64.0431H137.534V55.3594Z" fill="#80D9E5"/>
<path d="M146.172 55.7271H137.488V64.4108H146.172V55.7271Z" fill="#80D9E5"/>
<path d="M155.182 55.4546H145.182V64.5455H155.182V55.4546Z" fill="#80D9E5"/>
<path d="M163.322 55.6519H154.638V64.3356H163.322V55.6519Z" fill="white"/>
<path d="M171.786 55.8164H163.102V64.5002H171.786V55.8164Z" fill="white"/>
<path d="M180.351 55.7695H171.667V64.4533H180.351V55.7695Z" fill="white"/>
<path d="M188.818 55.4546H178.818V64.5455H188.818V55.4546Z" fill="white"/>
<path d="M197.662 55.5889H188.801V64.5062H197.662V55.5889Z" fill="white"/>
<path d="M206.195 55.8135H197.511V64.4972H206.195V55.8135Z" fill="white"/>
<path d="M141.81 47.1357H133.126V55.8195H141.81V47.1357Z" fill="#80D9E5"/>
<path d="M150.636 47.2725H141.545V56.3634H150.636V47.2725Z" fill="#80D9E5"/>
<path d="M159.145 47.4082H150.461V56.092H159.145V47.4082Z" fill="white"/>
<path d="M167.598 47.4287H158.915V56.1125H167.598V47.4287Z" fill="white"/>
<path d="M176.062 47.5928H167.378V56.2765H176.062V47.5928Z" fill="white"/>
<path d="M184.628 47.5469H175.944V56.2306H184.628V47.5469Z" fill="white"/>
<path d="M193.364 47.2725H183.364V56.3634H193.364V47.2725Z" fill="white"/>
<path d="M204.242 44.0767H189.44V58.2207H204.242V44.0767Z" fill="white"/>
<path d="M210.471 47.5894H201.788V56.2731H210.471V47.5894Z" fill="white"/>
<path d="M150.362 38.5835H141.679V47.2673H150.362V38.5835Z" fill="#80D9E5"/>
<path d="M159 38.9521H150.317V47.6359H159V38.9521Z" fill="white"/>
<path d="M167.909 38.1816H157.909V48.1816H167.909V38.1816Z" fill="white"/>
<path d="M176.091 39.0913H167V48.1822H176.091V39.0913Z" fill="white"/>
<path d="M184.613 39.041H175.93V47.7248H184.613V39.041Z" fill="white"/>
<path d="M201.876 38.978H193.192V47.6618H201.876V38.978Z" fill="#80D9E5"/>
<path d="M210.313 39.0474H201.629V47.7311H210.313V39.0474Z" fill="white"/>
<path d="M219.023 37.7222H210.339V46.4059H219.023V37.7222Z" fill="#80D9E5"/>
<path d="M227.576 37.7222H218.892V46.4059H227.576V37.7222Z" fill="#80D9E5"/>
<path d="M160.931 30.2881H152.247V38.9718H160.931V30.2881Z" fill="#80D9E5"/>
<path d="M170.636 28.1816H159.727V39.0907H170.636V28.1816Z" fill="#80D9E5"/>
<path d="M178.085 30.541H169.401V39.2248H178.085V30.541Z" fill="white"/>
<path d="M212.872 30.6597H204.188V39.3434H212.872V30.6597Z" fill="#80D9E5"/>
<path d="M204.465 30.6436H195.781V39.3273H204.465V30.6436Z" fill="#80D9E5"/>
<path d="M229.727 73.6367H220.636V82.7276H229.727V73.6367Z" fill="#80D9E5"/>
<path d="M238.038 73.8218H229.355V82.5055H238.038V73.8218Z" fill="#80D9E5"/>
<path d="M246.673 73.8608H237.989V82.5446H246.673V73.8608Z" fill="#80D9E5"/>
<path d="M255.182 74.5454H246.091V82.7272H255.182V74.5454Z" fill="white"/>
<path d="M265.182 74.5454H255.182V82.7272H265.182V74.5454Z" fill="white"/>
<path d="M221.546 73.6367H211.546V82.7276H221.546V73.6367Z" fill="#6DC6CC"/>
<path d="M212.599 65.7402H203.915V74.424H212.599V65.7402Z" fill="#80D9E5"/>
<path d="M221.546 65.4546H212.455V74.5455H221.546V65.4546Z" fill="#80D9E5"/>
<path d="M229.934 66.0127H221.25V74.6965H229.934V66.0127Z" fill="#80D9E5"/>
<path d="M238.388 66.0332H229.704V74.717H238.388V66.0332Z" fill="white"/>
<path d="M246.851 66.1973H238.167V74.881H246.851V66.1973Z" fill="white"/>
<path d="M257 66.3633H246.091V74.5451H257V66.3633Z" fill="white"/>
<path d="M264.113 66.1348H255.429V74.8185H264.113V66.1348Z" fill="white"/>
<path d="M207.951 57.9873H199.268V66.6711H207.951V57.9873Z" fill="white"/>
<path d="M217.909 58.1821H207.909V66.364H217.909V58.1821Z" fill="#80D9E5"/>
<path d="M225.283 58.2598H216.599V66.9435H225.283V58.2598Z" fill="#80D9E5"/>
<path d="M233.739 58.2803H225.055V66.964H233.739V58.2803Z" fill="white"/>
<path d="M242.2 58.4414H233.516V67.1252H242.2V58.4414Z" fill="white"/>
<path d="M250.766 58.395H242.082V67.0788H250.766V58.395Z" fill="white"/>
<path d="M259.727 58.1821H248.818V67.273H259.727V58.1821Z" fill="white"/>
<path d="M212.557 50.0928H203.873V58.7765H212.557V50.0928Z" fill="white"/>
<path d="M222.003 49.3394H212.507V59.1448H222.003V49.3394Z" fill="#80D9E5"/>
<path d="M229.888 49.3789H220.688V58.8784H229.888V49.3789Z" fill="white"/>
<path d="M239.108 49.0107H229.661V58.5497H239.108V49.0107Z" fill="#80D9E5"/>
<path d="M247.002 49.0107H238.121V58.5728H247.002V49.0107Z" fill="#80D9E5"/>
<path d="M257 49.0908H247V59.0908H257V49.0908Z" fill="white"/>
<path d="M264.071 49.8296H255.387V58.5134H264.071V49.8296Z" fill="white"/>
<path d="M216.832 40.2251H208.149V48.9089H216.832V40.2251Z" fill="white"/>
<path d="M225.467 40.9224H216.783V49.6061H225.467V40.9224Z" fill="#80D9E5"/>
<path d="M234.164 40.498H224.306V50.6554H234.164V40.498Z" fill="#80D9E5"/>
<path d="M242.621 41.1753H233.937V49.8591H242.621V41.1753Z" fill="white"/>
<path d="M251.081 41.3369H242.397V50.0207H251.081V41.3369Z" fill="white"/>
<path d="M259.646 41.2905H250.963V49.9743H259.646V41.2905Z" fill="white"/>
<path d="M128.499 78.7295H119.815V87.4133H128.499V78.7295Z" fill="#6DC6CC"/>
<path d="M137.472 79.9297H128.452V89.097H137.472V79.9297Z" fill="#6DC6CC"/>
<path d="M119.828 79.647H111.144V88.3307H119.828V79.647Z" fill="#6DC6CC"/>
<path d="M163.842 71.7988H155.158V80.4826H163.842V71.7988Z" fill="#80D9E5"/>
<path d="M156.658 34.1528H147.974V42.8366H156.658V34.1528Z" fill="#80D9E5"/>
<path d="M120.486 71.5757H111.802V80.2594H120.486V71.5757Z" fill="#6DC6CC"/>
<path d="M129.124 71.6143H120.44V80.298H129.124V71.6143Z" fill="#80D9E5"/>
<path d="M155.234 71.835H146.55V80.5187H155.234V71.835Z" fill="#80D9E5"/>
<path d="M221.53 31.3276H212.846V40.0114H221.53V31.3276Z" fill="#80D9E5"/>
<path d="M230.082 31.9854H221.398V40.6691H230.082V31.9854Z" fill="#80D9E5"/>
<path d="M239.728 32.7275H229.728V41.8185H239.728V32.7275Z" fill="white"/>
<path d="M246.913 32.9131H238.23V41.5969H246.913V32.9131Z" fill="white"/>
<path d="M257 31.8179H245.182V41.8179H257V31.8179Z" fill="white"/>
<path d="M227.562 24.9458H218.879V33.6296H227.562V24.9458Z" fill="#80D9E5"/>
<path d="M237.909 24.5454H227V33.6363H237.909V24.5454Z" fill="white"/>
<path d="M244.894 25.8765H236.21V34.5602H244.894V25.8765Z" fill="white"/>
<path d="M255.225 25.3276H243.713V35.1955H255.225V25.3276Z" fill="white"/>
<path d="M228.24 17.4888H219.556V26.1725H228.24V17.4888Z" fill="#80D9E5"/>
<path d="M236.703 17.6504H228.02V26.3342H236.703V17.6504Z" fill="white"/>
<path d="M246.091 17.2729H236.091V26.3639H246.091V17.2729Z" fill="white"/>
<path d="M253.965 18.2495H245.282V26.9333H253.965V18.2495Z" fill="white"/>
<path d="M218.987 23.5479H210.303V32.2316H218.987V23.5479Z" fill="#80D9E5"/>
<path d="M232.056 9.56836H223.372V18.2521H232.056V9.56836Z" fill="#80D9E5"/>
<path d="M240.617 9.52295H231.934V18.2067H240.617V9.52295Z" fill="white"/>
<path d="M249.315 9.50586H239.766V19.0777H249.315V9.50586Z" fill="white"/>
<path d="M220.303 16.3115H211.619V24.9953H220.303V16.3115Z" fill="#80D9E5"/>
<path d="M236.661 1.67432H227.977V10.3581H236.661V1.67432Z" fill="#80D9E5"/>
<path d="M246.016 0H236.539V10.312H246.016V0Z" fill="white"/>
<path d="M253.923 1.61182H245.239V10.2956H253.923V1.61182Z" fill="white"/>
<path d="M224.675 9.71338H215.991V18.3971H224.675V9.71338Z" fill="#80D9E5"/>
<path d="M212.737 22.2324H204.054V30.9162H212.737V22.2324Z" fill="#80D9E5"/>
<path d="M274.488 80.2886H265.804V88.9723H274.488V80.2886Z" fill="#80D9E5"/>
<path d="M283.951 79.6016H274.366V90.43H283.951V79.6016Z" fill="#80D9E5"/>
<path d="M274.273 71.8184H264.273V80.9093H274.273V71.8184Z" fill="white"/>
<path d="M281.25 71.7593H272.567V80.443H281.25V71.7593Z" fill="white"/>
<path d="M289.803 71.7593H281.119V80.443H289.803V71.7593Z" fill="#80D9E5"/>
<path d="M272.455 65.4546H261.546V74.5455H272.455V65.4546Z" fill="white"/>
<path d="M279.234 65.7139H270.55V74.3976H279.234V65.7139Z" fill="white"/>
<path d="M287.688 65.7334H279.004V74.4172H287.688V65.7334Z" fill="#6DC6CC"/>
<path d="M270.712 57.8164H262.028V66.5002H270.712V57.8164Z" fill="white"/>
<path d="M280.636 58.1821H270.636V66.364H280.636V58.1821Z" fill="#80D9E5"/>
<path d="M287.974 57.7534H279.29V66.4372H287.974V57.7534Z" fill="#80D9E5"/>
<path d="M265.077 57.625H256.393V66.3088H265.077V57.625Z" fill="white"/>
<path d="M272.656 50.0137H263.972V58.6974H272.656V50.0137Z" fill="white"/>
<path d="M281.546 50H270.636V59.0909H281.546V50Z" fill="white"/>
<path d="M268.818 40.9092H258.818V50.9092H268.818V40.9092Z" fill="white"/>
<path d="M276.932 41.7905H268.248V50.4743H276.932V41.7905Z" fill="white"/>
<path d="M286.091 41.8179H275.182V50.9088H286.091V41.8179Z" fill="white"/>
<path d="M264.179 33.1235H255.495V41.8073H264.179V33.1235Z" fill="white"/>
<path d="M272.642 33.2842H263.958V41.9679H272.642V33.2842Z" fill="white"/>
<path d="M281.208 33.2383H272.524V41.922H281.208V33.2383Z" fill="white"/>
<path d="M266.08 21.0513H253.866V33.2151H266.08V21.0513Z" fill="white"/>
<path d="M271.103 24.8604H262.419V33.5441H271.103V24.8604Z" fill="white"/>
<path d="M279.613 25.0615H270.929V33.7453H279.613V25.0615Z" fill="white"/>
<path d="M288.066 25.0845H279.382V33.7682H288.066V25.0845Z" fill="white"/>
<path d="M281.3 19.4204H272.616V28.1042H281.3V19.4204Z" fill="white"/>
<path d="M288.355 16.4468H279.672V25.1305H288.355V16.4468Z" fill="white"/>
<path d="M298.348 71.9072H289.665V80.591H298.348V71.9072Z" fill="#6DC6CC"/>
<path d="M307.529 71.8618H298.23V81.2462H307.529V71.8618Z" fill="#80D9E5"/>
<path d="M257.528 9.91016H248.845V18.5939H257.528V9.91016Z" fill="white"/>
<path d="M261.804 16.8179H253.12V25.5016H261.804V16.8179Z" fill="white"/>
<path d="M292.628 79.6636H283.53V90.2321H292.628V79.6636Z" fill="#80D9E5"/>
<path d="M301.605 80.0093H292.506V90.5778H301.605V80.0093Z" fill="#6DC6CC"/>
<path d="M312.89 63.1646H304.206V71.8483H312.89V63.1646Z" fill="white"/>
<path d="M315.666 71.7661H306.982V80.4499H315.666V71.7661Z" fill="#80D9E5"/>
<path d="M309.831 80.2588H300.404V89.3307H309.831V80.2588Z" fill="#6DC6CC"/>
<path d="M306.594 50.0273H297.91V58.7111H306.594V50.0273Z" fill="white"/>
<path d="M315.182 50H304.273V59.0909H315.182V50Z" fill="white"/>
<path d="M323.748 50.2808H315.064V58.9645H323.748V50.2808Z" fill="white"/>
<path d="M311.377 41.7051H302.693V50.3888H311.377V41.7051Z" fill="white"/>
<path d="M319.942 41.6587H311.258V50.3425H319.942V41.6587Z" fill="white"/>
<path d="M296.733 24.8667H288.049V33.5505H296.733V24.8667Z" fill="white"/>
<path d="M289.635 50.0205H280.951V58.7043H289.635V50.0205Z" fill="#80D9E5"/>
<path d="M297.909 49.0908H288.818V59.0908H297.909V49.0908Z" fill="white"/>
<path d="M295.182 40.9092H285.182V50.9092H295.182V40.9092Z" fill="#80D9E5"/>
<path d="M303.364 41.8179H294.273V52.727H303.364V41.8179Z" fill="white"/>
<path d="M289.622 33.291H280.938V41.9748H289.622V33.291Z" fill="white"/>
<path d="M301.276 30.2617H289.503V41.9289H301.276V30.2617Z" fill="white"/>
<path d="M297 56.4443H287.296V66.1149H297V56.4443Z" fill="#80D9E5"/>
<path d="M296.67 65.1978H287.25V74.0098H296.67V65.1978Z" fill="#80D9E5"/>
<path d="M304.72 64.5586H296.036V73.2424H304.72V64.5586Z" fill="white"/>
<path d="M304.273 55.4546H295.182V65.4546H304.273V55.4546Z" fill="white"/>
<path d="M312.455 58.1821H302.455V67.273H312.455V58.1821Z" fill="white"/>
<path d="M317.909 80H309.727V89.0909H317.909V80Z" fill="#6DC6CC"/>
<path d="M306.792 34.0405H298.108V42.7243H306.792V34.0405Z" fill="white"/>
<path d="M327.452 67.2988H318.768V75.9826H327.452V67.2988Z" fill="white"/>
<path d="M324.307 74.2563H315.623V82.9401H324.307V74.2563Z" fill="white"/>
<path d="M321.068 58.7573H312.384V67.4411H321.068V58.7573Z" fill="white"/>
<path d="M321.541 67.2925H312.857V75.9762H321.541V67.2925Z" fill="white"/>
<path d="M327 80.9092H317V89.091H327V80.9092Z" fill="#6DC6CC"/>
<path d="M333.364 73.6367H323.364V81.8185H333.364V73.6367Z" fill="white"/>
<path d="M335.182 80.9092H325.182V90.0001H335.182V80.9092Z" fill="#6DC6CC"/>
<path d="M112.413 80.1104H103.73V88.7941H112.413V80.1104Z" fill="#6DC6CC"/>
<path d="M112.413 74.3418H103.73V83.0256H112.413V74.3418Z" fill="#6DC6CC"/>
<path d="M105.684 80.4302H97V89.1139H105.684V80.4302Z" fill="#6DC6CC"/>
<path d="M341.616 76.3677H332.932V85.0514H341.616V76.3677Z" fill="white"/>
<path d="M344.273 81.8179H335.182V90.9088H344.273V81.8179Z" fill="#6DC6CC"/>
<path d="M347 78.7163H338.316V87.4001H347V78.7163Z" fill="#6DC6CC"/>
<path d="M218.29 43.5176H209.606V52.2013H218.29V43.5176Z" fill="white"/>
</g>
<path d="M54.4186 185.583H46.5769V193.787H54.4186V185.583Z" fill="#6DC6CC"/>
<path d="M3.35954 180.145H-3.79639V187.301H3.35954V180.145Z" fill="#80D9E5"/>
<path d="M10.3334 180.281H3.17749V187.437H10.3334V180.281Z" fill="#80D9E5"/>
<path d="M17.5249 180.35H10.2749V187.6H17.5249V180.35Z" fill="#80D9E5"/>
<path d="M24.5585 181.042H17.4026V188.198H24.5585V181.042Z" fill="white"/>
<path d="M31.2409 184.352H24.085V191.507H31.2409V184.352Z" fill="white"/>
<path d="M38.4154 184.344H30.3135V191.817H38.4154V184.344Z" fill="white"/>
<path d="M3.4406 173.623H-3.71533V180.779H3.4406V173.623Z" fill="white"/>
<path d="M10.4064 173.64H3.25049V180.796H10.4064V173.64Z" fill="white"/>
<path d="M17.3808 173.775H10.2249V180.931H17.3808V173.775Z" fill="white"/>
<path d="M32.4844 176.367H24.1792V184.946H32.4844V176.367Z" fill="#80D9E5"/>
<path d="M38.55 177.45H31.3V184.7H38.55V177.45Z" fill="white"/>
<path d="M45.4655 177.025H38.3096V184.181H45.4655V177.025Z" fill="#80D9E5"/>
<path d="M52.5136 177.025H45.3577V184.181H52.5136V177.025Z" fill="#80D9E5"/>
<path d="M5.03142 167.026H-2.12451V174.182H5.03142V167.026Z" fill="#80D9E5"/>
<path d="M11.9982 167.044H4.84229V174.2H11.9982V167.044Z" fill="white"/>
<path d="M40.6136 168.234H30.5845V177.992H40.6136V168.234Z" fill="#80D9E5"/>
<path d="M33.7402 169.839H26.5842V176.995H33.7402V169.839Z" fill="#6DC6CC"/>
<path d="M40.1366 186.406H32.9807V193.562H40.1366V186.406Z" fill="#6DC6CC"/>
<path d="M47.2516 185.896H40.0957V193.052H47.2516V185.896Z" fill="#80D9E5"/>
<path d="M61.6126 185.854H54.2317V193.79H61.6126V185.854Z" fill="#80D9E5"/>
<path d="M68.8033 186.002H61.4224V193.939H68.8033V186.002Z" fill="#80D9E5"/>
<path d="M74.3333 185.04H66.6353V192.546H74.3333V185.04Z" fill="#80D9E5"/>
<path d="M43.6573 179.088H36.0054V186.667H43.6573V179.088Z" fill="#6DC6CC"/>
<path d="M50.7756 179.121H43.6196V186.277H50.7756V179.121Z" fill="#80D9E5"/>
<path d="M58.1249 179.625H50.1499V186.875H58.1249V179.625Z" fill="#80D9E5"/>
<path d="M64.9108 179.329H57.7549V186.485H64.9108V179.329Z" fill="white"/>
<path d="M71.8827 179.464H64.7268V186.62H71.8827V179.464Z" fill="white"/>
<path d="M78.9411 179.427H71.7852V186.583H78.9411V179.427Z" fill="white"/>
<path d="M47.5282 171.756H40.3723V178.912H47.5282V171.756Z" fill="#6DC6CC"/>
<path d="M55.2508 171.756H47.4199V179.619H55.2508V171.756Z" fill="#80D9E5"/>
<path d="M61.2814 172.48H54.1255V179.636H61.2814V172.48Z" fill="white"/>
<path d="M68.2749 172.375H59.575V179.625H68.2749V172.375Z" fill="white"/>
<path d="M76.9748 172.375H66.0999V179.625H76.9748V172.375Z" fill="white"/>
<path d="M52.7705 165.524H44.6794V173.656H52.7705V165.524Z" fill="#80D9E5"/>
<path d="M59.8886 166.53H52.7327V173.686H59.8886V166.53Z" fill="white"/>
<path d="M68.2748 166.575H58.8499V173.825H68.2748V166.575Z" fill="white"/>
<path d="M74.0238 166.741H66.8679V173.897H74.0238V166.741Z" fill="white"/>
<path d="M53.0607 160.081H45.9048V167.237H53.0607V160.081Z" fill="#80D9E5"/>
<path d="M60.0353 160.214H52.8794V167.37H60.0353V160.214Z" fill="white"/>
<path d="M67.0929 160.179H59.937V167.335H67.0929V160.179Z" fill="white"/>
<path d="M74.075 160.05H65.375V167.3H74.075V160.05Z" fill="white"/>
<path d="M45.436 165.348H38.28V172.504H45.436V165.348Z" fill="#80D9E5"/>
<path d="M56.2023 153.825H49.0464V160.981H56.2023V153.825Z" fill="#80D9E5"/>
<path d="M63.2611 153.788H56.1052V160.944H63.2611V153.788Z" fill="white"/>
<path d="M70.45 153.525H61.75V160.775H70.45V153.525Z" fill="white"/>
<path d="M46.5197 159.113H39.3638V166.269H46.5197V159.113Z" fill="#80D9E5"/>
<path d="M59.9972 147.049H52.8413V154.205H59.9972V147.049Z" fill="#80D9E5"/>
<path d="M68.2749 147H59.575V154.25H68.2749V147Z" fill="white"/>
<path d="M74.2248 147H67.0688V154.156H74.2248V147Z" fill="white"/>
<path d="M50.1225 153.944H42.9666V161.1H50.1225V153.944Z" fill="#80D9E5"/>
<path d="M40.2858 162.638H33.1299V169.794H40.2858V162.638Z" fill="#80D9E5"/>
<path d="M92.6435 184.989H85.4875V192.145H92.6435V184.989Z" fill="#6DC6CC"/>
<path d="M96.8283 185.788H89.6724V192.944H96.8283V185.788Z" fill="#6DC6CC"/>
<path d="M86.1247 177.45H77.749V187.032H86.1247V177.45Z" fill="#6DC6CC"/>
<path d="M93.1852 179.839H86.0293V186.995H93.1852V179.839Z" fill="#80D9E5"/>
<path d="M100.899 179.625H92.1995V187.6H100.899V179.625Z" fill="white"/>
<path d="M82.6762 172.423H75.5203V179.579H82.6762V172.423Z" fill="white"/>
<path d="M89.1411 172.069H81.8145V179.982H89.1411V172.069Z" fill="#6DC6CC"/>
<path d="M96.3702 172.029H89.0435V179.941H96.3702V172.029Z" fill="white"/>
<path d="M81.0636 165.343H73.9077V172.499H81.0636V165.343Z" fill="white"/>
<path d="M89.6752 165.343H80.9553V172.572H89.6752V165.343Z" fill="white"/>
<path d="M95.3915 165.511H88.2356V172.667H95.3915V165.511Z" fill="white"/>
<path d="M102.361 165.527H95.2051V172.683H102.361V165.527Z" fill="white"/>
<path d="M95.4296 161.675H88.2737V168.831H95.4296V161.675Z" fill="white"/>
<path d="M102.326 159.764H95.1697V166.92H102.326V159.764Z" fill="white"/>
<path d="M77.1928 153.026H70.0369V160.182H77.1928V153.026Z" fill="white"/>
<path d="M81.325 158.6H72.625V165.85H81.325V158.6Z" fill="white"/>
<path d="M117.088 186.352H109.932V193.508H117.088V186.352Z" fill="#80D9E5"/>
<path d="M123.375 186.15H115.4V194.125H123.375V186.15Z" fill="#80D9E5"/>
<path d="M121.028 179.765H113.872V186.921H121.028V179.765Z" fill="white"/>
<path d="M127 179.728H119.844V186.883H127V179.728Z" fill="white"/>
<path d="M108.961 165.619H101.805V172.775H108.961V165.619Z" fill="white"/>
<path d="M104.525 186.15H96.5498V194.125H104.525V186.15Z" fill="#80D9E5"/>
<path d="M110.823 186.336H103.667V193.492H110.823V186.336Z" fill="#80D9E5"/>
<path d="M108.15 179.625H100.175V186.875H108.15V179.625Z" fill="#80D9E5"/>
<path d="M114.618 179.831H107.462V186.986H114.618V179.831Z" fill="white"/>
<path d="M103.472 172.076H96.1453V179.988H103.472V172.076Z" fill="white"/>
<path d="M110.701 172.035H103.374V179.947H110.701V172.035Z" fill="white"/>
<path d="M117.789 173.178H110.634V180.334H117.789V173.178Z" fill="white"/>
<path d="M115.637 167.364H108.481V174.52H115.637V167.364Z" fill="white"/>
<path d="M124.1 172.375H116.85V180.35H124.1V172.375Z" fill="white"/>
<path d="M122.005 168.812H114.849V175.968H122.005V168.812Z" fill="white"/>
<path d="M78.2306 184.048H71.0747V191.204H78.2306V184.048Z" fill="white"/>
<path d="M88.8022 182.151H81.6462V189.307H88.8022V182.151Z" fill="#6DC6CC"/>
<path d="M21.8695 177.252H14.7136V184.408H21.8695V177.252Z" fill="white"/>
<path d="M125.183 183.956H119.637V189.974H125.183V183.956Z" fill="#80D9E5"/>
</svg>
