<svg width="80" height="93" viewBox="0 0 80 93" fill="none" xmlns="http://www.w3.org/2000/svg">
<path fill-rule="evenodd" clip-rule="evenodd" d="M37.8044 0.41851C46.151 0.239897 54.7515 1.09353 61.6417 6.03306C68.6451 11.0537 72.8173 19.1457 75.6295 27.5351C78.5 36.098 80.7934 45.5192 77.723 54.0056C74.7107 62.3314 66.7236 66.9965 59.5977 71.8466C52.8518 76.4381 45.823 80.5064 37.8044 81.1755C29.2822 81.8866 20.1658 81.0938 13.3349 75.7067C6.55293 70.3582 3.78811 61.3279 1.70408 52.7055C-0.260234 44.5785 -0.435206 36.2063 1.84533 28.1704C4.17275 19.9693 8.08979 12.1122 14.6642 7.03836C21.2637 1.94505 29.6099 0.59387 37.8044 0.41851Z" fill="#E06B65"/>
<path d="M40.5524 15.6846C40.5524 15.6846 27.3824 15.8946 27.1724 34.4946C27.1724 34.4946 20.0624 33.2446 26.1724 42.4946C26.1724 42.4946 26.7723 44.0746 28.6423 42.4946C30.5123 40.9146 26.8924 46.2846 35.3924 51.6546C35.3924 51.6546 35.5124 60.2746 33.3924 61.6546C31.2724 63.0346 45.0124 67.7746 47.2523 61.6546C45.8033 59.8804 45.0402 57.6445 45.1024 55.3546C45.1024 55.3546 54.5423 54.8746 54.5923 38.6146C54.6423 22.3546 50.1024 14.7446 40.5524 15.6846Z" fill="#E8C0B6"/>
<path d="M65.1024 66.1346C65.1024 66.1346 62.4424 50.0246 63.6824 43.0046C64.9224 35.9846 51.4924 15.6446 51.4924 15.6446C51.4924 15.6446 52.7224 6.85459 46.4924 9.49459C46.4924 9.49459 42.2224 12.5946 34.4924 10.8446C26.7624 9.09459 22.1024 19.5746 22.6524 23.0646C22.6524 23.0646 9.85239 27.7246 13.7324 48.0646C17.6124 68.4046 17.6124 86.8546 23.2324 89.7646C28.8524 92.6746 36.6224 94.0646 42.1024 85.9146C47.5824 77.7646 53.7324 81.4346 53.7324 81.4346C53.7324 81.4346 66.6824 86.3046 65.1024 66.1346ZM52.3924 49.6146C49.9124 53.4546 48.2424 54.9346 45.7824 54.9346C43.3224 54.9346 46.8824 61.2046 46.8824 61.2046C40.3524 64.4046 34.0824 60.6746 34.0824 60.6746C36.9124 58.6746 36.0824 51.6746 36.0824 51.6746C32.6324 51.4546 29.1724 42.2046 29.1724 42.2046C26.3424 44.4246 25.0624 40.6446 25.0624 40.6446C22.6124 32.9746 27.2124 34.5146 27.2124 34.5146C26.5924 25.5146 36.6924 23.3446 42.7324 22.1146C48.7724 20.8846 49.2624 18.2946 49.2624 18.2946C56.6924 26.9546 54.9124 45.7146 52.3924 49.6146Z" fill="black"/>
<path d="M46.7809 59.7438C41.0716 64.3113 35.5205 61.6469 33.4587 59.7438C23.3626 59.3226 15.6129 74.9521 13 82.8195H69.6185C64.3849 73.2245 52.4902 55.1763 46.7809 59.7438Z" fill="#FFB6B3"/>
</svg>
