<svg width="80" height="85" viewBox="0 0 80 85" fill="none" xmlns="http://www.w3.org/2000/svg">
<path fill-rule="evenodd" clip-rule="evenodd" d="M39.8729 0.854732C47.8183 0.55077 55.7381 2.18846 62.5045 6.72251C69.6601 11.5174 76.3159 18.0972 78.6827 26.8605C81.0204 35.5158 78.2813 44.6706 74.9902 52.9519C71.9501 60.6016 66.927 66.8321 60.8033 71.8498C54.5783 76.9506 47.6536 81.1703 39.8729 81.7268C31.7401 82.3084 23.4563 80.1632 16.8395 74.994C10.2032 69.8095 6.19041 61.7811 3.57411 53.3689C0.931549 44.8723 -0.810612 35.6251 1.96879 27.1802C4.70921 18.8537 11.5122 13.1743 18.3707 8.41091C24.8766 3.89238 32.1556 1.14997 39.8729 0.854732Z" fill="#FFFF99"/>
<path d="M39.6938 15.8871C39.6938 15.8871 26.5238 16.0971 26.3138 34.7071C26.3138 34.7071 19.2138 33.4471 25.3138 42.6471C25.3138 42.6471 25.9038 44.2271 27.7738 42.6471C29.6438 41.0671 26.0038 46.3971 34.4838 51.7671C34.4838 51.7671 34.6038 60.3871 32.4838 61.7671C30.3638 63.1471 44.1038 67.8871 46.3538 61.7671C44.9216 60.0081 44.1661 57.7947 44.2238 55.5271C44.2238 55.5271 53.6638 55.0471 53.7238 38.7871C53.7838 22.5271 49.2738 14.8871 39.6938 15.8871Z" fill="#E8C8B6"/>
<path d="M54.0838 15.4971C54.0838 15.4971 49.3738 12.4971 49.5138 11.0671C49.6538 9.63714 46.2338 7.88714 43.3738 9.21714C43.3738 9.21714 38.3738 5.06713 33.5238 9.35713C33.5238 9.35713 27.0938 8.78714 24.9538 12.9271C24.9538 12.9271 19.9538 12.4971 21.9538 19.4971C21.9538 19.4971 16.9538 21.9271 20.8138 27.3471C20.8138 27.3471 17.9538 31.6371 21.8138 34.2071C25.6738 36.7771 25.9538 33.6371 26.8138 38.2071C27.6738 42.7771 29.0938 33.9171 28.9538 32.2071C28.8138 30.4971 28.9538 26.7771 31.2338 27.7771C33.5138 28.7771 30.3838 22.8871 35.0038 25.2071C39.6238 27.5271 41.8538 20.7071 43.7138 23.4571C45.5738 26.2071 49.5638 27.4571 50.5638 24.6371C51.5638 21.8171 53.4238 25.8471 55.4238 23.4571C57.4238 21.0671 58.6538 19.8871 54.0838 15.4971Z" fill="#604637"/>
<path d="M45.8975 61.484C40.1882 66.0515 34.6371 63.3871 32.5753 61.484C22.4792 61.0627 14.7295 76.6922 12.1166 84.5596H68.7351C63.5015 74.9646 51.6068 56.9165 45.8975 61.484Z" fill="#F8F8C8"/>
</svg>
