<svg width="80" height="85" viewBox="0 0 80 85" fill="none" xmlns="http://www.w3.org/2000/svg">
<path fill-rule="evenodd" clip-rule="evenodd" d="M38.296 0.940728C46.6133 0.240862 54.959 2.58852 61.9379 7.53009C69.1607 12.6444 75.1768 19.9412 77.7258 28.8598C80.2537 37.7049 78.7976 47.2163 75.7535 55.8693C72.8252 64.1934 67.9167 71.6634 60.9788 76.4646C54.2987 81.0873 46.2269 81.7009 38.296 81.7905C30.2819 81.881 21.7555 82.0663 15.2663 76.981C8.77393 71.8932 6.34701 63.0495 3.86298 54.8068C1.37688 46.5573 -1.5328 37.8423 0.989093 29.6055C3.50527 21.3873 10.6582 16.3106 17.1848 11.2959C23.6416 6.33479 30.3986 1.60526 38.296 0.940728Z" fill="#99CC99"/>
<path d="M38.6498 15.8172C38.6498 15.8172 25.4798 16.0272 25.2398 34.6672C25.2398 34.6672 18.1298 33.4072 24.2398 42.6072C24.2398 42.6072 24.8298 44.1972 26.6998 42.6072C28.5698 41.0172 24.9498 46.3972 33.4498 51.7672C33.4498 51.7672 33.5698 60.3872 31.4498 61.7672C29.3298 63.1472 43.0698 67.8872 45.3098 61.7672C43.8837 60.0016 43.1322 57.7862 43.1898 55.5172C43.1898 55.5172 52.6298 55.0372 52.6798 38.7772C52.7298 22.5172 48.2398 14.8772 38.6498 15.8172Z" fill="#E8C0B6"/>
<path d="M20.1498 21.9072C20.1498 21.9072 16.7198 25.6572 21.0498 31.1272C20.8621 31.5158 20.7603 31.9402 20.7516 32.3716C20.7428 32.8031 20.8272 33.2313 20.999 33.6271C21.1708 34.023 21.426 34.3771 21.7471 34.6653C22.0683 34.9535 22.4478 35.1691 22.8598 35.2972C22.8598 35.2972 24.9798 37.7172 25.7798 35.7972C26.5798 33.8772 27.9998 26.6372 31.2198 26.5372C31.2198 26.5372 30.4098 20.2972 35.3498 21.1072C35.3498 21.1072 36.3498 18.7872 38.4698 19.7972C40.5898 20.8072 42.1598 22.1372 44.0798 20.4272C45.9998 18.7172 47.5298 25.5772 50.2898 24.8972C51.8398 24.5072 51.6498 34.7972 52.6598 33.7872C53.6698 32.7772 55.7798 22.0072 50.4398 15.9772C50.4398 15.9772 46.2198 13.2572 44.7098 14.9772C44.7098 14.9772 43.2998 11.7572 39.9798 11.7572C36.6598 11.7572 34.9798 13.2672 33.3298 12.9672C31.6798 12.6672 28.7998 12.4572 27.3898 13.9672C27.3898 13.9572 19.1598 18.5272 20.1498 21.9072Z" fill="black"/>
<path d="M45.2398 14.5872C45.4344 13.9301 45.8481 13.3594 46.4121 12.97C46.9761 12.5807 47.6564 12.3962 48.3398 12.4472" fill="black"/>
<path d="M44.0798 13.9372C44.0899 13.445 44.276 12.9726 44.6044 12.6057C44.9328 12.2388 45.3817 12.0017 45.8698 11.9372" fill="black"/>
<path d="M44.255 61.484C38.5456 66.0515 32.9946 63.3871 30.9327 61.484C20.8366 61.0627 13.0869 76.6922 10.474 84.5596H67.0925C61.8589 74.9646 49.9643 56.9165 44.255 61.484Z" fill="#CBF4CB"/>
</svg>
