<svg width="80" height="83" viewBox="0 0 80 83" fill="none" xmlns="http://www.w3.org/2000/svg">
<path fill-rule="evenodd" clip-rule="evenodd" d="M41.898 0.207194C50.5317 -0.266263 59.255 2.79305 65.8057 8.29294C72.0642 13.5475 74.4289 21.6008 76.6225 29.3613C78.7179 36.7746 80.4024 44.4607 78.1083 51.8179C75.7867 59.2632 70.1138 64.9819 63.9663 69.9491C57.4308 75.2298 50.3643 80.452 41.898 81.0758C33.0848 81.7251 24.3531 78.5329 17.2638 73.3903C10.2308 68.2885 5.51166 60.8564 2.8176 52.7265C0.127504 44.6086 -1.07998 35.7 2.14614 27.7698C5.27364 20.0819 12.9535 15.6069 19.8688 10.8121C26.7095 6.06902 33.5154 0.666889 41.898 0.207194Z" fill="#99CCFF"/>
<path d="M38.7074 13.6101C38.7074 13.6101 25.5374 13.7801 25.3274 32.3901C25.3274 32.3901 18.2274 31.1301 24.3274 40.3301C24.3274 40.3301 24.9174 41.9101 26.7874 40.3301C28.6574 38.7501 25.0374 44.1201 33.5374 49.4901C33.5374 49.4901 33.6574 58.1101 31.5374 59.4901C29.4174 60.8701 43.1574 65.6101 45.4074 59.4901C43.9752 57.7311 43.2196 55.5177 43.2774 53.2501C43.2774 53.2501 52.7174 52.7701 52.7774 36.5101C52.8374 20.2501 48.2974 12.6101 38.7074 13.6101Z" fill="#E8C0B6"/>
<path d="M27.0774 36.41C25.1251 34.0913 23.7767 31.3258 23.152 28.3597C22.5274 25.3937 22.6461 22.3192 23.4974 19.41C26.2974 8.98004 40.1774 7.74004 46.3374 9.20004C52.4974 10.66 53.7274 5.95004 53.7274 5.95004C53.7274 5.95004 60.3374 20.51 53.7274 23.53C47.1174 26.55 27.5274 18.89 27.0774 36.41Z" fill="black" stroke="black" stroke-miterlimit="10"/>
<path d="M45.1811 59.8238C39.4717 64.3913 33.9207 61.7269 31.8588 59.8238C21.7627 59.4025 14.013 75.032 11.4001 82.8994H68.0186C62.785 73.3044 50.8904 55.2563 45.1811 59.8238Z" fill="#C3DDF7"/>
</svg>
