<svg width="82" height="85" viewBox="0 0 82 85" fill="none" xmlns="http://www.w3.org/2000/svg">
<path fill-rule="evenodd" clip-rule="evenodd" d="M40.0604 1.18608C47.9798 0.815666 56.0908 2.03832 62.6672 6.87997C69.3894 11.829 73.6598 19.6648 76.4594 27.9837C79.3527 36.5809 81.4909 46.0201 78.7529 54.678C76.038 63.2632 68.9135 68.9391 61.9454 73.8795C55.3094 78.5846 47.9645 82.3708 40.0604 82.1118C32.2976 81.8575 25.2011 77.7438 19.1074 72.476C13.2128 67.3803 9.20481 60.5046 6.29813 52.9254C3.14695 44.7086 -0.631663 35.8261 1.7891 27.3181C4.21882 18.7785 11.8808 13.6662 18.8157 8.93102C25.3069 4.49877 32.4158 1.54364 40.0604 1.18608Z" fill="white" stroke="#DADADA" stroke-width="2"/>
<path d="M25.5319 44.5355C25.5319 44.5355 29.2419 54.5355 33.5319 52.7755C33.5319 52.7755 27.7619 49.0755 27.8119 43.6355C27.8119 43.3555 27.3119 43.6955 27.1119 43.8955C26.9161 44.1173 26.6714 44.2905 26.3972 44.4016C26.1231 44.5126 25.8268 44.5585 25.5319 44.5355Z" fill="black"/>
<path d="M39.1019 17.0855C39.1019 17.0855 25.9319 17.2955 25.7219 35.8955C25.7219 35.8955 18.6119 34.6455 24.6719 43.8955C24.6719 43.8955 25.2719 45.4755 27.1419 43.8955C29.0119 42.3155 25.3919 47.6755 33.8919 53.0555C33.8919 53.0555 34.0119 61.6755 31.8919 63.0555C29.7719 64.4356 43.5019 69.1755 45.7519 63.0555C44.3257 61.2899 43.5742 59.0745 43.6319 56.8055C43.6319 56.8055 53.0719 56.3355 53.1219 40.0655C53.1819 23.8955 48.6819 16.1455 39.1019 17.0855Z" fill="#E8C0B6"/>
<path d="M38.0419 15.3255C38.0419 15.3255 33.9619 4.53554 24.6419 8.99554C15.3219 13.4555 24.7019 28.5755 24.2719 25.2455C23.5219 19.4355 16.7719 30.7255 23.4419 36.1055C23.4419 35.0255 36.3819 38.8555 42.0119 23.1055C42.0119 23.1055 51.4419 32.9755 52.7619 31.5055C54.0819 30.0355 52.3219 14.4455 38.0419 15.3255Z" fill="black"/>
<path d="M46.1083 61.6824C40.399 66.2499 34.8479 63.5855 32.786 61.6824C22.6899 61.2612 14.9402 76.8907 12.3274 84.7581H68.9459C63.7122 75.1631 51.8176 57.1149 46.1083 61.6824Z" fill="#D5D5D5"/>
</svg>
