<svg width="80" height="84" viewBox="0 0 80 84" fill="none" xmlns="http://www.w3.org/2000/svg">
<path fill-rule="evenodd" clip-rule="evenodd" d="M39.9598 0.291416C47.6592 0.190447 55.0029 3.52463 61.2391 8.56079C67.4825 13.6028 72.0862 20.5603 74.9437 28.5436C77.9649 36.9837 80.6361 46.4057 77.841 54.9421C75.0795 63.3761 67.3137 67.9607 60.4815 72.7126C54.1277 77.1317 47.4482 81.3345 39.9598 81.2888C32.496 81.2433 25.9883 76.768 19.6005 72.4632C12.5928 67.7407 4.22881 63.7493 1.28879 55.2282C-1.69553 46.5786 1.09309 36.8408 4.3715 28.3247C7.42126 20.4024 12.726 14.0886 19.041 9.11416C25.2827 4.19754 32.3182 0.391626 39.9598 0.291416Z" fill="#343434"/>
<path d="M39.4966 15.4623C39.4966 15.4623 26.3266 15.6723 26.1166 34.2723C26.1166 34.2723 19.0066 33.0223 25.1166 42.2723C25.1166 42.2723 25.7166 43.8523 27.5866 42.2723C29.4566 40.6923 25.8366 46.0623 34.3366 51.4323C34.3366 51.4323 34.4566 60.0523 32.3366 61.4323C30.2166 62.8123 45.2047 67.3977 47.4447 61.2777C45.9957 59.5035 43.9845 57.4222 44.0466 55.1323C44.0466 55.1323 53.4866 54.6523 53.5366 38.3923C53.5866 22.1323 49.0466 14.5223 39.4966 15.4623Z" fill="#E8C0B6"/>
<path d="M64.0471 65.9122C64.0471 65.9122 61.3871 49.8022 62.6271 42.7822C63.8671 35.7622 50.4371 15.4222 50.4371 15.4222C50.4371 15.4222 51.6671 6.63224 45.4371 9.27224C45.4371 9.27224 41.1671 12.3722 33.4371 10.6222C25.7071 8.87224 21.0471 19.3522 21.5971 22.8422C21.5971 22.8422 8.79712 27.5022 12.6771 47.8422C16.5571 68.1822 18.3871 78.3022 24.0071 81.2122C29.6271 84.1222 36.1971 83.9675 41.6771 75.8175C47.1571 67.6675 52.6771 81.2122 52.6771 81.2122C52.6771 81.2122 65.6271 86.0822 64.0471 65.9122ZM51.3371 49.3922C48.8571 53.2322 47.1871 54.7122 44.7271 54.7122C42.2671 54.7122 46.4447 60.2777 46.4447 60.2777C39.9447 65.7777 33.0271 60.4522 33.0271 60.4522C35.4447 58.7777 35.0271 51.4522 35.0271 51.4522C31.5771 51.2322 28.1171 41.9822 28.1171 41.9822C25.2871 44.2022 24.0071 40.4222 24.0071 40.4222C21.5571 32.7522 26.1571 34.2922 26.1571 34.2922C25.5371 25.2922 35.6371 23.1222 41.6771 21.8922C47.7171 20.6622 48.2071 18.0722 48.2071 18.0722C55.6371 26.7322 53.8571 45.4922 51.3371 49.3922Z" fill="black"/>
<path d="M45.7257 59.9537C40.0163 64.5212 34.4653 61.8568 32.4034 59.9537C22.3073 59.5324 14.5576 75.1619 11.9447 83.0293H68.5632C63.3296 73.4343 51.435 55.3862 45.7257 59.9537Z" fill="black"/>
</svg>
