<svg width="80" height="85" viewBox="0 0 80 85" fill="none" xmlns="http://www.w3.org/2000/svg">
<path fill-rule="evenodd" clip-rule="evenodd" d="M38.2948 0.840995C46.6414 0.662382 55.2419 1.51601 62.1321 6.45555C69.1355 11.4762 73.3077 19.5682 76.1199 27.9575C78.9904 36.5205 81.2837 45.9416 78.2134 54.4281C75.2011 62.7539 67.214 67.419 60.0881 72.2691C53.3421 76.8606 46.3134 80.9289 38.2948 81.598C29.7726 82.309 20.6561 81.5162 13.8253 76.1292C7.04331 70.7807 4.2785 61.7503 2.19447 53.128C0.230153 45.001 0.0551811 36.6288 2.33571 28.5929C4.66314 20.3918 8.58018 12.5347 15.1545 7.46085C21.7541 2.36753 30.1003 1.01636 38.2948 0.840995Z" fill="#E06B65"/>
<path d="M43.1113 15.2705C43.1113 15.2705 29.9513 15.4805 29.7413 34.0905C29.7413 34.0905 22.6313 32.8305 28.6913 42.0305C28.6913 42.0305 29.2813 43.6105 31.1613 42.0305C33.0413 40.4505 29.4113 45.8205 37.9013 51.1905C37.9013 51.1905 38.0313 59.8105 35.9013 61.1905C33.7713 62.5705 47.5213 67.3205 49.7713 61.1905C48.3443 59.4292 47.5925 57.2165 47.6513 54.9505C47.6513 54.9505 57.1113 54.4205 57.1713 38.2005C57.2313 21.9805 52.7313 14.3405 43.1113 15.2705Z" fill="#CD9F94"/>
<path d="M58.2613 28.5505C56.8013 28.5505 60.1413 18.1205 54.9213 17.2805C54.9213 17.2805 51.0613 10.0705 48.7713 10.2805C46.4813 10.4905 46.1613 11.0005 43.6513 10.2805C43.6513 10.2805 36.8713 4.34048 34.8913 9.56048C34.8913 9.56048 30.7213 7.78048 26.9613 14.1505C23.2013 20.5205 20.8113 14.4605 22.1613 22.8005C22.1613 22.8005 18.6213 26.4605 19.8713 31.3605C19.8713 31.3605 15.2813 33.6505 18.5113 39.3605C21.7413 45.0705 12.5713 41.2405 18.9313 50.6305C18.9313 50.6305 15.8013 57.8805 17.9913 59.2105C20.1813 60.5405 14.8613 65.3405 18.3013 67.0105C21.7413 68.6805 16.3013 70.4505 21.3013 72.1205C21.3013 72.1205 21.0913 78.5905 25.3013 72.8505C25.3013 72.8505 27.1813 74.2105 30.8313 72.2205C34.4813 70.2305 37.7213 69.3005 39.3913 70.9705C41.0613 72.6405 45.1213 72.1205 47.6313 70.4505C50.1413 68.7805 51.0713 75.5605 52.5313 71.7005C53.9913 67.8405 52.5213 68.4205 56.1113 67.4205C59.7013 66.4205 62.3713 62.8305 61.3213 60.4205C60.6675 59.1196 60.3464 57.6769 60.3865 56.2215C60.4266 54.7661 60.8268 53.3434 61.5513 52.0805C63.3113 48.5305 60.1813 45.4205 62.9913 41.2905C65.8013 37.1605 59.7213 28.5505 58.2613 28.5505ZM54.4813 49.9505C50.0913 56.1005 48.5413 52.9505 47.4813 55.0205C46.4213 57.0905 49.7713 61.1805 49.7713 61.1805C44.4013 67.8105 36.2313 61.8005 36.2313 61.8005C36.2313 61.8005 39.4513 51.8005 37.6313 51.0205C34.0213 49.4405 31.2513 42.1505 31.7213 41.6205C29.2613 44.3205 27.0013 40.2705 26.4113 36.3505C26.0013 33.6505 29.6713 34.7705 29.6713 34.7705C29.4913 31.2505 31.8013 31.4605 31.4613 30.2205C31.2013 29.2905 30.6213 21.8205 34.1513 22.2205C37.6813 22.6205 34.2313 16.8905 38.7113 18.2205C43.1913 19.5505 43.1113 16.1405 43.1113 16.1405C44.0613 15.7105 44.6613 16.8305 46.0413 17.7805C47.4213 18.7305 49.7413 18.2105 49.7413 18.2105C58.1113 20.4205 59.1613 43.4205 54.4813 49.9505Z" fill="black"/>
<path d="M49.3175 61.484C43.6081 66.0515 38.0571 63.3871 35.9952 61.484C25.8991 61.0627 18.1494 76.6922 15.5365 84.5596H72.155C66.9214 74.9646 55.0268 56.9165 49.3175 61.484Z" fill="#FFB6B3"/>
</svg>
