<svg width="80" height="83" viewBox="0 0 80 83" fill="none" xmlns="http://www.w3.org/2000/svg">
<path fill-rule="evenodd" clip-rule="evenodd" d="M39.8965 0.432308C47.8419 0.128346 55.7616 1.76603 62.528 6.30009C69.6837 11.095 76.3395 17.6748 78.7063 26.4381C81.044 35.0934 78.3049 44.2481 75.0138 52.5295C71.9737 60.1792 66.9506 66.4097 60.8269 71.4274C54.6019 76.5282 47.6772 80.7479 39.8965 81.3044C31.7637 81.886 23.4799 79.7408 16.8631 74.5716C10.2268 69.3871 6.214 61.3587 3.5977 52.9465C0.955139 44.4499 -0.787022 35.2027 1.99238 26.7578C4.7328 18.4313 11.5358 12.7519 18.3943 7.98848C24.9002 3.46995 32.1792 0.727545 39.8965 0.432308Z" fill="#FFFF99"/>
<path d="M39.5085 14.9292C39.5085 14.9292 26.3385 15.1392 26.1285 33.7492C26.1285 33.7492 19.0285 32.4892 25.1285 41.6892C25.1285 41.6892 25.7185 43.2692 27.5885 41.6892C29.4585 40.1092 25.8185 45.4392 34.2985 50.8092C34.2985 50.8092 34.4185 59.4292 32.2985 60.8092C30.1785 62.1892 43.9185 66.9292 46.1685 60.8092C44.7363 59.0502 43.9808 56.8368 44.0385 54.5692C44.0385 54.5692 53.4785 54.0892 53.5385 37.8292C53.5985 21.5692 49.0885 13.9292 39.5085 14.9292Z" fill="#CD9F94"/>
<path d="M53.8985 14.5392C53.8985 14.5392 49.1885 11.5392 49.3285 10.1092C49.4685 8.67919 46.0485 6.92919 43.1885 8.25919C43.1885 8.25919 38.1885 4.10919 33.3385 8.39919C33.3385 8.39919 26.9085 7.82919 24.7685 11.9692C24.7685 11.9692 19.7685 11.5392 21.7685 18.5392C21.7685 18.5392 16.7685 20.9692 20.6285 26.3892C20.6285 26.3892 17.7685 30.6792 21.6285 33.2492C25.4885 35.8192 25.7685 32.6792 26.6285 37.2492C27.4885 41.8192 28.9085 32.9592 28.7685 31.2492C28.6285 29.5392 28.7685 25.8192 31.0485 26.8192C33.3285 27.8192 30.1985 21.9292 34.8185 24.2492C39.4385 26.5692 41.6685 19.7492 43.5285 22.4992C45.3885 25.2492 49.3785 26.4992 50.3785 23.6792C51.3785 20.8592 53.2385 24.8892 55.2385 22.4992C57.2385 20.1092 58.4685 18.9292 53.8985 14.5392Z" fill="black"/>
<path d="M45.5513 59.7439C39.842 64.3114 34.2909 61.647 32.229 59.7439C22.133 59.3227 14.3832 74.9522 11.7704 82.8196H68.3889C63.1552 73.2245 51.2606 55.1764 45.5513 59.7439Z" fill="#F8F8C8"/>
</svg>
