<svg width="80" height="93" viewBox="0 0 80 93" fill="none" xmlns="http://www.w3.org/2000/svg">
<path fill-rule="evenodd" clip-rule="evenodd" d="M38.2576 0.41851C46.6041 0.239897 55.2046 1.09353 62.0948 6.03306C69.0982 11.0537 73.2704 19.1457 76.0827 27.5351C78.9531 36.098 81.2465 45.5192 78.1761 54.0056C75.1638 62.3314 67.1767 66.9965 60.0508 71.8466C53.3049 76.4381 46.2762 80.5064 38.2576 81.1755C29.7354 81.8866 20.6189 81.0938 13.788 75.7067C7.00605 70.3582 4.24123 61.3279 2.15721 52.7055C0.192891 44.5785 0.0179191 36.2063 2.29845 28.1704C4.62588 19.9693 8.54292 12.1122 15.1173 7.03836C21.7169 1.94505 30.063 0.59387 38.2576 0.41851Z" fill="#E06B65"/>
<path d="M41.1321 15.6846C41.1321 15.6846 27.9621 15.8946 27.7521 34.4946C27.7521 34.4946 20.6421 33.2446 26.7521 42.4946C26.7521 42.4946 27.3521 44.0746 29.2221 42.4946C31.0921 40.9146 27.4721 46.2846 35.9721 51.6546C35.9721 51.6546 36.0921 60.2746 33.9721 61.6546C31.8521 63.0346 45.5921 67.7746 47.8321 61.6546C46.383 59.8804 45.62 57.6445 45.6821 55.3546C45.6821 55.3546 55.1221 54.8746 55.1721 38.6146C55.2221 22.3546 50.6821 14.7446 41.1321 15.6846Z" fill="#E8C0B6"/>
<path d="M65.682 66.1346C65.682 66.1346 63.022 50.0246 64.262 43.0046C65.502 35.9846 52.0721 15.6446 52.0721 15.6446C52.0721 15.6446 53.3021 6.85459 47.0721 9.49459C47.0721 9.49459 42.8021 12.5946 35.0721 10.8446C27.3421 9.09459 22.682 19.5746 23.232 23.0646C23.232 23.0646 10.432 27.7246 14.312 48.0646C18.192 68.4046 18.192 86.8546 23.812 89.7646C29.432 92.6746 37.202 94.0646 42.682 85.9146C48.162 77.7646 54.312 81.4346 54.312 81.4346C54.312 81.4346 67.262 86.3046 65.682 66.1346ZM52.972 49.6146C50.492 53.4546 48.822 54.9346 46.362 54.9346C43.902 54.9346 47.462 61.2046 47.462 61.2046C40.932 64.4046 34.662 60.6746 34.662 60.6746C37.492 58.6746 36.662 51.6746 36.662 51.6746C33.212 51.4546 29.752 42.2046 29.752 42.2046C26.922 44.4246 25.642 40.6446 25.642 40.6446C23.192 32.9746 27.792 34.5146 27.792 34.5146C27.172 25.5146 37.272 23.3446 43.312 22.1146C49.352 20.8846 49.842 18.2946 49.842 18.2946C57.272 26.9546 55.492 45.7146 52.972 49.6146Z" fill="black"/>
<path d="M47.3606 59.7439C41.6513 64.3114 36.1002 61.647 34.0383 59.7439C23.9422 59.3227 16.1925 74.9522 13.5797 82.8196H70.1982C64.9645 73.2245 53.0699 55.1764 47.3606 59.7439Z" fill="#FFB6B3"/>
</svg>
