<svg width="80" height="82" viewBox="0 0 80 82" fill="none" xmlns="http://www.w3.org/2000/svg">
<path fill-rule="evenodd" clip-rule="evenodd" d="M38.8007 0.940789C47.118 0.240923 55.4637 2.58858 62.4426 7.53015C69.6654 12.6444 75.6814 19.9413 78.2304 28.8599C80.7584 37.705 79.3023 47.2163 76.2582 55.8693C73.3298 64.1935 68.4214 71.6635 61.4835 76.4646C54.8034 81.0873 46.7315 81.7009 38.8007 81.7905C30.7865 81.8811 22.2602 82.0664 15.7709 76.981C9.27859 71.8933 6.85168 63.0496 4.36765 54.8069C1.88155 46.5574 -1.02813 37.8424 1.49376 29.6056C4.00994 21.3874 11.1628 16.3107 17.6895 11.2959C24.1463 6.33485 30.9033 1.60532 38.8007 0.940789Z" fill="#99CC99"/>
<path d="M43.2774 12.5461C43.2774 12.5461 30.1074 12.7561 29.8674 31.3961C29.8674 31.3961 22.7574 30.1362 28.8674 39.3361C28.8674 39.3361 29.4574 40.9261 31.3274 39.3361C33.1974 37.7461 29.5774 43.1262 38.0774 48.4962C38.0774 48.4962 38.1974 57.1162 36.0774 58.4962C33.9574 59.8762 47.6974 64.6162 49.9374 58.4962C48.5113 56.7305 47.7598 54.5151 47.8174 52.2462C47.8174 52.2462 57.2574 51.7661 57.3074 35.5061C57.3574 19.2461 52.8674 11.6061 43.2774 12.5461Z" fill="#E8C0B6"/>
<path d="M24.7774 18.6361C24.7774 18.6361 21.3474 22.3861 25.6774 27.8561C25.4897 28.2447 25.3879 28.6691 25.3791 29.1005C25.3704 29.532 25.4548 29.9602 25.6266 30.356C25.7984 30.7519 26.0536 31.106 26.3747 31.3942C26.6959 31.6824 27.0754 31.898 27.4874 32.0261C27.4874 32.0261 29.6074 34.4461 30.4074 32.5261C31.2074 30.6061 32.6274 23.3662 35.8474 23.2662C35.8474 23.2662 35.0374 17.0262 39.9774 17.8362C39.9774 17.8362 40.9774 15.5161 43.0974 16.5261C45.2174 17.5361 46.7874 18.8662 48.7074 17.1562C50.6274 15.4462 52.1574 22.3062 54.9174 21.6262C56.4674 21.2362 56.2774 31.5262 57.2874 30.5162C58.2974 29.5062 60.4074 18.7361 55.0674 12.7061C55.0674 12.7061 50.8474 9.98615 49.3374 11.7061C49.3374 11.7061 47.9274 8.48615 44.6074 8.48615C41.2874 8.48615 39.6074 9.99615 37.9574 9.69615C36.3074 9.39615 33.4274 9.18615 32.0174 10.6962C32.0174 10.6862 23.7874 15.2561 24.7774 18.6361Z" fill="black"/>
<path d="M49.8674 11.3162C50.062 10.659 50.4757 10.0883 51.0397 9.69896C51.6037 9.30961 52.284 9.12511 52.9674 9.17615" fill="black"/>
<path d="M48.7074 10.6661C48.7175 10.1739 48.9036 9.70149 49.232 9.3346C49.5603 8.96771 50.0093 8.73057 50.4974 8.66614" fill="black"/>
<path d="M49.2847 58.7439C43.5754 63.3114 38.0243 60.647 35.9624 58.7439C25.8664 58.3227 18.1166 73.9522 15.5038 81.8196H72.1223C66.8886 72.2245 54.994 54.1764 49.2847 58.7439Z" fill="#CBF4CB"/>
</svg>
