<svg width="80" height="92" viewBox="0 0 80 92" fill="none" xmlns="http://www.w3.org/2000/svg">
<path fill-rule="evenodd" clip-rule="evenodd" d="M40.5768 0.0220373C48.2762 -0.078932 55.6199 3.25525 61.8561 8.29141C68.0995 13.3334 72.7032 20.2909 75.5608 28.2742C78.5819 36.7143 81.2532 46.1363 78.4581 54.6727C75.6965 63.1067 67.9307 67.6914 61.0986 72.4432C54.7448 76.8623 48.0652 81.0651 40.5768 81.0194C33.113 80.9739 26.6054 76.4987 20.2175 72.1938C13.2098 67.4713 4.84585 63.4799 1.90583 54.9588C-1.07849 46.3093 1.71013 36.5714 4.98853 28.0553C8.0383 20.1331 13.343 13.8192 19.6581 8.84479C25.8997 3.92816 32.9352 0.122247 40.5768 0.0220373Z" fill="#99CCFF"/>
<path d="M41.1321 15.2712C41.1321 15.2712 27.9621 15.4812 27.7521 34.0812C27.7521 34.0812 20.6421 32.8312 26.7521 42.0812C26.7521 42.0812 27.3521 43.6612 29.2221 42.0812C31.0921 40.5012 27.4721 45.8712 35.9721 51.2412C35.9721 51.2412 36.0921 59.8612 33.9721 61.2412C31.8521 62.6212 45.5921 67.3612 47.8321 61.2412C46.383 59.467 45.62 57.2311 45.6821 54.9412C45.6821 54.9412 55.1221 54.4612 55.1721 38.2012C55.2221 21.9412 50.6821 14.3312 41.1321 15.2712Z" fill="#E8C0B6"/>
<path d="M65.682 65.7212C65.682 65.7212 63.022 49.6112 64.262 42.5912C65.502 35.5712 52.0721 15.2312 52.0721 15.2312C52.0721 15.2312 53.3021 6.44123 47.0721 9.08123C47.0721 9.08123 42.8021 12.1812 35.0721 10.4312C27.3421 8.68123 22.682 19.1612 23.232 22.6512C23.232 22.6512 10.432 27.3112 14.312 47.6512C18.192 67.9912 18.192 86.4412 23.812 89.3512C29.432 92.2612 37.202 93.6512 42.682 85.5012C48.162 77.3512 54.312 81.0212 54.312 81.0212C54.312 81.0212 67.262 85.8912 65.682 65.7212ZM52.972 49.2012C50.492 53.0412 48.822 54.5212 46.362 54.5212C43.902 54.5212 47.462 60.7912 47.462 60.7912C40.932 63.9912 34.662 60.2612 34.662 60.2612C37.492 58.2612 36.662 51.2612 36.662 51.2612C33.212 51.0412 29.752 41.7912 29.752 41.7912C26.922 44.0112 25.642 40.2312 25.642 40.2312C23.192 32.5612 27.792 34.1012 27.792 34.1012C27.172 25.1012 37.272 22.9312 43.312 21.7012C49.352 20.4712 49.842 17.8812 49.842 17.8812C57.272 26.5412 55.492 45.3012 52.972 49.2012Z" fill="black"/>
<path d="M47.3606 58.9442C41.6513 63.5117 36.1002 60.8473 34.0383 58.9442C23.9422 58.5229 16.1925 74.1524 13.5797 82.0198H70.1982C64.9645 72.4248 53.0699 54.3767 47.3606 58.9442Z" fill="#C3DDF7"/>
</svg>
