<svg width="82" height="84" viewBox="0 0 82 84" fill="none" xmlns="http://www.w3.org/2000/svg">
<path fill-rule="evenodd" clip-rule="evenodd" d="M40.6213 1.08153C48.5407 0.711113 56.6517 1.93376 63.2281 6.77542C69.9503 11.7244 74.2207 19.5603 77.0203 27.8791C79.9136 36.4764 82.0518 45.9155 79.3138 54.5735C76.5988 63.1587 69.4744 68.8345 62.5063 73.775C55.8703 78.4801 48.5254 82.2662 40.6213 82.0073C32.8585 81.7529 25.762 77.6393 19.6683 72.3715C13.7737 67.2758 9.7657 60.4001 6.85901 52.8208C3.70783 44.604 -0.0707805 35.7216 2.34999 27.2135C4.7797 18.674 12.4417 13.5617 19.3765 8.82647C25.8677 4.39422 32.9767 1.43909 40.6213 1.08153Z" fill="white" stroke="#DADADA" stroke-width="2"/>
<path d="M45.1788 12.0033C45.1788 12.0033 32.0088 12.2133 31.7988 30.8133C31.7988 30.8133 24.6888 29.5633 30.7988 38.8133C30.7988 38.8133 31.3888 40.3933 33.2588 38.8133C35.1288 37.2333 31.5088 42.5933 40.0088 47.9733C40.0088 47.9733 40.1288 56.5933 38.0088 57.9733C35.8888 59.3533 49.6288 64.0933 51.8688 57.9733C50.4426 56.2077 49.6911 53.9922 49.7487 51.7233C49.7487 51.7233 59.1887 51.2533 59.2487 34.9833C59.2587 18.8133 54.7588 11.0633 45.1788 12.0033Z" fill="#E8C0B6"/>
<path d="M49.9288 11.7533C49.9288 11.7533 40.3388 7.75331 36.4288 10.6233C32.5188 13.4933 33.1488 16.2333 29.6788 16.1133C26.2088 15.9933 16.6088 17.4533 19.4188 34.2233C19.4188 34.2233 28.5688 25.3833 27.6888 18.0033C27.6888 18.0033 28.5088 27.8533 26.1088 30.8733C23.7088 33.8933 18.5988 48.6133 27.9388 53.1533C37.2788 57.6933 40.0588 53.7233 40.0588 53.7233L40.5588 48.0433C40.5588 48.0433 34.3488 42.6633 33.7788 38.5633C33.3288 38.5633 30.4888 40.8533 29.1788 35.9133C27.9188 31.1433 29.6388 29.5333 32.6088 31.7033C32.6088 31.7033 32.4188 35.3633 33.1788 34.9833C33.9388 34.6033 35.3288 23.9833 37.7188 23.2433C40.1088 22.5033 50.4188 21.4533 49.9288 11.7533Z" fill="black"/>
<path d="M49.8987 14.0133C49.8987 14.0133 57.2187 19.4533 58.7487 26.4533C58.7487 26.4533 61.4887 15.1233 53.4787 12.4533C53.4787 12.4533 48.5287 10.4533 49.8987 14.0133Z" fill="black"/>
<path d="M51.2562 57.9442C45.5469 62.5117 39.9958 59.8473 37.9339 57.9442C27.8379 57.5229 20.0881 73.1524 17.4753 81.0198H74.0938C68.8601 71.4248 56.9655 53.3767 51.2562 57.9442Z" fill="#DADADA"/>
</svg>
