<svg width="80" height="82" viewBox="0 0 80 82" fill="none" xmlns="http://www.w3.org/2000/svg">
<path fill-rule="evenodd" clip-rule="evenodd" d="M42.0023 0.0677289C50.636 -0.405729 59.3593 2.65358 65.91 8.15347C72.1685 13.408 74.5333 21.4613 76.7268 29.2219C78.8222 36.6351 80.5067 44.3212 78.2126 51.6784C75.891 59.1237 70.2181 64.8424 64.0706 69.8096C57.5351 75.0903 50.4686 80.3125 42.0023 80.9363C33.1891 81.5857 24.4574 78.3934 17.3681 73.2508C10.3351 68.149 5.61597 60.7169 2.92191 52.587C0.231813 44.4691 -0.975672 35.5606 2.25045 27.6303C5.37795 19.9424 13.0578 15.4674 19.9731 10.6726C26.8138 5.92955 33.6197 0.527423 42.0023 0.0677289Z" fill="#343434"/>
<path d="M41.2051 12.3794C41.2051 12.3794 28.0351 12.5894 27.8251 31.2294C27.8251 31.2294 20.7251 29.9794 26.8251 39.2294C26.8251 39.2294 27.4151 40.8094 29.2851 39.2294C31.1551 37.6494 27.5351 43.0094 36.0351 48.3894C36.0351 48.3894 36.1551 57.0094 34.0351 58.3894C31.9151 59.7694 45.6551 64.5094 47.9051 58.3894C46.4737 56.626 45.7185 54.4099 45.7751 52.1394C45.7751 52.1394 55.2251 51.6694 55.2751 35.3994C55.2851 19.2294 50.7951 11.4394 41.2051 12.3794Z" fill="#E3BAA3"/>
<path d="M26.9451 25.8894C26.9451 25.8894 25.0851 29.1594 27.5951 31.1594C30.1051 33.1594 28.4951 26.1594 30.8651 24.9894C33.2351 23.8194 30.4851 21.1394 33.1151 20.7494C35.7451 20.3594 34.1151 17.2794 36.3251 17.4094C38.5351 17.5394 38.5151 15.8694 39.6051 16.4094C40.6951 16.9494 47.3751 17.1194 48.4651 16.9894C49.5551 16.8594 51.2251 18.0794 51.7451 17.9894C52.2651 17.8994 53.7451 17.7294 53.1551 15.6694C52.5651 13.6094 50.1551 13.8694 49.9451 13.2994C49.7351 12.7294 48.5251 13.5494 48.0751 12.1394C47.6251 10.7294 46.2151 10.3394 44.8051 10.7294C43.3951 11.1194 42.9451 9.8294 41.6551 11.8794C41.6551 11.8794 39.3451 9.8794 37.4151 11.6294C35.4851 13.3794 35.2951 9.8894 33.3051 14.1294C33.3051 14.1294 28.4951 13.2294 29.1351 18.3694C29.1351 18.3094 27.3351 18.2294 26.9451 25.8894Z" fill="black"/>
<path d="M47.6356 57.9442C41.9263 62.5117 36.3752 59.8473 34.3133 57.9442C24.2173 57.5229 16.4675 73.1524 13.8547 81.0198H70.4732C65.2395 71.4248 53.3449 53.3767 47.6356 57.9442Z" fill="black"/>
</svg>
